<?xml version="1.0" encoding="utf-8"?>
<!-- Generator: Adobe Illustrator 21.1.0, SVG Export Plug-In . SVG Version: 6.00 Build 0)  -->
<svg version="1.1" id="レイヤー_14" xmlns="http://www.w3.org/2000/svg" xmlns:xlink="http://www.w3.org/1999/xlink" x="0px"
	 y="0px" viewBox="0 0 4160 6240" style="enable-background:new 0 0 4160 6240;" xml:space="preserve">
<style type="text/css">
	.st0{fill:#1B3F49;}
	.st1{fill:#A5ABAD;}
	.st2{fill:#1D2223;}
	.st3{fill:#CAE4EA;}
	.st4{fill:#353333;}
	.st5{fill:#6D6B6B;}
</style>
<g id="レイヤー_15">
</g>
<path id="body-right" class="st0" d="M2266.1,3088.6c-4.5-27-49.5-354-54-360s-93-78-96-91.5s-186-741-190.5-781.5s-63-364.5-63-396
	s0-72,0-72s-73.5,72-84,79.5s-36.4,10.6-36.4,10.6s-14.8,5.9-16.1,6.4s-22.1,7-23.2,7.5s-29.6,11.2-31.2,11.8c0,0-45,17.6-47.9,18.9
	s-34.1,13.4-38.5,15c0,0-33.5,13.1-34.5,13.4s-51.8,20.2-55.5,21.6c0,0-58.5,23.4-62.5,24.4s-34.5,12.8-38.4,14.1
	c0,0-13.4,5-16.2,6.2s-29.9,11.2-34,12.1s-21.8,7.2-22.8,7.9s-2.6,1.2-3.1,1.5s-5.2,1.2-5.2,1.2l-15.9,25.5l153,1022.9l24.9,19.6
	l1.7-1.1c0,0,1.3,0.8,1.3,1.7c0,0.8-0.2,6.2-0.2,7.2s4,10.3,4.3,12s3,9.2,4,12.5s5.2,17.9,5.8,19.8c0.6,1.8,2.4,11.6,2.6,12.4
	c0.2,0.8,2.8,12.8,3.1,14.2c0.2,1.4,2.4,11.1,2.7,12.5c0.2,1.4,2.4,14.5,2.7,17.8s2.5,17.4,2.5,18.7s2.2,19.2,2.2,20.2
	c0,0.9,1.8,22.7,1.8,23.9s1.7,21.5,1.7,23.7s-0.2,4.3-0.1,5s0,12.6,0,13.2s-0.6,43.3-0.6,45.1s-0.6,26.8-0.5,28.5s-1.2,8.9-1.2,9.4
	s-0.2,7.2-1,11.5s-5.9,40.5-6.4,43.4s-2.8,18.9-4.2,25.5s-4.1,30.1-5.5,33.8s-3.1,22.4-4.8,26s-4.4,22.1-4.9,23.5s-0.2,6-2.9,11.6
	s-4.9,17.5-5.9,20.4s-4.4,21.6-5.1,24s-2.2,12.6-2.8,15.4s-3.1,25.6-3.5,28.8s-0.1,11.8-1,14.6s-1.9,26.6-2.1,28.5s-0.4,22.8-0.6,24
	s-1.1,27.9-1.2,30.9s0.1,21.9,0,22.8s-0.4,3.4,0.2,5.2s1,2.8,2.2,5s2,1.9,2.2,3.6s0,12,0,13.6s-0.5,2.5-0.8,3.6s-0.9,14-1.1,16.1
	s-0.9,11.8-1.1,17s-0.8,12.3-0.9,15.2c-0.1,2.8-1.1,15.7-1.1,17.5s-1.1,12.2-1.1,16.8s-1.2,12.8-1.2,16.4c0,3.7-1.1,25.3-1.3,26.7
	s-0.3,8.4-0.2,9.4c0.1,1,0,7.9-0.1,10s-0.8,9.3-0.8,9.9c0.1,0.6-2.8,102.3-3.2,106c-0.3,3.7-18,187.3-18,187.3l-21.3,24.3
	c0,0-1.3,3-1.7,5c-0.3,2-2.5,13.3-2.5,15s-3.2,21.8-3.3,24.3c-0.2,2.5-1.3,15.8-1.7,17.3c0,0-1.5,1.4-1.4,2.6s2.4,6.3,2.9,7.4
	s7.7,17.1,8.4,19s6.8,15.4,10.3,24.2s10.5,27.5,11.5,32.8s4.8,13.8,5,19s2.5,14.5,2,19.2s-0.8,5.2-1.8,7s-3.5,4-3.5,4l-1.2,0.5
	l0.2,11.5c0,0,7.8,6,9,7.2s20.2,21.8,21.3,23.3s8.2,11.2,10.3,12.7c2.2,1.4,11.9,5.5,15.4,6.8c3.4,1.3,30.2,8.7,30.3,8.8
	c0,0,15.5,4.4,22.9,5.2s23,3,25.1,3.1s2.1,0.5,9.8,1s20.8,2.4,23.7,2.6c0,0,20.4,2.2,27.6,2.8c7.2,0.6,19.8,1.9,24,2.2
	c4.2,0.3,21.2,1.6,27.8,1.7s22.2,1.2,22.6,1.2c0,0,20.8-0.1,32.4,1.2s53.7,1.3,68,1.3s32,0.7,37.7-0.3s14.9-2.8,21.5-5
	s25.9-10.6,32.5-14c0,0,23.8-16.8,27.5-18.8s22.2-19.4,25.1-21.4s21.6-22.6,24.2-25c0,0,28.4-35.4,28.9-35.9s25.1-38.2,27.5-41.8
	s13.8-24,15-26.4s1.8-3.5,2-4.6c0.2-1.2-0.4-2.2-0.2-2.8c0.2-0.6,5.2-8.8,5.7-9.8s3.1-8,3.5-8.9s3-7.2,3.7-8.8
	c0.7-1.5,3.2-8.4,3.9-10.1c0.8-1.7,2.8-7.3,3.8-9.4c0.9-2.1,3-9.2,3.2-9.8c0.2-0.7,5.2-14.5,5.6-15.4c0.4-0.9,2.4-7.4,3-8.8
	c0.6-1.4,0.9-3.7,2-5.8s1.5-4.6,2.3-7.2c0.8-2.7,2.5-9.2,3.4-12.5c0.9-3.2,2.4-8.2,3.1-10.3c0.7-2.2,1.8-6.8,3.3-11.3
	s4.8-15.4,4.8-16.2c0.1-0.8,3.4-11.1,3.8-12.9c0,0,5.4-18.4,5.8-19.6c0.4-1.2,7.4-24.3,7.8-25.3c0,0,3.9-13.8,4.5-15.5
	c0.6-1.8,11-37.1,11.3-38s37.4-138.3,37.4-138.3l66-303C2233.1,3289.6,2270.6,3115.6,2266.1,3088.6z M2143,2813.5
	c15.4,0,29,10.7,33.6,25.1l12.1,0.4l12.4,1.1l13.4,1.1l6.5,0.8l1.1,1.1c0,0,1.6,4.3,1.5,5.2s-0.7,7.6-0.7,7.6s-1.9,2.4-2.2,2.4
	s-5.3,0.6-6.7,0.6s-23.1,1-23.7,1.1c-0.4,0-8.8,0.6-12.6,0.8c-4,15-18,25.1-34.2,25.1c-19.2,0-35.1-16.7-35.1-36.6
	C2108.5,2829.5,2123.8,2813.5,2143,2813.5z M2100.2,3292.4c-4.6,0-8.9-1-12.9-2.8c-11-5-18.6-16.1-18.6-29
	c0-17.5,14.1-31.7,31.5-31.7s31.5,14.2,31.5,31.7S2117.6,3292.4,2100.2,3292.4z M2230,3265.8c0,0.2-0.9,2-0.9,2s-0.5,0.9-1.1,1.1
	c-0.7,0.2-1.2,1.1-1.6,1.2c-0.4,0.1-4.9-1.8-5.3-2.2s-1.7-2-1.8-2.2s-3.1,0.3-3.1,0.3l-54.9,1c-1.2,0.5-2.8,0.5-3.8,0.8
	s-1.8,0.6-3.2,1.1s-3,0.8-3.8,1s-3.8,0.8-4.8,0.8s-5.1-1.7-6-2.3s-3.6-3.7-4.4-4.5c-0.8-0.8-2.7-5.2-3.1-5.9
	c-0.4-0.8-0.3-9.1-0.2-9.7c0.1-0.6,4.3-6.6,4.5-6.9c0.2-0.2,2.8-1.2,3.4-1.8s5.4-1.9,5.9-1.8c0.5,0,4.5,0.4,5.1,0.6
	c0.6,0.2,2.5,1.2,3.1,1.5c0.5,0.2,1.8,1.7,2.1,2c0.4,0.3,0.5,0.8,1.2,1.3s-0.2,0.9,0,1.2v0.5c0,0,15.7-0.1,16-0.1s0,1,0,1l22,0.1
	v0.8h24.1l-0.2-0.8c0,0,5.9-1,6.1-1.1c0.2,0,1.3-0.1,1.8-0.1s1.3,1.2,1.8,1.7s1.2,2.2,1.4,2.5
	C2230.1,3249.5,2230,3265.6,2230,3265.8z"/>
<path id="body-left" class="st1" d="M2800.3,2734.3l42.7-42.3l119-1030c0,0,0.3-0.5-1.3-1.2c-1.7-0.7-2.3,0.2-5.5-1.8
	s-15.8-7.8-20.3-8.8s-28.2-7.7-35.2-9.2s-41.8-16.2-44-17c0,0-66.7-24.8-70-26s-48.5-19.8-51.8-21.2c0,0-76-34.2-82.7-36.2
	s-67.5-32.8-70.5-33.7c0,0-45.7-18-55.7-24s-66-54-66-54s-215,862-224,892s-111,425-123,445s-26,77.2-26,77.2s-2.4,25.6-2.5,27.8
	s-2.4,38.8-2.4,41.6s-0.4,19.9-0.2,21.1s0,21.8,0,23.1s-0.6,44.4-0.8,46.6s0,29.1,0.1,31s0.8,32.5,0.8,32.5s-0.1,25.8-0.1,27.2
	s0.9,25.5,1,26.2s1,24.4,0.9,25.5s1.1,35.8,1.1,35.8s0.8,41.6,2.1,48.6s1.3,1,1.3,5s1,49.7,0.3,54.7s-0.3,79.7,0.3,85s2,38.3,2.3,44
	s4,46,5.3,52.7s11,102.7,12,108s9.7,64.7,12,76.7s8.7,70,10,74s1.7,10,3.7,16.3s17,49.3,18,52.7s22.7,67,25,73.3s39,114,41.3,120.3
	s21.3,43.3,26.3,49.7c0,0,35,45,42,52.3s46.3,50.3,51.3,55.3s42,29,46.3,30.7s39.3,11.3,47.3,12.7c8,1.3,33.7,3,40,2.7
	s20-2.7,29-3.3s63.7-6.7,75.7-7s57-6.3,65.3-6.7c0,0,36.7-5.7,44-6.3s42-7.3,42-7.3s12.7-4.7,24.7-7.3c12-2.7,12-16,16.7-26
	s11.3-34,7.3-36.7s-11.3-8-8.7-12.7c2.7-4.7,80-165,80-165l-39-722l-25.7-24.3c0,0-21.1-112.2-23.3-131.3c-2.2-18.5-7-124.3-6-139.3
	S2766.3,2768.3,2800.3,2734.3z M2143,2813.5c12,0,23,6.5,29.4,16.3l-0.1,0.3c0,0,11.9,18.5,3.8,33.5l0.1,1.6
	c-5.3,12.6-18.1,20.8-32.7,20.8c-19.2,0.1-35-16.6-35-36.5C2108.5,2829.5,2123.8,2813.5,2143,2813.5z M2570.6,1750.5
	c-1,0.6-4.6,1.8-6.9,2s-8.9-3.1-10.1-3.9c-1.2-0.8-14-9.9-19-12s-24.9-16.8-26-17.9c-1.1-1.1-3.5-6-4-7.4c-0.5-1.4,0.4-5.5,0.6-6.8
	c0.2-1.3,1.9-1.6,2.4-1.8c0.2-0.4-0.5-0.2-0.5-0.2c0.6-0.5,2.9,0.6,3.5,0.9s4,3.1,4.8,3.4c0.8,0.3,23.1,14.4,24.1,15
	c1,0.6,22.2,14.4,23.6,15.2s4.9,1,6.2,1.4s1.6,0.6,2.4,1.1s1.9,4.5,2.2,5.8C2574.2,1746.6,2571.6,1749.9,2570.6,1750.5z"/>
<path id="arm-right" class="st2" d="M1319.4,1638.6c0,0-9.4-0.1-11.1,0.5s-14,7.1-15.5,8.6c0,0-9.6,8.1-10.1,8.6s-5.5,4.5-7.4,7.9
	s-8.1,17.1-8.9,19s-4.4,10.4-5.6,13.4s-5.2,15.6-7.9,21.5s-9.5,30.4-10,32.2s-1.6,7.5-3,11.6s-7.8,30.9-8.6,34.1s-9,33.1-10.1,37.2
	s-6,27.9-6,29.4c0,0-6,31.1-6.5,35.1s-5.1,24.2-5.4,26.8s-4.5,28.5-5,30.2s-5.6,28.6-6.5,33s-3.8,21.1-4.2,26.8s-2.5,22.8-3.1,24.8
	c0,0-1.2,23-3.9,30.2s-7.5,53-7.9,55.2s-3.1,24.8-3.4,28.1s-2.4,20.8-2.5,22.6s-3.1,20.5-3.2,22.9c0,0-3,36.5-3.9,40.8
	s-3,28.6-3.5,32.2s-6,54.2-6,55.1s-4.5,51.1-4.6,52.5c0,0-4.4,42-4.6,48.8s-4,47.5-4,50.6s-5.1,61.8-5.2,64.5s-3.2,37.2-3.5,43.6
	s-2.4,30.2-2.4,34.5s-2.8,47.4-2.8,51s-2.4,38.5-2.5,41.8s-2.9,47.2-3,52.4s-1.4,32.8-1.4,35.4s-2.5,47.6-2.8,51s-1.6,18.9-1.5,25.5
	s-1.1,25.2-1.1,28.6s-1.6,28.5-1.6,30.1s-0.9,20-0.9,21.2c0,0-1.9,19.5-1.9,23.4s-3.8,63.8-3.9,66.4s-3.4,41-3.6,46.1
	s-2,32.9-2.1,36.5s-1.9,24.8-2.2,29.1s-1.2,25.2-1.5,28.9c0,0-4.6,68.5-4.6,71.5c0,0-1.9,36-1.9,42.6s-0.6,50.6-0.5,53.5
	s0.2,46,0.2,52.8s0.1,29,0.5,32.9s0.2,43.4,0.2,45.5s0.2,45.9,0.2,49.4s0.4,81.6,0.5,85.1s1.2,72.5,1,74.5s0.4,36,0.4,37.8
	s-0.1,93.5,0.4,102.5c0,0-0.5,13.2-0.5,13.9s0,9.6,0,11.3s0.4,5,1.2,6.4c0,0,1.7,2.7,2.4,3.7s3.8,3.8,4.2,4s2.8,0.8,2.8,0.8
	s0.3-11.7,0.3-12.8s-0.5-4.8,1.9-6s7.6-3.5,9.2-3.9c0,0,21.1-7.3,23.9-7.8s22.6-5.1,28.3-6.4c0,0,35.7-7.4,37-7.6s18.8-4,20.5-4.2
	s14.2-2.1,14.2-2.1s23.2-2.5,26.5-3.2s30.9-5.2,33.1-5.6c0,0,41.1-5.8,43.2-5.8s18.2-2.2,33.7-3.2c0,0,31.2-0.4,36.6,0.1
	c5.3,0.5,17.2,3.8,22.8,7.4c5.5,3.6,10.8,5.8,12.2,8.7c0,0,1.3,4.1,0.8,7.2s-1.8,9.9-1.9,12.5s-0.9,7.5-1,9.8s-0.8,7.6-1.1,9.5
	s-1.8,5.8-2.6,6.8s0.5,1.4,2.1-0.4s6.5-13.6,6.6-16.9s3.6-26.4,3.8-34.2s-0.1-21.8,0.2-25s1.4-20.9,1.2-22.8s0.6-21.5,0.9-24.9
	s-0.5-25-0.1-31.2s0.6-31.1,0.8-38.6s-0.1-54.5,0-58.8s0-36.2,0.1-38.2s-0.4-7-1.1-12s-1.8-14.8-3-23s-2-31-2-36s-3-73-3-76
	s1.2-134.8,2-137s3.2-79.5,3.5-85s3.2-84.5,3.5-87.8s2-77.2,2.5-82s4-114,4-116s3.8-99.2,4.2-103.8s7.2-75,7.2-79s1.2-15.8,1.8-18.5
	s1.5-14,2.5-15.2s3.5-2.2,3.5-2.2s-2.5-20.5-4-32.2s-10.8-50.8-10.8-58.8s-5-41-5.2-43.5s-16-124.8-16-128.8s-8.2-86.8-7.5-91.5
	s-1.8-78-1-82s1-6.8,0.2-9s-3.8-16-4-20s-5.2-36.8-5.8-41s-8-64.5-8.5-71.2s-2.5-28.8-2.2-35.2s-2.2-45.5-3.8-53.8
	s-10.5-75.5-10.5-80.2s-18.2-96-18.8-103.5s-17.8-92-19.5-97.8s-12-44.2-13-48S1321,1639.8,1319.4,1638.6z"/>
<path id="collar-right" class="st1" d="M1911.1,1326.4c0-1.2-0.1-2.3-0.1-3.4c-0.5,0.3-0.9,0.6-1.4,0.8l-10.3,8.3
	c-0.5,0.6-0.9,1.2-1.3,1.9c0.4-0.7,0.8-1.3,1.3-1.9l-1.6,1.3c-0.4,0.3-0.7,0.5-0.9,0.7c-0.6,0.6-13.5,13.5-14.1,14.3
	s-19.3,21.8-19.8,22.8c0,0-15,19.9-17.2,22.3s-24.2,24.2-25.1,25.1c0,0-33.3,28.2-34.2,28.9c-0.8,0.7-37.5,26.7-39.8,27.8
	c-2.3,1.2-11.2,5-13.3,6.3c-2.2,1.3-6.2,2.5-7.3,3.3c0,0-47.8,33.2-50.5,35.5c-2.5,2.2-30.5,21.5-33,23.2s-8.2,5.7-8.2,5.7l-0.8,1
	c0,0,21.9,21.5,24.7,23.7s21.1,15.1,23.6,17s24.5,14.2,26.2,15s4.4,2,4.4,2l2.4,0.6c0,0,41.8-29.5,47-32.8c0,0,47.2-32.8,54.8-38
	s40.2-36.5,43.2-40s21.2-16.2,23.5-17.5s13.8-2.8,13.8-2.8l-3-3c0,0-0.2-3.2-0.6-5.2c-0.4-2.1-2.3-20.5-2.3-22.9s-0.1-7.7-0.4-10.1
	s0.2-13.8,0.2-17s0.2-13,0.2-14.4s0.4-8,0.8-9.9c0.3-1.9,0.7-7.7,0.9-9.2s0.3-3.8,1.4-7.3c1.1-3.6,4-14.9,5.8-19.1s5.2-17.6,5.8-19
	c0.4-0.9,0.6-2,0.8-2.8c0.1-0.1,0.2-0.3,0.3-0.6c-2.2-0.1-5.3-2.4-7.8-3.2c2.5,0.8,5.7,3,7.8,3.2c1-2.1,3.6-7.7,3.8-8.8
	C1910.7,1328,1910.9,1327.2,1911.1,1326.4z"/>
<path id="lapel-right" class="st3" d="M1894.3,1476.3c0,0-4.1-1.1-5.3-1.1s-5.9,0.8-7.4,1.5s-18.2,11.8-19.4,13s-1.2,0.9-3.6,2.9
	s-3.5,2.5-3.5,2.5s-7.9,7.5-9.1,8.8s-15.1,15.5-15.6,15.9s-21,16.6-22.2,17.5s-15.9,12.1-18.1,13.4s-21.5,15.8-22.6,16.2
	c0,0-15.6,10.6-16.2,11.2s-19,12.8-20,13.8s-16.5,12.1-16.5,12.1s-9.9,7.4-11.4,8.4s-18.6,12-20,13.5c0,0-24,18.2-26,20.1
	s-14.6,11.2-17.2,13.8s-16.2,14.8-18.2,16.9c0,0-7.4,6.6-8,7.8s-2.8,2.5-3.2,5.2s0.9,9.8,1.5,12s16.4,43.9,16.5,45.2
	s5.9,15.4,7.2,19.4s11.6,30.2,12.1,32s16.5,45.4,16.8,46.1s9,25.1,9.8,26.5s11.1,29.8,11.6,31.1c0,0,13.2,37.4,14.1,39.5
	s11.8,32.9,15.2,39.6s13.9,34.4,16.4,39.6c0,0,20.8,48.8,23.5,53.8s26.6,58,27.1,59.4s15.8,36.1,18.5,40.9c0,0,16.9,38.5,19.6,43.4
	s31.5,73.5,32,74.4c0,0,16,39.6,18.8,45.2s23.2,54,24.4,56.4c0,0,11.2,25.5,14.6,32s28.8,59,30.4,61.6c0,0,12.8,25.2,18,33.5
	s18.9,33.5,22.2,38.4c0,0,17.9,29.5,24.8,39.9s21.8,32.6,23.8,35.8s26.9,40,28.9,42.4s18.5,23.1,24.8,32.6s14.8,19.1,15.5,20.6
	s22.5,33.1,22.5,33.1l23-123l-16-15.8c0,0-12.5-49.5-17.2-67.2s-18.5-78.8-20.2-84.8s-18.2-79.2-19.2-83.8s-22.2-87-23-90.5
	s-23.2-108.2-25-115s-31-139.8-31.5-145s-11.8-65.2-12.5-69.5c0,0-12.2-70.8-13.5-75.2s-10.5-60-11.2-62.8s-0.8-2.8-0.8-2.8
	s-12.5-77-13.2-83.8s-20-131.2-20.5-136s-3-23.5-4.5-28.2s-4.2-15.5-4.8-19.2s-4.2-24.2-4-28.8s0.5-5.8-0.2-8.5s-7.8-27.8-8.5-32.5
	S1894.3,1476.3,1894.3,1476.3z"/>
<path id="arm-left" class="st4" d="M2958.3,1660c-3,0.4-11.3,7-14.3,11s-19.7,37.7-21.7,42.7c0,0-7.1,15.8-8.1,21.1s-10,31-12,40.5
	S2890,1829,2889,1835s-11.8,57-12,62.2s-15,81.5-15.2,85.5s-11,79.8-12.2,88.5s-10.5,72-11.8,79s-11.2,71.5-11.2,76
	s-3.2,40.8-3.5,45.5s-2.8,73-3.2,79.5s-2.5,44-3,51.5s-0.2,47.5-0.2,52.5s1.5,70.8,0.8,79s-0.8,21-1.8,28.5s-9.5,52.5-10.5,63.8
	s-6.2,92.5-6.2,99.8s-2.5,70.8-2.5,74.5s-0.8,50-1.5,53.5s-0.8,22-1,27.2s-0.8,53.5-1.2,58.5s-2,35.2-2.8,40.8s-1.2,34.5-1.2,37.5
	s-0.5,53.8-1,60s-4.5,85.2-5.2,90.5s-0.5,67-0.5,71s0.2,114,0.2,120s-2.2,104.8-2.5,113.5s-4,81-4,88s-3,84.8-3.2,92.8
	s0,93-0.8,102.5s-4,89-5,98s-0.8,24-0.8,31.8s6.5,21.8,8.2,23.8s9.2,5.2,18.8,6.5s34.8-2.2,39.5-2.5s8.8-1.5,8.8-1.5
	s-47.2-10-51-11.8s-5-8.5-5.8-15.2s-3.2-21.8,2.2-26.8s25.2-17.8,32.5-18.5s19.2-4.5,27-4.8s63,0.5,70,2.2s64.2,7.2,76,8.2
	c0,0,41.5,5.8,47.2,6.5s31.8,2.2,40.5,3.8s18,3.5,23.2,5.2s16.8,6,19,7s4.8,2.8,6.5,4.5s3,2.8,2.8,4.5s-7.5,5.5-12.2,5.2
	s-10.8-1.5-12-2.2s-9.5-5.5-13-6.5s-23.8-4.2-30.8-4.2s-26.5,0.2-27.8,0s-3,0-3,0h-3.2c0,0,0.8,3,0,6s-1.2,6.2-4,8s-3.5,2.5-5,2.8
	s-3.8,1.5-3.8,1.5l-1.5,11.2l-0.5,4.2l4.2-0.2c0,0,32.8-5.5,37-6.2s51-12.2,54.5-12.5s16.8-1.2,18.5-1.8s2-8.8,2-10.2
	s0.2-4.8-1.8-8.5s-3-9.8-3-15.2s2.2-36.5,2.2-40.2s1.2-26.5,1.2-35.2s-1.2-58-1-72.8s0.2-67,0-72.8s0.2-9-0.2-19.5
	s-1.2-82.5-1.2-86.2s0-63.8,0.5-71s2.2-102,2.5-107.5s1.2-29.8,1-40.8s2.2-75.2,2.2-80.8s-1.5-56.5-1.5-60s-2-94.8-2-99
	s-1.2-52.8-0.8-64.5s-1.5-74-1.5-78.8s-1.5-76-1.5-77.8s-2.2-65.2-2-71.2s-5.2-132-5.5-135.8s-7.2-76.2-7.2-84.5s-3.2-50.2-3.2-52.5
	s-5.8-47-6-53.8s-5.2-45-5.5-50s-11.2-89.2-11.5-94.5s-12.2-98-13-104.5s-13.2-107.5-14-112s-12-89.8-12.8-94.8s-9.2-70-9.8-72.2
	s-13.5-101.8-13.8-105.2s-11.5-70-12.5-79s-1-17.8-4.5-27.8s-10.8-21.8-14.8-26s-7-7.8-12.5-11.5S2962.4,1659.5,2958.3,1660z"/>
<path id="collar-left" class="st2" d="M2371.5,1333.5c0,0,7.5,28.5,8.5,35.5s3.5,13,4,17s4,12,4,22s-0.5,20-0.5,25s-1,10-1.5,15.5
	s-4.5,18-4.5,22s-1,11.5-0.5,14.5s-0.5,9.5-0.5,9.5l3.5,4c0,0,15,10,21.5,15s49,40,59,48s84,55.5,85.5,57.5s7.5-3,10.5-3.5
	s6-1.5,9.5-4s10.5-8,14.5-10s15-7.5,17-11s12-12,13.5-14.5s9-13,9-13s-4-4.4-6.2-5.9s-15.9-13.5-18-15.2s-16.2-15.5-18.1-17.1
	s-30.9-26.9-32.2-28s-19.2-14.1-21.2-15.1c0,0-8.7-4.9-10.3-5.7c-1.6-0.8-17.4-12.6-19.7-14.2c0,0-13.9-13-16.4-15.1
	s-43.4-43.9-45.2-45.5s-42.9-44.4-44.8-46s-16.1-19-17.9-20.1S2371.5,1333.5,2371.5,1333.5z"/>
<path id="lapel-left" class="st5" d="M2660.5,1680.2c-2-3-2.5-6.5-6.5-8.5s-13.5-7.2-16.2-8.5s-47.8-28.5-54-31.2s-8.8-4.8-13.5-7.8
	s-9-5.2-14.8-7.8s-29.8-18.8-33.8-21.2s-57.8-42-61.8-45s-38.5-34.2-44.2-37.2c0,0-15-12.5-17.5-14.2s-5-4-8.8-5s-9-2-9-2
	s-1,5.2-1,6.6s0.2,1.2-1,4.5s-2.5,4.9-3.4,7.1s-3.9,9.2-4.6,13.2s-4.1,25.2-4.6,28s-3.4,21.1-4.1,25.1s-5.9,33.5-5.9,34.2
	c0,0-6.6,44.2-6.8,45.5s-5,34.8-5.2,36.5s-4.4,22.4-4.6,23.9s-6,30.1-6.2,33.2s-5.4,28.4-5.5,29.1s-12.9,59.6-13.4,60.6
	c0,0-28.6,131.5-28.9,133.5s-15.8,73.2-16.5,77.5s-20.5,96.5-21.2,101.8s-25,99.2-25.5,102.2s-20,73.8-20.5,76.8
	s-27,104.5-29.2,112.5c0,0-37.8,162.2-39.5,168s-13.2,50.8-14.5,56.2s-10.5,42-11.8,49.2s-10.5,55-11.2,59.5s-7.2,49-8.2,54.2
	s-1.2,12.8-1.2,12.8s18.5-18.5,19.8-20.8s26.8-34.8,31.2-40.2s31.5-48.5,35.5-54.5s43.8-71.5,46-75.2s36.2-60.2,39-64.8
	s47.5-81,53.5-90.8s33-56,34-58.2c0,0,47.8-85.8,52.5-92.5s32.8-64,32.8-64s17.5-43.2,19-46.2s27-68.5,29.2-73.5
	s40.2-103,41.2-105.2c0,0,41.8-103.8,43.2-107.6c1.3-3.8,17.5-51.3,22.1-61.2c4.6-9.8,38.5-100.5,39.2-102.8s30.5-78.2,32-83.2
	s4.5-10.2,4.5-14.2C2660.5,1688.8,2662.5,1683.2,2660.5,1680.2z M2570.6,1750.5c-1,0.6-4.6,1.8-6.9,2s-8.9-3.1-10.1-3.9
	s-14-9.9-19-12s-24.9-16.8-26-17.9s-3.5-6-4-7.4s0.4-5.5,0.6-6.8s1.9-1.6,2.4-1.8c0.2-0.4-0.5-0.2-0.5-0.2c0.6-0.5,2.9,0.6,3.5,0.9
	s4,3.1,4.8,3.4s23.1,14.4,24.1,15s22.2,14.4,23.6,15.2s4.9,1,6.2,1.4s1.6,0.6,2.4,1.1s1.9,4.5,2.2,5.8S2571.6,1749.9,2570.6,1750.5z
	"/>
</svg>
