<?xml version="1.0" encoding="utf-8"?>
<!-- Generator: Adobe Illustrator 21.1.0, SVG Export Plug-In . SVG Version: 6.00 Build 0)  -->
<svg version="1.1" id="Layar1" xmlns="http://www.w3.org/2000/svg" xmlns:xlink="http://www.w3.org/1999/xlink" x="0px" y="0px"
	 viewBox="0 0 4160 6240" style="enable-background:new 0 0 4160 6240;" xml:space="preserve">
<pattern id="normal" patternUnits="userSpaceOnUse" width="270" height="270" patternTransform="">
		<image image-rendering="optimizeQuality" preserveAspectRatio="xMidYMid meet" xlink:href="/images/simulator/default/default_tex.jpg" x="0" y="0" width="270" height="270" style="-ms-interpolation-mode: bicubic;" />
  </pattern>
  <pattern id="left" patternTransform="rotate(23)" patternUnits="userSpaceOnUse" width="270" height="270">
		<image image-rendering="optimizeQuality" preserveAspectRatio="xMidYMid meet" xlink:href="/images/simulator/default/default_tex.jpg" x="0" y="0" width="270" height="270" style="-ms-interpolation-mode: bicubic;" />
  </pattern>
  <pattern id="right" patternTransform="rotate(-23)" patternUnits="userSpaceOnUse" width="270" height="270">
		<image image-rendering="optimizeQuality" preserveAspectRatio="xMidYMid meet" xlink:href="/images/simulator/default/default_tex.jpg" x="0" y="0" width="270" height="270" style="-ms-interpolation-mode: bicubic;" />
  </pattern>
<style type="text/css">
	.normal{fill:url(#normal);}
	.left{fill:url(#left);}
	.right{fill:url(#right);}

</style>
<path id="leg-right" class="normal" d="M1289.7,451.7c0,0-30,149.3-31.3,154s-52,296-53.3,308s-33.3,289.3-34,298s-11.3,118.7-12,128
	s-12.7,268.7-13.3,274.7c-0.7,6-6,108.7-5.3,122.7s25.3,234.7,26,240.7s13.3,121.3,14,136s37.3,358,38,372s16,158.7,15.3,188.7
	s-4,226.7-4.7,228.7s-9.3,700-9.3,715.3s-2.7,182-3.3,190.7c-0.7,8.7-8,364.7-8,366.7s-2.7,346.7-4,352.7s-4,101.3-3.3,112.7
	s2,242,1.3,252s-4.7,268.7-4.7,278s-0.7,97.3-0.7,105.3s3.3,26.7,6.7,34c3.3,7.3,6,9.3,9.3,11.3s6.7,2.7,11.3,2.7
	c4.7,0,20.7,1.3,24.7,4s5.3,6.7,18.7,10c13.3,3.3,27.3,2,35.3,6s26.7,9.3,37.3,10c10.7,0.7,34.5,4.5,37.3,5s6.3,1.3,10.3,0.8
	s45.2-5.7,54-6.3c8.8-0.7,72.8-1.6,94.8,1.9c1.5,0.2,21-1,24.8-1c0,0,38.5,1,52,0.8s49.8-1.5,53-2s12.5-4,14.8-6.8
	s4.5-11.8,4.8-15.5s0-36.2,0.2-41s4-47,3.8-51s3-45.2,3.5-52.5s6.2-81,6.2-83.2s3.5-49,3.5-49.8s4.5-45,5-51.8s6.5-89.8,6.8-94.5
	s6.5-78.5,6.5-83.8s6.8-79,7.2-88.8c0,0,6-81.5,6.8-92s7.5-97.2,8-102.8s4.5-50,5-58.5s5.8-60.8,6.2-65.5s5-58,5.5-63.2
	s6-67.5,6.8-74.8s2-25.2,2.2-29.2s3-36.8,4-43.8s3-34,3.5-39.8s1.2-23.2,2.5-29.2s1.8-24.2,2.2-29.8s2.2-24.2,2.8-27.2
	s2.5-28.8,3-33s2.8-30.5,3.2-36.2s1.8-34.8,2.2-37.5s5.8-55.8,6-62s1.2-27,2.5-31.5s5.8-56.5,5.8-59.8s4-46.2,4.5-52.5
	s6.8-78,7-82.8s5.2-56.8,6-64s5-71,6.2-80.2s5.8-64.2,5.8-66s5.8-67,6.2-71.2s3-39.8,3.8-43.2s5-45.5,4.8-49s3.2-52.5,4-56.8
	s2.5-19.2,3.5-27.5s2.2-40,2.5-43c0,0,6.2-84,7.8-90.8s10.5-93,11.2-99.8s9.2-78.5,10-84.8s6.8-62,8-67.2s7-45.8,7.2-50.1
	s2.6-25.4,2.9-28.8s3.2-24.1,3.5-26.2s2.6-14.5,2.2-15.9S1935,2509,1937,2493s94-744,98-780s26-170,26-170l8-24l44-100l24-788
	c0,0-342,10-374,0s-320-120-374-140S1289.7,451.7,1289.7,451.7z"/>
<path id="leg-left" class="normal" d="M2865,456c0,0,5.7,11.7,6.3,16.7c0.7,5,0.7,6.3,1,12.7c0.3,6.3,3.7,19.7,3.7,21.3
	c0,1.7,19.7,81,20.7,85.3s14.3,61,15,70.3s9,52.3,9,55.7s22.3,146,23.3,154s14,91,16,104s11,148,13,164s16,245,16,256s10,116,9,130
	s-4,205-5,213s-15,298-16,307s-57,699-58,707s-6,108-6,120s6,353,6,362s13,368,14,379s9,382,8,395s-5,335-5,349s-7,387-10,401
	s-41,390-42,399s-8.5,106-9.5,111.5s-4.5,33.5-6,39S2858,5335,2856,5340s-6,10.5-11,12.5s-12.5,3-16.5,3.5s-6,1-9,3s-12.5,4-12.5,4
	l-3-2.5c0,0-49,12.5-55.5,12s-31,1-41,1s-31.5-4.5-37.5-5.5s-73.5,4.5-80,5c0,0-30.5-3.5-38-4s-39.5-5-43.5-6s-36.5-12-38.5-14.5
	s-0.5-5.5-8-12.5s-60.5-55-61-58s1.5-31,0-54s-5.5-109.5-6-116s-11.5-165.5-12-175s-7-141.5-7.5-145.5s-10.5-129-11-140.5
	s-9.5-158.5-10.5-166s-10.5-156.5-10.5-163s-10-132.5-10-144.5s-3.5-67-4-75.5s-0.5-95.5-0.5-99.5s-3-283.5-3.5-289s-2-196-3-204.5
	s-0.5-90-1-92.5s-4-253-4-254.5s-0.5-108-1-112.5s-2-60-2.5-64.5s-5.5-89-7-95s-10-102.5-11-108s-10.5-88-11.5-94s-16-100.5-16-106
	s-17-110-20.5-119.5s-19-78-21.5-88.5s-24.5-123.5-26-129s-22.5-89-24-93.5L2149,2019c0,0-28-129.5-28-131s-19-84.5-19.5-88
	s-11.5-54.5-12.5-62s-14.5-116.5-14.5-120.5s-1-52.5-2.5-61.5s-3-25.5-3-25.5l-0.5-8.5c0,0-6.5-17-8-21s-14.5-42-15-50.5
	s-8.5-42-6.5-50.5s-6.5-100.5-6.5-102s-4-69-4-69s-3-99-3-103.5s-0.5-57.5-0.5-60.5s1-166.5,2.5-169.5s13-158.5,14-162
	s7-102.5,7-102.5s410.5-7,428.5-15.5C2477,615.5,2808,537,2865,456z"/>
<path id="belt" class="normal" d="M2875.7,425.7c0.7-6-3.3-35.3-4-44c-0.7-8.7-14.7-84.7-16-89.3c-1.3-4.7-6.7-20-8.7-22.7
	c-2-2.7-12.7-24.7-24.7-15.3c0,0-8,18.7-1.3,43.3c0,0-16,17.3-22,22c-6,4.7-28,32-40.7,38s-66,34-72,36.7c-6,2.7-110.7,46-120.7,50
	s-19.3,12-40,14s-50.7,10-60,10.7c-9.3,0.7-24,3.3-28.7,4c0,0-66.7,8.7-79.3,8.7c-12.7,0-71.3,0.7-87.3,0.7s-54.7,0.7-68.7,4.7
	s-87.3,18.7-100,19.3c0,0-16.7,0-31.3,0c-14.7,0-161.3-11.3-173.3-11.3s-53.3-2-58.7-4.7c-5.3-2.7-154-40.7-161.3-42
	s-82-30-100-35.3c-18-5.3-65.3-33.3-80-41.3s-111.3-56.7-120.7-60.7s-32-23.3-41.3-36c0,0-14.7-14.7-19.3-14c0,0-4-0.7-5.3,4
	c-1.3,4.7-3.3,38.7-4,52.7s-6,27.3-6.7,34c-0.7,6.7-4,47.3-4.7,55.3s-4,30.7-3.3,36.7s-5.3,2.7,3.3,10c8.7,7.3,48,38.7,55.3,43.3
	c7.3,4.6,106.3,56.7,108,57.7s109.7,40.3,119.7,44c0,0,109.7,27.7,115.7,29c6,1.3,42,7.3,42,7.3s-4,16,12.7,20s124,12,133.3,12.7
	c9.3,0.7,119.3,14.7,127.3,15.3c8,0.6,34.7,3.3,34.7,3.3s58-2,67.3-2s62.7-5.3,82.7-5.3s121.3-13.3,123.3-14
	c2-0.7,134-13.3,147.3-16.7c13.3-3.3,92-20.7,106-26.7c0,0,98-37.3,101.3-38.7c3.3-1.3,52.7-20,54.7-21.3c2-1.3,69.3-34.7,75.3-42.7
	s51.3-38.7,54-42c2.7-3.3,9.3-14,9.3-14l7.3,29.3l4-8.7C2876.3,483.7,2875,431.7,2875.7,425.7z M1815.3,619.2
	c-19.6,0-38.5-15.9-38.5-35.5c0-19.6,17.1-35,36.8-35.2c8.4-0.1,16.1,2.5,22.4,6.8l0,0c0,0,23.3,15.3,13.3,44.7l0.3,0.1
	C1843.4,611.8,1829.7,619.2,1815.3,619.2z M2863,455.3c0,0-2.7-8.3-2.7-10.3s-10.7-59-10.7-62s-9.3-71-4.3-86.7
	c0,0,11.3,52.7,12.7,58.3c1.3,5.7,5,37.7,5.3,44c0.3,6.3,1.7,57.3,1.7,57.3L2863,455.3z"/>
<path id="belt-loop1" class="normal" d="M2494,476.2c5.8-0.2,13-3.5,17.5-3.8s14.5-3.2,20-3c0,0,4.5-1.8,6.2-0.2s3.5,1.2,4,7.5
	s3.5,50.8,3.5,52.8s1.8,14.2,1.8,20.5s0.8,36.2,1.2,44.8s-0.2,28.2-0.2,35.5s-1.8,63.5-1.5,69.5s1,19.5,0,20.5s-10,2.8-11.5,3.2
	s-10.2,2.8-14,3s-8.8-0.8-11.8-0.2s-3,0.2-4.5,0.8s-1.2,2.5-3.8-0.2s-2.2-6.2-2.2-9.5s3.5-36.2,3.5-39.2s0.2-53.8,1.2-57
	s-0.8-41.5-0.5-54s-0.8-46.5-1.8-51s-6-35.8-6.2-36.8S2494,476.2,2494,476.2z"/>
<path id="belt-loop2" class="normal" d="M1545,418.3c0,0,10-1.3,13,0s9.7,3,12.7,4.3s6.3,2,10,3.7l3.7,2c0,0,0,2-2.3,4.3
	s-5.3,10.7-6.3,16.3s-3.7,23-4,29.3s-2.7,37.3-3.3,46.7c-0.7,9.3-3.7,31.7-4,35.3c-0.3,3.7-1,54-1.3,60.3s-1,36.3-1.3,40.7
	c-0.3,4.3,0.7,9.7,1,11s-0.3,2,1.7,1.7s2-0.7,2.7-2s-1-1,3-1s8,1,8,1s0.3,0.7,1,4.7s2.3,11.7,2.3,11.7l-7,3c0,0-2-1.7-5-2.3
	s-5,0-11.3-0.7s-15-2-22-3.7s-9.3-2-13.7-2.7c-4.3-0.7-7.3,1.3-8-1.7s2-29.7,2-34.7s10-109.3,11.3-116s15-104.3,15-107
	C1542.7,420,1545,418.3,1545,418.3z"/>
</svg>
