<?xml version="1.0" encoding="utf-8"?>
<!-- Generator: Adobe Illustrator 21.1.0, SVG Export Plug-In . SVG Version: 6.00 Build 0)  -->
<svg version="1.1" id="Layar-1" xmlns="http://www.w3.org/2000/svg" xmlns:xlink="http://www.w3.org/1999/xlink" x="0px" y="0px"
	 viewBox="0 0 4160 6240" style="enable-background:new 0 0 4160 6240;" xml:space="preserve">
<pattern id="normal" patternUnits="userSpaceOnUse" width="270" height="270" patternTransform="">
		<image image-rendering="optimizeQuality" preserveAspectRatio="xMidYMid meet" xlink:href="/images/simulator/default/default_tex.jpg" x="0" y="0" width="270" height="270" style="-ms-interpolation-mode: bicubic;" />
  </pattern>
  <pattern id="left" patternTransform="rotate(23)" patternUnits="userSpaceOnUse" width="270" height="270">
		<image image-rendering="optimizeQuality" preserveAspectRatio="xMidYMid meet" xlink:href="/images/simulator/default/default_tex.jpg" x="0" y="0" width="270" height="270" style="-ms-interpolation-mode: bicubic;" />
  </pattern>
  <pattern id="right" patternTransform="rotate(-23)" patternUnits="userSpaceOnUse" width="270" height="270">
		<image image-rendering="optimizeQuality" preserveAspectRatio="xMidYMid meet" xlink:href="/images/simulator/default/default_tex.jpg" x="0" y="0" width="270" height="270" style="-ms-interpolation-mode: bicubic;" />
  </pattern>
<style type="text/css">
	.normal{fill:url(#normal);}
	.left{fill:url(#left);}
	.right{fill:url(#right);}

</style>
<g id="レイヤー_14">
	<path class="normal" d="M1490.1,1911.9c0,0,2.7,1.8,0.9,7.6c-1.8,5.7-24.5,89.5-29,107.1c-4.6,17.5-31.8,125.9-36.6,148
		c-4.8,22.1-8.8,35.4-11.8,74.4c-3.1,39-6.4,104.1-6.7,151.9c-0.3,47.8,3.8,152.1,3.8,152.1s0.6,58.8,0,108.4s1.7,162.6,4.1,220.8
		s16.8,325.7,17.5,355.5c0.6,29.7,12.2,291.4,12.2,291.4s9.9,118.9,9.9,128.8c0,9.9,1.2,81.6,1.2,106.1c0,24.5,1.2,76.4,5.2,185.3
		c4.1,109,7,337.4,8.7,405c1.7,67.6,4.1,291.4,4.1,291.4s2.9,188.1,4.1,257.5c1.2,69.4,1.7,88.1,1.7,89.7c0,1.7,2.9,191.7,2.9,191.7
		s3.5,159.1,3.5,195.8c0,36.7,4.1,100.3,5.8,145.1c1.8,44.9,7.6,119.4,7.6,119.4s3.1,3.7,4.3,4.9c1.3,1.3,2.9,1.7,2.9,3.5
		c0,1.9,1.3,11,3.9,13.6s5.7,7.1,6.5,10.3c0.6,3.2,1.3,9,4.8,11.6c3.5,2.6,13.9,9.6,21.8,12.9c8.1,3.2,24.1,6.1,26,7.4
		c1.9,1.3,4.2,1.9,8.3,2.9s6.1,0,11.3,1.3c5.1,1.3,12.5,4.2,15.7,5.5c3.2,1.3,15.7,6.1,21.6,6.1c5.7,0,10.3-1.9,13.9-2.2
		c3.5-0.3,8.3-0.9,11.3-3.2c2.9-2.2,8.3-3.5,15.1-9c6.8-5.5,8.3-7.7,11.6-8.6s6.8-1.7,17.3-4.8c10.5-3.2,12.9-4.2,19.6-4.8
		c6.8-0.6,16.7-3.5,21.8-5.7c5.1-2.2,6.8-3.5,6.8-3.5s5.7,0,8.1-0.9s5.7-4.2,9.6-4.2s8.3-0.6,10.3-1.9c1.9-1.3,4.2-1.7,10.5-2.6
		c6.5-0.9,12.9-2.2,15.1-6.5c2.2-4.2,5.5-31.3,10.9-75.9c5.5-44.7,7.7-76.4,9.6-103.3c1.9-27,8.6-163.1,10.9-196.8
		c2.2-33.8,9.3-115.9,12.5-164.4c3.2-48.5,10.5-151,11.9-200.3c1.3-49.5,4.8-213.9,4.5-231.2c-0.3-17.3,0.6-62.3,2.6-90.5
		c1.9-28.2,17.3-179.4,18.6-197.8c1.3-18.3,11.6-120.7,16.4-169.6c4.8-48.8,19-184.6,21.6-208.4s13.1-122.9,15.7-155.4
		c2.6-32.5,7.4-134.2,9-166s5.5-101.2,6.5-119.1c0.9-17.9,3.5-21.8,3.9-30.8c0.4-9,2.2-25.3,2.9-34c0.7-8.7,8.1-58.8,13.1-94.7
		c5.1-35.9,20.3-141.3,25.6-168.9c5.4-27.6,16.4-91.9,19-105.3c2.6-13.4,4.2-35.3,4.2-47.2c0-11.9,3.9-49.5,5.7-68.4
		c1.9-19,6.1-52,6.5-61c0.3-9,2.9-35,4.2-45.9c1.3-10.9,16-113,19-137.4c2.9-24.4,5.5-36.9,6.1-44.3c0.6-7.4,5.5-54.3,7.4-63.2
		c1.9-9,12.9-64.8,14.4-68.7c1.7-3.9,0.3-8.1,2.2-11.3c1.9-3.2,0.6-5.5,1.7-9c0.9-3.5,6.1-10.9,6.1-10.9s1.3-20.8,0.6-27.6
		c-0.6-6.8-5.5-17.7-6.5-44.3c-0.9-26.6-7.1-103.3-7.1-103.3l-8.1-145.4l-6.1-157l-2.2-128.8l-249.8-25.6c0,0-205.2-26.6-243.4-34.4
		c-38.2-7.7-76.4-12.5-76.4-12.5L1490.1,1911.9z"/>
</g>
<g id="レイヤー_15">
	<path class="normal" d="M2704.1,1848.1c0,0,2.6,2.1,6.2,10.4s7.8,11.9,9.3,23.9c1.6,11.9,4.1,24.9,8.3,43.6
		c4.1,18.7,43,213,48.2,247.3c5.2,34.2,22.3,137.4,28.5,189.2c6.2,51.9,12.9,94.4,19.2,154.5c6.2,60.1,7.8,84,7.8,105.7
		c0,21.7-2.6,86.1-3.1,115.6c-0.6,29.5-3.7,57-4.6,66.3c-1,9.3-20.3,254-20.3,254s-8.3,154-12.4,207.8s-16.6,216.2-18.1,251
		c-1.6,34.8-5.2,212-5.2,212s-3.1,80.3-4.1,101.7c-1,21.2-2.6,148.7-2.6,148.7s-4.6,154.9-5.2,185.7c-0.6,30.5-8.8,240-9.3,268.1
		c-0.6,28-3.7,266.5-3.7,266.5s-0.6,278.4,0,307.9c0.6,29.5-0.6,301.7-0.6,301.7l1.6,258.2c0,0,1,75.7,1,81.9s0.6,20.5,0.6,20.5
		l-0.2,4.3c0,0-6.1,1.8-9,4.3c-3,2.4-15.2,14.1-16.8,15.9c-1.6,1.8-19.7,5.8-22.1,7.1c-2.4,1.3-17.3,6.1-20.4,8.2
		c-3.2,2.1-5.8,3.4-8.5,4.5c-2.7,1.1-5.8,2.1-8,3.4c-2.1,1.3-10.4,4.7-14.6,6.1c-4.3,1.3-8,0.7-10.9,3c-3,2.1-5.1,4-7.7,5.1
		c-2.7,1.1-9.5,1.8-9.5,1.8s-13.5,3.2-18.9,3.4c-5.3,0.2-14.9,0.7-29.8,0.7c-14.9,0-27.9-0.2-32.7-0.7c-4.7-0.6-8-1.3-12.5-3
		c-4.5-1.6-9-3.4-13.9-4c-4.7-0.6-12.2-1.6-14.9-3.2c-2.7-1.6-7.1-3-10.9-4.7c-3.7-1.8-10.4-5.1-17-6.1s-6.9-2.1-11.1-2.1
		s-10.9,0.7-13.9,0c-3-0.7-6.9-1.8-9.8-9.8c-2.9-8-11.5-29-13.3-35.9c-1.8-6.9-8.5-16.7-9.5-20.2c-1.1-3.4-2.7-6.6-3.2-12.8
		c-0.6-6.1,0.6-14.1-1.3-40.7c-1.8-26.6-6.4-103.6-7.7-151.7c-1.3-48.1-8-197.1-8-197.1l-9.5-210.1c0,0-5.3-120.3-6.4-153.3
		c-1.1-32.9-3.2-130.7-4.7-178.3c-1.6-47.5-2.4-70.7-2.4-70.7s-4.3-124-6.1-152.5c-1.8-28.5-12-162.3-12-162.3l-9.8-144.2
		c0,0-6.4-98.5-9.3-141.8c-2.9-43.3-3.2-44.7-3.2-44.7s-9.3-126.4-10.6-161.5c-1.3-35.1-8.2-123.2-10.4-145.6
		c-2.2-22.3-21-155.1-24.2-175.4c-3.2-20.3-25.3-149.1-25.7-155.7c-0.6-6.6-1.1-15.4-1.8-21c-0.7-5.6-13.3-67.7-17-90
		c-3.7-22.3-12.9-75.2-18-96.8c-5.1-21.6-21-85.6-24.4-104.9c-3.4-19.3-27.6-138.4-27.6-138.4s-26.8-124.6-31.4-140
		c-4.5-15.4-31.9-113.5-33.8-119c-1.8-5.6-2.7-7.1-3-8.5c-0.3-1.3-1.1-2.7-1.3-5.1c-0.2-2.4,0.2-3.4-1.1-5.8
		c-1.3-2.4-6.1-13.9-6.6-16.7c-0.5-2.9-0.2-5.3-0.7-6.1c-0.6-0.8-0.7-1.3-2.7-1.1c-1.8,0.2-2.2,0.8-2.2,0.8l6.1-10.9
		c0,0,1.2-16.8,0.7-21.8c-0.6-5.1,0.2-6.6-1.8-14.3c-2.1-7.7-4.7-29.8-5.3-42.2c-0.6-12.5-7.5-112.4-7.5-112.4s-6.4-114.8-7.5-131.5
		c-1.1-16.7-4.5-92.7-5.3-134.4c-0.7-41.7-1.6-124.9-2.1-132.3c-0.6-7.5-0.4-17.5-0.4-17.5l240.8-21.8c0,0,158.1-31.4,220.5-38.8
		C2584.1,1912.1,2704.1,1848.1,2704.1,1848.1z"/>
</g>
<path class="normal" d="M2700,1801.9c-3.1-20.8-3.3-27.6-2.4-28.8c0.9-1.2,2.7-2.4,2.7-2.4l0.3-42.4c0,0-9.1-13.9-12.7-16.7
	c0,0,1.5,15.2,1.8,19.7c0.3,4.5,2.7,4.2-3.1,9.1c-5.7,4.8-26.1,16-50.9,23c-24.8,6.9-103.2,27.8-124.7,32.4
	c-21.5,4.5-60.2,12.4-80.8,15.7c-20.6,3.3-43.2,6.9-52.4,9.4c-9.1,2.4-15.4,4-45.4,5.5c-30,1.5-73.3,6.7-74.1,6.7
	c-0.8,0-15.2,2.4-31.2,2.1c-16-0.3-72.3,1.8-78.7,1.5c-6.4-0.3-68.4,2.7-72,3.1c-3.7,0.3-19.1,0.9-19.1,0.9s-59,0-76.5-0.9
	c-17.6-0.9-27.8-1.8-27.8-1.8s-4.5,0.6-13.9,0.3c-9.4-0.3-45.6-1.8-78.9-4.8c-33.3-3.1-64.7-7.6-99.5-11.8
	c-34.8-4.2-74.4-11.2-118.9-19.1c-44.5-7.9-111-20.3-119.8-22.7s-19.1-4-21.2-9.1c-2.1-5.1-0.9-13.9-0.3-17.9s0.3-7.9,0.3-9.4
	s-1.1-1.6-1.1-1.6s0.6,0.6-2.1,4.1s-11.9,10.9-12.9,13.4c-1,2.6-1.1,20.3-1.1,22c0,1.8,0.9,5.5,0.9,12.4c0,6.9,0.9,25.4,0.3,29.6
	c-0.6,4.2-1.5,13.9-1.2,23.3c0.3,9.4,1.2,17.6,2.4,33.9c1.2,16.3,2.4,27.2,3.3,30c0.2,0.6,0.5,1.1,0.8,1.6c1.3,1.7,3.6,2.7,5.2,3
	c2.1,0.3,3.1-0.9,36.4,7.2c33.3,8.1,82.2,16.3,113.1,21.7c30.9,5.4,85.6,11.8,108.6,15.4s54.8,6.4,65.6,6.9
	c10.9,0.6,16.9-0.3,16.9-0.3s7.6,7.6,15.7,9.4c8.1,1.8,48.5,4.5,63.5,4.8c15.2,0.3,74.1,4.5,97.1,6.9c23,2.4,47.2,6.4,50.9,6.1
	s-2.1,0.3,13.3-0.9c15.4-1.2,48.1-4.8,70.5-6.9s82.9-9.1,117.7-12.9c34.8-4,107.1-12.1,121.9-13.3c14.9-1.2,46-6.9,55-8.8
	c9.1-1.8,120.4-28.8,141.6-33.3s72.6-18.1,79.6-19.7c6.9-1.5,14.2-2.7,20.6-9.1c6.4-6.4,16.3-16.7,20-22.7
	c3.7-6.1,4.8-11.2,4.8-11.2S2703,1822.7,2700,1801.9z M1882.7,1934.6c-25.3,0.4-31.1-21.4-31.5-27.2c0,0,2.3-28,28-27.6
	c25.6,0.4,30.7,21.4,30.7,26.8C1909.9,1912,1908,1934.2,1882.7,1934.6z"/>
<g id="belt-loop">
	<path class="normal" d="M2394.6,1825.3c2.2,4.2,5.5,7,5.5,7s2.6,1,2.3,2.9c-0.2,1.8-1.6,4.1-0.7,10.1c0.7,6,2.3,30.3,2.3,39.1
		s2.1,25.1,2.3,48.7s0.6,28.5-0.2,35.2c-0.7,6.7-1.8,18.9-2.1,24.1c-0.2,5.2-0.7,11.5-1,12.7c-0.2,1.3-3.9,6.8-3.9,6.8l0.6,2.6
		c0,0,4.9,1.6,7.8,0.6c2.9-1,7.2-1,14.5-1.6c7.2-0.6,9.5,0.2,12.7-1.3c3.1-1.6,5.5-1.6,5.6-9.5c0.2-8.1-1-50.5-1-56
		s-5.2-105-5.2-110.2c0-5.2-1-16.6-3.3-19.4c-2.3-2.9-9.1-0.7-9.1-0.7s-12.9,2.9-16.1,2.6c-3.1-0.2-7.6-0.6-8.5,0.2
		C2395.9,1819.9,2392.3,1820.9,2394.6,1825.3z"/>
	<path class="normal" d="M1735.2,1822.7c0,0,18.4,1.8,25.9,2.6c7.6,0.7,8.5,0.6,8.8,2.1s1,17.1,0,19.7c-1,2.6-0.2,2.9-1.8,3.7
		c-1.6,0.7-5.6,0.6-5.6,0.6l-1,49l-0.6,60.1c0,0,4.6-0.2,5.5,2.1c0.7,2.3,1.3,1.8,1.3,6.2s-0.7,39.1-0.7,39.1s-0.2,7.2-2.3,8.8
		s-6.2,1.8-8.5,1.8s-6.8-1.3-11.5-2.3c-4.6-1-7-1.3-12.2-1.8c-5.2-0.6-10.4-1-10.4-5.2c0-4.1,2.3-54.2,3.1-74.6
		c0.7-20.4,3.1-82.4,3.1-86.9c0-4.4,0.2-8.5,0.7-13.2c0.6-4.6,1.3-9.9,2.1-10.6C1731.8,1822.9,1735.2,1822.7,1735.2,1822.7z"/>
	<path class="normal" d="M2687.6,1709.4c0,0,12.4,6.4,12.9,7.8c0.4,1.4,11.7,22.4,13.4,25.8c1.7,3.4,9.2,15.7,10.5,25.6
		c1.2,10,3,26.3,3.2,31c0.3,4.6,1.9,6.2,1.9,9.5c0,3.2,2.5,41.2,2.2,52.7c-0.3,11.5,0.4,19.3-0.2,22.4c-0.6,3.1-0.7,4.8-2.3,7.4
		s-5.3,4.3-5.5,4.8c-0.2,0.5-0.7,2.2-0.7,2.2s-1.4-3.5-1.9-8c-0.6-4.4-3.7-21-3.7-21s4.6-2.7,3.2-5.1c-1.4-2.3-1.9-4.6-2.3-6.6
		c-0.4-1.9-0.4-16.7-1.6-22.9c-1.2-6.2-0.6-8-1.6-9.5c-0.9-1.6-1.6-2.2-1.6-3.2c0-1.1-0.2-11.3-0.7-13.2c-0.6-1.9-3.5-9.3-5.3-13.9
		c-1.8-4.5-2.2-7.1-2.7-11.8c-0.6-4.6-0.7-8-2.3-9.7c-1.6-1.8-1.6-1.7-1.6-1.7l-0.4-43.2c0,0-6.1-10.3-8.5-12.4
		c-2.5-2.2-4.5-4.6-4.5-4.6v-2.3H2687.6L2687.6,1709.4z"/>
</g>
</svg>
