<?xml version="1.0" encoding="utf-8"?>
<!-- Generator: Adobe Illustrator 21.1.0, SVG Export Plug-In . SVG Version: 6.00 Build 0)  -->
<svg version="1.1" id="Layar1" xmlns="http://www.w3.org/2000/svg" xmlns:xlink="http://www.w3.org/1999/xlink" x="0px" y="0px"
	 viewBox="0 0 4160 6240" style="enable-background:new 0 0 4160 6240;" xml:space="preserve">
<style type="text/css">
	.st0{fill:#C2CDCE;}
	.st1{fill:#CAEBED;}
</style>
<path id="body-right" class="st0" d="M2007,4027l-10-442c0,0,2-664,4-686s10-420,22-440s28-60,28-60l9.7-61.3c0,0-3.7-8.3-6.3-12.7
	c-2.7-4.3-44-77.3-51.3-93s-55-119-56-122c0,0-46.3-101-48.3-106.7s-40.3-97.3-40.3-97.3s-33.3-82-34.7-84c-1.3-2-3.3-6.3-7-9.3
	s-6.3-5-7.3-9s-11.3-46-15-56.7s-37.7-97.3-40-102s-9-11.7-10.7-17s-42.7-133.3-43.3-140.7c-0.7-7.3-21-59-7-93c0,0-47.3,21.7-50,24
	s-33,16.3-44,18.3s-63.3,14-74.7,17.7c-11.3,3.7-62.7,20-74.3,24.7s-98,38-107,40.3s-28,8.3-35.7,10.3s-34.7,6.7-44,9.3
	c-9.3,2.7-11.3,3.3-20,7s-14,5.7-19.3,6s-12.7-0.3-16.3,1c-3.7,1.3-13,3.7-20.7,10.7s-10,8.3-11.3,14.3s-4.3,0.7-3,12
	s11.7,120.7,12.7,127.3c1,6.7,8.3,100,8,104.3s3.7,126,3.7,126s4.2,102.8,4.2,110.8s2,105.5,1.5,109.5s-4,181-5,192.5
	s-19.5,183-22,194.5s-15,87-16.5,90.5s-9.5,24.5-12,30s-9.5,27-11,32s-4.5,15.5-4.5,15.5s6.5,8.5,6.5,12s11.5,107,13.5,126
	s16,154,17,175s12.3,242.3,11,259.3s-2.7,166.3-3,168.3s-5.3,159-12,205.3c0,0-21.3,168.7-21.7,173.3s-4,30.7-5.3,37.7
	s-17.7,75.3-18.3,78.3c-0.7,3-29.7,122.7-32.7,132.7c-3,10-20,60-24,70s-28,55,9,79c0,0,118,78,137,86s80,33,95,39s72,29,89,37
	s66,36,77,40s63,25,80,33s120,68,149,85s107,61,111,63s28,9,45-31c0,0,6-16,9-25s102-187,149-233l56-71L2007,4027z M1939.5,4304.8
	c-21.2,0.2-45.5-17.5-48.8-39.6c-2.2-14.7-2.4-44.6,29.6-43.4c26.5,1,46.8,21.9,47.5,43.8
	C1968.7,4289.2,1964.9,4304.5,1939.5,4304.8z"/>
<path id="body-left" class="st1" d="M2973,4220.5c0,0-25-97-31-133c0,0-30-209.5-31.5-235c0,0-32-300-29.5-314c0,0-14-180.5-10-221
	c0,0,10.5-249.5,14.5-276.5c0,0,16-174.5,35.5-219c0,0,20-60,25-67.5l1-2c0,0-19-65.5-20-72s-21.5-78.5-23-113c0,0-10-42.5-7.5-81.5
	c0,0,0-164.5,1-166.5s2.5-142,2.5-142s1.5-67,3-84s5.5-80,9.5-102.5s17-164.5,24-183.5s11-47,12-55s7.5-72.5,8-77.5s0.5-22.5,1-30
	s-0.5-14-1.5-18s2.5-4.5-4-9.5s-6-9-11-10.5s-11-2-16-4s-21-11-35-14s-43-14-61-20s-200-78-214-84s-144-64-156-70
	s-24.7-24.7-24.7-24.7s8,28.7,9.3,36.7s2.7,19.3-0.7,39.3s-14.7,60-14,65.3s-21.3,72.7-22,75.3c-0.7,2.6-66,169.3-68,173.3
	s-73.3,178-77.3,189.3c-4,11.3-29.2,66.8-31.7,73.8s-68.5,120.5-68.5,120.5s-72.5,122-74,125.5s-38,65.5-43.5,75.5
	s-29,62.5-30.5,66.5s-22,74-24.5,84s-9,79.5-9.5,82.5s-6,123-6,123l-8.5,175c0,0-5.5,117.5-6.5,130s-0.5,329.5,0,337
	s3.5,145.5,3.5,154.5s3,225,2.5,227.5s7,143,6.5,148s4.5,135.5,4.5,141.5s4.5,92,5,98.5s10,32.5,13.5,38.5s98.5,175.5,100.5,180
	s93.5,154,95.5,156.5s54,93.5,58,98.5s13,38,44,17.5c4.5-2,57.5-39.5,60.5-40.5S2456,4534,2456,4534s211-99.5,215.5-101
	s192.9-90,192.9-90s73.1-35,75.6-36.5s16.5-12.5,29.5-27.5C2969.5,4279,2986,4270.5,2973,4220.5z M2070.6,2471.1
	c10.9,0,20.7,5.2,27.7,13.5c3.9,4.9,15.7,22.6,7.1,48.3l0.2,0c-6,15.2-19.4,25.8-34.9,25.8c-21.2,0-38.4-19.6-38.4-43.8
	S2049.4,2471.1,2070.6,2471.1z M2061.5,2821.6c12,0,22.8,5.5,29.9,14.9l-0.1,0c0,0,17.2,23,2.6,52.3l0.4,0
	c-7.4,11.7-19.9,19.6-33.2,19.6c-21.2,0-42.1-18.6-42.1-42.8S2040.3,2821.6,2061.5,2821.6z M2050.5,3174c11.8-0.3,23.8,2.7,32,10.2
	c0,0,0.1,0.1,0.2,0.2c0.2,0.1,0.3,0.3,0.4,0.4c3,3.1,13.8,16,8.8,37.6l1.1,0.2c-4.2,18.5-21,30.3-38.6,30.7
	c-21.2,0.5-42.9-13.7-43.5-37.8C2010.4,3191.2,2029.3,3174.5,2050.5,3174z M2053.7,3510.8c16.7,0,30,10.2,36.9,24.5l-0.5,0.2
	c0,0,7,15.3,1.4,32.2l-0.4,0c-6,17-20.3,27.9-39,26.5c-22.8-1.7-38-18-38.5-41.3C2013.2,3529.7,2030.3,3510.8,2053.7,3510.8z
	 M2085.3,3739c0,0,2,15.3,0,18s-1,6.7-6.7,9s-5.7,4.3-10.7,5s-12.7,0-15.7-1s-7-3.7-8.7-7.7s-6-8-2.7-14s9.3-15.7,9.3-15.7V3645
	l29.3,0.7c0,0-1,77-1,78s0,4.7,0,4.7L2085.3,3739z M2057.3,3940c-23.4,0-40.8-19.8-40.8-43.2s17.5-43.8,40.8-43.8
	c14.9,0,28.7,8.3,36.6,20.4l-0.7,0.1c0,0,13.4,15.3,1.9,43.4l0.6,0.1C2088.2,3930.5,2073.5,3940,2057.3,3940z"/>
</svg>
