<?xml version="1.0" encoding="utf-8"?>
<!-- Generator: Adobe Illustrator 21.1.0, SVG Export Plug-In . SVG Version: 6.00 Build 0)  -->
<svg version="1.1" id="Layar1" xmlns="http://www.w3.org/2000/svg" xmlns:xlink="http://www.w3.org/1999/xlink" x="0px" y="0px"
	 viewBox="0 0 4160 6240" style="enable-background:new 0 0 4160 6240;" xml:space="preserve">
<style type="text/css">
	.st0{fill:#616868;}
	.st1{fill:#414747;}
	.st2{fill:#4A4C49;}
	.st3{fill:#B6C1B4;}
	.st4{fill:#373A36;}
	.st5{fill:#708270;}
	.st6{fill:#A39D9B;}
	.st7{fill:#1F0B04;}
	.st8{fill:#BBBBBB;}
</style>
<path id="body-right" class="st0" d="M2056,2262c1-5,9-31,9-31s-33.5-83.5-42-90.5s-232.5-319.5-238-329s-69.5-112.5-71-114
	s-10-14.5-0.5-16s28-3.5,34.5-1.5s25.5,3.5,28.5,3.5s17-9.5,11.5-11.5s5.5-24,13.5-30s9.5-13.5,9.5-13.5l-0.5-2.4
	c-4,5.6-58,21.8-62,24.9c-4.1,3.2-59,25-80,30.5S1575,1710,1570,1713s-50.5,18-51,20s10.5,11.2,8,13c-7.5,5.5,48.5,140,51,151
	s37,134.5,39,147.5s18.5,200,20,212s6,58,7,68.5s23,102.5,24,109s27,166,27.5,218s0,94.5-1,104.5s-10,88-12,97.5s-3,13-4,16.5
	s-1.5,5.5-3,6s-6-2-6,0s-2,23.5-2,27s-5.5,41.7-6.5,46.2s17.8,319.3,21.3,337.3s25.2,88,24.7,93.5s-2.5,6.5-6.5,8s-8,3-8,3
	s7,26.5,7.5,31s-7.3,8.3-4.3,13.8s45.2,65.3,48.7,73.3s39.2,48.8,43.7,58.3s12.5,28.5,13.5,30.5s13,4.5,19.5,5.5
	s100.3,4.4,110.3,4.7c12.3,0.3,67.7-6,67.7-6s82-31,80-51.7c-0.7-7.4-16-226-16-236s3.6-366.5,4-370c6-52,20-124,14-296
	c-0.5-14.7,2-187.5,6-208S2055,2267,2056,2262z M1820.2,2312.8c0-17.9,14.7-32.5,32.8-32.5c16.7,0,30.6,12.5,32.5,28.5l-0.2,0.1
	c0,0,1,13-5.7,22.9c0,0-0.1,0-0.1,0c-1.9,2.5-4.1,4.8-6.6,6.7c-0.2,0.1-0.4,0.3-0.6,0.4c-0.5,0.3-0.9,0.6-1.2,0.9
	c-5.2,3.4-11.4,5.4-18.1,5.4C1834.9,2345.3,1820.2,2330.7,1820.2,2312.8z M1937.6,3029.6c-9.4-2.8-16.4-13.9-16.4-27.1
	c0-13.4,7.2-24.6,16.8-27.2L1937.6,3029.6z M1943.8,2641.1c0-18.1,14.6-32.9,32.5-32.9c14.5,0,26.8,9.6,31,22.8l20.2-1.1
	c0,0,12.4-0.8,13-0.6s2.8-0.4,3.2,0.1s4,3.9,4.2,4.6s1.5,3,1.4,3.8s-1.5,3.9-1.9,4.6s-2.5,2.4-2.5,2.4l-2.1,0.6l-34.5,1
	c-2.5,15.6-15.9,27.5-32.1,27.5C1958.3,2674,1943.8,2659.3,1943.8,2641.1z M2057,2982.7c0.2,1.5-2,2.3-2.7,3s-3.5,1.7-3.5,1.7
	s-57.5,0.5-58.3,0.2s-1.2,0.2-1.7,0.5s-2.8,1.3-3.5,1.7c-0.7,0.3-3.2,1-5,1.5s-4.2-0.8-5-1.7c-0.8-0.8-1.2-2.2-1.5-3.2
	s-1-4.5-1.2-6.7s0.3-4.5,1.2-5.3c0.8-0.8,5.3-4.8,7.2-5.3s1.5,0.3,2.8,1.2c1.3,0.8,2.8,2.7,3.8,3.3s3.2,1.2,3.2,1.2l57.8,0.3
	c0,0,0.7,0.3,1.7,1.5s2.8,2.7,4,3.7C2057.5,2981.2,2056.8,2981.2,2057,2982.7z"/>
<path id="body-left" class="st1" d="M2574,2572.5c0.5-12,5.5-77,5.5-84s2.5-17.5,4-24.5s20-70.5,22-76.5s2-8,3-12s1.5-8.5,2.5-14
	s16-25.5,18-28s15-4,15-4l72.5-605l-8.5-5c0,0-5-3-13.5-4.5s-100.5-33-106.5-35.5s-105.5-34.5-113.5-37s-53-19.5-53-19.5
	s-38.5-13.3-45.2-18s-56.7-51.3-56.7-43.3s-25.3,39.3-25.3,42c0,2.7-31.3,103.3-32,112.7c-0.7,9.3-113.3,286.7-113.3,286.7
	s-97.3,275.3-98.7,279.3c-1.3,4-78.3,231.7-78.3,231.7c-4.5,10.5-42.5,96-44,105.5s-1,107-1,107l5.5,168.5c0,0-0.5,132.5-0.5,138
	s0,183.5,0,183.5s4,287,4,289s0,88,1.5,91.5s19,3.5,28,5.5s88,6.5,88,6.5l155,4.5l10.5-0.5c10.5-0.5,169-10,191-10.5
	s102.3-11.5,102.3-11.5s12.3-11.2,13.3-21.3c0.6-6,26.7-44.7,26.7-44.7l-8-4.7c0,0,2.3-8.7,3.3-10.7s18.3-16,16-23.3
	c-1.9-6,18.8-34.8,20.8-38.3s49.8-39.7,49.8-39.7s-0.8-459.3-1.3-464.8s-11-81.5-11.5-86s-1.5-2-4-4.5s-4.5-0.5-9-2.5s-3-4.5-4-7
	s-7.5-28-10-36.5s-17.5-57-18-61s-5-34.5-4.5-47S2573.5,2584.5,2574,2572.5z M1943.8,2641.1c0-18.1,14.6-32.9,32.5-32.9
	c13.6,0,25.3,8.5,30.2,20.5v24.5c-4.8,12.1-16.5,20.7-30.3,20.7C1958.3,2674,1943.8,2659.3,1943.8,2641.1z M2303.1,3003.1
	c-17.3,0-26.2-11.4-26.2-27.6s19-31.5,36.2-31.5s27.2,10.9,27.2,27.1S2320.4,3003.1,2303.1,3003.1z M2313.2,2676.4
	c-17,0-30.8-14.8-30.8-33s13.8-33,30.8-33s30.8,14.8,30.8,33S2330.2,2676.4,2313.2,2676.4z M2406.5,2350c-18.2,0-33-14.2-33-31.8
	s14.8-31.8,33-31.8s33,14.2,33,31.8S2424.7,2350,2406.5,2350z M2460.7,1767.5c0,0-6.3,5.7-6.8,5.8c-0.5,0.2-8.5,0.7-10,0.8
	c-1.5,0.2-21.3,1-23.3,0.8c-2-0.2-7.7,0.3-9-0.5c-1.3-0.8-4.7-9-4.7-9s40.2-2.3,41.2-2c1,0.3,13.7-0.2,13.7-0.2l1.2,1.3
	L2460.7,1767.5z"/>
<path id="arm-right" class="st2" d="M1530.5,1729.5c0,0-7.5-1.8-11-1s-6.5,1.2-10.5,4.8s-18.8,26-21.5,31.5s-13.2,31-16.5,38
	s-12.5,26-13.8,28.2s-17.2,47.8-18.2,51.5s-13.5,43.2-14.2,46.8s-5.5,36-6.8,39s-3,36.8-3.8,41.5s1,21.5-1,26s-2.2,2.5-2.8,8
	s-3.2,64.2-3.2,68.2s-3.8,59-4,64s-2.8,47.8-2.8,51s-2.8,83.8-3,89s-4,89-3.8,92.5s-1.5,94-1.5,102.8s2,93.2,2,97.2s6,75,6,81
	s3.2,18,3,22.5s0,26,0.2,29s1.2,46.5,1.2,50s1,81.5,0.8,85.8s0.2,33.2,0.5,35.5s2.5,84.2,2.8,87.2s7,85.5,7.5,89.8
	s8.5,60.2,9.2,66.8s1.8,46,1.5,52.8s2,17.8,3.5,21.2s8,18.2,8,21.8s-0.8,7.2-1.2,8.5s-1.8,2.2-1.2,5.5s4.8,20.2,2.2,24.5
	s-4.8,5-4.8,8.8s-1.2,13.2-0.8,16s5.5,4.8,6.2,5.2s5.2-1.2,4.8,3.5s-0.5,21.8-1,24.2s-3.5,9.5-5,11.2s-5.5,3-5.5,3s-8.5,6.2-9.2,9.8
	s-4,34.2-4.2,42s0,34.5,0.2,37.8s0.2,6.5,1.5,8s7.8,3.5,9,2s22-12.8,26-14.5s55.2-23.8,66.8-25.2s41.2-6.5,50.2-9s60-13.8,66.5-14.5
	s49.8-8,55-8.2c0,0,7.5-0.8,10-3.2s4.8-5.8,4-13.8s-15-94.2-15.8-98.8s-9.8-74.5-10.5-80s-9.2-82.8-9.2-86s-7.8-73.5-8-78.8
	s-2-93.5-1.8-100.2s-4-63.5-4.2-72.5s-6.5-83.2-6.5-89.8s-5.8-83.8-5.8-91.2s-5-107.5-5-113s-1.5-118.5-1.5-120.5s5.5-80.5,6.2-84.5
	s-4.8-89-5.5-96.2s-11.5-128-11.8-134.2s-6.5-58.5-7.2-63.2s-23.2-113.5-24-116.8s-39.2-141.5-40.5-144.8s-22.5-67.5-23.2-69
	S1530.5,1729.5,1530.5,1729.5z"/>
<path id="collar-right" class="st3" d="M1958.8,1578.2c0,0-26,16-30.5,23.8s-37.8,53-40.5,56.8s-11.2,16.2-14.8,17.5
	s-14.8,2-21.2,1.5s-64.5-2.8-70.2-2.8s-37.5-1-46-1.2s-18.2-4.8-28.2-1.8s-12.2,3.2-12.5,8s6.5,21.8,10.8,29.5s50.5,81.5,56,89.2
	s49,77.8,54.5,85s52.2,85.5,56.2,90.2s77.8,121.5,80,125.8c0,0,78.2,109.2,82,112.8s22,22.8,22,22.8l69.8-201c0,0-6.3-13.9-9.8-21.4
	s-32.1-81.4-33.6-87.6s-16.4-51.4-18.1-56.7s-10.8-36.2-12.5-39.8s-17.5-52.8-18-54.2s-19.2-58.5-20.8-62s-23-70.2-24.2-72.2
	s-24.8-56.8-27-59.2S1958.8,1578.2,1958.8,1578.2z"/>
<path id="collar-right_1_" class="st4" d="M1947.8,1505.8c0,0-10.8,9.2-13.2,11.5s-9,13.2-12.5,20.5s-25.8,35.8-30.5,40.5
	s-20,19.2-34.8,25.8s-27.2,11.2-31.5,15s-12.6,5.4-15.9,7.9s-21.6,20.9-28.1,26.6s-12.2,9.8-14,12.5s-3.5,2.8-1.8,5s11,3.5,14.8,4
	s50.2,4,55.2,5.2s20.2,3.5,24.8,2.8s14.2-2.2,17.2-7.2s36-44.2,37.2-46.5s20.8-27,21.5-28.5s14.5-14.8,18.2-16.2s7.1-4,7.1-4
	S1944.2,1543,1947.8,1505.8z"/>
<path id="pants" class="st5" d="M1801.5,3598.5c0,0,9.5,44.5,9.5,47.5s8,80,8,80s2.5,11.5,1,13s-7,2.5-12.5-1s-16-7.5-19-9.5
	s-13.5-13-13.5-13s-2,20-2.5,24s-6,19-6,19s-10,6.5-15,5s-24-1.5-24-1.5s8,21.5,5.5,25.5s-12.5,10.5-15.5,11.5s-3,2.5-7.5,0
	s-10.5-8.5-12.5-9s-8-2.5-8-2.5s-2.5,7.5-6.5,8.5s-11,5.5-15,2.5s-8-6.5-12-9s-9.5-7-11-7s-9-1-9-1l-5,0.5c0,0,10,144.5,10,154.5
	s9.5,186,9.5,187.5s7,120,7,130s5,76.5,5,81.5s0,35.5,0.5,37s4.5,166,4.5,172.5s2.5,149.5,3.5,159.5s5,171,5,178s3.5,141,3.5,146.5
	s5.5,179,5,183s3,143.5,3,151s2.5,128.5,3,136.5s3,132,3,135.5s-1,10.5-0.5,14.5s1,11.5,3,15.5s14.5,21,18.5,27s15,17.5,18.5,19.5
	s38.5,18.5,44.5,19.5s72,6.5,81,7s53.5-5.5,59.5-6s11.5-0.5,15-3s5-3.5,7-8.5s11.5-53,11-57.5s5-99,5-104.5s11-209.5,13.5-221
	s14-234.5,14.5-240s6-90.5,6-93s-3-19.5-2.5-26s2-16,4-27.5s6.5-64,7-69.5s5-64,6-68s7-114,8-121.5s8-101.5,8.5-113s3.5-44.5,4-48.5
	s0.5-33.5,1-40s3-18.5,3-23.5s0.5-30,2-38s3-22.5,4.5-33.5s6-79.5,6.5-84s5.5-65,7.5-71.5s10.5-62,12-69s15-125,17-144.5
	s21.5-177,21.5-177s20.1-193.3,21.5-196c1-2,5-42.5,5-42.5v-6h77.5l-2,9c0,0,15,82,17,88.5s5.5,27,6.5,30s6.5,32.5,8,43.5
	s19,125,19.5,128.5s9.5,122.5,11,133s12.5,107,14,118s7.5,118,9.5,124.5s17,213.5,17.5,219s20,269,20.5,272.5s18,228,18.5,235.5
	s14,201,16.5,216.5s18.5,267,19.5,274.5s9,186.5,9.5,196.5s0,27,0,34s1,16.5,3,18s2.5,2,6,3s4.5,1,8.5,4c0,0,26,9,29,10
	s84.5,10.5,87.5,11.5s23.5,2.5,28,3s36-6.5,41-10s23-12.5,28-16s9.5-3.5,11-9s6.5-16,7.5-22.5s4.5-27.5,5-32.5s3-42,2-55.5
	s1-17.5,1.5-26.5s4.5-131,4.5-134.5s2.5-231,4.5-240.5s8-345.5,8.5-348s3-231.5,3-231.5s6.5-221.5,6-232.5s-4-146.5-3-162
	s3.5-106.5,3.5-113s3-232,2.5-236s-1-33.5-1.5-38.5s4.5-46,4-51s-0.5-9.5,0-21.5s3-28,3-28s0-0.5-4,2.5s-6.5,11.5-15,15.5
	s-10.5,8-16.5,3.5s-9-5.5-11.5-7.5s-5.5-7-7-6s-1,5.5-12,5.5s-17,6-17.5-5.5s-7.5-21.5-7.5-25s-3-9.5-3-11s11.5-11.5-2.5-9
	s-26,3-28,0.5s-8.3-9.8-8.3-14.8s-1.7-7.2-0.7-10.7s4-25.5,4.5-27s-0.5-25.5-0.5-25.5s-26.5,40.5-32,43s-31,6-31,6s-2.5-6-1-11.5
	s16.5-78.5,16.5-82.5s6.8-41.2,6.8-41.2s-647.3,4-666,4s-44.7,0.7-44.7,0.7L1801.5,3598.5l-1,3.3l0,0l0,0L1801.5,3598.5
	L1801.5,3598.5"/>
<path id="lapel-left" class="st6" d="M2532.8,1692.8c-5-1.5-11.8-0.2-19.8-0.2s-37,2-47,1.5s-66.8-0.3-73.8-0.3s-12.2-4.9-16.2-8.4
	s-16.8-20.5-18.2-24c-1.3-3.1-46.7-70.5-56.5-84.5c-0.4-0.6-2.5-4.6-3.4-4.1c-4.3,2.8-25.1,44.5-26.6,48.5s-36.5,92.1-37.5,103
	c-0.8,8.8-109.5,304.5-119,326.5s-39.5,120.5-41,124c-0.5,1.1-6.6,18.9-14.8,43c-17.9,52.4-45.8,134.4-47.2,138.5
	c-2,6-64.1,188.9-68,201c-4.4,13.6-16.5,65-17,68.3l0.2,2.5c1.3,0.4,16.9-27.8,20.7-39.3c4-12,43-94,43-94
	c13.3-24.7,59.5-66,62.5-72s81.5-100.5,89.5-110.5s117.5-166.5,120-172.5s163.5-244,166.5-251s113.5-173.5,114.5-178
	S2537.8,1694.2,2532.8,1692.8z M2460.7,1767.5c0,0-6.3,5.7-6.8,5.8c-0.5,0.2-8.5,0.7-10,0.8c-1.5,0.2-21.3,1-23.3,0.8
	s-7.7,0.3-9-0.5s-4.7-9-4.7-9s40.2-2.3,41.2-2s13.7-0.2,13.7-0.2l1.2,1.3L2460.7,1767.5z"/>
<path id="collar-left" class="st7" d="M2299,1577c0,0,43.5,61.5,46.5,68s26.3,40,31.3,43s8.3,7.5,19,6.8c9-0.6,89.8-1.3,89.8-1.3
	s-47.2-47-51.2-51.5s-16-23-22-25.5s-46-25.5-52.5-29s-23.5-16.5-28-27s-8-23.5-11.5-30.5s-16-23-16-23s-2.5,49.5-5,57.5
	S2299,1577,2299,1577z"/>
<path id="arm-left" class="st8" d="M2707.3,1721c0,0,7-3,10.7-2.7s6,0,10,2.7s16.5,14.7,17.5,16.7s19.7,36.5,22,41.7
	s22.7,48.8,23.2,49.7s15,42.3,15.3,43.2c0.3,0.8,21,103.5,26.3,122.8s28,153.3,29.3,160s12,70,12.7,75.3s14,100,15.3,107.3
	s4.7,48,4.7,50.7s12,135.3,12.7,143.3s9.3,121.3,9.3,128s4,50,4.7,54s7.3,86.7,7.3,90.7s1.3,45.3,1.3,50s0,40,0,54
	s-9.3,56-10.7,67.3c-1.3,11.3-10,45.3-12.7,53.3s-9.3,60.7-8.7,63.3c0.7,2.7-12,102.7-13.3,107.3c-1.3,4.7-4.7,13.3-6,16.7
	c-1.3,3.3-4.7,18.7-4,24s1.3,13.3,2,15.3s-0.7,10-0.7,15.3s0.7,10,1.3,14s-1.3,8.7-1.3,8.7s0,9.3-1.3,12.7c-1.3,3.3-5.3,12-5.3,18
	s-0.7,6.7,0.7,12c1.3,5.3,4,11.3,4,11.3l1.3,1.3l0,0l2,4.7c0,0-7.3,55.3-7.3,61.3s-5.3,27.3-6.7,29.3s-6.7,6.7-6.7,6.7
	s-13.3-16-14.7-21.3c-1.3-5.3-6-18-10-21.3s-38.7-15.3-50-18s-116.7-18.7-122-19.3c-5.3-0.7-26-6.7-35.3-5.3
	c-9.3,1.3-9.3-4-17.3,5.3s-9.3,12.7-9.3,12.7s3.3-52,4.7-59.3c1.3-7.3,18-184.7,20.7-204s4-144,5.3-156s6.7-130.7,6.7-136
	s-3.3-500-3.3-505.3s-6.7-240.7-5.3-251.3c1.3-10.7,25.3-170,27.3-178.7s28.7-120,31.3-131.3
	C2687.7,1750.3,2706.3,1720.3,2707.3,1721z"/>
</svg>
