<?xml version="1.0" encoding="utf-8"?>
<!-- Generator: Adobe Illustrator 21.1.0, SVG Export Plug-In . SVG Version: 6.00 Build 0)  -->
<svg version="1.1" id="Layar1" xmlns="http://www.w3.org/2000/svg" xmlns:xlink="http://www.w3.org/1999/xlink" x="0px" y="0px"
	 viewBox="0 0 4160 6240" style="enable-background:new 0 0 4160 6240;" xml:space="preserve">
<style type="text/css">
	.st0{fill:#2E5082;}
	.st1{fill:#C6D0E0;}
	.st2{fill:#A0A2A5;}
	.st3{fill:#7F8EA3;}
	.st4{fill:#B9CFEF;}
	.st5{fill:#758B9E;}
	.st6{fill:#CFD1D3;}
</style>
<path id="body-right" class="st0" d="M1644.3,1663c-2,0.7-52,19.3-61.3,24s-79.3,35.3-89.3,40s-75.3,32-84,36.7s-76.7,30.7-86,33.3
	c-9.3,2.7-74,26-82.7,30s-32,14-34,18s-4.7,8.7-4.7,8.7l20.7,59.3c0,0,32.7,107.3,34,114s48,210,50.7,220s27.3,236.7,27.3,243.3
	c0,6.7,44,394.7,45.3,397.3c1.3,2.7,28,8,28,8l6.7,42c0,0,13.3,112.7,14,120s4,57.3,4.7,80s4,97.3,4,99.3s5.3,92,4.7,102.7
	c-0.7,10.7-2.7,43.3-3.3,51.3s-9.3,65.3-11.3,74s-16,62.7-18.7,69.3c-2.7,6.7-6.7,10.7-7.3,13.3c-0.7,2.7,6,2.7,2.7,13.3
	c-3.3,10.7-8,28.7-8.7,33.3c-0.7,4.7-5.3,18-5.3,18s-15.3,137.3-16,164s-0.7,244.7,4.7,264.7s23.3,168.7,23.3,168.7
	s-1.8,4.8-3.3,6.8s-5.5,10-12.5,13.5s-20,7.5-20,7.5s18.5,36.5,21.5,41s26.5,47.5,27.5,52.5s11.5,29,11.5,31.5s-1,7.5-3,9.5
	s-10,5.5-10,5.5l3,12.5c0,0,14,41.5,14,78.5c0,0,3.5,93,1,109s-3,28-3,32s2.5,6.5,5.5,7s179,38,187.5,43s34,10.5,48,12.5
	s74,0.5,79,0s19.5-1,34.5-3s32.5-7.5,42.5-11.5s29.5-16.5,32-19.5s23-23.5,34.5-40s21-38,26.5-45s55-123,57.5-130.5
	s39.5-138,42.5-151s22-88,22-88l20-68.5c0,0-33-594-30-629s-10-412-2-437s34-357,34-357l-7-34l-31-73l-83-323c0,0-121-468-122-476
	s-58-188-58-188l-8-6L1644.3,1663z"/>
<path id="body-left" class="st1" d="M2922.3,1872.7c-1-1.3-2.3-2.3-3.7-3.3c-1.3-1-15.7-9.7-18.3-11.3c-2.7-1.7-131-53.3-131-53.3
	s-162.3-65.7-165-67s-130.7-59-130.7-59l-16.2-4.7L2279,2031c0,0-102.5,256-104.5,260.5s-62.5,214-68.5,226s-39.5,133-41,136.5
	s-18,73-19,75.5s-17.5,122-18.5,127.5s-9.5,80.5-9.5,80.5l-11.5,145c-4.5,25.5-6,179-6.5,193s3.5,81,3.5,86s4,156,3.5,162.5
	s5,129,4,137s5.5,137.5,5.5,137.5s11.5,138,11.5,143s11,146,11,146l9,48l7.5,51c0,0,46.5,224,46.5,226s46,137.5,46,137.5
	c33,74,92.5,105.5,92.5,105.5c38.5,31,148,24,148,24s181.5-22.5,189.5-23s87.5-11.5,87.5-11.5l-4.5-95c-3-60.5,5.5-98.5,6-104.5
	s8.5-33.5,10-41s8-13.5,8-13.5l-0.5-2c-7-4-7-14.5-7-16s9-24,10.5-28.5s16-41,20-49s13-27,13-27l10-19l4-0.5l-2-2c0,0-17-6.5-31-15
	s-19-21.5-29-32s-4-27.5-3.5-29s45-156.5,49-168.5s11-189.5,12-195s0-98,0-108s-8-81-8-81s-6-9-8.5-14s-11-29.5-12-33s-0.5-5.5-1-8
	s-0.5-8-0.5-15.5s-2-11-2-14s-8.5-33.5-11-40.5s-8.5-40-11-47.5s-8-44.5-8-53s-2-32-2.5-47s0-128,0-132s4-86.5,4-86.5l2.5-1
	c0,0,0-6,0-10s6-61,6-61c2-24.5,10-44,12-50.5s8-17.5,11-21.5s7.5-5.5,7.5-5.5l34.2-124.6l72-515.9c0,0,78.5-391.2,80.5-396.5
	s7.3-20.3,8.3-23s0-1.3,1.3-3.3s19.7-38.3,19.7-38.3S2923.3,1874,2922.3,1872.7z M2077.9,3034.3c17.8-2.4,35.1,9.4,40.3,28.8v24.8
	c-5.2,19.4-22.2,32.3-40.2,30.9c-20.3-1.6-35-20.6-34.6-42.1C2043.7,3055.7,2058.4,3036.9,2077.9,3034.3z M2504.2,1960.5
	c0,0-6.5,6.5-7.2,6.8c-0.7,0.3-4,1-4,1l-22.5-15.2c0,0-35.2-24.5-36.2-25.5s-2-7.5,0-9s6.8-5,12.5-0.8c0,0,39.8,26.2,44,29
	c4.2,2.8,13.5,9.5,13.5,9.5l0.8,2.5L2504.2,1960.5z"/>
<path id="collar-left_1_" class="st2" d="M2298.3,1518.3c0,0,13.3,34.7,14,51.3c0.7,16.7,0,60.7-10,78.7l-7.3,19.3l178.7,174
	l31.3-0.7l2.7-8l50-30l13.3-9.3c0,0,2-1.3,2-6s-4.7-12.7-4.7-12.7s-90.5-94.2-98.5-99.5s-16.4-13-20.4-15s-13.8-6.3-23.1-13.1
	c-9.5-7-59.4-57-67.4-63s-30-32-34-35.3S2298.3,1518.3,2298.3,1518.3z"/>
<path id="collar-right" class="st2" d="M1814,1510.3c0,0-18,20.3-21,24s-13.3,15-16,17.7s-20,26.3-23,30.3s-28,22.3-30,23.7
	s-14.3,11.7-16,13.7s-16,12-22.3,16.7s-25.7,12.7-31,16.3c-5.3,3.7-10.7,9-17.3,12.3c-6.7,3.3-15.7,9-23,15.3s-46,50.3-49,53.3
	s-12,14-15.7,18.3s-22.7,21.3-5.7,32.7l75,46.7c0,0,117.3-94.7,124.3-105.3s35.3-42.3,43-50.3s23-19.7,23-19.7s-9.3-57.7-9.3-62
	S1796.7,1534,1814,1510.3z"/>
<path id="lapel-right" class="st3" d="M1806.3,1644.3c1.2-3.1-6-0.3-10,2.7s-42.7,44.7-46.3,50s-28,28.3-29.7,30s-36,29-42.3,36
	s-73.7,67.3-79.3,73c-5.7,5.7-66.7,53.7-71.7,57s-10.3,9-12,9.7s-18.7,8-4.3,28.7l78,107l124.8,171.7c0,0,55,78.5,57,81.5
	s114.5,158.5,122,167.5s101.5,142.5,104,145.5s35.5,59.5,36.5,62s12.5,28,13.5,31.5s5.5,18.5,5.5,18.5l15.5-63l-2-15.5l-6.5-6.5
	c0,0-22.5-64-23-74s-20-83-20.5-84.5s-14-66.5-14.5-68.5s-36.5-133.5-36.5-133.5l-39.5-154.5c0,0-6.5-15-7.5-26s-53-221-53-221
	s-27-130.5-29.5-138s-5-13.5-6.5-17.5S1804.7,1648.7,1806.3,1644.3z"/>
<path id="lapel-left" class="st4" d="M2592.5,1911c-2-2-140.5-115.5-142-117s-75-69.5-79-73.5s-71-70.5-71-70.5s-4.5,10.5-6,13.5
	s-23,74.5-25,80s-20.5,82-21.5,86s-13.5,65.5-14.5,68s-28,130.5-29.5,134s-47,196-47,196l-39.5,163.5l-53,236l-19,111.5
	c0,0,20-45.5,22-53.5s7.5-16,11-24s25.5-42.5,29-48s33.5-46.5,37.5-52.5s50.5-68,55-73.5s29.5-38.5,34-43.5s66.5-81,69.5-85.5
	s43-54.5,43-54.5c7.5-12.5,55.5-81,61.5-89.5s67.5-98.5,71.5-105.5s24.5-37.5,24.5-37.5s14.5-21.5,17.5-29s16.5-23,22-33
	s60.5-77.5,60.5-77.5C2611.5,1922.5,2594.5,1913,2592.5,1911z M2504.2,1960.5c0,0-6.5,6.5-7.2,6.8s-4,1-4,1l-22.5-15.2
	c0,0-35.2-24.5-36.2-25.5s-2-7.5,0-9s6.8-5,12.5-0.8c0,0,39.8,26.2,44,29s13.5,9.5,13.5,9.5l0.8,2.5L2504.2,1960.5z"/>
<path id="arm-left" class="st5" d="M2918.7,1869.3c-3.2,0.7-9.2,3.7-10.7,6.7s-13,24-16.5,32s-0.5,8-8.5,20s-7,10-11,20.5
	s-22.5,64.5-27,77.5s-22.5,84-24,89.5s-23.5,96.5-23.5,96.5s-24.5,112.5-26.5,122s-16.5,90.5-20.5,103.5s-6,55.5-8.5,67
	s-16,193-16,193s-10,150-10.5,156s-9.5,89-9.5,95.5s5.5,75,5,79.5s12,134,12,134s13.5,126,13.5,131.5s3,70.5,3.5,72s-1,89.5-1.5,97
	s-6.5,73-9,83.5s-10,48.5-11.5,54.5s2.5,77,2.5,88s2,93.5-1,117s-7,74.5-8,90s-23,172.5-26.5,181s-18,88.5-18,91.5s-0.5,15-0.5,15
	s2.5-8.2,2.8-9.2s1.8-9.8,14.2-16.2c0,0,16-9,41.8-6.2c0,0,74.8,8.5,82,8.8s57.8,4.2,63.5,5.5s21.2,3.5,38.2,9.8
	c0,0,40.5,9.8,44.5,10.8s34.2,6.8,46.8,11.5s30,11.5,31,14.8s1,23.8,1,24.8s-0.2,3.2-0.2,3.2s6.8-9,7.8-10.5s1.8-10.5,1.5-14.5
	s0.5-45.5,2.8-52.5s4.2-32,4.2-37.2s1.5-40,1.5-40.8s0.8-35.2,0.8-37.8s0.5-20.2,2-29.2s4.2-48,4.2-48l1.5-29.2l2.2-23
	c0,0,2-35.2,2.2-37.5s2.2-23.5,3.2-37.2s4.5-67,4.5-67l3.5-94.8l2-149c0,0-1-130-1-132.5s0.5-126,0-147s-2.5-67-1.5-73
	s0.5-27.5,0.5-36s-4.5-131-4.5-131s-1.5-51.5-1.5-53s-8.5-159-8.5-159l-4.5-148c0,0-11-123-11.5-142s-5.5-87-5.5-91s-11-158-11-158
	s-8.5-111-17.5-153.5c0,0-26-140-34-169c0,0-13-46-29.5-59c0,0-15-9.5-18-8.5s-3.5,3-5.5,2S2918.7,1869.3,2918.7,1869.3z"/>
<path id="arm-right" class="st6" d="M1207,1845.7c0,0,7.3,4,14,19.3s11.3,13.3,25.3,55.3S1291,2069,1291,2069s24,84,30,116
	s22,120,24.7,140s7.3,46.7,8.7,55.3c1.3,8.7,7.3,28.7,7.3,53.3c0,24.7,0.7,34.7,1.3,42c0.7,7.3,16.7,215.3,22,238
	s12,139.3,17.3,150.7c5.3,11.3,7.3,32,7.3,32s-8.7,10.7-10,21.3c-1.3,10.7-10.7,34.7-12,60c0,0-10.7,94.7-10.7,154
	c0,0,0.7,145.3,2.7,169.3c0,0,8.7,149.3,8.7,156s0.7,87.3,0.7,98.7c0,11.3-0.7,141.3-0.7,150.7c0,9.3,2,221.3,2,232
	s5.3,117.3,6.7,132c1.3,14.7,6.7,74.7,8.7,82s10,39.3,10,42.7s-14,17.3-14,17.3s-3.3-45.3-40.7-66c0,0-46-23.3-86.7-12.7
	c0,0-82,14-96,16s-100.7,21.3-111.3,30.7c0,0-8.7,10.7-12,13.3c-3.3,2.7-6,4-9.3,7.3s-5.3,4.7-5.3,4.7s6.7-20,5.3-25.3
	c-1.3-5.3-14-268-14-268L1009,3489l-2-288l6-180l10-198l21.3-230.7L1067,2421c0,0,29.3-194.7,30-198s42-205.3,42.7-210
	s40-149.3,40-149.3l6-10l6-4.7L1207,1845.7z"/>
</svg>
