<?xml version="1.0" encoding="utf-8"?>
<!-- Generator: Adobe Illustrator 21.1.0, SVG Export Plug-In . SVG Version: 6.00 Build 0)  -->
<svg version="1.1" id="レイヤー_11" xmlns="http://www.w3.org/2000/svg" xmlns:xlink="http://www.w3.org/1999/xlink" x="0px"
	 y="0px" viewBox="0 0 2695 4160" style="enable-background:new 0 0 2695 4160;" xml:space="preserve">
<pattern id="normal" patternUnits="userSpaceOnUse" width="270" height="270" patternTransform="">
		<image image-rendering="optimizeQuality" preserveAspectRatio="xMidYMid meet" xlink:href="/images/simulator/default/default_tex.jpg" x="0" y="0" width="270" height="270" style="-ms-interpolation-mode: bicubic;" />
  </pattern>
  <pattern id="left" patternTransform="rotate(23)" patternUnits="userSpaceOnUse" width="270" height="270">
		<image image-rendering="optimizeQuality" preserveAspectRatio="xMidYMid meet" xlink:href="/images/simulator/default/default_tex.jpg" x="0" y="0" width="270" height="270" style="-ms-interpolation-mode: bicubic;" />
  </pattern>
  <pattern id="right" patternTransform="rotate(-23)" patternUnits="userSpaceOnUse" width="270" height="270">
		<image image-rendering="optimizeQuality" preserveAspectRatio="xMidYMid meet" xlink:href="/images/simulator/default/default_tex.jpg" x="0" y="0" width="270" height="270" style="-ms-interpolation-mode: bicubic;" />
  </pattern>
<style type="text/css">
	.normal{fill:url(#normal);}
	.left{fill:url(#left);}
	.right{fill:url(#right);}

</style>
<path id="body-left" class="normal" d="M1851.2,1589.1c0,0-9.3-4.7-18-10s-80.7-30-101.3-34.7c-20.7-4.7-49.3-12.7-62.7-15.3
	c-13.3-2.7-67.7-19.3-67.7-19.3l-40.3,40.7l-63.3,42.7l-84.7,329.3l-29.3,152l-44.7,76l-3.3,79.3c0,0,20,62,23.3,72.7
	s18,234.7,18,234.7l6,190c0,0-1.3,77.3-2,100.7c-0.7,23.3-24,133.3-24,133.3l-12,49l-12.2,47l30.5,56.5c29,54,82.5,69,91.5,73.5
	s49,13.5,59,15.5s30.5,0.5,38.5,0.5s20-3,30.5-5s70-8,80.5-10.5s66.5-14.5,68-15s21-5.5,21-5.5l34-38c0,0-3.3-243.3-2.7-246.7
	c0.7-3.3-4-114-4-114s-12-80-12.7-82s-31.3-80.7-31.3-80.7c-8-18.7-11.3-42-19.3-80s-2-87.3-2-116.7s17.3-80,17.3-80
	c6.7-19.3,25.3-39.3,25.3-39.3s18.7-22,20.7-26s41.3-278.7,41.3-278.7l20.7-191.3l14-192L1851.2,1589.1z M1566.7,1635.3
	c-2.2,1.2-0.8,1.5-4.2,1s-4.5,0-6.5-1s-5.2-2.2-7.5-3.5s-9-7-14.2-9.2s-6.2-4.5-11.2-5.2s-6.5,0.5-8.2-0.5s-2.5-0.5-2.8-2.5
	s-1.2-1.8,0.5-3.2s2.5-2,3.2-2.5s3-2,3-2s2.8-3,3.8-3s5.5,0.8,5.5,0.8l10.2,8.2c0,0,9.5,5.8,15.8,7.2s8.2,1.8,10.8,4.8
	s3.5,3.8,3.2,6.2S1569,1634.1,1566.7,1635.3z"/>
<path id="body-right" class="normal" d="M1405.8,2646.4c-1.3-9.3-10-210-11.3-221.3s-21.3-122-21.3-122s-24-120-32-136
	s-56-144-60.7-157.3s-70.7-341.3-70.7-341.3l-58-181.3l-58.7,30.3c-1.6,2.6-154.6,54.6-168.6,58.6s-74,26-74,26s1,217,1,230
	s-11,78,2,112s43,144,43,155s45,208,45,208l23.7,24l4,5.7l3.7,21.7l15.7,71.3c0,0,5.7,32,5.7,34s2.7,15.7,1.7,20.3s-12.3,66-12.3,66
	l-6,36.7c0,0,0.7,7,0.3,12.7c-0.3,5.7-1.7,10.3-2.7,12s-7.7,20.3-8.7,21s-2.7,1.3-4.7,1.7s-7.7,5.7-7.7,5.7s-7,59.3-7,66.7
	c0,7.3,0.7,139.3,0.7,139.3s6,142.7,6,154s14.7,176.7,14.7,176.7l16.7,4c0,0,44.7,9.3,60,12s65.3,11.3,76.7,12.7
	c11.3,1.3,69.3-2,91.3-6s44-22.7,55.3-34.7s52-64.7,58-75.3s34.7-64,34.7-68.7s24-68,30-114.7s7.3-82.7,7.3-84.7
	S1407.2,2655.8,1405.8,2646.4z M1314.5,2464.3c-9.7,0-12.6,1.5-19.7-6.9l-2.7-5.6c-4.8-11.8-0.2-15.9,1.2-20.7
	c4.1-10.8,11.3-14.1,21.8-14.1c14.4,0,21.8,9.1,21.8,26.6S1328.9,2464.3,1314.5,2464.3z"/>
<path id="collar-left" class="left" d="M1481.1,1391.6c0,0,0,58.6,0,61.2s-1.8,42-3.1,56s-3.1,25.1-3.1,25.1l79.6,37.5l13.3,1.7
	c0,0,29.7-1.3,38-4.3s11.3-6.3,11.3-6.3s-10.3-27.3-11.7-33.3s-4-19.3-4-19.3s-9-2.3-20.7-11s-15-14.3-18.3-15.3s-11-7.3-15.3-11.7
	c-4.3-4.3-51.3-64.7-53-67C1492.5,1402.4,1481.1,1391.6,1481.1,1391.6z"/>
<path id="collar-right" class="right" d="M1214.8,1388.5c0,0-7.7,74.7-7.6,88.1l4.4,49c0,0-64,49.2-66.4,50.6c-2.3,1.3-14.7,2-16,2
	s-22.3-0.7-24.7,0c-2.4,0.7-16,2.7-17.3,3.3c-1.3,0.7-10.3,2.7-10.3,2.7s-1.3-0.7-2.3-2s-1.7-3-0.7-6s19.3-58.7,19.3-58.7
	s13-9.3,16-12s47-42.7,57-53s30-37,30-37L1214.8,1388.5z"/>
<path id="lapel-left" class="left" d="M1619.5,1602.1c0-1.7-1.7-3-4.3-5.3c-2.7-2.3-8.3-4-18-8.3c-2.9-1.3-8.8-4.1-15.9-7.6v-0.5
	h-1.2c-16.6-8.1-38.8-19.1-42.9-21.2c-6-3-64.3-31.1-64.3-31.1s-2.5,14-3.5,18.4c-1,4.3-13.4,65.5-14,70.8
	c-0.9,6-9.9,44.9-10.2,47.4c-2.7,12.6-12.9,56.9-14.3,62.3c-1.3,5.3-13.7,65.6-15.2,71.4c-2.5,9.9-10.4,41.7-11.4,45.3
	c-1,3.7-15.2,55.9-17.5,64.3c-2.3,8.3-5.9,26.8-8.2,39.5s-8.4,31.2-9.9,35.1c-2.8,7.7-7.5,23.1-8.5,26c-2.1,6.2-0.2,14.7-0.8,20
	c-0.7,5.3-1.5,10-2.5,14s-8.8,41.7-10.5,45.3c-1.7,3.7-8.8,27.4-8.8,27.4l-2.7,7.8l-0.3,29.7l13,49c0,0,15.3-20,16-22s41.3-79,42-80
	s22.3-44.3,25.3-49.7s13-27,13-27s35.3-80.7,39-87s42-91,42-91l27-62.7l15.3-39c0,0,38.7-97.7,40-100.3c1.3-2.7,12-34,13-37
	S1619.5,1603.8,1619.5,1602.1z"/>
<path id="lapel-right" class="right" d="M1211.2,1522.8l-81,55.3c0,0-59.7,37-65.3,49l5,13.7c0,0,17.7,67,20.3,73
	c2.7,6,17,49.7,17.3,50.7s26,64,27,68.3s14,36.7,14.3,38s35.7,91,36.3,92c0.7,1,41.7,90.7,42.3,92c0.7,1.3,33.7,62,33.7,62
	s116.4,219.3,123.4,243.3c0,0-6.2-50-6.8-53.4c-0.6-3.4-11.2-60.6-11.2-60.6l-13.8-68c0,0-14.2-53.5-16-59.5s-1.7-11.7-2.3-14.7
	s-3.6-14.1-4.8-19.9c-1-4.9-9.9-39.4-10.9-45.6s-5-25.3-5-25.3s0.1,0.2-1.9-7.6s-9.4-34.2-10.1-36.4s-9.7-32.2-10.7-43.8
	s-3.3-28.3-4.9-34.1s-11-36.5-14-49.5s-19.4-84.7-23.4-111.7s-24.2-127.4-25.2-131.4S1211.2,1522.8,1211.2,1522.8z"/>
<path id="arm-right" class="normal" d="M857.2,1598.4c0,0,6,73.3,7.3,85.3s6.7,58.7,4,89.3s-4.7,118-4,131.3s0,25.3,6,39.3
	s28,81.3,28.7,86s6,70.7,12,86.7s26.7,93.3,28,99.3s26.7,108.7,26.7,108.7s0.7,1.3-0.7,6.7c-1.3,5.3-1.3,1.3-4.7,15.3
	s-10,70-9.3,91.3s4,102.7,4,102.7l6,92.7l2.7,4c0,0,2.7,10.7,2,14s-4,13.3-4.7,27.3s-4,33.3-3.3,37.3s10,176,10.7,178.7
	s0.7,111.3,1.3,115.3c0.7,4-4,22-0.7,34.7s8.7,69.3,9.3,72c0.7,2.7,6.7,55.3,6.7,64s-3.3,70.9-3.3,70.9s-19.3-14.7-22-15.3
	c-2.7-0.7-38.7-4.7-50-6s-56,0-73.3,2s-75.3,14.8-75.3,14.8l-1.5,33c0,0-21.2-10.7-29.2-14.7s-16-9.3-16-9.3l4-48.7l-2.7-248.7
	c0,0-3.3-146.7-3.3-149.3s1.3-130,1.3-130s0.7-150.7,0.7-162s3.3-61.3,3.3-61.3s0.7-210,0.7-216.7s12-249.3,16-276.7
	c4-27.3,7.3-73.3,8-76.7c0.7-3.3,25.3-98.7,25.3-98.7s22-74.7,23.3-81.3c1.3-6.7,24-59.3,25.3-65.3s10.7-28,10.7-28
	S848.5,1593.1,857.2,1598.4z"/>
<path id="arm-left" class="normal" d="M1849.8,1587.8c6,0.7,12-1.3,14.7,2.7s12.7,20,20,37.3s30.7,101.3,40,126s32,154.7,32,154.7
	s23.3,158,25.3,176.7s8.7,124.7,8.7,124.7s10,224,10.7,228.7s1.3,139.3,1.3,139.3l-4,229.3l0.7,206.7v171.2l0.6,72.5
	c0,0,1.7-1-1-3.7s-9.7-7-18-8.3s-113.7-11.3-113.7-11.3s-42.7-1.7-50.3-1.7c-7.7,0-35,1-44.7,1.7s-20.7,2-25.3,4
	c-4.7,2-21.3,7.3-22.3,8s5.1-20.5,5.8-24.5s0.7-29,1-31.3s4.7-19.7,4.7-19.7s22-157.7,23.3-167.7s-3.3-40-2-49.3s2.7-14,6.7-30
	s4.7-46,5.3-54.7c0.7-8.7,0-34,0-34s9.3-84.7,4.7-96c-4.7-11.3-6-40.7-6.7-49.3c-0.7-8.7,0-18,0-28.7s-0.7-50.7-0.7-58
	s-0.7-44.7-0.7-44.7s-4.7-103.3-4.7-110.7c0-7.3-2-123.3-2-130.7s0.7-32.7,0.7-32.7s50.7-380,53.3-413.3
	c2.7-33.3,16.7-136.7,16.7-136.7s6-84,10.7-100S1849.8,1587.8,1849.8,1587.8z"/>
</svg>
