<?xml version="1.0" encoding="utf-8"?>
<!-- Generator: Adobe Illustrator 21.1.0, SVG Export Plug-In . SVG Version: 6.00 Build 0)  -->
<svg version="1.1" id="Layar1" xmlns="http://www.w3.org/2000/svg" xmlns:xlink="http://www.w3.org/1999/xlink" x="0px" y="0px"
	 viewBox="0 0 4160 6240" style="enable-background:new 0 0 4160 6240;" xml:space="preserve">
<pattern id="normal" patternUnits="userSpaceOnUse" width="270" height="270" patternTransform="">
		<image image-rendering="optimizeQuality" preserveAspectRatio="xMidYMid meet" xlink:href="/images/simulator/default/default_tex.jpg" x="0" y="0" width="270" height="270" style="-ms-interpolation-mode: bicubic;" />
  </pattern>
  <pattern id="left" patternTransform="rotate(23)" patternUnits="userSpaceOnUse" width="270" height="270">
		<image image-rendering="optimizeQuality" preserveAspectRatio="xMidYMid meet" xlink:href="/images/simulator/default/default_tex.jpg" x="0" y="0" width="270" height="270" style="-ms-interpolation-mode: bicubic;" />
  </pattern>
  <pattern id="right" patternTransform="rotate(-23)" patternUnits="userSpaceOnUse" width="270" height="270">
		<image image-rendering="optimizeQuality" preserveAspectRatio="xMidYMid meet" xlink:href="/images/simulator/default/default_tex.jpg" x="0" y="0" width="270" height="270" style="-ms-interpolation-mode: bicubic;" />
  </pattern>
<style type="text/css">
	.normal{fill:url(#normal);}
	.left{fill:url(#left);}
	.right{fill:url(#right);}

</style>
<path id="body-right" class="normal" d="M1934,1813c-12-18-102-303-102-312s-27-95-27-95l-14-26l-77,51l-57,20c0,0-59,26.5-68.5,31
	s-94,37-101.5,39.5s-55.5,22.5-67.5,28.5s-124,47-130.5,49.5s-18.5,6-19.5,8s-2.5,3-1,6s3.5,8,3.5,8s28.5,110.5,30,121
	s13.5,72.5,16,84s18,92,19,102.5s13.5,130,14,145.5s12.5,134.5,13,143.5s18.5,146.5,21,167.5s30,160.5,31.5,169s4.5,18,5,20.5
	s12.5,59.5,14,69.5s20.5,143,22.5,162s10.5,142,11,150s2.5,122-5,153.5c0,0-13,75-14,80.5s-6.5,15-10,17.5s-4.5,1.5-6.5,3s-6,1-6,4
	s-7,84-6.5,89.5s-19,156-19.5,163.5s-11,45-11.5,51s-11.5,152.5-11.5,159s-7.5,182.5-7,187.5s9,77.5,9,77.5s-3,16-3,20.5
	s-2,24-1.5,30.5s1,8,1.5,9.5s1,4,2.5,5s4.5,3.5,4.5,3.5l2.5,3l-2.5,14l1.5,19.5l31.5,74l7.5,22.5c0,0-2,4.5-2.5,8s-7.5,20-7,21.5
	s2.5,23.5,2.5,23.5l17,12l-1,2c0,0,10,2,14,3s93,18.5,109,20s142.5,10,153.5,11.5c1.5,0.5,68.5-1,68.5-1l6-173l11.5-320
	c0,0,5-199,7.5-212s14-172.5,14-172.5s-1-377,1-390s3-77,7-92s60-113,60-113s130-282,131-289s58-315,58-315S1946,1831,1934,1813z
	 M1693.8,2494c-23.3-1.4-42-19.9-42-43.3s14-42,42.2-42.2c23.3-0.2,42.2,18.9,42.2,42.2S1727.8,2496,1693.8,2494z"/>
<path id="body-left" class="normal" d="M2930.8,1625.5c0,0-7.2,0-8.8-0.8c-1.6-0.8-42.5-17.2-44.5-18c-2-0.8-122.8-48.5-122.8-48.5
	l-62.5-24c0,0-77.6-32.9-87.9-37.2c-10.3-4.3-49.3-24-56-26.7c-6.7-2.7-71.7-23.3-79.7-26.7c-8-3.3-133.7,25.3-133.7,25.3
	s-46,202-60,232s-108,346-138,408c-30,62-98,288-100,294s-144,334-150,344s-60.7,101.3-62.3,105.7c-1.7,4.3-11.7,41.8-11.7,41.8
	s-6,48.5-6,61.5c0,0-0.5,35.5,0,43.5s-1.5,133.5-1,142s-3.5,145.5-3.5,145.5s-4.5,146.5-5.5,160.5s-10.5,226-11,236.5
	s-13.5,325.5-14,328.5s-4.5,153-5.5,163s-1.5,44.5-1.5,53.5s1,16,3,17s32.5,0,39.5,0s170,11,188.5,12.5s144,7.5,146.5,7.5
	s98.5,2,118.5,0.5s179-6.5,184.5-8s106-11.5,121-12.5s96-10,100-10.5s39-6.5,47.5-8.5s30-7.5,38-13s6.5-36.5,4-37.5s-10,0-14.5-8.5
	s-5.5-32.5-2-39s34.5-56.5,35-61s1-13,0.5-15.5s-1-12-1-12l1.5-1.5c0,0-4.2-4.7-4.8-6.2c-0.7-1.5,2-40.5,2-40.5s5.2-53.8,5.2-54.3
	s3-45.3,3-47s15.7-441,14.7-444s-11-14-12-17.5s-4-60.7-4-60.7l-1.8-19.8c0,0-1.3-10.3-1.3-19.7c0-9.3-3.7-59.3-3.7-59.3
	s-2.7-36-2.7-38.3s0.3-4-0.3-5.7c-0.7-1.7-2.9-3.2-4.5-4.4s-6.9-2.8-8-3.8s-1.6-4.5-2.1-6.2s-0.2-4.8-0.2-4.8s-7.8-24.9-8.5-28.6
	s-8-44-8.5-48.2s-9.8-55-9.8-61.5s-6-60.2-6-60.2l-4.2-64c0,0-1.8-50.8-1.8-54.2s2-69.2,2.5-75.5s7.5-61.2,8.5-67.2
	s7.2-43.5,8.2-48.5s12.2-54.5,14-60.8s8.2-35,9.8-38s8.2-31,8.8-33s8.2-35.5,9-37.5s14.5-31.5,14.5-31.5l16-101l8.2-166.2
	c0,0,4-55.5,3.2-60S2877,1730,2883,1713s48-82,48-82l2-3L2930.8,1625.5z M1873.7,2870.5c18.5,0,34.3,11.7,40.5,28.3
	c2.7,9.4,4.6,25.3-5.2,42.8l0.6,0.1c-7.1,10.9-19.2,17.8-35.9,17c-23.9-1.1-43.4-19.7-43.4-44.1
	C1830.3,2890.3,1849.7,2870.5,1873.7,2870.5z M2311.3,3436.2c-27,1.8-42-18-42-41.9s23-45,43.3-45.3c23.9-0.4,41.9,20,41.9,44
	S2335.1,3434.7,2311.3,3436.2z M2328.3,2976c-25,0-45.3-20-45.3-44.7s20.3-44.7,45.3-44.7s45.3,20,45.3,44.7
	C2373.5,2956,2353.3,2976,2328.3,2976z M2524.6,2490.4c-3.4,24.4-17.5,44.2-39.1,44.6c-28.5,0.5-42.5-19.4-42.5-44
	s25.4-42.5,47-42.5S2528,2466,2524.6,2490.4z M2557.2,1725.9c0,0-6.8,1.6-7.6,1.8s-7.5,1.1-10.4,0.9s-20.6,1.5-23.6,0.8
	c-3-0.7-13.1,0.8-14.6,0.9s-2.8,3.9-10.1,3.8c0,0-7.8,0.5-8.2-10.2c0,0-0.7-6,3.1-9.4l8.5-1.5l7.7,3c0,0,31.5,0.2,33.1-0.1
	c1.7-0.3,8.5-0.4,9.8-0.9s6.5-2,7-1.9s6.8-0.1,8.1,2.1C2559.9,1715,2566.6,1723.8,2557.2,1725.9z"/>
<path id="arm-right" class="normal" d="M1270.3,1615.7c0,0-4.7,2-8,0s-8.7-6.7-12.7-5.3c-4,1.3-12.7,7.3-14.7,11.3s-15.3,26-21.3,37.3
	s-15.7,66.1-25.3,80c-9,13-40,160-42.3,177c-2.1,15.2-36.7,176-37,187.7c-0.3,11.5-42.7,269.3-44,279.3s-13.3,158.7-13.3,170.7
	s-6.7,224.7-6.7,237.3s-6,187.3-6,201.3s-4,98.7-4,103.3c0,4.7-2,42-1.3,50.7s2,174.7,2.7,176.7s-1.3,108-1.3,111.3s1.3,56,2,72
	s-2,88-2,108s-4,166-4,172s2,54.7,2,61.3c0,6.7-1.3,10-2.7,16c-1.3,6,0,23.3,0.7,30s3.3,15.3,2.7,20.7c-0.7,5.3-5.3,31.3-5.3,36
	s-1.3,14.7,0.7,16.7s1.3,3.3,4-0.7s6.7-12.7,10-16.7s7.3-14.7,11.3-15.3c4-0.7,56-16,68-16s64-6.7,80.7-6s85.3-8,94-5.3
	s16.7,4,33.3,12.7c16.7,8.7,46.7,24,46.7,24s0.7-19.3,0.7-28.7s-3.3-114-2.7-130.7c0.7-16.7,16-216.7,16-242.7s8.7-76.7,8.7-84
	s0-83.3,0.7-87.3s2-138,2-138s4.7-270,6-280.7s3.3-168,4.7-180s4-88.7,4-100s1.3-43,1.3-44.7s1-44,1.3-45.7s2.7-3.3,2.7-3.3
	l-14.7-66c0,0-15-82.3-16.3-92s-12-80.7-12-80.7l-15.3-118c0,0-8.3-95-8.3-98.7s-6-62-6.3-67.3s-8-93.3-8.3-96.7
	c-0.3-3.3-14.7-89.3-15.3-95.7c0,0-32.3-159.7-33.3-164.3C1291.3,1694,1270.3,1615.7,1270.3,1615.7z"/>
<path id="collar-right" class="right" d="M1845,1277c0,0-19,16-23,23.5s-46,62-48.5,66s-41,42.5-49.5,45.5s-55,26-62,34.5l-70,69
	l-20,21c0,0-12,12,11.2,11.5c0,0,61.8,5.2,69.2,6.8s49,5.5,53.5,9s10.8,6,10.8,6l49.5-58.8l36-45l36.2-44l2.8-4.2c0,0-6-19.5-6-21.2
	s-7-30.2-4.2-56C1831,1340.5,1833.8,1296,1845,1277z"/>
<path id="lapel-right" class="right" d="M1840.5,1414.5c0,0-4.5-9-23.5,10l-52.8,68.2l-57,71.5l-1.8,1.2c0,0-92.5-6.2-99.2-6.8
	s-86.2-10-86.2-10s-38.5-7.5-42.8,5.2c0,0-9.2,11.2,6,36.2l34.2,68.5c0,0,59.5,116.9,61.5,120.2s124.7,214.7,124.7,214.7
	s89.3,153.3,113.3,184l182,235.3l26.7-26.7l72-219.3l-16-17.3l-70.7-183.3c0,0-76.7-202-77.3-204c-0.7-2-19.3-60.3-21.7-73
	l-32.7-132.3l-12.7-48.3c0,0-22.7-80.7-23.3-84.3C1842.7,1420.7,1840.5,1414.5,1840.5,1414.5z"/>
<path id="collar-left" class="left" d="M2328.5,1276l15,11.5c0,0,9.5,6.5,23,27c0,0,40.5,55,48.5,65c0,0,41,41.5,70,57.5
	c0,0,21,14.5,26.5,22c0,0,43,67.5,47.5,73.5s29,41.5,30,43s19,31,19,31s-120,6-122,6.5s-40.5,1-40.5,1s-18-15-29-36
	s-86.5-131-86.5-131l-3-3.5c0,0,7.5-21,12.5-36.5s8-23,8-32.5s0-15-1-26.5s-15.5-69.5-16.5-70"/>
<path id="lapel-left" class="left" d="M2689.5,1590.5c0-4.5-1.5-6.5-13.5-7.5s-21.5,4-36.5,6.5s-48,8.5-54.5,9s-123.5,5.5-128.5,4.5
	s-4.5-1-7.5-3.5s-4-4-7.5-8.5s-62-94-66-103s-19-29-19-29c-10-14.5-28-16-28-16l-6.2,13.3c-3.3,9.3-60,163.3-63.3,174.7
	s-32,109.3-34,114.7c-2,5.3-34.7,124-35.3,126c-0.7,2-34.7,96.7-34.7,96.7s-33.3,94-39.3,111.3s-28.7,62.7-28.7,62.7l-87.3,246.7
	c0,0-66,185.3-70.7,201.3s-46,118-46,118s-38.7,84.7-42.7,93.3c-4,8.7-12,34-15.3,42s-10.7,41.3-10.7,41.3l5.3-17.3
	c8-16.7,56-90.7,59.3-97.3c3.3-6.7,66.7-91.3,69.3-96.7c2.7-5.3,98.7-120.7,102.7-125.3c4-4.7,138.7-168.7,138.7-168.7l105.3-148.2
	l136-200.5l126.5-196c5.5-7.5,86.5-146.5,88-149.5s41.5-77,43.5-83S2689.5,1595,2689.5,1590.5z M2539.2,1728.5
	c-2.9-0.2-20.6,1.5-23.6,0.8l34-1.6C2548.8,1727.8,2542.1,1728.8,2539.2,1728.5z"/>
<path id="arm-left" class="normal" d="M2922,1624.8c0,0,21.7-0.8,32.2,8.6c0,0,17.7,13.5,19,15.5s6.8,12.2,8.2,16
	c1.3,3.8,22.4,76.9,23.4,79.7s22.2,87.8,22.2,87.8s14.8,72.2,15,73.2s15,80.5,15,80.5l10.8,61.5c0,0,27.2,233.5,27.2,236.5
	s15,159,17,200s10,382,9,393s1,30,2,46s1,418,0,430s-7,309-8,326s-3,44-3,48s2,7.5,3,12s4.5,13.8,3.5,21s-2,17.5-3.8,20
	s-3,4.8-3.2,5.8s1.2,62.5,1.2,62.5s1.5,44.5,2.8,50.2s10.8,53,11,57.8s2.5,13.8,2.2,18.5s-4.5,26.5-7.2,31.2s-7.5,13-9.2,13.2
	s-3.2,1.2-6-2s-5.8-7.8-8-10.8s-4.5-8-4.5-8s5.5,4.2,10.2,4.8s8.2-1,8.8-3s-0.8-11-0.8-11s-33.2-20.2-36.5-21.5s-42-9.8-58-12.8
	s-145.2-18-157.8-18c-12.7,0-44,0-56,4s-16.7,7.3-17.3,11.3c-0.7,4-4.7,16-4.7,26s-0.7,22-0.7,27.3s5.3,24.7,2,28s-3.2,5.3-5.2,5.3
	s-4.2-1.5-5.5-4.5s-4.5-4-5.5-8.2s-1.8-24.2-1.5-30.2s14-139.5,14.8-153.8s3.8-104.5,3.8-104.5l2.8-312.2V3359l0.5-119.5l1.5-84.5
	l0.5-127c0,0,0-150.5,0.5-152.5s-1.5-99.5-1.5-99.5s-2-104-2.5-108.5s-2-73-2.5-83.5s-3.5-35.5-3.5-38.5s-2.5-18-2.5-18
	s8-54.5,9.5-61.5s11.5-91,12-96.5s3.5-73.5,4-78s5-143,5-154s6-62.5,7.5-71.5s17-141.5,17-141.5s17.5-122,18.5-125.5
	s21.5-86.5,22-90.5s12-42.5,21-54.5C2893.5,1654,2918.5,1625,2922,1624.8z"/>
</svg>
