<?xml version="1.0" encoding="utf-8"?>
<!-- Generator: Adobe Illustrator 21.1.0, SVG Export Plug-In . SVG Version: 6.00 Build 0)  -->
<svg version="1.1" id="Layar1" xmlns="http://www.w3.org/2000/svg" xmlns:xlink="http://www.w3.org/1999/xlink" x="0px" y="0px"
	 viewBox="0 0 4160 6240" style="enable-background:new 0 0 4160 6240;" xml:space="preserve">
<pattern id="normal" patternUnits="userSpaceOnUse" width="270" height="270" patternTransform="">
		<image image-rendering="optimizeQuality" preserveAspectRatio="xMidYMid meet" xlink:href="/images/simulator/default/default_tex.jpg" x="0" y="0" width="270" height="270" style="-ms-interpolation-mode: bicubic;" />
  </pattern>
  <pattern id="left" patternTransform="rotate(23)" patternUnits="userSpaceOnUse" width="270" height="270">
		<image image-rendering="optimizeQuality" preserveAspectRatio="xMidYMid meet" xlink:href="/images/simulator/default/default_tex.jpg" x="0" y="0" width="270" height="270" style="-ms-interpolation-mode: bicubic;" />
  </pattern>
  <pattern id="right" patternTransform="rotate(-23)" patternUnits="userSpaceOnUse" width="270" height="270">
		<image image-rendering="optimizeQuality" preserveAspectRatio="xMidYMid meet" xlink:href="/images/simulator/default/default_tex.jpg" x="0" y="0" width="270" height="270" style="-ms-interpolation-mode: bicubic;" />
  </pattern>
<style type="text/css">
	.normal{fill:url(#normal);}
	.left{fill:url(#left);}
	.right{fill:url(#right);}

</style>
<g id="belt">
	<path class="normal" d="M1561.3,510c0,0,4-16,16-36s36.7-66.7,42-81.3c5.3-14.7,25.3-52,27.3-55.3c2-3.3,2.7-7.3,10.7-6.7
		c8,0.7,163.3,8.7,218,12c54.7,3.3,236,15.3,262.7,16c26.7,0.7,102,2.7,144,0.7s168-6,202.7-7.3c34.7-1.3,143.3-10.7,182.7-10
		c39.3,0.7,66.7-2.7,81.3,3.3c14.7,6,37.3,11.3,44,22.7c6.7,11.3,52,117.3,55.3,126.7c3.3,9.3,8,21.3,8.7,30c0.7,8.7,2.7,16,2.7,16
		s-34.7-4.7-80,0c0,0-37.3,6.7-82.7,6.7c-45.3,0-118.7,4-170.7,6.7s-150.7,8-227.3,8.7c-76.7,0.7-188-2.7-265.3-8.7
		s-248-26.7-294-30.7s-78.7-4-100-8c-21.3-4-37.1-6.8-58.1-5.3c-8.4,0.6-13.9,0.7-13.9,0.7L1561.3,510z"/>
</g>
<g id="レイヤー_10">
	<path class="normal" d="M1561.3,510c0,0,10.2,0.4,19.9,0s36.7-0.3,46.2,3.2c9.5,3.5,24.5,4,24.5,4s-1.3-5.3-7,45.6
		s-10.3,72.9-11,148.2s-2.3,209.7-4,242.3c-1.7,32.7-5.7,156.7-8,199c-2.3,42.3-6.3,193-8.3,240.3c-2,47.3-6.3,149.3-9.7,211
		c-3.3,61.7-10,190.3-13,241.7c-3,51.3-11.7,217-14.3,266.3c-2.7,49.3-11,196-13.7,250.7c-2.7,54.7-12,255.3-15.3,319.3
		c-3.3,64-13.3,204.3-15.3,241.3s-0.3,102.3,2.3,124c0,0-9-1.7-14.3-3c-5.3-1.3-23.7-3.3-38.3-4.7c-14.7-1.3-52.7-5.3-80-9
		c-27.3-3.7-90.3-12-106.7-13.3c-16.3-1.3-20.3,0.3-42.3-7.7s-50.3-18.7-57-21.3s-26-18-25.3-33.3c0.7-15.3,0-25,0-25
		s25.4-37,40.7-103.7c15.3-66.7,44.7-225.3,49-262.7c4.3-37.3,21.7-175.3,26.3-219.3c4.7-44,23-237.7,25.3-271.7
		c2.3-34,3.3-93.3,9.3-149c6-55.7,15.3-184.3,21.7-257c6.3-72.7,22.3-249,28-312.7c5.7-63.7,20.7-182.3,31-242.7s51-244,59-280.7
		c8-36.7,38.3-134,59.3-202s32-94.7,34.7-101.3S1561.3,510,1561.3,510z"/>
</g>
<g id="レイヤー_11">
	<path class="normal" d="M2711.3,547.1c0,0-15.7,2.1-61.4,1.2c0,0-54.9,2.2-75.3,3.3c-20.4,1-75.3,3.9-87,4.5c-11.7,0.6-94,5.1-146,5.9
		c-52,0.8-132.6,0.8-187-1.5c-54.4-2.3-187.4-12.5-211.1-15s-89.9-9.8-113.6-12.4s-92.3-10.2-122.3-12s-55.7-3.8-55.7-3.8
		s-7.5,30.8-10.6,76.2c0,0-9.5,66.7-7.6,139.4c0,0-1.8,165.4-4.5,236.4s-10.2,257.9-11.6,302.6c-1.4,44.7-6.9,196.6-10.4,266.3
		c-3.5,69.7-11.1,213.7-13,248s-9.9,181-12,219c-2,38-16.1,292.4-18.3,337.4c-2.2,45-11.2,235-12.4,259.6
		c-1.2,24.6-17.4,285.4-18.6,310c-1.2,24.7-3.6,106.6,1.7,135c0,0,6.3,2,10,2.3c3.7,0.3,57.3,5.7,69,7.7c11.7,2,51.7,7,82,9.3
		c30.3,2.3,100.3,6,125,9c24.7,3,102.3,12.7,121,13.3c18.7,0.7,112,7.3,128.7,8.3c16.7,1,112.3,8.7,141,9.7c28.7,1,69.3,0.7,91,3
		c21.7,2.3,45.3,0.7,68,0c22.7-0.7,65.7-6.3,85.3-9.7c19.7-3.3,19.7-3.3,19.7-3.3s16.3-1.7,45-2.3c28.7-0.7,72,0,92.7-0.3
		s33.7-0.3,33.7-0.3s-2.7-114.3-1.3-180.3c1.3-66,5-175.7,7-226.3s6.7-251,8-276c1.3-25,2.7-134.3,3.7-183.7c1-49.3,2.7-140,4-214.7
		s3.7-204,4-252.7s2.3-201,2.3-243s0.7-194.3,1.7-218.3s2.7-110.7,6-166c3.3-55.3,12.3-218.7,14.7-256.3c2.3-37.7,8-115.7,11-152.7
		s7.7-128.3,5.7-143.3S2711.3,547.1,2711.3,547.1z"/>
</g>
<g id="レイヤー_12">
	<path class="normal" d="M2711.3,547.1c0,0,67.2-4.2,78.2-6.1s65.2-3.2,69.8-0.3c0,0,16.2,55.3,31.2,107.8s75.5,282,95,369
		s57.5,270,65,364.5s22.5,281.5,25.5,327s27,361,31.5,411s27.5,371.5,35,437.5s36.5,337,60.5,405c0,0,11,31,11,44s0,16,0,16
		s-13,6-25.5,8.5s-53.5,13-65,17s-45,13-108,22.5s-75,11.5-104.5,14.5s-56,5.5-96.5,8s-79,0-110.5,0s-57.3,0.7-57.3,0.7
		s-6.2-198.7,3.3-334.2s-1.5-61,3-121.5s8.2-250.7,8.8-282.5c0.6-31.8,6.5-355.5,7.1-394c0.6-38.5,4.1-292,4.7-354
		c0.6-62-0.4-326,4.7-387c5.2-61,15.2-322.5,19.2-356.5s16.6-240,16.3-260.5S2711.3,547.1,2711.3,547.1z"/>
</g>
</svg>
