<?xml version="1.0" encoding="utf-8"?>
<!-- Generator: Adobe Illustrator 21.1.0, SVG Export Plug-In . SVG Version: 6.00 Build 0)  -->
<svg version="1.1" id="Layar1" xmlns="http://www.w3.org/2000/svg" xmlns:xlink="http://www.w3.org/1999/xlink" x="0px" y="0px"
	 viewBox="0 0 4160 6240" style="enable-background:new 0 0 4160 6240;" xml:space="preserve">
<pattern id="normal" patternUnits="userSpaceOnUse" width="270" height="270" patternTransform="">
		<image image-rendering="optimizeQuality" preserveAspectRatio="xMidYMid meet" xlink:href="/images/simulator/default/default_tex.jpg" x="0" y="0" width="270" height="270" style="-ms-interpolation-mode: bicubic;" />
  </pattern>
  <pattern id="left" patternTransform="rotate(23)" patternUnits="userSpaceOnUse" width="270" height="270">
		<image image-rendering="optimizeQuality" preserveAspectRatio="xMidYMid meet" xlink:href="/images/simulator/default/default_tex.jpg" x="0" y="0" width="270" height="270" style="-ms-interpolation-mode: bicubic;" />
  </pattern>
  <pattern id="right" patternTransform="rotate(-23)" patternUnits="userSpaceOnUse" width="270" height="270">
		<image image-rendering="optimizeQuality" preserveAspectRatio="xMidYMid meet" xlink:href="/images/simulator/default/default_tex.jpg" x="0" y="0" width="270" height="270" style="-ms-interpolation-mode: bicubic;" />
  </pattern>
<style type="text/css">
	.normal{fill:url(#normal);}
	.left{fill:url(#left);}
	.right{fill:url(#right);}

</style>
<g id="belt">
	<path class="normal" d="M1523.7,1800.8c0,0,18.9-58.6,22.7-72c3.8-13.5,24.4-77.3,27-85.3c2.6-8,5.4-14.3,5.6-16.4
		c0.2-2.1,0.5-4.3,3.3-5.4s11.5,1.4,26.8,1.2c15.2-0.2,49-1.9,65.2-1.4c16.2,0.5,76.7,2.6,91.5,2.6s86.5-1.6,97.1-1.4
		c10.6,0.2,97.8,2.8,117,2.6c19.2-0.2,114.6,0.5,131.1,0.5s106.9,0.5,124.3,0.5c17.3,0,65.2-0.7,95.4-0.7c30.3,0,68.7-1.6,75.9-1.8
		c7.2-0.2,35.9-1.2,51.4-1c15.5,0.2,43.2,0,47.6,0.5c4.5,0.5,6.6,0.2,6.6,3.5c0,3.3,3.5,14.3,4.7,16.9c1.2,2.6,4.7,12.4,9.1,22.8
		c4.5,10.3,20.4,61.4,23.2,68.3c2.8,6.8,19.5,58.2,21.6,64c2.1,5.8,3,6.8,3,6.8s-43.1,11-80.8,15.7c-37.7,4.7-130.8,13.8-167,13.6
		c-36.1-0.2-52.8,1.8-84.2,1.8c-31.4,0-104.5-2-112.8-2.1c-8.3-0.1-167.9-4-188.5-6.1c-20.6-2.1-104-2.8-114.7-3
		c-10.8-0.2-71.1-4.6-101.7-6c-30.5-1.4-92-4.1-103-5.4c-11-1.4-38.5-3.8-49.6-5.1C1560.3,1807.3,1523.7,1800.8,1523.7,1800.8"/>
</g>
<path id="flare-1" class="normal" d="M1523.7,1800.8c0,0-58.2,206-58.7,209.2c-0.6,3.2-29.4,124.4-29.9,127.1
	c-0.6,2.6-13.4,90.3-13.9,96.1c-0.6,5.8-1,99.9-1,106.8s0,248.9,0,248.9s1,323.7,1,328.5s0,213.1,0,222.1c0,9.1-3.2,470.5-3.2,474.8
	c0,4.2-1.6,186.9-1,190.1c0.6,3.2,2.2,4.8,5.8,7c3.8,2.2,13.9,2.6,24.6,4.8c10.7,2.2,30.4,2.2,43.3,5.4c12.8,3.2,33.1,5.4,33.1,5.4
	l39,0.6c0,0,2.6-1145.6,6.4-1193.1s1-417.6,8-451.3c7-33.6,44.3-230.2,46.5-245.1c2.2-15,15-121.2,15-121.2s-11.4-2.6-25.5-4.2
	c-24.4-2.7-56.8-6.6-60.2-7C1547.5,1804.9,1523.7,1800.8,1523.7,1800.8z"/>
<path id="flare-2" class="normal" d="M1613.2,1812.6c0,0-35.6,236.2-37.7,243.8c-2.2,7.5-17.6,127.1-19.2,135.6
	c-1.6,8.6-11.8,100.9-11.8,115.4s-5.4,190.1-5.4,192.3c0,2.2-0.6,207.2-0.6,212.1c0,4.8-2.2,198.7-2.6,204
	c-0.6,5.4-1.6,142.6-1.6,149s-4.8,170.4-5.4,180c-0.6,9.6-4.2,190.1-4.2,198.7c0,8.6-4.2,148.4-4.8,155.4s-1.6,146.8-2.2,153.3
	s-1,67.3-1,71.5c0,4.2-1.6,7.5,0.6,9.1c2.2,1.6,5.4,2.2,9.1,1c3.8-1,48.6,3.3,50.2,3.3c1.6,0,189.1,6.2,192.3,6.2s40.1-4.7,40.1-4.7
	s-9.6-543.7-11.8-571.4c-2.2-27.8-10.7-1394.5-10.7-1412.6s0.6-31.6,0.6-31.6s-82.4-4.9-88.3-4.9c-5.9,0-65.5-3.5-72.3-4.1
	C1619.6,1813.4,1613.2,1812.6,1613.2,1812.6z"/>
<path id="flare-5" class="normal" d="M2494.3,1820.1l64.1-12l15.2-2.8c0,0,10.4,32.8,13.6,38.5c3.2,5.6,30.8,94.5,32.4,99.7
	c1.6,5.2,13.2,35.6,15.6,53.7c0,0,14.4,66.5,17.6,76.9c3.2,10.4,10,35.6,12.4,42.5c2.4,6.8,12.4,32.8,14,41.3
	c1.6,8.4,5.6,24.8,6,26.8c0,0,2.4,12,3.2,18c0.8,6,1.6,26,2,32.4c0.4,6.4,2.8,80.1,2.8,88.9c0,8.8,4.8,111,4.4,116.6
	c-0.4,5.6,2.8,156.2,2.8,156.2s4.4,128.6,4.4,131s3.2,168.6,3.6,173c0.4,4.4,3.6,107.3,3.6,113.4c0,6,5.6,132.2,5.6,134.6
	s4,167,4.4,177c0.4,10,6,221.9,6.4,228.7c0.4,6.8,4,120.6,3.6,124.2c-0.4,3.6,1.6,80.9,1.6,82.1s0.4,38.9,0.4,38.9s-6.4,5.6-8,6.8
	c-1.6,1.2-6.8,2.4-10,4.8c-3.2,2.4-5.2,2.4-11.2,6s-6.4,4.8-14,5.6c-7.6,0.8-39.7,4.8-46.5,5.2c-6.8,0.4-23.2,1.6-23.2,1.6
	l-46.9-733.4c0,0-3.6-269.2-2.4-275.2c1.2-6-3.6-315.2-3.6-320s-19.2-309.2-22.4-317.2c-3.2-8-26.8-191.5-28.4-199.9
	c-1.6-8.4-25.6-121.4-26-131.4C2491,1842.5,2494.3,1820.1,2494.3,1820.1z"/>
<path id="flare-4" class="normal" d="M2354.9,1832.7c0,0,71.4-5.7,76.6-5.7c5.2,0,28.9-3.7,36.5-4.9s25.7-3.1,25.7-3.1s2.4,2,4,6.4
	s27.6,151,28.8,156.2s16.4,115.4,17.6,121.8s13.6,102.1,14,106.9c0.4,4.8,8,56.5,8.4,67.3c0.4,10.8,5.2,72.5,5.2,77.3s4,62.5,4,69.7
	c0,7.2,4.8,76.1,4.4,86.1s2,85.3,2.4,90.5s1.6,58.5,1.6,62.9c0,4.4,0.8,82.9,0.8,82.9s-0.8,137.4-0.4,139.8
	c0.4,2.4,0.8,72.1,0.8,75.7s0.8,34.8,2.4,49.3s4.8,116.2,6,125.4c1.2,9.2,4.4,94.5,5.6,100.9s5.6,107.8,5.6,115s4,71.3,5.2,78.9
	s7.2,98.1,8,104.5c0.8,6.4,6.8,107.3,7.2,113.8s5.2,93.7,5.2,102.9s2.4,83.3,2.4,83.3s-32,3.2-48.5,3.6
	c-16.4,0.4-136.2,11.6-160.6,11.2s-45.3,0-45.3,0s-38.9-1884.6-39.3-1894.2s-2-121.4-2-121.4L2354.9,1832.7z"/>
<path id="flare-3" class="normal" d="M1771.4,1822.2c0,0-2.2,66.7-2.4,68.3c-0.2,1.6-4,97.1-4.2,100.9s-3.8,89.7-3.8,92
	c0,2.2-1.2,57.5-1.2,58.5s-1.6,91.7-1.6,96.3c0,4.6-1.4,79.7-1.6,81.6c-0.2,1.8-0.4,27.4-0.4,31.2c0,3.8-0.2,39.3-0.2,43.7
	c0,4.4,0.4,132,0.6,134.4c0.2,2.4,0.2,84.1,0.2,85.7c0,1.6,0.8,78.9,0.4,82.7c-0.4,3.8,0.6,75.1,0.6,77.1s0.2,90.5,0.2,90.5
	s0.6,68.9,0.8,70.1c0.2,1.2,0.2,58.6,0.2,59.4c0,0.8,0,65.3,0,65.3s1,77.1,1,79.5s0.2,26.3,0.2,29.2s1.8,55.7,1.8,56.7
	s2,99.5,2,101.3s4,162.5,4,165s0.6,80.8,0.6,82.5s-1.2,70.1-1.2,72.7s-2.2,89.9-2.2,90.5s-0.3,93-0.1,99.7
	c0.2,6.6,3.4,15.7,3.4,15.7s65.4,0.6,72.6,1c7.2,0.4,125.1,2,129.2,1.8c0,0,109.4-0.4,109.9-0.4c0.6,0,126.9,2.2,130.3,2.2
	l182.2,1.8c0,0-2.8-54.2-2.8-55.4c0-1.3,1-43.3,1-43.3s0.8-58.5,0.8-59.4c0-1-0.2-84.1-0.2-88c0-3.8,1.2-56.2,1.2-59.9
	c0-3.7,0-58.3-0.4-62.6c-0.4-4.3,0.4-73.1,0.2-74.9c-0.2-1.8,0-83.5,0.2-87.2c0.2-3.7-1-83.5-0.6-88.8s0.2-74.1,0.2-77.7
	c0-3.6-1-55.3-1.4-58.3s-1.2-42.1-1.2-45.7c0-3.6-0.8-40.9-1-45.3c-0.2-4.4-1.6-41.7-1.4-50.1c0.2-8.4-0.6-52.2-0.8-54.6
	c-0.2-2.4-1.4-77.5-1.4-80s-1.6-71.9-1.6-74.3s0-84.1-0.2-86.7c-0.2-2.6-0.4-58.5-0.4-61s-0.8-46.6-0.8-49.8
	c0-3.2-0.4-87.2-0.6-89.9c-0.2-2.7-1.2-64.7-1.4-68.9c-0.2-4.2-2.4-63.7-2.8-66.3c-0.4-2.6-4-59.3-4.2-62.1
	c-0.2-2.8-3.6-53.7-3.6-55.7c0-2-1.6-48.5-1.6-50.5s-2.6-57.5-2.6-59.4c0-1.9-2.6-63.4-2.6-63.4l-2.8-77.1l-4.5-130.3
	c0,0-84,2.2-96.1,3c-12,0.8-114.9-2.1-148.5-2.1s-71.1-2.3-74.7-2.3c0,0-163.4-7.5-179.5-7c-16,0.4-49.3-0.9-55.3-0.9
	S1771.4,1822.2,1771.4,1822.2z"/>
</svg>
