<?xml version="1.0" encoding="utf-8"?>
<!-- Generator: Adobe Illustrator 21.1.0, SVG Export Plug-In . SVG Version: 6.00 Build 0)  -->
<svg version="1.1" id="Layar-1" xmlns="http://www.w3.org/2000/svg" xmlns:xlink="http://www.w3.org/1999/xlink" x="0px" y="0px"
	 viewBox="0 0 4160 6240" style="enable-background:new 0 0 4160 6240;" xml:space="preserve">
<pattern id="normal" patternUnits="userSpaceOnUse" width="270" height="270" patternTransform="">
		<image image-rendering="optimizeQuality" preserveAspectRatio="xMidYMid meet" xlink:href="/images/simulator/default/default_tex.jpg" x="0" y="0" width="270" height="270" style="-ms-interpolation-mode: bicubic;" />
  </pattern>
  <pattern id="left" patternTransform="rotate(23)" patternUnits="userSpaceOnUse" width="270" height="270">
		<image image-rendering="optimizeQuality" preserveAspectRatio="xMidYMid meet" xlink:href="/images/simulator/default/default_tex.jpg" x="0" y="0" width="270" height="270" style="-ms-interpolation-mode: bicubic;" />
  </pattern>
  <pattern id="right" patternTransform="rotate(-23)" patternUnits="userSpaceOnUse" width="270" height="270">
		<image image-rendering="optimizeQuality" preserveAspectRatio="xMidYMid meet" xlink:href="/images/simulator/default/default_tex.jpg" x="0" y="0" width="270" height="270" style="-ms-interpolation-mode: bicubic;" />
  </pattern>
<style type="text/css">
	.normal{fill:url(#normal);}
	.left{fill:url(#left);}
	.right{fill:url(#right);}

</style>
<g id="skirt">
	<path class="normal" d="M1687.9,2990.9V2692h875.4l-0.7,278l8,60.7c0,0-17,24-24,37.7s-11.9,23-14.1,29.4s-6.2,11.7-6.1,15.9
		c0.1,4.1,0,9.6,0.9,11.3c0.9,1.6,0.1,1,0.1,1s-10.7,28.8-11.3,35.6s-2.7,23.7-4.4,29.6s-4,8.2-4.3,17c-0.3,8.9-1.5,20.9-4.3,30.1
		c-2.8,9.2-8.7,32-9,35.3s-3.3,8.6,3.6,10.7c6.8,2.1,24.3-1.9,29.5-6.4c5.2-4.4,15.9-15.4,20.9-32.9s6.2-21.9,7.4-27
		c1.2-5,10.4-38.8,11.7-50.1s4.4-20.3,4.4-20.3s4,29.2,3.7,32.5s-11,49.6-11.4,55.1s-1.6,16.4-10.2,35.4
		c-8.6,19-24.2,60.3-27.7,67.1c-3.6,6.8-13.6,21.2-17,24.9s-11.6,12.3-13.8,20.2s-3.9,22.5-0.4,26.4c3.4,3.9,16.3,9.2,19.3,8.9
		s6.8-1.2,10.8-6.2s6.2-19.4,16.9-21.8c10.7-2.4,21.8-3.4,25.3-6.1c3.6-2.7,5.9-6.5,9.9-6.7s7,0.7,7,4.3s-4.6,63.6-6.5,79
		s-8.7,92.2-8.7,92.2l-12.6,105.7l-16.9,141.5l-17,133.4c0,0-5.2,35.4-7.3,67.3c-2.1,31.9-3.3,51.6-4.7,54.7
		c-1.5,3.1-6.1,5.2-10.7,5.8s-17.6,0.3-26.2,3c-8.6,2.7-14.4,3.1-18.5,3.3s-30.2,2.1-48.3,1.8s-57.9-2.1-70.2-3.9
		c-12.3-1.8-28.5-2.2-28.5-2.2s-32.6-0.7-51.9-1s-80.2-1.6-91.6-1.8s-73.2-0.7-87.6-0.6s-27.7,1.2-42.2,1.3s-37.2,1-49.5,0.9
		s-26.2,0.9-44.6,1.3s-57.8,1.5-59,1.5s-34.2,2.7-49.5,1.2s-20.2-1.9-26.8-2.4s-17.6,0.4-17.6,0.4s-36.5-0.4-44.5-1.2
		c-8-0.7-19.1-2.7-24.6-3.7s-18.2-2.4-26.4-3.3c-8.2-0.9-23.6-1-28.3-1.6s-7.4-1.2-7.7-1.9c-0.3-0.7,0-13.8,0-13.8
		s2.4-75.6,1.9-94.6s-3.1-77.2-3.9-88.5s-3-64-3.7-80.6s-4.4-102-4.9-118.4s-4-103.6-4.4-119s-4.7-71-5-77.8s-2.8-32.3-2.8-32.3
		s9.8,5.8,12.4,6.4c2.7,0.6,4.3-0.9,6.4-3.1c2.1-2.2,3.1-5,3.1-5s22.4,3.9,31.7,5.6s17.3,2.2,21.5,4.3c4.1,2.1,18.1,11.6,21.3,13.6
		c3.3,2.1,7.9,3.1,10.7,2.8s7.1-5.9,7.1-7.7s0.1-10.2-0.6-12.3s-0.7-2.7,0-4.6c0.7-1.9,2.5-9.9,0-15.6s-12.2-28.8-28.3-45.9l-7.9-12
		c0,0-2.4-14.8-5-20.7s-10.4-26.4-12.7-33s-7.6-21.9-7.9-25.9s-1.3-9.8-3-15.7c-1.6-5.9-11.4-43-12.7-46.8c-1.3-3.9-2.1-5.6-2.1-7.1
		s0.3-5,0.9-5.9s3.7-5.2,3.9-8.7c0.1-3.6,0.3-20.7,0.3-20.7s3.1,17.6,3.7,19.4c0.6,1.8,5.8,30.1,7.3,35.7c1.5,5.6-0.9,6.5,2.1,10.2
		s4.4,5.2,4.4,5.2s0.6,15.1,0.7,17.3s4.4,19.7,10.8,27.6s15.9,11.6,20.2,13.3c4.3,1.8,16.2,2.8,20,2.1s8.4-2.1,7.1-10.2
		c-1.3-8.2-6.4-26.8-6.7-34.7c-0.3-7.9-3-34.4-6.5-48s-9-43.3-9.3-48.6s-5.3-25.9-7-29.6c-1.6-3.7-15.7-37.5-23.1-49.1
		s-16.9-27.3-17.5-27.9c-0.6-0.6,1.6-60,1.6-60L1687.9,2990.9z"/>
</g>
<g id="body-left_1_">
	<path class="normal" d="M2563.3,2696c0.7-6-26-60.7-26-60.7s-15.3-52.7-16-59.3c-0.7-6.7-0.7-10-0.7-10l3,2.4c0,0,13.9,18.8,10.1,2.4
		c-3.8-16.5-10.8-42.3-13.4-48.2c-2.6-5.9-15.5-33.2-19.5-53.4s-8-38.8-8-38.8s-11.8-40.4-11.5-68.9c0.2-28.5,6.6-71.7,13.4-95.9
		c6.8-24.2,19.3-49.6,23.3-54.3s49.1-109,49.1-109l58-628.1c0,0-5.7-1.1-12.9-3.3s-64.3-21.5-74.7-24.5
		c-10.4-2.9-64.9-18.3-78.7-21.5c-13.7-3.3-43.7-12.7-46.7-13.4c-2.9-0.7-6.1-2.7-6.1-2.7s-208,322-231.3,362s-76.7,182.7-80,193.3
		c-3.3,10.7-7,55.3-7,55.3l-6.4,272.7c8.8,5,13.4,14.3,14,23.2c0.8,12-2.8,19.5-2.8,19.5s-5.2,8.9-12.5,13.6l-10.6,455
		c0,0,1.3,67.3,32.7,122.7c0,0,34.7,60,94.7,70.7c0,0,62,22,136.7,16s94-10,94-10s107.3-21.3,114.7-23.3s20.7-9.3,20.7-9.3l22.7-10
		C2585.3,2960,2562.7,2702,2563.3,2696z"/>
</g>
<path id="body-right" class="normal" d="M2113.6,2303c-1.3-41.7-9.2-120.1-11-136.6S2082,2032,2082,2032l-252.6-621.2
	c0,0-12.3,5.2-17,6.6c-4.7,1.3-31.2,7.6-41.2,11.5s-47.5,18.4-55.8,21c-8.4,2.6-43.3,13.6-49,16.5c-5.8,2.9-45.9,20.5-46.7,21
	s-4.9,1.3-4.9,1.3s-16.8,26.5-17.3,118.8c-0.5,92.3,24.5,493.8,47.5,535c22.9,41.2,59.9,79.5,59.9,79.5s6.9,14.3,9.5,25.8
	s8.9,47.5,13,72c4.2,24.5,11,63.1,11,67.3s0.2,22.7-2.2,31.9c-2.4,9.2-0.5,7.1-0.5,7.1s-2.4,4.7-2.4,7.1c0,2.4-1,10,0.3,11.8
	c0,0-5.5,11.3-6.6,13.9c-1,2.6-3.9,15.5-7.3,23.9s-20.7,48.8-23.1,51.9c-2.4,3.1-3.7,22.8-0.3,27.3c3.4,4.5,12.6,16,13.1,21
	s-0.5,10.2-0.8,13.1c-0.3,2.9-4.2,21.5-5.5,25.4s-6.6,19.7-6.6,19.7l-30.4,66.6v275.8c0,0,27.3,7.6,36.2,10.2
	c8.9,2.6,23.9,6.3,32,8.1s63.7,10.2,73.2,11.8c9.4,1.6,9.4,1.6,9.4,1.6s10,1,13.4,1.3s18.1-3.9,23.1-4.5s45.9-5.8,70.5-13.4
	c24.6-7.6,49.3-19.4,66.3-35.4s36.4-40.1,43.8-54.3s18.4-38.5,26-67.4c7.6-28.8,18.4-70.5,22.3-98.8s13.4-100.4,16.3-137.1
	c2.9-36.7,8.1-118.8,10.2-162.8C2110.7,2398.7,2114.9,2344.7,2113.6,2303z M2092.8,2335c0,0-10.2,17.8-22.5,16.2s-22.2-12-22.8-17.2
	s-1.2-8.5-1.2-8.5v-15.7c0,0,9-23.2,24.8-21s23.8,14.8,24.5,26.8S2092.8,2335,2092.8,2335z"/>
<g id="arm-right">
	<path class="normal" d="M1614.8,1488.7c0,0-15.5,11-33,43.4s-30.4,61.5-35.6,77s-32.4,104.9-38.2,135.3c-5.8,30.4-15.5,83.5-16.8,95.8
		s-14.9,111.3-16.8,162.5c-1.9,51.2-4.5,167.6-5.2,218.8c-0.6,51.1-3.2,250.5-3.9,269.9c-0.6,19.4-7.8,146.9-8.4,178.6
		c-0.6,31.7-3.2,131.4-3.9,167.6c-0.6,36.2-3.9,137.9-3.9,137.9s-27.8,11.7-47.2,21.4s-37.5,21.4-37.5,21.4s-1.9,3.9,2.6,5.8
		s23.9,5.8,36.2,9.1c12.3,3.2,42.7,15.5,46.6,18.1s7.8,6.5,9.7,5.8s18.8-16.2,29.8-18.8s38.2-16.2,75.7-16.8s70.6,3.2,74.4,4.5
		c3.9,1.3,15.5,3.9,24.6,12.3s12.3,12.9,15.5,13.6c3.2,0.6,5.8,0,5.8-2.6s0.6-47.9,2.6-58.3c1.9-10.4,2.6-13.6,2.6-13.6
		s-0.6-6.4-5.1-7.7c0,0,2.5-25.9,3.2-42.8s1.3-77.7,2.6-96.4c1.3-18.8,3.2-47.2,2.6-61.5s0.6-39.5,1.9-46.6s3.9-36.2,3.9-70.6
		s-3.9-143-5.2-163.1c-1.3-20.1-5.8-139.8-1.3-183.2s11.7-83.5,11.7-83.5s-3.2-28.5-15.5-77.7s-22.7-86.7-25.9-101.6
		c-3.2-14.9-9.1-65.4-11-79.6s-9.1-58.3-11-66.7c-1.9-8.4-4.5-21.4-5.8-39.5s-5.2-63.4-5.8-75.7c-0.6-12.3-2.6-37.5-7.1-52.4
		s-8.4-79.6-9.1-105.5C1612.8,1597.4,1610.2,1507.4,1614.8,1488.7z"/>
</g>
<g id="collar-right">
	<path class="right" d="M1980.5,1238.5c0,0-16.5,7.8-20.2,9.2s-22,11.8-24,15s-3.8,5.2-7,8.8s-15.2,15.5-20.2,21.8s-33.8,37.5-45.8,44
		s-20.5,9-20.5,9s-13.5,4.2-19,4.2s-10.5,3.2-11,5.2s-2,7.5,1.2,12.8s4,3.2,7,13.5s5.8,23.5,7.8,29.5s7.5,18,9.2,29.5
		s3.2,27.5,5,37.8s12.8,74,20,97.2s22.8,67.2,22.8,67.2s22.8,62.8,43,102s44.8,84,63,114.8s28,50,31,56s26.2,54,36.5,81.2
		s32.2,73.5,40.5,150.2c0,0-2.2-61-4.8-82.5s-15.2-89-19-103.2s-28.8-111.8-30.5-119.5s-9.8-40.2-11.2-50.8s-2.5-27.8-5.8-38
		s-16.8-39.5-22-55.8s-37-102.2-37-102.2s-18.8-52.8-20-58.5s-9.8-33.5-13.5-40s-11.8-23-11.8-23s-1-17,0-20.8s3.8-11.8,5.5-14.5
		s2.5-9.5,1.2-11.8s-5-10.5-4.5-16s0.2-24.5,6-26.8s22-11.8,28.8-20.8s8-11.8,13.2-31.2s5.2-24.8,5.5-28.2
		S1980.5,1238.5,1980.5,1238.5z"/>
</g>
<g id="collar-left">
	<path class="left" d="M2241,1245c0,0,37.7,15.7,44.7,23s21,28.7,26,35.3c5,6.7,18.7,25.3,27.3,37c8.7,11.7,22.3,30.7,25.7,33.3
		c3.3,2.7,20.3,17,30.3,25.7s14.3,13.7,26,21s19.7,9.3,20.3,14.3c0.7,5-2,10.3-4,13.3s-32.7,50.3-38.7,58s-15.7,17.3-23,29.7
		c-7.3,12.3-17.7,25.7-19.3,29c-1.7,3.3-11,15.3-20.3,27.3s-42.3,53.3-76,101.3s-53.3,76-57.7,82.3c-4.3,6.3-36,50-51.7,80.7
		s-31,63-40.7,93s-22.3,70-22.3,70s-5.3-34-8-44.7c0,0,7.7-53.7,8.3-61c0.7-7.3,1-19,2.7-24s25-66,33.3-88.7s51.3-131,60-150.7
		s56-130,65.7-145.7s19.3-50,21-56.7s7-30.7,7.3-35.7s1.3-12,2.3-14.3s7.7-7,7-13.7s-2.3-7-5.3-10.3s-19-15.3-24-29s-6.3-25-9-42.7
		C2246.3,1284.7,2241,1245,2241,1245z"/>
</g>
<g id="arm-left">
	<path class="normal" d="M2626,1473.7c0,0,12.7,2.3,17,3.7c4.3,1.3,7.7,3.7,10.7,12s30,93.7,34,102s11.7,35.3,17.3,53.3
		s24.3,94,26,104.3s9.7,64.3,16.7,129s11,76.7,13.7,159s5,172,5,172s2.7,88.3,2.7,112s1.7,102.3,2.3,116.3c0.7,14,2.7,110,2.7,117.7
		s1.7,110.3,1.7,126s3,133.7,4,158s5.3,127.3,9.7,143c0,0,0.3,2.7,5.3,4.7s55,14,63.3,16.7s39.7,11.7,38.3,14.3
		c-1.3,2.7-5,3.3-5,3.3s-59,7.7-66.3,10s-56.7,11.3-75.3,19c-18.7,7.7-26.7,4-26.7,4s-18-8-26-10s-50.7-10.7-60.3-10.3
		c-9.7,0.3-32.7,1-36.3,1.3c-3.7,0.3-9.3-7.7-16-7.7s-12,1.7-13.7,3.3c-1.7,1.7-9.3,1.3-9.3-7s4-17,3.7-26s-2-35.7-4-42.3
		c-2-6.7-4-14.7-4.3-18.3c-0.3-3.7,2-7,5-8.7s10.7-5.3,10.7-5.3s-8.7-54-9.7-71.3s-2.3-81.3-4.7-99.3s-11-80.3-15.3-94s-5-22-5-22
		s3-70,1.3-86.7s-4.7-91-6-111.7s-8-147-10-175s-3.3-49-3.3-49l-1.7-3.3c0,0,0.3-20,1.3-26.7s4.7-32.3,5-37.3s4-19.3,6-26.3
		s12.3-49.7,14-64.7s4.7-60.3,4.7-60.3s4.7-44,6.3-52.3c1.7-8.3,5.3-23.3,7.3-30.3s3.3-7.3,3-19.7c-0.3-12.3,1-29.3,3-36
		s8-29,8.7-41s4.3-84.3,5.7-108.7c1.3-24.3,5.3-89,8.3-115.3s14.3-79.3,16-87.7c1.7-8.3,5.3-17.3,7-19.7
		C2616,1482.3,2626,1473.7,2626,1473.7z"/>
</g>
</svg>
