<?xml version="1.0" encoding="utf-8"?>
<!-- Generator: Adobe Illustrator 21.1.0, SVG Export Plug-In . SVG Version: 6.00 Build 0)  -->
<svg version="1.1" id="Layar1" xmlns="http://www.w3.org/2000/svg" xmlns:xlink="http://www.w3.org/1999/xlink" x="0px" y="0px"
	 viewBox="0 0 4160 6240" style="enable-background:new 0 0 4160 6240;" xml:space="preserve">
<style type="text/css">
	.st0{fill:#9B9D9E;}
	.st1{fill:#A0A0A0;}
	.st2{fill:#BAB1B1;}
	.st3{fill:#666060;}
	.st4{fill:#A8A1A1;}
	.st5{fill:#B29D9D;}
</style>
<path id="pants" class="st0" d="M1646,2665l3,65c0,0,16,2.5,18.5,3.5s8.5,2,9,3.5s13,26,14,27.5s4.5,12.5,4.5,14.5s-0.5,2-0.5,4
	s2.5,177.5,2.5,177.5l-2.5,3.5c0,0-18-2.5-22.5-7.5c0,0,7.5,23.5,8,26.5s3,13,3.5,15s0,6,0,6l1.5,3.5l16.5,30c0,0,11,18.5,11.5,21
	s0.5,14,0.5,14l-0.5,9l-3.5,6c0,0-3.5,3-4.5,4.5s-3,3-4.5,5s-3,3.5-5,3s-8-1.5-11-3s-10-6-13-7.5s-13-7-13-7l7.5,98l30.5,295.5
	l17,147l26.5,238.5l18,151.5c0,0,24.5,232.5,23,278.5l7,195l3,295.5l0.5,67.5c0,0,5.5,27.5,10,35s9.5,19,29,24s62,16,62,16l10.5,0.5
	c0,0,33.5-11,39.5-11.5s35.5-14.5,41-14.5s15.5-2,19-3.5s6-6,12.5-8s21-11,21-11l1.5-109.5l1-191l2.5-172l3-196.5c0,0-0.5-64,0-76
	s1.5-25,2-28.5s1-5,1-11.5s1.5-96.5,1.5-96.5l2-163l1-114.5L2050,3525c0,0-1-149-0.5-150.5s4.5-67.5,4.5-67.5l20-191
	c0,0,6.5-72.5,24.5-129c0,0,2,3.5,2,5s19,116.5,18.5,118s4.5,95,5.5,112s7.5,154.5,8,165.5s1.5,246,1.5,248.5s7.5,167,7.5,167
	l7.5,157c0,0,6,148,6,152s-4,216.5-4,223.5s-5,161.5-5,161.5s-13,190-14.5,200.5s-10.5,185-10.5,185s6,6,9,7.5s126,54.5,126,54.5
	s4.5-0.5,8.5-2s54.5-20,54.5-20s25.5-6,26-36.5s10-192.5,10-192.5l9-160.5c0,0,19-176,22.5-194.5s15.5-133,15.5-133s18-143,19.5-174
	s14-141,14-141s25.5-248.5,26-256s14.5-137,14.5-137l29.5-258l26-174.5c0,0-1-1-3.5,0s-8,7-9,9.5s-5.5,8.5-5.5,8.5s-6.5,2.5-10,2
	s-10-0.5-12.5-5s-6-12.5-5.5-16.5s22-52.5,23-55.5s8-17,8-17s1.5-6,2-8s23-67,23-67s1.5-4,1.5-5.5s2-18.5,3-20.5s13-49,13-49l-5.5-4
	c0,0-7.5,28-10,35.5s-3.5,12-7,13s-3.5,1-3.5,1s4,6,3.5,12.5s-2.5,18-5,22.5s-21.5,32.5-48.5,26l-3.5-2l8.5-29.5l1-17.5
	c0,0,6-27,5.5-30.5s-2-3.5-1-6.5s5.5-25.5,8.5-36.5s8-37,7-40.5s-3-4-1.5-8s3.5-9.5,3.5-9.5l10.5-6.5l-1-67.5l-55.5-355h-772
	L1646,2665z"/>
<path id="body-left" class="st1" d="M2319.5,1022.5l86.5,25.5l176.5,53.5l1.5,6.5l-2.5,35.5c0,0,3.5,262-1.5,281.5
	s-14.5,141.5-23,155s-53.5,140.5-56.5,147.5s-20,44-20,44s-23,42-25.5,50s-6,17-6,21s-9,90-7.5,115.5c0,0,5,98,13,119
	c0,0,11,34.5,13,38.5s5,11,6,15s2,7.5,2.5,13.5s-0.5,4,1.5,9.5s2,6,5,12.5s4.5,9,8,13.5s9,11.5,9,11.5s15,60.5,12.5,73.5
	s2,160.5,2.5,175.5s9,81.5,8,97s1.5,104.5-0.5,114.5s-15,10.5-15,10.5s-57.5,7.5-60.5,8s-118.5,11.5-130.5,11.5s-47,1.5-60.5-0.5
	s-59.5-6-88-38.5c0,0-62.5-67-73.5-104s-34.5-94-34.5-94s16.1-85.4,20.6-109.4s31.5-180,30-210s-1.5-178.5-1.5-178.5
	s-4.5-142.5-6-168s-24-127.5-24-127.5v-40.5l40.5-69c0,0,57-193.5,70.5-249s63-294,63-294L2319.5,1022.5z"/>
<path id="body-right" class="st2" d="M2125,1863c-4-28-8-105-13-120s-78-277-81-311s-94-379-96-395s-21-46-21-46s-64,29-70,31
	s-24,7.5-24,7.5c-3.5,0-234.5,77-234.5,77l-7,3.5l-3,21.5l4,139c0,0-2,156-2.5,167.5s-1.5,44.5,2,52.5s48,107,53,116
	s55.5,124,55.5,124l10,34.5l17,79.5c0,0,9,41,9,49.5s3,48,2,54s-5,103.5-7,115s-4.5,45.5-9.5,53.5s-11.5,59.5-33,90.5
	c0,0-7,27.5-9.5,35.5s-4.5,13.5-4,16s5.5,0.5,5.5,0.5l8.5-2l2-2l2.5,1c0,0-8,47.5-9,50s-3.5,7.5-5.5,10.5s-8,16-8,16l-4.5,129
	l3,93.5c0,0,12.5,103,12.5,105s8,6.5,8,6.5s168,9,172.5,9.5s38,5,45.5,1.5s38-16.5,53-30c0,0,28-23,36.5-32s36-49,39.5-57.5
	s43.5-108,45.5-114s33-131,41-169s10-92,14-116s5-82,6-89S2129,1891,2125,1863z M2068.4,1726.7c15.9,0,28.8,13.9,28.8,31
	c0,17.1-12.9,31-28.8,31c-10.6,0-19.9-6.2-24.9-15.4c-4.6-11.2-3.8-20.3-2.1-26.4C2045.5,1735.1,2056,1726.7,2068.4,1726.7z
	 M2072.1,2117.2c-12.1,0-22.6-7-27.6-17.1c-3.7-9-3.1-17.1-1.6-23.1c4-12.3,15.6-21.2,29.2-21.2c17,0,30.7,13.8,30.7,30.7
	S2089.1,2117.2,2072.1,2117.2z"/>
<path id="collar-left" class="st1" d="M2214.8,912c0,0,2,15.2,2.2,25.8s2.5,13.5,2.8,20.5s-2.5,32.5-4,36.5s-9.8,40.2-9.8,40.2
	l76.5,64.2l78-9.2l11.8-10.8L2330,1028c0,0-50.8-51-53.8-53.5s-54.2-55.5-56.5-58S2214.8,912,2214.8,912z"/>
<path id="arm-right_1_" class="st3" d="M2581.3,1103.7c8-0.7,15,1.7,16.7,2s6,4.3,6,4.3s5.3,15.7,8.7,25.3c3.3,9.7,25,78.3,25,78.3
	s52.7,166.3,54,172.3s11.3,54.7,12,61.3c0.7,6.7,26.7,183.3,26,222s10,154.7,10.7,161.3c0.7,6.7,22,350.7,22.7,359.3
	s11.3,306.7,11.3,306.7s6.7,224.7,7.3,236c0.7,11.3,0,35.3,0,35.3s-28.7,7.3-30.7,7.3s-18.7,6.7-18.7,6.7l-7.3-30.7
	c0,0-105.3-9.3-113.3-9.3s-32-2-34.7-1.3s-38.7,9.3-43.3,11.3c-4.7,2-25.3,13.3-25.3,13.3s3.3-12.7,3.3-18.7s-4.7-62-6-68
	s-2.7-16-2.7-16h4c0,0-0.7-102.7-1.3-116c-0.7-13.3-2-58.7-1.3-67.3c0.7-8.7,1.3-20,1.3-20s-0.2,0.2-1.2-7.3s-9.5-46-9-85
	c0,0,1-119-0.5-132.5s-3.5-49.5-3.5-49.5l1.5-146l-10-247c0,0-1.5-14.5,1-28s6.5-54.8,6.5-54.8l6.2-42c0,0,8.9-41.9,19.6-79.9
	c0,0,20.7-64.7,24-74s6.7-20.7,8.7-33.3s10.7-73.3,12-88.7c1.3-15.3,4.7-144,4.7-146s4.7-112.7,5.3-115.3
	S2581.3,1103.7,2581.3,1103.7z"/>
<path id="lapel-right" class="st4" d="M1783.5,1072.2c-0.7-0.4-38-4-39.5-4s-7-0.2-8.8,1.5s-7.2,6.5-5.8,12.8s21,54.2,21,54.2
	s38,88.8,39.5,91.5s70.5,127.8,70.5,129.2S2005,1566,2005,1566s80.5,119.5,82.5,124s15.5,53.5,17,55.5s10.5,38,10.5,38l-20-127.5
	c0,0-37.5-164.5-39-172s-8.5-41.5-8.5-47.5s-0.5-16-1-21.5s-1-11-6-19.5s-24-73.5-26-84.5s-31-125-31-125l-30.2-164.7l-1.8-9.8
	L1878,1083l5,2.1c0,0-16-0.6-20.5-1.1S1790.5,1076.5,1783.5,1072.2z"/>
<path id="collar-right" class="st5" d="M1948.3,901.3c0,0-12,8-16.3,12s-40.3,43.3-43,47.7s-18.7,23.7-21.3,28.3
	c-2.7,4.7-11.7,17-15.3,20.3c-3.7,3.3-10.3,10.3-16.7,12.7c-6.3,2.3-29.7,18.3-33.7,23.7s-14.7,20.7-15,23.3
	c-0.3,2.7-0.3,4.3-0.3,4.3l4.7,0.3c0,0,26.7-8,49-2.7c0,0,34,6.5,42.7,13.8l67-61.5l3.3-2.3c0,0-4.7-26.3-6-29s-4.3-10-5-14.7
	s5-61,5.3-65.7C1948,907.3,1948.3,901.3,1948.3,901.3L1948.3,901.3"/>
<path id="lapel-left" class="st1" d="M2207.7,1030.3c0,0,0.2,0.1,0.5,0.3c6.6,4.9,80.5,58.9,82.7,60.3c2.3,1.5,3.8,1.8,6.8,1.7
	c3-0.2,51.3-8.3,51.3-8.3l65-12.7c0,0,18-3.3,23.3-1.3c0,0,13.3,3.3,7.3,22l-37.3,94l-34.7,82.7l-51.7,105c0,0-38.3,62.3-39.7,65
	c-1.3,2.7-50,75.7-54,80.3c-4,4.7-51,67.3-67.3,84.7l-64.3,70.3l-25.3-66l10.7-15c0,0,6-9.7,6.7-12.7s0.7-7.7,2-10s15-42,17-46.3
	s7.7-34.3,13.7-53s10-53.3,10-56s0.7-6.3,1.7-9s4.7-9.7,6.7-15.3s19.7-96.7,22-103.3c2.3-6.7,22.3-114.7,24.3-124.7
	s18.3-117,18.3-117l3.3-17.3"/>
<path id="arm-right" class="st5" d="M1578.5,1110c-1,1-10.5,0-12.5,0.5s-2-0.5-5,4s-37.5,92-39.5,97s-52,183.5-53.5,189
	s-11.5,93.5-13,103s-11.5,173.5-12.5,182.5s-6.5,184-6.5,184s-6.5,230.5-6.5,233s-1,113.5-1,113.5l-2.5,230l-2,169.5
	c0,0-0.5,127.5-1,131s-1,7.5-0.5,9s7,13.5,16.5,20s25.5,11.5,25.5,11.5s2.5,1,2.5-0.5s4-44.5,4-44.5l1.5-5l56-6c0,0,94-9,120.5-1.5
	l30,11l-3.5-80.5L1670,2503l-3-134l-2-69.5c0,0-2-41,0-50s9.5-34,9.5-34l0.5-25l1-137l3-120c0,0,7.5-109,8.5-113.5s5-30.5,5.5-32.5
	s2-10,2-10l3.5-1c0,0-9-64.5-9.5-66s-5.5-24.5-5.5-27s-0.5-16-4.5-24.5s-2.5-5-11.5-18s-38-73.5-38-73.5s-25.5-47.5-26-51
	s-1-2.5-3.5-9s-5.5-13-6-17.5s-1-19.5-1-22.5s-1.5-72-1.5-72s-2.5-102-2.5-109s-3-52.5-3-52.5s-3-72.5-3-80s1-15.5,0-24.5
	S1578.5,1110,1578.5,1110z"/>
</svg>
