<?xml version="1.0" encoding="utf-8"?>
<!-- Generator: Adobe Illustrator 21.1.0, SVG Export Plug-In . SVG Version: 6.00 Build 0)  -->
<svg version="1.1" id="Layer-1" xmlns="http://www.w3.org/2000/svg" xmlns:xlink="http://www.w3.org/1999/xlink" x="0px" y="0px"
	 viewBox="0 0 4160 6240" style="enable-background:new 0 0 4160 6240;" xml:space="preserve">
<pattern id="normal" patternUnits="userSpaceOnUse" width="270" height="270" patternTransform="">
		<image image-rendering="optimizeQuality" preserveAspectRatio="xMidYMid meet" xlink:href="/images/simulator/default/default_tex.jpg" x="0" y="0" width="270" height="270" style="-ms-interpolation-mode: bicubic;" />
  </pattern>
  <pattern id="left" patternTransform="rotate(23)" patternUnits="userSpaceOnUse" width="270" height="270">
		<image image-rendering="optimizeQuality" preserveAspectRatio="xMidYMid meet" xlink:href="/images/simulator/default/default_tex.jpg" x="0" y="0" width="270" height="270" style="-ms-interpolation-mode: bicubic;" />
  </pattern>
  <pattern id="right" patternTransform="rotate(-23)" patternUnits="userSpaceOnUse" width="270" height="270">
		<image image-rendering="optimizeQuality" preserveAspectRatio="xMidYMid meet" xlink:href="/images/simulator/default/default_tex.jpg" x="0" y="0" width="270" height="270" style="-ms-interpolation-mode: bicubic;" />
  </pattern>
<style type="text/css">
	.normal{fill:url(#normal);}
	.left{fill:url(#left);}
	.right{fill:url(#right);}

</style>
<g id="leg-right">
	<path class="normal" d="M1481.2,1765.1c0,0-4.3,4.8-5.5,7.6c-1.2,2.8-3.2,4-6,17.9c-2.8,13.9-11.5,56.1-14.7,68
		c-3.2,11.9-11.5,38.2-14.7,42.2c-3.2,4-24.6,41.3-24.6,41.3s-4,6-6.7,17.5c-2.8,11.5-17.5,75.2-21.9,118.1
		c-4.3,42.9-14.7,138.7-15.1,151.5c-0.4,12.7-1.2,35.8-1.6,45.8s0.8,33.4,4.8,59.6c4,26.2,43.7,303.3,43.7,303.3
		s36.2,241.7,42.2,287.4c6,45.7,12.4,87.1,15.5,100.5c3.2,13.5,6,35,6.7,46.1c0.8,11.2,20.3,236.1,20.3,236.1l22.7,285.9
		c0,0,19.9,263.5,21,283.5c1.2,19.9,21,243.3,26.2,290.6s17.1,211.1,19.9,261.2c2.8,50.1,17.1,345.1,17.1,345.1l13.5,268.7
		c0,0,7.6,222.6,7.6,265.6s-0.8,105.7-0.8,105.7l-3.6,7.9c0,0-2,1.6,1.6,7.6c3.6,6,15.1,22.7,15.5,24.3s3.2,4.3,6,4.8
		c2.8,0.4,62,6,76.3,9.1c14.3,3.2,27.4,10.9,29.1,12.4c1.6,1.6,0.1,1.5,6.5,3.5c6.4,2,30.2,2,32.1,1.7c2-0.4,54.1-18.9,64.8-22.1
		c10.7-3.2,20.8-5.3,25.9-6.8c5.2-1.6,23.9-10.4,31.4-12c7.6-1.6,11.5-2.3,15.5-4.7s9.3-7.2,17.2-11.6c8.9-5,16.8-10.7,18.7-13
		c0,0-3.8-117.4-4.6-162.3c-0.8-44.9,0.8-187.6,1.6-233c0.8-45.3,3.6-118.4,2.8-139.6c0,0,2-52.5,3.6-73.1c1.6-20.7,6-126,7.6-173.7
		s7.2-158.2,7.2-203.1s0-114.5,5.2-161.8c5.2-47.3,10.3-85.5,11.9-112.9c1.6-27.4,5.2-78.7,10-169c0,0,8.8-130.4,10.7-180.1
		c2-49.7,6.4-187.3,6.7-244.9c0.3-57.6,1.6-186.1,2.4-231c0.8-44.9,4.8-248,6.4-287.8c1.6-39.8,6-183.3,9.1-225
		c3.2-41.8,12.7-176.1,15.9-216.3c3.2-40.1,9.1-104.5,9.1-104.5s4-10.7,6.7-10.7c0,0,9.5-14.5,9.2-29.2
		c-0.3-14.7-1.1-116.4,0.4-137.4c1.6-21,7.2-96.8,6.8-99.9c-0.4-3.2-1.8-47.4-5.8-70.8c-4-23.4-4.2-92.2-4.2-92.2v-174.7V1781v-18.7
		h-344.3h-258L1481.2,1765.1z"/>
</g>
<g id="leg-left">
	<path class="normal" d="M2079.9,2486.6c0,0,1.9-15.3,2.3-39.6s2-102.2,2.7-103.9c0.8-1.6-5.4-52.6-3-76c2.4-23.4,5.2-41.8,3.2-67.1
		c-2-25.5-9.1-75.5-8.4-134.4c0,0,1.2-137.5,0.8-147.1c-0.4-9.5,0.4-33.4,1.6-71.9s1.6-77.1,1.6-77.1l604.6-18.7
		c0,0,0.4,13.1,2,19.9c1.6,6.7,13.9,53.7,19.9,68.8s27.4,120.1,34.2,153.9s32.6,162.6,38.9,224.2c6.4,61.6,11.9,83.5-0.4,224.2
		c-12.4,140.7-14.3,171.8-30.6,259.6c-16.3,87.8-33.8,188.8-33.8,188.8s-37.4,199.6-39.8,232.2s-10,126.4-11.2,155.1
		c-1.2,28.6-14.3,157.8-16.7,186.1c-2.4,28.2-26.2,270.4-26.2,270.4l-20.7,250.4l-26.2,314.8l-15.5,197.2c0,0-16.3,234.9-18.7,281.9
		c-2.4,46.9-20.3,358.5-20.3,358.5s-11.9,234.6-11.5,275.1v2c0,0-6.7,17.5-7.9,20.7c-1.2,3.2-11.9,16.3-14.7,17.5
		s-58.5,22.3-71.1,30.3c0,0-5.4,6-18.7,2.3c-14-3.7-31.1-8.7-31.1-8.7s-109.6-29.7-111.2-29.7c-1.6,0-42.2-14-42.2-14
		s-6.7-2.8-6.7-4.3c0-1.5-17.1-2.8-20.7-3.6s-15.9-0.4-16.3-9.1c-0.4-8.8,6.8-208,6.8-208s7.6-239.7,8.8-269.9s6-264,7.6-302.1
		c1.6-38.2,2.8-141.1-0.8-212.7l-9.1-273.9l-8.3-204.7c0,0-11.9-283.5-11.9-292.2c0-8.8-5.2-241.3-5.2-241.3s-6-256-9.1-308.1
		s-14.3-273.5-14.3-273.5s-4-115.3-7.6-135.6c-3.6-20.3-20.7-127.6-20.7-127.6S2096.2,2495.7,2079.9,2486.6z"/>
</g>
<g id="belt">
	<path class="normal" d="M1810.5,1777.6l-119.3,1.6c0,0-46.7,1-51.9,0.6c-5.4-0.6-63.1-2.6-66.2-2.1c-3.2,0.6-61-0.6-61-0.6
		s-17,0.6-22.2-3.7c-3-2.4-6.5-4.8-8.7-8.6c-1.8-3-2.6-6.7-2-12.1c1.6-12.2,11.7-50.4,13.7-57.8c2.1-7.4,7.9-20.7,7.9-22.8
		c0,0,4.2-31.5,5.4-36.3c1.2-4.8,6.4-27,7.2-28.6s2.8-3.6,7.2-3.2s19.1,3.2,40.1,4.3s121.7,4,140.3,3.2c18.7-0.8,90.7-6,108.6-6.4
		s153,0.4,169.7-0.4c16.7-0.8,110.5-1.2,110.5-1.2s28.6-1.6,44.9-1.2c16.3,0.4,36.2,0.4,50.5,0.8c14.3,0.4,64.8,0,74.3,1.2
		s29.8,3.6,36.6,4c6.7,0.4,44.1,2.4,81.5,2.8c37.4,0.4,65.6,2.4,95.8,2c30.2-0.4,79.9-1.6,101-2.4c21-0.8,50.5-4,55.3-4.8
		c4.8-0.8,10.7-1.2,11.9-1.6s2,2.8,4,5.2c2,2.4,13.9,23.4,23.9,62.5c10,39,16.3,73.1,15.9,78.7c0,0-6,13.9-13.1,17.5
		s-32.2,7.9-45.3,9.5c-13.1,1.6-75.2,4.3-89.5,4.8c-14.3,0.4-118.9,0.4-129.2-0.8c-10.3-1.2-94.2-1.2-139.6-1.6s-159,2-174.5,1.2
		c-15.5-0.8-15.9,0.8-15.9,0.8l-3.2-1.6l-77.5-1.6L1810.5,1777.6z"/>
</g>
<g id="belt-loop2">
	<path class="normal" d="M1731.3,1623.1c0,0,2.4-10.3,5.2-11.5s18.3-2,25.1-1.2c6.7,0.8,13.1,1.2,13.1,1.2s-1.2,3.6-1.6,11.9
		c-0.4,8.4-5.2,62.8-6,91.9c-0.8,29.1-0.8,127.6-0.8,131.6s-0.4,7.2-2,7.6c-1.6,0.4-31.8-1.2-31.8-1.2s-6.7,1.2-9.5-7.2
		s-0.4-70,0.4-99C1724.1,1718.1,1728.5,1637.9,1731.3,1623.1z"/>
</g>
<g id="belt-loop1">
	<path class="normal" d="M2426.9,1649.4c0,0-3.2,0-8.4-0.8c-5.2-0.8-6.4-1.2-10-1.2s-4.3-3.6-4.3-3.6s2.4-18.3,4-21.5
		c1.6-3.2,3.2-10.7,6-11.2c2.8-0.4,26.2,0,30.2,0.8c4,0.8,7.2,1.6,8.4,4.3c1.2,2.8,7.6,10.3,10,25.5c2.4,15.2,13.1,58.9,15.1,75.2
		c2,16.3,5.5,27.9,3.2,56.1c-2.4,28.2-9.1,70-10.3,74s-2,6-4,6.7c-2,0.8-19.9-0.8-24.3-1.6c-4.3-0.8-10-1.2-12.7-4
		c-2.8-2.8-9.5-9.5-10.3-13.9c-0.8-4.3-4.3-36.6-4.8-41.3s-0.8-7.2-0.8-8.4s2-3.6,2-3.6l31.4,1.6h3.2c0,0,2.8-31,1.2-38.6
		c-1.6-7.6-4.8-27.9-10-40.1c0,0-4.8-21.5-6.7-29.4C2433,1666.5,2426.9,1649.4,2426.9,1649.4z"/>
</g>
</svg>
