<?xml version="1.0" encoding="utf-8"?>
<!-- Generator: Adobe Illustrator 23.0.4, SVG Export Plug-In . SVG Version: 6.00 Build 0)  -->
<svg version="1.1" id="Layar1" xmlns="http://www.w3.org/2000/svg" xmlns:xlink="http://www.w3.org/1999/xlink" x="0px" y="0px"
	 viewBox="0 0 4160 6240" style="enable-background:new 0 0 4160 6240;" xml:space="preserve">
<pattern id="normal" patternUnits="userSpaceOnUse" width="270" height="270" patternTransform="">
		<image image-rendering="optimizeQuality" preserveAspectRatio="xMidYMid meet" xlink:href="/images/simulator/default/default_tex.jpg" x="0" y="0" width="270" height="270" style="-ms-interpolation-mode: bicubic;" />
  </pattern>
  <pattern id="left" patternTransform="rotate(23)" patternUnits="userSpaceOnUse" width="270" height="270">
		<image image-rendering="optimizeQuality" preserveAspectRatio="xMidYMid meet" xlink:href="/images/simulator/default/default_tex.jpg" x="0" y="0" width="270" height="270" style="-ms-interpolation-mode: bicubic;" />
  </pattern>
  <pattern id="right" patternTransform="rotate(-23)" patternUnits="userSpaceOnUse" width="270" height="270">
		<image image-rendering="optimizeQuality" preserveAspectRatio="xMidYMid meet" xlink:href="/images/simulator/default/default_tex.jpg" x="0" y="0" width="270" height="270" style="-ms-interpolation-mode: bicubic;" />
  </pattern>
<style type="text/css">
	.normal{fill:url(#normal);}
	.left{fill:url(#left);}
	.right{fill:url(#right);}

</style>
<path id="leg-left" class="normal" d="M2830.3,2640.4c0-4.6-14.7-154.2-15.1-157.2c-0.4-3.1-33.7-244.4-34.5-246.8
	c-0.8-2.3-18.6-123.2-19-126.3c-0.4-3.1-17.1-98-18.2-112.3c-1.1-14.4-14.4-88.7-15.5-94.5c-1.2-5.8-10.1-57.3-10.1-57.3
	s-84.8,27.3-121.9,47c-37.2,19.8-510.1,74.4-510.1,74.4s-2.3,81.3-4.6,98.7c-2.4,17.4,13.9,554.3,15.1,567.1
	c1.2,12.8-2.3,141.8-2.3,141.8l12.7,8.8c0,0,4.6,4.6,5.8,6.2c1.2,1.5,5.4,31,5.8,32.5c0.4,1.5,13.5,65.4,16.2,72
	s11.2,34.8,13.9,43.4c2.7,8.5,5.8,21.3,6.9,27.5c1.2,6.2,15.1,76.3,16.7,84.8s15.9,94.9,18.2,102.6c2.3,7.8,19,82.9,19.4,85.6
	c0.4,2.7,16.2,113.5,17.1,118.9c0.8,5.4,19.4,129.3,19.4,129.3c0.4,3.9,22.1,156.9,23.2,165.8c1.2,8.9,25.2,192.9,25.2,197.9
	c0,5.1,11.2,136.7,12,144.1c0.8,7.4,15.5,207.2,17.4,214.2c1.9,7,21.3,272.7,23.7,285.1c2.3,12.4,11.6,143.3,12,146
	c0.4,2.7,7.8,196,8.1,199.8c0.4,3.9,5.1,133.2,5.1,140.2c0,7,3.9,119.7,3.9,120.9c0,1.2,4.6,134,5.1,138.6
	c0.4,4.6,2.3,104.6,1.9,111.6c-0.4,6.9,15.1,143.3,15.1,146.8c0,3.6,17.8,114.6,17.8,114.6c0.4,1.5,8.5,31.8,10.5,38
	c1.9,6.2,2,10,2.4,14.3c0.4,4.2,1.8,15.4,2.5,18.5c0.8,3.1,15.7,15.7,20.4,16.9c4.6,1.2,22.3-0.2,30.9-0.5c8.5-0.4,11,1.5,11,1.5
	s11.8,1.2,28.4,1.9s25,5.4,25,5.4s2.3,0,6.6,0s22.2,4.2,24.2,5.1c1.9,0.8,31.6,3.5,37.4,3.9c5.8,0.4,33.7-2.5,33.7-2.5
	c15.1-1.5,31.8-8,34.1-8.8c2.3-0.8,18.6-1,21.7-0.3c3.1,0.8,1.5,7.8,1.5,7.8s-0.3-6.1,0.5-8.5c0.8-2.3,4.3-3.9,8.6-5.8
	s12.8-3.1,15.1-4.6c2.3-1.5,62-33.3,62-33.3s0.4-11.6,0.4-15.9s1.5-6.2,1.5-11.6c0-5.4-1.5-229.7-1.9-230.9
	c-0.4-1.2,0.8-181.7,0.8-185.1c0-3.5,1.2-213.5,1.2-213.5l0.8-74.4c0,0,0-168.9-0.8-172.4c-0.8-3.5-1.2-77.9-2.3-85.2
	c-1.2-7.4-0.8-110-1.5-120c-0.8-10.1-2.7-225.5-2.7-227.7c0-2.3-1.9-122-1.5-128.6c0.4-6.6-1.9-137.9-1.9-144.5
	c0-6.6-1.9-175.1-2.3-179.7c-0.4-4.6,1.5-109.6,1.9-117.8c0.4-8.1,7.4-150.3,8.9-160.8c1.5-10.5,9.7-170.4,10.1-173.1
	c0.4-2.7,6.9-108.9,6.9-113.1c0-4.2,4.2-87.2,4.6-94.9c0.4-7.8,6.6-111.2,6.6-114.6s5.1-163.5,5.1-165.8s2.3-192.2,3.1-200.3
	C2830.6,2723.4,2830.3,2645,2830.3,2640.4z"/>
<path id="leg-right" class="normal" d="M1497.2,1824.1c0,0-24.8,100.7-30,117.8c-5.2,17.1-4.1,28.9-4.6,32c-0.5,3.1-3.6,11.4-4.6,16.5
	c-1,5.2-20.1,98.1-20.1,98.1s-31,204.5-32,214.8c-1,10.3-7.8,80.1-8.8,89.9c-1,9.8,0.5,56.8-2.1,67.6c-2.5,10.8-6.2,64.1-5.7,65.6
	c0.5,1.5-8.8,152.8-8.3,160.6c0.5,7.8,0,179.2,1,187.5s11.4,73.8,11.4,78.5c0,4.6,7.8,74.4,7.8,80.1c0,5.7,12.4,111,13.4,122.4
	c1,11.4,17.6,169.4,17.6,178.7s-2.1,32.5-2.1,39.3c0,6.8,2.1,18.6,2.5,23.8s4.1,39.7,4.1,45.9c0,6.2,9.8,129.6,9.8,141
	s3.6,163.2,2.5,173c-1,9.8-4.1,66.1-4.1,75.9s-4.6,140.4-4.6,144.1c0,3.6-3.1,148.7-5.2,156.5c-2,7.8-4.1,130.2-4.1,138.9
	c0,8.8,1,199.8-0.5,219c-1.5,19.1-1,66.6-1,66.6s-5.2,294.9-5.2,308.3c0,13.4,2.1,387.9,3.1,395.6c1,7.8,15.5,185.4,16.5,195.8
	c1,10.3,6.2,35.7,6.2,44c0,8.3-1.5,58.8-0.5,64.5c1,5.7,3.2,57.7,13,62.9c9.8,5.2,41.3,20.8,47.5,22.7c0,0,26.4,18.9,31,20.4
	c4.6,1.5,31.1,8.8,33.2,9.4c2.1,0.6,19.4,4.5,25.5,5.1c6.2,0.6,33.3-4.6,47.3-6.2s63.1-7.8,70.3-7.3c17.4,0.3,23.2,3.2,31.4,4.8
	c8.2,1.5,35.7,8.5,38.2,8.5s5.7,0.5,6.2-2.1c0.5-2.5,8.8-27.6,10.9-33.8c2.1-6.3,9-91.1,9.6-99.9c0.5-8.8,19.1-256.7,19.6-266.5
	c0.5-9.8,31-437.5,31-437.5s22.7-354.8,23.2-362.6c0.5-7.8,21.7-362,22.7-367.7c1-5.7,10.8-132.7,13.4-140.4
	c2.5-7.8,13.4-142.5,16.1-154.4c2.5-11.8,15-148.2,17.6-156.5c2.5-8.3,29.4-268.1,31.5-276.4c2.1-8.3,9.3-54.2,10.8-61
	s49-267.5,50.6-277.9c0,0,30-162.6,31.5-167.3c1.5-4.6,22.2-116.2,23.8-119.9c1.5-3.6,5.7-30.4,6.2-35.7
	c0.5-5.2,10.8-91.4,10.8-96.6l-3.5-25.6l-2.7-19.6l-1.9-13.4l-3-24.6l-7.1-238.6l-3.2-341.6c0,0-147.9,4.6-171.9,2.3
	c-24-2.3-248.5-92.2-274-102.3c-25.7-10.1-156.6-52.7-156.6-52.7L1497.2,1824.1z"/>
<path id="belt" class="normal" d="M2724.1,1775.1c-2.3-11.6-20.9-62.7-25.5-72c-4.6-9.3-5.4-5.4-6.9-8.5s-13.2-3.1-13.2-3.1
	s4.6,6.9,6.9,10.8s3.1,10.8,4.6,14.7s-2.3,6.9-6.9,13.2c-4.6,6.2-47.3,29.4-62.7,35.7c-15.5,6.2-35.7,12.4-45,17.8
	c-9.3,5.4-120,33.3-127.8,35.7s-82.1,14.7-82.1,14.7c-13.2,0.8-91.4,6.9-112.3,7.8c-20.9,0.8-167.3,10.1-170.4,10.1
	c-3.1,0-140.2-5.4-164.3-6.2c-24-0.8-31.8,0-40.3-6.9c-8.5-6.9-44.1-10.1-52.7-12.4c-8.5-2.3-15.5-6.9-29.4-10.1
	c-13.9-3.1-57.3-11.6-69-14.7c-11.6-3.1-63.5-22.5-88.3-28.7c-24.8-6.2-69-30.2-85.2-35.7c-16.2-5.5-35.7-23.2-38-27.1
	s-4.6-11.6-4.6-11.6s-8.5,49.5-10.1,61.2c-1.5,11.6-4.6,55.8-3.9,62c0.8,6.2,1.5,26.4,6.9,31c5.4,4.6,27.9,23.2,31.8,25.5
	s88.3,31.8,110.7,38.7c22.5,6.9,155.7,50.4,161.9,50.4s43.4,6.2,47.3,7.8c3.9,1.5,8.5,7.8,11.6,8.5s13.2,0,18.6,0s93,13.9,99.9,14.7
	s97.6,10.8,104.6,12.4c6.9,1.6,13.9,0.8,13.9,0.8c3.9-0.8,127.1-17.8,140.2-18.6s120-16.2,145.7-17.8c25.6-1.6,63.5-14.7,84.5-17.8
	c20.9-3.1,127.8-37.2,147.2-44.1c19.4-6.9,63.5-31,74.4-41.8c10.8-10.8,21.7-25.2,21.7-25.2l5.4,32.1c0,0,3.1-10.1,4.6-14.7
	C2729.5,1858.8,2726.5,1786.6,2724.1,1775.1z M1913.1,1957.3c-16.4,0-31.6-9.1-31.6-25.7c0-16.5,12.6-28.9,29.1-28.9
	c11.8,0,22.8,5.5,28.2,14.7c0-0.3,0-0.4,0-0.4c3.6,5.8,5.8,14.6-0.2,26.2l0.3,0.1C1934.1,1952.1,1924.5,1957.3,1913.1,1957.3z"/>
<path id="belt-loop1" class="normal" d="M2449.6,1827.7l34.8-10.1c0,0,6.2,29.1,6.6,30.2c0.4,1.1,5.8,68.1,5.8,72.4
	c0,4.2,3.5,53.4,3.5,60c0,6.6-1.9,22.8-3.1,24.4c-1.2,1.5-3.1,4.6-3.1,4.6l-31,6.6c0,0,0.4-19.8,1.2-33.7s-2.7-67.4-2.7-71.7
	c0-4.2-4.6-51.5-4.6-54.2S2449.6,1827.7,2449.6,1827.7z"/>
<path id="belt-loop2" class="normal" d="M1771.3,1822.3c0,0-3.1,29.1-2.7,31.4c0.4,2.3,3.5,0.8,3.5,0.8s1.5-37.2,1.5-38.4
	c0-1.2,0-2.7,0-2.7s-8.5-3.5-13.9-3.9s-15.1-1.2-18.6-0.8c-3.5,0.4-4.6,0.4-5.1,2.3c-0.4,1.9-10.8,43.4-11.6,49.5
	c-0.8,6.2-5.4,48.4-6.2,54.6s-0.4,30.2-1.5,37.2c-1.2,6.9-3.9,42.2-3.9,45c0,2.7,0.8,4.2,5.1,5.1c4.2,0.8,19.4,2.7,21.7,3.1
	c2.3,0.4,12-0.8,12-0.8s1.2-5.1,1.5-8.5c0.3-3.5,3.1-29.1,4.2-32.1c1.2-3.1,1.2-8.1,1.2-8.1h-3.5l-4.2,44.1l0.8-46.8
	c0,0,6.6-67.4,6.9-70.9c0.3-3.6,8.1-59.3,9.7-60.8L1771.3,1822.3z"/>
</svg>
