<?xml version="1.0" encoding="utf-8"?>
<!-- Generator: Adobe Illustrator 21.1.0, SVG Export Plug-In . SVG Version: 6.00 Build 0)  -->
<svg version="1.1" id="Layar1" xmlns="http://www.w3.org/2000/svg" xmlns:xlink="http://www.w3.org/1999/xlink" x="0px" y="0px"
	 viewBox="0 0 4160 6240" style="enable-background:new 0 0 4160 6240;" xml:space="preserve">
<style type="text/css">
	.st0{fill:#B1F2F2;}
	.st1{fill:#666B6B;}
	.st2{fill:#969799;}
	.st3{fill:#9FB6B7;}
</style>
<path id="body-right" class="st0" d="M2090,2895c2-14,3-75,13-98s56-128,56-128s-32-44-36-51s-42-167-42-167l-129-529l-102-513l-6,9
	c0,0-36.5,24.5-41,28s-39.5,13.5-39.5,13.5s-93.5,38-97.5,40.5s-145.5,61.5-172,71s-164,48-169.5,50.5s-15.5,3.5-15.5,3.5l0.5,9.5
	l3.5,16c0,0,31.5,73.5,38,100s30,180.5,31.5,192.5s22,169.5,22,171.5s15,97,15,97s24.5,267,25,269s45.5,78,45.5,78s13,27,15.5,35
	s21.5,72.5,22.5,88c0,0,9.5,65.5,10,77s9,104.5,5.5,133c0,0-6,116.5-7,125.5s-17.5,156.5-24,177c0,0-4,16-4,17.5s-2,9.5-2,11.5
	s-1,5-1,5s-4,1.5-5,4s-2.5,7-2,8.5s0,1,1,4s1,4.5,1,4.5l-1,2.5c0,0-3.5,4.5-4,6.5s-5.5,34-6,37.5s-27.5,140-28,142
	s-14.5,172.5-15,176.5s-4.5,142-4.5,142s15,160,15,174.5s7.5,115,7.5,115l-1,3.5c0,0,7.8,6.3,9.2,8.7c1.3,2.3,4,8.3,4.7,16
	s-0.7,12.7-0.7,12.7s-21.3,13.3-36.3,12.7l3.3,10.3c0,0,2.7,1.3,2.7,2.3s22,58.7,22,58.7l1.3,1.7c0,0,17,2,19,2.7s7.7,3.7,6.3,4
	c-1.3,0.3-4.3,2.7-4.3,2.7s2.7,17.3,3,21s7.3,33.7,9.3,39c0,0,3.7,3.7,4,4.7s87,17,93.7,18s69.7,11.3,69.7,11.3s43.3,6,94.3-14.7
	c0,0,32-13.7,41.3-19s44.3-34.3,46-36.7s39-44,52-57s43-62.5,43-62.5s32.5-55.5,42.5-83s30.5-89.5,34.5-96s26-70,26-70l46.5-185
	l19.5-102l26-125.5l8-47l-52-414C2098,2963,2088,2909,2090,2895z M2117,3361.2c0,22.8-18,42.6-40,41.4c-18.5-1-35-18.7-37-41
	c-2-22.8,14.9-41.7,37-41.7S2117,3338.3,2117,3361.2z"/>
<path id="body-left" class="st1" d="M2966,1654c0,0-20-9-30-13s-117-38-151-46s-69-25-99-35s-146.3-72-146.3-72l-29.1,1.7
	c0,0-58.5,195-63,204S2120.7,2690,2120.7,2690s-21.3,80.3-22.3,82.7c-1,2.3-12.3,75.3-15.3,98.7c-3,23.3-1,38.7-2,50.7
	s18,199,18,209s40,318,44,348s43,251.5,43,251.5s26,107,30,119s38.5,108.5,38.5,108.5l35.5,85.5c11.5,31,87.5,137.5,87.5,137.5
	c14,27,74,62,78.5,65.5s5.7,1.8,5.7,1.8c62,34.7,158,18,158,18c40.7-7.3,75.3-12,79.3-12s9.3-4,9.3-4l3.3-3.3l5.3-28
	c-6-6.7-8.7-19.3-8.7-19.3c-3.3-16.7,15.3-45.3,15.3-45.3l26-52c0,0,24-80.7,28.7-91.3c4.7-10.7,6-358,6-358l-6-28.7l-9.3-98.7
	l-19.3-191.3c0,0-8-84-8-86s-0.7-4-1.3-6.7c-0.7-2.7-2-10-2-10s-2-3.3-2.7-5.3s-9.3-69.3-9.3-69.3c-11.3-69.3-3.3-246.7-3.3-246.7
	c-2-62,30.7-230,30.7-230c3.3-23.3,37.3-126.7,37.3-126.7l26-3.3c0,0,40-240,39.3-246.7s14.7-186.7,14.7-186.7s50-302.7,50-306
	s49.3-154.7,49.3-154.7L2966,1654z M2135.2,2926.6c-22.8,0.7-37.2-19.2-37.2-42.8s16.7-42.8,37.2-42.8c13.7,0,25.7,8.6,32.2,21.3
	c3.6,8.4,8.3,24.7,0.5,42C2161.5,2917.4,2149.3,2926.2,2135.2,2926.6z M2552.5,1745.5c-0.2,2-1.7,2.4-2.5,2.5
	c-1.6,0.3-4.5-1.4-5.8-2.7c-1.3-1.3-25-17-26.8-18.8s-30.9-16.2-31.6-17s0.4-3.6,0.4-3.6s7.9-9.2,8.2-9.9s8.1,2.8,8.1,2.8l50.3,36.3
	l0.6,3.2C2553.5,1738.2,2552.8,1743.5,2552.5,1745.5z"/>
<path id="collar-left" class="st2" d="M2396.5,1339.5c0,0,32.5,47.5,40,56.5s50.5,48.8,60.5,59.3s40.2,30.2,42.7,32.7
	s47.3,55.5,50.8,60.5s19,22.2,19,22.2s-47.5,23.8-50,24.8s-28,10-28,10s-75.5-62-87.5-80.5s-42.5-52-42.5-52l-3.5-2.8
	c0,0,4.5-14,6.2-23s5-23.2,5-33.5s-3.5-42-6.8-52.8S2396.5,1339.5,2396.5,1339.5z"/>
<path id="lapel-left" class="st3" d="M2633.3,1658.7c0,0-3.7-3-6-3.7s-31-19.3-40.7-25.7c-9.7-6.3-51.8-38.5-51.8-38.5l-55.7-48.3
	c-9.7-7.7-26.8-29.7-30.5-36s-26.3-33.3-26.3-33.3c-13.8-15.5-23-6.3-23-6.3s-9,33.5-9,42.8s-44,269.3-44,269.3s-34,168-36,174.7
	s-62,249.3-62,249.3s-52.7,216-58.7,230.7s-32.7,109.3-32.7,109.3l-39.3,133.3l-21.3,104.7c0,0,4-4.7,5.3-9.3
	c1.3-4.7,14.7-46.7,18-59.3c3.3-12.7,92-158.7,102-170s154.7-282.7,161.3-292.7s129.3-261.3,133.3-268.7s37.3-88,44.7-104
	s36.3-96,36.3-96l26.7-84l10-35.7L2633.3,1658.7z M2552.5,1745.5c-0.2,2-1.7,2.4-2.5,2.5c-1.6,0.3-4.5-1.4-5.8-2.7s-25-17-26.8-18.8
	s-30.9-16.2-31.6-17s0.4-3.6,0.4-3.6s7.9-9.2,8.2-9.9s8.1,2.8,8.1,2.8l50.3,36.3l0.6,3.2C2553.5,1738.2,2552.8,1743.5,2552.5,1745.5
	z"/>
<path id="collar-right" class="st3" d="M1918.7,1320.3c0,0-11,10.3-13.7,12.7s-26,27.3-27,30s-23,33-27,37.3s-8.7,11-18.3,18
	c-9.7,7-67.7,41.7-70,43.7s-37.7,49.3-38.3,50.7c-0.7,1.3-28,38.3-28,38.3s-8,12,9.3,17l60.7,23.7L1896,1474l10.7-4
	c0,0-9.7-50-8.7-62S1906,1333.3,1918.7,1320.3z"/>
<path id="lapel-right" class="st3" d="M1906,1464.5c0,0-4-2-8.5-1s-12.5,2.5-16,6s-42,48-49,54s-72,68.5-74,69.5s-38.5,26.5-47,31
	s-35,25-38.5,30.5s-7,7.5-5.5,10s20,75.5,23,82s58,163.5,58.5,165.5s52,142.5,70.5,181.5c0,0,74,162,75.5,166.5s66,144.5,68.5,147.5
	s39,76,47,87s97,156,98.5,159s14.5,23.5,14.5,23.5l15.5-42.5l-2-14.5l-7-8l-28.5-143l-55-235.5l-41-173c0,0-45.5-207.5-48.5-244.5
	l-27-202.5L1906,1464.5z"/>
<path id="arm-left" class="st3" d="M2983,1659c7,4,9,8,11,18s40,208,45,225s58,317,58,323s1,25,2,34s4,45,4,65s-4,414-4,414
	s0,586,1,602s-10,313-10,336s-3,85-2,106s3,56,4,69s-7.5,105.2-5.8,119.2c0,0,1.7,20.7,2.5,23s1,3.8,1.7,4.5s1.7,1.5,1.7,1.5
	s2,0.8,2,1.3s10,96.5,10,100.5s0.5,29,0.5,29s-63-39.5-179.5-53.5c0,0-113-20.5-153-17c0,0-67-5-28,38l7.5,6c0,0-21-11.5-21.5-36
	l14-91.5c0,0,12.5-86,12.5-89s1.5-33.5,2.5-43s1.5-49,3-57s18.5-171.5,18.5-171.5l10.5-131c0,0,12-166.5,11-183.5s5-212,6-216
	s-0.5-190.5-0.5-192s-4-156-4.5-171.5s-9-155.5-9-159s22.5-114.5,24.5-122s15.5-97.5,16-106.5s13-131,13-133s15-134,19-144.5
	s5.5-23,7-26s2.5-9,2.5-9s9.5-87,10.5-93s17-100.5,18.5-104s13-51.5,20.5-69.5s21.5-57,23.5-60s9.5-19.5,11-23s6-18,6-18l1.8-2.1
	L2983,1659z"/>
<path id="arm-right" class="st3" d="M1309.8,1624.5c0,0-10.2,3.2-11.8,4s-6,3.8-10,8s-5.5,7.8-6,10.2s-1,17.8-1.2,21.2
	s-14.5,75.5-14.5,75.5l-10.2,57l-9.5,54.5c0,0-29.5,181.3-31.5,190s-25.3,183.3-25.3,183.3s-22,185.3-22.7,192
	s-16.7,154.7-16.7,159.3c0,4.7-20.7,252-20.7,255.3s-1.7,45.3-1.7,45.3s-8.7,151-8.7,153S1112,3374,1112,3383s5,299,4,314
	s4,119,4,122s2,56.3,2,56.3s-1.7,42-1.7,48s2,51.3,2.3,56.7c0.3,5.3,0.3,25.7-0.3,30.3c-0.7,4.7-9,61.3-8.7,68.3s3.3,35.7,5,37.3
	c1.7,1.7,4.3,5.3,7.3,0.7c3-4.7,12.3-17.3,13-19.7c0.7-2.3,5-15.7,5-15.7l7-0.7c0,0,22.7-7.3,26.3-8.3c3.7-1,45.7-10.3,48.7-10.3
	s64.3-8.7,70.3-9.3c6-0.7,26-3.3,56.3-5s93-6,105.7,0.3s15.7,6.7,17,13.7s2.7,22.7,2,24.3c-0.7,1.7-24.7-331-24.7-331l-2.7-106.7
	l2-81l23.7-215.7l-6.2-58.2l-8.5-96.5l-4.5-97.5c0,0-2-122.5-1.5-126.5s4.5-148,5-154s13.5-142.5,14-150.5s15.5-110.5,15.5-110.5
	s-44-284.5-43-288s1.5-7,1.5-9.5s-11.5-34-11.5-34s-12-38-16.5-95.5l-24.5-201l-13-100.5c0,0-19-81-21-87s-16.5-47-17.5-50.5
	s-14-31.5-14.5-34S1309.8,1624.5,1309.8,1624.5z"/>
</svg>
