<?xml version="1.0" encoding="utf-8"?>
<!-- Generator: Adobe Illustrator 21.1.0, SVG Export Plug-In . SVG Version: 6.00 Build 0)  -->
<svg version="1.1" id="Layar1" xmlns="http://www.w3.org/2000/svg" xmlns:xlink="http://www.w3.org/1999/xlink" x="0px" y="0px"
	 viewBox="0 0 4160 6240" style="enable-background:new 0 0 4160 6240;" xml:space="preserve">
<pattern id="normal" patternUnits="userSpaceOnUse" width="270" height="270" patternTransform="">
		<image image-rendering="optimizeQuality" preserveAspectRatio="xMidYMid meet" xlink:href="/images/simulator/default/default_tex.jpg" x="0" y="0" width="270" height="270" style="-ms-interpolation-mode: bicubic;" />
  </pattern>
  <pattern id="left" patternTransform="rotate(23)" patternUnits="userSpaceOnUse" width="270" height="270">
		<image image-rendering="optimizeQuality" preserveAspectRatio="xMidYMid meet" xlink:href="/images/simulator/default/default_tex.jpg" x="0" y="0" width="270" height="270" style="-ms-interpolation-mode: bicubic;" />
  </pattern>
  <pattern id="right" patternTransform="rotate(-23)" patternUnits="userSpaceOnUse" width="270" height="270">
		<image image-rendering="optimizeQuality" preserveAspectRatio="xMidYMid meet" xlink:href="/images/simulator/default/default_tex.jpg" x="0" y="0" width="270" height="270" style="-ms-interpolation-mode: bicubic;" />
  </pattern>
<style type="text/css">
	.normal{fill:url(#normal);}
	.left{fill:url(#left);}
	.right{fill:url(#right);}

</style>
<path id="skirt" class="normal" d="M1632,3428c0,0,10,127,13,144s14,181,18,205s14,128,16,153s5,71,5,76s2,14,2,23s5,85,5,85
	s-1.3,0.7,1.3,2c2.7,1.3,15.3,2.3,21.7,3s28,2,32.7,3.7s6.3,1.3,9.3,2.7c3,1.3,66,2,69.3,2s35.2-1.3,40.2-1.3s144.5-9,144.5-9l98-3
	c0,0,87.5,4,98,5s185.5,8,188.5,9s31,2,31,2s31.5-0.5,39.5-0.5s13-3.5,16-3s6.5,2.5,8-1s5-19,5-19l3.5-73l12-88.5l25.5-209l15-132
	l10-69l5-86c0,0-9,3.5-12,3s-25,0-28.5,0s-6.5,3-8,4.5s-1.5,2.5-3,2.5s-33.5-2-35-1s-3.5,9-8.5,10.5s-10.5,4.5-15.5,5s-11.5-4-11-8
	s3.5-3.5,0-8s1.5-16.5,2-18s21-35,22.5-38.5s9-8.5,9-10.5s1.5-14.5,1.5-14.5s9.5-20.5,11-24s13-25.5,14-29.5s5-14,5-14l19.5-74
	c0,0-5-4-5.5-5.5s-2-14-2-14s-9.5,40.5-11.5,44.5s-4.5,3.5-6.5,10s-3,18-3.5,22s-2,17-6.5,23.5s-9,10.5-12.5,14s-14,7-19,8
	s-16.5,2-18-1s-2-3.5-1-12s13.5-52.5,13.5-55.5s1-12.5,1.5-16.5s0-7,2-13s11.5-47.5,12.5-50s1.5-10,1.5-10s1-6.5-1.5-8s-3-3-3-3
	l42.5-144l-4-80h-818v182l6,30.5c0,0,24.5,5.5,26.5,8.5s4.5,15.5,4.5,15.5s13,50,15.5,56.5s13.5,57.5,14.5,59s5.5,24,5.5,24l-2.5,5
	c0,0-4.5,2-11.5,1s-16.5-3-22-7s-16-17-19-24.5s-7-12-7-17.5s1.5-9.5-1-13s-9.5-15-9.5-18s-14.5-50-14.5-50l-3,32.5
	c0,0,12.5,39.5,13.5,44.5s15.5,53.5,21.5,64.5s11,27.5,18,37.5s13.5,16.5,15.5,18.5s12,16.5,14.5,23s4.5,8.5,6.5,15.5
	s2.5,7.5,2.5,13.5s-2,7,0,11.5s3,6,3,8s0.5,5-0.5,9s-3,9.5-6.5,10s-2.5,1.5-5,0s-5-4-5-4l-33-22.5c0,0-6.5-6.5-14.5-8
	s-36.5,0.5-40.5-1S1642,3435,1642,3435L1632,3428z"/>
<path id="body-left" class="normal" d="M2340.5,1431.5c0,0,112,30.5,120,31.5s86,27,96,31.5s37,17,37,17l11,6.5
	c0,0-25.5,184.5-25.5,189s-11,182.5-11,182.5l-54,323.5l-13,2.5c0,0-13.5,16.5-19,29s-15.5,48.5-15.5,48.5s-3.5,13.5-5,29.5
	s-4,37.5-4.5,42.5s0,41,0.5,44s-0.5,13.5,0,19s3.5,25.5,5,30s2.5,6.5,3,9s4.5,26.5,6.5,31.5s6.5,26,7.5,28.5s2,5,3,7s8,11,9,13.5
	s12.5,40,14.5,46.5s2.5,9.5,4,12.5s12.5,15.5,12.5,15.5s18.5,148,19,158s1.5,242-2,252s-49,57.5-52.5,60s-27.5,9-38.5,11
	s-61.5,12-70.5,13.5s-78.5,13-87,12s-12.5,1.5-29-0.5s-64-12.5-73.5-18.5s-42-23.5-53.5-38s-69-101.5-69-101.5s49-199,56-221
	s6-136,8-171s-6-249-12-276s-23-73-31-90s-30-82-30-82l101-261c0,0,82-302,88-322s50-115,50-115L2340.5,1431.5z"/>
<path id="collar-left" class="left" d="M2225.3,1316.3c0,0,0.1,0.4,0.2,1c0.5,2.8,1.9,11,2.2,12.7c0.3,2,1.3,50-0.3,61.3
	c0,0-3.3,44-4.7,49.7c-1.3,5.7-3.7,15.3-3.7,15.3s27.5,6.3,72.8,40c0,0,14.5,1.7,16.2,1.7s27.3-2.7,34.3-4s8.7,1,13.7-2s7-5.7,7-5.7
	s-14.3-32-16-41.7s-2-12.3-2-12.3s-26-13.7-42.3-28s-77.3-89.3-77.3-89.3l0.2,2.3l0,0"/>
<path id="body-right" class="normal" d="M2149,2502c0,0-7-101.5-7-105.5s-9-94-10-99s-20-105-23.5-112s-35-116-35-116l-28-104.5
	l-99-461l-31.5-96l-77.3,33c0,0-108.7,39-124,43s-118.2,40.5-118.2,40.5l3.5,103.2c0,0,0,181.3,0,191.3s15.3,163.3,22.7,182
	c7.3,18.7,61.3,217.3,63.3,225.3s25.3,30.7,25.3,30.7s-0.7-4.7,1.3,2.7c2,7.3,12.6,54.3,12.6,54.3s10,49,10.2,51.2
	s4.8,29.8,4.5,34.2s-0.5,15.5-0.5,16.8s-3,17.8-4,21s-6,34.5-6.2,35.2s-4.2,25.8-5.2,29.8s-0.8,13-1.2,16s0,12.5-1.8,15.8
	s-7.8,14.8-8,15.8s-7,13.8-7,13.8l-9.8,18.2c0,0-6.9,41.6-8.2,49.9c-1.3,8.3,0,98.7,2.3,109.3s7.3,153.3,7.3,161.7
	c0,8.3,4.7,147.7,6,155.3c1.3,7.7,27.3,49,27.3,49s47,8,53.3,9.7s63.3,9.7,66.3,10.3s17.7,3.7,29,3.3c11.3-0.3,57.7-6,61.7-6
	s17-1.7,25-5.7s42-24.3,47-29.7s26.7-27,34.7-38c8-11,32-48.3,34.3-53.3c2.3-5,12.7-28.7,21.2-42.2s22-76,22.5-78.5s12-56,13-70
	s5-53,5-53l7.5-151L2149,2502z M2053.6,2298.8c2.3-14.7,12-24.8,25.2-24.8c15.2,0,28.8,13.8,28.8,32.3s-11.8,33.1-27,33.1
	c-11,0-20.6-7.9-24.9-19.4C2053.4,2310.7,2053.1,2303.8,2053.6,2298.8z M2090.1,2607.9c-14.6-0.1-25.5-8.3-29.8-20.1
	c-2.7-10.4-1.4-18.7,0.5-24.1c4.9-11.5,16.2-19.6,29.4-19.6c17.6,0,31.9,14.3,31.9,31.9S2107.7,2608,2090.1,2607.9z"/>
<path id="lapel-left" class="left" d="M2219.3,1456c0,0-13.7,69-16,76.3s-4.7,15-5.7,21.7s-9.3,46.7-9.3,48s-19.3,86.3-21.3,93.7
	c-2,7.3-16,68.7-18,78.7s-16.7,58.7-18,64s-4.7,20-5.3,26c-0.7,6-6.7,29.7-7.7,34.7s-4.5,15-6.5,19s-4.5,7-4.5,12s-1.5,26-3,32
	s-12,56.5-17,68.5s-12.5,25.5-12.5,25.5l11,48.5l10.5,18l10-11.5l78.5-153l88.5-199.5l33-78.5l36.5-92.5l20-50.5
	c0,0,10.8-12-10-19.5c0,0-84.2-37.8-90.5-43.5s-16.5-12.5-20-14S2223,1451.8,2219.3,1456z"/>
<path id="arm-left" class="normal" d="M2593,1511c3,1,7-1,11,1s13.2,11.5,13.2,11.5s30.8,75.5,32.8,84.5c1.4,6.3,19.5,69.5,19.5,69.5
	s28.2,122.8,28.8,125.8s15.2,105.2,15.8,108.2s14.5,144,16.5,153s10.5,160,10.5,160s3.5,119.5,3,126s1,149.5,1,149.5
	s0,153.5-0.5,157.5S2744,2814,2744,2814v190c0,0,0.5,148,0.5,152s-0.5,21-0.5,21s-14.5,11-16.5,13s-27.5,15-27.5,15l-8-43
	c0,0-132-11.5-147-9c-4,0-44.5,4-48,5s-26,10.5-26,10.5l11.5-96.5c0,0,7-77,10.5-87s5-31.5,5-31.5s6-6,7-15.5s-2.5-51-2.5-55.5
	s2.5-29,6.5-40.5s4-26,4-32.5s-1-61.5,0.5-68.5s8.5-49.5,7-54.5s-6.5-29.5-6.5-41s-2.5-43.5-2.5-46s0.5-76.5,0.5-76.5
	s-6-130.5-5.5-152.5s-4-123-4-123V2200c0,0,42.5-320.5,45-334.5S2573,1684,2573,1684s7.5-80,7.5-82s11-82.5,11-82.5L2593,1511z"/>
<path id="collar-right" class="right" d="M1959,1313c0,0-10,15.5-11,18s-38.5,46.5-44.5,54s-42.5,39.5-47,43s-14.5,9-16.5,14
	s-11.5,34.5-13,38s-9.5,19.5-9,21.5s4.5,10,19,5s38.5-7,43-5s72.5-42,72.5-42l4.5-3c0,0-5-34.8-5-36s-1.8-50.2-1.5-56.2
	s6.8-26,7-26.8s3-29,3-29L1959,1313z"/>
<path id="lapel-right" class="right" d="M1957.2,1455.5c0,0-0.6,0.3-1.7,0.9c-11.6,6.4-79.8,44.2-82.6,46.1c-3,2-49.8,34.8-53.2,37.8
	s-9.5,8.5-9.5,8.5s12.8,40.2,13.4,44.6c0.7,4.3,12.7,48.7,18.7,63.3c6,14.7,37.7,101,38.3,103c0.7,2,22.7,62,22.7,62
	s83,181.3,85,184.7c2,3.3,52,100.7,52,100.7s63.3,110.7,66.7,124s8,8,11.3,22.7s2-2,2-4.7s-17.3-106-17.3-110.7s-22-99.3-24.7-110.7
	c-2.7-11.3-10.3-35.3-11.3-38.7s-4.7-32-4.7-35s-1.3-8.3-3.7-14.3c-2.3-6-19.3-65.7-20.7-72.3c-1.3-6.7-2.3-15.7-3.3-25
	s-5-29.3-6.7-32.7c-1.7-3.3-1.7-9-4-16s-6-16.7-6.7-20.3c-0.7-3.7-5.3-20.3-5.7-26.3c-0.3-6-4.7-18-4.7-18s-6.7-23.3-7-29
	s-3.7-27.3-5.3-34.7c-1.7-7.3-12.3-60-12.3-60L1957.2,1455.5z"/>
<path id="arm-right" class="normal" d="M1601.5,1525c0,0,3,30.5,3,35s5,46.5,5.5,50.5s0.7,17.8,1.7,23.5s2,47.3,2,51.7
	c0,4.3-3,104-3,108.7s-0.7,27.3,0.3,31.3s1.3,25,2.7,29.7c1.3,4.7,6,25.3,7.3,27.3s25.3,119,28.7,125.7c3.3,6.7,15.3,60.7,16.7,63.3
	c1.3,2.7,43.3,186.7,43.3,186.7s-8,23.3-8.7,30s-4,134-3.3,144s7.3,101.3,8,107.3s4,53.3,4,53.3l6.7,298l17.3,282l-14-7.3
	c0,0-34.7-10.3-38-10.3s-46.3-7-81.3-4c0,0-64.7,6-73.3,8.3c-8.7,2.3-47,11-48.3,12.3s-17,8.3-17,8.3l0.7-50.3l-1.3-90.3v-56.3
	l-1-49l-0.3-68.3l-1-40.7l-1.7-64.7l-0.3-76l1-66.7l0.7-72.3l2-110.7l1.3-110.7l0.7-81l2.3-114.7l2-67.7c0,0,6-97.3,6-102.3
	s9.7-108.3,10-112s7.3-55.3,8.3-59.7s33-118,33-118l19-61.3c0,0,25-63.7,25.3-65.3c0.3-1.7,6-8.7,6-8.7s14.7-8.3,19-10
	s8.7-1.7,8.7-1.7L1601.5,1525z"/>
</svg>
