<?xml version="1.0" encoding="utf-8"?>
<!-- Generator: Adobe Illustrator 21.1.0, SVG Export Plug-In . SVG Version: 6.00 Build 0)  -->
<svg version="1.1" id="Layar1" xmlns="http://www.w3.org/2000/svg" xmlns:xlink="http://www.w3.org/1999/xlink" x="0px" y="0px"
	 viewBox="0 0 4160 6240" style="enable-background:new 0 0 4160 6240;" xml:space="preserve">
<pattern id="normal" patternUnits="userSpaceOnUse" width="270" height="270" patternTransform="">
		<image image-rendering="optimizeQuality" preserveAspectRatio="xMidYMid meet" xlink:href="/images/simulator/default/default_tex.jpg" x="0" y="0" width="270" height="270" style="-ms-interpolation-mode: bicubic;" />
  </pattern>
  <pattern id="left" patternTransform="rotate(23)" patternUnits="userSpaceOnUse" width="270" height="270">
		<image image-rendering="optimizeQuality" preserveAspectRatio="xMidYMid meet" xlink:href="/images/simulator/default/default_tex.jpg" x="0" y="0" width="270" height="270" style="-ms-interpolation-mode: bicubic;" />
  </pattern>
  <pattern id="right" patternTransform="rotate(-23)" patternUnits="userSpaceOnUse" width="270" height="270">
		<image image-rendering="optimizeQuality" preserveAspectRatio="xMidYMid meet" xlink:href="/images/simulator/default/default_tex.jpg" x="0" y="0" width="270" height="270" style="-ms-interpolation-mode: bicubic;" />
  </pattern>
<style type="text/css">
	.normal{fill:url(#normal);}
	.left{fill:url(#left);}
	.right{fill:url(#right);}

</style>
<path id="pants" class="normal" d="M1539,3782.3c0,0,2.2,42,2,45s5.2,99.5,5.2,100s3.8,62.8,3.8,62.8l2,67.2c0,0,1.2,22.7,1.2,27
	s1.7,47.8,1.7,48.5c0,0.7,0.8,30.5,0.8,31.5s0.8,74.3,0.8,74.3s1.7,63.7,1.7,65.7s0.8,71,0.8,71l1.2,62c0,0,0.7,61,0.7,61.7
	s0,77.7,0,77.7l0.2,42.3c0,0,0.3,64.3,0.3,66s0.7,44.5,0.8,45.3c0.2,0.8,0.3,63.2,0.5,67.2s0.3,38.8,0.3,42s0.5,43.5,0.7,45.3
	s0,53.3,0.2,55.3s0.7,53.7,0.7,55.3s0,100.3,0,101.2c0,0.8,1.2,64.5,1.2,64.5l0.7,41.7c0,0,0.8,31.7,1,34.7s0.5,37.5,0.5,38.5
	s0.8,44.8,0.8,44.8s1.3,30.5,1.3,31.2s0.2,42.3,0.2,43.7c0,1.3,1.7,65.2,1.7,65.8s1.5,53.3,1.3,55s0.2,45.8,0.2,45.8
	s3.5,58,3.5,58.5s3.2,28.5,3.2,33.8s-0.1,8.8,0,9.5s2.5,3.2,3.9,4.8s11.6,13.1,13.2,14.1s16.1,5.9,19,6.6c0,0,19.5,3.6,26.1,4.5
	s22.6,0.9,34.6,2s35.9,0,38.4,0c0,0,41.1-0.4,45.2-0.1s24.5-0.4,24.5-0.4s22.6-6.5,26-15.8c0,0,2.1-9,2.8-12.4s1.1-9.1,1.4-11.4
	s2.1-28.1,2.4-30.6s2.5-57.8,3.2-62s4.8-85,4.8-89s3.5-74.5,3.8-77.8l4.3-61l9.7-152.3c0,0,15.3-233,16-237.3s18.7-202.3,19-207
	s10.7-101.7,10.7-101.7s15.7-146,15.7-150s1.3-16,1.3-22.7s-1.7-10,0.7-18.7c2.3-8.7,6.3-33.7,7.3-39.3c1-5.7,10.3-109.3,11.3-119
	s16-154.3,16.3-160.7c0.3-6.3,18.7-155.7,18.7-157.3c0-1.7,7.3-63.3,8.7-72c1.3-8.7,17.3-83.3,18-88.7s17-72.7,18.3-80.3
	c0,0,18-88.7,18.3-90.3c0.3-1.7,8.3-36.3,9.3-39.7c1-3.3,4.7-28.3,5.3-30.7c0.7-2.3,4.3-22.7,5-31s2-21.7,4.7-26.7
	s13.7-20.7,13.7-20.7s4.3,13.7,5,20s1.7,11.7,2,17.7s7,34.7,7.7,39s9,64.3,9.3,66s31,194,31.3,196.3s40,254,40,254
	s36.3,259,36.7,262c0.3,3,9,119.3,10,123c0,0,5,91,6,100.3s8,152.3,9,162.3s12.7,188.7,12.3,192.3c0,0,5.7,91.3,6,100.7
	c0.3,9.3,7.7,163.7,8,172.7s-0.3,73-0.3,75.7s-1,130.3-0.7,135.3s0,159-0.3,162.7s0,129.7,0,131.7s3,10.3,9,13s18,8,24.3,9.3
	s80.7,11.7,85,12.3s32.3,1.3,35.7,1c3.3-0.3,31-13.3,33-14.3s54-21.3,55-22s1.7-3.3,1.3-8c-0.3-4.7,10.3-206.3,10.3-208
	s6-119.3,6-123.3l4.7-96.3c0,0,7.7-167.3,8-170.3s5.3-88.3,5-90s4.7-98.7,4.7-98.7s5-128.3,5.3-132.7c0.3-4.3,5.3-95.3,5.3-101.3
	s6-83.7,6.3-88s3.3-128.7,3.3-133.3c0-4.7,0.3-190.3,0.3-193.7s2.3-109.7,3-125s5-85.3,5.7-92.3s5.3-79.7,5.3-82s7.7-119,8.7-128.3
	s1.7-29,1.7-29s-4,2-8,3s-3.7,1.7-7.7,1.3c-4-0.3-4.3,1.3-8.3-2s-15.3-10.7-15.3-10.7s-12.7,5-16.3,5.7c-3.7,0.7-5.3,2-9-1
	s-10-7.7-13.3-12.3c-3.3-4.7-18.3-46.3-21-51c0,0-14,17-18,18s-8.7,7-18.3,5.3c-9.7-1.7-12-3.3-12-3.3s0-82.3,1-86s16-65,18-70.3
	s7.7-23.3,7.7-23.3l8.7-569l-876.4,24l53.2,517.3c0,0,9,19.5,10,22s13,24,15,28s3.5,13,4,15s0.5,92-0.5,96.5s-2,8-4,9.5
	s-4,1.5-6.5,2s-2.5,0.5-6.5,0.5s-7-1-7-1s7,29.5-11.5,36c0,0-28.5,2-30.5,2s-16.5,0-16.5,0s-6.5,27-22,27S1539,3782.3,1539,3782.3z"
	/>
<path id="body-right" class="normal" d="M2053.2,2522.3c0,0-48.2-121.3-68.2-229.3s-126.7-665-133.3-678.5
	c-6.7-13.5-10.7-53.5-10.7-53.5l-2-8.8c0,0-58,30.2-63.2,31.8s-19.9,2.8-19.9,2.8l-87.2,25.8c0,0-116,41.7-117.3,42.3
	s-40.7,19.7-43.7,21.3c-3,1.7-6.7,1.3-9.7,5.7s-1.3,12-1.3,12s15.7,72.7,16,75.7s30.3,256,30.3,256s3.3,221.7,6.3,231
	s12.7,16,13.3,20c0.7,4,2.3,19.3,2.3,21.7c0,2.3,10.7,138.3,11.3,141.7s13,179,12.7,184.7s0.7,39.3-0.7,45c-1.3,5.7-14,63.7-15,67.3
	s-17,85.3-19.3,92s-11.7,38-13,46.3s30,523.3,30.3,527.7s2.7,5.3,4.3,4.7c1.7-0.7,6-2.3,6.7,0s2.3,7,2.7,15.3
	c0.3,8.3,1.3,11,0.3,11.7s-11.7,3.7-14,4s-6,4.3-5.3,6.3s29,63,37,70s22.7,24.3,22.7,25.3s10,6.7,12.7,7.7s75,20.7,80.7,22.3
	c5.7,1.7,42.3,8.7,49,9s35,2.7,48.3-0.3c0,0,12.3-2.7,17.7-5.3c5.7-2.8,32.7-19.3,49.3-35.3c16.7-16,32.3-32,37-36.7
	s33-47.3,34-49.7s-0.3,0,6.7-9s29.3-62.7,33.7-69c4.3-6.3,15-41,16.7-46.3s22.3-64.7,25-81.7s13-70,13.7-73s19-151,19-151
	s83.6-323.4,87.6-359.4S2053.2,2522.3,2053.2,2522.3z M2022.7,2996.5c-17.7,0-32-13-32-29s14.3-29,32-29s32,13,32,29
	S2040.4,2996.5,2022.7,2996.5z M2132,2664.2c-0.2,0.8-2,2.8-2,2.8l-2.5,1.5l-27.5-0.5c-1.2,15.6-14.9,28-31.6,28
	c-17.5,0-31.7-13.5-31.7-30.2s14.2-30.2,31.7-30.2c12.4,0,23.2,6.8,28.4,16.7h26.8l4-0.5l1,1l2,3l1.5,5.2
	C2132,2661,2132.2,2663.5,2132,2664.2z"/>
<path id="body-left" class="normal" d="M2595,3027c-10-52-30-94-30-94l-6.2-10.7c0,0,0.5,0.5-0.8-5.8s-6.8-35.3-9-41.5
	s-5-13.7-5.3-17.5s-0.5-9.5-0.5-12.7s-3.3-22-3.7-24.3s-9.5-54.5-9.8-58.5s-4.8-44.5-4.8-46.8s-2.8-47.2-2.2-52.8
	c0.7-5.7,1-31,1.3-35.3s0.3-15.8,1.2-24c0.8-8.2,1.7-35.8,2.3-41.3s1.5-28.2,1.8-30.2s1.3-31.8,1.7-33.2c0.3-1.3,1.8-38.5,2.2-42.3
	c0.3-3.8,3.3-44.7,3.8-47s4-48.3,4.3-50.8s1.3-16.8,3.2-21c1.8-4.2,9.5-30.3,9.8-35.3s6.5-122,7.8-124.8s24-225.8,23.8-229.8
	s11.8-92.7,12.7-97c0,0,20.5-101.3,21.8-104.5c1.3-3.2,6.5-43.5,6.7-45.8s0.2-4,0.2-4c-0.4-0.2-0.8-1.5-1.5-2.9s0-1.6-1.6-1.6
	s-10.5-3.2-14.6-5.1s-33.2-13.8-34.2-14c0,0-48.1-17.6-52.9-19.2c-4.8-1.6-37.6-11.9-40.8-13.1c0,0-35.2-11.8-38.5-12.6
	s-58.6-19.6-62.2-20.6s-17.6-8.6-21-8.9c-3.4-0.3-89-28.8-92-36.8s-24,138-25,151c0,0-13,111-15,130s-53,245-55,260s-41,198-49,217
	c-2.1,4.9-4.9,13.1-14.3,42.6v0.1c0,0,1.8,0.8,2.2,1s1.6,0.5,1.7,0.6s1.2,0.5,1.3,0.5s1,0.5,1.1,0.6c0.2,0.1,0.8,0.8,1,1
	s1.8,2,2.1,2.5s1,1.5,1.1,1.6s0.7,1.4,0.7,1.5s0.1,0.4,0.2,0.8s0.1,1.5,0.1,1.8s0,1.7,0,1.9s-0.2,1-0.2,1.1s-0.3,1-0.3,1l-0.5,0.8
	c0,0-0.6,0.6-0.7,0.7s-1.4,0.9-1.4,0.9l-1.6,1.1c0,0-0.8,0.5-0.9,0.5c-0.1,0-0.8,0.4-0.8,0.4l-0.7,0.3l-0.3,0.1c0,0-0.2,0.1-0.3,0.1
	s-0.3,0.1-0.4,0.1l-0.4,0.1h-0.2c0,0-0.4,0-0.5,0s-0.3,0-0.4,0c-0.1,0-0.4,0-0.4,0s-0.3,0-0.4,0c-0.1,0-0.5-0.1-0.6-0.1
	s-0.5-0.1-0.5-0.1s-1.2-0.3-1.3-0.4c-0.1,0-1-0.3-1-0.3s-0.7-0.2-0.8-0.3l-1.3-0.4l-1.6-0.6c-27.5,86.2-72.3,230.8-72.3,230.8
	s-0.3,5.2-0.8,9.2s-4.5,41.2-4.5,45.5s-1.2,48-1,49s6.8,60.8,8.2,75.5s7.5,60.2,7.8,66.2s13,87.8,13.2,93.5s10.8,73.2,11.8,76
	s14.5,72.2,16.5,76.8s21.5,84.2,23,93.2c0,0,10.8,42.2,16.2,54s40.2,105.5,42.5,109.2s27.8,62.5,31.8,69c0,0,32.2,55.8,35.8,59.5
	s39.8,48,42.5,50.8s32,28.8,35.2,31s30,14.2,34,15.8s27.2,3,34,2.8s25.8-1.8,33-1.8s41.5-10.8,41.5-10.8s115-55,133-87s40-96,44-142
	S2605,3079,2595,3027z M2036.6,2665.8c0-16.7,14.2-30.2,31.7-30.2c11.6,0,21.8,6,27.4,14.9c0,0,0,0,0,0c0.3,0.5,0.6,1,0.9,1.5
	c2,3.8,4.2,9.5,3.5,16h0c0,0.1,0,0.2,0,0.3c-0.1,0.7-0.2,1.5-0.4,2.2l0,0.4c-2.6,14.3-15.7,25.1-31.3,25.1
	C2050.8,2696,2036.6,2682.5,2036.6,2665.8z M2373.5,1785.5l-40.8-25.5c-4.8-3,1.8-11.8,1.8-11.8l3.2-3c0,0,4.2,0.5,5,0.8
	s7.2,7.2,8.8,8.2s24.8,18,24.8,18l4.2,3.5l1.8,2.5C2383.8,1785.8,2373.5,1785.5,2373.5,1785.5z"/>
<path id="collar-right" class="right" d="M1890,1493.2c0,0-24,22.5-25.8,24.8s-31.4,29-32.2,30.2c-0.8,1.2-13.5,13-17.2,15
	s-38.2,21-59,23.7c0,0-8.3,8-8.8,9s-6.3,7.8-8.7,11.5c-2.3,3.7-8.7,13-10.5,16.3s-7.7,11-9.8,14.5s-6,7.3-6.5,8.5s-0.5,1.2-0.5,1.2
	s41.3,20,44.2,21.5c2.8,1.5,10.3,6.7,10.3,6.7l3.3-0.2c0,0,8.3-5.8,11-8.2c2.7-2.3,37.3-26.2,41-29.8c3.7-3.7,22.5-16.7,30.8-23.3
	c8.3-6.7,31-15.8,32-16.7c1-0.8,0.7-9.5,0-12.5s-5-31.3-3.8-37.2S1888.3,1495,1890,1493.2z"/>
<path id="lapel-right" class="right" d="M1883.6,1589c0,0-4.8,0.2-7,1.1s-8.2,3-9.6,4.5s-61.1,47.5-62.5,48.6s-36.2,27-38.2,28.4
	c0,0-31.1,15.8-34.5,18s-28.2,15.9-30.1,17.1s-10.8,6.2-12.2,7.9s-4.5,3.9-5,5.8s0.1,5.1,1.9,10.6s19.4,61.6,19.8,62.9
	s15,46.4,16.2,49.2s19.1,52.4,20.2,54.2c0,0,11.6,27.9,13.9,33.6s16.8,39.8,18,43.5s9.5,24.6,11.6,28.9s25,58.5,25.6,60.6
	c0,0,15.1,31.9,18.5,39s19.1,41.2,20.5,43.8c0,0,22.2,44.4,24,48.5s16.1,34,16.9,35.8s13.6,28.6,15.2,32.4s19.2,42.9,19.9,44.6
	c0,0,17.9,40.2,20.1,44.9s17.1,36.9,18.4,40.2s10.1,19.2,11.6,22.2c0,0,32.5,61.2,33.2,63.1s28.6,51,29.1,51.9s12.2,19.1,13.1,21
	s21.8-56.2,21.8-56.2l-7-19.8l-18.2-58.5c0,0-17.8-62-18.1-63.8s-5.5-25.2-7-30.5s-12.2-51.9-12.8-54.1s-10.9-45.1-11.4-47.4
	s-10.5-46.4-10.9-48.2s-8.1-34.6-8.9-37.9s-6.9-27.4-7.4-30s-6.6-37.4-7.4-41.8s-8.4-45-9-47.6c0,0-6.8-33.8-7.5-37.1
	s-11.6-57.9-12-61.1s-5.9-30-6.4-34s-5-31.4-5-36.2s-0.2-3.4-6-42.1c0,0-5.9-36.2-5.9-38.4s-5-34-5.9-37.4c0,0-5.8-41.2-6.1-45.4
	s-15.4-89.6-16.1-91.9S1884.1,1589.1,1883.6,1589z"/>
<path id="arm-left" class="normal" d="M2627.4,1695.9c0,0-11,26-12,28.9s-10.4,35.5-10.6,37.5s-20.5,99.2-23.5,122.2
	s-16.2,128.5-17.5,161.2s-8.2,109.5-8.2,113s-8.2,137-9.8,144s-1.8,32.8-1.8,36s4.8,61.5,5,65.8s2.2,72.5,2.8,80s2,95.2,2,97
	s3.8,103.2,3.8,107.8s1,96.8,1,98.8s0.8,83.5,1,88s-0.2,20.2,0.5,22.5s1.2,12.8,0.8,16s-1.2,5.8-1.5,11.2s-0.2,38-1.2,42.5
	s-2.2,16.8-2.8,22.5s-4.2,47.8-4.2,53.5s-4.5,46.8-5,52.8s-7,59.2-7.8,64s-12.8,94.2-14.2,108.5s-14,119-15.2,127.2s-4.2,23-4.2,26
	s-1.5,9.5,10.2,11.2s74,14.5,76.8,14.2s93,13.5,99.2,14.8c0,0,53,10.5,57,13.5s8.8,3,6.2,14.8l0.5,2.2c0,0,1.5-0.8,2.2-1.2
	s3-2.5,3-2.5s1.8-4.4,2-6.2s2.5-16.8,2.9-20.6s2.4-20,2.4-22.8s3.9-76.6,3.9-78.1s16-191,15.5-197s19.5-391.5,19-395
	s1-229.5,1-236.5s-18-169.5-20.5-193s-27-245-27-249s-19.5-115-23-128.5s-3.5-42.5-16.5-74.5s-41-115.5-43-122.5
	S2643.8,1706.8,2627.4,1695.9z"/>
<path id="collar-left" class="left" d="M2245.8,1505c0,0,1.7,23.3,3,28s2.5,14.8,3.2,17.3s1.8,17.3,0.8,19.7
	c-1.4,3-1.9,12.7-2.4,15.6c-0.4,2.8-0.4,12.4-0.4,12.4l-0.8,5.4c0,0,20.3,7.2,22.8,10.4c2.5,3.2,71,69.7,71,69.7l15.3,12.2l6.3-1.7
	l0.8-2.5l2.7-0.5c0,0,47.1-22.6,47.5-22.9s1.3-0.4,1.3-0.4s-4.9-9.1-7.2-12.1s-23.4-30.8-24.2-32.2s-16.5-19.6-17.5-20.8
	s-5.4-4.1-5.4-4.1s-29.5-16.4-30.8-17.2s-11.1-7.2-13.4-9s-11.4-6.4-15.9-10.5s-28.1-27.8-31.5-30.9s-18.6-20-20.1-21.4
	s-4.6-5.8-4.6-5.8L2245.8,1505z"/>
<path id="arm-right" class="normal" d="M1498,1682c0,0-27-0.3-38.3,16.7s-30.3,60.3-30.7,62.7c-0.3,2.3-22.7,63.7-25,74.3
	c-2.3,10.7-25.7,98-26.3,101c-0.7,3-17,68.7-18,72s-7.3,40.3-8.3,44.3s-16,84-18.3,94c0,0-7,58-8.7,63s-10.3,70.3-10.7,73.7
	c-0.3,3.3-10.3,109-10.3,115s-5.3,51.3-6,73.7c-0.7,22.3-4.7,99.7-4.7,109.3c0,9.7-0.3,20.7,0,31s0.7,57.3,2.3,67.3
	s2.3,50.3,2.7,56.3c0.3,6,3.7,102.7,4.3,112c0.7,9.3,0.3,32.7,1.3,38s3.3,61.3,4,68s4,73.3,4.7,85.7s7,104,8,112.3
	s4.7,33.3,4.7,40.7s1,33,1.7,36.3s2.3,31,2.3,32.7s-0.7,1.3,0.3,3.7c1,2.3,2.7,8.3,2.7,16.3s-0.3,18.3,0.3,22s3.7,35.7,3.3,38.7
	c-0.3,3-1,21.7-1,23s-1,7.3-2.3,8.7c-1.3,1.3-4.3,2.3-4.3,2.3s3.3,30.7,3.3,33.3s1.7,24.3,1,30.3s-1.7,8.3-1.7,10.7s0,6,0.7,7
	s-1.3,2,2,2s2-1,5.7,0s2.3,0,5.3,1.3s4.3,1.7,4.3,1.7v-3.7c0,0,26-9.3,32.3-9.7c6.3-0.3,34.3-11,48.3-13.3s64.3-14.7,73-15.3
	s58.7-16,64.7-17s8.3-2.7,11.7-2.7c3.3,0,10.3,0,12.7,1.3c2.3,1.3,2,2,4.3,2.3s0.7,1.7,2.3,0.3c1.7-1.3,1.7-5,1.7-5
	s-6.7-34.7-8-41.3c-1.3-6.7-5-18.3-5-19.7c0-1.3-3-21-4-27.7s-11.3-98.7-11.3-100.3c0-1.7-21.3-215.7-21.7-220
	c-0.3-4.3-3.3-33-3.3-44.3s0.7-80,0.7-85.7s-0.3-107.3-1-123s4.7-162.3,4.3-164.7c-0.3-2.3,3.7-140.7,4.3-151.7
	c0.7-11,6.7-138,6.7-143.3s0.3-55.7-0.3-65.7c-0.7-10-1.7-125-1.7-130s-1-31.3-1.3-38.7c-0.3-7.3-13.3-141.7-14.7-147
	c-1.3-5.3-8.7-76-8.7-76s-19-102-20-105S1504.3,1682.3,1498,1682z"/>
<path id="lapel-left" class="left" d="M2435.7,1740.3c0,0-25.5-18.3-29.3-20.7c-3.8-2.3-26.8-17.2-32.5-21.7s-13.5-9-16.7-12.2
	s-39.5-36-40.7-36.7c-1.2-0.7-30.1-30-32.2-30.7c0,0-14.5-9.8-18.2-12.7c-3.7-2.8-6.2-4.8-8.5-5.2c-2.3-0.3-8.2-1.7-8.7,3.4
	c-0.1,1.3-2.1,8.4-2.2,11.7c-0.1,3.3-7.2,45.3-7.2,46.8s-3.3,22.6-3.5,24.9c-0.2,2.3-15.1,124.1-15.1,128.1s-4.2,40-5,41.5
	s-4.7,22.3-5.3,24.8c-0.7,2.5-8.7,44-9.2,46.5s-6.5,31.5-7,34.7l-51.3,231.2c0,0-11.8,47.2-12.3,49.7s-7,26-7.5,29.3
	s-10.8,48-11.3,50.5c-0.4,2.2-6.5,25.9-8.1,32.3l-0.1,0c0,0,0,0.3-0.1,0.7c-0.1,0.6-0.2,0.9-0.2,0.9l0.1,0.3c-0.1,1-0.2,2-0.1,2.2
	c0.1,0.3-2.2,14.5-3.1,19.6c-0.4,0.8-5,9.6-6.8,13.2c-1.8,3.8-3.3,13.7-4.5,17.5c0,0-5.8,16.3-7.5,21.8s-10.3,30.2-11.3,33.8
	s-6.8,20-8.3,24.8s-7.8,28.5-8.7,31.5c-0.8,3-12.8,52.2-13.2,54c-0.3,1.8-8.2,31.7-8.7,35.2s-0.3,5.5-0.3,5.5l27.8-49.3
	c1.2-2.3,19.7-37.8,22.5-43.3s16.5-30.2,18.3-33.3c1.8-3.2,21.8-43.7,23.5-46.3c1.7-2.7,17.2-33.2,19.5-37.7s28.8-59.3,31.2-63.8
	c2.3-4.5,27-57,28.8-60s23-47.3,25.8-51.8s22.5-45.7,23.3-48.2c0,0,16.5-35,17.5-37s21.5-45.3,23.7-50s24.8-52.7,25.5-54
	s17.8-38.5,18.5-40.8c0,0,10.2-24,10.7-25s29.8-68.3,31-71c1.2-2.7,25.3-59.8,26.7-62.7c1.3-2.8,15.2-38.8,16-41.5
	s15.7-45.3,16.5-48.7C2438.7,1749.2,2441.7,1745.8,2435.7,1740.3z M2373.5,1785.5l-40.8-25.5c-4.8-3,1.8-11.8,1.8-11.8l3.2-3
	c0,0,4.2,0.5,5,0.8s7.2,7.2,8.8,8.2s24.8,18,24.8,18l4.2,3.5l1.8,2.5C2383.8,1785.8,2373.5,1785.5,2373.5,1785.5z"/>
<line class="st2" x1="2327.5" y1="1724" x2="2413.5" y2="1768.5"/>
</svg>
