<?xml version="1.0" encoding="utf-8"?>
<!-- Generator: Adobe Illustrator 21.1.0, SVG Export Plug-In . SVG Version: 6.00 Build 0)  -->
<svg version="1.1" id="Layer-1" xmlns="http://www.w3.org/2000/svg" xmlns:xlink="http://www.w3.org/1999/xlink" x="0px" y="0px"
	 viewBox="0 0 4160 6240" style="enable-background:new 0 0 4160 6240;" xml:space="preserve">
<pattern id="normal" patternUnits="userSpaceOnUse" width="270" height="270" patternTransform="">
		<image image-rendering="optimizeQuality" preserveAspectRatio="xMidYMid meet" xlink:href="/images/simulator/default/default_tex.jpg" x="0" y="0" width="270" height="270" style="-ms-interpolation-mode: bicubic;" />
  </pattern>
  <pattern id="left" patternTransform="rotate(23)" patternUnits="userSpaceOnUse" width="270" height="270">
		<image image-rendering="optimizeQuality" preserveAspectRatio="xMidYMid meet" xlink:href="/images/simulator/default/default_tex.jpg" x="0" y="0" width="270" height="270" style="-ms-interpolation-mode: bicubic;" />
  </pattern>
  <pattern id="right" patternTransform="rotate(-23)" patternUnits="userSpaceOnUse" width="270" height="270">
		<image image-rendering="optimizeQuality" preserveAspectRatio="xMidYMid meet" xlink:href="/images/simulator/default/default_tex.jpg" x="0" y="0" width="270" height="270" style="-ms-interpolation-mode: bicubic;" />
  </pattern>
<style type="text/css">
	.normal{fill:url(#normal);}
	.left{fill:url(#left);}
	.right{fill:url(#right);}

</style>
<g id="leg-right">
	<path class="normal" d="M1328,482c0,0-5.5,6-7,9.5s-4,5-7.5,22.5s-14.5,70.5-18.5,85.5s-14.5,48-18.5,53s-31,52-31,52s-5,7.5-8.5,22
		s-22,94.5-27.5,148.5s-18.5,174.5-19,190.5s-1.5,45-2,57.5s1,42,6,75s55,381.5,55,381.5s45.5,304,53,361.5s15.5,109.5,19.5,126.5
		s7.5,44,8.5,58s25.5,297,25.5,297l28.5,359.5c0,0,25,331.5,26.5,356.5s26.5,306,33,365.5s21.5,265.5,25,328.5s21.5,434,21.5,434
		l17,338c0,0,9.5,280,9.5,334s-1,133-1,133l-4.5,10c0,0-2.5,2,2,9.5s19,28.5,19.5,30.5s4,5.5,7.5,6s78,7.5,96,11.5s34,9.5,36,11.5
		s0.5,1,8.5,3.5s38,4.5,40.5,4s66.5-25.5,80-29.5s27-8,33.5-10s30.5-12,40-14s9,0,14-3s17.5-11,27-16.5s21-14,23.5-17
		c0,0-4.5-143-5.5-199.5s1-236,2-293s4.5-149,3.5-175.5c0,0,2.5-66,4.5-92s7.5-158.5,9.5-218.5s9-199,9-255.5s0-144,6.5-203.5
		s13-107.5,15-142s6.5-99,12.5-212.5c0,0,11-164,13.5-226.5s8-235.5,8.5-308s2-234,3-290.5s6-312,8-362s7.5-230.5,11.5-283
		s16-221.5,20-272s11.5-131.5,11.5-131.5s5-13.5,8.5-13.5c0,0-8-17.5-8.5-36s3.5-147,5.5-173.5s11.5-121.5,11-125.5s-3-57-8-86.5
		s-4.5-119-4.5-119l1.5-224l4.5-120.5v-26H1656h-324.5L1328,482z"/>
</g>
<g id="leg-left">
	<path class="normal" d="M2081,1389.5c0,0-9-21-8.5-51.5s3.5-126.5,4.5-128.5s3.5-66.5,6.5-96s6.5-52.5,4-84.5s-11.5-95-10.5-169
		c0,0,1.5-173,1-185s0.5-42,2-90.5s2-97,2-97l760.5-23.5c0,0,0.5,16.5,2.5,25s17.5,67.5,25,86.5s34.5,151,43,193.5s41,204.5,49,282
		s15,105-0.5,282s-18,216-38.5,326.5s-42.5,237.5-42.5,237.5s-47,251-50,292s-12.5,159-14,195s-18,198.5-21,234s-33,340-33,340
		l-26,315l-33,396l-19.5,248c0,0-20.5,295.5-23.5,354.5s-25.5,451-25.5,451s-15,295-14.5,346v2.5c0,0-8.5,22-10,26s-15,20.5-18.5,22
		s-74.5,24.5-90.5,34.5c0,0-6,7-24,3s-39-11-39-11S2301,5108,2299,5108s-53-16.5-53-16.5s-8.5-3.5-8.5-5.5s-21.5-3.5-26-4.5
		s-20-0.5-20.5-11.5s9.5-259,9.5-259s9.5-301.5,11-339.5s7.5-332,9.5-380s3.5-177.5-1-267.5l-11.5-344.5L2198,3222
		c0,0-15-356.5-15-367.5s-6.5-303.5-6.5-303.5s-7.5-322-11.5-387.5s-18-344-18-344s-5-145-9.5-170.5s-26-160.5-26-160.5
		S2101.5,1401,2081,1389.5z"/>
</g>
<g id="belt">
	<path class="normal" d="M1742.2,497.8l-150,2c0,0-58.7,1.3-65.3,0.7c-6.7-0.7-79.3-3.3-83.3-2.7c-4,0.7-76.7-0.7-76.7-0.7
		s-21.3,0.7-28-4.7c-3.7-3-8.1-6-10.9-10.8c-2.2-3.7-3.3-8.5-2.5-15.2c2-15.3,14.7-63.3,17.3-72.7c2.7-9.3,10-26,10-28.7
		c0,0,5.2-39.7,6.7-45.7s8-34,9-36s3.5-4.5,9-4s24,4,50.5,5.5s153,5,176.5,4s114-7.5,136.5-8s192.5,0.5,213.5-0.5s139-1.5,139-1.5
		s36-2,56.5-1.5s45.5,0.5,63.5,1s81.5,0,93.5,1.5s37.5,4.5,46,5s55.5,3,102.5,3.5s82.5,3,120.5,2.5s100.5-2,127-3s63.5-5,69.5-6
		s13.5-1.5,15-2s2.5,3.5,5,6.5s17.5,29.5,30,78.5s20.5,92,20,99c0,0-7.5,17.5-16.5,22s-40.5,10-57,12s-94.5,5.5-112.5,6
		s-149.5,0.5-162.5-1s-118.5-1.5-175.5-2s-200,2.5-219.5,1.5s-20,1-20,1l-4-2l-97.5-2L1742.2,497.8z"/>
</g>
<g id="belt-loop2">
	<path class="normal" d="M1642.5,303.5c0,0,3-13,6.5-14.5s23-2.5,31.5-1.5s16.5,1.5,16.5,1.5s-1.5,4.5-2,15s-6.5,79-7.5,115.5
		s-1,160.5-1,165.5s-0.5,9-2.5,9.5s-40-1.5-40-1.5s-8.5,1.5-12-9s-0.5-88,0.5-124.5S1639,322,1642.5,303.5z"/>
</g>
<g id="belt-loop1">
	<path class="normal" d="M2517.5,336.5c0,0-4,0-10.5-1s-8-1.5-12.5-1.5s-5.5-4.5-5.5-4.5s3-23,5-27s4-13.5,7.5-14s33,0,38,1
		s9,2,10.5,5.5s9.5,13,12.5,32s16.5,74,19,94.5s7,35,4,70.5s-11.5,88-13,93s-2.5,7.5-5,8.5s-25-1-30.5-2s-12.5-1.5-16-5
		s-12-12-13-17.5s-5.5-46-6-52s-1-9-1-10.5s2.5-4.5,2.5-4.5l39.5,2h4c0,0,3.5-39,1.5-48.5s-6-35-12.5-50.5c0,0-6-27-8.5-37
		S2517.5,336.5,2517.5,336.5z"/>
</g>
</svg>
