<?xml version="1.0" encoding="utf-8"?>
<!-- Generator: Adobe Illustrator 21.1.0, SVG Export Plug-In . SVG Version: 6.00 Build 0)  -->
<svg version="1.1" id="Layar1" xmlns="http://www.w3.org/2000/svg" xmlns:xlink="http://www.w3.org/1999/xlink" x="0px" y="0px"
	 viewBox="0 0 4160 6240" style="enable-background:new 0 0 4160 6240;" xml:space="preserve">
<pattern id="normal" patternUnits="userSpaceOnUse" width="270" height="270" patternTransform="">
		<image image-rendering="optimizeQuality" preserveAspectRatio="xMidYMid meet" xlink:href="/images/simulator/default/default_tex.jpg" x="0" y="0" width="270" height="270" style="-ms-interpolation-mode: bicubic;" />
  </pattern>
  <pattern id="left" patternTransform="rotate(23)" patternUnits="userSpaceOnUse" width="270" height="270">
		<image image-rendering="optimizeQuality" preserveAspectRatio="xMidYMid meet" xlink:href="/images/simulator/default/default_tex.jpg" x="0" y="0" width="270" height="270" style="-ms-interpolation-mode: bicubic;" />
  </pattern>
  <pattern id="right" patternTransform="rotate(-23)" patternUnits="userSpaceOnUse" width="270" height="270">
		<image image-rendering="optimizeQuality" preserveAspectRatio="xMidYMid meet" xlink:href="/images/simulator/default/default_tex.jpg" x="0" y="0" width="270" height="270" style="-ms-interpolation-mode: bicubic;" />
  </pattern>
<style type="text/css">
	.normal{fill:url(#normal);}
	.left{fill:url(#left);}
	.right{fill:url(#right);}

</style>
<g id="pants">
	<path class="normal" d="M1419.4,4434.9c0,0-21.2,57.7-24.1,70.7s-10.1,38.5-15.4,65.9s-12.5,70.3-13.9,88.7
		c-1.4,18.4-2.4,28.6-2.4,38.2s2.9,56.2,2.4,69.2c-0.5,12.9-2.4,27.4-4.8,40.4s-7.2,39.9-7.7,52.4s-4.3,110.6-6.2,158.2
		c-3.1,13.9-22.1,29.6-18.4,46.3c1.3,6.2,19.8,13,21.9,19.4c6.1,19,25.7,52.6,29.7,79.5c0.4,2.8-9.4,1.8-8.7,8.8
		c3.4,36.1,15.9,68.5,19.7,92c0.2,11.4,7.2,16.5,6.5,27.1c-4.8,68.6-3.7,105.3-3.7,160.9c0,3.7-18.6,4.7-18.3,11.2
		c0.4,10.3-0.5,19.8-1.7,24.9c-2,8.4-13.8,16.4-17.5,18.9l-7.6,1.7c2.4,41.4,11.6,211.1,14,240.8c2.4,29.8,5.3,65.3,5.3,84.6
		c0,19.2,0,93.8,0,93.8h605.2c0,0,4.3-34.6,9.1-90.4c4.8-55.7,21.6-245.2,26.9-303.8c5.3-58.6,24.5-256.7,27.9-282.2
		s23.5-171.6,31.8-213.4c8.1-41.8,18.3-92.3,18.3-92.3s33.7,91.8,39.9,109.6c6.2,17.8,31.2,88,35.1,105.8
		c3.8,17.8,33.7,136,52.4,233.7c18.7,97.6,36,197.1,51.9,334.6c15.8,137.5,22.8,199.3,22.8,199.3l617-0.8c0,0,0-70.2,1-121.2
		c1-50.9,3.4-171.6,6.2-220.6c2.9-49,4-34.7,5.9-86.7c0-4.7-16-8.3-34-14.2c-4.6-1.5-6.3-9.3-11.5-10.9c-10.8-3.3-25.9,8.8-34.2-19
		c-6.8-23.1-2.6-77.5-1.6-142.7c0.3-17.5,14.8-89.8,14.3-101.5c-1.1-23.4,8.7-12.7-5.8-35.4c-9.6-14.9,28.3-74.5,40.7-113.1
		c2.8-8.7-8.7-16.8-8.1-22.3c7.9-77.2,24.8-330.6,22.8-350.8c-1.9-20.2-11-94.2-20.6-118.7s-16.4-45.7-19.2-56.2
		c-2.9-10.6-2.4-15.8-3.8-20.6s-44.2-139.4-44.2-139.4l-18.1-111.5H1474L1419.4,4434.9z"/>
</g>
<path id="body-right" class="normal" d="M1834.5,2190.5c0,0-7.5,6.5-8.8,7.8s-11,9-19.2,12.8c-8.1,3.8-21.2,9.9-24.4,11.3
	c-3.2,1.4-42.5,14.1-46.8,15.2c-4.3,1.1-79.1,29.3-83.2,31.6s-57.5,22.5-62.6,24.5s-77.9,29.2-82.5,31.5s-10.7,5.1-16.2,6.9
	s-28.9,8.9-35.2,14.5c0,0-10.1,11-16.4,31.5c0,0-5.7,12.9-9,48.7c-0.5,6.1-5.5,54.4-6,63.5s-2.8,56.1-3,65.7c-0.2,9.7-5,91.9-5.3,96
	c-0.2,4-8.2,142.2-8.5,145c-0.2,2.8,0,60.9,0,66.2s1.5,89.6,1.3,94.7c-0.2,5.1,0.2,66,0.2,69.5c0,3.6-0.5,31.8-0.5,35.2
	c0,3.3,3.5,76.3,4.8,86.7s11.2,129.7,11.2,129.7l9,97.9c0,0,9,88.6,9,91.2c0,2.5,4,50.8,4.6,54.6s2.1,45.5,2.3,49
	c0.2,3.6,7.8,118.6,7.8,118.6s3,55.4,3.3,58.1c0.2,2.8,1.8,87.6,1.8,88.9c0,1.3,1.8,41.4-0.2,55.4c0,0-2.1,38.3-2.1,39.4
	c0,1-3.6,54.6-3.6,54.6l-5.1,77.5l-3.6,53.8c0,0-3,46.2-3,48.7s0.2,52,0,57.1s-12.9,104.3-13.7,111s-6.1,55.1-7.4,60.2
	s-7.1,27.2-8.1,29.5s-4.1,12,0.8,21.3c0,0,19.3,17.7,43.4,29.5c0,0,68.5,36,81,39.1c5.9,2.5,68,27,72.8,29.3s68.6,24,83.5,31.1
	c15,7.1,131,53.5,132.5,54.6c1.5,1,45.9,17.5,45.9,17.5s7.3,6.7,20.8-11.3l58.9-80.6l51.3-69.1l55-74.6l10.1-13.5l3.8-6.2
	l-18.3-28.9c0,0-25.5-50.6-29.3-64s-1.9-130.2-1.9-130.2l2.7-90.6c0,0,11.4-193.8,12.2-195s10.3-137.8,10.3-137.8
	s4.2-202.6,4.6-205.2c0.4-2.7-3.4-136.3,2.3-156.5s13.7-81.5,13.7-81.5l6.1-75.4c0,0,11.8-47.2,14.1-52.9s20.6-81.1,20.6-81.1
	l-2.8,1.5l-2.7,1.3l-5.9-11.3l-8.6-23.1c0,0-236.9-758-243.8-788.8C1841.6,2240.7,1834.5,2190.5,1834.5,2190.5z"/>
<path id="body-left" class="normal" d="M2864.5,4472.9c0-4-5.1-24.9-6.1-29.9c-1-5.1-12.7-70.6-12.7-70.6
	c-5.1-28.4-11.7-130.5-11.7-130.5c-3.6-25.4-2.5-91.4-4.6-100.5s3-246.8,3-246.8l3-203.1c0-39.1,4.6-168.1,5.6-175.7
	c1-7.6,6.5-107.9,6.5-113.5s-5.4-134.8-5.4-140.9c0-6.1,1.4-60.3-0.2-68.5c-1.5-8.1-10.1-53.5-11.1-67.2c-1.1-13.7-9-179.7-9-179.7
	s-5.9-53.4-8.5-63c-0.7-17.8-4.5-111.6-4.5-115.2s0.2-33.2-0.8-41.3s-2.1-22.1-3.2-31.2c-0.2-9.6,3-77.9,2.7-98.2
	c-0.2-11.2,7.7-142,8.8-150.6c1.8-14,1.1-49.5,1.1-52s-5.3-17.4-5.3-17.4c-5.1-14.7-11.7-12.8-16.2-16.4
	c-4.6-3.6-34.5-12.2-44.2-14.2c-9.7-2.1-31.5-10.7-52.3-16.2c-20.8-5.6-100.5-38.6-100.5-38.6c-17.3-6.1-55.4-28.4-74.6-38.1
	c-19.3-9.7-36.6-15.8-41.7-17.3s-82.3-41.1-82.3-41.1s9.1,9.7,11.2,13.2c2.1,3.6-12.7,106.6-12.7,106.6l-32,127l-108.7,333
	l-66,160.5c0,0-66.5,149.8-80.2,171.6c-13.7,21.9-47.2,132.5-47.2,132.5s-10.1,34-10.1,35.5s-7.1,68-7.6,73.1
	s-10.1,140.1-10.1,147.2s-0.5,136.6-0.5,136.6l-2.5,96c-0.5,21.9-11.7,189.4-11.7,189.4l-10.1,203.6c0,0-0.5,155.4-0.5,162
	s1.5,13.2,2.1,14.7c0.5,1.5,10.1,27.4,13.2,35c3,7.6,35,53.8,39.1,63.4c4,9.7,30.5,54.3,36.6,65.5s25.9,38.6,28.4,44.2
	s55.1,84.6,59.6,91.2c4.6,6.6,27.2,45.8,27.2,45.8c2.1,4,15.1,13.7,20.3,15.8c5.3,2.1,16.1,1.4,21.2,1.1c8.1-0.5,30.5-4.2,40.7-6.2
	c10.1-2.1,47.4-9.1,53.5-10.1s43.2-12.6,58.4-15.6s100.3-30.7,117.1-35.3c16.8-4.6,136.6-42,154.8-47
	c18.3-5.1,116.3-30.7,121.3-32.2c5.1-1.5,17-4.7,22.1-8.8c5.1-4,17.9-9.1,22.5-12.7s10.2-7.9,13.3-10
	C2866.1,4480,2864.5,4476.9,2864.5,4472.9z M2116.1,3220.4c10.4,0.3,15.7,0.3,21.9,7.5h-0.2c0,0,10.6,6.2,6.2,26.9l0,0
	c-4.3,13.3-12.3,18-27.5,17.8c-15.4-0.2-24.6-11.1-24.3-27.9C2092.6,3226.7,2105.2,3220.1,2116.1,3220.4z M2109.8,3478.1
	c12,0,18.3,2,24.3,11.3l0,0c0,0,9.6,11.9,1.5,29.2l0,0c-5.6,10.7-13.2,12.2-26.3,12.2c-18.7,0-25.4-8.7-25.4-27.2
	S2091.2,3478.1,2109.8,3478.1z M2107.2,3732.2c12.1,0,17.1,1.9,22.3,12.6h-0.5c0,0,10.2,13.3-0.6,30.9c-5.8,7.5-12.3,8.2-22.1,8.2
	c-17.4,0-23.2-7.7-23.2-26.1C2083.1,3739.4,2089.8,3732.2,2107.2,3732.2z M2093.4,3990.1c11.7,0,16,0.8,21.8,10l-0.4,0.1
	c0,0,12.1,8.1,1.3,27.3c-5.9,9.1-10.9,13.4-22.7,13.4c-18.3,0-25.4-9.2-25.4-27.2C2068.1,3995.5,2075.1,3990.1,2093.4,3990.1z"/>
<path id="collar-right" class="right" d="M1856.7,2171.1c0,0-0.2,0-0.4,0.1c-1.4,0.3-5.8,1.5-7.7,3.2c-2.3,2.1-24.4,29.2-44.4,39.8
	s-42.1,24.6-45.7,26.7c-3.6,2.1-34.5,20-38.6,24.1c-4,4-36.8,35.6-38.3,37.3s-10.7,10.7-11.7,12s-5.9,8.4-5.3,10.1
	c0.5,1.8,0.5,2.5,2.1,4c1.5,1.5,17.7,8.6,22.3,10.4c4.6,1.8,19,10.9,20.8,11.7s4.8,5.1,4.8,5.1l1.3,0.8l4-0.8
	c0,0,34.3-26.4,36.6-28.7c2.3-2.3,52.3-45.9,56.1-50.3c3.8-4.3,29.2-33.7,34-37.9c4.8-4,15.5-12.4,15.5-12.4s-7.5-26.1-7.2-29.7
	s-0.6-15.2,0.2-18.3S1856.7,2171.1,1856.7,2171.1z"/>
<path id="lapel-right" class="right" d="M1860.6,2223.1c0,0-7.6-1.5-10.1,1s-6.9,6.3-7.8,7.1c-1,0.8-5.1,3.6-5.6,5.6
	c-0.5,2.1-3,7.1-5.9,9.9c-2.8,2.8-7.8,5.1-10.1,8.4c-2.3,3.3-9.9,9.9-12.7,13.2c-2.8,3.3-27.4,24.4-28.9,26.7s-30.5,30.2-31.5,31.5
	s-8.4,8.4-12.2,10.9c-3.8,2.5-16,9.7-19.6,12.4c-3.6,2.8-4,3.6-6.1,5.6c-2.1,2.1-57.5,42.1-61.7,44.8s-11.8,9.5-13.3,10.7
	c-1.5,1.1-11.4,6.9-1.9,21.3l44.2,72.7l94.1,148.9l96,142.8l85.3,126.4l127.9,187.7l22.1,31.6l17.9-53.7l-9.1,1.9l-2.3-0.8
	l-46.1-168l-26.4-87.9l-72.5-264l-71.7-257.5c0,0-22-69.7-22.8-72.3S1860.6,2223.1,1860.6,2223.1z"/>
<path id="collar-left_1_" class="left" d="M2400.5,2193.7c0,0,84.3,47.2,89.3,50.3c5.1,3,19.5,8,28.1,15.6s50.6,48.9,56.2,53.5
	c5.6,4.6,26.4,25.4,26.4,25.4s13.7,11.2,2.1,19.3c0,0-1,2.3-3.3,3c-2.3,0.8-8.6,2.8-11.7,3.8c-3,1-47.4,23.8-56.4,30.2
	c0,0-61.2-48.5-68.8-55.4s-28.9-33.5-35-47s-22.6-40.1-23.4-41.7c-0.8-1.5-3.7-5.5-3.7-5.5s1.4-7.5,2.2-11.3s3.2-13,0.6-20.9
	C2400.7,2205.3,2400.5,2193.7,2400.5,2193.7z"/>
<path id="lapel-left" class="left" d="M2402.2,2247.8c0,0,3-0.2,3.7-0.2s3.7,0.4,3.7,0.4s0.9-0.4,2.3,0.6c1.4,1,2.3,1.5,3.7,3.7
	c1.4,2.1,11.6,19.2,14.5,24.5s11.4,18.9,15.4,24.5s13.3,18.4,16.9,21.9c3.6,3.5,11,12.8,17.4,16.9c0,0,22.1,18.4,30.6,24.8
	c8.5,6.3,30.8,25.3,35.9,28.2s52.5,34.7,56.4,36.4s18.9,10.5,20.7,14.5s5.7,11.8,1.5,26.8c0,0-4,8.2-6.9,13.7s-32.9,48.7-33.9,50.3
	c-1,1.5-47.2,68.4-47.2,68.4l-54.8,76.2c0,0-63,85.7-64.2,86.7c-1.3,1-26.1,34-26.1,34s-61.5,82.8-63.2,83.8s-24.6,32.2-26.1,34.3
	s-23.8,31.2-25.9,34s-26.7,35.8-29.5,39.6s-45.9,57.9-49,62.4c-3,4.6-12.4,17.7-14.5,19.6c-2.1,1.8-16.8,21.6-19.6,25.4
	c-2.8,3.8-32,37.9-34,40.4c-2.1,2.5-13.7,13.2-17.3,19.3s-17,20.3-26.9,40.6c0,0-21.9,50-23.8,56.4c-2.1,6.3-4.8,14.5-4.8,14.5
	l0.8-12.2c0,0,16.5-62.7,18.5-69.8c2.1-7.1,28.9-77.9,30.7-82.5s15.2-42,15.2-42l23-57.3l26.1-77c0,0,35.3-90.2,37.4-94.7
	c2.1-4.6,24-61.3,27.3-68.4c3.3-7.1,9-26.7,11.3-34.5s23.6-83.5,24.1-85.2c0.5-1.8,26.7-91,27.1-92.2c0.5-1.3,31-98,31.2-99.2
	c0.2-1.3,19.4-76.4,21.5-80.5c2.1-4,11-31.1,13.3-36.5s7.5-26.7,11.3-35.9S2402.2,2247.8,2402.2,2247.8z"/>
</svg>
