<?xml version="1.0" encoding="utf-8"?>
<!-- Generator: Adobe Illustrator 21.1.0, SVG Export Plug-In . SVG Version: 6.00 Build 0)  -->
<svg version="1.1" id="Layar1" xmlns="http://www.w3.org/2000/svg" xmlns:xlink="http://www.w3.org/1999/xlink" x="0px" y="0px"
	 viewBox="0 0 4160 6240" style="enable-background:new 0 0 4160 6240;" xml:space="preserve">
<style type="text/css">
	.st0{fill:#EAEAEA;}
	.st1{fill:#B1B1B2;}
</style>
<path id="body-right" class="st0" d="M1969,3795c0,0-16-658-6-700s68-242,68-242l-7.3-22c0,0-10-23.3-14-38.7
	c-4-15.3-45.3-124.7-45.3-124.7s-46-146.7-48-150s-82.7-274-82.7-274l-74.7-284l-38-158l-36.7-185.3l-42.7-232.7
	c0,0-17.3-76-10.7-95.3c6.7-19.3,13.5-71.3,13.5-71.3s-19,34.5-20,36.5s-10,14-12.5,15.5s-31.5,15.5-35,18s-23,12.5-25,15.5
	s-15,11-17.5,12.5s-8.5,2.5-18.5,7.5s-81,39.5-90.5,44s-88,41.5-92.5,43s-3.5,2.5-42.5,16.5c0,0-117,44-120.5,45.5
	s-34.5,12.5-46,14.5s-42,7-43,8.5s-9,6-3.5,9.5c0,0,7,2,7,6s18.5,63,19,66s25.5,115.5,29,137.5s10,83,11,89s10.5,106.5,11.5,127
	s5.5,146.5,5,161.5s-4.5,142-5,151s-15.5,201.5-15.5,201.5s-9.5,128.5-12,141.5s-18.5,82-23,90c0,0-17.5,44.5-18.5,48s-4,13-4,13
	l-12.5-10c0,0,10,50.5,10,54.5s10,65.5,10,65.5s13.5,102.5,13,116s11,175,11,175l10.5,149.5c0,0,8.3,219.2,8.3,229.2
	s0.7,192.7-0.7,205.3c-1.3,12.7-13.3,147.3-14.7,153.3c-1.3,6-22.7,122-25.3,136.7c-2.7,14.7-22,97.3-24,103.3s-30.7,91.3-36,104.7
	c-5.3,13.3-12,22-10.7,24.7s6.7,8.7,9.3,11.3s41.3,36,50,42.7s108,68.7,135.3,82s72.7,32.7,77.3,35.3c4.7,2.7,46,29.3,66.7,36
	s265.3,106.7,275.3,110s173.3,59.3,179.3,62s100.7,40,108.7,42.7s8,2.7,12,4.7s15.3,4,15.3,1.3s35.3-168.7,35.3-168.7l36.7-183.3
	l4.7-17.3l4-69.3c0,0-22-222-30-232S1969,3795,1969,3795z M1948.3,4281c-23.4,0-42-20.4-42-43.7s18.9-42.6,42.3-42.3
	c29,0.3,43.7,19,43.7,42.3C1992.3,4260.7,1971.7,4281,1948.3,4281z"/>
<path id="body-left" class="st1" d="M2937,4086.3c-7.3-28.7-16.7-56-18-64s-5.3-49.3-5.3-55.3s-12-88-12-88s-13.3-159.3-13.3-166.7
	s-1.3-124.7-1.3-135.3c0-10.7,0-112.7,0-112.7l10.7-318c0,0,22-280,23.3-294s20-182.7,20-184.7s-6-20.7-9.3-30s-36.7-126-40.7-153.3
	s-17.3-154-18-165.3s-22.7-267.3-22-275.3s3.3-151.3,4.7-169.3c1.3-18,22-266,23.3-279.3c1.3-13.3,7.3-79.3,7.3-83.3s0.7-14-0.7-16
	c-1.3-2-0.7-8.7-6-8.7s-11.3-0.7-14.7-0.7s-26-3.3-34.7-6s-158-57.3-158-57.3s-40.7-16.7-54-22c-13.3-5.3-120.7-53.3-130.7-60.7
	c-10-7.3-87.3-50.7-92.7-58c-5.3-7.3-11.3-16-14-19.3c-2.7-3.3-28.7-22-28.7-22l0.7,2.7c0,0,8.7,30,10,37.3c1.3,7.3,7.3,33,7,38.7
	s-5.3,42.3-7.3,48.7c-2,6.3-8.7,50.3-9,52c-0.3,1.7-6.3,29.3-8.3,35.3s-6.7,28.7-8.7,39s-4.7,25.3-5.7,38s-3.7,46-5,58.7
	c-1.3,12.7-8.7,41.3-9,46.3s-10.3,83-10.3,83s-12.3,80.3-12.3,81.7c0,1.3-15,90.7-15.3,92.7s-18.7,88.3-18.7,88.3s-11,60-11,61.7
	s-17,76-17,76s-37.3,151.3-41.3,168s-68,233.3-71.3,242s-85.3,236.7-87.3,242.7s-73.3,203.3-78,216s-20,50.7-20,55.3
	s1.3,37.3,0,44.7c-1.3,7.3-0.7,88.7-2.7,105.3s-3.3,36-3.3,40s1.3,134,1.3,146s2.7,279.3,3.3,296.7c0.7,17.3,10.7,216.7,12,231.3
	c1.3,14.7,14,147.3,14.7,150s16.7,86,20,100.7s42,169.3,44,174s38,134.7,40,142s26,89.3,32,110.7c6,21.3,14.7,60,14.7,60
	s5.3,14,7.3,18.7s4.7,8.7,7.3,9.3c2.7,0.7,14-7.3,24-10s135.3-66,142.7-68c7.3-2,58-19.3,72-20.7c14-1.3,31.3-14.7,38-16
	s80.7-28.7,80.7-28.7l126-48c0,0,138.7-61.3,156-70.7c17.3-9.3,106-52,115.3-60.7s26-16.7,40.7-28.7s55.3-49.3,58.7-54s6-9.3,6-9.3
	l0.7-3.3C2985.7,4256.3,2944.3,4115,2937,4086.3z M2067.2,3910.5c-7.6,10.9-20,18.1-34.1,18.1c-23.5,0.1-43.4-18.3-42.6-43.4
	c0.8-23.5,17.2-42.9,42.3-42.5c14.7,0.2,27.5,7.6,35.1,18.9l-0.9,0c0,0,18.1,18.1,0,48.9L2067.2,3910.5z M2068.6,3554.3
	L2068.6,3554.3c-7.5,9.7-18.8,16.1-31.5,16.1c-22.9,0-41.3-18.3-41.7-44.8c0-23.4,16.3-45.6,41.8-43.3c15.6,1.4,26.8,7.5,33.7,16.8
	l-0.7,0.1C2070.2,3499.1,2088.3,3516.5,2068.6,3554.3z M2069.5,3230.1c-7.6,8.1-18.4,13.1-30.5,13.1c-23.4,0-42.7-18.6-42.7-42.5
	s18.9-43.2,42.3-43.2c16.6,0,31,9.8,37.9,24.1c-0.5,0-0.8,0-0.8,0S2091,3203,2069.5,3230.1z"/>
</svg>
