<?xml version="1.0" encoding="utf-8"?>
<!-- Generator: Adobe Illustrator 21.1.0, SVG Export Plug-In . SVG Version: 6.00 Build 0)  -->
<svg version="1.1" id="Layar1" xmlns="http://www.w3.org/2000/svg" xmlns:xlink="http://www.w3.org/1999/xlink" x="0px" y="0px"
	 viewBox="0 0 4160 6240" style="enable-background:new 0 0 4160 6240;" xml:space="preserve">
<pattern id="normal" patternUnits="userSpaceOnUse" width="270" height="270" patternTransform="">
		<image image-rendering="optimizeQuality" preserveAspectRatio="xMidYMid meet" xlink:href="/images/simulator/default/default_tex.jpg" x="0" y="0" width="270" height="270" style="-ms-interpolation-mode: bicubic;" />
  </pattern>
  <pattern id="left" patternTransform="rotate(23)" patternUnits="userSpaceOnUse" width="270" height="270">
		<image image-rendering="optimizeQuality" preserveAspectRatio="xMidYMid meet" xlink:href="/images/simulator/default/default_tex.jpg" x="0" y="0" width="270" height="270" style="-ms-interpolation-mode: bicubic;" />
  </pattern>
  <pattern id="right" patternTransform="rotate(-23)" patternUnits="userSpaceOnUse" width="270" height="270">
		<image image-rendering="optimizeQuality" preserveAspectRatio="xMidYMid meet" xlink:href="/images/simulator/default/default_tex.jpg" x="0" y="0" width="270" height="270" style="-ms-interpolation-mode: bicubic;" />
  </pattern>
<style type="text/css">
	.normal{fill:url(#normal);}
	.left{fill:url(#left);}
	.right{fill:url(#right);}

</style>
<path id="body-right" class="normal" d="M1587,1437c0,0-9.5-2.5-13-0.5s-8.5,8-14,11.5s-24,14.5-32.5,17s-55.5,20-75.5,27
	s-55.7,19.7-68.3,20.3c-12.7,0.7-37.3,6.7-44.7,8c-7.3,1.3-36.7,12-50.7,15.3s-22.7,9.3-34,14s-24,6-26.7,7.3s-12,13.3-14.7,19.3
	s-11.3,22.7-12,28s-1.3,9.3,0,13.3s6,8,4.7,14s-4,97.3-4.7,101.3s-5.3,64-2,73.3s10.7,59.3,10,76.7s-5.3,154.7-4,161.3
	c1.3,6.7,4,45.3,4,50s2,157.3,2,167.3s0,36-1.3,42s-2.7,27.3-4.7,37.3s-4.7,45.3-8.7,64.7c-4,19.3-2.7,43.3-4,68s-5.3,39.3-6,48
	s2.7,13.3-0.7,32.7c-3.3,19.3-12,46.7-12.7,50.7s-5.3,17.3-7.3,21.3s-3.3-1.3-3.3,8s10,92,10.7,96.7s19.3,158.7,19.3,160.7
	s20.7,210.7,20.7,210.7s8,83.3,9.3,91.3s10,131.3,8,170l-0.7,46.7c0,0-4.7,140.7-5.3,153.3c-0.7,12.7-12,190-12.7,194
	s-19.3,276-19.3,276s-12.6,133.3-15.6,142.3s-6,36-12,51s0.4,51.1,0.4,55.6s12,15,19.5,21s112.5,54,171,72l418.5,117l178.5,39
	l10.5-3l216-256.5l-372-522l-1.5-351l-12-435l22.5-73.5l241.5-460.5l81-229.5L1765,1472.9l-46.5-105l-6.6-4c0,0-15,35.5-22.7,39.8
	s-2.8,10.7-17.2,17.3c-14.3,6.7-80.5,16.5-81.3,16.5C1590,1437.8,1587,1437,1587,1437z"/>
<path id="body-left" class="normal" d="M3032.5,4162.5c-6-27-30-189-37.5-216s-7.5-60-7.5-70.5s-4.5-37.5-4.5-49.5s-15-240-15-240
	c-16.5-135-16.5-435-16.5-445.5s6-39,6-76.5s3-153,10.5-174s4.5-7.5,7.5-19.5s1.5-36,1.5-58.5s1.5-159,3-175.5s19.5-81,22.5-87
	s12-192,12-204s9-67.5,9-100.5s-10.5-105-16.5-133.5s-9-216-12-237s0-111,3-138s-7.5-57-12-76.5s-10.5-39-13.5-52.5
	s-22.5-30.8-22.5-30.8s-19-16.7-21.3-19c-2.3-2.3-8-5-14-6s-26.7-8.7-29.7-9.7s-22-4.3-22-4.3l-34.3-13l-24-10.7
	c0,0-38.3-14-46-16.3c-7.7-2.3-19.3-5.7-27.3-7c-8-1.3-19-7.3-25.7-10.7c-6.7-3.3-25-16.3-30.3-18.3s-23-13-31.3-14
	s-35.3-4.3-45.7-5.3c-10.3-1-30.7-4.3-33.7-5.7c0,0-31.6,1.3-36.1,1.3s-132,154.5-133.5,184.5s-403.5,942-403.5,942
	s-162,279-168,289.5s-49.5,108-49.5,115.5s-7.5,64.5-7.5,79.5s1.5,109.5,1.5,135s13.5,294,13.5,294l1.5,288c0,0,7.5,7.5,12,13.5
	s63,97.5,63,97.5c24,46.5,465,598.5,474,607.5s18,22.5,28.5,30s54-7.5,54-7.5s199.5-67.5,213-73.5s372-129,372-129
	c45-19.5,45-60,46.5-67.5C3047.5,4230,3038.5,4189.5,3032.5,4162.5z M1897.1,3340.7l1.7,4.4l-0.2,0c0,0,0.9,23.1-4.4,37.1
	c-6.1,14-20,14.4-36.6,16.5c-21.2,2.8-39.7-12.9-41.3-38.7c-1.6-25.4,20.4-44.3,42.6-44.3C1875.7,3315.7,1891,3325.3,1897.1,3340.7z
	 M1853.9,2928.7c16.7,0,31.2,10.8,37.2,26.3c0,0,3.7,23.4,1.6,28.8c-4.8,19.1-20.3,28.3-38.8,30.8c-21.2,2.8-38.6-17.2-40.2-42.9
	C1812,2946.2,1831.7,2928.7,1853.9,2928.7z M2454.9,2929.5c19.4,0,38.5,15.8,36.6,40c-2,25-15.8,40.5-35.2,40.5
	s-34.8-13.9-34.8-38.2S2435.5,2929.5,2454.9,2929.5z M2425.7,3354.7c0-23.8,18.6-43,41.6-43s41.6,19.3,41.6,43
	c0,23.8-18.6,43-41.6,43S2425.7,3378.5,2425.7,3354.7z M2481.1,3792.7c-22.6,0-40.9-19.2-40.9-42.8s18.3-42.8,40.9-42.8
	s40.9,19.2,40.9,42.8S2503.7,3792.7,2481.1,3792.7z M2580.5,1812.5c-0.7,1.7-3.7,2-6.5,1.8c-2.8-0.2-4.2-1.8-5.5-3.5
	c-1.3-1.7-0.5-6.3-0.5-6.3s-2-0.2-4.7-1.5s-6-3.2-8.7-5.2s-9-10.7-10.7-12.5c-1.7-1.8-25.5-32.7-27.3-34.2s-1.2-0.7-1.7-0.7
	s-2.8-1-3.8-1.5s-2.5-3.7-2.5-5.2s2.7-10.7,3.2-11.3c0.5-0.6,5-2.8,7.3-4c2.3-1.2,5.2-0.3,6.3-0.3s6.5,1,8.2,1s1.3,2.2,1.3,2.2
	l-3.8,5.8c0,0,0.3,2,0.8,2.8c0.5,0.8,11.8,14.8,14.7,19c2.8,4.2,6.3,10.5,7.8,13s19,19,20.2,20.5s2.5,4,2.5,4s0.8,2.8,0.8,4.5
	c0,1.7,0.5,1,2,2.2s1.2,3.2,1.5,4.2S2581.2,1810.8,2580.5,1812.5z"/>
<path id="collar-right" class="right" d="M1735.5,1336.5c0,0-6-5.5-10.5-1.5s-9.5,8.5-10,11.5s-10.5,24-15,31.5s-26,25-28,28.5
	s-11,10.5-20,14s-18,6-27.5,7s-24,0-26.5,4s-8,1.5-11,10s-9,33.5-12,38s-25,45.5-31,61.5s-33,57.5-34.5,61s-12.5,20-5,23.5
	c0,0,65.5,36.5,67,38s18,10.5,19.5,14.5s2,7.5,2,7.5l9,6c0,0,105.5-102,116.5-135s49-155.5,49-155.5s-12-16.5-15-23
	S1736,1353.5,1735.5,1336.5z"/>
<path id="lapel-right" class="right" d="M1765,1398c-5,0-11,3-15,9s-12,27-13,36s-12,38-17,48s-33,68-44,90s-42,55-47,62s-34,35-42,46
	s-26,26-38,39s-23,18-28,23s-28,21-5,47c0,0,343,396,346,399s198,208,198,208l87-266l-15-21c0,0-165-324-174-339s-140-289-144-296
	S1765,1398,1765,1398z"/>
<path id="collar-left" class="left" d="M2426,1320c0,0,17,21,26,37s18.2,27,26.5,34.5c10.5,9.5,18.5,17.5,29.5,23.5s28,9,35,12
	s9,1,19,10s12,12,16,22s17,29,25,38s78,88,79,92s3,12,3,12v6c0,0-44,32-55,51s-13,24-13,24s-144-119-150-136s-48-117-48-117l-5-23
	c0,0,6-7.5,7-10s4-9,6-19s1-37-0.5-43.5s-1-11.5-1-11.5L2426,1320z"/>
<path id="lapel-left" class="left" d="M2709,1739.5c0,0-22-19.5-29.5-24s-30-24.5-35-30.5s-21-26-24-29.5s-29.5-23.5-32-24.5
	s-25-21.5-31-25.5s-21-22.5-27.5-27s-46.5-75.5-54-86s-26-53.5-30-60.5s-10-20-13-25s-8-5-13-6s-6,5-6,5s-2.5,5.5-5.5,10.5
	s-42,108-43,109.8s-38.5,103.2-38.5,103.2s-19.5,60.5-25,73s-67,194.5-67,194.5s-27.5,60.5-28.5,63.5s-51.5,113-51.5,113l-72,160
	l-49,120l-70,154l-72,170.5l-102,248.5l-7.5,28c0,0,18.5-28.5,21.5-33.5s35.5-52.5,39-57.5s4.5-4.5,14-17.5s66-67,68-69.5
	s41.5-43,43-45s109-120,109-120s31-35,35.5-39s17.5-20,19.5-22.5s37-48.5,46-59s94-119,96.5-121.5s41-48.5,46.5-56
	s119.5-162,129.5-173.5s62.5-83.5,66-90.5s51.5-73,54.5-77.5s76-103.5,76-103.5l53-72.5l18-30.5c0,0,2-5,2-6.5s0-4.5,0-6
	S2709,1739.5,2709,1739.5z M2580.5,1812.5c-0.7,1.7-3.7,2-6.5,1.8s-4.2-1.8-5.5-3.5s-0.5-6.3-0.5-6.3s-2-0.2-4.7-1.5s-6-3.2-8.7-5.2
	s-9-10.7-10.7-12.5s-25.5-32.7-27.3-34.2s-1.2-0.7-1.7-0.7s-2.8-1-3.8-1.5s-2.5-3.7-2.5-5.2s2.7-10.7,3.2-11.3s5-2.8,7.3-4
	s5.2-0.3,6.3-0.3s6.5,1,8.2,1s1.3,2.2,1.3,2.2l-3.8,5.8c0,0,0.3,2,0.8,2.8s11.8,14.8,14.7,19c2.8,4.2,6.3,10.5,7.8,13
	s19,19,20.2,20.5s2.5,4,2.5,4s0.8,2.8,0.8,4.5s0.5,1,2,2.2s1.2,3.2,1.5,4.2S2581.2,1810.8,2580.5,1812.5z"/>
</svg>
