<?xml version="1.0" encoding="utf-8"?>
<!-- Generator: Adobe Illustrator 21.1.0, SVG Export Plug-In . SVG Version: 6.00 Build 0)  -->
<svg version="1.1" id="Layar1" xmlns="http://www.w3.org/2000/svg" xmlns:xlink="http://www.w3.org/1999/xlink" x="0px" y="0px"
	 viewBox="0 0 4160 6240" style="enable-background:new 0 0 4160 6240;" xml:space="preserve">
<pattern id="normal" patternUnits="userSpaceOnUse" width="270" height="270" patternTransform="">
		<image image-rendering="optimizeQuality" preserveAspectRatio="xMidYMid meet" xlink:href="/images/simulator/default/default_tex.jpg" x="0" y="0" width="270" height="270" style="-ms-interpolation-mode: bicubic;" />
  </pattern>
  <pattern id="left" patternTransform="rotate(23)" patternUnits="userSpaceOnUse" width="270" height="270">
		<image image-rendering="optimizeQuality" preserveAspectRatio="xMidYMid meet" xlink:href="/images/simulator/default/default_tex.jpg" x="0" y="0" width="270" height="270" style="-ms-interpolation-mode: bicubic;" />
  </pattern>
  <pattern id="right" patternTransform="rotate(-23)" patternUnits="userSpaceOnUse" width="270" height="270">
		<image image-rendering="optimizeQuality" preserveAspectRatio="xMidYMid meet" xlink:href="/images/simulator/default/default_tex.jpg" x="0" y="0" width="270" height="270" style="-ms-interpolation-mode: bicubic;" />
  </pattern>
<style type="text/css">
	.normal{fill:url(#normal);}
	.left{fill:url(#left);}
	.right{fill:url(#right);}

</style>
<path id="flare-1" class="normal" d="M1620,1751.2c0,0-8.1,28.6-8.5,29.5c-0.3,0.9-40.9,142.9-40.9,142.9s-39,145.9-43.8,173.4
	s-80.2,418-81.4,425.2s-82.6,418-88.6,434.8c-6,16.8-56.3,268.3-57.5,277.9s-47.9,247.9-50.3,258.7c-2.4,10.8-19.2,112.6-26.3,128.1
	c-7.2,15.6-16.8,52.7-18,56.3s-9.6,15.6-4.8,16.8s216.8,34.7,237.1,39.5c20.4,4.8,132.9,20.4,149.7,20.4s35.9,2.4,50.3,1.2
	c14.4-1.2,15.6-1.2,22.8-1.2c7.2,0,12,0,16.8,2.4s12,6,18,7.2c6,1.2,22.8,3.6,22.8,3.6h22.8c0,0,26.3-1287.4,29.9-1305.4
	c3.6-18,50.3-722.2,50.3-722.2l-195.2-3.6L1620,1751.2z"/>
<path id="flare-3" class="normal" d="M2448.5,1772.7c0.1,0,1-0.1,2.8-0.2c21.3-1.4,156.5-10.2,156.5-10.2l18.4,97.4l34.7,175.3
	c0,0,24.8,127.8,25.6,131.3c0.8,3.6,28.3,146.1,28.3,146.1s87,452.3,89.4,457.9s119,614,120.6,616.4s41.5,226,47.1,241.9
	s15.2,58.3,18.4,67.1c3.2,8.8,9.6,17.6,6.4,20s-13.6,7.2-21.6,8s-326.6,48.7-344.9,51.1s-47.9,5.6-59.1,7.2
	c-11.2,1.6-20.8-0.8-32.7-2.4c-12-1.6-68.7-4.8-68.7-4.8s-0.8-178.1-0.8-180.4c0-2.4,3.2-1269.5-6.4-1303.9
	c-9.6-34.3-39.1-518.2-39.1-518.2l26.2,0.3"/>
<path id="flare-2" class="normal" d="M2444.9,1778.6l0.6,1.8l2.4,7.7l10.6,115.2l11.2,108.3c0,0,12.5,133.1,13.3,140.3
	c0.8,7.2,6.9,96.4,7.7,99.8c0.8,3.4,5.8,66.8,5.8,66.8s7.2,95.6,7.2,96.6s5.6,74.8,5.6,76.7s2.4,51.7,3,56.4s1.4,53.5,1.4,58.3
	c0,4.8,1,57.7,0.8,61.2c-0.2,3.4-0.2,88.9-0.2,90c0,1,0,133.6,0,133.6s1,85.4,0.8,89.2c-0.2,3.8,0,86-0.2,89.4s-0.2,104,0,105.6
	c0.2,1.6-1,109.9-1,109.9s-0.8,149.3-1.4,152.5c-0.6,3.2-1.6,112-1.6,113.1c0,1.1-1,60.9-1,63.1s-0.6,75.6-0.6,77.4
	s-1.6,73.2-1.6,76.9c0,3.8,0,9,0,9l-60.7-2.6c0,0-48.1-4-68.1-0.2c0,0-56.5,7-57.5,7.8c-1,0.8-30.5,3.6-36.1,4.8
	c-5.6,1.2-23.6,2.6-27.3,2.8c-3.8,0.2-37.1,2-40.1,2c-3,0-38.5,2.4-40.9,2.8c-2.4,0.4-48.7,1.8-54.3,1.6c-5.6-0.2-50.3-2.4-53.7-2.6
	c-3.4-0.2-37.4-2.6-40.1-3c-2.7-0.5-11.2-1.2-15-1.2s-22.4,1.2-28.1,1.2c-5.7,0-31.8-1.2-39.3-2.4c-7.5-1.2-55.5-3.8-62.3-4.4
	s-69.3-4.8-73.9-5.2c-4.6-0.4-69.5-6-73.1-6.8c-3.6-0.8-30.5-4.8-33.7-5.4c-3.2-0.6-9.6-2.2-9.6-2.2l0.8-36.6c0,0,0.8-73.9,0.8-75.9
	s3.6-184.4,4-186.4c0.4-2,2.4-107.8,2.4-107.8s4.4-140.9,4.4-145.3c0-4.4,1.2-76.7,1.6-80.6c0.4-4,2.4-75.1,2.8-78.6
	c0.4-3.6,1.2-53.9,1.6-56.7c0.4-2.8,1.2-81.4,1.6-89.8c0.4-8.4,2.4-47.1,2-50.3c-0.4-3.2,0.4-26.7,0.4-28.7s2.4-75.5,2.8-77.8
	c0.4-2.4,1.2-45.9,1.2-45.9s4.4-111.8,4.4-115.8s3.6-119,3.6-119s4.8-135.7,5.2-138.9c0.4-3.2,4.4-99.8,5.2-104.2s8.8-80.2,8.8-82.6
	c0-2.4,12.4-121.4,13.2-127s22-183.2,22-188.8c0-5.6,6.4-63.9,6.4-63.9l398-0.4l259.5,1.2L2444.9,1778.6z"/>
<path id="belt" class="normal" d="M1683.6,1617.8c-1.2,1.2-14,6-17.2,6.8c-3.2,0.8-8,1.2-8,4s0.8,1.2,0.4,6.4
	c-0.4,5.2-38.7,116.2-39.5,117.8c-0.8,1.6-2.4,6-2.4,6s131.7,13.2,138.9,13.6c7.2,0.4,68.3,3.6,86.6,4.8
	c18.4,1.2,157.3,3.2,164.9,3.6c7.6,0.4,268.3-1.2,275.1-0.4c6.8,0.8,192.8,0.4,202,0c9.2-0.4,58.7-2.4,66.7-2.8
	c8-0.4,58.3-4.8,58.3-4.8l-5.2-29.5c0,0-12.4-67.9-12.8-69.1c-0.4-1.2-0.8-3.2-0.4-5.2s1.6-2,1.2-4.8c-0.4-2.8-1.6-5.6-3.6-8.8
	s-5.6-7.6-8.4-8c-2.8-0.4-5.6-1.6-7.6-1.6s-1.2,2-5.6-1.6c-4.4-3.6-4.4-4.8-8.8-6c-4.4-1.2-21.6-4.4-21.6-4.4s-57.5-3.6-61.9-3.6
	c-4.4,0-90.2-9.6-99-9.6c-8.8,0-100.6-6-111.8-6c-11.2,0-127.8-2.4-140.9-2c-13.2,0.4-82.2,0-89.8,0s-76.7-0.8-83.4-0.8
	s-71.5-0.8-94.2,0c-22.8,0.8-58.3-0.4-70.7,0.4c-12.4,0.8-58.3,2.4-70.7,4s-23.6,2.4-24.8,2.4
	C1688.4,1618.6,1683.6,1617.8,1683.6,1617.8z"/>
</svg>
