<?xml version="1.0" encoding="utf-8"?>
<!-- Generator: Adobe Illustrator 21.1.0, SVG Export Plug-In . SVG Version: 6.00 Build 0)  -->
<svg version="1.1" id="_x31__1_" xmlns="http://www.w3.org/2000/svg" xmlns:xlink="http://www.w3.org/1999/xlink" x="0px" y="0px"
	 viewBox="0 0 4528 6952" style="enable-background:new 0 0 4528 6952;" xml:space="preserve">
<style type="text/css">
	.st0{fill:#E9F4F3;}
	.st1{fill:#A5B5B4;}
	.st2{fill:#3B5B58;}
	.st3{fill:#CBF7EE;}
	.st4{fill:#839694;}
	.st5{fill:#C7D1CF;}
	.st6{fill:#838E8C;}
</style>
<path id="pants" class="st0" d="M1520,4176.5c0,0,10,103,11,112s14,233.5,16,249s1.5,32.5,1,36s10.5,218,11,224s-0.5,21.5,2.5,29
	s5,19.5,6,24.5s3.5,10,2,16.5s-4.5,21-4.5,28s6.5,70,8.5,78s0.5,28.5,0.5,37.5s-2,24-2,31.5s2,57.5,2.5,65s-1,24,1,32.5
	s2.5,17.5,3,26.5s-0.5,23,0,29.5s9,134,9.5,149.5s9.5,291,11,300s5,54,5.5,60s6.5,187,6.5,192s5,151,5,158.5s8,38,32,47
	c0,0,32.5,14.5,45.5,16s46.5,6,58,6s62-2.5,65-3s11.5-4,11.5-4s9.5-10,12-13s10-11.5,10-11.5s6.5-133.5,6.5-135s15.5-353,15.5-353
	s5.5-236,6-247s9-191,10.5-199s9.5-129,9-132.5s24-383.5,24-385c0,0,9-133.5,14-163.5c0,0,16.5-134,17.5-136s43-284.5,43-284.5
	s16.5-123.5,18-128.5s14-84,14-84s7.5,23,13,35s9,16,10.5,21.5s17,88.5,19,93.5s20.5,84,22,93s27.5,142.5,28,145.5
	s21.5,131.5,25,144s7.5,27.5,10.5,36.5c0,0,5,6,6,21.5s11,72.5,11.5,75c0,0,5,46,7,56.5s10.5,56,11.5,69s9,50,9.5,54.5
	s13.5,125,15.5,135s30.5,314,30.5,322c0,0,7.5,90.5,9,107.5s6.5,81.5,7,90.5s5,57,6.5,70s6,45,6.5,55s1.5,164,2.5,172.5
	s6.5,153,8.5,169.5s7.5,135,8.5,146.5s4.5,113,6.5,118.5s2.5,7.5,4,11s16,34.5,20,35.5s46.5,9,56,10.5s32.5,9,41.5,7s37.5-12,48-14
	s45-12.5,50.5-14.5s9-0.5,9.5-5.5s1-13,0-18.5s-2.5-94-2.5-107s4-182,4-189.5s4.5-149,4.5-156.5s4.5-131,5-145.5s7-255.5,7-263
	s5.5-103.5,4-118s3-68.5,3-68.5s3.5-74,4-77.5s3.5-73.5,4-82s-0.5-28-0.5-32.5s3.5-98,3-100.5s1-99,1.5-104s1.5-51,1-62.5
	s-5-69-4-76.5s1.5-78.5,1.5-91.5s5-125.5,5.5-135s3-57,3-63.5s2.5-42,2.5-42l-5.5-7c0,0-3,4-13,5s-20-2-21-6s-6-17-6-17s-2-8-9-6
	s-23,4-23,4s-6-2-10-11s-6-26-6-26s-1-16-4-15s-23,4-26,4s-10,0-13-11s-9-30-8-35s5-19,7-32s-1.4-642.4-1.4-642.4l-796.5,28.5
	L1605,3892c0,0,38,64,42,79s21,83,22,93s1,35,1,35l-14,4c0,0-8,17-11,21s-18,15-23,15s-28-12-30-2s-3,20-9,24s-34,6-37,5s-11-2-11-2
	L1520,4176.5z"/>
<path id="body-right" class="st1" d="M2028,3235.8c-5-26-38-216.5-34-234s33.5-94,27-107s-37-92-41-112.5c0,0-43.5-196.5-47-208
	s-52.5-215.5-56-223.5s-63-296-63.5-313s-10-95.5-10-95.5s-37.8,27.3-47,31.5s-34.2,14.2-36.2,15s-5.8,1.5-5.8,1.5
	s-32.2,15.5-34.2,16.5s-61.5,21.8-69.2,24.8c0,0-84.8,25.8-91,28s-47,12.8-74.5,17.5c-1.2,0.8-48,10.8-54,13.5s76,362.8,78.5,370.5
	s9.5,83,11,91.5s21,165.5,24,169.2s6,4.8,6,4.8s14,37.7,16.2,42.9s17.5,46,19,53s13.2,79.5,15.2,100.5c0,0,4,39.2,4.8,47.5
	s3,24.8,3.5,28.8s3.2,59.2,3.5,65.2s-6,83.8-7,93s-14.5,85.8-15.5,90.8s-9.8,45.8-10,50.5s0.8,9.8-1,15.2s-6.8,21-7.8,23.5
	s-5,22-6.5,32.5s-5,15-5.2,28.5s1.5,208,5.2,225.5s33.2,173.5,36.5,178.2l13.7,18.7c0,0,11.3,21.3,12.7,24.7
	c1.3,3.3,10.7,64.7,21.3,70.7c10.7,6,19.3,24,26.7,40.7c7.3,16.7,16,52,16,54s8.7,12,8.7,12l18,2.7c0,0,49,0.7,56.3,0.7
	s75.7,0.7,109-45.7c0,0,14.3-16.3,23-29s52.7-106,56.7-117.3s32-100,35.7-110.7s26.7-91,28-95c0,0,13.8-56.8,16.3-64.3
	s16-66,17-75.5s21.5-74.5,21.5-92S2033,3261.8,2028,3235.8z M1994,3349.2c-17.3,0-29-13.7-29-31s13.5-30.5,30.8-29.5
	c17,1,25.2,12.7,25.2,30S2011.3,3349.2,1994,3349.2z"/>
<path id="lapel-right" class="st2" d="M1837,2007.7c0,0-6-52-12.7-50.7s-17.7,11.3-21,14.3c-2,1.8-70.7,48.3-77,51
	s-17.3,12-23.3,15.3s-28.7,15.3-40.3,20c-11.7,4.7-14.3,6-14,12.3s27.7,97.7,28.7,100.7s50.3,145.7,53.7,154.3s67.7,184,69,186.7
	c-3.5,2.2,100.9,236.8,104,242.7c2.7,5,62.3,112.7,64,116.7c1.7,4.2,47.3,71.7,47.3,71.7l28.3-24.3c0,0-46-128-48.3-136
	s-26.3-115.7-27.7-121.7c-1.3-6-37.3-168-41.3-176.3c-3.4-7.1-40.7-182.7-41.7-187.7s-27.3-153.3-28.3-159.3s-19-126.7-19.3-129"/>
<path id="body-left" class="st3" d="M2538.2,3294c-1.2-2.2-16.7-35.9-17.2-37.2s-14.2-36.8-14.6-38.4s-20-76.7-21.4-84.7
	c0,0-23.3-122-22-151.7c0,0,2.3-100.7,7.7-122c0,0,19.7-112.7,21-118c1.3-5.3,2.7-22.3,6.7-29.7c4-7.3,26-49.3,26-49.3l41.3-135.3
	c0,0,56.7-410,56.7-412.7c0-2.7-3.3-23.3-3.3-23.3s-1.8-6.2-3.2-7.2s-9.2-4-9.2-4s-14.2-4-20.8-5s-86-22-92-23.2
	s-105.8-31-117.2-35.2c0,0-53.8-18.5-56.2-19.3c-2.3-0.8-38.8-17.8-45.5-19.8s-25.7-13.7-32-15c-6.3-1.3-58.5,3.2-58.5,3.2
	s-48.3,367-53.3,394c0,0-92,386-93,394s-32,125-34,134s-18.7,65.7-19.3,69.7c-0.7,4-6.3,46.3-5.7,57.3s7.3,93,8,98s7.3,68.3,10,82
	s19.9,115.6,21.2,123.2c1.3,7.7,9.4,53.8,11.1,64.8s14.3,77.3,15.7,86c1.3,8.7,24.8,108.2,27.3,117.3c2.7,9.7,19.7,87.7,21,94
	s31.3,120.7,33.7,127c0,0,33.3,93,41,107s45,80.7,74,90c0,0,34,10.7,58,11.3c24,0.7,129.3-9,129.3-9l45-9c0,0-1.7-41,3-49.3
	s26.7-73,29-76.7s96.7-80.6,96.7-80.6l-39-478.5C2564.1,3312.6,2539.3,3296.2,2538.2,3294z M2026.6,3034.7
	c-16.9,0-30.6-13.8-30.6-30.8s13.7-30.8,30.6-30.8c11.8,0,22,6.7,27.1,16.6l0,0c0,0,7.9,15.3-1,30.4
	C2047.3,3028.8,2037.6,3034.7,2026.6,3034.7z M2308,2096.4c0,0-0.6,0.6-4.3,0s-7.3-2.4-11-4c-3.7-1.5-15.6-5.8-18-7.3
	s-8.5-4-12.8-7.3c-4.3-3.4-6.4-5.2-6.7-6.7s-0.9-1.5-0.9-2.7s0-1.2,0-1.2l2.4-0.6l4.3,1.5c0,0,1.8,2.1,2.7,2.7
	c0.9,0.6,7.9,4.3,11.3,5.8c3.4,1.5,20.4,7.3,22.3,8.5c1.8,1.2,6.4,2.4,7.6,3.7s1.2,0.9,2.4,2.4s1.5,1.8,2.4,3.1
	C2310.7,2095.5,2308,2096.4,2308,2096.4z"/>
<path id="arm-right" class="st4" d="M1396.7,2089c0,0,41.3,76.5,43.3,94c1.8,15.7,27.5,104.5,27.7,121.3
	c0.2,17.3,19.7,101.7,21.3,110c1.7,8.3,22.7,303.3,22,307s-3.3,22-4.3,25.7s-1,13.7-0.7,19.3c0.3,5.7,4,125.7,4,128s3.3,81.7,3.3,87
	s2.7,59,2.7,66s2.3,72.7,2.3,81.7s-1,39-1,44.3s1,109,1,115.7s1.7,59,3,68s1.7,25,2,31.3s4,26.7,4.7,32.7s30,165.5,30,169.5
	s39.5,170.7,41.5,184.5c2,13.5,18,79,18,79s-28.5-41.5-43.2-33.7c-2.1,1.1-29,4.3-38,6s-57.3,11.3-68,12.7
	c-10.7,1.3-81,17.7-87.7,19s-45.7,9-46.7,10.7s0.7,19-0.3,22.3s-3,7.7-3,7.7s-0.3,3.7-3,1s-7.3-8-10-13.7s-4.3-6.3-4.7-8.3
	s-3.3-63.7-3.7-67.3c-0.3-3.7-4.3-54.9-4.3-63c0-5.3-1-14.7-2-18.7c0,0-2-13.3-3.3-19.7c-1.3-6.3-7-39.3-7.3-44.3s-1.3-24-2.7-30.7
	c-1.3-6.7-6.7-30.7-7.3-36.3c-0.7-5.7-11-73.7-12.3-80.3c-1.3-6.7-17.3-118.3-18.7-125.7c-1.3-7.3-12.7-82.7-14.3-91.3
	c-1.7-8.7-5-42-6-53s-6.7-91-7.7-98.3s-3.7-67.7-4.3-73s5.3-137,5.3-146.3s5.7-136,5.3-143.7c-0.3-7.7,12-152.3,12.3-157.3
	s12-96.3,14-106s10-64.3,11-72.7s16.3-76,17-79.7s3.7-14,4.7-17s18.3-68.3,18.7-71.7c0.3-3.3,11.3-45.3,11.7-48.3s8.3-46.7,9.7-51
	c1.3-4.3,12-52.3,23.7-68.3C1364,2098,1377.3,2086.3,1396.7,2089z"/>
<path id="collar-right" class="st1" d="M1818.3,1890c0,0-5.7,3-9.7,6s-12.7,15.7-15.7,23.7s-3,9.7-4.3,13s-41.7,38.3-48,41
	s-32.3,14.7-38.3,17.3s-31,16-31,16l-3.3,4c0,0-0.7,3,2,4.7s38,12.3,40.3,13s13,3.3,13,3.3s68-39.3,72-42.7c4-3.3,32-29,32-29
	S1806.7,1908.7,1818.3,1890z"/>
<path id="arm-left" class="st5" d="M2606,2081.3c0,0,14,5.3,16.7,7.7c2.7,2.3,12.3,9.3,14.7,11.7c2.3,2.3,6,6,7.3,9
	s23,72.7,24.3,78.7s38.3,145,39.3,149.7s34.3,136,35.7,140.7c1.3,4.7,29.3,118,30.7,121.3c1.3,3.3,18.3,105.3,20,120.3
	s13,132.7,13.7,142s3.3,67,3.7,75.3c0.3,8.3,7,177.3,7.7,185.3s0.7,144,1.3,155.3c0.7,11.3-4,130-3.3,149.3s0,38.7-2,46.7
	s-4.7,35.3-6,40.7c-1.3,5.3-7.3,22.7-7.3,41.3c0,18.7-2.7,42.7-3.3,54c-0.7,11.3-2.7,42-4,46.7s-2,26.7-2,30s-2,125.3-2,132
	s0,34-0.7,38s-4.7,20.7-8,25.3c-3.3,4.7-8,8-8,8s-0.7-5.3-2.7-8s-3.3-0.7-2.7-6c0.7-5.3,2.7-9.3,2.7-14s-0.7-7.3-0.7-7.3
	s-16-7.3-20-7.3s-67.3-8.7-92-10.7s-96-8.7-114.7-8s-23.3,0-32,2.7s-12,4-14,5.3s2.7-2,2.7-2s32.7-321.3,38-374s2.5-158.2,2.5-162
	s-0.8-43-0.5-45.2s2-93.2,2-95.2s1-36.2,1-40.5s-1-24-1.8-27s-1.8-52-1.8-55.5s-0.8-78.2-0.5-83s-1.5-61.2-1.2-65.8s-0.5-33-0.5-38
	s-2-41-2.2-45s-2-56.8-2-58.8s-1.8-14.5-1.8-19s-4-45-7.5-58.2c0,0,2.2-179.8,2.2-184.5s1.8-61.8,2-65.5s7.2-73.2,8.8-82.8
	s9.9-49.2,8.5-57.2c-1.2-7.4,5.1-56.1,7.1-64.1s24.2-73.2,24.9-76.2s13.2-37.8,15-41.2S2602,2081.9,2606,2081.3z"/>
<path id="collar-left" class="st1" d="M2178.3,1891.3c0,0,12.3,16.7,1.3,57.7l-1.7,10.3l81.3,58l35,17.3l1.7-6.2
	c0,0,24.7-9.2,28-10.5s19.5-12,19.5-12s-45.2-16-47.8-17.3c-2.7-1.3-13.7-8.3-17-9s-14.7-3.3-19.7-7s-22.7-18.3-27.7-22.7
	s-10.3-5.7-12.3-8.3c0,0-6.7-4.7-9-10.7S2190,1897.7,2178.3,1891.3z"/>
<path id="lapel-left" class="st6" d="M2354.3,2050c-3.3-1.3-51-18.3-61-23.3s-59.7-38.3-65.3-44.3s-48.3-28.7-48.3-28.7
	s-2,1-3.3,4.3s-4,16-5.7,23s-3.7,19.7-3.7,24s-3,35.3-3.3,38.3s-4.3,29.3-4.3,29.3c-1,6.3-13,87.7-13.7,93.3
	c-0.7,5.7-26.7,165.3-28,171.3s-20.7,95-22.3,101.7c-1.7,6.7-27.7,142-30,148s-24.7,126.7-26,132s-38.7,166-40.7,172.7
	s-8.3,45.3-8.3,45.3s6-15.3,8.7-24.3s13-42.3,15.7-47s42.7-73.7,42.7-73.7c2.7-4,94.7-194,98.7-201s54-130.3,58-139
	s53.2-128.8,53.5-130.5s47-118,48-121s47.8-132.5,47.8-132.5l0.3-3.7l0.7-3C2364.3,2061.3,2359.3,2052,2354.3,2050z M2308,2096.4
	c0,0-0.6,0.6-4.3,0s-7.3-2.4-11-4c-3.7-1.5-15.6-5.8-18-7.3s-8.5-4-12.8-7.3c-4.3-3.4-6.4-5.2-6.7-6.7s-0.9-1.5-0.9-2.7s0-1.2,0-1.2
	l2.4-0.6l4.3,1.5c0,0,1.8,2.1,2.7,2.7c0.9,0.6,7.9,4.3,11.3,5.8c3.4,1.5,20.4,7.3,22.3,8.5c1.8,1.2,6.4,2.4,7.6,3.7s1.2,0.9,2.4,2.4
	s1.5,1.8,2.4,3.1C2310.7,2095.5,2308,2096.4,2308,2096.4z"/>
</svg>
