<?xml version="1.0" encoding="utf-8"?>
<!-- Generator: Adobe Illustrator 22.1.0, SVG Export Plug-In . SVG Version: 6.00 Build 0)  -->
<svg version="1.1" id="Layar1" xmlns="http://www.w3.org/2000/svg" xmlns:xlink="http://www.w3.org/1999/xlink" x="0px" y="0px"
	 viewBox="0 0 4160 6240" style="enable-background:new 0 0 4160 6240;" xml:space="preserve">
<pattern id="normal" patternUnits="userSpaceOnUse" width="270" height="270" patternTransform="">
		<image image-rendering="optimizeQuality" preserveAspectRatio="xMidYMid meet" xlink:href="/images/simulator/default/default_tex.jpg" x="0" y="0" width="270" height="270" style="-ms-interpolation-mode: bicubic;" />
  </pattern>
  <pattern id="left" patternTransform="rotate(23)" patternUnits="userSpaceOnUse" width="270" height="270">
		<image image-rendering="optimizeQuality" preserveAspectRatio="xMidYMid meet" xlink:href="/images/simulator/default/default_tex.jpg" x="0" y="0" width="270" height="270" style="-ms-interpolation-mode: bicubic;" />
  </pattern>
  <pattern id="right" patternTransform="rotate(-23)" patternUnits="userSpaceOnUse" width="270" height="270">
		<image image-rendering="optimizeQuality" preserveAspectRatio="xMidYMid meet" xlink:href="/images/simulator/default/default_tex.jpg" x="0" y="0" width="270" height="270" style="-ms-interpolation-mode: bicubic;" />
  </pattern>
<style type="text/css">
	.normal{fill:url(#normal);}
	.left{fill:url(#left);}
	.right{fill:url(#right);}

</style>
<path id="belt_x5F_2" class="normal" d="M1677.7,351c0,0-69.4,124.5-70.4,127.2s-12,24.2-12,24.2s43.2-5.5,45.5-5.8s88-5.2,98.5-4.2
	s150.2,5.5,150.2,5.5l136.2,5l179.7,3.3c0,0,188,4,191.3,4c3.3,0,178,3,185,2.7s202.7-1,210.3-0.7c7.7,0.3,30.3,0.7,56,5.7l22.3,4.7
	l-33-84.7c0,0-20.7-51-22-54.3c-1.3-3.3-4.3-7.7-4.7-14c-0.3-6.3-0.7-11.3-0.7-11.3s-33.3-12.7-50.3-15c-17-2.3-132-4.7-149-4.3
	s-120,0-120,0l-244-6l-246.3-3.7L1686,342L1677.7,351z"/>
<path id="belt_x5F_1" class="normal" d="M1692.5,326l-17,29l28.5-5c0,0,70.5-9.5,165.5-10.5L2119,340l210.5,3.5l198,4l175.5,3
	c0,0,52.5,4,59.5,4s39.5,5.5,41.5,6.5s7.5,3,7.5,3s6-23.5-24-30.5c0,0-27.5-4.5-30-5s-35-2.5-43.5-2.5s-68.5-1-93-2s-147-5-147-5
	s-187.7-5.3-199-4.7c-11.3,0.7-146.7-6-150-6s-80.7-1.3-96.7-0.7c-16,0.7-70,3.3-85.3,2c-15.3-1.3-125.3,4-140.7,4
	C1787,313.7,1704,318.3,1692.5,326z"/>
<path id="skirt" class="normal" d="M1596.7,500.7c0,0-17,32.3-17.7,34.7c-0.7,2.3-40.7,111-40.7,111s-43.3,125.7-43.7,127
	c-0.3,1.3-26.3,91-26.3,91s-26.3,91-27.3,97.3c-1,6.3-21,96-21.3,98.3c-0.3,2.3-18,89-18,90s-14,114.3-14.3,121
	c-0.3,6.7-7,111-6.7,115.3c0.3,4.3,3.7,114.7,4,118.7c0.3,4,6.7,77,6.7,78s15.3,221.3,15.3,223s10.3,140,10.3,140
	s15.3,249.7,15.3,253s35.3,568.7,35.3,570.7s9,291.3,9,294.7c0,3.3,0,12,0,12l3,1.3c0,0,37-2,49-2.3c12-0.3,46.3-0.7,50-0.3
	c3.7,0.3,7.7,2,10.7,2s16.3,1,31,1c14.7,0,104.3,0,104.3,0s123,0,129.3,0.7c6.3,0.7,69.7-0.7,69.7-0.7s65.7,0.5,70.7,0.7
	c5,0.2,87.2,0.2,90.5,0c3.3-0.2,120-0.8,120-0.8l145.2,0.8c0,0,256.5,1.8,261,2.3s97.5,5,108.5,4.5s51.5,1.5,55.2,1.8
	c3.7,0.3,88-1.3,93-1.7c5-0.3,46.3-0.3,46.3-0.3s2-2,2-3.3s1.7-8.7,1.7-8.7l9-112.7l9.3-112l8-88.7l13-164.7l12.3-141l2.3-40.7
	l7.3-87.7l5-60l7-82.3l6.3-75.3l6.7-80.3l6.3-66l3.7-57l4.7-57.3l6.3-67.3l4.7-59.7l6.7-77l4.3-55.7l9.7-118c0,0,1-31,1.3-32
	c0.3-1-0.7-66.3-1-70c-0.3-3.7-3-96.3-3.7-102.7c-0.7-6.3-14.7-133.3-14.7-134.3s-13.7-92-13.7-92s-14-96-15-98.3
	c-1-2.3-14.3-59-15-61.3c-0.7-2.3-31.3-113.7-32-114.7c-0.7-1-43.7-126-43.7-126l-49.3-132.3c0,0-101.7-20.3-121.7-20.3
	s-238,0-238,0h-899L1596.7,500.7z"/>
</svg>
