<?xml version="1.0" encoding="utf-8"?>
<!-- Generator: Adobe Illustrator 21.1.0, SVG Export Plug-In . SVG Version: 6.00 Build 0)  -->
<svg version="1.1" id="Layar1" xmlns="http://www.w3.org/2000/svg" xmlns:xlink="http://www.w3.org/1999/xlink" x="0px" y="0px"
	 viewBox="0 0 4160 6240" style="enable-background:new 0 0 4160 6240;" xml:space="preserve">
<style type="text/css">
	.st0{fill:#9A9E9E;}
	.st1{fill:#BBBCBC;}
	.st2{fill:#616666;}
	.st3{fill:#C2C4C4;}
	.st4{fill:#D1D3D3;}
</style>
<path id="body-right_1_" class="st0" d="M2086.1,4210.5c-6-24-39-100.5-39-106.5s12-655.5,12-655.5l6-703.5c0,0,3-199.5,4.5-204
	s48-148.5,51-153s-16.5-12-21-18s-93-150-93-150s-235.5-582-244.5-603s-82.5-190.5-82.5-190.5s-42.1,33.8-46.1,36.6
	s-72.5,24.1-72.5,24.1l-48.7,24.3c0,0-34.8,14.8-42.7,17.3c-7.8,2.5-77.7,28-82.7,31.5s-61.5,23-70,24.5s-40,11.5-54.5,15.5
	s-4.5,2.5-23,5s-32,7.5-37.5,8.5s-18,2-18,21.5c0,0-1,44.5,0.5,62.5s13,71,13,71s31,171.5,32,182s10.5,99.5,12,111
	s8.5,103.5,9.5,124.5s-0.5,148-1.5,177s-14,154-17.5,172.5c0,0-22.5,108.5-41.5,148c0,0-26.5,67.5-42.5,86.5c0,0-21.5,23.5-23,26.5
	s-3,4.5-1.5,6s30,110.5,31.5,125.5s24.5,203,25,229.5c0,0,10.5,109,11.5,128s9.5,162.5,10,171s2,171.5-1,201s-18,166.5-18,170.5
	s-29.5,219.5-39.5,252c0,0-22.5,118.5-26,124.5s-9.5,39-11,42.5s-4.5,9-5.5,11s-3.5,7-1.5,11.5s1.5,9,3.5,7.5s1,0,5-3.5s4-3.5,4-3.5
	l4-3c0,0,48.5,23,63,29s67,31.5,81,38s102.5,42,125.5,47s110.5,36.5,127.5,41.5s46,15,46,15s173,54.5,177.5,56s30.5,13,43,19
	s110.5,52.5,116.5,56s56,27.5,60.5,29.5s41.5,23,57.5-10c2-0.5,57-107.5,57-107.5l73.5-141l8.1-18.5
	C2152.1,4321.5,2092.1,4234.5,2086.1,4210.5z M2025.4,4339c-22.2,0-40.1-18-40.1-40.1c0-22.2,17.6-41.1,39.8-41.1
	c27.2,0,41.5,20.1,41.5,42.2C2066.5,4322.2,2047.5,4339,2025.4,4339z"/>
<path id="body-left" class="st1" d="M3009,4237.7c-2.7-14-27.3-115.3-32-127.3s-20.7-67.3-20-242.7c0,0-2-92-2-104
	s-3.3-45.3-22.7-100c0,0-28.7-76-21.3-133.3c-0.7-5.3,14-224.7,14-224.7l19.3-217.3c0,0,14-112.7,14-122s5.3-43.3,7.3-48
	s6-20.7,7.3-27.3s4.7-28.7,4.7-36s4-35.3,4.7-38s0.7-4.7,0.7-4.7s-3.3-15.3-9.3-36.7c-6-21.3-11.3-32.7-12-39.3
	c-0.7-6.7-11.3-105.3-11.3-105.3l-26-272c0,0-4-123.3-4-136s5.3-148,6-166.7s20.7-350.7,20-356s-2.7-30.7-4.7-36.7
	s-22.7-38.7-51.3-44c0,0-48-9.3-64.7-14.7c-16.7-5.3-53.3-18.7-66-24.7s-66-24-80-27.3s-21.3-10.7-27.3-12.7s-30-11.3-32.7-12.7
	c-2.7-1.3-34-15.3-34-15.3l-73.6-4.7l-163.5,429c0,0-251.7,521.7-257.1,526.4s-33.2,76-33.2,76c-1.2,3-15.2,47.2-15.8,51.8
	s-1,7.8-1,8.8s-0.2,88.8-0.2,93s-0.5,54.8-1,61.8s-3.8,96.2-3.8,96.2s2,179,2,184s1.5,153.5,1.5,156s0,98,0,98s4.5,233.5,4.5,238
	s-0.2,95.2-0.2,101.2s-1.1,52.2-1.3,56s-1.2,52.6-1.8,58.8s-0.8,31.2-0.8,32.5s-1,86-2,98s-6,68.5-6.5,76.5s-0.5,68.5-0.5,75
	s-0.8,43.8-0.8,50.8s-0.2,26.5,0.5,33.8s6.2,40.2,9.5,48.2s14.2,38.8,14.2,38.8s12.8,22.2,13.2,23.8s32.8,62.2,34.2,65.2
	s36.5,64.5,36.5,64.5l1.2-1.8l9.8,15.8c0,0,90,141.5,94,147s41,63,43,66s21,26.5,25.5,31.5s13,14,26.5,8.5s176-78.5,180.5-80
	s142-66.5,158-71.5s111.5-48.5,114-50.5s68.2-34.2,77.5-38.8s43-20,50.2-24.8s57-34.8,61-37s13-7.8,13-7.8s5.8-10.2,7.5-12.8
	c0,0,6.2-7,8-9.5s3.2-7.2,3.2-10c0,0,0-1,0.2-5.8S3011.7,4251.7,3009,4237.7z M2186.3,3221.8c0,0,6.1,9,3.4,28.6
	c-4.5,17.6-20.9,30.6-40.4,30.6c-18.8,0-34.7-12.1-39.9-28.8c-1.6-17.8,2.6-29.8,2.6-29.8c6.8-13.3,21-22.4,37.3-22.4
	C2165.4,3200,2179.3,3208.8,2186.3,3221.8z M2129.5,3777.4c0,0,8.2,19.5,8,24.5c0,0-0.8,17.5-18,17.8c0,0-22,3.8-23.8-19.8
	c0,0,1-10.2,8.2-17.2c0,0,1-59.2,1.2-61s-1.1-30.5-1.1-30.5s6.8-5.5,15.8-4.8s12,2.5,12.2,4l-3,83L2129.5,3777.4z M2168.5,2918.1
	c-7.9,9.7-19.9,15.9-33.5,15.9c-23.7,0-43-19.3-43-43s19.3-43,43-43c13.5,0,25.5,6.3,33.4,15.9l-0.4,0.1c0,0,16,29,0,54
	L2168.5,2918.1z M2131.8,2503.3c14.7,0,27,7.3,34,18.6c2.8,6.6,11,29.5-0.8,48.1c0,0,0.1,0,0.2,0.1c-7.2,10.9-19.1,17.9-33.3,17.9
	c-23.2,0-41.1-18.6-41.1-42.4C2090.7,2521.8,2108.5,2503.3,2131.8,2503.3z M2199.4,3949.6c-2.8,21.7-21.3,38.4-43.7,38.4
	c-22,0-41.1-14.7-43.8-36.8c-0.1-19.8,4.9-28.5,4.9-28.5c6.8-13.5,20-22.6,38.9-22.9c16.4-0.3,30.7,8.7,38.3,22.1
	C2194,3921.9,2199.8,3934.2,2199.4,3949.6z M2162.9,3639.5c-18.2,0-33.6-13.7-38.5-32.5l0.4-26.8c5.2-18.1,20.4-31.2,38.2-31.2
	c17.3,0,32.1,12.4,37.7,29.7l0.6,28.7C2196.3,3626,2181,3639.5,2162.9,3639.5z M2506.8,2015.7c-1.3,1.7-4.3,4.5-5.8,5.2
	s-2.3,2.5-5.3,0.7c-3-1.8-16.8-13.5-18.5-16s-41.7-52.5-42.8-54.8c-1.2-2.3-10.5-12.3-12.8-14s-7.5-5.8-8.5-7.2c-1-1.4-4.8-12,3-16
	c2.1-1.1,5.7-0.8,8.7,0.5c3,1.3,10.7,7,14.3,10.3c3.7,3.3,24.5,30.5,27.5,34.5s28.2,37,31,39.7c2.8,2.7,9.2,9.2,9.7,10.7
	S2508.2,2014,2506.8,2015.7z"/>
<path id="collar-right" class="st2" d="M1705.5,1386.5l-16.8,5.8c0,0-4.2-1.2-10,14.5c0,0-10.5,26.8-27.2,34.8
	c0,0-32.5,17.5-36.2,19.5s-60.5,28.8-63.2,31.8s-20.8,12.5-31.2,37.5c0,0-7,22-9.2,39l-10.2,76.2c0,0-11.6,101.5-11.6,103.5
	s-3.3,49.3-3.3,49.3s1,10.3,9.5,13.3c7.5,2.6,73.2,30.3,82,37.8l26.2,16.8l176.7-265l-17.3-36.3c0,0-38-73-41.7-81.7
	c0,0-14.3-33.3-14.7-34.7c-0.3-1.3-6.7-25.3-5.3-38.3C1701.7,1410.3,1703.3,1390.3,1705.5,1386.5z"/>
<path id="lapel-right" class="st3" d="M1777,1592l-170,262.5c0,0-29.5,43.5-30.5,45.2s-17,23.4-17.9,25s-34.5,45.6-35.4,46.5
	s-1.9,1.6-2.2,2.2s-1.8,4.4,5.2,9.2c0,0,112.5,105,117,110.2l46.5,45.5c0,0,57.2,53.5,59.9,55.8c2.7,2.3,62,54,64,56.3
	s61.2,52.8,61.7,53s123.7,93.3,132.7,99.8s41,27,48.5,33.5s35,26,35,26l42-78l-12-18.5l-10.5-11c0,0-5.5-10.5-8.5-13.5
	s-45-96.5-47.5-98s-74-162-74-162s-94.5-227-97.5-233.5s-84-210.5-89-220.5L1777,1592z"/>
<path id="collar-left" class="st3" d="M2423,1412.3c0,0,7.3,26.2,8.4,33c1,6.6,2.2,16.3,0.2,32.3s-30,85.3-30.7,87.3
	s-25.3,49.3-25.3,49.3l-2.7,10.7l198,250.7l5.3-2l1-4l13.8-12c0,0,51.3-25.8,62.5-31.2c11.5-5.5,32-13.5,32-13.5s-7-32-8.7-36.7
	s-14-59.7-15.7-66.3c-1.7-6.7-4.3-23.3-5.7-29c-1.3-5.7-19-64-19.7-66.7s-28.7-89.3-30-92.3s-1.3-3-1.3-3s-7-4.3-14-8.7
	c-7-4.3-47.7-23-54.7-24.3c0,0-42.7-17.6-48.7-19.4s-24.2-16.1-25.3-17.1s-20.1-23.4-21.8-25.8c-1.8-2.4-12.8-10.4-14.3-10.9
	S2423,1412.3,2423,1412.3z"/>
<path id="lapel-left" class="st4" d="M2657.5,1970.5c0,0-58-72.5-59.5-74S2492.5,1760,2485.5,1752s-109-136.5-109-136.5
	s-16,40-17.5,45s-49.5,162.5-49.5,162.5s-45.5,150-46.5,153.5s-22.5,63-24,66.5s-42.5,95.5-42.5,95.5L2123,2325l-65.5,212.5l2,0.5
	c0,0,2.5-5.5,9.5-15s87.5-87,91.5-91s21-18.5,25-21.5s22-14.5,34-23.5s118.5-89.5,121-92.5s17.5-14.5,22.5-19.5s91-80.5,99-86
	s23-21.5,29.5-29.5s81-82.5,84.5-87s88-90,88-90l0.5-4L2657.5,1970.5z M2506.8,2015.7c-1.3,1.7-4.3,4.5-5.8,5.2s-2.3,2.5-5.3,0.7
	s-16.8-13.5-18.5-16s-41.7-52.5-42.8-54.8c-1.2-2.3-10.5-12.3-12.8-14s-7.5-5.8-8.5-7.2s-4.8-12,3-16c2.1-1.1,5.7-0.8,8.7,0.5
	s10.7,7,14.3,10.3c3.7,3.3,24.5,30.5,27.5,34.5s28.2,37,31,39.7s9.2,9.2,9.7,10.7S2508.2,2014,2506.8,2015.7z"/>
</svg>
