<?xml version="1.0" encoding="utf-8"?>
<!-- Generator: Adobe Illustrator 21.1.0, SVG Export Plug-In . SVG Version: 6.00 Build 0)  -->
<svg version="1.1" id="Layar1" xmlns="http://www.w3.org/2000/svg" xmlns:xlink="http://www.w3.org/1999/xlink" x="0px" y="0px"
	 viewBox="0 0 4160 6240" style="enable-background:new 0 0 4160 6240;" xml:space="preserve">
<pattern id="normal" patternUnits="userSpaceOnUse" width="270" height="270" patternTransform="">
		<image image-rendering="optimizeQuality" preserveAspectRatio="xMidYMid meet" xlink:href="/images/simulator/default/default_tex.jpg" x="0" y="0" width="270" height="270" style="-ms-interpolation-mode: bicubic;" />
  </pattern>
  <pattern id="left" patternTransform="rotate(23)" patternUnits="userSpaceOnUse" width="270" height="270">
		<image image-rendering="optimizeQuality" preserveAspectRatio="xMidYMid meet" xlink:href="/images/simulator/default/default_tex.jpg" x="0" y="0" width="270" height="270" style="-ms-interpolation-mode: bicubic;" />
  </pattern>
  <pattern id="right" patternTransform="rotate(-23)" patternUnits="userSpaceOnUse" width="270" height="270">
		<image image-rendering="optimizeQuality" preserveAspectRatio="xMidYMid meet" xlink:href="/images/simulator/default/default_tex.jpg" x="0" y="0" width="270" height="270" style="-ms-interpolation-mode: bicubic;" />
  </pattern>
<style type="text/css">
	.normal{fill:url(#normal);}
	.left{fill:url(#left);}
	.right{fill:url(#right);}

</style>
<path id="pants" class="normal" d="M2549.1,3477.1c0,0-34.8,175.6-35.5,179.6s-17.8,116.3-17.8,116.8s-15,149.5-15,158
	s-8.5,134.5-8.5,144.5s-11,120-11.5,126s-18.5,206.5-18.5,213.5s-14,147-14.5,154s-17.5,194-17.5,194s-7.5,114-8,127.5
	s-16.5,181-17,192s-14.5,196.5-15,198.5s1.5,21.5-19,28.5l-82,25c0,0-111.5-51.5-114.5-53s-13.2-8.8-13.2-8.8l2.5-61.2l6.9-194
	l1.3-641.3c0,0-12.7-220.7-11.3-224.7c1.3-4-4-92.7-4-150l-8-261.3c0,0-8-182-8-187.3s-10-169.3-10.7-174s-9.3-24.7-9.3-24.7
	s-12,162-14,170s-32.7,615.3-32.7,619.3s-23,699-23,729s5,399,5,399s-6,4-8,7s-10.7,9-13,10s-29,6.3-33.7,8.3s-60.7,18-64,19.3
	s-5.3,4-10,3.3s-58.7-8.7-68-10.7s-34-6.7-36-8.7s-10-10.7-10-10.7l-2.7-85.3l-12-208l-24-397.3c0,0-30-358.7-30.7-378
	c-0.7-19.3-13.3-121.3-14-124.7c-0.7-3.3-24.7-248-24.7-248l-37.2-371.9c0,0,10.1,8.8,10.7,8.8s5-1.3,6.3-0.9
	c1.3,0.3,1.8,4.8,2.9,5.7c1.2,0.8,1.9-1.1,4.2-1.1s7.3,0.2,8.3-4.8s2.6-2.3-5.7-21.1c0,0-9.1-28.2-21.6-47.8l-9.1-15.4l3.3-4.9
	c-16.7-3.4-14.3-71.7-13.7-75.7c0,0,2.9,35.2,42.9,38.7l1.8-169.1l2-11c0,0,3.5,0.8-0.5-8.2s-12.5-29.9-12.5-29.9l-9.6-33.1l-2-177
	l5-82h348v-132h205v130h368v282l1,9c0,0-37,9.8-38,13.5s0.1,6.8,0.1,6.8s1.8,5.2,0.6,7s-4.1,9.4-4.5,10.4s-1.2,1.9-1.8,4.1
	s-0.9,3.3-0.2,4.7s1.8,2.7,2.3,3.5s1.8,3.3,1.8,3.3l0.6,3.5c0,0,2,21.4,2,23.9s2,28.8,2,34.8s-0.8,8.2,0.2,12.7s4.6,12.9,4.9,17.2
	s5.3,41.7,5.7,49.7s-0.5,22.1,1.8,24.6s12.5,2,22.3-6.5c0,0-10.3,35.3-10.7,38.1s-0.4,4.6-0.4,7.2s-1.6,6.4-2.9,9
	s-15.1,29.5-16.8,32.9S2535.1,3465.3,2549.1,3477.1z"/>
<path id="body-left" class="normal" d="M2526,1454.4c-3.7-1.3-161-48-161-48l-60.7-23.7l-7,13c0,0-68,296-69,299s-123,396-123,396l6,69
	c0,0,15,107,18,119s5,26,7,43s-28,334-37,364s-9.3,80.3-10.3,85.7c-1,5.3,9.3,56.7,9.3,56.7c6,47.3,43.3,108,43.3,108
	c12.7,22,35,48.3,41,53.3s44,27.3,44,27.3c15,10.3,32.7,13.7,40.7,15.7s28,2.3,28,2.3c42,4,95.3-7.3,97.7-7.7
	c2.3-0.3,59-13.3,71.7-16s54-15.7,54-15.7l34-15l4.7-5.7c0,0,4.5-18.8,4.3-22.3s-4-37.8-4-37.8s0.7-44.7,0.2-51.5
	s-0.5-41.2-0.3-47.3c0.2-6.2-4.3-45.8-4.7-47.5s-6.5-15.5-7.5-18.5s-6.7-20.3-9-26.7c-2.3-6.3-6.7-29-7-30.3s-17.3-65.7-21.7-80.7
	c-4.3-15-4.7-25.7-6-30.3c-1.3-4.7-6.7-45.3-6.7-45.3l1-2.7c3,6.3,9,4,9,4c8.3-2.3,7.7-14,8.3-18.7c0.7-4.7-1.3-8.7-3-11.3
	s-6.7-16-10-23s-5-16-5-16s-15.7-46.7-18-51s-1.7-7.3-1.7-7.3s0.3-2,0.3-3s-0.3-5-0.7-7s-1-4-2-5.7s-3.3-11.3-3.3-11.3
	c-9-23.3-9.7-49.7-9.7-49.7c-2-17,3.3-101.7,3.3-102.7s5-62.7,5-66.3s7.3-70.7,7.3-70.7l8.7-83c0,0,8.3-89.3,8.7-97
	c0.3-7.7,2.7-19.7,3.7-21.3s11-21.3,13.7-26.3s34-82.3,42.3-98.7c8.3-16.3,21.7-77.3,25-89.3s14.3-96.3,14.7-105.7
	c0.3-9.3,7.3-77.7,7.3-77.7l0.3-17.7C2600.3,1477.4,2529.6,1455.7,2526,1454.4z M2363.1,1531.8c-0.4,1.4-2.4,4.2-2.4,4.2
	s-2,1-2.8,0.9s-3-0.6-3-0.6s-37.4-22.6-39.5-22.8s-2.6-0.4-2.6-0.4l7.1-9.2c0,0,1.6-1.2,2.9-0.4c0,0,1.2,0.9,0,0
	c0,0,5.4,6.6,6.8,7.5s19.4,10.5,19.4,10.5l14.4,7.5C2363.3,1529.1,2363.4,1530.5,2363.1,1531.8z"/>
<path id="lapel-left" class="left" d="M2400.3,1504.5c-3.5-1.5-31.5-15.2-38.2-19s-44.2-29.8-44.2-29.8
	c-42.2-33.5-66.5-32.7-66.5-32.7l-11.4,69.2c0,0-10,62.1-10,63.1s-17.5,87.4-17.5,89.8s-18.1,84.7-19.8,91.4s-20.4,67-21.4,69
	s-23.9,91.1-23.9,91.1l-28.3,107.6l-14.4,58.2l-2.5,12l18.5,86.8c0,0,4.5-7.2,8.8-12.5s48.5-91.8,48.5-91.8
	c6.2-10.8,38-80.8,38-80.8l30-63l32.8-71.8l50.2-112.8c0,0,35.8-84.8,36.5-85.8s24-58,24-58c2-5.2,21.8-65,21.8-65
	C2413.5,1510.9,2403.8,1505.9,2400.3,1504.5z"/>
<path id="body-right" class="normal" d="M2152,2307.7c-1-9-6.7-51-6.7-51l-8.5-36.5l-23-68.5l-48-130.5l-74-239l-44-246l-22-150
	l-76.5,16.5l-106,27.2l-126.3,34l-4.2,1l-3.5,4.7l-0.5,8.2c0,1.5,9.5,154.5,11,182.5s42.5,186,42.5,186s15,96,14.5,103
	s22,122,23,125s7.5,10,7.5,10s22,77.5,31,110.5s14.2,80.2,14,83.2s-2.5,30.2-2.5,32.2s-4,40-4.5,41.8s0.2,24,0,25.2
	s-1.9,13.8-2.6,15.5s-5.1,12.8-5.1,12.8l-3.5,5.2l-31.2,63.1l-13.2,24.9c-3.2,4.9-2.6,11.1-2.6,12.6s5.6,9.8,6.2,10.5
	s7.1,7.8,7.5,7.9s1.3-0.3,3-0.3s9.3,0.3,9.3,0.3s-8,51-8.7,52.7s-13,116.7-13,117.7s-11.7,118.3-11.7,118.3l-17,21.3l-1.3,147.7
	c0,0,28.7,8,35.3,10.3s121,29.3,121,29.3c63,14.3,85,7.7,85,7.7c38-5.3,65-24.3,65-24.3c44.3-30.7,73.7-88.7,73.7-88.7
	c21.3-32,36.7-89.3,36.7-89.3l20.3-79.7l23.3-114.3l20.3-134l10.3-99C2155,2385,2153,2316.7,2152,2307.7z M2094.6,2344.3
	c-13.1,0-24.2-9.2-27.9-21.9c-0.1,0-0.1,0-0.2,0c-1.9-6.7-1.5-12.7-0.3-17.6h0.1c3.4-13.4,14.7-23.2,28.3-23.2
	c16.2,0,29.3,14.1,29.3,31.4C2123.9,2330.3,2110.8,2344.3,2094.6,2344.3z"/>
<path id="collar-right" class="right" d="M1833.3,1408.4c0,0-14,16.3-14.7,17.7c-0.7,1.3-30.3,44-30.7,47c-0.3,3-4.3,8.3-1.3,10
	s35.7,3,38,3.3s14,2.3,14,2.3s96-64.3,98.7-68s14.5-8.3,14.5-8.3s-0.8-39.8-0.5-43.8s4-21.3,5.4-26.3c1.3-5,8.1-19.6,8.8-22.9
	s3.1-33.2,3.1-33.2s-100.9,96.5-106.6,100.1c-5.7,3.7-16.3,13.3-20.3,16S1833.3,1408.4,1833.3,1408.4z"/>
<path id="collar-left" class="left" d="M2234.7,1291.4c0,0,20.3,22.1,22.1,23.9s10.8,20.7,21,29.3s36.2,29.8,39.3,32.3
	c3.2,2.5,13.8,13.2,24.7,17.5c0,0,21,8.2,22.5,9.8c1.5,1.7,3.7,1,13.3,16.7c0,0,28.3,41.8,28.8,42.5s5.3,6.3,5.7,10.3
	c0.3,4,0.2,11.8-9,11.5l-55.3-0.3c0,0-66.8-48.2-77.7-51.3l-19.7-5l6.6-34.5c0,0,1.4-13.8,1.7-14.9c0.3-1.2,2.5-1.1-4.9-19.8
	l-13.1-30.6C2240.6,1328.7,2236.2,1318.1,2234.7,1291.4z"/>
<path id="arm-left" class="normal" d="M2601.3,1477.2c4.3,0.5,11.4,0.3,13,2.3c0,0,12.3,13.5,16.2,25l26.3,63.8l15.8,41.7
	c0,0,19,57.5,20.2,62s21.8,86.7,22.2,88.7c0.3,2,3,14,4,18.7s2.3,11.3,3,17s4,39,4.2,40.2s3.5,36.2,3.8,37.5s2.2,31.8,2.2,31.8
	s1.5,17.3,1.5,18.8s9.2,126.5,9.2,126.5s3.5,53,4,59.5s1.5,22,1.5,31.5s4.5,155,7,178c0,0,8,140,8,145.5s1.5,93,1.5,96.5
	s0.5,176.5,5.5,220c0,0,9.5,167,9.5,170.5s8,143.5,8,148s1,38.5,1,38.5l-3,6c0,0-16.5,15-18.5,16.5s-6.3,3.9-6.3,3.9
	s-2-26.4-6.5-28.4c0,0-112-2.9-148,1.6c0,0-62.1,4.1-60.6,17.6l-3.6-3.2l6-102c0,0,1-42.5,1.5-45.5s5.5-19,5.5-25s-5.5-49-5.5-69
	c0,0-1-118-1-127s-1-28-2-30s-18.5-43.5-18-78.5l-9.6-121.5c0,0-8.5-110.5-8.5-112s-2-142-0.5-163s7-161,7-161s2-118,3-120.5
	s0.5-47-10.5-75.5c0,0-13-34.7-13-36.3c0-1.7-1.5-11.5-1.2-14.2s6.7-21.2,6.7-21.2l11.5-34.5c0,0,5.2-18.6,18.2-44.6
	c0,0,18.2-47.5,19.8-52.2s9.5-39,10-40.2s11-59,11.5-62s9.2-53.8,9.2-56s7.5-57.8,8-59.2S2597.6,1477.2,2601.3,1477.2"/>
<path id="lapel-right" class="right" d="M1951.8,1412.4c0,0-7.5-5.7-25.5,6.3c0,0-73.7,52-78.7,56s-46,31-49.7,34.3
	s-10.7,6.3-7.7,16.7c0,0,37.7,101.7,43,116.3c0,0,41.7,91.7,54.3,115.3l60.3,127.3c0,0,29.6,59.5,32.8,66.8s28.8,51.5,44,79.5
	c0,0,49.8,83,50,83.8s38.8,63,42.2,74.8c0,0,17.8,43.2,19.2,47.2s7.5,19.5,7.5,19.5l0.8,2.2l-6-44l-23.1-102.9l-10.8-55.3
	l-14.4-68.5l-21.9-83.7l-19.3-73.6c0,0-6.6-18.1-7.2-27.3s-1-18.4-1.8-20.3c-0.8-1.8-11.8-29.3-11.8-29.3s-11.9-20.4-22.9-73.9
	l-36.6-177.6C1968.6,1502,1951.7,1415.9,1951.8,1412.4z"/>
<path id="arm-right" class="normal" d="M1604.8,1464.2c0,0-7.8-0.5-9.5,0.8s-6.3,1.7-9.7,5.7c-3.3,4-28.7,59.3-30,64s-23,56-24.7,62.7
	s-23.7,83.7-24,86s-14.2,52.8-16.7,65.3s-14.5,102.5-15,104s-11.5,91.5-11.5,106.5s-6.5,121.5-6.5,131s-10.5,184.5-11,189
	s-5.5,161-5.5,173s-3,125.5-3,128.5s-6,210.5-7.5,226.5s-13,209.5-14,218.5s-6.5,77.5-7.5,80.5s-2,13.5,15,20.5l45.7,20
	c0,0,3.9-32.6,6.9-33.1s114.8-7.6,163.8,2.4c0,0,17.1,2.2,27.1,8.2l0.3,1.8c0.2,0.9,1.3,1.2,1.9,0.4c0.9-1.2,2-2.9,2.3-4.2
	c0.5-2.5-5.5-31.5-5.5-40s-1-79.5-0.5-82.5s3.8-65.7,4.5-74s4.3-132.3,4-138.3s1.7-67,1.7-75s-2-93.3-1.7-96.7s4-57.3,6-71.3
	s3.7-49.3,3.7-49.3s13-106.7,15-120s10-96,10-98s0.7-83.3,1.3-93.3s-6.7-50-6.7-57.3s3.7-42.2,3.7-42.2s-8.3-31.5-9-39.2
	s-3.7-27.3-4-33.7c-0.3-6.3-6-59.7-7.3-68.7s-11-78.7-11.7-82s-13.7-72-14.7-77.7s-8.7-46.7-9.3-49c-0.7-2.3-11.3-42-12-46.7
	s-7-41.7-9-89.3c0,0-4-57.3-4-60.3s-1.7-29.3-2.3-37c-0.7-7.7-2.3-20.3-3.7-24S1613,1462.7,1604.8,1464.2z"/>
</svg>
