<?xml version="1.0" encoding="utf-8"?>
<!-- Generator: Adobe Illustrator 21.1.0, SVG Export Plug-In . SVG Version: 6.00 Build 0)  -->
<svg version="1.1" id="Layar1" xmlns="http://www.w3.org/2000/svg" xmlns:xlink="http://www.w3.org/1999/xlink" x="0px" y="0px"
	 viewBox="0 0 4160 6240" style="enable-background:new 0 0 4160 6240;" xml:space="preserve">
<pattern id="normal" patternUnits="userSpaceOnUse" width="270" height="270" patternTransform="">
		<image image-rendering="optimizeQuality" preserveAspectRatio="xMidYMid meet" xlink:href="/images/simulator/default/default_tex.jpg" x="0" y="0" width="270" height="270" style="-ms-interpolation-mode: bicubic;" />
  </pattern>
  <pattern id="left" patternTransform="rotate(23)" patternUnits="userSpaceOnUse" width="270" height="270">
		<image image-rendering="optimizeQuality" preserveAspectRatio="xMidYMid meet" xlink:href="/images/simulator/default/default_tex.jpg" x="0" y="0" width="270" height="270" style="-ms-interpolation-mode: bicubic;" />
  </pattern>
  <pattern id="right" patternTransform="rotate(-23)" patternUnits="userSpaceOnUse" width="270" height="270">
		<image image-rendering="optimizeQuality" preserveAspectRatio="xMidYMid meet" xlink:href="/images/simulator/default/default_tex.jpg" x="0" y="0" width="270" height="270" style="-ms-interpolation-mode: bicubic;" />
  </pattern>
<style type="text/css">
	.normal{fill:url(#normal);}
	.left{fill:url(#left);}
	.right{fill:url(#right);}

</style>
<path id="skirt" class="normal" d="M1632,3434c0,0,19,207,22,223s36,424,37,439s2,21,2,21s26,1,33,2s24,7,31,7s78-3,100-3s40-6,68-4
	s119-6,151-5s170,4,199,6s146,8,163,8s37-3,44-2s7,1,7,1l4-21c0,0,5-105,8-116s31-247,31-247s30-244,32-259s0-37,0-37
	s-1.5,0-7.5,0.5s-35.5,0.5-39,3.5s-6,6-10,5.5s-16.5-2.5-19.5-2.5s-2.5-4-11.5,1.5s-14,13.5-16,13.5s-4-4.5-9-7s-6.5-3.5-6.5-9.5
	s6.5-25.5,11.5-33s19-27,19-27s3.5-4,7-11.5s34.5-80.5,37.5-88.5s11.5-63.5,11.5-63.5s-1.5,1.5-5.5-4s-6-14.5-7.5-12.5
	s-20,49.5-21.5,54s-4.5,30-6.5,37.5s-8,15.5-15,19s-7,7.5-18,8s-10.5-2-9.5-11.5s13-41,14.5-51s5.5-23,5.5-23s5-29.5,7-43.5
	s-1-26,2-32s31-122,31-122l-7-131l-825,63l33,167c0,0,19,75,20,79s31,82,27,85s-19,7-23,3s-16-7-20-24s-19-48-20-56s-20-49-20-49
	s-15,6-15,9s21,105,35,139s37,63,50,84s17,30,17,38s12,21-4,13s-12-12-30-15s-26,3-38-4S1632,3434,1632,3434z"/>
<path id="body-left" class="normal" d="M2595.7,1513c0,0-9.3-4.7-18-10s-80.7-30-101.3-34.7c-20.7-4.7-49.3-12.7-62.7-15.3
	c-13.3-2.7-67.7-19.3-67.7-19.3l-40.3,40.7l-63.3,42.7l-84.7,329.3l-29.3,152l-44.7,76l-3.3,79.3c0,0,20,62,23.3,72.7
	s18,234.7,18,234.7l6,190c0,0-1.3,77.3-2,100.7c-0.7,23.3-24,133.3-24,133.3l-12,49l-12.2,47l30.5,56.5c29,54,82.5,69,91.5,73.5
	s49,13.5,59,15.5s30.5,0.5,38.5,0.5s20-3,30.5-5s70-8,80.5-10.5s66.5-14.5,68-15s21-5.5,21-5.5l34-38c0,0-3.3-243.3-2.7-246.7
	c0.7-3.3-4-114-4-114s-12-80-12.7-82s-31.3-80.7-31.3-80.7c-8-18.7-11.3-42-19.3-80s-2-87.3-2-116.7s17.3-80,17.3-80
	c6.7-19.3,25.3-39.3,25.3-39.3s18.7-22,20.7-26s41.3-278.7,41.3-278.7l20.7-191.3l14-192L2595.7,1513z M2311.2,1559.2
	c-2.2,1.2-0.8,1.5-4.2,1s-4.5,0-6.5-1s-5.2-2.2-7.5-3.5s-9-7-14.2-9.2s-6.2-4.5-11.2-5.2s-6.5,0.5-8.2-0.5s-2.5-0.5-2.8-2.5
	s-1.2-1.8,0.5-3.2s2.5-2,3.2-2.5s3-2,3-2s2.8-3,3.8-3s5.5,0.8,5.5,0.8l10.2,8.2c0,0,9.5,5.8,15.8,7.2s8.2,1.8,10.8,4.8
	s3.5,3.8,3.2,6.2S2313.5,1558,2311.2,1559.2z"/>
<path class="normal" d="M2150.3,2570.3c-1.3-9.3-10-210-11.3-221.3s-21.3-122-21.3-122s-24-120-32-136s-56-144-60.7-157.3
	c-4.7-13.3-70.7-341.3-70.7-341.3l-58-181.3l-58.7,30.3C1836,1444,1683,1496,1669,1500s-74,26-74,26s1,217,1,230s-11,78,2,112
	s43,144,43,155s45,208,45,208l23.7,24l4,5.7l3.7,21.7l15.7,71.3c0,0,5.7,32,5.7,34s2.7,15.7,1.7,20.3s-12.3,66-12.3,66l-6,36.7
	c0,0,0.7,7,0.3,12.7c-0.3,5.7-1.7,10.3-2.7,12s-7.7,20.3-8.7,21s-2.7,1.3-4.7,1.7s-7.7,5.7-7.7,5.7s-7,59.3-7,66.7
	c0,7.3,0.7,139.3,0.7,139.3s6,142.7,6,154s14.7,176.7,14.7,176.7l16.7,4c0,0,44.7,9.3,60,12s65.3,11.3,76.7,12.7
	c11.3,1.3,69.3-2,91.3-6s44-22.7,55.3-34.7s52-64.7,58-75.3s34.7-64,34.7-68.7s24-68,30-114.7s7.3-82.7,7.3-84.7
	S2151.7,2579.7,2150.3,2570.3z M2059.1,2399.7c-9.7,0-18.1-6.4-22.6-15.8l0-0.3c-4.8-11.8-2.4-23.9-1-28.7
	c4.1-10.8,13.1-18.3,23.6-18.3c14.4,0,26.1,14.1,26.1,31.6S2073.5,2399.7,2059.1,2399.7z"/>
<path id="arm-right" class="normal" d="M1601.7,1522.3c0,0,6,73.3,7.3,85.3s6.7,58.7,4,89.3s-4.7,118-4,131.3s0,25.3,6,39.3
	s28,81.3,28.7,86s6,70.7,12,86.7s26.7,93.3,28,99.3s26.7,108.7,26.7,108.7s0.7,1.3-0.7,6.7c-1.3,5.3-1.3,1.3-4.7,15.3
	s-10,70-9.3,91.3s4,102.7,4,102.7l6,92.7l2.7,4c0,0,2.7,10.7,2,14s-4,13.3-4.7,27.3s-4,33.3-3.3,37.3s10,176,10.7,178.7
	s0.7,111.3,1.3,115.3c0.7,4-4,22-0.7,34.7s8.7,69.3,9.3,72c0.7,2.7,6.7,55.3,6.7,64s-3.3,68-3.3,68s-19.3-14.7-22-15.3
	c-2.7-0.7-38.7-4.7-50-6s-56,0-73.3,2s-79.3,14-79.3,14l0.7,36.7c0,0-19.3-10.7-27.3-14.7s-16-9.3-16-9.3l4-48.7l-2.7-248.7
	c0,0-3.3-146.7-3.3-149.3s1.3-130,1.3-130s0.7-150.7,0.7-162s3.3-61.3,3.3-61.3s0.7-210,0.7-216.7s12-249.3,16-276.7
	c4-27.3,7.3-73.3,8-76.7c0.7-3.3,25.3-98.7,25.3-98.7s22-74.7,23.3-81.3c1.3-6.7,24-59.3,25.3-65.3s10.7-28,10.7-28
	S1593,1517,1601.7,1522.3z"/>
<path id="collar-left" class="left" d="M2227,1316.7c0,0,0.3,56.7,0.3,59.3s-1,42.3-2.3,56.3s-3.7,25.7-3.7,25.7l77.7,37.3l13.3,1.7
	c0,0,29.7-1.3,38-4.3s11.3-6.3,11.3-6.3s-10.3-27.3-11.7-33.3s-4-19.3-4-19.3s-9-2.3-20.7-11s-15-14.3-18.3-15.3s-11-7.3-15.3-11.7
	c-4.3-4.3-51.3-64.7-53-67C2237,1326.3,2227,1316.7,2227,1316.7z"/>
<path id="lapel-left" class="left" d="M2364,1526c0-1.7-1.7-3-4.3-5.3c-2.7-2.3-8.3-4-18-8.3s-54-26.3-60-29.3s-59.3-28.7-59.3-28.7
	l-0.3-1.3c0,0-2.3,12.3-3.3,16.7c-1,4.3-15.7,65-16.3,70.3c-0.7,5.3-9,42.7-9.3,48s-11.3,56.3-12.7,61.7c-1.3,5.3-16.7,67.3-17,73.3
	s-9.3,38.7-10.3,42.3c-1,3.7-15,55.3-17.3,63.7c-2.3,8.3-6,29.3-8.3,42s-8,31-10,34.7s-9.3,25-10.7,27.7c-1.3,2.7,1.3,12.7,0.7,18
	c-0.7,5.3-2.3,9.3-3.3,13.3s-9,42.7-10.7,46.3c-1.7,3.7-10,28.7-10,28.7l-4.3,7.3l-0.3,29.7l13,49c0,0,15.3-20,16-22s41.3-79,42-80
	s22.3-44.3,25.3-49.7s13-27,13-27s35.3-80.7,39-87s42-91,42-91l27-62.7l15.3-39c0,0,38.7-97.7,40-100.3c1.3-2.7,12-34,13-37
	S2364,1527.7,2364,1526z M2311.2,1559.2c-2.2,1.2-0.8,1.5-4.2,1s-4.5,0-6.5-1s-5.2-2.2-7.5-3.5s-9-7-14.2-9.2s-6.2-4.5-11.2-5.2
	s-6.5,0.5-8.2-0.5s-2.5-0.5-2.8-2.5s-1.2-1.8,0.5-3.2s2.5-2,3.2-2.5s3-2,3-2s2.8-3,3.8-3s5.5,0.8,5.5,0.8l10.2,8.2
	c0,0,9.5,5.8,15.8,7.2s8.2,1.8,10.8,4.8s3.5,3.8,3.2,6.2S2313.5,1558,2311.2,1559.2z"/>
<path id="collar-right" class="right" d="M1958.7,1313.3c0,0-10.7,81.7-8,90.7l4.7,46.3c0,0-63.3,48.3-65.7,49.7c-2.3,1.3-14.7,2-16,2
	s-22.3-0.7-24.7,0s-16,2.7-17.3,3.3c-1.3,0.7-10.3,2.7-10.3,2.7s-1.3-0.7-2.3-2s-1.7-3-0.7-6s19.3-58.7,19.3-58.7s13-9.3,16-12
	s47-42.7,57-53s30-37,30-37L1958.7,1313.3z"/>
<path id="lapel-right" class="right" d="M1955.7,1446.7l-81,55.3c0,0-59.7,37-65.3,49l5,13.7c0,0,17.7,67,20.3,73
	c2.7,6,17,49.7,17.3,50.7s26,64,27,68.3s14,36.7,14.3,38s35.7,91,36.3,92c0.7,1,41.7,90.7,42.3,92c0.7,1.3,33.7,62,33.7,62
	S2122,2260,2129,2284c0,0-6.2-50-6.8-53.4S2111,2170,2111,2170l-13.8-68c0,0-14.2-53.5-16-59.5s-3.2-10.5-3.8-13.5s-5.5-14-6.2-19
	s-8-42-9-48.2s-4-24.8-4-24.8s-0.5,0.8-2.5-7s-8.8-34.8-9.5-37s-11.2-32.2-12.2-43.8s-2.2-27-3.8-32.8s-11.8-37.5-14.8-50.5
	s-20-84.5-24-111.5s-23-126.5-24-130.5S1955.7,1446.7,1955.7,1446.7z"/>
<path id="arm-left" class="normal" d="M2594.3,1511.7c6,0.7,12-1.3,14.7,2.7s12.7,20,20,37.3s30.7,101.3,40,126s32,154.7,32,154.7
	s23.3,158,25.3,176.7s8.7,124.7,8.7,124.7s10,224,10.7,228.7s1.3,139.3,1.3,139.3l-4,229.3l0.7,206.7V3109l0.7,69.3c0,0,1.7-1-1-3.7
	s-9.7-7-18-8.3s-113.7-11.3-113.7-11.3s-42.7-1.7-50.3-1.7c-7.7,0-35,1-44.7,1.7s-20.7,2-25.3,4c-4.7,2-21.3,7.3-22.3,8
	s5-17.3,5.7-21.3s0.7-29,1-31.3s4.7-19.7,4.7-19.7s22-157.7,23.3-167.7s-3.3-40-2-49.3s2.7-14,6.7-30s4.7-46,5.3-54.7
	c0.7-8.7,0-34,0-34s9.3-84.7,4.7-96c-4.7-11.3-6-40.7-6.7-49.3c-0.7-8.7,0-18,0-28.7s-0.7-50.7-0.7-58s-0.7-44.7-0.7-44.7
	s-4.7-103.3-4.7-110.7c0-7.3-2-123.3-2-130.7s0.7-32.7,0.7-32.7s50.7-380,53.3-413.3c2.7-33.3,16.7-136.7,16.7-136.7s6-84,10.7-100
	S2594.3,1511.7,2594.3,1511.7z"/>
</svg>
