<?xml version="1.0" encoding="utf-8"?>
<!-- Generator: Adobe Illustrator 21.1.0, SVG Export Plug-In . SVG Version: 6.00 Build 0)  -->
<svg version="1.1" id="Layar1" xmlns="http://www.w3.org/2000/svg" xmlns:xlink="http://www.w3.org/1999/xlink" x="0px" y="0px"
	 viewBox="0 0 4160 6240" style="enable-background:new 0 0 4160 6240;" xml:space="preserve">
<style type="text/css">
	.st0{fill:#A0ADAF;}
	.st1{fill:#3B5963;}
	.st2{fill:#6B7577;}
	.st3{fill:#AFB8BC;}
	.st4{fill:#878C8E;}
	.st5{fill:#748489;}
	.st6{fill:#D8E5EA;}
</style>
<path id="pants" class="st0" d="M1775,3683.7c0,0-11.3,2.7-19.3-4s-15.3-18-16-16s-1.3,10.7-9.3,16s-4,10.7-9.3,11.3
	s-22.7,0.7-22.7,0.7s-0.7,6.7-5.3,12.7s-12.7,13.3-22,12.7s-20-7.3-20-7.3s-2.7,5.3-8.7,6.7c-6,1.3-6,1.3-6,1.3l6,6.7l4.7,104.7
	l12,316l12.7,311.3l9.3,278.7l9.3,359.3c0,0,11.3,552.7,11.3,554.7s4.7,14,7.3,18.7c2.7,4.7,16.7,34.7,18.7,36.7s14,4.7,21.3,10
	s27.3,20,35.3,23.3s38,4.7,48.7,3.3s81.3-6,88-6s9.3-0.7,16-7.3c6.7-6.7,14.7-16,16.7-24.7s25.3-69.3,27.3-82.7
	c2-13.3,2.7-218.7,2.7-218.7s2-261.3,2.7-278s22-230.7,22-249.3c0-18.7,24-276,24-276l20-199.3l32-336c0,0,39.3-254.7,46.7-290.7
	s24-120.7,24-120.7l54,2h4l16.7,90c0,0,29.3,198.7,32,220s31.3,268,32,288.7s21.3,388.7,21.3,388.7s21.3,281.3,22,285.3
	s20.7,332.7,20.7,332.7l20,306.7c0,0,8.7,100,8.7,108.7s-6,11.3-3.3,18s3.3,10.7,6.7,18c3.3,7.3,2.7,22.7,14.7,30.7
	s34,17.3,73.3,21.3s81.3,10.7,99.3,6.7s26-4,44.7-11.3s56.7-39.3,56.7-39.3s2-276,1.3-282s-5.3-123.3-5.3-123.3l-1.3-202l8.7-282
	c0,0,12-194.7,11.3-212.7s3.3-363.3,3.3-363.3s1.3-234,0.7-245.3c-0.7-11.3,2-255.3,2-255.3l-6,4.7c0,0-10.7-8-18.7-13.3
	s-26-16.7-34-28s-16.7-18.7-16.7-18.7s-0.7-2-6-2.7s-1.3-1.3-9.3,0s-20.7,3.3-25.3,3.3s-11.3-5.3-11.3-5.3l6-68l-2-90l8.7-504.7
	H1916l-173.1,321.4l-7.6,17.3c0,0,20,32,25.3,43.3s40,117.3,43.3,136s4,112-2.7,122S1775,3683.7,1775,3683.7z"/>
<path id="body-right" class="st1" d="M2189.7,2969c-4-37.3-7.3-190-12-206.7s-18.7-126-22-142.7s-2.7-36-4-38.7
	s22.7-88.7,22.7-103.3c0-14.7,0.7-30.7,0.7-30.7l-6-26l-74-217.3c0,0-95.3-312-96-316s-54-356-54-356s-12.7,1.3-23.3,8
	c-10.7,6.7-92.7,40.7-92.7,40.7c-1.3,2-247.3,84.7-260,90.7s-59.3,16-62.7,18s-8,4.7-8,4.7l2,15.3l2,27.3c0,0,24,26,32.7,50
	s50,164.7,50.7,170s39.3,204,38,228s4,217.3,4,217.3l11.3,15.3l11.3,18c0,0,22.7,40.7,28,54s21.3,74,21.3,90c0,0,10,113.3,4,154.7
	c0,0-21.3,165.3-52,201.3l-16,11.3l2.7,21.3c0,0,12,176.7,22.7,193.3c10.7,16.7,30,94,30,94l36,78c0,0,3.3,2.7,0,6s-8.7,16-8.7,16
	v4.7c0,0,36.7,60.7,44.7,87.3s20.7,60.7,21.3,70c0.7,9.3,6.7,43.3,6.7,54.7c0,11.3,2,41.3,1.3,52s-0.7,25.3-3.3,32.7s-2,12-5.3,16
	s-10,7.3-10,7.3s4,2.7,9.3,4.7s18.7,14.7,25.3,16.7c6.7,2,15.3,2.7,30,2.7s78,2.7,84,1.3c6-1.3,67.3-16.7,123.3-97.3
	c0,0,60-120,61.3-130s45.3-180.7,47.3-228s29.3-175.3,29.3-175.3S2193.7,3006.3,2189.7,2969z M2134.2,2969
	c-16.1,0-29.2-13.5-29.2-30.1s13.1-30.1,29.2-30.1c16.1,0,29.2,13.5,29.2,30.1C2163.3,2955.5,2150.3,2969,2134.2,2969z"/>
<path id="arm-right" class="st2" d="M1495,1691.7c0,0-6-7.3-13.3-2.7c-7.3,4.7-20,22.7-23.3,29.3c-3.3,6.7-17.3,149.3-17.3,149.3
	s-1.5,32.8-4.5,43.3s-21.5,90-23,104s-46.5,238-49.8,252s-27.3,157.3-28.7,174.7c-1.3,17.3-18.7,113.3-18.7,144s-0.7,76.7-0.7,84
	s6,65.3,7.3,86s22.7,140.7,23.3,144c0.7,3.3,16.7,86,20,118.7s43.3,227.3,43.3,227.3s31.3,127.3,29.3,132.7c-2,5.3-2,13.3-0.7,17.3
	s5.3,8.7,6,10.7s8.7,16,10,18s3.3,8.7,6,2s3.3-14,3.3-14l9.3,8.7c0,0,16,8.7,20,6.7s21.3-8,21.3-8s-23.3-4-29.3-4s-12-2-14.7-13.3
	s-2.7-21.3-2.7-21.3s73.3-21.3,82-24.7c8.7-3.3,127.3-35.3,136.7-36c9.3-0.7,18-1.3,24.7,2.7s16,12,16,12l-8-33.3
	c0,0-40.7-174.7-44-191.3c-3.3-16.7-20-150.7-20-150.7s-13.3-162-16-193.3s-6-255.3-6-255.3l2.7-93.3c0,0,6.7-86,6.7-95.3
	s0.7-187.3,0.7-187.3s2.7-1.3,0-52s-38.7-156-38.7-156s-35.3-105.3-66.7-166c0,0-33.3-62-34.7-64S1495,1691.7,1495,1691.7z"/>
<path id="vest-right" class="st3" d="M1965,1547c8.6-2.8,210,638.4,217.5,622.5c1.9-4.1,12,159,12,159l-36,60L1974,1817L1965,1547z"
	/>
<polygon id="vest-left" class="st3" points="2333,1531 2153.6,2166.1 2120.6,2265.1 2183.6,2455.6 2359.1,1665.2 "/>
<path class="st4" d="M2771,1693c0,0-86-24-93.3-26s-233.3-77.3-233.3-77.3l-28.8-4.7l-94,368.5l-89.5,332l-41.5,137l-33,92
	c0,0-12,38-16,54.5s2.5,89,2.5,92.5s15.6,212.6,17.1,248.6s16.5,160.5,16.5,186s26.7,160.2,26.7,160.2c9.3,58,70.7,292.7,70.7,292.7
	c9.3,28.7,42.7,85.3,42.7,85.3c20.7,40,50.7,44.7,73.3,52.7s24.7,3.3,24.7,3.3c22.7,5.3,43.3-6,74.7-8.7
	c31.3-2.7,39.3-7.3,63.3-10.7c16.8-2.3,20.2-1.1,20.7-0.1c0.5-5.6,3.3-39.8,3.3-46.6c0-7.3,3.3-38.7,4.7-44.7
	c1.3-6,25.3-66.7,26.7-71.3c1.3-4.7,0-8,0-10.7s-6-8-6.7-10.7s6.7-18,15.3-36c8.7-18,43.3-60,50.7-69.3c7.3-9.3,17.3-13.3,17.3-13.3
	h-4.7c0,0-16.7-5.3-24-8s-2.7-4.7-5.3-11.3c-2.7-6.7,0.7-14.7,0.7-14.7V3317c0,0,0-2.7,0.7-6s2.7-9.3,3.3-11.3
	c0.7-2,16.7-12,16.7-12s0.7-96.7,2.7-115.3c2-18.7,15.3-202.7,15.3-216.7s-13.3-31.3-14-34.7s-2.7-10-5.3-21.3
	c-2.7-11.3-4.7-22.7-6.7-35.3c-2-12.7-5.3-41.3-6.7-51.3c-1.3-10-5.3-34-8.7-52.7c-3.3-18.7-6.7-54-8-76s-4-134.7-4-134.7
	c-1.3-50,12-151.3,13.3-168s8.7-44.7,8.7-44.7s4.7-7.3,4.7-9.3s18.7-186.7,20-202c1.3-15.3,38-276.7,39.3-283.3
	c1.3-6.7,42.7-139.3,46.7-144C2774.3,1693.7,2771,1693,2771,1693z M2156.5,2581.4c0-17.4,12.3-31.5,27.4-31.5
	c8.3,0,15.7,4.2,20.7,10.9l-0.1,0c0,0,4.3,5.7,6.2,14.1c0,0.3,0.1,0.5,0.1,0.8l0,0c0.9,4.6,1,9.9-0.7,15.6l-0.1,0
	c-0.4,1.4-0.9,2.7-1.4,4c-1.3,3-3.2,6.1-5.8,9.2c-0.4,0.5-0.8,0.9-1.3,1.3c-4.7,4.6-10.8,7.4-17.5,7.4
	C2168.8,2612.9,2156.5,2598.8,2156.5,2581.4z M2497.3,1738c-1,0.3-10.7,4-12.7,5s-16.7,4.3-21.3,4.7c-4.7,0.3-8.7,1.3-8.7,1.3
	s-0.3,1.7-0.3,3.3c0,1.7-1.3,3-3,2.3s-8.3-7-8.3-7l0.3-2c0,0,7.7-3.7,9-4s23-5.3,25.3-5.3s14.3-1.7,15.3-1.3
	S2498.3,1737.7,2497.3,1738z"/>
<path id="collar-left" class="st5" d="M2331,1500c0,0,7,12,9,16s12,20,16,24s31.5,23,36,25s18.5,10.5,24,13s17,4.5,23,10
	s35,23,37.5,25.5s19,14.5,23.5,17.5s7.5,13,7.5,13s-11,4.5-17,4.5s-41.4,8-45,9.5c-7,3-8,3.5-8,3.5l-4,5l-101-91.5
	c0,0-0.5-25-0.5-26.5S2331,1500,2331,1500z"/>
<path id="lapel-left" class="st3" d="M2559,1659.7c-0.7-8-7.3-12-14.7-12c-7.5,0-62.7,12.7-71.3,12c-8.7-0.7-27.3,2.7-33.3,0.7
	s-4.7-4-11.3-12c-6.2-7.4-98.7-88.7-98.7-88.7S2299,1863,2299,1868.3s-27.3,158.7-27.3,158.7l-26,135.3c0,0-21.3,95.3-35.3,152
	s-30,116.7-30,116.7l-29.3,117.3c0,0,9.3-23.3,16.7-37.3c7.3-14,29.3-66,34-74s103.3-181.5,103.3-181.5l130-261.5
	c0,0,51-113.8,55-126.5s47.7-137.2,51.5-146C2545.3,1712.7,2559.7,1667.7,2559,1659.7z M2497.3,1738c-1,0.3-10.7,4-12.7,5
	s-16.7,4.3-21.3,4.7c-4.7,0.3-8.7,1.3-8.7,1.3s-0.3,1.7-0.3,3.3c0,1.7-1.3,3-3,2.3s-8.3-7-8.3-7l0.3-2c0,0,7.7-3.7,9-4
	s23-5.3,25.3-5.3s14.3-1.7,15.3-1.3S2498.3,1737.7,2497.3,1738z"/>
<path class="st3" d="M2973,2861c-2-26.7-9.3-188.7-10.7-204.7c-1.3-16-10-166-12.7-190.7s-12.7-164.7-18-190s-38.7-174-39.3-176.7
	c-0.7-2.7-66.7-260.7-66.7-260.7s-31.3-127.3-34.7-134c-3.3-6.7-5.3-8.7-5.3-8.7s-10.7-2.7-14.7-2.7l-0.7,5.3c0,0-12,21.3-30.7,67.3
	s-29.3,97.3-35.3,117.3s-15.3,108-15.3,108s-11.3,129.3-12,133.3s-16,194-16,194s-0.7,18.7,0.7,22.7c1.3,4,21.3,82,21.3,82
	c7.3,34,5.3,60.7,7.3,70.7s-4.7,93.3-5.3,96.7c-0.7,3.3-0.7,141.3,0.7,156c1.3,14.7-0.7,184-0.7,184s-9.3,101.3-10.7,110.7
	c-1.3,9.3-26.7,204-26.7,204s-6,33.3-9.3,41.3s-4,12.7-4.7,18.7s7.3,9.3,12,10.7c4.7,1.3,6.7,1.3,6.7,1.3s1.3-10,4-17.3s12-8,27.3-8
	s160.7,24,160.7,24c13.2,1.2,24.4,5.3,33.7,10.5l-11.9,11c0,0-18,21-21,25s-20,17-20,17l-2,4l8,9c0,0,2,4,7,6s21,0,27,1s23-2,23-2
	l15-17l9.8-11c1.1,9.2,0.7,19,0.2,22c-0.7,4.7,7.3,13.3,7.3,13.3s5.3,0,6-2s1.3-70,1.3-84.7s2.7-43.3,2.7-56s16-96.7,16-100
	s24-184.7,26.7-198.7S2975,2887.7,2973,2861z"/>
<path id="collar-right" class="st6" d="M1955,1482.3c0,0-0.5,0.8-1.3,2.3c-4.2,7.1-16.9,28.6-21.3,33.1c-5.3,5.3-45.3,34-51.3,38.7
	s-38,16.7-45.3,22s-30.7,31.3-38.7,39.3s-23.3,18.7-20.7,22c2.7,3.3,11.3,0.7,16.7,2.7s32.7,10,40.7,12.7s34,13.3,34,13.3l14.7-4.7
	l67.3-87.3l12-25.3l-7.3-55.3L1955,1482.3z"/>
<path id="lapel-right" class="st3" d="M1982.6,1653.2c0,0,64.1,329.5,111.7,475.8l48.8,185.6l46.5,156l-7.5,9l-8.4-23.3
	c0,0-201.6-303.7-207.6-317.2s-127.5-231-138-256.5s-93.8-189-93.8-189l-14-28.7c0,0-4.7-9.3,4-11.3s24.7-4,26.7-3.3
	s105.3,18.7,105.3,18.7s57.3-55.3,69.3-72.7c12-17.3,34.7-53.3,34.7-53.3L1982.6,1653.2z"/>
</svg>
