<?xml version="1.0" encoding="utf-8"?>
<!-- Generator: Adobe Illustrator 21.1.0, SVG Export Plug-In . SVG Version: 6.00 Build 0)  -->
<svg version="1.1" id="Layar1_1_" xmlns="http://www.w3.org/2000/svg" xmlns:xlink="http://www.w3.org/1999/xlink" x="0px" y="0px"
	 viewBox="0 0 4160 6240" style="enable-background:new 0 0 4160 6240;" xml:space="preserve">
<style type="text/css">
	.st0{fill:#BCC2C4;}
	.st1{fill:#979DA0;}
	.st2{fill:#B0BBBF;}
	.st3{fill:#828282;}
	.st4{fill:#3F4C51;}
	.st5{fill:#D4E3E8;}
	.st6{fill:#467689;}
</style>
<path id="body-right" class="st0" d="M2080,3499.5l-3.2-44.4c-5.4,2.5-11.4,3.9-17.7,3.9c-23.4,0-42.4-19.1-42.4-42.7
	s19-42.7,42.4-42.7c4.2,0,8.2,0.6,12,1.7l-2.6-36.9L2065,3186c0,0,0.5-176,1-180.5s-3-4.5,0-20s24-75,24-75l20-71l-27-63.5l-23-73.5
	l-57-250l-63-269.5l-50.5-226l-35.5-346c0,0-29.5-61.5-32-60.5s-61,30.5-61,30.5s-31,10.5-37.5,13.5s-151,51-156,52.5
	s-88,23-97,26.5s-87.5,27.5-94.5,31s-37,10-40,12.5s-4,4.5-4,4.5s27.5,120.5,33,135.5s29,229.5,29,229.5s22.5,209.5,22.5,215.5
	s11,237,11,237l47.5,70.5c0,0,2.5,14.5,5.5,22s17,76,17,76s16,93.5,16.5,99s4,64.5,5.5,80.5s2.5,112.5,2,130s-10.5,127.5-12.5,137.5
	s-17,89.5-18.5,96s-18.5,73.5-20.5,79s-5,14-5,15.5s1,2,1,5.5s0,3,0,7.5s-2.5,8.5-2.5,8.5l-4,3.5c0,0-10.5,58.5-11,63
	s-7.5,47.5-8.5,54.5s-0.5,8-1.5,16s-3.5,8-3.5,12.5s-2,6,1,7s7,3,7,3l1.5,3l2,2.5c0,0,0,30,0,32s-14.5,129-14.5,131
	s-16,128.5-16,128.5s-10,82-11.5,93s-13,98.5-14,108.5s-8,98.5-6.5,103s4,18,4,18l29.5,20c0,0,25,16.5,62.5,30.5
	s98.5,32.5,98.5,32.5s118.5,24.5,202.5-4c0,0,44-15.5,53-20s40.5-25,49.5-30.5s53-48.5,62-61s18.5-21,27.5-37s29-60.5,31.5-65
	s24-68,24-68s20-66.5,22-76s32.5-142,33-144s11-52.5,11-52.5l-3.5-52L2080,3499.5z"/>
<path id="body-left" class="st1" d="M2859.7,1739c-10-2-95.3-31.3-106.7-34.7c-11.3-3.3-224.7-91.3-224.7-91.3l-30-12l-1.8-1
	c0,0-30.5-15-35.5-18.5s-27-29.5-27-29.5l-10,1l-38,210l-33.5,181.5c0,0-43.5,142-44.5,148.5s-50.5,233-50.5,233l-54.5,178l-55,185
	l-49.5,177.5c0,0-29,88.5-30,90s-12.5,46-14.5,50.5s-3,138-3,138l7.5,189.5l7.5,127l16,168.5c3.5,39.5,19.5,128.5,19.5,128.5
	L2123,3862c0,0,28,112,29.5,117.5s7,25.5,7.5,30.5s1.5,11,2.5,13s4.5,9,6,12.5s15,36.5,16.5,41.5s2.5,5.5,3.5,8s4,6.5,7.5,12
	s4.5,11,8,17s35,46.5,35,46.5c34.5,45,122,75,122,75c28,14,116,18,128.5,18.5s73.5-7,88.5-10.5s117.5-25.5,125-27s26-4.5,32.5-6
	s21.5-9,25.5-13s15-8,19.5-9.5s4.5,1,6,1s11.5,12.5,11.5,12.5l1-27.5l11-17.5l4.5-298.5l-23-18.5c0,0-3.5-36.5-4.5-42.5
	s-16-139-17.5-146.5s-4.5-84.5-4.5-89.5s0.5-10.5,1-13s2.5,2,4,1.5s3.5,3,3.5,3l2.5,3c0,0-2.5-38.2-3-41.8s-8.8-41.2-8.8-41.2
	s-4.8-17.8-5.2-18.8s-1-7.5-1-9.2s-1.2-11.2-1.5-13.2s-3.5-11.8-4-13.2s0-4,0-7.2s1.2-4.5,1.2-6.5s-1.2-4.2-1.2-4.2
	s-2.5-2.5-2.5-3.5s-0.8-21.8-1.5-25.2s-6.5-15.2-7.5-18s-8.2-15.2-11-20s-11.5-20-13-24.2s-8.5-60-9.2-63.2s-9.5-77-9.8-79
	s-1-84.2-1-86.2s1.8-56.8,2-62s5.5-90.5,7.5-104s9.5-69,10.5-76s10.5-57.8,10.5-57.8c2.2-12,12-49.5,13-54.8s12.2-39.2,12.2-39.2
	c3.8-12,17-37,19.8-42.5s14.8-21,14.8-21l3.1-0.9l58-213.3l59.3-426l22-226.7C2929.7,1756.3,2869.7,1741,2859.7,1739z
	 M2069.2,2995.3c0-25.7,17.3-46.6,38.7-46.6c15.8,0,29.3,11.4,35.3,27.8l-0.7,0c0,0,8.7,15.9-0.4,40.4
	c-6.5,14.9-19.4,25.1-34.2,25.1C2086.6,3041.9,2069.2,3021,2069.2,2995.3z M2523.3,1855.2c0,0-44.8,9.2-48.7,9.8
	c-3.8,0.7-7.5-0.2-7.5-0.2l-9.5,9.2l-1-0.7c-7.7-9.3-6.5-22.2-6.5-22.2s7.8,0,9,0.2c1.2,0.2,10.3,0.5,10.8,0.5s50-8.8,50-8.8
	l1.8,0.7C2531.3,1847.8,2523.3,1855.2,2523.3,1855.2z"/>
<path id="collar-left" class="st2" d="M2377,1476.3c0,0,6.7,20.7,10,32.7s2.7,18.7,1.3,40.7c-1.3,22-10,65.3-10.7,67.3
	s70,126,70,126l37.3,26.7l86-16.7l0.8-9.2l-22-46.8c0,0-20.5-44-23.5-49s-27.8-46.5-27.8-46.5s-8.8-8.2-17-11s-14.2-3.5-18.5-8.5
	s-28.2-26.8-42.2-49C2420.8,1533,2383.8,1479.9,2377,1476.3z"/>
<path id="collar-right" class="st3" d="M1889,1447.7c0,0-12,9.3-14,13s-25,38.7-27,41.7s-13.3,21.3-19.3,26.7s-10,10-13.7,13.7
	s-53,34.7-58,40.7s-14.7,14-23.3,50.7c0,0-10,37.3-10.7,38.7c-0.7,1.3-20.7,52-20.7,52l102,17.3l79.3-117.3l-6.3-44
	c0,0-6.3-67.7-1-86.7L1889,1447.7z"/>
<path id="lapel-right" class="st4" d="M1879,1603.3c0,0-14.3,16.3-18.3,20s-29,39.3-29.7,41s-42.3,58-49,61.7
	c0,0-100.3-16.3-103-16.3s-16.3-4.7-18,7s9.7,61,9.7,61l28.3,105c0,0,15.7,48.3,18.7,58.7c3,10.3,12.3,54.3,15.3,61.3
	s20.7,60,21,61.7s12,42.7,12.3,43.7s23.3,74.7,23.3,74.7s36.7,101,39.7,110s37.7,101.7,40,106.7s40,92.7,40.3,93.7s33,79.3,33.7,81
	s45.7,102.3,52.3,114c6.7,11.7,70.3,127.3,71.3,129.3s26.7,42.7,26.7,42.7l17-37.3l-28-100.3l-19-74.7c0,0-21.7-104.3-22.3-107
	c-0.7-2.7-16.7-72.3-16.7-72.3S2000,2348,1999,2345s-21.3-98.7-21.3-98.7s-22-94-29-138c0,0-29.3-173-29.3-176s-10-113-10-114.3
	s-6.3-74-6.3-74s-8.3-61-8.7-63.7C1894,1677.7,1879,1603.3,1879,1603.3z"/>
<path id="arm-left" class="st5" d="M2919.7,1754.3c0,0,15.3-2,24,1.3s32.3,24.3,36.3,34.3s37,247,37,247l42.5,323.5l44.8,411.8
	l29.3,374.7c0,0,6.7,311.3,6.7,316s-12,339.3-12,339.3s-2,332-2,334.7s-1.3,68.7-1.3,68.7l-1.7,2c0,0,7-17-34.7-22
	c0,0-89.3-12-92-12.3s-47.7-9.7-54-10.7s-53.3-2.3-57-2.3s-49.7-2.3-52.3-1.7c-2.7,0.7-33.7,7.7-34.3,15.3s0-335,0-338
	s1.5-12.5,1.5-16.5s0-40.5,0-42.5s2.5-77,3-88.5s0.5-60.5,0.5-60.5s0-98,0-103s-6-106.5-6-120s-0.5-89.5-1-91.5s-3-137.5-3-137.5
	s-1-149-1.5-152s-2.5-100.5-2.5-108s-0.5-77-0.5-77l-0.5-141l0.5-89.5l3.5-45.5l6-113c0,0,11-147.5,12.5-159s15-135,16-138
	s20-158.5,21.5-166s25-142,28-151.5C2877,1835.5,2898.8,1770.7,2919.7,1754.3z"/>
<path id="lapel-left" class="st6" d="M2557,1743.7l-86,6.3l-2.3-1l-22-35c0,0-55-90-55.7-91.3s-5.7-5.7-7-7.3
	c-1.3-1.7-5.3-1.3-6.3-1.3c0,0-3,22-4,27.3s-8.7,34.3-12.3,42c-3.7,7.7-28,130.3-28,130.3s-22,130-22.3,131.7
	s-28.7,144.3-28.7,144.3l-18.3,100l-17,84l-23.7,93c0,0-19.7,79-20,81.3s-18,57.3-18,57.3l-35.3,135.3l-27.3,103.7
	c0,0-15.7,57.7-18.7,65.7s-14,49-14,49s-8.3,52.3-9.3,55s-11.3,35.3-14.7,41s-12.3,60-12.3,60l14.7-33c0,0,8-19.7,9-22
	s23-55.7,23.7-57s31.3-67.3,32.3-72.7c1-5.3,108-213.3,108-213.3l49.3-96.3l81.7-187.3l42-98.7l58-149l40-105l34.7-95.3l27-74.3
	c1-3.7,14-55,14-55v-3.7C2588.3,1739.3,2557,1743.7,2557,1743.7z M2523.3,1855.2c0,0-44.8,9.2-48.7,9.8c-3.8,0.7-7.5-0.2-7.5-0.2
	l-9.5,9.2l-1-0.7c-7.7-9.3-6.5-22.2-6.5-22.2s7.8,0,9,0.2s10.3,0.5,10.8,0.5s50-8.8,50-8.8l1.8,0.7
	C2531.3,1847.8,2523.3,1855.2,2523.3,1855.2z"/>
<path id="arm-right" class="st5" d="M1336,1717c0,0-7.5-2.5-10-2s-20.5,7.5-24.5,13s-20.5,44-22.5,49.5s-41,112.5-42.5,120
	s-30,121.5-30,121.5l-24.5,125c0,0-24,148-24.5,155.5s-18,147.5-18,151.5s-6.5,64.5-6.5,64.5l-15.5,235.5c0,0-5.5,219.5-6,227.5
	S1108,3118,1108,3120s-4.5,147.5-4.5,147.5l-3,108.5l-8,227l-7.5,241l-5.5,134.5c0,0-3,75.5-4,81s-7.5,48-8,53.5s-4,27.5-4.5,29.5
	s-2,9.5-2,9.5s6,8.5,7.5,9.5s6,7,10,8s15.5,6,19,8s9,6.5,12,6s4.5-0.5,5-3.5s2.5-9,2.5-9s-1.5-1.5,2-1s14.5,3,14.5,3s4,10,4,8.5
	s2.5-22,2.5-22l-8.5-0.5c0,0-8,6-9.5,7s-4.5,2.5-7,2.5s-14,0-16.5,0s-14-2.5-16.5-3.5s-7.5-6-7-7.5s1-9,1-9s44.5-19,86.5-22.5
	s169.5-17,204-2c0,0,15,3,17,6.5s3,9.5,3.5,11.5s2.5,5.5,5,5s11-4,11-4l3-7l-5-151.5l-4-57l-0.5-60.5c0,0,4-173,4.5-177
	s9-106,10-114s1.5-16,1.5-16s4.5-68.5,4.5-70s3.5-54.5,3.5-54.5l12-193l9.5-138.5l6.5-105.5l10.5-182c0,0,7.5-116.5,8-118.5
	s6-96.5,6-96.5l-20-123.5l-19-160l-17-169.5c0,0-19-193-20-196.5s-12.5-75.5-13-79s-11.5-58.5-15-69.5S1356,1734,1336,1717z"/>
</svg>
