<?xml version="1.0" encoding="utf-8"?>
<!-- Generator: Adobe Illustrator 22.1.0, SVG Export Plug-In . SVG Version: 6.00 Build 0)  -->
<svg version="1.1" id="Layar1" xmlns="http://www.w3.org/2000/svg" xmlns:xlink="http://www.w3.org/1999/xlink" x="0px" y="0px"
	 viewBox="0 0 4160 6240" style="enable-background:new 0 0 4160 6240;" xml:space="preserve">
<style type="text/css">
	.st0{fill:#A8AFAE;}
	.st1{fill:#0A4237;}
	.st2{fill:#697774;}
	.st3{fill:#59D3BC;}
	.st4{fill:#C4CECC;}
	.st5{fill:#6B706F;}
</style>
<path id="body-right_1_" class="st0" d="M2096.7,2667c-24-42-108-198-132-257.9c-24-60-281.9-953.8-281.9-971.8s18-102,18-102
	s-22.8,28-36.3,38.5c-13.5,10.5-101.1,51.8-101.1,51.8c-4-1-81,33-87,36s-131,51-131,51s-38,20-47,23s-222,93-236,95s-153,62-158,65
	s-18,8-23,12s-8,5-9,8s-4,20-4,20s75,417,77,422s39,485,39,485s189,561,190,566s24,118,25,124s18,164,16,207c0,0,4,217-19,280
	c0,0-7,42-10,47s-13,23-13,31s0,13,1,18s4,10.3,3.3,11.3c-0.7,1-2.3,3.3-3.3,4.3s-3,2.3-3,4.7s-0.7,2.3,0.7,4.3c1.3,2,2,4,1.7,5.3
	c-0.3,1.3-6.3,26-9.3,41s-12,43-12,51s-4,65-4,78s1,36,0,43s-10,54.5-10.5,60s-0.5,11.5-1,15.5s-1,8.5,2,10s6.5,2.5,8,1.5
	s5-1.5,5-1.5l2,1l-4.5,58l-0.9,57c0,0-37.5,244.5-34.5,261c3,16.5,22.5,223.5,22.5,223.5l25.9,28.5l5.6,52.5c0,0,13.5,198,13.5,204
	c0,6,0,48,0,48s7.5,37.5,9,43.5c1.5,6,10.5,46.5,12,57c1.5,10.5,3,37.5,3,46.5s-1.5,34.5-1.5,34.5l423,12c0,0,72,1.5,93,1.5
	c21,0,124.5-13.5,132-16.5c7.5-3,196.8-7.6,196.8-7.6l54-1775.6v-671.9C2102.7,2900.9,2120.7,2708.9,2096.7,2667z M1527.8,3214.2
	c-35.9,0.6-58.3-24.9-58.3-56.2s24.5-57.8,55.8-55.5c27.9,2.1,54.5,18.8,54.2,52.2C1579.2,3186,1560,3213.7,1527.8,3214.2z
	 M1812.7,3961.3c-32.5-0.4-61.3-24.4-61.3-55c0-30.6,23.8-55.5,58.8-55.4c32.5,0.2,58.4,23.7,58.8,55.4
	C1869.2,3937,1846.9,3961.8,1812.7,3961.3z"/>
<path id="body-right" class="st1" d="M1742,1233c0,0-41,59-49,75s-25,40-33,48s-69,51-81,58s-11,6-17,12s-12,12-17,17s-12,13-18,25
	s-24,59-25,72s-35,226-38,239s-13,106-14,110s-2,82-2,82l178,29l152-337l3-24.7l-0.5-1.5l-22.2-70.2c0,0-17.7-64.3-18-65.7
	c-0.3-1.3-15-69-15.7-99c-0.7-30-2.7-67-1.7-75.3c1-8.3,9.7-46.3,13.3-62c3.7-15.7,12-38.7,12-38.7L1742,1233z"/>
<path id="arm-right" class="st2" d="M877,1714c0,0-13-1-16.5,1s-12.5,9-16,12.5s-14,20.5-14,24S814,1851,814,1853
	s-45.5,255-47,263.5s-34.5,199.5-35.5,204S715,2432,714,2438.5s-9,65.5-8.5,76.5s-6,174-6.5,183s-12.5,246.5-12.5,259.5
	s-6.5,133.5-6.5,140s-6,109-6,114.5c0,0-14,214.5-14,216s-19.5,335-19.5,337.5s-6,100.5-6,108s2,177,2,183s4.5,188,5,189.5
	s4,179.5,4,179.5S651,4722,652,4730s3,159.5,5.5,169s9.5,29.5,19.5,37.5l32,25l10.5-18c0,0-21.5,2-26.5-8s-18-51,4-67.5
	c0,0,18-23.5,124.5-46c0,0,151.5-39.5,239-42c0,0,122-21.5,118.5,41c0,0-7.5,35.5-11.5,42.5s-6.5,10-6.5,10s-12.4-477-10.9-493.5
	c1.5-16.5-4.5-27.7-4.5-27.7s-16-30-17.3-74c-1.3-44-2.7-117.3,3.3-226.7c0,0,11.3-244.7,11.3-248c0-3.3-4.7-126.7-5.3-152
	c-0.7-25.3-5.3-114.7-5.3-117.3c0-2.7-0.7-36.7-1.3-40.7s-6.7-13.3-6.7-20c0-6.7-0.7-10.7,1.3-18.7s28-140,28-140s17.3-87.3,18-90
	c0.7-2.7,2-8.7,2-8.7s-34-266-34-274s-25.3-314.7-28.7-338c-3.3-23.3-34.7-360.7-72-413.3c0,0-92.7-278-94-282.7
	C943.7,1903.7,877,1714,877,1714z"/>
<path id="lapel-right" class="st3" d="M1779.5,1636.8c0,0-26.5,46.5-27.5,49s-35.8,66.8-36.2,67.5s-39.2,80.5-40.5,83.2
	s-24.8,53.5-26.2,56.5s-16.8,38-17.2,39.5s-6.2,11.2-7,12.2s-5.2,9.2-5.2,9.2l-2.2,0.5c0,0-65.2-12-72-12s-118-16.2-124-16.5
	s-95.8,0.8-98.2,1.2s-29.5,16.2-22.5,32.5c0,0,61,143.5,69.2,159s67.2,133,68.5,135.5s65,119.8,65,119.8s53.2,106.2,55.5,109.2
	s33,54.2,35,57.8s48.5,79,49.8,81.2c0,0,55.2,89.2,57.2,92.8s59.2,89.8,61.2,92.8s63.8,97,64.2,98.2c0,0,44,67.5,46,70.8
	s32.2,51,35.8,55.5s105,150.8,105,150.8l76,62l180-328l-50-144l-117-133c0,0-22-72.3-23.7-78.3c-1.7-6-19-61.3-20.3-64.3
	s-23.3-68.3-31-87.7c-7.7-19.3-39.3-111.7-39.7-112.7c-0.3-1-43.7-129.3-44.7-132.3s-29-97.3-29.7-99.3c0,0-38.7-139-39-141
	s-48.3-160.3-49.3-162.3s-42-121.3-42-121.3L1779.5,1636.8z"/>
<path id="body-left" class="st4" d="M3229.8,1720.8c-4.2-3-6.8-4.8-6.8-4.8s-12.3-12-15-13.3c-2.7-1.3-38-15-42-16.3
	c-4-1.3-48-13.7-62.3-20c-14.3-6.3-68-26.3-75.3-29c0,0-88.3-36.3-92.3-38c-4-1.7-81.7-31.7-89-34.7s-96-43-102.3-45.7
	c0,0-114-51.3-120.7-53.7c-6.7-2.3-68.7-31.3-73-32.7c-4.3-1.3-93-44.7-93-44.7l-24-27c0,0-81,400-81,412s-66,312-76,333l-154,526
	c0,0-220,749-224,752s-115,335-121,347s-42,128-43,136s-4,289-4,296s-9,383-10,404s-17,315-17,332s-15,342-16,360s-8,86-1,95
	s62,17,68,17s41-5,54-5s99,0,110,1s113,5,134,6s179,5,199,5s118-5,128-4s163,2,173,2s180-10,202-11s71-6,87-7l20-1.5
	c0,0,28-3,45-2.5l41.5-5c0,0,13.5-98.5,13.5-110.5s20-86.5,20-88.5s29.5-77,31-93.5s15-124.5,15-128.5s-3.5-29.5-3.5-29.5
	s-39.6-505.4-42.5-511.9s-10-150.6-10-150.6l1-5c0,0,3.8-2.8,9.2-1.5c0,0,1.8-0.8,1.8-1.5s-0.2-2.5-0.2-2.5s-7-31-7.8-33.5
	s-11.5-76.2-12.2-80.8s-11.8-66.8-13-71.2s-6.5-31.2-7.1-33.2s-12-42.4-13.3-49.1c-1.3-6.7-5.3-17.3-3.3-20.7c2-3.3,2-3.3,4-6.7
	s1.3-6,1.3-6s-4-4-6.7-6.7c-2.7-2.7-5.3-2-6-6c-0.7-4-0.7-6-0.7-9.3s-0.7-22.7-0.7-22.7s-1.7-17.3-2.3-20.3s-10.7-80-11-82.3
	c-0.3-2.3-6-58.3-6.3-64c-0.3-5.7-3.7-49-3.7-53s-2.7-85.3-3-93c-0.3-7.7,1-101,3.3-114.7c2.3-13.7,9-89,10-93.3
	s13.7-79.7,16.7-90.7s19-71,22.3-79c3.3-8,10.3-39,11.7-42s13.7-27.3,13.7-27.3s89.3-299,105.3-335s92-762,106-812s52-238,52-238
	S3234,1723.8,3229.8,1720.8z M1812.7,3961.3c-32.5-0.4-61.3-24.4-61.3-55c0-30.6,23.8-55.5,58.8-55.4c32.5,0.2,58.4,23.7,58.8,55.4
	C1869.2,3937,1846.9,3961.8,1812.7,3961.3z M2471.6,3987.2c-31,0-56.1-25-56.1-55.9s25.1-55.9,56.1-55.9s56.1,25,56.1,55.9
	S2502.6,3987.2,2471.6,3987.2z M2610,2151c-2.3,0.3-2.8,0.5-5,0.5s-3.3-1.2-4.5-2.2s-3.2-5.3-5.2-6.3s-1.5-1.2-2.3-3
	s0.3-1.3,0.8-2.2c0.5-0.8,2.3-3,3-4c0.7-1,0.3-2.7,0.3-4c0-1.3-0.3-1.2-0.8-1.5c-0.5-0.3-1.2-0.8-1.3-2.3s0.5-1,1.5-2.2
	c1-1.2,3.5-2.2,5-3.2s3.2-2.5,4-3.7s4.8-0.8,6.7-1c0,0,6,1,7.3,1.8c1.3,0.8,5.3,4.8,6.7,6c1.3,1.2,9.3-3,15.8-3.7
	c6.5-0.7,39.7-8.7,42.5-9c2.8-0.3,9.3-0.5,11.7-0.5c2.3,0,1.7,1.3,3.7,3.5c2,2.2,1.2,5,1.5,6.2c0.3,1.2,1,2.2,1,3.3
	c0,1.2-5,6.8-6,7.7c-1,0.8-19,3.8-21.7,4c-2.7,0.2-33.5,5.7-36.8,6c-3.3,0.3-19.5,5.2-22.5,7C2612.3,2150.2,2612.3,2150.7,2610,2151
	z M2680.5,3225.2c-29.5,0-53.5-24-53.5-53.5s21.7-56,51.2-56s50,24.2,50,53.8S2710,3225.2,2680.5,3225.2z"/>
<path id="collar-left" class="st1" d="M2390.3,1258.3c0,0,7.7,27.7,8.7,33.7s8,31.5,9,36s1,48.5,1,53s-17.5,89.5-18.5,98
	s-13,70.5-15.5,77s-16,55.5-17,60.5s-4,17.5-5,24s-1.5,12-2,13.5s-0.5,6-0.5,6l7.5,35.5l148.5,276l12.5,20.5l193-33.5l5.5-27.5
	c0,0-22.5-127-26-137.5S2622,1542,2622,1542s-6.5-40-37-75c0,0-25-30.5-35-37s-58.5-37-69.5-50c0,0-30-23-39-40.5s-18-37-23-45
	S2393.7,1259.7,2390.3,1258.3z"/>
<path id="arm-left" class="st5" d="M2989,4374c0,0-3.6,5.1-6.4,11.2c-0.2,0.5-0.4,0.9-0.6,1.4c-0.8,1.8-1.5,3.7-2,5.4
	c-3,11-1,406-1,406s2-16.3,4.7-18c2.7-1.7,4-5.3,11.7-5.7c7.7-0.3,24.3-4,65.7-0.7c41.3,3.3,147,18.3,154.3,20l83,14
	c0,0,56.7,15.3,61.7,16.7c5,1.3,37.3,16.3,41.7,18.3c4.3,2,9.7,6,11.7,8.3s11.7,20.7,13.3,33.7c0,0,4,18.3,4.7,24.7
	c0.7,6.3,0,12-0.3,15s-2,9-3,9.7s-4,2-6,2.7c-2,0.7-6,0-5,3s5.7,9.7,7.3,10.3c1.7,0.7,6-1,7.7-3.7c1.7-2.7,4-11.7,4.7-17.7
	c0.7-6,3.3-22.7,3-28.3c-0.3-5.7-3.7-27-4.3-30c-0.7-3,2-71,2.3-72c0.3-1,3.7-84.7,5.3-96c1.7-11.3,4.7-93.3,6-98.7
	c1.3-5.3,4.3-51.7,5.7-58.7c1.3-7,6.3-65.7,7.3-71.7s8.7-80.7,9.7-87.7s9-95.3,9-99c0-3.7,3.3-42.3,4-50.3c0.7-8,4.3-62.3,4.7-66.7
	c0.3-4.3,5-55.3,5.3-59c0.3-3.7,0.3-30.7,0.3-33.7s-1-49-1-50.7c0-1.7-2.3-114-2.3-118.7c0-4.7-2.7-120-2.7-125.3
	c0-5.3-2.7-152.3-2.7-154.3s-2.7-123.7-2.3-132.3c0.3-8.7-5.7-135.3-6-142.3s-3.7-71-4-76.3s-7-119-7-124.7
	c0-5.7-6.7-112.7-6.7-115.7s-11.3-115.3-11.7-120c-0.3-4.7-13-129-13.3-132.7c-0.3-3.7-17-155.3-17.3-158s-20.3-182-20.3-183.7
	c0-1.7-23-188.7-23.7-193.7s-19.7-153.7-20-155.7s-11-70-27.7-147.7c0,0-24-108.3-32.3-132l-29.7-76.3c0,0-6.7-14.7-28-20.7
	l-13.3-0.3c0,0-83,285-87,301s-36,140-41,159s-4,1-6,11s-6,35-9,47s-9,20-12,37s-10,38-12,56s-13,38-13,66s0,90,0,101s-11,50-14,69
	s-2,64-8,78s-10,20-14,54s0,88-2,112s-6,128-12,156s-10,54-14,74s-4,92-4,92s-2,46.7-2,62s-1.3,99.3-1.3,107.3s-2.7,114.7-2,120.7
	c0.7,6,2.7,234,2.7,246s0,258,0,266s4,88,4,98s0.7,56.7,2.7,79.3c2,22.7,7.3,72.7,8,78.7s2,78,2,88s1.3,77.3,2,82.7
	c0.7,5.3-4,16.7-4,16.7"/>
<path id="lapel-left" class="st5" d="M2796,1921.3c0,0-119.3,17.3-143.3,23.3S2536,1972,2536,1972s-124.7-220.7-134-238
	s-45.5-74.8-55.8-82.8c-0.9-0.7-5,9.8-5.8,12s-18,64.5-19.5,70s-11.2,46.8-12.8,54.5s-12.5,54.8-13.2,58.2s-12.5,53.5-14.2,59.5
	s-12.8,52-13.2,56.5c0,0-11.8,69.2-12.8,74s-14.2,67.7-14,73.2c0.2,4.9-13.2,37.3-15.2,49.5c-0.9,5.5-40.2,138.6-35.5,155.2
	c0,0-90.3,325.3-93,336s-115.7,363.3-124.3,397.3c0,0-126,415.3-128.7,424.7s-83,268.3-94,294c-12,28-24,82-24,82l191.3-268.7
	c0,0,177.3-223.3,197.3-248c20-24.7,101-140.3,120.3-164.3s143-214.3,150.3-228.3c0,0,110-189.3,114.7-197.3s85.3-176,100.7-200
	c15.3-24,67.3-156,77.3-178s77.3-162.7,87.3-189.3s77.3-190,79.3-204.7C2846.7,1954.7,2858.7,1911.3,2796,1921.3z M2696.3,2131.3
	c-1,0.8-19,3.8-21.7,4c-2.7,0.2-33.5,5.7-36.8,6c-3.3,0.3-19.5,5.2-22.5,7c-3,1.8-3,2.3-5.3,2.7s-2.8,0.5-5,0.5s-3.3-1.2-4.5-2.2
	s-3.2-5.3-5.2-6.3s-1.5-1.2-2.3-3s0.3-1.3,0.8-2.2c0.5-0.8,2.3-3,3-4c0.7-1,0.3-2.7,0.3-4c0-1.3-0.3-1.2-0.8-1.5
	c-0.5-0.3-1.2-0.8-1.3-2.3s0.5-1,1.5-2.2c1-1.2,3.5-2.2,5-3.2s3.2-2.5,4-3.7s4.8-0.8,6.7-1c0,0,6,1,7.3,1.8c1.3,0.8,5.3,4.8,6.7,6
	c1.3,1.2,9.3-3,15.8-3.7c6.5-0.7,39.7-8.7,42.5-9c2.8-0.3,9.3-0.5,11.7-0.5c2.3,0,1.7,1.3,3.7,3.5c2,2.2,1.2,5,1.5,6.2
	c0.3,1.2,1,2.2,1,3.3C2702.3,2124.8,2697.3,2130.5,2696.3,2131.3z"/>
</svg>
