<?xml version="1.0" encoding="utf-8"?>
<!-- Generator: Adobe Illustrator 21.1.0, SVG Export Plug-In . SVG Version: 6.00 Build 0)  -->
<svg version="1.1" id="レイヤー_10" xmlns="http://www.w3.org/2000/svg" xmlns:xlink="http://www.w3.org/1999/xlink" x="0px"
	 y="0px" viewBox="0 0 2695 3176" style="enable-background:new 0 0 2695 3176;" xml:space="preserve">
<style type="text/css">
	.st0{fill:#656868;}
	.st1{fill:#95A0A0;}
	.st2{fill:#6B8988;}
	.st3{fill:#ADADAD;}
	.st4{fill:#6D7575;}
	.st5{fill:#CCD6D6;}
</style>
<path id="body-left" class="st0" d="M1541.6,885.5c2.5,0.3,165.2,49,173.8,52.3c8.7,3.3,93.3,26,97.3,28s16,4,18.7,6.7
	s3.3,4.7,3.3,8s-23.3,320-22.7,322.7c0.7,2.7-56,320-62,331.3s-48,86-48,86s-6,14-6.7,20.7s-6.7,47.3-7.3,53.3s-0.7,82.7,0,90
	s2,38.7,3.3,42.7s10,33.3,11.3,42s12.7,88.7,13.3,93.3s3.3,17.3,6.7,23.3c3.3,6,16,130.7,16.7,132.7s2.7,120.7,2.7,122.7
	s-8,16.7-8,16.7l-22.7,5.3c0,0-60.7,8-73.3,7.3s-20,1.3-60,1.3s-109.3-0.7-120.7-3.3c-11.3-2.7-48.2-11.7-69.3-31.5
	c0,0-71-73.5-78-120.5l27-142c0,0,18-144,18-149s3-222,2-228s-18-145-22-179s-12-65-12-65l8-44c0,0,75-214,78-224s52-254,52-254
	l12-72L1541.6,885.5z"/>
<path id="body-ight" class="st1" d="M1360.1,1587.5l-209-581l-56-121c0,0-34,13.3-38.3,15s-33.3,9.7-37,11s-63.3,21-70.3,22.7
	s-98.7,30-103,31.7s-28.7,7-31,15c0,0,9.3,51,9.3,54s2,70.7,2,81s6,124,6,124s6.3,114.6,16.3,143.6s66,271,69,278s25.7,42.3,27,44.5
	s23.7,39.2,24,41.5s1.7,14,0.7,16.3s-14.3,50-14.7,51c-0.3,1-8.7,42.3-9.3,45c-0.7,2.7-5.2,45.2-5.7,48.7s0,17-1.5,19.5s-9,6-9,7.5
	s-1,1.5,0,4.5s2,4.5,3,8s2.5,4.5,0.5,6s-7,9.5-7,9.5l-9.5,13c0,0-22.5,92-21,93s10,11,10,11l1,2c0,0-5.5,8-6,12s-2.5,10-2.5,15
	s2,5,0,12.5s-3,88.5-3,88.5l-3,134.5l3,12.5l3,2c0,0,27,2,35.5,3.5s84.5,2,93,3.5s37.5-2.5,44-2.5s25.5-4,37.5-2.5s59,0,59,0
	s53-9,59-12s42-38,48-43s52-91,58-103s25-117,25-117l12-121l4-163c0,0,3-120,4-127S1360.1,1587.5,1360.1,1587.5z M1312.1,1700.5
	c-9,0-17-4.4-22.3-11l0,0c-9.4-12.7-6.4-24.9-3.2-31.9c5-9,14.8-15.1,25.9-15.1c15.9,0,28.7,12.7,28.7,28.7
	C1341.1,1687.1,1328,1700.5,1312.1,1700.5z"/>
<path id="collar-right" class="st2" d="M1180.1,785.2c0,0-11.2,14.3-12.8,17.3s-7.2,11-9.8,14.2s-11,10.5-15.5,15.5
	s-22.2,25-24.8,27.8s-10.8,13.2-17.2,19s-7.2,6.5-8.8,7.2s-3,1.5-4,2.8s-11.5,21.2-13,23.8s-10.8,22-13.8,29.5s-11.2,26.5-13.2,32.5
	s-5.5,32.2-6,35s-0.2,5.2-0.2,5.2l80.8,11c0,0,57.2-61,61.2-65.8s12-22,12-22s-9-50.5-9.2-56s-5.2-34.5-5.5-36.5s-1.8-6.2-1-13
	s1.5-42,1.5-42L1180.1,785.2z"/>
<path id="collar-left" class="st3" d="M1447.6,780.5c0,0,3,34.5,3,38.5s2,24.5,1,31.5s-18.5,98.5-18.5,98.5l-2.5,15.5
	c0,0,59.5,52.5,61,57s15.5,11,15.5,11l6-8.5c0,0,10.5-8,26-10s23-6,28.5-5.5s9.5,0.5,16-0.5s6.5-1.5,7-4.5s-0.5-6.5-4-14.5
	s-11.2-33.7-12.2-37.2s-15.8-36.3-21.3-46.3s-11.5-20-11.5-20s-65-65-72.5-76S1447.6,780.5,1447.6,780.5"/>
<path id="lapel-left" class="st3" d="M1432.1,952.5c0,0,45.5,42.5,48,45s19,20.5,23,23.5s0,2.5,4,3s1.5,0.5,8,0.5s36-2.5,36-2.5
	l59-7c0,0,29,1,18.5,20.5l-55,107l-31.5,55l-44.5,67l-54,77.5l-52.5,67.5c0,0-58.5,72.5-61.5,75.5s-21.5-42-21.5-42l2-24l7.5-5.5
	l19.5-56.5c0,0,15.5-44.5,16-50s4-24.5,4.5-28.5s2.5-8,5.5-11.5s3.5-5.5,6.5-9.5s11-35.5,13.5-42s27.5-117.5,27.5-117.5
	s13-80.5,13.5-85.5S1432.1,952.5,1432.1,952.5z"/>
<path id="lapel-right" class="st4" d="M1193.6,934.5c0,0,8.8,52.5,9.2,56.5s14.2,86.5,16.8,97s33.5,125,37,132s20,54,21.5,57
	s3.5,8,3.5,8s10.5,62,12.5,67s27.5,92.5,28.5,94.5s28,88.5,28,90.5s18,85.5,18.5,87.5s-11-23.5-12.5-28.5s-5.5-17-7.5-19.5
	s-65.5-92.5-68.5-95.5s-79-96.5-81.5-101.5s-74.5-104-74.5-104s-57-94-66.5-110s-41.5-70-42.5-72s-18.5-38-21-40.5s-10.5-20.5,3-24
	l20-3.5l88,1.5h10l12-16l19.5-17.5c0,0,31-37,36.5-43.5S1193.6,934.5,1193.6,934.5z"/>
<path id="arm-right" class="st5" d="M819.1,978c0,0,8,11.5,9,22s6.5,41.5,6.5,46.5s3,42.5,3,62.5s4,107.5,3,115s4,56,9.5,71.5
	c0,0,27.5,131.5,27.5,134s17.5,113.5,20.5,129.5s22.5,81,23.5,84s23.5,63,23.5,63l-2,8c0,0-16.5,146-17,150s-3.5,72-3.5,79.5
	s3.5,20,3.5,20l-3.5,9c0,0-13.5,42.5-16,60.5c-2.5,18-3,25-3.5,27s0.5,4.5-1.5,7.5s-2.5,3-4,7s-3,8-3,18.5s1,19,1,22s2.5,5.5,2.5,7
	s2,71.5,2,71.5l-0.5,113c0,0-1.5,83.5-2.5,86s-6.5,75-6.5,75l-8.5,118l-28-11c0,0-66-10.5-123.5-5l-35,4l-9.5,41.5
	c0,0-54-19-56.5-20.5s-17.5-6-17.5-6s-2.5,0-2-4s8.5-20.5,7-26s5-54.5,5-54.5l8.5-140.5c0,0,2.5-63.5,4-75.5s5-139,5.5-141.5
	s4-73,4-75s3-71.5,3.5-80s5-109.5,5-109.5l4.5-119.5c0,0,5.5-75.5,5.5-82s1.5-69,4.5-83.5s7-127.5,7-127.5s5-77.5,7.5-93
	s11.5-70,14-77s14-69.5,15-73s20.5-73.5,21.5-78.5s28-85.5,28-85.5s24-57,26.5-62.5S801.1,972.5,819.1,978z"/>
<path id="arm-left" class="st5" d="M1830.1,977.5l4.7-2.3c0,0,14.3,0,18,3.7s9.3,10,11,12.7s27,64.3,30.7,72s16.7,51,16.7,51
	s17.3,57.3,20.3,72.3s17,88.3,17,88.3s4,25,5.3,32.7s4,56.7,6,64.3c2,7.7,7,79.3,7,81s4.3,57.3,4.3,57.3s7,117.7,7,118.7
	s12,350,12,350s4.7,203.3,4.7,205.3s2,160,4,174s12,184.7,12,188.7s0.7,23.3,1.3,26.7c0.7,3.3-2,6-2,6s-55.3,20-63.3,25.3
	s-22,12.7-22,12.7l-8-54c0,0-80.7-3.3-100.7,0s-61.3,2-72.7,12.7l-11.3,9.3l2-42l0.7-205.3l-0.7-85.3c0,0-10.7-165.3-10.7-170.7
	s-0.7-24-1.3-30.7c-0.7-6.7,0-75.3-1.3-87.3s-2.7-62.7-4-71.3c-1.3-8.7-8.7-78.7-8.7-78.7s0-68.7-3.3-75.3c-3.3-6.7-5.3-16-5.3-16
	s9.3-40.7,12-48.7s30-116.7,32.7-130.7s13.3-41.3,15.3-46s6-18,6.7-20s1.3-28,2-39.3s8.7-37.3,9.3-41.3c0.7-4,8-20.7,8-20.7
	s-0.7-26.7-0.7-30s6.7-31.3,7.3-34.7c0.7-3.3,2-15.3,2-18.7c0-3.3,13.3-102,13.3-106.7s10-125.3,10-134s2-47.3,2-47.3l8-26"/>
</svg>
