<?xml version="1.0" encoding="utf-8"?>
<!-- Generator: Adobe Illustrator 21.1.0, SVG Export Plug-In . SVG Version: 6.00 Build 0)  -->
<svg version="1.1" id="Layar1" xmlns="http://www.w3.org/2000/svg" xmlns:xlink="http://www.w3.org/1999/xlink" x="0px" y="0px"
	 viewBox="0 0 4160 6240" style="enable-background:new 0 0 4160 6240;" xml:space="preserve">
<pattern id="normal" patternUnits="userSpaceOnUse" width="270" height="270" patternTransform="">
		<image image-rendering="optimizeQuality" preserveAspectRatio="xMidYMid meet" xlink:href="/images/simulator/default/default_tex.jpg" x="0" y="0" width="270" height="270" style="-ms-interpolation-mode: bicubic;" />
  </pattern>
  <pattern id="left" patternTransform="rotate(23)" patternUnits="userSpaceOnUse" width="270" height="270">
		<image image-rendering="optimizeQuality" preserveAspectRatio="xMidYMid meet" xlink:href="/images/simulator/default/default_tex.jpg" x="0" y="0" width="270" height="270" style="-ms-interpolation-mode: bicubic;" />
  </pattern>
  <pattern id="right" patternTransform="rotate(-23)" patternUnits="userSpaceOnUse" width="270" height="270">
		<image image-rendering="optimizeQuality" preserveAspectRatio="xMidYMid meet" xlink:href="/images/simulator/default/default_tex.jpg" x="0" y="0" width="270" height="270" style="-ms-interpolation-mode: bicubic;" />
  </pattern>

<style type="text/css">
	.normal{fill:url(#normal);}
	.left{fill:url(#left);}
	.right{fill:url(#right);}

</style>
<path id="flare-3" class="normal" d="M1851.4,1780.8c0,0,212.4,9.5,239.7,8.3s170.6-9.1,170.6-9.1l111.4-7.9l26.1,0.4l7.9,127.9
	l25.3,323.4l105,1503.5l0.9,11.2c0,0-26.9,2.4-28.4,2.4c-1.6,0-87.5,5.4-94.3,6.2c-6.9,0.8-74.9,3.2-77.3,3.5s-43.5,0.8-51.8,0.5
	c-8.2-0.3-55.4,0.6-58.6,0.6s-67,0-70.1,0.4c-3.2,0.4-44.4,2.5-48.2,3c-3.8,0.5-53.5,0.2-59.4,0.2c-6.8,0-71.1,0.2-73.6,0
	c-2.5-0.2-34.6-0.2-38.7-0.2c-4.1,0-106.7-3.5-108.9-3.6c-2.2-0.2-24.9-0.6-29.1-0.8c-4.2-0.2-12.8-0.8-21.2-2s-18-2.8-23.1-3.6
	c-5.1-0.8-12.1-1-14.9-1.4s-7.9-0.6-7.9-0.6l-11.1-0.6l8.4-153.8l8.7-106.5l4.9-76.4c0,0,4.3-57.7,4.3-59.2c0-1.6,5.4-65.4,5.4-65.4
	l3.9-67.3l3.9-117.8l4.3-91.5l3.8-108l3.2-144.1l4.9-68.1l20.8-313.8l11.7-152.8l11.5-154l16.7-134.1c0,0,12.6-138.4,12.5-139.1
	C1850.3,1789.9,1851.4,1780.8,1851.4,1780.8z"/>
<path id="flare-2_1_" class="normal" d="M2381.8,1769c0,0,88.4-1.7,105.2-4.3s138-5.5,138-5.5s6.9,28.3,7.5,32.2
	c0.6,3.9,12.2,55.3,12.5,58c0.2,2.8,6.7,29.2,7.3,33.2c0.6,3.9,12.2,59.9,12.5,61.2c0.2,1.3,8.8,44.2,9.3,45.4
	c0.5,1.2,10.4,49.4,10.9,52.1c0.5,2.8,14.8,78.2,16,82.1c1.1,3.9,13,61.8,13.6,64.4c0.6,2.6,11.1,54.9,11.8,57
	c0.8,2.1,15.2,78.8,15.8,80.2s16.2,80.2,17,82.9c0.8,2.8,22.5,113.1,22.5,114.4c0,1.3,13.4,64.6,13.8,66.3
	c0.4,1.7,19.3,101.7,19.6,103.1c0.2,1.3,12,63.8,12,63.8s36.7,186.8,38.3,193.5c1.6,6.7,46.2,248.8,47.4,255.1
	c1.2,6.3,16.6,128.7,17.4,131.9c0.8,3.2,18.6,124,19,126.4c0.4,2.4,7.9,62,8.3,65.2c0.4,3.2,19.3,128.3,19.3,128.3l-0.4,2.8l-2,1.2
	c0,0-36.7,7.1-41.5,8.3c-4.7,1.2-107.4,25.7-114.1,27.6c0,0-52.9,10.7-65.2,13.8c-12.2,3.2-55.7,11.1-68.7,13.4
	c-13,2.4-102.3,15.7-117.4,15.7c-15,0-58.7,2.4-58.7,2.4l-8.8-158.3c0,0-7.5-119.2-8.3-123.2c-0.8-3.9-9.9-147.7-10.7-151.2
	c-0.8-3.6-7.9-141.4-8.3-143.3s-11.5-198.2-12.2-203c-0.8-4.7-9.1-199.8-9.1-207.3s-13-167.4-13-171c0-3.6-11.5-141.4-12.6-147.7
	s-10.3-129.5-10.3-133.5c0-3.9-12.6-191.1-12.6-191.1s-12.2-196.6-12.2-201s-7.1-139-7.1-139L2381.8,1769z"/>
<path id="flare-1_1_" class="normal" d="M1620.1,1772.4c0,0-51.6,212.7-52.7,221.7c-1.1,9-26.9,109.5-34.2,149.5
	c0,0-30.6,194.3-33.7,210.1c-3.2,15.8-31.6,194.3-32.1,196.4c-0.6,2.1-29,175.3-31,190.1c-2.1,14.8-36.9,233.2-39.5,246.9
	c0,0-21.6,135.3-22.1,139.5c-0.6,4.3-65.3,405.4-65.8,412.2c-0.6,6.9-17.4,112.7-17.4,112.7l-0.6,3.2c0,0,9.5,3.2,11.6,4.2
	c2.1,1,15.8,4.7,26.3,7.9s47.4,18.4,64.2,20.5c16.8,2.1,171.1,34.2,178.5,35.3c7.3,1,60.6,12.6,74.8,13.2s35.3,4.7,41.1,4.7
	c5.8,0,48.8,2.9,48.8,2.9l9.6-140.8l15.2-234.3c0,0,8.9-136.9,8.9-142.7c0-5.8,12.1-339.6,12.1-339.6s13.2-325.4,13.7-329.1
	c0.6-3.7,21.1-248,21.1-250.1c0-2.1,20.1-219.5,20.1-219.5s17.8-203.4,19-212.4c1.2-9.1,3.9-54.1,3.9-54.1s0.4-8.3,0.4-10.3
	c0-2,1.2-15,1.2-15l-240.5-26.9L1620.1,1772.4z"/>
<path id="belt" class="normal" d="M1669.1,1612.9c-1,0.2-6.6-0.8-8.1,1.3c-1.6,2.1-2.1,6.1-2.9,8.7c-0.8,2.6-9.7,61.8-20.8,89.5
	l-19,67.4c0,0,28.4,2.9,30.2,3.2s175.6,20.8,182.7,21.3s95,5.5,98.2,5.5c3.2,0,72.9,1,79.5,1s176.1-3.4,180.6-3.4
	c4.5,0,168-8.7,176.9-8.7c8.9,0,125.6-12.4,137.6-12.9c12.1-0.6,97.4-5,127.1-0.6c0,0-26.9-119-27.9-125.8c-1-6.9-5.3-26.6-5.5-28.4
	c-0.2-1.8-1-6.6-1.3-7.3c-0.3-0.8,2.6-8.9-10.5-8.9c0,0-80.6-2.1-89.2-1.8c-8.7,0.2-69.3,2.1-75.6,3.4c0,0-62.4,1.6-63.4,1.8
	c-1,0.2,0,0.2-1.8,0.2s-68.2,2.1-76.4,2.4c-8.1,0.2-65.3,2.6-71.1,2.9c-5.8,0.2-70.3,3.4-80.8,3.9c-10.5,0.6-90-0.8-96.3-0.6
	c-6.3,0.2-96.1,1.8-103.2,1.6c0,0-70.3-1-78.2-1.3c-7.9-0.2-45.2-2.1-53.9-2.5c-8.7-0.4-31.6-2.5-36.2-2.8
	c-4.6-0.2-62.1-7.1-64.8-6.9C1692.4,1615.2,1669.1,1612.9,1669.1,1612.9z"/>
</svg>
