<?xml version="1.0" encoding="utf-8"?>
<!-- Generator: Adobe Illustrator 21.1.0, SVG Export Plug-In . SVG Version: 6.00 Build 0)  -->
<svg version="1.1" id="Layar-1" xmlns="http://www.w3.org/2000/svg" xmlns:xlink="http://www.w3.org/1999/xlink" x="0px" y="0px"
	 viewBox="0 0 4160 6240" style="enable-background:new 0 0 4160 6240;" xml:space="preserve">
<style type="text/css">
	.st0{fill:#2A2B2B;stroke:#FFFFFF;stroke-miterlimit:10;}
	.st1{fill:#9B9B9B;}
	.st2{fill:#606060;}
	.st3{fill:#C9C9C9;}
	.st4{fill:#B7B7B7;}
	.st5{fill:#6D6D6D;}
	.st6{fill:#939393;}
	.st7{fill:#D1D1D1;}
	.st8{fill:#A5A5A5;}
</style>
<g id="レイヤー_29">
	<path class="st0" d="M1627.9,3393l-4-404l840,2l2,408c0,0-14.1,25.1-19,36.5c0,0-2.7,6.7-3.1,9.6c-0.5,2.9-1.9,6.7-3.4,7.9
		c-1.4,1.2-1.9,1.7-1.7,2.9s4.3,3.8,4.1,6.7s0.7,5.5-0.7,10.1s-11.5,23.1-12,25s0.2,3.8-1.4,7.9s-5,9.9-6.7,16.1s-5.8,14.4-6.7,17.6
		c-1,3.1-4.1,10.8-4.6,13.7s-2.2,9.1-0.2,19.5c1.9,10.3-1,28.6-1,31s-1.7,19.2-1.7,20.7s-1.2,4.3-0.7,7.2s-1,19.7-0.2,20.2
		c0.7,0.5,25.2-2.9,28.6-3.8c3.4-1,8.7-5.8,11.5-7.5c2.9-1.7,6-4.8,7.7-3.8s3.6,1.9,3.6,5.3s-0.5,5.8,0,7.7s9.1,10.6,12.3,13.2
		c3.1,2.6,3.6,2.2,4.1,4.8s1.4,2.9,4.6,3.6c3.1,0.7,8.7,2.6,12.5,3.8s6,3.1,7,5.5s3.8,11.5,6.3,14.4s3.8,2.9,5.3,4.6
		c1.4,1.7,2.4,2.4,3.6,5.3c1.2,2.9,5,7.7,9.4,10.1c4.3,2.4,7.5,3.4,15.6,2.6c8.2-0.7,15.6-7.5,17.1-7.9c1.4-0.5,1.4-0.7,5,0.2
		c3.6,1,7.9,2.6,14.2,1.2c6.3-1.4,8.4-3.1,8.4-3.1s-1.9,41.8-5,88.5c-3.1,46.6-13.2,178.7-13.7,192.6s-6.5,107.2-7.9,166.4
		c-1.4,59.1-4.1,158-4.3,182.7c-0.2,24.8-3.4,142.8-3.8,162.1c-0.5,19.2-5,189.7-5,189.7s-1.2,82-1.9,109.4s-0.7,89.9-1,110.1
		c-0.2,20.2,0.2,87.3-0.2,122.9s-1.7,118.8-1.7,134.2c0,15.4,0.5,112.3,0.5,112.3s-0.2,95.7-0.2,118.8c0,23.1,2.2,100.7,2.9,116.4
		s3.4,60.1,3.8,69.7s0.5,22.1,1,24s1.7,4.3,1.4,6.5c-0.2,2.2-16.1,8.9-20.7,10.1c-4.6,1.2-20.9,7.7-23.3,10.1
		c-2.4,2.4-1.2,3.8-3.6,4.3c-2.4,0.5-2.6,1-8.2,1s-19.7,3.1-29.8,3.4c-10.1,0.2-20.2-0.2-24.3-0.5c-4.1-0.2-20-1.7-25.5-1.4
		c-5.5,0.2-13.5,0.5-17.6,0.2c-4.1-0.2-29.3-2.6-38-1.2s-23.6,0.5-32,0.2c-8.4-0.2-13.5,0.7-17.8-3.8c-4.3-4.6-16.6-16.8-19-20
		c-2.4-3.1-8.4-7.5-8.4-7.5l-8.2-137.5l-12.7-209.9c0,0-6.3-133-7.2-163c-1-30.1-5.3-178.4-5.3-178.4l-3.6-131.5
		c0,0-4.8-132.2-7.2-162.8c-2.4-30.5-11.8-155.3-12.5-168.1c-0.7-12.7-4.8-85.8-5.8-117.1c-1-31.3-4.3-136.3-6-162.3
		s-9.1-111.8-11.5-130.8s-10.8-105.8-14.2-126s-14.7-106.8-19.2-127.9c-4.6-21.2-11.3-57.7-11.3-65.2s-0.2-8.9,0-12s1-6.5,0.2-9.1
		c-0.7-2.6-6.3-15.1-9.6-31.7s-19.7-100.3-20.7-107.5s-9.6-49.1-12.7-62.3c-3.1-13.2-22.8-75.3-26.4-86.3s-2.2-16.1-8.9-18.3
		s-8.2,1.9-8.4,2.6c-0.2,0.7-5.3,9.1-6.3,10.3s-6.3,7-7.9,12.5s-19,54.8-20.4,61.6c-1.4,6.7-9.4,43.5-9.4,43.5s-14.4,80.8-20,115.4
		c-5.5,34.6-28.9,183-28.9,183s-15.1,107.5-18.8,136.3c-3.6,28.9-16.6,131.5-19,168.6c-2.4,37-8.9,97.1-10.1,126.2
		s-3.6,149.1-4.8,180.6c-1.2,31.5-6.5,115.9-7.2,135.4s-9.1,138.5-9.1,138.5s-5.8,84.6-5.5,89.4c0.2,4.8-2.2,56.5-4.1,74.5
		s-5.8,105.6-7,124.8c-1.2,19.2-7,125.5-7,125.5s-2.6,61.1-3.4,67.8s-0.7,35.6-1.9,49.5s-5.8,67.8-5.8,76.9s-5.3,84.4-6.5,106.5
		s-6.5,101.7-7.5,117.6s-4.6,42.6-4.8,45.7s-2.4,6.5-5.8,6.7s-12.5,0-15.9,1.2s-32.2,10.1-37.7,12s-14.4,5.5-27.2,7.2
		c-12.7,1.7-24,2.2-28.1,3.1c-4.1,1-11.8,0-15.4-0.5s-31.7-13.9-31.7-13.9s-21.2-8.9-24.8-11.8s-10.1-5.8-12.7-7.9s-4.8-5.3-4.8-5.3
		s1-2.6-3.8-7c-4.8-4.3-14.2-18.5-17.8-25s-7.7-26.7-7.7-26.7s-3.4-29.6-5-70.2s-7.5-218.8-7.5-218.8l-6.5-218.8l-6-184.4
		l-6.7-186.3l-8.7-213.8l-8.9-193.1l-5.8-178.9c0,0-4.1-137.8-5.3-162.5c-1.2-24.8-12-192.6-12.5-196.9c-0.5-4.3-1.2-10.3-1.2-10.3
		s4.1,1,5.8,0c1.7-1,1,3.6,11.1,3.1s16.1-3.1,16.1-3.1s9.9,7.2,18,7.7s10.1,2.6,16.4-2.2s12.3-12.5,12.3-17.3s-0.2-5.5-0.2-5.5
		s5.3,1.2,10.3-0.2s16.8-9.1,20-15.4c3.1-6.3,7.2-15.4,7.7-16.8s1.7-3.6,2.6-3.8s2.6,1,3.1,1.9c0.5,1,10.6,9.4,15.9,11.5
		c5.3,2.2,9.9,2.4,14.2,2.2c4.3-0.2,10.1-0.2,10.1-1c0-0.7,0.2-3.1,0.2-3.8s0.5-20-0.7-21.9s-1.7-6-1.7-7.9s0-31.3-0.2-35.1
		s-2.2-10.3-2.2-13.5s0.7-9.1,0.2-10.8s-1.9-3.8-1.7-10.6s0.5-15.1-2.2-19s-9.4-13.2-9.6-14.9s1-2.6-0.2-4.3s-6-4.3-6.7-9.1
		s-10.1-19.5-11.3-23.6c-1.2-4.1-2.6-7-5-9.4s-3.4,0-3.1-3.6s-1-4.3,0.2-7c1.2-2.6,1.9-5.5,1.9-7.7s1.4-1.7,0-4.8s-2.9-5.8-4.1-7.5
		s-9.4-8.9-10.1-11.5s-3.6-6.5-6.5-9.9s-16.6-21.2-16.6-21.2L1627.9,3393z"/>
</g>
<path id="body-right" class="st1" d="M2099,2840.7c0,0-8.7,1.3-9.7,1.3s-4.7-0.3-4.7-0.3s-4-2.3-4-4.3s-1.3-3,0-6.3s2.3-5,2-7.3
	s-1.7-3.7,2-3s7,0.7,7,2.3s-1.3,4.7,0.7,5c0.8,0.1,3.5,0.3,6.7,0.4c0-100,0-225,0-287.8c-3.6,0-6.8-1-6.8-1s-3,10.7-6.7,14.7
	s-10.3,9.7-17,9.3c-6.7-0.3-10.7,0.3-18-7.7s-9.3-16.7-9.7-24.7c0,0,1.3-11.3,4-15s6.7-9.3,9-11s5.3-1.3,8.7-2.7
	c3.3-1.3,3.3-3,7.7-2s10.3,1.7,12.7,6c2.3,4.3,3.3,7.7,6.7,10.3c3.3,2.7,3.7,5.3,3.7,7.7c0,2.3,4.3,2.3,4.3,2.3l1.4,0.1
	c0-14.4,0-23.6,0-25.9c0-17.8-45.2-91.8-45.2-91.8l-256-930.2c0,0-3.5,1.2-11.2,3.2s-32,7.5-47.8,12s-51,19.2-69.5,27
	c-18.5,7.8-63.2,19-86.2,25.5s-69.8,19.2-75.2,21c-5.4,1.8-32.2,13-33.8,13.8s-0.5,3.2-0.5,3.2l91.2,675.2c0,0,0,0,5.5,14.8
	s15.5,58.8,20.8,90.2s8,80.2,8.2,108.2s-3.8,85.5-4.5,97.5s-12.2,103.2-13.5,111.2s-5.2,35.2-6.5,41.2s-2,8.5-5,12.8s-42,7.2-42,7.2
	V3315l88.5,8.2c0,0,2,12.2,2.2,13.2s2.5,5.2,5,12.8s-7.8,10.2-9.2,11.2s-12.5,1.8-12.5,1.8s-3.5,2.2-1.8,3.2s14.2,14.8,18.8,20
	s13.5,9.2,22,11.8s33.5,5.2,42.2,7.8s21.2,6,29.8,8s49.2,7.2,61.5,8.5s39.2,2.8,54.8,2.5s20.5-1,42-8s45.5-21.2,64.8-36
	s36.5-38.5,46.8-55.2s27-50.5,34.2-65.5s23.5-77.5,32-109s19.8-85.2,22-94.5s28.2-79.5,28.2-79.5S2099,2917.2,2099,2840.7z
	 M2041.3,2857.2c0,0-23.1,3.2-26.3-24.2c-3.2-27.4,29.9-28.1,29.9-28.1l4.6,50.8L2041.3,2857.2z"/>
<g id="body-left">
	<path class="st2" d="M2539.8,2768.4c-4.7-6.1-17.7-35.2-23-54s-14.4-74.2-15.2-82.8s0-103.8,1.9-141.8S2516,2368,2519,2345
		s13.3-66.7,13.6-67.6c0.3-0.8,4.2-0.8,5.5-0.8c1.4,0,0-1.4,0.8-3.3c0.8-1.9,4.4-16.9,4.4-16.9s95.5-661.2,94.4-662
		s-11.9-5.8-18.6-9.1c-6.6-3.3-64-24.4-73.9-27.7s-42.6-14.4-45.4-15.2c-2.8-0.8-13.6-1.9-23.5-5.5c-10-3.6-76.4-19.9-82.8-22.2
		s-60.4-20.5-67.6-23.5c-7.2-3-37.4-20.2-37.4-20.2l-235.3,995.9l-23,65.6c0,0,0,10.2-0.3,18.6s0.3,46.8,2.2,68.1
		c1.9,21.3,12.2,169.5,13,190.2s3,30.7,6.6,67.6c3.6,36.8,15.2,118.5,18.3,145.4c3,26.9,20.8,126.8,29.9,170
		c9.1,43.2,31.8,95.8,49.6,135.9c17.7,40.1,44.6,60.1,62,73.7c17.4,13.6,49.6,24.4,54.8,26.6s40.4,3.3,51.2,2.2s37.4-3,41.5-4.7
		c4.2-1.7,54-13.6,63.1-15.2c9.1-1.7,40.1-8.6,40.1-8.6s2.5-5.3,4.2-8c1.7-2.8,11.1-13.8,13.6-15.5s5-3.6,5.5-6.1
		c0.6-2.5-0.8-7.2-0.8-8.9s-0.3-7.8,0.6-11.9c0.8-4.2,1.9-15.2,1.9-15.2l67.8-21.6V2780C2555.3,2780,2544.5,2774.5,2539.8,2768.4z
		 M2068.3,2563.7c-6.7-0.3-10.7,0.3-18-7.7s-9.3-16.7-9.7-24.7c0,0,1.3-11.3,4-15s6.7-9.3,9-11s5.3-1.3,8.7-2.7c3.3-1.3,3.3-3,7.7-2
		s10.3,1.7,12.7,6c2.3,4.3,3.3,7.7,6.7,10.3c3.3,2.7,3.7,5.3,3.7,7.7c0,2.3,4.3,2.3,4.3,2.3l22.7,1.7c0,0,1.3,0.3,4.3,0.7
		c3,0.3,7.3-1,7.3-1s-2,8-2,11.3s1,2.3,0,3.3s-2.3,0.3-2.3,0.3s-3.7-3-5-3s1,0-5.3,0.3s-14.3,0-18,0s-7-1-7-1s-3,10.7-6.7,14.7
		C2081.7,2558.3,2075,2564,2068.3,2563.7z M2151,2837.3c-0.3,1.3-1,7.3-1,7.3s-4.3,0-5-1.3s-3.3-1.7-8.7-1.3
		c-5.3,0.3-36.3-0.3-36.3-0.3s-8.7,1.3-9.7,1.3s-4.7-0.3-4.7-0.3s-4-2.3-4-4.3s-1.3-3,0-6.3s2.3-5,2-7.3s-1.7-3.7,2-3s7,0.7,7,2.3
		s-1.3,4.7,0.7,5s14.7,0.7,19,1s23-0.7,25-0.7s9.7,0.7,10.3,1.7C2148.3,2832,2151.3,2836,2151,2837.3z M2348.3,1676.5
		c-1.2,0.8-9.2,1.5-11.3,1.7c-2.2,0.2-9.8,1.8-13,2.5s-13,3.2-14.8,3.5s-3.3,1-4.7,2.3s-2.5,5.2-5,0.5s-2.7-5.8-3.2-7.3
		s-0.8-4-0.8-4s0.5,1.5,5.2,1.8s11.5-0.5,15.8-1s11.7-2.8,16.2-4.2c4.5-1.3,9.5-2.3,10.8-2.5s3.2-0.5,3.3,0.3c0.2,0.8,1.3,2,1.5,3.2
		S2349.5,1675.7,2348.3,1676.5z"/>
</g>
<g id="arm-right">
	<path class="st3" d="M1475,1585.5c0,0,14.5,13.5,16.8,22s16.5,59.5,20.5,74.5s15.2,65.2,18.5,84.2s11.2,63,15.8,94.8s7.8,49,9.5,75
		s6,98.5,7,122.2s3.2,82.5,3,108.2s0.2,92,0.2,92s-0.5-1-1.2,11.5s0.8,82.2,0.8,107.5s0.5,140.5,1,160.5s-0.2,30,0.2,51.5
		s1,85,1,94.8s-0.2,36,1.8,47.2s3.5,25.8,5,48s4.8,91.2,6,116.8s7,117.5,9.8,151s7.8,101.2,10,121.8s6.5,54.5,8.2,76.5
		s5.5,44.5,8,57s6,16.5,6.2,23s0.2,10.2-1.5,11.8c0,0-1.8-2.5-4.8-4.8s-10.2-6.2-21-6s-34.2,7.2-42,9.8s-17,3-21.2,3.2
		s-4.5,0-24.8,2.2s-45.5,4.5-52.2,7.2s-12.2,3.8-20,3.8s-25.5,4.2-29.8,5.2s-15.5,6-18.2,6.5s-4,1.5-4,1.5s0.2,8.5-0.8,11.8
		s-2.2,4.8-4.2,3s-8.5-9-9.2-11s-4.2-5-6-1.5s-0.8,6.8-3,9.5s-2.8,4.5-4,4.5s-5.2-3.5-6.2-6.2s-3.2-6.8-4-19.8s-4-59.8-2.8-63.8
		s4.2-4.2,3.5-14s-2.5-44.5-5-53.2s-2.2-7.8-4-27.2s-7.8-70.5-11.2-98.8s-15.5-115-20.5-154.5s-10.2-65.8-11.2-98.2
		s-3-121.2-3-153.8s-2.5-139.8-2.2-176s0.2-115,0.5-142.8s1.8-73.2,4.2-116.2s8.5-106,12.5-134s19.5-121.8,26-152.8
		s26.2-115.5,32-135.5s34-115.5,43.8-142.2s33.2-93,36-96.5s8.5-8.8,12.2-9.5S1461,1584,1475,1585.5z"/>
</g>
<g id="lapel-right">
	<path class="st4" d="M1887.5,1503.5c0,0-35.5,48.5-37,49.5s-24,34.5-26.5,35.5s-4.5,0.5-7.5-0.5s-43-11-56-14s-16.2-3.9-19-3.9
		s-8.3-0.8-10.2,1.7c-1.9,2.5-4.4,9.7-3.9,14.7c0.6,5,14.1,46,18.8,62.6s15.8,54,29.6,97.7c13.8,43.7,31,98.8,38.8,123.8
		c7.8,24.9,16.9,56.8,25.2,78.4c8.3,21.6,28,75.9,36,93.9s25.2,65.1,32.7,80.8c7.5,15.8,32.9,80.8,38.8,91.9s9.7,20.2,10.8,24.6
		c1.1,4.4,16.9,33.2,24.4,46.5s45.4,80.8,45.4,80.8s15,24.1,17.7,30.5s8.3,12.5,8.3,12.5l7.5-32.9c0,0-11.9-43.7-13-49.8
		c-1.1-6.1-0.8-10.2-2.2-13.8c-1.4-3.6-8-28.8-9.4-40.4c-1.4-11.6-5.5-21.6-7.5-30.7c-1.9-9.1-14.4-70.9-17.7-91.4
		c-3.3-20.5-9.1-47.3-13.6-65.9c-4.4-18.6-14.1-58.4-16.3-66.7s-18.8-82.5-24.4-106.6c-5.5-24.1-14.1-68.9-16.3-87.8
		c-2.2-18.8-5.5-45.4-7.2-58.1s-8-50.7-10.5-69.8c-2.5-19.1-8.6-71.4-10.2-84.7c-1.7-13.3-6.1-42.4-9.1-50.1
		c-3-7.8-10-24.4-11.4-37.7C1891,1510.5,1887.5,1503.5,1887.5,1503.5z"/>
</g>
<g id="collar-right">
	<path class="st5" d="M1883.5,1384.8c0,0-11.1,28.5-4.4,67.6c6.6,39,11.4,63.7,11.4,63.7s-59.3,72.8-60.4,74.2s-5,5.8-17.2,3.6
		c-12.2-2.2-51.8-15.8-51.8-15.8s1.4-8.3,3.6-15.8s13.8-55.4,16.3-60.6c2.5-5.3,3.3-9.1,9.4-15.5s32.1-26.9,36.5-31.8
		c4.4-5,23.8-23.3,29.1-32.1s14.4-26.3,17.2-28.8s4.4-5.5,5.8-6.6S1881.9,1384,1883.5,1384.8z"/>
</g>
<g id="collar-left">
	<path class="st6" d="M2241.3,1410.8c0,0,1.9,5.3,3,15s2.5,30.5,2.2,41s-3.9,25.2-4.7,29.3c-0.8,4.2-2.8,6.6-3.9,11.6
		c-1.1,5,42.4,76.7,44.3,79.2c1.9,2.5,16.9,26.6,25.5,26.3c8.6-0.3,77.2-16.9,77.2-16.9s-5.5-5-7.5-8c-1.9-3-10-19.7-11.6-24.4
		c-1.7-4.7-20.2-41.5-25.5-46.5s-26.3-25.2-30.2-28.8c-3.9-3.6-12.2-9.1-24.6-20.5c-12.5-11.4-23-23-28.5-30.7s-8.9-17.2-10-19.4
		C2246,1415.8,2246.2,1413.1,2241.3,1410.8z"/>
</g>
<g id="lapel-left">
	<path class="st7" d="M2391.6,1594.1c-1.9-2.8-10.2-0.6-11.4-0.3s-73.4,6.9-74.8,6.4c-1.4-0.6-5-4.2-8-7.5s-13.8-22.2-14.7-23
		c-0.8-0.8-29.3-49-34.3-56.8s-9.4-10.2-9.4-10.2s-0.8,3-1.9,4.7s-10,33.5-14.7,52.3s-14.4,64.5-17.2,88.3s-15.5,114.1-18.3,135.1
		s-12.2,72.5-15.5,100s-8.3,47.6-12.7,66.7s-33.2,152.3-33.2,152.3s-34.9,155.6-39.6,175.5c-4.7,19.9-24.9,104.4-29.9,124
		c-5,19.7-8.3,54.8-10.5,69.2s-12.7,43.5-15.5,50.9s-0.8,54-0.8,31.3s3-25.5,3-25.5s14.4-31.3,18.6-40.4
		c4.2-9.1,29.6-67.8,32.7-74.8c3-6.9,44.3-100.8,44.3-100.8s35.7-77.5,46.8-100.8s40.7-98,52.6-127.4s37.7-98.3,45.4-118.8
		s37.9-110.8,46.8-137.9c8.9-27.1,44.6-122.1,51.8-142.3c7.2-20.2,20.2-70.1,22.2-77.5C2395.2,1599.7,2393.5,1596.9,2391.6,1594.1z
		 M2348.5,1676.8c-1.2,0.8-9.2,1.5-11.3,1.7c-2.2,0.2-9.8,1.8-13,2.5s-13,3.2-14.8,3.5s-3.3,1-4.7,2.3s-2.5,5.2-5,0.5
		s-2.7-5.8-3.2-7.3s-0.8-4-0.8-4s0.5,1.5,5.2,1.8s11.5-0.5,15.8-1s11.7-2.8,16.2-4.2c4.5-1.3,9.5-2.3,10.8-2.5s3.2-0.5,3.3,0.3
		c0.2,0.8,1.3,2,1.5,3.2S2349.7,1676,2348.5,1676.8z"/>
</g>
<g id="arm-left">
	<path class="st8" d="M2543.3,2256c0,0,3,4.3,3,8.3s3.3,65,4,105.3s3.7,123,3.7,156s1.3,104-0.3,153.7c-1.7,49.7-7.3,150-7.3,150
		s-5.7,86.3-9,122.3s-10.3,124.3-14.7,157.3c-4.3,33-10,75-15,101.7s-15,80.7-17.7,91.7s-7,30.3-7.7,33s-2.7,5-3,6.3s5,7.7,5,7.7
		s-1,5,0.7,2.7s3-9,5-11.3s11.7-4.3,15-4s23.3,4,30.7,4.3c7.3,0.3,27.7-0.3,38.3,0.7s36.7,6.7,43.7,8.7s45.3,9.3,51.7,11
		c6.3,1.7,16.7,3,29,5.7s23.3,6.3,23.3,6.3s6,2.7,8.7,4.7s5.7,6,5.7,9.7s1.3,8.3,2.7,9.3c1.3,1,5-0.7,5.7-3.3
		c0.7-2.7,2.7-4.3,4.3-18.7c1.7-14.3,1-61.7,1-61.7l2.3-0.3c0,0-0.3-56.7-0.3-79.3c0-22.7,4.3-72.7,6.7-98.3
		c2.3-25.7,15.3-172.7,22.7-237.3s10-91.3,11.7-123.3s4.7-103.7,5-133.3c0.3-29.7,0.3-88-0.7-125.3s-2.3-117.7-4.7-156
		c-2.3-38.3-6.3-124.7-8.7-156.7c-2.3-32-8.7-121.3-12-151.7c-3.3-30.3-11-102-17.3-134.3s-28.3-119.3-36.3-147.7
		c-8-28.3-36.3-122.3-42.3-138s-14-32.3-19-34.7s-13-3-14.3-3.3s-6.3-1-6.3-1s-15.3,19-18,26.7s-5.3,8.7-12.7,39.7
		c-7.3,31-16.3,71.7-17.3,80.3c-1,8.7-13.3,94.3-16,105.7s-4.7,34.3-8,53.7c-3.3,19.3-8,60-10.3,89.7s-7.7,125.3-9,149
		s-4.3,84.3-4.7,95.3s0.7,19.3,0.7,21.7"/>
</g>
<path class="st2" d="M2092.2,2521c0,0,5,10.2-3.2,26.8l61.8,0.8l-0.8-33.2L2092.2,2521z"/>
<rect x="2076" y="2806.8" class="st2" width="87.2" height="51.8"/>
</svg>
