<?xml version="1.0" encoding="utf-8"?>
<!-- Generator: Adobe Illustrator 22.1.0, SVG Export Plug-In . SVG Version: 6.00 Build 0)  -->
<svg version="1.1" id="Layar1" xmlns="http://www.w3.org/2000/svg" xmlns:xlink="http://www.w3.org/1999/xlink" x="0px" y="0px"
	 viewBox="0 0 4160 6240" style="enable-background:new 0 0 4160 6240;" xml:space="preserve">
<pattern id="normal" patternUnits="userSpaceOnUse" width="270" height="270" patternTransform="">
		<image image-rendering="optimizeQuality" preserveAspectRatio="xMidYMid meet" xlink:href="/images/simulator/default/default_tex.jpg" x="0" y="0" width="270" height="270" style="-ms-interpolation-mode: bicubic;" />
  </pattern>
  <pattern id="left" patternTransform="rotate(23)" patternUnits="userSpaceOnUse" width="270" height="270">
		<image image-rendering="optimizeQuality" preserveAspectRatio="xMidYMid meet" xlink:href="/images/simulator/default/default_tex.jpg" x="0" y="0" width="270" height="270" style="-ms-interpolation-mode: bicubic;" />
  </pattern>
  <pattern id="right" patternTransform="rotate(-23)" patternUnits="userSpaceOnUse" width="270" height="270">
		<image image-rendering="optimizeQuality" preserveAspectRatio="xMidYMid meet" xlink:href="/images/simulator/default/default_tex.jpg" x="0" y="0" width="270" height="270" style="-ms-interpolation-mode: bicubic;" />
  </pattern>
<style type="text/css">
	.normal{fill:url(#normal);}
	.left{fill:url(#left);}
	.right{fill:url(#right);}

</style>
<path id="leg-right" class="normal" d="M1381.7,439.7c0,0-7.3,56.7-11.3,70c-4,13.3-33.3,122.7-35.3,128.7s-25.3,96.7-27.3,109.3
	c-2,12.7-20.7,94-23.3,104c-2.7,10-16,130.7-16.7,140.7c-0.7,10-2,115.3-3.3,147.3c-1.3,32,2,206,2.7,214s8.7,75.3,10,90
	c1.3,14.7,51.3,401.3,52,406c0.7,4.7,28.7,276,29.3,297.3c0.7,21.3,18,320,18.7,322.7c0.7,2.7,8,306.7,8.7,314.7
	c0.7,8,10,250.7,10.7,257.3c0.7,6.7,13.3,436.7,13.3,442c0,5.3,14,476.7,13.3,492.7s14,343.3,14.7,346c0.7,2.7,24,449.3,24,451.3
	s12,436.7,12,460.7s2.7,91.3,2.7,91.3s-1.3,253.3-0.7,256c0.7,2.7-4.7,87.3-2.7,91.3s19.3,14.7,26.7,17.3
	c7.3,2.7,69.3,18.7,87.3,25.3c18,6.7,126,42.7,136.7,46c10.7,3.3,41.3,15.3,50.7,16.7c9.3,1.3,40.7-6.7,60-10.7
	c19.3-4,88-28,110.7-30.7s58.7-28,62-30s10.7-6,22.7-10.7c12-4.7,29.3-16.7,31.3-23.3c0,0,7.3-9.3,8-18s3.3-135.3,3.3-135.3
	s0.7-144.7,0.7-184.7s-3.3-174-3.3-174s-4-356-2.7-364s-1.3-231.3,0-255.3s-2-289.3-2-289.3l-2-516c0,0-0.7-467.3-0.7-470.7
	c0-3.3-2.7-688,0-705.3c2.7-17.3,0-192,1.3-204.7c1.3-12.7,4-248.7,4-258.7s-2.7-290-2-296c0.7-6-14-108.7,6-209.3
	c0,0,40-214.7,41.3-224c1.3-9.3,7.3-72.7,5.3-92.7s8-390,6.7-443.3c-1.3-53.3,17.3-390,17.3-390s-442.7-36-476-38l-282.7,8
	L1381.7,439.7z"/>
<path id="leg-left" class="normal" d="M2105,469c0,0-13.3,150.7-12.7,159.3c0.7,8.7-0.7,146.7-0.7,146.7s-1.3,239.3-0.7,257.3
	c0.7,18,6.7,130,7.3,154.7c0.7,24.7,6,88.7,6.7,98.7s6.7,44.7,10,54c3.3,9.3,25.3,158,25.3,163.3s10.7,80.7,11.3,99.3
	c0.7,18.7,7.3,136.7,7.3,144c0,7.3,8.7,389.3,8.7,389.3s2.7,77.3,4,93.3c1.3,16,4,85.3,3.3,97.3s-3.3,98.7-2,101.3
	c1.3,2.7-1.3,268-1.3,268s-6.7,269.3-6.7,276.7c0,7.3-4,445.3-4,445.3s-3.3,539.3-3.3,544c0,4.7-3.3,432-4,440
	c-0.7,8-3.3,265.3-3.3,265.3l-5.7,821.5c0,0-4.3,151.9-2.9,153.9c1.3,2,9.3,26.7,20.7,32.7c11.3,6,108.7,53.3,118.7,57.3
	s38.7,16.7,50,19.3c11.3,2.7,81.3,13.3,96.7,16c15.3,2.7,36.7,3.3,55.3,2.7c18.7-0.7,90-22,117.3-24.7c27.3-2.7,86-15.3,95.3-15.3
	c9.3,0,29.3-4,37.3-6s11.3-6,12.7-13.3c1.3-7.3,0.7-14.7,0.7-18s-3.3-16-1.3-23.3c2-7.3,10-136.7,10-136.7s30-528,30-537.3
	c0-9.3,3.3-132,4-154.7s-0.7-149.3-0.7-149.3l3.3-272c0,0-0.7-100-0.7-104.7s1.3-30,0.7-36.7c-0.7-6.7,4-352.7,4-358
	c0-5.3,0.7-75.3,0.7-75.3s5.3-391.3,6-397.3c0.7-6,5.3-244.7,6-257.3c0.7-12.7,12-292.7,12-292.7s10.7-256,12-261.3
	c1.3-5.3,19.3-270,30.7-357.3l26-224.7l48-390c0,0,25.3-241.3,27.3-254.7c2-13.3-1.3-232-3.3-290s-8-164-9.3-169.3
	c-1.3-5.3-52-253.3-58.7-271.3s-56-226.7-56.7-231.3c-0.7-4.7,1.3-12.7,2.7-20c1.3-7.3,2-19.3,2-19.3s-460.7,34-515.3,34.7
	c-54.7,0.7-217.8-1.8-217.8-1.8l-1.5,17.5L2105,469z"/>
<path id="belt" class="normal" d="M1439,222.7c-0.2,0.1-4.8,1.6-6.3,1c-1.7-0.7-2-2.3-4.7-3c-2.7-0.7-5-0.7-6.7,1.7
	c-1.7,2.3-13,18.7-13.3,20.3c-0.3,1.7-1.7,3.3-2.3,7c-0.7,3.7-0.3,10-1.3,16.7c-1,6.7-7.3,30-7.7,33.7c-0.3,3.7-4.3,33-4.7,43
	s-5.7,44.3-6.3,54.7c-0.7,10.3-2.7,36-3,38.7c0,0,7.3-7.7,9.7-9.7c2.3-2,0.7-2.7,5-3c4.3-0.3,70,3.7,71.3,3.7
	c1.3,0,121,5.7,135.3,6.3c14.3,0.7,63,3.7,69.7,4c6.7,0.3,91.7,5.7,101,6.3c9.3,0.7,124.7,7.3,137.7,8s119.3,9.3,130,10
	c10.7,0.7,35.7,4.3,43.3,4c7.7-0.3,23.3,0,25.7-0.3c2.3-0.3,69-4.3,77-4.7s78.7-2.3,88.3-2.3c9.7,0,158.7-2.7,158.7-2.7
	c1.3-0.3,21.3,0,28.3-0.3c7-0.3,76.3-2.7,80.7-3c4.3-0.3,100-9.3,111.3-9.7c11.3-0.3,135-13,142.3-13.7c7.3-0.7,28.7-6.3,33.3-7.7
	c4.7-1.3,5.7-1.7,7-3.7c1.3-2,1-25,1.3-27.7c0.3-2.7-1-14-2-18.7c-1-4.7-6.7-27.7-9-34c-2.3-6.3-22-62.7-22-70.3
	c0-7.7-0.7-18.7-2-22.7c-1.3-4-1.3-11.7-1.7-16c-0.3-4.3,0.7-6.7-0.7-9.3c-1.3-2.7-4.7-10-7.3-10.7c-2.7-0.7-9-1.3-9-1.3l0.7,19
	c0,0-22.3,3.3-23.3,3.7s-16.3,0-28,0c-11.7,0-83,4.3-90.3,5s-44,2.3-62.3,4c-18.3,1.7-50.3,3.3-70.7,6s-60,3.3-67,3.3
	s-40,1.3-45,1.3s-142.3,2-152,2.7c-9.7,0.7-26,2.3-31.3,2.7c-5.3,0.3-24-0.3-29.3,0.3c-5.3,0.7-24-1-31.7-1c-7.7,0-16.3-0.3-21.7,0
	c-5.3,0.3-7-0.3-7.7,1.3c-0.7,1.7-3.7,0.7-6.7,1c-3,0.3-50.7-2-52.7-2.3c-2-0.3-127.7-9-131.7-8.7c-4,0.3-83-4.3-90.7-4.7
	c-7.7-0.3-57.7-2-57.7-2s-29.1-3.5-47.3-5.8c-6.9-0.9-12.2-1.6-13.7-1.9c-5.7-1-61-8-68.7-8.3c-7.7-0.3-72-1.3-79.3-1.3
	s-74.3-2-88.3-1.7s-41.3,1.3-44,2C1443,222.7,1439,222.7,1439,222.7z"/>
<path id="belt-loop2" class="normal" d="M1739.7,233.7c0,0-19.7,97.7-25,165.3c0,0-6.7,111.3-6,116.3l53.7,8.3c0,0,6.3-119.3,7-130
	c0.7-10.7,13.3-148,21.3-157.3c0,0-14.7-1-15.7-0.7c-1,0.3-20-1.7-23.3-1.7C1748.3,234,1739.7,233.7,1739.7,233.7z"/>
<path id="belt-loop1" class="normal" d="M2442.7,247.7c0,0,2.7,0.3,4.7,5.7s26,183.7,26.7,188.3c0.7,4.7,0.7,12.7,0.7,12.7l-16.7,2.3
	l17,87.3l2.3,1.7c0,0,33.7,0.3,38.7,0c5-0.3,9-2,9-2s1.7-8,2-10.7s-2.3-74.7-3.7-78c-1.3-3.3-19-189-28.7-208L2442.7,247.7z"/>
</svg>
