<?xml version="1.0" encoding="utf-8"?>
<!-- Generator: Adobe Illustrator 21.1.0, SVG Export Plug-In . SVG Version: 6.00 Build 0)  -->
<svg version="1.1" id="Layar1" xmlns="http://www.w3.org/2000/svg" xmlns:xlink="http://www.w3.org/1999/xlink" x="0px" y="0px"
	 viewBox="0 0 4160 6240" style="enable-background:new 0 0 4160 6240;" xml:space="preserve">
<pattern id="normal" patternUnits="userSpaceOnUse" width="270" height="270" patternTransform="">
		<image image-rendering="optimizeQuality" preserveAspectRatio="xMidYMid meet" xlink:href="/images/simulator/default/default_tex.jpg" x="0" y="0" width="270" height="270" style="-ms-interpolation-mode: bicubic;" />
  </pattern>
  <pattern id="left" patternTransform="rotate(23)" patternUnits="userSpaceOnUse" width="270" height="270">
		<image image-rendering="optimizeQuality" preserveAspectRatio="xMidYMid meet" xlink:href="/images/simulator/default/default_tex.jpg" x="0" y="0" width="270" height="270" style="-ms-interpolation-mode: bicubic;" />
  </pattern>
  <pattern id="right" patternTransform="rotate(-23)" patternUnits="userSpaceOnUse" width="270" height="270">
		<image image-rendering="optimizeQuality" preserveAspectRatio="xMidYMid meet" xlink:href="/images/simulator/default/default_tex.jpg" x="0" y="0" width="270" height="270" style="-ms-interpolation-mode: bicubic;" />
  </pattern>
<style type="text/css">
	.normal{fill:url(#normal);}
	.left{fill:url(#left);}
	.right{fill:url(#right);}

</style>
<path id="body-right" class="normal" d="M1736,1216.5c0,0-5.5,39.5-6.5,44.5s-5.5,21.5-6.5,23.5s-9,7.5-9,7.5s-4-0.5-5.5,4
	s-2,4.5-2,7.5s1.5,20,2.5,24.5s13.5,81.5,14,88s17.5,107,18.5,116.5s39.5,188,41.5,195.5s26,128.5,26,128.5l43.5,176
	c0,0,43,158,50.5,178.5s41,131,48,148s64.6,191.1,64.6,191.1l84,216c0,0-52.5,165-52.5,180s-33,255-31.5,292.5s6,850.5,7.5,888
	s52.5,331.5,52.5,331.5l-0.3,6.2l-1.5,7.5l-7.8,9.8l-17.5,26l-71.2,104c0,0-25,34.8-26.8,36.8s-23.2,23.8-23.2,23.8l-3.2,0.2
	c0,0-13.5-4.8-19-6.8s-49.5-21.5-58-26.5s-94.5-46-117.5-53.5s-165.5-64.5-175.5-67s-77.5-21.5-101-31.5s-60.5-23-60.5-23
	s-111.5-42-113.5-43s-98.5-36.5-105.5-42.5s-32-25.5-38.5-31.5s-26-23.5-17-48.5l19-84c0,0,29.5-137,31-145.5s19-129,19-129
	l17.5-176c0,0,14.5-163.5,13.5-215.5l6.5-198c0,0-3-100.5-2.5-102.5s-4-71-4-71s-7-77-10-94s-9.5-50.5-9.5-59s-3-38-2.5-42
	s0-93,2-100s0.5-41.5,1.5-49.5s-5-41-5.5-47.5s-10-76-12-81.5s-1.5-11-1.5-11s3.5-20,6.5-27.5s13-116.5,13.5-120s5-59,7-69.5
	s21.5-135.5,22.5-138s20-156.5,21-169.5s4-86,4.5-96s-5.5-129-5.5-141.5s-10.5-131.5-11.5-140S1216,1637,1213,1621
	s-28.5-111-36.5-123c0,0-2-7-7.5-7s-10.5-0.5-14-1.5s-5-1.5-5-1.5s12.5-7.5,13.5-9s16.5-7.5,33-9c0,0,23-3.5,36-7s112-37.5,112-37.5
	l81.5-28c0,0,45-15,52-16s25-10,28.5-11s25.5-14.5,39.5-20s16.5-4.5,25.5-8s50.5-27,53-28.5s57.5-40,67.5-48
	S1736,1216.5,1736,1216.5z"/>
<path id="body-left" class="normal" d="M3073,4301c-2.7-8-28-76.7-28-76.7s-33.3-152.7-34.7-167.3c-1.3-14.7-28-198.7-31.3-280l-8-244
	l7.3-344l10.7-204.7c0,0,9.3-144.7,10.7-151.3c1.3-6.7,0.7-102,0.7-104s-4.7-38-6.7-54s-16.7-65.3-18-72.7c-1.3-7.3-16-112-16-112
	s-36-242-35.3-290.7c0,0-8-150.7-8-160c0-9.3,8.7-198,9.3-224.7c0,0,18-169.3,26.7-200.7c0,0,21.3-96.7,23.3-100.7s6-6.7,6-6.7
	c0.3-0.2,2-0.3,2.2-1.3s-7.3-6-10.3-8s-32.5-14.2-35.5-14.7s-21.8-4.5-25.5-5.8s-61.8-19.2-71.2-21.9c-9.3-2.7-60-22.7-70.3-25.7
	s-73.7-25.3-84-28c-10.3-2.7-60-26.7-64.3-28.7s-82.7-44.3-89-47.7c-6.3-3.3-28.2-16.3-30.4-18.1c-2.2-1.8-30.5-23.8-34-27.5
	c-3.5-3.7-20.4-16.4-20.4-16.4s4.7,21,8.3,29.3c3.7,8.3,7.3,25.7,7,35c-0.3,9.3-1.3,29.7-1.7,31.7c0,0-1.7,24-4,32s-18,82-18.3,84
	s-11.7,60.7-12.3,63.3c-0.7,2.7-23,115.7-24,121.3c-1,5.7-20.3,115-21.7,119c-1.3,4-13,63.7-13.7,66.7s-24.3,87.7-27,95.3
	c-2.7,7.7-16,63-18.7,72.7c-2.7,9.7-20,92.3-23.7,100c-3.7,7.7-18,63-19.7,66.7s-90.7,293-112.7,341l-59,168c0,0-27,80-31,91
	s-34,86-39,98s-13,38-15,52s-9,56-11,61s-4,4-3,9s-2,40-3,45s-6,89-7,98s-3,56-4,68s1,220,1,220s2,269,4,282s5,134,7,146
	s0,138,0,138s6,291,7,302s2,45,9,68c0,0,23,67,25,71s14,26,16,33s46,73,50,80s24,33,33,52s37,58,43,64s16,27,23,24s181-75,197-83
	s124.3-44.3,143-50.3s55.3-20.7,63.3-22s87.3-30.7,101.3-33.3c14-2.7,117.3-33.3,126-35.3s125.3-38,147.3-48c0,0,65.3-31.3,92.7-72
	v-6.7C3083.7,4340.3,3075.7,4309,3073,4301z M2129.1,3673.8C2129.1,3673.8,2129.1,3673.8,2129.1,3673.8
	c-3.5,20.6-20.7,36.3-41.6,36.3c-23.5,0-42.5-19.7-42.5-44c0-24.3,19-44,42.4-44c13.4,0,25.4,6.5,33.2,16.7l-0.2,0
	C2120.5,3638.8,2132.6,3654.5,2129.1,3673.8z M2093,2988.5c15.4,0,28.9,8.4,36.2,20.8l-0.1,0c0,0,8.4,12.8,4.9,31.7l-0.3,0
	c0,0.7-0.1,1.4-0.1,2.1c-0.9,3.9-2.3,8.1-4.4,12.5l0.2,0c-5.6,9.2-17,16.9-36.3,16.9c-23.2,0-42-18.8-42-42
	S2069.8,2988.5,2093,2988.5z M2087.8,3303c15,0,28.3,6.5,37,16.6c2.5,3.6,10.4,16.3,9.2,32.4c0,0.6-0.1,1.3-0.2,2
	c-0.1,0.5,0,0.9,0,1.4c-4.5,19.6-23.3,34.4-46,34.4c-26,0-47-19.4-47-43.3S2061.9,3303,2087.8,3303z M2034,3970
	c1-23.5,21.8-41.7,46.4-40.6c18.4,0.8,33.7,12.2,39.9,27.7l-0.2,0c0,0,6.6,16.4-1.9,34.8c-7.8,14-23.5,23.3-41.3,22.6
	C2052.1,4013.4,2033,3993.5,2034,3970z"/>
</svg>
