<?xml version="1.0" encoding="utf-8"?>
<!-- Generator: Adobe Illustrator 21.1.0, SVG Export Plug-In . SVG Version: 6.00 Build 0)  -->
<svg version="1.1" id="Layar1" xmlns="http://www.w3.org/2000/svg" xmlns:xlink="http://www.w3.org/1999/xlink" x="0px" y="0px"
	 viewBox="0 0 4160 6240" style="enable-background:new 0 0 4160 6240;" xml:space="preserve">
<pattern id="normal" patternUnits="userSpaceOnUse" width="270" height="270" patternTransform="">
		<image image-rendering="optimizeQuality" preserveAspectRatio="xMidYMid meet" xlink:href="/images/simulator/default/default_tex.jpg" x="0" y="0" width="270" height="270" style="-ms-interpolation-mode: bicubic;" />
  </pattern>
  <pattern id="left" patternTransform="rotate(23)" patternUnits="userSpaceOnUse" width="270" height="270">
		<image image-rendering="optimizeQuality" preserveAspectRatio="xMidYMid meet" xlink:href="/images/simulator/default/default_tex.jpg" x="0" y="0" width="270" height="270" style="-ms-interpolation-mode: bicubic;" />
  </pattern>
  <pattern id="right" patternTransform="rotate(-23)" patternUnits="userSpaceOnUse" width="270" height="270">
		<image image-rendering="optimizeQuality" preserveAspectRatio="xMidYMid meet" xlink:href="/images/simulator/default/default_tex.jpg" x="0" y="0" width="270" height="270" style="-ms-interpolation-mode: bicubic;" />
  </pattern>
<style type="text/css">
	.normal{fill:url(#normal);}
	.left{fill:url(#left);}
	.right{fill:url(#right);}

</style>
<path id="body-right" class="normal" d="M1745.6,1311.2c0,0-1.5,28.5,6,58.5s168,591,172.5,598.5s36,88.5,52.5,123s70.7,165.4,87,196.5
	c16.5,31.5,39,118.5,60,144s-54,102-54,102s-157.5,204-171,213s-78,37.5-78,37.5s-15,1022.9-13.5,1031.9s10.5,177,10.5,177
	l40.5,46.5l282,274.5l-12,16.5l-93,87L1933,4505c0,0-34-16-66-24s-424-138-438-142s-84-28-94-32s-146-74-152-78s-12-28-12-34
	s14-150,16-176s16-116,18-136s14-288,22-342s0-360,2-402s12-94,4-116s-28-60-28-60s0-36,0-48s-22-232-22-232s-28-152-26-160
	s12-32,16-48s8-178,8-178s32-410,36-460s0-178-2-204s-16-94-12-102s20-14,30-16s36-8,36-8s162-46,250-90
	C1519,1417,1722.2,1337.4,1745.6,1311.2"/>
<path id="body-left" class="normal" d="M3050.5,4174.5c-7.5-16.5-19.5-73.5-33-123s-21-175.5-24-199.5s-22.5-180-22.5-186
	s-6-190.5-7.5-195s-4.5-262.5-1.5-334.5s9-181.5,16.5-213s21-78,22.5-85.5s16.5-189,18-202.5s12.5-41.1,14-54.6s-2-14.4,4-21.9
	s-1.5-9-3-16.5s-3-24-3-37.5s-1.5-40.5-1.5-52.5s9-166.5,9-166.5s-1.5-117-1.5-138s-7.5-139.5-9-157.5s-3-379.5-3-379.5
	s-1.5-15-1.5-27s-9-24-9-24s-12-13.5-21-18s-54-18-75-21s-126-43.5-165-55.5s-211.5-91.5-231-102s-60-39-60-39s6,16.5,12,37.5
	s-1.5,88.5-6,106.5s-19.5,48-22.5,70.5s-42,178.5-46.5,195s-48,181.5-58.5,216s-42,154.5-64.5,189s-120,219-130.5,237
	s-178.5,249-178.5,249c-36,45-129,127.5-136.5,130.5s-30,16.5-30,16.5s4.5,48,1.5,60s-1.5,76.5-3,108s-15,529.5-15,529.5
	s3,130.5,3,145.5s0,175.5,0,184.5s9,213,9,217.5s4.5,25.5,4.5,25.5s162,150,168,154.5s264,220.5,288,238.5s87.9,83.5,87.9,83.5
	s57.5-27,122-42s188-53.5,212-64s200.6-67.5,214-72c13.5-4.5,96-37.5,103.5-46.5s68.5-41.5,68.5-41.5s0.5-20,0.5-27.5
	S3058,4191,3050.5,4174.5z M1888.3,2771.7c14.1,0,26.7,5.6,34.8,14.4l-0.1,0.1c0,0,0.2,0.1,0.6,0.4c0.5,0.6,1,1.2,1.5,1.8l0.3,0
	c2.8,3.3,7,10.6,7.4,25.3c-2,19.6-21.2,35-44.5,35c-24.7,0-44.7-17.2-44.7-38.5S1863.6,2771.7,1888.3,2771.7z M1877.3,3162.4
	c11.7,0,22.2,5,29.7,12.9c1.7,1.8,3.3,3.8,4.7,5.9c1.1,1.6,2,3.3,2.9,5.1c0,0,0,0,0,0c2.6,9.9,4.4,19.1,4.1,24.5
	c-2.5,21.3-20.1,37.8-41.4,37.8c-23,0-41.7-19.3-41.7-43.1S1854.3,3162.4,1877.3,3162.4z M1871.4,3640c-23.9,0-43.3-19.3-43.3-43
	s19.4-43,43.3-43c20.4,0,37.5,14.1,42.1,33l-1.7,25.3C1905.6,3628.5,1889.8,3640,1871.4,3640z M2323,2787.2
	c0-23.9,19-43.2,42.4-43.2s42.4,19.3,42.4,43.2s-19,43.2-42.4,43.2S2323,2811,2323,2787.2z M2343.7,3189.2c0-23.9,19-43.2,42.4-43.2
	s42.4,19.3,42.4,43.2s-19,43.2-42.4,43.2S2343.7,3213,2343.7,3189.2z M2384.9,3584.5c0-23.9,19.7-43.2,44-43.2s44,19.3,44,43.2
	s-19.7,43.2-44,43.2S2384.9,3608.4,2384.9,3584.5z M2491.6,4034.2c-21.4,0-38.7-18.6-38.7-41.5s17.3-41.5,38.7-41.5
	s38.7,18.6,38.7,41.5S2513,4034.2,2491.6,4034.2z"/>
</svg>
