<?xml version="1.0" encoding="utf-8"?>
<!-- Generator: Adobe Illustrator 21.1.0, SVG Export Plug-In . SVG Version: 6.00 Build 0)  -->
<svg version="1.1" id="Layar1" xmlns="http://www.w3.org/2000/svg" xmlns:xlink="http://www.w3.org/1999/xlink" x="0px" y="0px"
	 viewBox="0 0 4160 6240" style="enable-background:new 0 0 4160 6240;" xml:space="preserve">
<style type="text/css">
	.st0{fill:#9C9FA0;}
	.st1{fill:#CDD3D3;}
	.st2{fill:#C8CCCC;}
	.st3{fill:#7B7C7C;}
	.st4{fill:#BCC1C1;}
	.st5{fill:#D9E2E2;}
	.st6{fill:#DFE5E5;}
	.st7{fill:#727C7C;}
	.st8{fill:#989999;}
</style>
<path id="skirt" class="st0" d="M1603,3526c0,0,10,124,11,136s6,115,6,115l17,393v5c0,0,7.2,0.5,10.5,0.8s35.7,1.2,37.8,2.2
	c0,0,1.3,2.2,1.3,3.3c0,1.2,0.3,5,0.3,5s44.8,3.3,49.8,3.5s47.5,4,47.5,4h34.2l74,1.2c0,0,63.2,1.7,71.7,2.3
	c8.5,0.7,52.2,0.7,54.7,0.8c2.5,0.2,104.2,2,104.2,2l103.8-0.5l106.8,2c0,0,42.7,2,48.7,2s36.7,0,42-0.7s10-2,12-2.7s8-5.3,8-5.3
	l12-4l1.3-4l1.3-7.3l1.3-18c0,0,4.7-78.7,5.3-82c0.7-3.3,9.3-53.3,9.3-53.3l32-215.3l23.3-179.3l9.3-102l-0.7-8l-16.5,24.8
	c0,0-6,5.7-11.5,5.2c0,0-18.5,1.7-17-24.2l1.7-5.3c0,0-12.8,3-16.8-6.7l0.3-11.5l27-23.2l0.7-1.2l-0.8-1l-11.7-3.8
	c0,0-2.2-9.3-0.2-13.2c0,0,14.8-17.3,43.3-16c0,0,2.3-3.7,2.7-4.3c0.3-0.7,0.3-3.8,0.3-3.8s0.8-1.7-1.2-1.8c-2-0.2-3.3-0.2-5.2-1.5
	c-1.8-1.3-3.2-2.8-3.2-2.8s-0.2-2.5-1.7-2.5s-2.5-0.2-3,0.5s-0.2,1.8-3.2,1.7s-14.7,2.2-14.5-11.3c0,0-1.7-73.3-1.7-77.3
	s-5.3-68.7-5.3-76.7s-2.7-15.3-2.7-15.3l11.3-164l-7.3-285.7h-903.3l53.6,344.4l9.3,91.7c0,0,2.8,7.6,2.8,8.6s4.2,26.8,4.2,27.8
	s-0.2,32.8-0.2,36.2s0.2,18.5,0.8,21s1.2,31.8,1.8,35.2s4.8,49.2,5.2,54.8s1.2,10.2,1.2,13.2s0.8,7.5,0.2,9s-0.5,4-2.5,4.5
	s-21.8,2.2-36-15c0,0,9.8,39,12,44.5s4,12.8,4.5,14.2s0,3.8,1,5s13,18.5,13.5,19.5s24.8,26.8,16.5,44.2c0,0-10,19.8-25,8
	c0,0-7.8-4.5-8.2-5.8s-2.8-4.5-6.8-7s-24-13.2-26-14S1603,3526,1603,3526z"/>
<path id="body-left" class="st1" d="M2342.3,1515.7l131.3,40.7l121.3,37.3l6.7,10c0,0-25.3,198-25.3,211.3s-0.7,146.7-7.3,163.3
	c-6.7,16.7-32,88-37.3,106s-62,193.3-62.7,195.3s-11.8,32.6-12.8,37.6s-7.5,32.8-7.8,38s-6.5,50.2-6.8,53s-5,65.8-4,75.2
	c0,0,1.2,26,5,41.5s8.2,45.5,13.2,55.8c0,0,16.5,42,18.8,46s6.8,14.8,6.8,14.8s6.5,20,7.8,25.5s4.8,49,5,52.2s1.5,32.8,0.8,38.2
	s-1.2,102.8-0.5,107.8s5.2,58.5,7.2,61.8s19.2,44.2,19.5,48.5s-2.8,80.2-3,84s-13.2,88-13.2,88s-2.2,1-6.5,2.2s-18.2,3-18.2,3
	s-45.5,4.2-52.8,5s-95.5,5.5-99.2,5.2s-32.5,0.8-41,0.5c0,0-41.5-1.5-48.8-2s-32.8-3-54.8-18.2c0,0-23-10.2-45.2-36.5
	c0,0-26-29.5-29.2-36.5s-13.5-22-16.2-29s-17.8-40.2-21.5-52.5c0,0-20.8-71-21-72s-3.5-15.8-3.5-15.8l5.3-20c0,0,12-56,14-64.7
	s14.7-71.3,14.7-71.3s17.3-137.3,18-151.3s-1.3-21.3-1.3-21.3v-68c0,0,0-238,0.7-243.3s-5.3-50.7-8-59.3
	c-2.7-8.7-18.7-83.3-18.7-83.3l32.7-90l64-203.3c0,0,54.7-303.3,62.7-310.7c8-7.3,26.7-55.3,26.7-55.3s44,39.3,50.7,44
	C2315,1507.7,2342.3,1515.7,2342.3,1515.7z"/>
<path id="body-right" class="st2" d="M2114,2409c0-1.3-4.7-110.7-4.7-110.7s-3.3-38.3-3.3-41s-6-44-8-50.3s-20.3-76.7-23.7-79.7
	c-3.3-3-21.3-48.7-21.3-48.7l-43-147.3l-30.7-107.7l-59.7-361l-41.6,37.8l-34.2,9.2l-5.8,1.3l-49.7,15.3c0,0-50.3,15.7-55.3,17.2
	s-29,9.5-33.3,11.2s-45.7,13-50,14.3c-4.3,1.3-60.7,17.3-62.3,17.7c-1.7,0.3-2.3,1-3,2.3c-0.7,1.3-3,7.7-3,8.7s0.3,91.7,1.3,96.3
	c1,4.6,7.3,156,7.3,156s6.7,84,7.3,93s2.3,58,7.3,66.3s35,90.7,42,99.3c7,8.7,19,44,19.3,47.7s8,69,9,74s8,13.3,9,14.7
	s12.3,25,13.7,29.7c1.3,4.7,16,74,19,100.7c0,0,6.3,99.3,5.7,113.3c0,0-0.3,26-0.3,30.3s-1.7,10.7-2.7,14.7s-14.7,40-15.7,44
	s-2.3,9.7-2.3,11.7s-0.3,8.7-1,13.3c-0.7,4.7-20.3,55-22.3,60.7s-11.3,28.3-12.7,35c-1.3,6.7-2,12.3-2,12.3s-3,115.3-3.3,117.7
	c-0.3,2.3-4,79-4.7,81s-5,105.7-5,105.7s3,129,3,130s7.3,5.7,7.3,5.7s7,2,18.3,2.3s78,5,84.7,4.3s99.3,1.7,105.7,1.3
	c6.3-0.3,11.7,0.3,17.7-1.7s30-16,34.3-19.3s23.7-14.7,27-19s14-17,17-20s21.3-28,25.7-34.7s25-36.3,33.7-60.7
	c0,0,29.7-82,30.3-83.3s23-95,23.3-96s19-97.3,19.3-102.7c0.3-5.3,9.3-71.7,9.7-72.7c0.3-1,3.7-43.7,3.7-43.7s1.7-58.3,2.7-62.3
	s2.7-72.7,2.7-72.7S2114,2410.3,2114,2409z M2063.2,2597.1c-11.1,0-20.4-7.2-24.9-17.6c-4.2-12.9-2-24-0.1-29.9
	c4.1-9.5,12.6-14.8,24.8-14c15.2,1,28.3,14.8,28.3,31.5C2091.5,2584,2078.5,2597.1,2063.2,2597.1z M2063.1,2265
	c-12.3,0-22.9-7.9-27.1-19.1h-0.1c-2.8-7.2-2.3-13.9-0.9-19.2l0,0c3.5-12.4,14.7-21.5,27.9-21.5c16,0,29.1,13.4,29.1,29.9
	C2092.2,2251.6,2079.2,2265,2063.1,2265z"/>
<path id="collar-left_1_" class="st3" d="M2216,1388c0,0,0.1,0.6,0.2,1.7c0.7,7.3,3.2,36.2,3.5,40c0.3,4.3,6.3,37.7,6.7,43
	c0.3,5.3-2,20-3.7,24s-5.7,17-6.3,20c-0.7,3,0.7,6.3,0.7,6.3l74.3,58l11.7-5.7c0,0,6.8-2.5,19.2-3.5c12.3-1,47.5-0.5,52.5-1.2
	s9.7-1.7,9.7-1.7s1.5,0,0.5-3.5s-5.2-4.7-7.5-9.7s-2.3-5.2-4-6.8c-1.7-1.7-0.7-1.8-3-4.7c-2.3-2.7-21-20.7-22.3-22s-2.7-3.7-4.3-5
	c-1.7-1.3-13-8-17.3-12s-47.3-47-48-48s-45.3-52-50.7-56.3l-8.3-7.3L2216,1388"/>
<path id="lapel-left" class="st4" d="M2216,1516.7c0,0,5-0.2,9.8,2.2c4.8,2.3,15.8,9.3,17.8,11.2s26.2,22.2,28.5,24
	s23.5,20.5,27.5,21.5s20,1.5,30,0.8s53-8.2,59.7-8.7s37.2-1.7,42.9-1.7s25.1-1.8,20.5,12l-3,10.8l-11,27l-14.8,37.5
	c0,0-21.5,48.2-23.8,54s-26,50-26,50l-42.2,74c0,0-49.5,77.2-50.5,78.5s-45.2,67-45.8,67.8s-40,54.8-42.5,58.5s-69,88.5-69,88.5
	s-31.2,38.8-33,40.2s-5.2,3.5-5.2,3.5l-10.5-34.8l-4-45.8l3.8-4c0,0,5.5-17.8,8.2-22.5s15-43.8,16.2-47s5-19.8,8.2-27.2
	s9-26,10.2-32s7.8-41,8.8-45s11.5-46,12.8-49.2s1.5-13.5,1.5-16.5s0.5-6,0.5-6s8.2-18.8,12.2-29s13.5-52.5,13.5-52.5
	s12.2-47.8,13.5-53s12.8-59.8,14-64.8s12.2-73.2,12.8-79.8S2216,1516.7,2216,1516.7z"/>
<path id="arm-left" class="st5" d="M2595,1593.7c0.4-0.6,7,0.6,9.2,1.3s11.2,6.8,13,8.8s7,17.2,7,17.2s19.5,65.8,20.2,67.5
	s22,60.5,23.5,62.8s4,14,5.5,17.2s16.8,72.5,17,73.2s11.5,59.2,12,63s5.2,32.2,5.2,33.5s6.8,71,6.8,71s15.2,289.1,15.2,302.4
	c0,13.3,8,250.7,8,260s5.3,258,6,261.3s10.7,232,10,238.7s8,166,8,168s0.7,5.3,0.7,5.3l-47.3,19.5l-6-39.5c0,0-79-6-92.5-5
	s-54-2-80.5,2.5c0,0-31,4-34.5,21.5c0,0-1.2-0.8-1.5-1.3s-1.2-2.3-1.2-2.3l0.8-32.8l0.7-34.5c0,0,2.7-47.5,3.2-50.5
	s0.5-56.5,0.5-56.5s0.5-32.8,0.5-34.8s2-28,2.2-30.2s1-26.7-3-35.3c-4-8.7-13.3-54-14.7-66.7s-6-108-6-114s3.3-28.7,3.3-40.7
	s-6.7-92-6.7-99.3s0.8-20.5,1.6-27.2s1.8-57.4,1.8-60.1c0-2.7-5.3-172-4.7-177.3c0.7-5.3-6.7-96.7-6.7-96.7l-2.7-4
	c0,0,10.8-56.9,11.2-58.4s18.2-65.2,18.8-67.2s22.2-67.8,22.5-68.8s23.5-61,24-63.8s2.8-19.5,4.5-24s7-35.2,7.5-37
	s6.8-51.5,7.2-56.5s4-57.8,4-58.8s2.2-52.8,2.5-55.5s5.2-69,6.2-73.5s4.5-47.5,5-50.2s5.5-52.2,6.8-55S2590.2,1600.1,2595,1593.7z"
	/>
<path id="arm-right" class="st6" d="M1585.7,1589c-1,0-5-0.3-6.7,2.3c-1.7,2.7-10.7,14.3-14,22s-33.7,90-33.7,90l-41,122.7
	c0,0-21.3,81.3-23.3,86s-10,51.7-11,56.7s-5.7,51-6,57.3s-6.7,105-6.7,107.3s-5,104.3-5,109S1434,2368,1434,2368l-5.3,107.3l-4.3,85
	c0,0-2.7,68.3-2.7,70.3s-3.7,106-3.7,106s-3,87-3,88.3s-4,91.3-4,91.3l-7.3,134.7l-7.7,127.5c0,0-4.5,47.5-6,52l-0.8,9.2l3.7,3.3
	c0,0,16.8,7.7,18.3,8.7s30.5,11.3,30.5,11.3s2.8-31.8,5-33s46.7-5.2,46.7-5.2s103.7-10.2,136,0.2c0,0,29.3,8.7,33.3,11.7l2,2
	l-4.7-77.7c0,0-2.3-17.3-3.3-31.3V3024l4.7-94.7c0,0,3.3-66.3,3.3-71s-1-74.3-1-74.3l3.3-65.7c0,0,1-22.7,0-25.3s-2-11-2.3-13
	s-0.3-47.7-0.3-47.7s-2-33.3-1.7-38.3s1.3-30.3,1.3-33.7c0-3.3,1.3-30,1.3-30l3-49.3l0.7-28.7c0,0,2-39.3,2.3-42.7
	c0.3-3.3,2.7-31.3,2.7-31.3s4-44.7,4-48.7s2.7-51,3.3-53.7c0.7-2.7,1.7-31.7,1.7-33.3c0-1.7,0-42,0-42s-4.3-42-11.7-65.7
	c0,0-27.7-64.3-32-71.3c0,0-17.7-36.3-19-44.3c0,0-14.3-59.3-15.7-95.3l-5.3-87.3l-4.3-93.3c0,0-4.3-59.7-4.3-65s-3-74-3-77.3
	S1585.7,1589,1585.7,1589z"/>
<path id="collar-right" class="st7" d="M1949.2,1393.5c0,0-48.2,48.2-51,51.5s-17,20.8-18.5,24s-3.2,5.5-6.8,9.8
	s-28.2,28.2-31.2,31.2s-11.5,7.5-14.2,9.5s-42,40.5-42,40.5l97,13.2l4.5,0.2c0,0,23.8-17.5,24.8-19.2s32.8-33.5,39-34.5
	s11.8,1.5,11.8,1.5s-2-13.8-3.5-17.2s-7.2-25.8-7.5-27.2s-4.8-18.8-5.2-23.8S1949.2,1393.5,1949.2,1393.5z"/>
<path id="lapel-right" class="st8" d="M1961.3,1517c0,0-7-6.3-18.3,2c0,0-50.2,43-51.8,44s-6.2,5.8-6.2,5.8s-70.8-9-73-9.2
	s-23.8-4.8-27.5-5s-23.8-1.2-28.2-0.5c-4.3,0.7-10,1.3-13,4.3s-6,5-6.3,8.7s-1.3,5,0.7,10.7s31,80.7,31,81.7s22.7,57,27.3,69
	s38,76,40.3,80s24.3,44.7,30,55s63,94.3,67.7,102s75.3,108,76,110s56.7,85,59.7,90s25.3,56.7,27.7,64c2.3,7.3,8.7,48.3,9.7,53
	s2,14.3,2,14.3s-2.3-45-4-59.7s-11.3-71.3-11.7-73.7c-0.3-2.3-19.7-86.3-19.7-86.3l-20.7-102.7c0,0-8-46.7-8-56.3s-1-18.3-1-18.3
	s-9.3-21.7-13.3-33.7s-14.7-58.7-14.7-58.7l-18.3-84.7c0,0-10-47.7-11.7-56.7s-10-48.3-10.7-59.7c-0.7-11.3-7-53.3-8.3-62
	C1965.7,1535.7,1961.3,1517,1961.3,1517z"/>
</svg>
