<?xml version="1.0" encoding="utf-8"?>
<!-- Generator: Adobe Illustrator 21.1.0, SVG Export Plug-In . SVG Version: 6.00 Build 0)  -->
<svg version="1.1" id="Layar1" xmlns="http://www.w3.org/2000/svg" xmlns:xlink="http://www.w3.org/1999/xlink" x="0px" y="0px"
	 viewBox="0 0 4160 6240" style="enable-background:new 0 0 4160 6240;" xml:space="preserve">
<pattern id="normal" patternUnits="userSpaceOnUse" width="270" height="270" patternTransform="">
		<image image-rendering="optimizeQuality" preserveAspectRatio="xMidYMid meet" xlink:href="/images/simulator/default/default_tex.jpg" x="0" y="0" width="270" height="270" style="-ms-interpolation-mode: bicubic;" />
  </pattern>
  <pattern id="left" patternTransform="rotate(23)" patternUnits="userSpaceOnUse" width="270" height="270">
		<image image-rendering="optimizeQuality" preserveAspectRatio="xMidYMid meet" xlink:href="/images/simulator/default/default_tex.jpg" x="0" y="0" width="270" height="270" style="-ms-interpolation-mode: bicubic;" />
  </pattern>
  <pattern id="right" patternTransform="rotate(-23)" patternUnits="userSpaceOnUse" width="270" height="270">
		<image image-rendering="optimizeQuality" preserveAspectRatio="xMidYMid meet" xlink:href="/images/simulator/default/default_tex.jpg" x="0" y="0" width="270" height="270" style="-ms-interpolation-mode: bicubic;" />
  </pattern>
<style type="text/css">
	.normal{fill:url(#normal);}
	.left{fill:url(#left);}
	.right{fill:url(#right);}

</style>
<path id="belt_x5F_2" class="normal" d="M1670.7,1646.2c0,0-55.9,100.3-56.7,102.5c-0.8,2.2-9.7,19.5-9.7,19.5s34.8-4.4,36.7-4.7
	s70.9-4.2,79.4-3.4c8.5,0.8,121,4.4,121,4.4l109.7,4l144.8,2.7c0,0,151.5,3.2,154.1,3.2c2.7,0,143.4,2.4,149.1,2.2
	c5.6-0.2,163.3-0.8,169.5-0.6c6.2,0.2,24.4,0.6,45.1,4.6l18,3.8l-26.6-68.2c0,0-16.7-41.1-17.7-43.8c-1-2.7-3.5-6.2-3.8-11.3
	c-0.2-5.1-0.6-9.1-0.6-9.1s-26.8-10.2-40.5-12.1s-106.4-3.8-120.1-3.5c-13.7,0.3-96.7,0-96.7,0l-196.6-4.8l-198.5-3l-253.2,10.2
	L1670.7,1646.2z"/>
<path id="belt_x5F_1" class="normal" d="M1682.6,1626.1l-13.7,23.4l23-4c0,0,56.8-7.7,133.4-8.5l201,0.4l169.6,2.8l159.5,3.2l141.4,2.4
	c0,0,42.3,3.2,47.9,3.2s31.8,4.4,33.4,5.2s6,2.4,6,2.4s4.8-18.9-19.3-24.6c0,0-22.2-3.6-24.2-4s-28.2-2-35.1-2s-55.2-0.8-74.9-1.6
	s-118.4-4-118.4-4s-151.2-4.3-160.3-3.8c-9.1,0.6-118.2-4.8-120.9-4.8c-2.7,0-65-1-77.9-0.6c-12.9,0.6-56.4,2.7-68.7,1.6
	c-12.3-1-101,3.2-113.4,3.2C1758.7,1616.2,1691.9,1619.9,1682.6,1626.1z"/>
<path id="skirt" class="normal" d="M1605.4,1766.9c0,0-13.7,26-14.3,28c-0.6,1.9-32.8,89.4-32.8,89.4s-34.9,101.3-35.2,102.3
	c-0.2,1-21.2,73.3-21.2,73.3s-21.2,73.3-22,78.4c-0.8,5.1-16.9,77.4-17.2,79.2c-0.2,1.9-14.5,71.7-14.5,72.5s-11.3,92.1-11.5,97.5
	s-5.6,89.4-5.4,92.9s3,92.4,3.2,95.6c0.2,3.2,5.4,62,5.4,62.8s12.3,178.3,12.3,179.7s8.3,112.8,8.3,112.8s12.3,201.2,12.3,203.9
	s28.4,458.2,28.4,459.8s5.1,246.8,5.1,249.6c0,2.7,0,15.4,0,15.4l2.4,1c0,0,29.8-1.6,39.5-1.9c9.7-0.2,37.3-0.6,40.3-0.2
	c3,0.2,6.2,1.6,8.6,1.6s13.1,0.8,25,0.8c11.8,0,84,0,84,0s99.1,0,104.2,0.6s56.2-0.6,56.2-0.6s52.9,0.4,57,0.6
	c4,0.2,70.3,0.2,72.9,0s96.7-0.6,96.7-0.6l117,0.6c0,0,206.7,1.5,210.3,1.9s78.6,4,87.4,3.6s41.5,1.2,44.5,1.5
	c3,0.2,70.9-1,74.9-1.4c4-0.2,37.3-0.2,37.3-0.2s1.6-1.6,1.6-2.7c0-1,1.4-7,1.4-7l9.5-108.6l7.5-90.2l6.4-71.5l10.5-132.7l9.9-113.6
	l1.9-32.8l5.9-70.7l4-48.3l5.6-66.3l5.1-60.7l5.4-64.7l5.1-53.2l3-45.9l3.8-46.2l5.1-54.2l3.8-48.1l5.4-62l3.5-44.9l7.8-95.1
	c0,0,0.8-25,1-25.8s-0.6-53.4-0.8-56.4s-2.4-77.6-3-82.8c-0.6-5.1-11.8-107.4-11.8-108.2s-11-74.1-11-74.1s-11.3-77.4-12.1-79.2
	c-0.8-1.9-11.5-47.5-12.1-49.4s-25.2-91.6-25.8-92.4s-35.2-101.5-35.2-101.5l-39.7-106.6c0,0-81.9-16.4-98.1-16.4
	c-16.1,0-191.8,0-191.8,0h-724.4L1605.4,1766.9z"/>
</svg>
