<?xml version="1.0" encoding="utf-8"?>
<!-- Generator: Adobe Illustrator 21.1.0, SVG Export Plug-In . SVG Version: 6.00 Build 0)  -->
<svg version="1.1" id="Layar1" xmlns="http://www.w3.org/2000/svg" xmlns:xlink="http://www.w3.org/1999/xlink" x="0px" y="0px"
	 viewBox="0 0 4160 6240" style="enable-background:new 0 0 4160 6240;" xml:space="preserve">
<style type="text/css">
	.st0{fill:#686868;}
	.st1{fill:#A0A0A0;}
</style>
<g id="body-right">
	<path class="st0" d="M2043.3,2796c0.7-18.7,12.7-51.3,22-69.3s60-170,60-170v-7.3c0,0-6.7-21.3-12.7-36s-84-244-102-298.7
		s-54.7-212.7-70-270.7s-32.7-128-54-207.3s-28-112.7-43.3-163.3c-15.3-50.7-57.3-204.7-63.3-229.3s0-60,0-60c-6,0-13.3,8-18.7,12.7
		c-5.3,4.7-41.3,25.3-70.7,38c-29.3,12.7-74,28-104.7,41.3s-93.3,40-129.3,52.7s-106,39.3-140.7,47.3s-60,13.3-67.3,15.3
		s-13.3,19.3-16,34.7c-2.7,15.3-4.7,118.7-4.7,118.7c3.3,58.7,4,244,4,318s-12,264.7-18.7,370.7s-16.7,154-18.7,166
		s-11.7,39.3-11.7,45.3s9.7,49.3,21,109.3s21.3,109.3,21.3,119.3s6,30,6.7,35.3s5.3,44,5.3,53.3s3.3,52,8,97.3s7.3,151.3,7.3,302.7
		s-12.7,233.3-12.7,233.3s-4.7,61.3-6.7,74.7c-2,13.3,0,8.7-2,29.3s-17.3,341.3-24,426.7s-18.7,207.3-19.3,216
		c-0.7,8.7-5,16.7-5,16.7s3.7,0,8.3,2s70.7,38.7,98,52s44,19.3,70.7,24.7c26.7,5.3,139.3,38.7,206,58.7s122.7,42,143.3,46.7
		c20.7,4.7,111.3,34.7,122,37.3c10.7,2.7,10,0,10,0s3.3-6.7,6.7-15.3c3.3-8.7,24.7-34.7,57.3-81.3c32.7-46.7,109.3-138,156.7-200.7
		c47.3-62.7,63.3-81.3,63.3-81.3s-9.3-10-14.7-21.3c-1-2-2.2-4.5-3.7-7.3c-4.3,1.7-35.9,12.9-55-25.7c0,0-14-39,25-57
		c0,0,7.7,57.6,29.2,81.1c-6.7-12.9-16.9-32.3-22.2-51.8c-6.7-24.7-10.7-57.3-12.7-71.3s-14.7-231.3-18-305.3s-12-238.7-13.3-278
		s-0.7-221.3-0.7-221.3c1.3-58-1.3-186.7,0.7-216.7S2042.7,2814.7,2043.3,2796z"/>
</g>
<path class="st1" d="M3085.5,4181.5c-8.2-65.9-25.6-301.1-28.4-334c-2.7-32.9-11.9-251.7-11-322.1c0.9-70.5,5.5-325.8,9.2-368.8
	s2.7-230.6,0-262.7c-2.7-32,5.5-89.7,6.4-97s2.7-11.9,2.7-11.9s-2.7-162.9-1.8-172.1c0.9-9.2,2.7-17.4,1.8-25.6
	c-0.9-8.2-1.8-34.8-2.7-66.8s-5.5-287.4-9.2-319.4s-8.2-144.6-10.1-175.7c-1.8-31.1-2.7-167.5,1.8-254.4
	c4.6-86.9,11.9-216,11.9-223.3c0-7.3-6.4-22-14.6-24.7c-8.2-2.7-25.6-12.8-33.9-14.6c-8.2-1.8-29.3-7.3-40.3-10.1
	c-11-2.7-147.3-54.9-147.3-54.9s-128.1-47.6-170.2-66.8c-42.1-19.2-88.8-45.8-99.8-54c-11-8.2-32.9-21-46.7-24.7
	c0,0,15.6,36.6,4.6,82.4c-11,45.8-31.1,86.9-38.4,108c-7.3,21.1-26.5,82.4-40.3,136.4c-13.7,54-22,97-28.4,124.5
	s-32.9,121.7-51.2,192.2s-33.9,120.8-81.4,244.3c0,0-116,310.2-131.2,337.7s-82,216-84.8,227.9c-2.7,11.9-12.8,37.5-11,58.6
	s-5.5,187.6-5.5,236.1s5.5,89.7,0,189.4s6.4,152.8,5.5,179.4c-0.9,26.5,5.5,166.6,11.9,271.8s11.9,235.2,22,291s11.9,61.3,28.4,90.6
	s111.7,156.5,129,184.9c17.4,28.4,103.4,140.9,130,178.5c26.5,37.5,43,60.3,45.8,70.5s12.8,8.2,16.5,6.4
	c3.7-1.8,110.7-35.7,130.9-41.2c20.1-5.5,153.7-42.1,204.1-56.7s206.8-69.6,242.5-91.5s59.5-32,65-39.4s18.3-21,18.3-21
	S3093.7,4247.4,3085.5,4181.5z M2134.5,2767c0,0,24.4,1.8,36.6,17.2c2.4,3.5,12.7,21,1,47.8c0,0,0,0,0,0c0,0,0,0.1-0.1,0.4
	c-0.7,1.6-1.5,3.2-2.3,4.8c-4.1,6.7-14.1,17.1-36.5,15.8c-32.5-2-41-30.5-42.5-40.5C2090.5,2812.5,2090,2766,2134.5,2767z
	 M2137,3069.5c0,0,27.5,6,32.5,20.5c0,0,11.2,31.2-7.1,56c-5.6,5.8-14.9,11.5-29.9,11.5c0,0-38.5,4.5-44.5-40.5
	C2088,3117,2087.5,3069.5,2137,3069.5z M2137,3377c0,0,29.1,1.3,36.8,21.4l-0.4,0c0,0,9.5,25-4.2,47.4c-4.6,6.3-15.4,21.4-32.2,19.8
	c-21-2-46.5-16.5-47-41.5S2102.5,3380,2137,3377z M2094.5,3714c0,0-6.5-38.5,42.5-44c0,0,22.9,4.7,32.7,13.7l0,0
	c0,0,22.1,29.5-2.8,59.8l0.7,0c-6.3,6.7-16.7,14.8-30.6,14.5C2137,3758,2095.5,3759.5,2094.5,3714z"/>
</svg>
