<?xml version="1.0" encoding="utf-8"?>
<!-- Generator: Adobe Illustrator 21.1.0, SVG Export Plug-In . SVG Version: 6.00 Build 0)  -->
<svg version="1.1" id="レイヤー_23" xmlns="http://www.w3.org/2000/svg" xmlns:xlink="http://www.w3.org/1999/xlink" x="0px"
	 y="0px" viewBox="0 0 4160 6240" style="enable-background:new 0 0 4160 6240;" xml:space="preserve">
<style type="text/css">
	.st0{fill:#969DA3;}
	.st1{fill:#D3E2E2;}
	.st2{fill:#D6D8D8;}
	.st3{fill:#AFBCBC;}
	.st4{fill:#7B8384;}
	.st5{fill:#B5BABA;}
</style>
<path id="pants" class="st0" d="M2656.4,3700.7c-2.5,0.5-5.2,0.2-9.2-0.8s-6.8-2.5-7.8-3.8s-2.5-3.5-2.5-3.5s-8.8,6-11.2,6.2
	s-9.2,2-12.5-0.2s-20.5-9.8-20-24l1.5-5l-10.2,4c0,0-9.5,2.2-11.8,1s-23.2-9-20-27.5l0.8-8.5c0,0-9.2,10.5-11.2,12s-8,4.5-10.2,5
	s-6,0.5-9.8,1.2s-6,2.8-7.2,2.8s-8-2-9.2-2.2s-4-0.8-6-3.2s-3.2-8.8-3.2-8.8s8.5-31.2,9.2-33.2s2.2-20,3.2-25s0.8-11.8,0.8-16.2
	s0.5-18,1-20.2s2-6.5,4.8-10.5s16.8-40.4,16.8-40.4l19.5-61.5c0,0,40.5-298.5,43.5-333s-12-120-12-120l-13.5-90l-24-139.5l-691.5,21
	l-85.5,652.5c0,0-64.8,26.4-66.1,27.1c-1.3,0.7-5.3,2.7-5.3,4s-2.7,6.3-2.7,6.3s10.7,19,11.3,20s16.3,23.3,18,25.3s15,18,16.7,22.3
	s15.3,43.3,16.3,50.3s11.3,46.3,11.3,51.3s0.3,11-1.3,12.7c-1.7,1.7-7,5.7-12.7,5.3c-5.7-0.3-17.3,1-21-1.3s-19-9.3-21-11.7
	s-5.7-11-6.7-17s-11-47.7-11.3-51.7s-0.7-5.3-2.7-7.3s-49.3-52.3-57.3-51.7c-0.7,0,7.3,26,9.3,34s7.3,25,7.7,30c0.3,5-0.3,5,1.7,8.7
	s13,16.3,13.7,19s7.3,9,10,12s11.3,11.3,14,14s4.3,4,7.7,5.7c3.3,1.7,5.3,2.7,8,5.7s11.7,12.7,13.3,14.7c1.7,2,6,3.7,5,7
	s-6.3,14.3-7.7,19s-2,7-3.3,8.3s-8.3,6-9.7,6s-2.3,2.3-2.3,4.3s-1.3,10.7-2.7,14c-1.3,3.3-8.3,12-10.7,15c-2.3,3-10.7,7.3-10.7,7.3
	s-10.7-1-12,0s-2.3,1.7-5,3s-4,3.3-8.3,4s-12.2,1.7-13.9,0.9s-12-7.2-15.5-9.8s-15.2-9.2-15.2-9.2s6.2,82.5,6.2,83.8
	s6.2,87.5,6.2,88.2s4,75.5,4,75.5l3.2,69l4.5,77.7c0,0,6.5,71.5,6.5,72.8s4.5,66.5,4.5,66.5l3.1,43.9c0,0,6.7,101.7,6.7,103
	s5.3,66.7,5.3,66.7l28.7,424.7c0,0,33,721,34,725s-0.5,7,1,9s12.5,21.5,14,24.5s1,5.5,5,7s10,0,14.5,2s31.5,11,35,12.5
	s51,10.5,67,11.5s57.5-3.5,57.5-3.5s12.5-4,16-3.5s14-9.5,16-11.5s7.5-12.5,10.5-15s3.5-5,3.5-5l0.7-74.3l2.3-111.7l0.7-116.7
	l2.3-107c0,0,1-68.3,0.7-70.7c-0.3-2.3-1-9.7-1.3-12.7s1.3-33,1-35.7s1.7-14.7,1.7-14.7s0-54.3,0.3-58.3s1.7-110,1.7-110l5-106.7
	l23.3-310.7l11.3-152.7l16-240c0,0,12.7-180.7,14.7-191.3l6.7-66c0,0,24.7-182.7,26-190c1.3-7.3,36.7-208.7,36.7-208.7
	s10.7-49.3,11.3-52c0.7-2.7,2.7-12,2.7-12l4.7-4.7l4,0.7c0,0,13.3,56,14.7,58.7c1.3,2.7,14.7,90.7,17.3,96c2.7,5.3,10,31.3,11.3,42
	s8.7,50.7,8.7,50.7s43.3,227.3,43.3,230s46.7,322,46.7,327.3s29.3,310.7,29.3,310.7l24,211.3c0,0,21.3,148.7,22.7,210l6,183.3
	c0,0,16,310,16,312s10,196.7,10,196.7s0.7,8,1.7,10.5s14.2,34,16.2,36s6.2,4.2,8.8,5.8s64.5,16.2,69.5,16.8s12.5,1.5,12.5,1.5
	s2.5,2.2,9.2-0.8s32.8-15,36-16.5s6.5-4,22.5-4.2s17-1.8,23.8-4.8s15-7.5,15.2-9s-1-19.8-1-19.8s-2-19-2.2-22s0-76.5,0-76.5
	s2-45.8,2.2-47s2-56.8,2-56.8l2-43.8c0,0,2.2-92.8,2.8-95s2.8-57.2,2.8-57.2l2.8-88.8l4-89.5l2.5-76.8l2.2-53l2.8-71l2-63l2.2-58
	c0,0,2.2-59.2,2.5-60.8s2.2-74.8,2.8-76.5s1-33.2,1-33.2l3-76c0,0,0.5-38.5,1.2-42s0.8-17,1-19.8s0.8-32.8,0.8-33.5
	s2.8-47.8,2.8-49.2s0.5-19.5,0.5-19.5s0.8-21,0.8-22.2s1.5-52,1.8-54s1.2-27.5,1.2-27.5l0.8-25.5c0,0,0.5-18.8,0.5-20.5
	s1.2-27,1.2-27v-30.2l2.2-40l0.5-39.8l2.2-97.2l0.2-39.5l5.2-119.2l1.5-101.5C2659.2,3697.2,2658.9,3700.2,2656.4,3700.7z
	 M2083.8,2904.2c-15.9,0-28.7-13.3-28.7-29.8c0-16.4,12.9-29.8,28.7-29.8s28.7,13.3,28.7,29.8
	C2112.6,2890.9,2099.7,2904.2,2083.8,2904.2z M2226.7,2850.1c-0.6,1-1.3,2.3-3.2,2.6s-16.5,2.9-23.9,1.9s-13.9-1.9-18.8-1
	c-4.9,1-3.9,0.6-6.8,1.9c-2.9,1.3-1.9,4.5-6.8,2.9c-4.9-1.6-14.2-12-11-17.2s10.4-7.8,19.7-4.5c7,2.4,4.3,1.9,2.5,1.6
	c2.4,0.6,6.9,1.6,9.8,1.4c3.6-0.3,22.3-1,24.3-1.3c1.9-0.3,10-0.6,10-0.6l1.6,3.2c0,0,1.6,0.6,2.3,2.9S2227.3,2849.1,2226.7,2850.1z
	"/>
<path id="body-right" class="st1" d="M2203.7,2541.3c-1.3-11.3,19.3-64.7-4.7-87.3c-24-22.7-102.7-103.3-104-105.3
	s-80-264.7-80.7-271.3c-0.7-6.7-110.7-490.7-119.3-506.7s-30.7-66-34-64.7s-45.3,23.3-48.7,25.3c-3.3,2-21,9-21,9
	c-2.7,1.3-11.7,3-21,6.7s-66.3,22.3-72.7,24.7c-6.3,2.3-94,32.7-98.7,34s-107,33.3-111.3,35s-12.7,4.3-15.7,6s-8.3,5.7-8.3,5.7
	l-1.7,5.7c0,0,23.3,38.3,24.3,42s32.7,98.3,32.7,98.3s39,197.7,39.3,199s8.7,127.3,9.7,133.3s13,77.3,13,77.3s23.3,73,23.7,74
	c0.3,1,19.8,51.3,20.8,53.2s7,21.7,8.3,24.8c1.3,3.2,12.2,31.7,12.6,32.9s2.6,13.4,2.8,15.8s8.8,65.3,9.2,69.7
	c0.3,4.3,4,45.3,4,54.7s-2,91-2,91s-3.7,62-4.7,68.3s-13,60.3-14.7,66.7s-5.7,25.3-5,26.3s2.7,7.3,2.7,7.3l-5.3,8l1.3,6
	c0,0-5.3,6.3-5.7,8c-0.3,1.7-4.7,19-4.7,19l-6.7,41.3c0,0-5.7,33.3-6.3,35.3c0,0-4.3,9-4.3,11.7s-0.7,8,2,9.3s7.3,4.7,7.3,4.7
	l2.7,3.3c0,0-11.3,100.7-12,104.7s-21.3,288-21.3,288l71.3,61.3c0,0,4,16.7,4,18.7s-0.7,7.3,2,9.3s22.7,21.3,26,24.7s5.3,6,6,9.3
	s0,8,0,10s30,48,33.3,52s11.3,18,13.3,20.7s5.3,6,5.3,6s82,8,92,8.7s32.7,1.3,42.7-0.7s42.7-16.7,47.3-20s22.7-20.7,29.3-30.7
	c6.7-10,40.7-60,40.7-60s32-64.7,34-69.3s18-56.7,22-66s12.7-41.3,18-52s34.7-178.7,36-183.3c1.3-4.7,12.7-123.3,12.7-123.3
	s28-134.7,27.3-139.3S2205,2552.7,2203.7,2541.3z M2083.8,2904.2c-15.9,0-28.7-13.3-28.7-29.8c0-16.4,12.9-29.8,28.7-29.8
	s28.7,13.3,28.7,29.8C2112.6,2890.9,2099.7,2904.2,2083.8,2904.2z M2186.2,2514c-0.3,2.3-0.2,6.3-0.7,7.3s-1.7,1.7-1.7,1.7
	s-4.8,0-6.3,0.2s-3.7,0.3-5.5,0.3c-1.6,0-16.7,0.4-21.5,0.3c-1.6,16.1-14.4,27.8-29.9,28.9c-16.6,1.1-30.1-14.5-30.1-32.3
	s13.5-32.3,30.1-32.3c12.4,0,23,8,27.6,19.5l36.2-0.3C2184.3,2507.2,2186.5,2511.7,2186.2,2514z"/>
<path id="body-left" class="st2" d="M2683.3,1642.7c-0.3-0.5-1.2-0.8-3-1.5c-1.8-0.7-3.5-1.7-6-3c-2.5-1.3-9-3.2-13-4.3
	c-4-1.2-113.2-32-115.7-32.7c-2.5-0.7-84.7-23.8-90.3-25.3c-5.7-1.5-67.3-20.2-70-21.8c-2.7-1.7-32.7-10.2-32.7-10.2
	s-2.8-1.2-7.2-3.2c-4.3-2.1-29.8,0.8-29.8,0.8s-140,658-151.3,672.7s-75.4,231.4-75.7,232.7s-5.8,26-6.2,27.8s-2,37.2-3.5,40.2
	s3.5,48.8,3.5,51.8s10.5,75.5,10.5,75.5l13.2,82.8l13.5,84c0,0,14.8,86,15.2,88.5s11.2,75.2,11.2,75.2s9.2,60.5,9.2,62.8
	s14.5,77.2,15.8,80.5s27.2,105,27.2,105s7.2,19.5,8,21.5s6.6,19.8,6.6,19.8c9.3,28.7,53.3,116.7,54.3,119.3
	c1,2.7,37.3,62.7,37.3,62.7c20.3,34.7,65.3,64,71.7,68c6.3,4,34.3,15.3,38.7,16s24.3,0.3,37-0.7s55.7-5.3,55.7-5.3s22.7-8,24.7-10
	s11.8-23.3,12.3-28.6s5.5-14.8,5.8-17.2s0-3,1-8.5s3.2-9.8,5-11.5s7.2-7,9.5-10s5.5-5.5,7.2-9.2s3.5-6,5.5-11.2s8-14.5,8.8-16
	s6.8-24.5,6.8-24.5l-1.2-1.5c0,0-0.8-1.2-2-3s-1.2-2.2-1.8-5.5s10.5-38.5,13.5-45.8s4.8-46.8,5.5-52.5s8.5-83,8.8-86s2.5-59,2.5-59
	l2.8-55.5c0,0,3-70,3-72.5s3.2-70.2,2.8-75s-0.2-24.8-0.2-24.8s-2.2-2-2.8-2.8s-2.2-5.5-3.2-9.2s-7-36.8-7.5-38.8s-7.8-39-9.2-43.5
	s-5.5-9.5-6.5-10.5s-0.5-1-0.5-2s1.5-2,2.2-4.2s-0.5-3.5-1-4.8s-1.2-3-2.2-4.5s-0.8-1.8-1-3.5s1-2.5,1.2-3.8s-0.5-5.2-1.5-9
	s-3.2-14.5-7-22.8s-16-51.5-18-60.2s-12.5-67.5-12.8-71.5s-4.2-76.8-4.8-83.8s0.8-63.2,1.2-71s14-69.8,14.8-74s12.2-46.2,13.2-50
	s11.2-43.2,11.2-43.2l23.7-158.3c0,0-0.8-32.5-0.7-35c0.2-2.5-0.3-53-0.2-57.5s2.7-47.3,2.7-47.8s0.8-20.2,0.8-23.7s5.2-43,5.5-43.8
	s5.7-34,6.5-36.5s2.8-24.2,3.2-26.8c0.3-2.7,3.7-32.5,4.2-35.3s3-20.5,3.3-23.8c0.3-3.3,6.7-35.3,6.8-36.2c0.2-0.8,3-18.2,3.7-21.3
	c0.7-3.2,8.3-32.7,9-35.7s13.8-39.5,15-42.5s7.2-11.8,7-12.5C2684,1643.7,2683.7,1643.2,2683.3,1642.7z M2120.6,2552.7
	c-16.6,1.1-30.1-14.5-30.1-32.3s13.5-32.3,30.1-32.3c9.4,0,17.8,4.6,23.3,11.9l-0.1,0c0,0,11.2,13.5,4.9,30.8l0.3,0
	C2145,2543.2,2133.8,2551.8,2120.6,2552.7z M2382.3,1680.7c-0.8,0.7-0.2,1-1.5,1.3s-2.8,0.8-4,0.5s-2,0.5-3.3-0.7
	c-1.3-1.2-2.3-2-4.7-3.5c-2.3-1.5-12-6.7-13.3-7.7s-6.3-4-7.2-4.2c-0.8-0.2-0.7,0-3.3-0.7c-2.7-0.7-3.7-0.7-5.3-1.2
	c-1.7-0.5-6-5.2,0-9.3c0,0-0.5-0.8,1.3-1s3.5,0.5,3.5,0.5s1.5,0.3,2,1s4,4,5.2,4.7c1.2,0.7,8,2.2,9,3c1,0.8,10,4.8,12.2,6.2
	c2.2,1.3,7.3,3.3,8.7,4.7c1.3,1.3,1.2,1.3,1.3,2.8C2383,1678.7,2383.2,1680,2382.3,1680.7z"/>
<path id="arm-right" class="st3" d="M1662,3367c-2.7-6.7-23.7-83-25-85s-4.7-26.3-5.7-29.3s-2.7-14.3-3-17s-11-113.7-11.3-115.3
	c-0.3-1.7-9.3-67.7-9.3-69.3s-3.3-27-3.3-30s-8-58.7-8.3-75.7s-2.3-40.3-1.7-48c0.7-7.7-3.7-91.7-3.7-91.7s-8-191-8-204
	s-3.3-178.7-3.3-178.7l-0.5-19.3c0,0,0.5-35.8,0.8-37.2c0.3-1.3,1.2-19.8,1.3-20.8s7.3-26.2,8-28.2s3.7-12.8,4-13.5
	s10.2-24.3,9.7-26.8s-33.3-198.8-33.3-208.2c0-2.6-0.3-11-0.9-22c-0.4-16-1.5-51.9-2.3-57.3c-0.4-2.8-1.2-10.3-2.1-18.3
	c-0.3-3.9-0.5-7-0.8-9c-0.2-1.6-0.5-3.8-0.9-6.4c-0.6-5.6-1.1-9.8-1.3-10.3c-0.4-1.2-2.7-14.4-5.4-25.1c-4.2-20.9-8.6-41.4-8.8-42.3
	c-0.2-1.2-7.2-32.8-11.4-51.2c-2.5-12.6-4.6-23.6-6-30.5c-5-25.5-20.5-69.5-23.5-78s-27.5-51.5-28.5-53.5s-9.5-15-9.5-15
	s-9.5,1-21.5,6.5s-19,27.5-19,29s1,30.5,1,36s-2,29-2.5,31s-8,24-8.5,26.5s-6.5,15-7.5,17.5s-20,81.5-22,85s-15.5,75.5-15.5,77
	s-1.5,17.5-4.5,27s-15,94.5-16,98.5s-8,73-8,73s-3,75.5-4,79.5s-7,39-7.5,42s-3.5,69.5-3.5,69.5v278.5c0,0,1.5,229,1,232s-1,47,0,50
	s18.5,159.5,19,170s7.5,60.5,7.5,60.5l4.2,32.5l3.2,42.2l2.2,19.2l17.1,186.3c0,0,0.7,29.7,0.7,35.3c0,5.7,0.8,5.3,2.5,9.8
	s2.5,3.5,3,4l0.5-2.6l-0.1,3.6c0,0,5.3-4.3,7.7-6.7c2.3-2.3,26-19.3,27.3-21s6.3-3,9.7-3.7c3.3-0.7,83.3-18.3,90-19
	s107.3-21.3,110.3-22.7c3-1.3,21-3,24.3-3.3s6.7-1.7,8.3-4.3C1669.3,3386.3,1664.7,3373.7,1662,3367z"/>
<path id="collar-right" class="st2" d="M1895.4,1442.7c0,0-7,3.2-10.5,7.5s-13.8,20.5-15.5,25.8s-5,10.2-8.5,14.5s-29,24.2-31.5,26
	s-26.8,15.2-31,19s-23,18-25.8,21s-7.2,4.5-10.2,9.8s-13,14-13.2,17.8s-1.5,5.2,0.2,6s9.2,3,12,3.5s20.2,3,24.5,5s20.5,8,20.5,8
	s52.2-41.2,53.2-42s47-39.2,47-39.2s-5.2-20.2-5.8-21.2S1888.2,1458.4,1895.4,1442.7z"/>
<path id="lapel-right" class="st3" d="M1905.4,1521.2c0,0-3.5-1.8-7.5,0.2s-31,30.5-34,32.8s-30,26-35.2,29.2s-25.8,19-28.5,21.2
	s-24,12.8-27,14.8s-21.2,12.2-25.2,14.5s-14.8,7-17.5,10.5s-5,2.5-3,5.8s26,65.8,26,65.8s47.8,118.5,49,120.8s20.8,49.2,21.5,50.8
	s29,62.2,29.2,63s25,53.2,25.5,54s36.5,71.6,36.7,72.3s21,40.8,21.5,41.3s24.5,48,26.8,52.3s22.7,40,24.3,44s28.7,47,30,49
	s36.7,53.3,36.7,53.3s36.3,54.3,37.3,56s12.3,18,12.3,18l10-31.3l-4.7-14l-25-91.7l-21.7-86l-23.7-88.7l-40.3-148l-19.7-91.7
	l-23-109l-37.3-154.7L1905.4,1521.2z"/>
<path id="collar-left" class="st4" d="M2256.9,1449.7c0,0,11.8,11.2,13.8,14.5c0,0,21.2,39.2,23,41.8s15.2,14.5,18.8,16.8
	s40,19.8,49.5,25.5s35.8,26.8,39,29.2s7.5,6.8,7.5,6.8s-24.8,10.5-26.8,11.2s-12.2,4.8-12.2,4.8s-50.8-20-64.5-26.5
	s-41.8-21.8-45-23.5s-11.8-6-11.8-6l2.7-9.7c0,0,7-40.8,7.3-43.5s1.8-14.8,2-16.7c0.2-1.8,1.5-8.3,1.2-9.8s-2.8-7.2-3.7-8.8
	C2256.8,1454,2256.9,1449.7,2256.9,1449.7z"/>
<path id="arm-left" class="st2" d="M2682,1645.7c0,0,3-3,4.3-3s6.7,1,6.7,1s3.9,2.2,7.2,4.9s6.2,4.1,7.2,6s7.5,10.9,9.2,16
	s9.1,30.2,9.5,31.5s8.9,27.4,8.9,27.4s54.6,163.9,56,170.6s10.7,48,13.3,58c2.7,10,27.3,148,31.3,160.7s12,74.7,14.7,83.3
	c2.7,8.7,22,136,22,148.7s10.7,111.3,13.3,122.7c2.7,11.3,8.7,121.3,10,136s0,142.7,0.7,155.3c0.7,12.7-5.3,105.3-5.3,117.3
	s-1.3,34-1.3,41.7s-1.3,65.7-1,69s-0.3,87.7-0.3,92.7s-1.3,60.3-1.7,65.7c-0.3,5.3-1,75.7-2.7,82.3c-1.7,6.7-6.7,70.3-6.3,74.3
	c0.3,4-1.7,70.7-1.7,73.7s-0.7,18-1.3,21.3c-0.7,3.3-5,15.7-8,21s-5,7-7,9s-2.3,3.3-4.3,3.3s-3.3,2-4.7-3c-1.3-5-2.7-23.3-3-27
	s-0.3-7.7-0.3-7.7s-103-16.7-108.7-17.7s-124-13-131.7-11.7c-1-0.7-8,0.3-10,1.7c-2,1.3-3,2.3-4,1.7c-1-0.7-4.7-0.7-3.7-2.7
	s1.7-8.3,1.7-8.3s9.7-37.7,10.3-39.3c0.7-1.7,6.7-43,8.3-60.7c1.7-17.7,8.3-115.7,9.7-133.3c1.3-17.7,6.3-123.7,6.3-126.7
	s0.3-64,0.7-66.3c0.3-2.3,2-62.3,2-62.3l2.7-102l2-123c0,0,0.7-90.7,0.7-92.3c0-1.7-2.7-41.7-3-46.3c-0.3-4.7-1-38.7-1-38.7
	s-0.7-47.3-0.7-50s-8.7-41.7-12.3-51.7c-3.7-10-20-70.7-19.3-93l-6.7-6.5l-0.5-21.5l9.5-129l8.5-175.5c0,0,24-252,32.5-265.5
	S2682,1645.7,2682,1645.7z"/>
<path id="lapel-left" class="st5" d="M2443.9,1638.2c-1.2-2-3.5-3-7-6.5s-20.8-12-23.8-13.8s-38.2-21-38.2-21s-27.8-13.5-52.5-27.2
	c-24.7-13.7-72-31.5-72-31.5s-0.5,1.5-1.8,4.5s-6.2,55.8-6.2,55.8s-4.2,61-4.2,62.5s-14,107.2-14,107.2S2206,1879,2206,1880.4
	s-20.2,113.2-20.2,113.2l-18,90.8l-14.8,66.2l-9,40.9l-0.2,0.4l0,0.6l-1.6,6.6l0.1,2.1c-0.1-0.3-0.1-0.5-0.1-0.7c0-0.4,0-0.9,0-1.4
	l-4.3,19.4c0,0-23.5,111.2-24,112s-22.5,92.8-23.5,96.5s-7,42.2-7,42.2s4.8-8,6.5-11s19-51.2,21-55.8s29.5-81.5,32-88.8
	s11.2-17.8,15.2-25.8s44-75,46-79s83-175.8,84-178s26-63.2,26-63.2l19.5-48.5c0,0,36.8-83.8,37.2-85c0.4-1.2,34.2-76.8,35.8-80.2
	s18.5-38.8,20.2-46.8s18.5-61.8,18.5-63.8S2445.2,1640.2,2443.9,1638.2z M2382.3,1680.7c-0.8,0.7-0.2,1-1.5,1.3s-2.8,0.8-4,0.5
	s-2,0.5-3.3-0.7c-1.3-1.2-2.3-2-4.7-3.5c-2.3-1.5-12-6.7-13.3-7.7s-6.3-4-7.2-4.2c-0.8-0.2-0.7,0-3.3-0.7c-2.7-0.7-3.7-0.7-5.3-1.2
	c-1.7-0.5-6-5.2,0-9.3c0,0-0.5-0.8,1.3-1s3.5,0.5,3.5,0.5s1.5,0.3,2,1s4,4,5.2,4.7c1.2,0.7,8,2.2,9,3c1,0.8,10,4.8,12.2,6.2
	c2.2,1.3,7.3,3.3,8.7,4.7c1.3,1.3,1.2,1.3,1.3,2.8C2383,1678.7,2383.2,1680,2382.3,1680.7z"/>
</svg>
