<?xml version="1.0" encoding="utf-8"?>
<!-- Generator: Adobe Illustrator 21.1.0, SVG Export Plug-In . SVG Version: 6.00 Build 0)  -->
<svg version="1.1" id="レイヤー_1" xmlns="http://www.w3.org/2000/svg" xmlns:xlink="http://www.w3.org/1999/xlink" x="0px"
	 y="0px" viewBox="0 0 4160 6240" style="enable-background:new 0 0 4160 6240;" xml:space="preserve">
<pattern id="normal" patternUnits="userSpaceOnUse" width="270" height="270" patternTransform="">
		<image image-rendering="optimizeQuality" preserveAspectRatio="xMidYMid meet" xlink:href="/images/simulator/default/default_tex.jpg" x="0" y="0" width="270" height="270" style="-ms-interpolation-mode: bicubic;" />
  </pattern>
  <pattern id="left" patternTransform="rotate(23)" patternUnits="userSpaceOnUse" width="270" height="270">
		<image image-rendering="optimizeQuality" preserveAspectRatio="xMidYMid meet" xlink:href="/images/simulator/default/default_tex.jpg" x="0" y="0" width="270" height="270" style="-ms-interpolation-mode: bicubic;" />
  </pattern>
  <pattern id="right" patternTransform="rotate(-23)" patternUnits="userSpaceOnUse" width="270" height="270">
		<image image-rendering="optimizeQuality" preserveAspectRatio="xMidYMid meet" xlink:href="/images/simulator/default/default_tex.jpg" x="0" y="0" width="270" height="270" style="-ms-interpolation-mode: bicubic;" />
  </pattern>
<style type="text/css">
	.normal{fill:url(#normal);}
	.left{fill:url(#left);}
	.right{fill:url(#right);}

</style>
<path id="pants" class="normal" d="M2523,2503l-58,285.5c0,0,1.2,3.8,1.2,5.8s-3.5,19.5-3.5,19.5s-10,40.8-13,55c0,0-5.2,27.2-5.8,33.2
	s-6,24.5-6,27.5s-2,12-2.5,14.5s-0.5,5-0.5,5s2.5,1,5,1.5s10,1,14.5-0.5s10-3.5,14-6s13.5-10,13.5-10s-11,24.5-13,28.5
	s-7,18.5-7.5,22s-2.5,9-3,11s-14.5,24-15,25.5s-26,37-14,57.5c0,0,10.5,12.5,22,4.5c0,0,8.5-6,9-8s1-5,1-5l19-9.5l10-2l10.5,0.5
	l-26,162c0,0-33,227-34,282.5l-28.5,290l-18.5,169l-17.5,184.5l-21.5,165.5c0,0-30,264-31,322c0,0-13,268-13,271.5s-5,26-21,33.5
	l-66,26l-138.5-56.5l-1.5-7l11.5-186l8.5-133c0,0,11-282.5,10.5-298.5s2.5-208.5,2.5-208.5s-9-209.5-9-215.5s-8-221.5-8-221.5
	s-4-216-5-230.5s-6.5-183-7-185.5s-5.5-100.5-5.5-100.5s-8.5-82-10-87.5s-4.5-14-4.5-14s-3,3.5-5,6s-4,4-5.5,8s-3.5,17.5-4.5,25.5
	s-14,63.5-16,77s-12,124-12.5,127s-8.5,74-8.5,101.5c0,0-0.5,177.5-1.5,191.5s0,366.5,0,368.5s-6.5,312.5-6.5,314
	s-2.5,204.5-2.5,204.5l-3,156l1,286.5c0,0,0,6-0.5,7.5s-20.5,13.5-22.5,14.5s-8,3.5-9.5,5s-8,2.5-11.5,3.5s-21.5,6.5-25,8
	s-23.5,6-35,9.5s-29.5,10.5-29.5,10.5s-20.5-2.5-29.5-5s-37.5-6-46.5-12s-39-22.5-37-51V4682l-7-214.5c0,0-4-102-4.5-109.5
	s-9-187.5-11-199.5s-21.5-186.5-21.5-194s-22-183-23-192s-34.5-305-34.5-307S1625,3153,1625,3146.3s-2.7-39.3-2.7-39.3l0.5-3.1
	c0,0,11.5,11.2,13,12.7s9.6,10.2,13.9,9.5s13.7-6,14-8.2s0.8-3.6,0.7-5c-0.2-1.4-0.8-5.8-0.9-6.2c-0.2-0.3-6.8-15.9-8.5-17.9
	s-22.7-26.1-24.3-26.8c-1.7-0.7-8-6.7-8-6.7s-2-3-2-4.3s1-0.3-1-5.7c-2-5.3-18.3-44-20-47.7s-4-13-4-13s-0.7-5.3-0.7-6.7
	s-5.7-7.7-5.7-10.3c0-2.7-1.7-16.3-1.7-18s-8.3-47.7-8.3-47.7l-4-25.7l5.3-3.3c0,0,6,51.3,8.3,52.7c2.3,1.3,16.7,15.7,18.3,24
	c1.7,8.3,14,54,16,62.7s36.3,61.7,40.3,70s10.7,15.7,14,14.7s7.3-5.3,8.7-8.7c1.3-3.3,1.3-5,1.3-8.3s-7.3-31-13-38.7
	s-24-38.7-24-38.7l-4-37l-0.3-5.7c0,0,21.7,9.3,22.7,9.3s0-44,0-44l-2.7-119.3l-7.3-304.7L2523,2503z"/>
<path id="body-left" class="normal" d="M2521.5,1107.5c-4-2-90.2-29.8-90.2-29.8s-103-26.3-112.7-30s-18.8-10.8-18.8-10.8
	c-1.8-0.8-23.5-4.7-23.5-4.7l-46-23.8l-3.3,34.7l-26,130c0,0-63.3,254-68.7,264c-5.3,10-58.8,218.5-59.8,220.5s4,77,4,77
	s11.5,61,10.5,81.5s14.5,125.5,14.5,125.5l9,170.5l5,97.5l-13.5,114c0,0-17,170-17.5,172S2065,2580,2065,2580c3,20,51,96,51,96
	c17.5,31.5,69,52,69,52c23.5,13.5,81.5,22,92,23s72-9,77.5-10s107.5-25.5,107.5-25.5l22.5-16.5c0,0,22-189.5,25.5-203
	s-7.5-146.5-8-148s-5.5-11-11-23.5s-16-60-17.5-64s-1.5-10-1.5-10s4,5,5.5,7s1.5,0.5,3.5-1s2.5-4.5,2.5-6.5s-3.5-18.5-4.5-22.5
	s-11-36.5-11.5-38s-12-43-14.5-50.5s-3.5-9.5-4-14s-3-19-3-21c0-1.4-3-9.3-4.7-13.8c0.2,0.3,0-0.6-1.3-5.2c-3-10.5-11-47-11-47
	c-2-13.5,2.5-43,3-46.5s11.5-104.5,11.5-104.5c2-30.5,17-127,19-138.5s49.5-122,50-125.5s28-160,30-172s3-203,3-208.5
	s0.5-121,0.5-121S2525.5,1109.5,2521.5,1107.5z M2270,1172.8l-4.8,4.5c0,0-6.8-4.8-10.2-7s-18-11.8-22.8-15.2s-8.2-4.5-9.5-5.2
	s-3-2.2-3-2.2l0.8-2l8.5-7.5c0,0,12,9.2,14.2,11.2s18.2,12.8,19.5,13.8s5.2,3,5.8,3.8s2,1.8,2,2.5S2270,1172.8,2270,1172.8z"/>
<path id="collar-left" class="left" d="M2191,917c0,0,2,50.7,0,60s-16.7,97.3-16.7,97.3s62.7,28.7,64,31.3c1.3,2.7,24.2,5.3,24.2,5.3
	s16,1,23-0.5s19,0,22-1.5s11.5-7,11.5-7s-8.5-9-10-12.5s-6.2-12.2-7.5-19.2s-7.5-23.5-20.8-35c0,0-25.5-22.5-29.2-26.5
	s-23.8-27.2-38.8-55.2L2191,917z"/>
<path id="body-right" class="normal" d="M2129.7,2236.3c-0.3-10.7-0.7-109.7-0.7-109.7s1-60.3-2-75.7c-3-15.4-5.3-62.3-5.3-62.3l-4-52
	c0,0-4.7-46-6-49.3c-1.3-3.3-12.7-43-12.7-43l-18-87c0,0-25.7-98-25.7-99.7s-37-156.7-37-156.7l-27.3-74.3l-90.7-369.7l-42.7-20
	l-48.7,11c0,0-3.3,2.3-6.7,2.7c-3.3,0.3-22.3,3.7-25.7,4.3c-3.3,0.7-82.3,22-83.3,22.3s-84.3,27-88.3,27.7c-4,0.7-31.3,10-34,11.7
	s-6.3,5.3-7,7s-4.7,16-4.7,16s8.3,81.7,9,85.3c0.7,3.6,0.7,161.3,0.7,161.3s2,86,3.7,90.3c1.7,4.3,20.7,115.7,25.3,127.3
	c4.7,11.7,43.7,119.3,50.7,131.3s36.3,73.7,36.3,73.7s7,58,8.7,68.7c1.7,10.7,6.3,70.3,6.7,73c0.3,2.7,6,84,5.7,89.7s0.3,7-1.7,13.7
	c-2,6.7-13.7,59.3-14.3,65.3c-0.7,6-9,29.3-10,34s-6,23.3-8,28.7s-20,57.7-21,63.7s-1.7,12.3-1.7,14.7c0,2.3-1,3.3,1,5.3s1.7,2,4,3
	s6.3,1,6.3,1s-2.3,4-3.7,10.3c-1.3,6.3-3,20.3-4.7,28s0,60.3,0,60.3l-5.3,72l3.7,216l14.7,66.7c0,0,40,10,51.7,12.3s55.3,8,60.3,9
	s36,8.3,44.3,8.7c8.3,0.3,51.7-0.3,60.3-0.3s27-1,34.7-2.7s12-4,16-6s26.7-13.3,30.3-14.7c3.7-1.3,33.3-28.7,39-33.3
	s48-68.3,48-68.3l13-27.3c0,0,16.3-44,17-46s21-75,22.7-85.3s12.7-68.3,14-82.3s10-103.3,10-103.3S2130,2247,2129.7,2236.3z
	 M2065.1,1903.2c15.7,0,28.4,14.5,28.4,32.5c0,17.9-12.7,32.5-28.4,32.5c-10,0-18.7-5.9-23.8-14.8c-5.8-12.4-4.6-23.1-2.5-29.8
	C2043,1911.6,2053.2,1903.2,2065.1,1903.2z M2069,2236c-11.2,0-20.9-7.1-25.9-17.5c-3.6-12.5-3.2-21.5-2-27.1
	c4-13.1,15-22.5,27.9-22.5c16.3,0,29.5,15,29.5,33.5S2085.3,2236,2069,2236z"/>
<path id="collar-right" class="right" d="M1924.2,913.8l-47.2,65.5c0,0-42.5,49.8-45.8,54.2s-1.2,4.5-6.2,7.8s-12,2.2-14.2,5.8
	s-8.5,17.8-9.2,22.5s-5.8,50.5-6,53s-0.5,3.2-0.5,3.2s24-6,30-6s21.2,2.2,22.8,3.2s3.8,4.8,17-3.8s69.5-47.8,69.5-47.8
	S1923,994.8,1923,989s-0.2-61.2,0.8-67.2L1924.2,913.8"/>
<path id="lapel-right" class="right" d="M1933.2,1065.8c0,0-8.5,0-14.2,3.5s-55.5,39-60.2,42.5s-48,33-49.5,34s-12.5,8.5-12.5,8.5
	s-3.5,15.5-2,21.8s12.5,64.2,18.5,76.5s26.8,69.8,26.8,69.8l35.5,88.2l69.5,151.2c0,0,17.3,42,24.7,51.3
	c7.3,9.3,38.7,68.3,40.7,72.3S2071,1807,2073,1811s26.7,68,27.7,72.3s16.3,47.2,16.3,49.7s-6.5-54-7-58.5s-25.5-148-26.5-153.5
	s-14-48-17.5-59s-8.8-39-10.2-45.5s-5.8-32.8-6.5-37.5s-2.5-15.8-3.8-18.5s-16.5-52.2-17.2-55.5s-7.2-32.5-7.5-38.5
	s-28.8-126.2-29.5-127.8S1933.2,1065.8,1933.2,1065.8z"/>
<path id="arm-left" class="normal" d="M2545,1119c0,0,17-3,20,1s18.5,34.5,24.5,47s40.5,97.5,48.5,125.5s38,134,40,149.5s8,41,8.5,51
	s7.5,207,7.5,214.5s9,244,9,244s7,186,7,189.5s4.5,161.5,4.5,165s4,118,4,120s4,137,3.5,142s-3.5,110-3.5,119.5s2,84,2,93
	s-3.5,26.5-6,29s-4,3.5-4,3.5l-4-26.5l-12,8l-2.5-12.5c0,0-44-7.5-60.5-9.5s-86-3.5-101-2.5s-48.5,7-58.5,11s-7,7.5-7,7.5l-3-12
	c0,0,4-79,4.5-90s16.5-82.5,17-97.5s7-99.5,8.5-109s5-54.5,5-60s-3-37-2.5-43s2.5-37,3-40s2-9,1-31s-10-40.5-9.5-50.5
	s-4-70.5-2.5-80s2-109.5,2-123.5s-1.5-142.5-2.5-154s-5.5-67.5-6-78s-5-54-16.5-78c0,0,14.5-73,16.5-80.5s33-153.5,33-153.5
	s17.5-78.5,18-86.5s3-85,3.5-93.5s4.5-187,4.5-190.5S2545,1119,2545,1119z"/>
<path id="arm-right" class="normal" d="M1567,1124.3c0,0,2,5.7,4.3,10s6.3,21.3,8,32.3s5.7,45.3,7.7,52.3s1.3,39.3,1.3,39.3l-0.3,89
	c0,0,0,83.7,0.7,87.3c0.7,3.7,0.3,7.3,5,17.7c0,0,5.3,13.7,7,20.3c1.7,6.7,16.3,74.7,16.7,76c0.3,1.3,17.3,64.7,17.3,67
	s34,131.3,34,131.3s12,48.7,13.3,51.7s3,14.7,2.7,17.3c-0.3,2.7-4.3,10.3-5.3,13.3s-23,62-24.3,67s-4.7,11-4.7,16
	s-3.7,43.7-3.7,44.7s-6.7,79-8,101.7c0,0,2.7,104.7,2.3,112c-0.3,7.3,1.3,90.3,1.3,95.3s-3,19.3-1,23s4.7,13.3,5.7,18
	s5,36.7,6.7,43.3c1.7,6.7,3,50.7,3,53.7s1.7,91.3,1.7,91.3s2.7,57.7,2.7,60.3c0,2.7,2,75.7,2.3,78.3c0.3,2.7,2.7,73.7,3,75.3
	c0.3,1.7,2,9,3,12.3s2.3,11.3,3.3,17.3s4.7,37,4.3,40s-5,11-6,13.3s-1.7,5.3-1.7,3.7s4-10.3-0.3-13s-18.7-9-23-9.7s-14-4-26-6
	s-34.7-0.3-49.3-0.7c-14.7-0.3-47.3,4.3-61,5.7c-13.7,1.3-50.3,5.3-54.7,6.7s-10.7,4.3-11.3,6c-0.7,1.7-2,7.3-2,11s0,5,0,5
	s-1.3-3.7-3.3-1.7s-3.3,3.7-5.3,9s-2,5.3-2,5.3s-3-1.3-5.3-5.7c-2.3-4.3-6-11.7-5.7-17.3c0.3-5.7,2-77,3-87s-1.3-57.7-1.7-64
	c-0.3-6.3-3.7-42-1.7-53.7s2.7-34.7,3.7-48.3c1-13.7-3.3-114-3.3-114l-2.7-96c0,0-2-156.7-2.3-163.3c-0.3-6.7-2-119.7-2.3-129
	s-0.7-128.3-0.7-131.3s2-58.7,2-66.7s4-97.7,4-104s7-125,7.7-130.7s6.3-79,6.7-86.7c0.3-7.7,9.3-59.7,10.3-69.7s14-97.3,15.7-103.7
	c1.7-6.3,19-75.7,20-79s13.7-42.3,19.3-53c0,0,35.3-66,39-70.7C1540.3,1135.3,1547,1117.7,1567,1124.3z"/>
<path id="lapel-left" class="left" d="M2319,1141.5c-1.5-4.2-5.7-6.2-7.3-7.5c-1.7-1.3-14.8-7.5-17.3-8.3c-2.5-0.8-38.3-17-47.3-22.5
	s-47.3-29-51.3-31.7s-12-4.7-15.3-5.2s-5.7,1.2-5.7,1.2s-14.9,76-15.2,77s-12.8,72-12.8,73.2c0,1.2-11.5,67.2-11.8,68.8
	s-20.5,97.2-20.8,98s-21.5,110.2-23.2,117.2s-7.6,28.2-8.6,30.8s-6,14.5-6.4,17.5s0.7,18.7,1,21.3c0.3,2.7-5.7,25.3-6.3,28.3
	c-0.7,3-7.7,31.3-7.7,31.3l-10.3,12l25,83l38-73.3c0,0,20-39.7,22-43.3c2-3.7,31.7-67.3,31.7-67.3s20.3-50.3,21-51.7
	c0.7-1.3,26.7-62,27.3-63.7c0.7-1.7,24-58.7,24.7-60s26.7-71,28-75.3c1.3-4.3,20.7-58.3,23.7-66.3s25.8-73.3,25.8-73.3
	C2321.5,1146.5,2320.5,1145.7,2319,1141.5z"/>
</svg>
