<?xml version="1.0" encoding="utf-8"?>
<!-- Generator: Adobe Illustrator 21.1.0, SVG Export Plug-In . SVG Version: 6.00 Build 0)  -->
<svg version="1.1" id="Layar1" xmlns="http://www.w3.org/2000/svg" xmlns:xlink="http://www.w3.org/1999/xlink" x="0px" y="0px"
	 viewBox="0 0 4160 6240" style="enable-background:new 0 0 4160 6240;" xml:space="preserve">
<style type="text/css">
	.st0{fill:#939090;}
	.st1{fill:#AAAAAA;}
	.st2{fill:#707070;}
	.st3{fill:#E5E5E5;}
	.st4{fill:#CCCCCC;}
	.st5{fill:#545454;}
	.st6{fill:#7F7F7F;}
</style>
<g id="leg">
	<path class="st0" d="M1579,3701c0,0,7,5.3,16,4.3s22.3-4.3,23.7-17.3c0,0,10.3-0.3,18.3-2.7c8-2.3,18.7-10,19-24s0-22,0-22
		s7,11,28.7,17.3s27.3,7,25.3-9s-2.7-48-2.7-66.3s0.6-32.9-3.2-39.3v-321h838.5v280.5v8.8c0,0-1.9,13.3-5.2,18s-5.3,16.3-5.3,17.3
		s0.7,15.3,1,24s-2,36-3.7,43.3s-2.7,15.3-2.3,16.3s6.3,4,11.7,4.7c5.3,0.7,21.7,0.3,28-5c0,0,23.7,22.3,29.3,27.7
		c5.7,5.3,36,32.3,38.3,34.3s12.7,7.3,12.7,7.3s-8.7-4.3-9.7-2.3s-0.7,22.7-0.7,27.3c0,0-4.7,281.7-5.7,326.7s4,227,3,277
		s-9,298-10,348s-11,257-14,325s-7,163-8,216s-18,338-19,369s-9,57-9,57l-29,32c0,0-9,2-12,3s-17,7-23,8s-49,13-49,13s-4,0-25-3
		s-93-19-101-23s-23-7-25-28c2-5-4-260-5-309s-9-326-12-379s-31-355-40-455s-46-551-48-579s-32-235-40-290c0,0-18-125-19-138
		s-2-22-14-23s-25,0-25,0l-4,14c0,0-29,130-50,268s-58,523-65,613s-50,614-49,646s-21,484-23,507s-15,94-16,104s-8,23-8,23l-2,6
		c0,0-23,8-27,12s-11,3-20,3s-44-4-59-3s-37,4-49,3s-35-12-45-19s-25-18-28-18c0,0-17-126-18-178s-9-388-10-479s-16-451-19-532
		s-13-322-19-419s-15-309-16-315S1579,3701,1579,3701"/>
</g>
<g id="body-right_1_">
	<path class="st0" d="M2093.5,2793.8"/>
	<path class="st1" d="M2140.7,3186.9c0-11.3-40.7-659.3-40.7-659.3s10-91.3,10.7-94s8-113.3,8-113.3l-385.3-788.7
		c0,0-29.3,10.7-46.7,17.3c-17.3,6.7-117.3,44.7-133.3,50s-99.3,33.3-99.3,33.3l107.3,736.7c4.7-4.7,25.3,62.7,27.3,67.3
		c15.3,32.7,30.7,140,32,197.3s-23.3,188-28.7,216c-5.3,28-23.3,133.3-26,158.7c-2.7,25.3-6.7,17.3-6.7,17.3l13.3,313.3
		c48.7,35.3,89.3,104,89.3,104c16,16.7,2,21.3,2,21.3c4.7,4.7,41.3,79.3,41.3,79.3c36.7,4.7,199.3-0.7,248-5.3
		c48.7-4.7,86-68.7,116-114s60.7-152,66.7-172S2140.7,3198.2,2140.7,3186.9z M2086.8,2810.2c0.2-10.5,1.2-15.2,6.8-16.5l0.2,35.2
		C2093.8,2829,2086.5,2820.8,2086.8,2810.2z"/>
</g>
<path id="body-left" class="st2" d="M2638.3,3317.7V3287l4.7-6.7l2-299.3c-9.3-15.3-20.7-98-23.3-112.7c-2.7-14.7-27.3-90-27.3-90
	c-17.3-68-18-163.3-17.3-226.7c0.7-63.3,12-100,16-112.7s25.3-108.7,25.3-112s4.7-24,4.7-24l72.7-678c-0.7-2.7-59.3-20-152.7-46.7
	s-114-39.3-114-39.3l-18,4.7l-30.7,92.5c3.8,1.7,4.2,3.7,4.2,3.7s9.2,3.8,13,6c3.8,2.2,23,11,24.5,11.3s4.2-0.5,5.2,0.2
	c1,0.7,5.2,4.5,5.2,8s-6,4.2-7.3,4c-1.3-0.2-7.2-1.5-10.5-3.5s-10.5-6.8-13.3-8.5c-2.8-1.7-16.3-9.5-18-10c-1.6-0.5-5.1-0.7-6.2-1
	l-292.3,866.3c-5.3,49.3,5,190.3,8.3,251.7c3.3,61.3,8,188,10,202.7s29.3,244,39.3,307.3s16.7,70.7,22.7,86.7s25.3,56.7,26.7,58.7
	c1.3,2,15.3,24,20.7,35.3c5.3,11.3,20,33.3,20,33.3c45.3,51.3,100,49.3,100,49.3s178.7-0.7,189.3-1.3c10.7-0.7,18-9.3,18-9.3
	l24-63.3l-0.7-24c56.7-105.3,85.3-112.7,85.3-112.7C2640.3,3325.7,2638.3,3317.7,2638.3,3317.7z M2138.8,2464.3
	c0,0,25.5,2.5,27,25.5c0,0,0.1,0.1,0.2,0.2v15c-1.5,3.3-8.5,16.7-25.2,16.3c-19-0.5-30-13.5-31.5-26.5
	C2109.3,2494.8,2106.3,2461.3,2138.8,2464.3z"/>
<g id="arm-right">
	<path class="st3" d="M1452.7,1632c0,0,28.7,67.3,40,101.3s34.7,99.3,36.7,116s8,36,11.3,54.7s10.7,45.3,12.7,60s12.7,96,16.7,122.7
		s5.3,42,5.3,48s-5.3,86.7-5.3,106.7s-6.7,126.7-6.7,126.7s-4,2.7-4.7,10s-8,61.3-9.3,66s-6.7,58-7.3,104.7c-0.7,46.7,0,238,1.3,280
		s4.7,138,9.3,167.3c4.7,29.3,18.7,142,22.7,162.7s12.7,96,10.7,108s-14,18-14,18s-12-18.7-38.7-15.3c-26.7,3.3-126.7,26-152.7,38.7
		s-46,21.3-47.3,23.3s10,23.3,11.3,29.3s6,11.3-2,10s-30-17.3-33.3-18s-4.7-6.7-4-12s-12.7-95.3-13.3-109.3s-10.7-70-11.3-103.3
		c-0.7-33.3-4-70-7.3-106s-16.7-198-16.7-233.3s-7.3-249.3-5.3-283.3s9.3-139.3,8.7-146.7c-0.7-7.3,3.3-64.7,12.7-112
		c9.3-47.3,47.3-210.7,52-230.7s22-112,23.3-126.7s7.3-62.7,10-73.3s34.7-108.7,39.3-124c4.7-15.3,14.7-48,30-53.3
		C1442.7,1633.3,1452.7,1632,1452.7,1632z"/>
</g>
<g id="arm-left">
	<path class="st4" d="M2692.6,1622.7c0,0-16.7,36-20.7,54.7s-31.3,164-34,186.7s-15.3,116.7-16,128s-4,60-3.3,81.3
		s2,152.7,1.3,164.7s-1.3,74.7-1.3,74.7s4.7,3.3,4.7,24.7c0,21.3,10.7,166,12,218.7s11.3,240.7,12,264.7s3.3,98.7,0.7,119.3
		c-2.7,20.7-1.3,76.7-2.7,93.3c-1.3,16.7,0,72,0,94s-0.7,98-1.3,107.3c-0.7,9.3-4.7,20-6,28.7s0,19.3,0,19.3s10.7-9.3,24-8.7
		c13.3,0.7,97.3,1.3,124,6s72,5.3,81.3,7.3s24.7,8,29.3,16.7c4.7,8.7,2,20.7,2,20.7s11.3-12,12.7-14s3.3-3.3,0.7-14
		c-2.7-10.7-8-92.7-4.7-117.3c3.3-24.7,12.7-114.7,16.7-160.7s18.7-206,20-218s2.7-66.7,0-116s-8.7-130.7-18-207.3
		c-9.3-76.7-31.3-218.7-42.7-278c-11.3-59.3-65.3-262-74.7-298.7c-9.3-36.7-51.3-176-54-196.7s-13.3-48.7-20-56s-23.3-22.7-25.3-24
		C2707.3,1622.7,2692.6,1622.7,2692.6,1622.7z"/>
</g>
<g id="collar-right">
	<path class="st0" d="M1755.2,1581.3l-52.4-23.1c0,0-11.1-2.7-3.1-8s24.4-14.7,28.4-17.3s30.7-12,38.2-14.2
		c7.6-2.2,27.1-8.9,60.9-40.9s41.8-42.2,44.4-46.2c2.7-4,11.1-21.8,18.7-22.7c0,0-8.4,27.1,1.8,63.5c10.2,36.4,6.7,27.1,6.7,27.1
		s-16,1.8-26.2,8s-50.2,36-61.7,42.6C1799.2,1556.9,1755.2,1581.3,1755.2,1581.3z"/>
</g>
<g id="lapel-right">
	<path class="st5" d="M1898.7,1499.6c0,0-22.7,2.7-49.8,24.4s-56.4,36.4-56.4,36.4s-53.3,31.5-63.5,37.8
		c-10.2,6.2-41.3,26.2-41.3,26.2s-8,3.1-1.8,19.5s18.2,42.2,22.2,53.8s48.9,108.4,59.5,132.4s65.7,132.4,74.2,151
		s56.4,113.7,80,159.5s36.4,73.3,44,84.4c7.6,11.1,65.3,98.6,84,125.7c18.7,27.1,46.8,61.1,52.1,64.2l17.7-95.7
		c0,0-22.2-71.5-39.1-132.4s-71.1-258.1-75.1-272.8c-4-14.7-56.9-213.7-58.6-224.3c-1.8-10.7-12.9-48.9-15.5-63.5
		c-2.7-14.7-12.4-56.9-16.4-71.5c-4-14.7-10.2-38.6-12-43.5C1900.9,1506.2,1898.7,1499.6,1898.7,1499.6z"/>
</g>
<g id="collar-left">
	<path class="st5" d="M2254.5,1416.5c0,0,8.4,44,5.8,60.9c-2.7,16.9-1.8,20-1.8,20s14.7,0,27.5,8.9c12.9,8.9,86.6,55.5,93.3,60.4
		s20.4,12.4,20.4,12.4s4-4.4,9.3-5.8c5.3-1.3,24-11.1,27.1-12.4s7.1-0.9,2.2-8s-10.7-16-16-18.2s-54.6-23.1-60.4-24.4
		c-5.8-1.3-17.8-6.2-32.9-18.7c-15.1-12.4-55.1-55.1-55.5-56.4S2261.6,1419.6,2254.5,1416.5z"/>
</g>
<g id="lapel-left_1_">
	<g>
		<path class="st6" d="M2083.1,2526.7c0,0.2,0,0.3,0,0.3S2083.1,2526.9,2083.1,2526.7z"/>
		<path class="st6" d="M2484.6,1608.8c0,0-39.5-12.9-43.1-14.2c-3.6-1.3-32.9-10.2-43.5-16c-10.7-5.8-65.3-41.8-69.7-44.9
			s-29.8-17.8-40-26.2c-10.2-8.4-29.8-10.2-29.8-10.2s-1.3,5.3-3.1,12.9s-2.2,34.6-2.2,47.5s-1.3,32-5.8,80.8
			c-4.4,48.9-28.9,186.6-36.9,231.4s-32.4,167.5-39.5,200.3c-7.1,32.9-48.4,231.9-48.4,231.9s-30.2,162.1-34.2,181.7
			c-3.7,18.2-5.1,40-5.3,42.8c0.2-3,2.2-27.5,14.6-38.3c13.3-11.6,35.5-48.9,72.9-113.7c37.3-64.9,96.8-179.9,132.4-248.8
			c35.5-68.9,70.2-170.6,79.1-195c8.9-24.4,70.2-198.1,75.5-213.7c5.3-15.5,32.4-92,34.2-100
			C2493.5,1609.3,2484.6,1608.8,2484.6,1608.8z M2422.2,1667c-1.3-0.2-7.2-1.5-10.5-3.5s-10.5-6.8-13.3-8.5s-16.3-9.5-18-10
			s-5.3-0.7-6.3-1s-3.5-2.3-3-7.8c0,0,2.7-4,6.5-2.3s4.2,3.7,4.2,3.7s9.2,3.8,13,6s23,11,24.5,11.3s4.2-0.5,5.2,0.2s5.2,4.5,5.2,8
			S2423.5,1667.2,2422.2,1667z"/>
	</g>
</g>
</svg>
