<?xml version="1.0" encoding="utf-8"?>
<!-- Generator: Adobe Illustrator 21.1.0, SVG Export Plug-In . SVG Version: 6.00 Build 0)  -->
<svg version="1.1" id="Layar1" xmlns="http://www.w3.org/2000/svg" xmlns:xlink="http://www.w3.org/1999/xlink" x="0px" y="0px"
	 viewBox="0 0 4160 6240" style="enable-background:new 0 0 4160 6240;" xml:space="preserve">
<pattern id="normal" patternUnits="userSpaceOnUse" width="270" height="270" patternTransform="">
		<image image-rendering="optimizeQuality" preserveAspectRatio="xMidYMid meet" xlink:href="/images/simulator/default/default_tex.jpg" x="0" y="0" width="270" height="270" style="-ms-interpolation-mode: bicubic;" />
  </pattern>
  <pattern id="left" patternTransform="rotate(23)" patternUnits="userSpaceOnUse" width="270" height="270">
		<image image-rendering="optimizeQuality" preserveAspectRatio="xMidYMid meet" xlink:href="/images/simulator/default/default_tex.jpg" x="0" y="0" width="270" height="270" style="-ms-interpolation-mode: bicubic;" />
  </pattern>
  <pattern id="right" patternTransform="rotate(-23)" patternUnits="userSpaceOnUse" width="270" height="270">
		<image image-rendering="optimizeQuality" preserveAspectRatio="xMidYMid meet" xlink:href="/images/simulator/default/default_tex.jpg" x="0" y="0" width="270" height="270" style="-ms-interpolation-mode: bicubic;" />
  </pattern>
<style type="text/css">
	.normal{fill:url(#normal);}
	.left{fill:url(#left);}
	.right{fill:url(#right);}

</style>
<path class="normal" d="M1641.3,1636.9c0,0,1,7.7,0.2,10.9c-0.8,3.2-29.5,70.9-29.5,70.9l-34.3,87.7c0,0-56.4,171.2-56.8,173.8
	c-0.6,2.6-27.9,106.3-28.7,108.4s-21.3,99.1-21.5,100.7c0,0-8,54-8.5,57.6s-8,64.3-8.2,69.1c-0.2,4.8-4,60.3-3.7,69.4
	c0.2,9-1,81.9-0.8,85.3c0.2,3.4-3.7,141.7-3.7,145.3s-1.8,124.1-2.2,128.6c-0.2,4.5-1.8,99.1-2.2,105.2c-0.2,6.1-3.2,84.5-3.7,91.7
	s0.6,34.3,0.2,41.7c-0.2,7.4-2.6,105-2.6,107.9s-2.9,119-2.6,122c0.3,2.9-5.6,175.6-5.6,179.1c0,3.4-1.8,120.4-1.8,125.7
	s-2.9,116.4-3.2,119.8c-0.2,3.4-3.7,108.2-3.7,111s0,4.5-0.6,6.4c-0.6,1.8-1.4,1,0,4.8c1.4,3.7,5,8.2,7.7,9.6c0,0,19.7,4.2,23.7,4.8
	c3.8,0.5,98.6,7.1,98.8,7.2c0,0-5.3-1,8,0.6c13.3,1.6,108.7,4.8,109.8,4.8c1,0,52.1,6.9,58.2,8c0,0,74.1,4.2,85.1,4.8
	c10.9,0.6,150.1,3.4,160.2,3.7c0,0,157-0.8,159.4,0.2s92.2-1.6,105.2-0.6l108.7-2.4c0,0,75.5-2.2,80.3-2.6
	c4.8-0.6,121.2-9.6,126.5-9.6s179.6-16.5,184.9-16.5c0,0,58.4-8,62.2-8c3.7,0,11.7,0.6,11.7-2.2c0-2.6-1-44.1-1-50
	c0-5.8-10.6-266.3-10.6-269.4s-4.2-93-4.2-99.9c0-6.9-2.2-131.8-2.2-138.1c0-6.4-8-206.7-8.5-216.3c-0.6-9.6-3.7-203-3.7-213.1
	c0-10.1-2.6-146.7-1-159.4c1.6-12.8-2.6-140.9-2.6-150.4c0-9.6-1.6-126-3.7-136.6c-2.2-10.6-14.3-138.1-18.6-148.8
	c-4.2-10.6-15.9-70.7-23.4-95.7c-7.4-25-55.8-182.8-60.6-191.9s-65.9-160-68.6-164.2c-2.6-4.2-5.3-6.9-5.3-11.7
	c0-4.8-3.7-16.5-3.7-27.1s-3.2-19.7-6.9-26.1s-8.5-14.9-12.2-20.2c-3.7-5.3-9.6-11.2-9.6-11.2s-9.6,8-15.4,10.1
	c-5.8,2.2-26.1,4.2-32.4,5.3c0,0-19.7,1-23.4,2.2c-3.7,1-25.5,2.6-36.1,5.3c-10.6,2.6-45.2,3.7-68,4.2c-22.9,0.6-94.1,0-103.6,0
	c-9.6,0-98.3-0.6-111.6,0c-13.3,0.6-135.5-2.2-140.3-2.2c0,0-72.3-1-79.7-1s-79.7-4.2-87.1-4.8c-7.4-0.6-54.8-2.2-56.8-1.6
	c-2.2,0.6-9,2.6-9,2.6s-2.2-2.2-5.8-2.6c-3.7-0.6-85.1-10.6-90.3-10.6c-5.3,0-54.2-2.6-54.2-2.6L1641.3,1636.9z"/>
</svg>
