<?xml version="1.0" encoding="utf-8"?>
<!-- Generator: Adobe Illustrator 22.1.0, SVG Export Plug-In . SVG Version: 6.00 Build 0)  -->
<svg version="1.1" id="Layar1" xmlns="http://www.w3.org/2000/svg" xmlns:xlink="http://www.w3.org/1999/xlink" x="0px" y="0px"
	 viewBox="0 0 4160 6240" style="enable-background:new 0 0 4160 6240;" xml:space="preserve">
<pattern id="normal" patternUnits="userSpaceOnUse" width="270" height="270" patternTransform="">
		<image image-rendering="optimizeQuality" preserveAspectRatio="xMidYMid meet" xlink:href="/images/simulator/default/default_tex.jpg" x="0" y="0" width="270" height="270" style="-ms-interpolation-mode: bicubic;" />
  </pattern>
  <pattern id="left" patternTransform="rotate(23)" patternUnits="userSpaceOnUse" width="270" height="270">
		<image image-rendering="optimizeQuality" preserveAspectRatio="xMidYMid meet" xlink:href="/images/simulator/default/default_tex.jpg" x="0" y="0" width="270" height="270" style="-ms-interpolation-mode: bicubic;" />
  </pattern>
  <pattern id="right" patternTransform="rotate(-23)" patternUnits="userSpaceOnUse" width="270" height="270">
		<image image-rendering="optimizeQuality" preserveAspectRatio="xMidYMid meet" xlink:href="/images/simulator/default/default_tex.jpg" x="0" y="0" width="270" height="270" style="-ms-interpolation-mode: bicubic;" />
  </pattern>
<style type="text/css">
	.normal{fill:url(#normal);}
	.left{fill:url(#left);}
	.right{fill:url(#right);}

</style>
<path class="normal" d="M1560.7,300.7c0,0,1.3,9.7,0.3,13.7s-37,89-37,89l-43,110c0,0-70.7,214.7-71.3,218c-0.7,3.3-35,133.3-36,136
	s-26.7,124.3-27,126.3c0,0-10,67.7-10.7,72.3s-10,80.7-10.3,86.7s-5,75.7-4.7,87s-1.3,102.7-1,107s-4.7,177.7-4.7,182.3
	s-2.3,155.7-2.7,161.3c-0.3,5.7-2.3,124.3-2.7,132c-0.3,7.7-4,106-4.7,115s0.7,43,0.3,52.3c-0.3,9.3-3.3,131.7-3.3,135.3
	s-3.7,149.3-3.3,153s-7,220.3-7,224.7c0,4.3-2.3,151-2.3,157.7s-3.7,146-4,150.3s-4.7,135.7-4.7,139.3s0,5.7-0.7,8s-1.7,1.3,0,6
	s6.3,10.3,9.7,12c0,0,24.7,5.3,29.7,6c4.8,0.6,123.7,8.9,124,9c0,0-6.7-1.3,10,0.7s136.3,6,137.7,6c1.3,0,65.3,8.7,73,10
	c0,0,93,5.3,106.7,6s188.3,4.3,201,4.7c0,0,197-1,200,0.3s115.7-2,132-0.7l136.3-3c0,0,94.7-2.7,100.7-3.3c6-0.7,152-12,158.7-12
	s225.3-20.7,232-20.7c0,0,73.3-10,78-10s14.7,0.7,14.7-2.7c0-3.3-1.3-55.3-1.3-62.7c0-7.3-13.3-334-13.3-338s-5.3-116.7-5.3-125.3
	c0-8.7-2.7-165.3-2.7-173.3s-10-259.3-10.7-271.3s-4.7-254.7-4.7-267.3c0-12.7-3.3-184-1.3-200s-3.3-176.7-3.3-188.7
	s-2-158-4.7-171.3s-18-173.3-23.3-186.7c-5.3-13.3-20-88.7-29.3-120s-70-229.3-76-240.7s-82.7-200.7-86-206s-6.7-8.7-6.7-14.7
	s-4.7-20.7-4.7-34s-4-24.7-8.7-32.7s-10.7-18.7-15.3-25.3c-4.7-6.7-12-14-12-14s-12,10-19.3,12.7s-32.7,5.3-40.7,6.7
	c0,0-24.7,1.3-29.3,2.7c-4.7,1.3-32,3.3-45.3,6.7c-13.3,3.3-56.7,4.7-85.3,5.3c-28.7,0.7-118,0-130,0s-123.3-0.7-140,0
	s-170-2.7-176-2.7c0,0-90.7-1.3-100-1.3s-100-5.3-109.3-6s-68.7-2.7-71.3-2c-2.7,0.7-11.3,3.3-11.3,3.3s-2.7-2.7-7.3-3.3
	c-4.7-0.7-106.7-13.3-113.3-13.3c-6.7,0-68-3.3-68-3.3L1560.7,300.7z"/>
</svg>
