<?xml version="1.0" encoding="utf-8"?>
<!-- Generator: Adobe Illustrator 21.1.0, SVG Export Plug-In . SVG Version: 6.00 Build 0)  -->
<svg version="1.1" id="Layar-1" xmlns="http://www.w3.org/2000/svg" xmlns:xlink="http://www.w3.org/1999/xlink" x="0px" y="0px"
	 viewBox="0 0 4160 6240" style="enable-background:new 0 0 4160 6240;" xml:space="preserve">
<pattern id="normal" patternUnits="userSpaceOnUse" width="270" height="270" patternTransform="">
		<image image-rendering="optimizeQuality" preserveAspectRatio="xMidYMid meet" xlink:href="/images/simulator/default/default_tex.jpg" x="0" y="0" width="270" height="270" style="-ms-interpolation-mode: bicubic;" />
  </pattern>
  <pattern id="left" patternTransform="rotate(23)" patternUnits="userSpaceOnUse" width="270" height="270">
		<image image-rendering="optimizeQuality" preserveAspectRatio="xMidYMid meet" xlink:href="/images/simulator/default/default_tex.jpg" x="0" y="0" width="270" height="270" style="-ms-interpolation-mode: bicubic;" />
  </pattern>
  <pattern id="right" patternTransform="rotate(-23)" patternUnits="userSpaceOnUse" width="270" height="270">
		<image image-rendering="optimizeQuality" preserveAspectRatio="xMidYMid meet" xlink:href="/images/simulator/default/default_tex.jpg" x="0" y="0" width="270" height="270" style="-ms-interpolation-mode: bicubic;" />
  </pattern>
<style type="text/css">
	.normal{fill:url(#normal);}
	.left{fill:url(#left);}
	.right{fill:url(#right);}

</style>
<g id="arm-right">
	<path class="normal" d="M1312,2409c0,0,17.5,34.9,26.7,71.2c9.2,36.2,22.1,126.7,25.2,160.2c3.2,33.5,17.9,186.8,21.1,211.6
		c3.2,24.8,17.9,171.2,18.8,189.1c0.9,17.9,20.6,217.1,22.1,240.5c1.4,23.4,11.9,96,11,134c-0.9,38.1-11.9,358.9-11.9,358.9
		l-10.1,337.3l-2.8,289.1l4.1,201.5c0,0,6.9,141.8,7.8,157.9s4.1,44.5,2.8,50c-1.4,5.5-5.9,9.2-5.9,9.2s-2.3-9.6-16-8.3
		s-52.3,0.5-165.7,22.5c0,0-115.7,27.6-117.9,28.9c-2.3,1.4-3.7,3.2-3.7,4.6s-6.9,23.9-12.9,28.5c-6,4.6-11,5.5-8.7-5
		c2.3-10.5,3.2-15.1,3.7-39s-0.9-205.6-0.9-205.6s-2.8-124.9-5-181.3c-2.3-56.4-10.5-215.7-13.8-267.1c-3.2-51.4-3.7-99.6-3.2-143.6
		c0.5-44.1,1.4-332.3,1.4-332.3s-0.9-96.9,1.8-144.6c2.7-47.7,14.7-266.2,14.7-266.2s3.7-99.1,10.1-158.3
		c6.4-59.2,26.6-219.8,33.1-250.1c6.5-30.3,63.8-309.3,63.8-309.3s9.2-50.5,12.4-57.4c3.2-6.9,30.7-70.2,38.6-80.8
		c7.8-10.5,14.7-30.7,19.7-34.9s10.5-9.2,16.9-9.2c6.4,0,6.4,0.5,11,0C1304.8,2410.4,1312,2409,1312,2409z"/>
</g>
<g id="body-right">
	<path class="normal" d="M2126.8,4009.9l-39.5-280.8l14.7-166.6l-448.9-1296.5c0,0-31.2,12.9-56,23.4c-24.8,10.5-54.6,25.7-54.6,25.7
		s-70.2,30.3-79.4,33.5s-58.3,23.4-60.1,23.9c-1.8,0.5-50.5,18.8-55.5,22.1c-5,3.2-4.1,5.5-11.9,5.5c-7.8,0-7.8,0-9.6,0.5
		s-13.8,8.3-13.8,8.3l125.8,989.5c0,0,16,26.1,20.2,39s39.5,94.1,47.7,185.9c0,0,10.5,68.4,9.2,129.4c-1.4,61,0,67,0,67
		s-4.1,11.9-12.4,43.6s-27.6,113.3-28,119.3c-0.5,5.9-0.5,12.9-0.5,16.9c0,4.1-0.9,9.2-0.9,11.9s-0.5,5.5,0,9.6
		c0.5,4.1,0.5,4.1,0.5,4.1s-5.9,15.1-9.6,34c-3.7,18.8-13.3,66.1-15.6,81.7c-2.3,15.6-2.8,23-5.5,30.3c-2.8,7.4-6.9,25.7-5.5,32.6
		c1.4,6.9,4.1,13.8,1.8,26.6c-2.3,12.9-9.6,57.4-11,77.6c-1.4,20.2-4.1,95.5-7.8,111.5c-3.7,16-3.7,32.6-8.3,39.9
		c-4.6,7.4-0.7,351.3,0,352c0.7,0.7,5.5,0.9,6.4,4.1c0.9,3.2,7.4,12.9,6.4,28.9s-1.4,24.3-8.3,28.5c-6.9,4.1-9.8,5.5-9.8,5.5
		s27.3,49.1,33.7,63.3c6.4,14.2,15.1,32.2,15.1,32.2s163.4,32.6,199.2,40.4c35.8,7.8,67.5,11.4,79.8,9.2
		c12.4-2.3,63.8-3.7,98.2-27.6s78.9-62.4,113.3-107.9s45.4-58.7,63.8-100c18.4-41.3,58.7-151.9,66.1-176.7
		c7.4-24.8,44.1-228.6,44.1-228.6l22.1-173.5L2126.8,4009.9z M2073.2,4167.3c-23.4,0-42.4-19-42.4-42.4s19-42.4,42.4-42.4
		s42.4,19,42.4,42.4C2115.6,4148.3,2096.7,4167.3,2073.2,4167.3z"/>
</g>
<path id="body-left" class="normal" d="M2838.7,4832.4c-3.5-4.5-1-17.5-0.5-25.6c0.5-8.1-2-15.1-2-15.1l6.6-424.2
	c0,0-20.6-84.9-22.1-99.9s-6-24.1-7.5-33.7c-1.5-9.6,4-18.6,4.5-21.1s-1.5-6.6-1.5-6.6l3-2l0.5-4c0,0-0.5-6.6-1.5-10
	c-1-3.5-12.1-60.3-12.1-68.8c0-8.5-9-50.7-11.5-58.2c-2.5-7.5-9.6-55.7-9.6-55.7s1-5,0.5-8.1c-0.5-3-2.5-7-7-14.5
	c-4.5-7.5-10.5-55.2-10.5-55.2c-19.6-84.4-21.1-221.4-19.1-306.8s25.1-185.3,30.1-206.4c5-21.1,30.1-85.9,30.1-85.9l81.3-949.5
	c-3-5-25.1-10-30.1-10.5c-5-0.5-16-4-46.7-15.1c-30.7-11.1-30.7-13-38.2-16.6c-7.5-3.5-23.1-8.1-34.1-11.5
	c-11.1-3.5-22.1-8.1-32.6-12.1c-10.5-4-19.1-7.5-31.6-10.5c-12.6-3-8.1-3.5-48.2-16.6s-45.2-18.1-71.8-27.1
	c-26.6-9-58.7-24.6-58.7-24.6l-421.8,1389.3c0,0-1,9-3.5,19.1c-2.5,10,2.5,129,4,154.6s24.6,220.4,31.6,275.1
	c7,54.8,20.1,130.1,33.7,214.4c13.6,84.4,48.7,241,48.7,241v1.5c18.1,87.4,74.8,221.4,104.9,281.2c30.1,59.7,73.8,104.9,96.9,130.5
	c23.1,25.6,80.8,59.3,80.8,59.3s22.6,8.1,48.7,11.5c26.1,3.5,71.8-2.5,89.9-6s79.3-13,79.3-13s108.5-16.6,110.9-17.1s4-3.5,6.6-8.1
	c2.5-4.5,15.1-31.6,30.1-63.8s25.6-54.8,25.6-54.8C2858.8,4850.9,2842.2,4836.9,2838.7,4832.4z M2130.9,3733
	c-23.4,0-42.4-19-42.4-42.4s19-42.4,42.4-42.4c16.4,0,30.6,9.3,37.7,22.9h-0.1c0,0,8.9,16,1.7,35.6
	C2163.9,3722.1,2148.7,3733,2130.9,3733z M2530.9,2484.5c-0.8,5.3-1.5,7.3-5.5,6.8s-15.3-7.3-15.3-7.3l-36.9-24.1l-12.8-8.1l0.5-2.5
	c0,0,5.5-8.8,7-10.8c1.5-2,4.7-4,5.3-2.8c0.5,1.3,7,7.3,11.5,9.8c4.5,2.5,37.1,24.1,39.4,26.6S2531.6,2479.2,2530.9,2484.5z"/>
<g id="collar-right">
	<path class="right" d="M1845.5,2115.2c0,0-16.5,61.5-16.5,74.8c0,13.3,1.8,37.7,2.3,46.3c0.5,8.7,1.4,19.3,1.4,19.3l2.3,16.5
		l-144.6,121.2l-18.8-13.8c0,0-35.3-14.7-44.5-20.6c-9.2-5.9-27.1-12.4-27.1-12.4s33.1-54.6,39.9-64.2c6.9-9.6,13.3-18.4,24.3-22.1
		c11-3.7,32.6-13.8,41.3-18.8c8.7-5,44.1-28,50.9-35.8c6.9-7.8,18.4-22.5,40.8-40.8c22.5-18.4,39.9-41.8,42.7-44.1
		C1842.7,2118.5,1845.5,2115.2,1845.5,2115.2z"/>
</g>
<g id="lapel-right">
	<path class="right" d="M1832.6,2255.7c0,0-15.6-0.9-22.5,7.4c-6.9,8.3-112.4,97.3-114.7,98.7c-2.3,1.4-71.2,52.8-88.1,61.5
		c-16.9,8.7-34.4,19.7-34.4,19.7s-9.2,3.2-6.9,15.1c2.3,11.9,32.2,95.5,32.2,95.5s28.5,81.7,47.7,128s70.2,164.3,70.2,164.3
		s23.4,56,39,85.3c15.6,29.4,79.4,152.4,95,182.6c15.6,30.3,102.8,207.4,104.6,210.2c1.8,2.8,27.1,52.8,41.3,78
		c14.2,25.2,87.2,139.6,87.2,139.6l6.9,12.9l20.2-91.8l-42.3-140.9c0,0-86.4-301.4-88.7-314.3c-2.3-12.9-40.3-169.5-47.6-208
		c-7.3-38.5-49.3-266.8-49.3-266.8s-37.2-211.9-40.4-227C1838.7,2290.6,1832.6,2255.7,1832.6,2255.7z"/>
</g>
<g id="レイヤー_18">
	<path class="normal" d="M2345.7,2098.7c0,0,1.8,17.9,3.2,21.5c1.4,3.6,17.9,30.7,18.4,39c0.5,8.3,1.4,9.6-1.8,34.9
		c-3.2,25.2-7.4,52.8-7.4,52.8l147.3,124.3c0,0,10.1-5.9,14.2-8.3c4.1-2.3,54.6-21.5,58.7-23c4.1-1.4,9.6-4.6,9.6-4.6
		s0.5-3.7-1.4-5.9c-1.8-2.3-23-27.6-31.2-36.2c-8.2-8.7-56-59.2-67-65.6c-11-6.4-50.9-38.1-60.1-47.3s-29.4-34-41.3-42.3
		c-11.9-8.3-22.5-20.2-28-25.7C2353.6,2106.9,2345.7,2098.7,2345.7,2098.7L2345.7,2098.7"/>
</g>
<g id="collar-left">
	<path class="left" d="M2345.8,2099.2c0,0,1.8,17.9,3.2,21.5s17.9,30.7,18.4,39c0.5,8.3,1.4,9.6-1.8,34.9
		c-3.2,25.2-7.4,52.8-7.4,52.8l147.3,124.3c0,0,10.1-5.9,14.2-8.3c4.1-2.3,54.6-21.5,58.7-23c4.1-1.4,9.6-4.6,9.6-4.6
		s0.5-3.7-1.4-5.9c-1.8-2.3-23-27.6-31.2-36.2c-8.2-8.7-56-59.2-67-65.6c-11-6.4-50.9-38.1-60.1-47.3c-9.2-9.2-29.4-34-41.3-42.3
		c-11.9-8.3-22.5-20.2-28-25.7C2353.6,2107.5,2345.8,2099.2,2345.8,2099.2L2345.8,2099.2"/>
</g>
<g id="arm-left">
	<path class="normal" d="M2889.9,2380.3c0,0-15.8,3.8-20.3,15.8c-4.5,12.1-26.4,91.9-28.6,106.2c-2.3,14.3-10.5,132.6-13.6,188.3
		c-3,55.7-3.8,190.5-5.3,221.4c-1.5,30.9-10.5,177-11.3,208.6c-0.8,31.6-3.8,201.1-3,204.9c0.8,3.8,5.3,66.3,5.3,66.3l9,250
		c0,0,11.3,301.3,15.1,394.7c3.8,93.4,7.5,229,6.8,247c-0.8,18.1-5.3,69.3-5.3,79.8c0,10.5-5.3,177.7-5.3,203.4
		c0,25.6-4.5,199.6-4.5,204.1s-4.5,18.1,0.8,22.6c5.3,4.5,7.5,6,7.5,6l1.7,1.4c0,0-2-5.1-2-7.2s2-1.7,5.4-1.1
		c3.4,0.7,30.2-0.4,46.5,1.7c16.3,2,130.4,13.6,138.2,14.2c7.8,0.7,19.7,1.1,62.8,8.1c43.1,7.2,43.5,10.5,52.6,13.6
		s10.2,7.8,10.5,9.9c0.4,2,0.7,12.6,1.4,14.2s5.1,7.2,6.8,8.5c1.7,1.4,6.1,4.4,6.1,4.4s5.1-3.4,4.7-8.1s-1.4-13.9-2.4-20
		c-1.1-6.1-2-28.8-2-34.9s2-156.9,3.1-192.1c1.1-35.3,5.1-214.9,4.7-241c-0.4-26.1-0.7-149.4-2.4-199c-1.7-49.6-5.4-123.6-6.1-152.4
		c-0.7-28.8-4.1-81.8-4.4-94.4c-0.4-12.6-5.8-142.9-6.1-151.4c-0.3-8.4-4.7-103.6-6.1-142.9c-1.4-39.4-7.2-142.6-9.9-174.8
		s-12.2-117.5-16.3-152.4s-16-133.8-18.7-165.3s-18.3-169.8-22.7-201c-4.4-31.3-19.4-93.7-24.1-118.2
		c-4.7-24.5-25.5-101.8-35.3-137.8c-9.9-36-27.2-88.3-34.3-116.1c-7.1-27.9-23.1-80.1-27.9-92.3c-4.7-12.2-23.4-49.6-28.2-59.4
		c-4.7-9.9-6.8-16.9-12.2-20.3c-5.4-3.4-14.6-8.8-21.4-10.2C2892.4,2381.5,2889.9,2380.3,2889.9,2380.3z"/>
</g>
<path id="lapel-left" class="left" d="M2603.7,2437.4c-2.3-2.3-22.5-19.7-26.1-23.4c-3.6-3.7-46.3-34-65.6-46.8
	c-19.3-12.9-66.1-60.1-78.5-75.2c-12.4-15.1-48.2-39.9-56.5-45.9c-8.3-5.9-17.9-7.8-17.5-5.9c0.5,1.8-6.9,37.7-8.7,44.5
	c-1.9,6.9-11,72.1-11,72.1s-45.3,266.7-47.2,280.5c-1.8,13.8-22,123.6-22.4,127.2c-0.5,3.7-8.7,28.6-12.3,38.7
	c-3.6,10.1-55.9,232.5-57.7,239.9c-1.8,7.4-40.4,210.8-40.4,210.8l-3.9,30.5c0,0-5.7,7.1-6.2,12.6s-7.2,35.3-7.2,35.3
	s-40.8,168.3-47.7,198.1c-6.9,29.8-19.7,101.9-19.7,101.9c1.4-4.1,14.7-41.8,20.2-54.2c5.5-12.4,67.5-149.7,70.2-158.8
	c2.8-9.2,46.8-91.4,46.8-91.4l120.7-256.1l121.2-262.1c0,0,83.1-194.6,91.4-207.4c8.3-12.9,62.9-149.2,63.8-154.7
	S2605.9,2439.8,2603.7,2437.4z M2528.3,2483.8c-0.6,1-0.6,1-3.1,2.2c-3.6,1.8-13.6-6.8-13.6-6.8l-36-22.2l-11.1-6.8l-6.7-2.9
	c0,0,5.8-6.2,7.3-8.2c1.5-2,4,0.5,4.6,1.8c0.5,1.3,8.7,6.5,13.2,9c4.5,2.5,36.5,21.7,38.8,24.2
	C2524,2476.6,2531.1,2479.3,2528.3,2483.8z"/>
</svg>
