<?xml version="1.0" encoding="utf-8"?>
<!-- Generator: Adobe Illustrator 21.1.0, SVG Export Plug-In . SVG Version: 6.00 Build 0)  -->
<svg version="1.1" id="Layar1" xmlns="http://www.w3.org/2000/svg" xmlns:xlink="http://www.w3.org/1999/xlink" x="0px" y="0px"
	 viewBox="0 0 4160 6240" style="enable-background:new 0 0 4160 6240;" xml:space="preserve">
<pattern id="normal" patternUnits="userSpaceOnUse" width="270" height="270" patternTransform="">
		<image image-rendering="optimizeQuality" preserveAspectRatio="xMidYMid meet" xlink:href="/images/simulator/default/default_tex.jpg" x="0" y="0" width="270" height="270" style="-ms-interpolation-mode: bicubic;" />
  </pattern>
  <pattern id="left" patternTransform="rotate(23)" patternUnits="userSpaceOnUse" width="270" height="270">
		<image image-rendering="optimizeQuality" preserveAspectRatio="xMidYMid meet" xlink:href="/images/simulator/default/default_tex.jpg" x="0" y="0" width="270" height="270" style="-ms-interpolation-mode: bicubic;" />
  </pattern>
  <pattern id="right" patternTransform="rotate(-23)" patternUnits="userSpaceOnUse" width="270" height="270">
		<image image-rendering="optimizeQuality" preserveAspectRatio="xMidYMid meet" xlink:href="/images/simulator/default/default_tex.jpg" x="0" y="0" width="270" height="270" style="-ms-interpolation-mode: bicubic;" />
  </pattern>
<style type="text/css">
	.normal{fill:url(#normal);}
	.left{fill:url(#left);}
	.right{fill:url(#right);}

</style>
<g id="pants">
	<path class="normal" d="M1406.6,4434.1c0,0,1,12.8,0,18.7s-2.4,11.4-4.8,14.9s-11.1,16.6-13.9,28.4c-2.7,11.8-5.9,23.9-6.6,39.5
		s-3.5,48.8-3.5,62.3s-1.2,15.1-1.8,21.6c-0.6,6.5-0.1,62.1-1.3,74.5c-1.2,12.5,0.8,60.7-1,85.9s-17.7,110.7-18.9,128.2
		s-2,29.7-1.9,35c0.1,1.8,0.2,8.1,0.4,16c0.3,15.9,32.6,76.6,32.3,82.2c-0.1,1.9-3,10.3-11.1,16.6c0,0,19.2,85.9,25.1,102.9
		s-1.4,145.4-4.4,157.5c-1.7,6.7-7.7,15.5-16.2,19.2c0,0,8.9,34.7-20.6,40.3c0.2,17.5,1.1,75.7,1.7,89.4s1,42.7,2.5,65.7
		c1.6,23,4.9,78,6,100.5c1.2,22.6,3.5,78.9,4.5,104.1s3.1,70,3.1,83.6c0,13.7,0.8,30.8,0.8,30.8h592.8c0,0,0.8-5.9,1-6.5
		s6.5-45.2,10.3-87.1c3.9-41.9,9.1-102.1,14.4-148.7s15.2-140.5,17.4-160.2c2.2-19.7,9.6-97.8,12.7-127.8s11.5-106.6,15-142.5
		s9.1-88.9,12.2-118.3c3.1-29.5,8-76,10.2-93s2.5-24.3,3.9-29.6c1.4-5.3,15.6-56.3,15.6-56.3l1.3,1.2c0,0,23,43.5,27.3,50.9
		s25.3,45,27.5,54.4c2.2,9.3,24.3,92.7,27.9,106.8c3.5,14,28.6,114,31.8,128.8c3.1,14.8,21.2,96.5,23.2,110.7
		c1.9,14.2,11.3,64.7,15.8,89.6s14.2,76,20.6,127.3c6.5,51.3,16.8,139.6,18.5,169c1.8,29.4,5,112.4,4.9,118.1s0.2,13.1,0.2,13.1
		l589.3,0.2c0,0,0.6-16.8,2.7-77.8c2.2-61,5.3-166.8,6-202.5c0.8-35.7,2.9-91,5-122c2.2-31,3.1-55.2,4.3-75.7c0,0-7.2,0-23.5-7.4
		s-23.4-13.4-23.4-13.4c-16.2-2.8-31.5,1.3-30.8-12.7c1.8-33.3-0.7-118.6-3.9-152.9c2.5-28.9,12.4-83.9,22.6-113.2
		c-0.5-1.7-13.4-6.7-14.5-17c-1-22.7,38.2-83.5,41.4-105.1c0.9-6.4-8.4-7-8.7-13.4c5.2-32.9,8.3-17.8,6.1-54.1
		c-2.2-36.3,24.9-294.4,24.4-334.4c-0.6-39.9-1.5-31.8-3.7-46.8s-9.2-44.4-13.9-55.1c-4.7-10.6-84-161.3-84-161.3h-1314
		L1406.6,4434.1z"/>
</g>
<path id="body-right" class="normal" d="M1861.9,2123.4c0,0-4.1,29.3-4.8,33c-0.7,3.7-4.5,15.8-4.8,17.4c-0.7,3.3-2,5.6-2,5.6
	s-8.4,2.5-9.5,5.9c0,0-0.7,0.4-0.7,2.6c0,2.2,1.1,14.8,1.9,18.2c0.7,3.3,10,60.5,10.4,65.3s15.7,75.7,16.4,82.7
	c0.7,7,28.9,137.9,30.3,143.4c1.5,5.6,21.5,97.9,21.5,97.9l35.2,130.2c0,0,29.7,118.4,35.2,133.6c5.6,15.2,27.1,97.1,32.3,109.7
	c5.2,12.6,48,140,48,140l60.3,164.2c0,0-39,122.4-39,133.6s-24.5,189.2-23.4,217s4.5,631.1,5.6,658.9s39,246,39,246l-0.2,4.6
	l-1.1,5.6l-0.9,8.7l-13.1,21.6l-51,75.2c0,0-22.8,27.9-25.3,30.9c-1.3,1.6-17.4,18-17.4,18l-3.7,0.8c0,0-9.2-3.2-13.3-4.7
	c-4.1-1.5-37.2-15.6-43.5-19.3s-70.3-34.2-87.4-39.8c-17.1-5.6-123.3-47.5-130.7-49.3s-52-16-74.9-23.6c-18-6-44.1-17.6-44.1-17.6
	s-83.4-30.1-84.9-30.8c-1.5-0.7-67.9-26-77.7-34.1c-4.5-3.7-20.8-14.2-26.4-21.5c-4-5.2-22.6-17.1-15-43l14.1-62.3
	c0,0,21.9-101.7,23-108s14.1-95.7,14.1-95.7l13-130.6c0,0,10.8-121.3,10-159.9l4.8-146.9c0,0-2.2-74.6-1.9-76.1
	c0.4-1.5-3-52.7-3-52.7s-5.2-57.1-7.4-69.7s-7-37.5-7-43.8s-2.2-28.2-1.9-31.2s0-69,1.5-74.2s-0.3-31.2,0-37.2
	c0.4-7.2-3.3-28.9-3.7-33.8c-0.4-4.8-7.8-55-8.2-61.5c-0.2-4.3-1.1-8.2-1.1-8.2s2.2-18.1,2.5-24.1c0.1-3.3,8.4-83.5,8.8-86.1
	s4-49.1,5.5-56.9c1.5-7.8,14.6-101.7,15.4-103.6c0.7-1.9,15.4-110,15.4-119.7c-0.1-12.2,1.1-60.9,1.9-70.4
	c0.6-7.4-4.7-93.3-4.7-102.5c0-9.3-8.8-97.6-9.5-104c-0.7-6.3-15.3-114.7-17.5-126.6s-18.8-80.1-24.8-89c0,0,0-6.3-2.8-6.2
	c-4.1,0.1-6.8-0.9-9.6-2.1c-2.5-1-4.5-0.6-4.5-0.6s10.7-7.6,11.4-8.7c0.7-1.1,12.2-5.6,24.5-6.7c0,0,17.1-2.6,26.7-5.2
	c9.6-2.6,83.1-27.8,83.1-27.8l60.5-20.8c0,0,33.4-11.1,38.6-11.9c5.2-0.7,18.5-7.4,21.1-8.2c2.6-0.7,18.9-10.8,29.3-14.8
	c10.4-4.1,12.2-3.3,18.9-5.9c6.7-2.6,37.5-20,39.3-21.1s42.7-29.7,50.1-35.6C1836.6,2154.4,1861.9,2123.4,1861.9,2123.4z"/>
<path id="body-left" class="normal" d="M2852.8,4413.5c-2-5.9-19.5-58.5-19.5-58.5s-25.2-113.4-26.2-124.2
	c-1-10.9-20.6-146.4-23.1-206.7l-5.6-181.3l4.1-254.3l9.3-153.7c0,0,7.5-88.6,6.6-110.5c1-5,1.9-78.3,1.9-79.8s1-29.6-0.4-41.5
	c-1.5-11.9-11.1-47.4-12-52.9c-1-5.4-12-83.5-12-83.5s-21.3-154.9-26.6-214.5c0,0-4.4-109.8-4.4-116.7s5-146.5,5.5-166.4
	c0,0,14.6-114.3,19.4-149.6c0,0,12.4-69.6,13.9-72.6s2.4-5,2.4-5c0.2-0.1,2.3-1.2,2.4-1.9c0.1-0.7-4.4-6.1-9.1-6.5
	c-2.7-0.2-24.1-10.5-26.3-10.9s-16.2-3.3-18.9-4.3s-45.9-14.2-52.8-16.2c-6.9-2-44.5-16.8-52.2-19.1c-7.6-2.2-54.7-18.8-62.3-20.8
	s-44.5-19.8-47.7-21.3s-61.4-32.9-66-35.4c-4.7-2.4-20.9-12.1-22.6-13.4c-1.6-1.3-22.6-17.7-25.2-20.4c-2.6-2.7-15.1-12.2-15.1-12.2
	s0.2,16.7,2.9,22.9s4.5,19.1,4.3,26s0.7,21.6,0.4,23.1c0,0-2.6,17.8-4.3,23.7s-14.5,60.8-14.8,62.3s-9.3,47.4-9.7,49.3
	c-0.5,2-17.7,83-18.4,87.2s-14.1,85.3-15.1,88.2c-1,3-10.6,48.6-11.1,50.8s-16.7,65.3-18.7,70.9c-2,5.7-11.6,45.4-13.7,52.6
	c-2,7.2-15.3,68.9-18,74.6c-2.7,5.7-12.8,45.6-14,48.3c-1.3,2.7-67.1,215.5-83.5,251.2l-44.4,124.8c0,0-5.6,50.5-18,69.7
	c-4.7,7.3-25.2,63.8-28.9,72.7s-9.6,28.2-11.1,38.6c-1.5,10.4-6.7,41.6-8.2,45.3s-3,3-2.2,6.7s-1.5,29.7-2.2,33.4s-4.5,66-5.2,72.7
	s-2.2,41.6-3,50.5c-0.7,8.9,0.7,163.2,0.7,163.2s1.5,199.6,3,209.2c1.5,9.6,3.7,99.4,5.2,108.3c1.5,8.9,0,102.4,0,102.4
	s4.5,215.9,5.2,224.1s1.5,33.4,6.7,50.5c0,0,17.1,49.7,18.5,52.7c1.5,3,10.4,19.3,11.9,24.5s31.2,57.1,34.1,62.3
	c3,5.2,17.8,24.5,24.5,38.6s27.5,43,31.9,47.5c4.5,4.5,15,26,20.2,23.8s134.2-55.6,146-61.5c11.9-5.9,92.3-31.5,106.2-35.9
	c13.9-4.5,40.9-15.5,46.8-16.5c5.9-1,65.6-22.6,76-24.5c10.4-2,87.9-25.5,94.4-26.9c6.5-1.5,94.3-28.7,110.6-36.1
	c0,0,44.1-18.5,68-55.6l-1.5-6.5C2861.4,4448.1,2854.8,4419.4,2852.8,4413.5z M2145,3948.5L2145,3948.5
	c-2.6,15.3-8.1,20.8-23.6,20.8c-17.4,0-24.9-8-24.9-26s7.7-25.6,25.1-25.6c9.9,0,13.7,0.7,19.5,8.3l0,0
	C2141.1,3925.9,2147.6,3934.2,2145,3948.5z M2126.3,3452.9c11.4-0.2,16.3-4.8,21.8,4.4l0,0c0,0,7.8,6.4,5.2,20.4h-0.2
	c0,0.5-0.1,1-0.1,1.6c-0.7,2.9-2.5,5.9-4.1,9.2l0,0c-4.2,6.8-7.7,9.1-21.8,6.6c-12.4-2.2-18.2-7.4-18.2-24.6
	S2119.4,3453,2126.3,3452.9z M2122.1,3680.9c11.1,0,14.7-0.3,21.2,7.2c1.9,2.7,4.9,9.8,4,21.7c0,0.4-0.1,1-0.1,1.5
	c-0.1,0.4,0,0.7,0,1c-3.3,14.5-8.6,20.4-25.4,20.4c-19.3,0-26.9-9.2-26.9-26.9S2102.9,3680.9,2122.1,3680.9z M2090.1,4168.2
	c0.3-17.4,12-23,25.8-22.7c13.7,0.6,20.1,1.2,24.7,12.7l0,0c0,0,4.8,12.2-1.5,25.8c-5.8,10.4-12.2,11.4-25.4,10.9
	C2098.4,4193.7,2089.9,4182.6,2090.1,4168.2z"/>
</svg>
