<?xml version="1.0" encoding="utf-8"?>
<!-- Generator: Adobe Illustrator 21.1.0, SVG Export Plug-In . SVG Version: 6.00 Build 0)  -->
<svg version="1.1" id="レイヤー_1" xmlns="http://www.w3.org/2000/svg" xmlns:xlink="http://www.w3.org/1999/xlink" x="0px"
	 y="0px" viewBox="0 0 4160 6240" style="enable-background:new 0 0 4160 6240;" xml:space="preserve">
<pattern id="normal" patternUnits="userSpaceOnUse" width="270" height="270" patternTransform="">
		<image image-rendering="optimizeQuality" preserveAspectRatio="xMidYMid meet" xlink:href="/images/simulator/default/default_tex.jpg" x="0" y="0" width="270" height="270" style="-ms-interpolation-mode: bicubic;" />
  </pattern>
  <pattern id="left" patternTransform="rotate(23)" patternUnits="userSpaceOnUse" width="270" height="270">
		<image image-rendering="optimizeQuality" preserveAspectRatio="xMidYMid meet" xlink:href="/images/simulator/default/default_tex.jpg" x="0" y="0" width="270" height="270" style="-ms-interpolation-mode: bicubic;" />
  </pattern>
  <pattern id="right" patternTransform="rotate(-23)" patternUnits="userSpaceOnUse" width="270" height="270">
		<image image-rendering="optimizeQuality" preserveAspectRatio="xMidYMid meet" xlink:href="/images/simulator/default/default_tex.jpg" x="0" y="0" width="270" height="270" style="-ms-interpolation-mode: bicubic;" />
  </pattern>
<style type="text/css">
	.normal{fill:url(#normal);}
	.left{fill:url(#left);}
	.right{fill:url(#right);}

</style>
<path id="pants" class="normal" d="M2560,2882l-58,285.5c0,0,1.2,3.8,1.2,5.8s-3.5,19.5-3.5,19.5s-10,40.8-13,55c0,0-5.2,27.2-5.8,33.2
	s-6,24.5-6,27.5s-2,12-2.5,14.5s-0.5,5-0.5,5s2.5,1,5,1.5s10,1,14.5-0.5s10-3.5,14-6s13.5-10,13.5-10s-11,24.5-13,28.5
	s-7,18.5-7.5,22s-2.5,9-3,11s-14.5,24-15,25.5s-26,37-14,57.5c0,0,10.5,12.5,22,4.5c0,0,8.5-6,9-8s1-5,1-5l19-9.5l10-2l10.5,0.5
	l-26,162c0,0-33,227-34,282.5l-28.5,290l-18.5,169l-17.5,184.5l-21.5,165.5c0,0-30,264-31,322c0,0-13,268-13,271.5
	s-4.2,27.2-20.2,34.7l-68.8,28.2l-137.3-56.8l-1.1-8.3l11.9-187.9l8.5-133c0,0,11-282.5,10.5-298.5s2.5-208.5,2.5-208.5
	s-9-209.5-9-215.5s-8-221.5-8-221.5s-4-216-5-230.5s-6.5-183-7-185.5s-5.5-100.5-5.5-100.5s-8.5-82-10-87.5s-4.5-14-4.5-14
	s-3,3.5-5,6s-4,4-5.5,8s-3.5,17.5-4.5,25.5s-14,63.5-16,77s-12,124-12.5,127s-8.5,74-8.5,101.5c0,0-0.5,177.5-1.5,191.5
	s0,366.5,0,368.5s-6.5,312.5-6.5,314s-2.5,204.5-2.5,204.5l-3,156l1,286.5c0,0-0.5,7.9-1,9.4s-20.5,13.5-22.5,14.5s-6.1,3.9-7.6,5.4
	s-9.9,2.1-13.4,3.1s-20.9,8.9-24.4,10.4s-24.2,5.7-35.7,9.2s-29.9,10.2-29.9,10.2s-10.5,0.4-29.4-4.5c-9-2.4-36.6-10.2-45.6-16.2
	s-39-22.5-37-51V5061l-7-214.5c0,0-4-102-4.5-109.5s-9-187.5-11-199.5s-21.5-186.5-21.5-194s-22-183-23-192s-34.5-305-34.5-307
	S1662,3532,1662,3525.3s-2.7-39.3-2.7-39.3l0.5-3.1c0,0,11.5,11.2,13,12.7s9.6,10.2,13.9,9.5s13.7-6,14-8.2s0.8-3.6,0.7-5
	c-0.2-1.4-0.8-5.8-0.9-6.2c-0.2-0.3-6.8-15.9-8.5-17.9s-22.7-26.1-24.3-26.8c-1.7-0.7-8-6.7-8-6.7s-2-3-2-4.3s1-0.3-1-5.7
	c-2-5.3-18.3-44-20-47.7s-4-13-4-13s-0.7-5.3-0.7-6.7s-5.7-7.7-5.7-10.3c0-2.7-1.7-16.3-1.7-18s-8.3-47.7-8.3-47.7l-4-25.7l5.3-3.3
	c0,0,6,51.3,8.3,52.7c2.3,1.3,16.7,15.7,18.3,24c1.7,8.3,14,54,16,62.7s36.3,61.7,40.3,70s10.7,15.7,14,14.7s7.3-5.3,8.7-8.7
	c1.3-3.3,1.3-5,1.3-8.3s-7.3-31-13-38.7s-24-38.7-24-38.7l-4-37l-0.3-5.7c0,0,21.7,9.3,22.7,9.3s0-44,0-44l-2.7-119.3l-7.3-304.7
	L2560,2882z"/>
<path id="body-left" class="normal" d="M2558.5,1486.5c-4-2-90.2-29.8-90.2-29.8s-103-26.3-112.7-30s-18.8-10.8-18.8-10.8
	c-1.8-0.8-23.5-4.7-23.5-4.7l-46-23.8l-3.3,34.7l-26,130c0,0-63.3,254-68.7,264c-5.3,10-58.8,218.5-59.8,220.5s4,77,4,77
	s11.5,61,10.5,81.5s14.5,125.5,14.5,125.5l9,170.5l5,97.5l-13.5,114c0,0-17,170-17.5,172S2102,2959,2102,2959c3,20,51,96,51,96
	c17.5,31.5,69,52,69,52c23.5,13.5,81.5,22,92,23s72-9,77.5-10s107.5-25.5,107.5-25.5l22.5-16.5c0,0,22-189.5,25.5-203
	s-7.5-146.5-8-148s-5.5-11-11-23.5s-16-60-17.5-64s-1.5-10-1.5-10s4,5,5.5,7s1.5,0.5,3.5-1s2.5-4.5,2.5-6.5s-3.5-18.5-4.5-22.5
	s-11-36.5-11.5-38s-12-43-14.5-50.5s-3.5-9.5-4-14s-3-19-3-21c0-1.4-3-9.3-4.7-13.8c0.2,0.3,0-0.6-1.3-5.2c-3-10.5-11-47-11-47
	c-2-13.5,2.5-43,3-46.5s11.5-104.5,11.5-104.5c2-30.5,17-127,19-138.5s49.5-122,50-125.5s28-160,30-172s3-203,3-208.5
	s0.5-121,0.5-121S2562.5,1488.5,2558.5,1486.5z M2307,1551.8l-4.8,4.5c0,0-6.8-4.8-10.2-7s-18-11.8-22.8-15.2s-8.2-4.5-9.5-5.2
	s-3-2.2-3-2.2l0.8-2l8.5-7.5c0,0,12,9.2,14.2,11.2s18.2,12.8,19.5,13.8s5.2,3,5.8,3.8s2,1.8,2,2.5S2307,1551.8,2307,1551.8z"/>
<path id="collar-left" class="left" d="M2228,1296c0,0,1,49.3-1,58.6c-2,9.3-16.5,98.9-16.5,98.9s63.6,28.5,64.9,31.1
	c1.3,2.7,24.2,5.3,24.2,5.3s16,1,23-0.5s19,0,22-1.5s11.5-7,11.5-7s-8.5-9-10-12.5s-6.2-12.2-7.5-19.2s-7.5-23.5-20.8-35
	c0,0-25.5-22.5-29.2-26.5s-23.8-27.2-38.8-55.2L2228,1296z"/>
<path id="body-right" class="normal" d="M2166.7,2615.3c-0.3-10.7-0.7-109.7-0.7-109.7s1-60.3-2-75.7s-5.3-62.3-5.3-62.3l-4-52
	c0,0-4.7-46-6-49.3s-12.7-43-12.7-43l-18-87c0,0-25.7-98-25.7-99.7s-37-156.7-37-156.7l-27.3-74.3l-90.7-369.7l-42.7-20l-48.7,11
	c0,0-3.3,2.3-6.7,2.7c-3.3,0.3-22.3,3.7-25.7,4.3c-3.3,0.7-82.3,22-83.3,22.3s-84.3,27-88.3,27.7s-31.3,10-34,11.7s-6.3,5.3-7,7
	s-4.7,16-4.7,16s8.3,81.7,9,85.3c0.7,3.6,0.7,161.3,0.7,161.3s2,86,3.7,90.3s20.7,115.7,25.3,127.3c4.7,11.7,43.7,119.3,50.7,131.3
	s36.3,73.7,36.3,73.7s7,58,8.7,68.7s6.3,70.3,6.7,73c0.3,2.7,6,84,5.7,89.7s0.3,7-1.7,13.7s-13.7,59.3-14.3,65.3
	c-0.7,6-9,29.3-10,34s-6,23.3-8,28.7s-20,57.7-21,63.7s-1.7,12.3-1.7,14.7c0,2.3-1,3.3,1,5.3s1.7,2,4,3s6.3,1,6.3,1s-2.3,4-3.7,10.3
	c-1.3,6.3-3,20.3-4.7,28s0,60.3,0,60.3l-5.3,72l3.7,216l14.7,66.7c0,0,40,10,51.7,12.3s55.3,8,60.3,9s36,8.3,44.3,8.7
	c8.3,0.3,51.7-0.3,60.3-0.3s27-1,34.7-2.7s12-4,16-6s26.7-13.3,30.3-14.7c3.7-1.3,33.3-28.7,39-33.3s48-68.3,48-68.3l13-27.3
	c0,0,16.3-44,17-46s21-75,22.7-85.3s12.7-68.3,14-82.3s10-103.3,10-103.3S2167,2626,2166.7,2615.3z M2102.1,2282.2
	c15.7,0,28.4,14.5,28.4,32.5c0,17.9-12.7,32.5-28.4,32.5c-10,0-18.7-5.9-23.8-14.8c-5.8-12.4-4.6-23.1-2.5-29.8
	C2080,2290.6,2090.2,2282.2,2102.1,2282.2z M2106.4,2610.8c-11.2,0-19.9-5.9-24.9-16.3c-3.6-12.5-2.2-16.9-1-22.5
	c4-13.1,13-21.1,25.9-21.1c16.3,0,25.7,11.5,25.7,30S2122.7,2610.8,2106.4,2610.8z"/>
<path id="collar-right" class="right" d="M1961.2,1292.8l-47.2,65.5c0,0-42.5,49.8-45.8,54.2s-1.2,4.5-6.2,7.8s-12,2.2-14.2,5.8
	s-8.5,17.8-9.2,22.5s-5.8,50.5-6,53s-0.5,3.2-0.5,3.2s24-6,30-6s21.2,2.2,22.8,3.2s3.8,4.8,17-3.8s69.5-47.8,69.5-47.8
	s-9.5-76.9-9.5-82.7c0-5.8,0.2-48.2-0.2-62.9L1961.2,1292.8"/>
<path id="lapel-left" class="left" d="M2356,1520.5c-1.5-4.2-5.7-6.2-7.3-7.5c-1.7-1.3-14.8-7.5-17.3-8.3s-38.3-17-47.3-22.5
	s-47.3-29-51.3-31.7s-12-4.7-15.3-5.2s-7,1.8-7,1.8s-15.3,75.3-15.6,76.3s-13.3,70.7-13.3,71.9s-11.9,67.9-12.2,69.5
	s-20.2,96.3-20.4,97.2c-0.2,0.8-16.7,74.2-22.1,116.4c-0.9,7.1-8.9,29.4-9.9,32s-5.5,16.7-5.9,19.7s-1,18.9-0.7,21.5
	c-1.2,7.8-3.6,24.1-4.2,27.1c-0.7,3-7.1,30-7.1,30l-9.3,13.2l25,83l38-73.3c0,0,20-39.7,22-43.3c2-3.7,31.7-67.3,31.7-67.3
	s20.3-50.3,21-51.7c0.7-1.3,26.7-62,27.3-63.7c0.7-1.7,24-58.7,24.7-60s26.7-71,28-75.3s20.7-58.3,23.7-66.3s25.8-73.3,25.8-73.3
	C2358.5,1525.5,2357.5,1524.7,2356,1520.5z"/>
<path id="lapel-right" class="right" d="M1970.2,1444.8c0,0-8.5,0-14.2,3.5s-55.5,39-60.2,42.5s-48,33-49.5,34s-12.5,8.5-12.5,8.5
	s-3.5,15.5-2,21.8s12.5,64.2,18.5,76.5s26.8,69.8,26.8,69.8l35.5,88.2l69.5,151.2c0,0,17.3,42,24.7,51.3
	c7.3,9.3,38.7,68.3,40.7,72.3S2108,2186,2110,2190s26.7,68,27.7,72.3s16.3,47.2,16.3,49.7s-6.5-54-7-58.5s-25.5-148-26.5-153.5
	s-14-48-17.5-59c-3.5-11-7-38.7-8.4-45.2s-4.1-33.9-4.8-38.6s-3.2-16.3-4.5-19s-16.4-50.3-17.1-53.6c-0.7-3.3-6.9-31.4-9.4-43.1
	c-0.3-1.7-0.6-10.7-3.9-25.5c-1.7-7.7-5.1-16.4-8-27.6c-8.4-33.2-19-69.9-18.7-70.8C2029,1714.2,1972.8,1441.7,1970.2,1444.8z"/>
<path id="arm-left" class="normal" d="M2582,1498c0,0,17-3,20,1s18.5,34.5,24.5,47s40.5,97.5,48.5,125.5s38,134,40,149.5s8,41,8.5,51
	s7.5,207,7.5,214.5s9,244,9,244s7,186,7,189.5s4.5,161.5,4.5,165s4,118,4,120s4,137,3.5,142s-3.5,110-3.5,119.5s2,84,2,93
	s-3.5,26.5-6,29s-4,3.5-4,3.5l-4-26.5l-14.1,9.6l-2.1-12.4c0,0-42.9-5.8-59.4-7.8s-85.7-3.5-100.7-2.5s-46.9,6.6-56.9,10.6
	s-7.8,6.8-7.8,6.8l-3.6-14.3c0,0,4-79,4.5-90s16.5-82.5,17-97.5s7-99.5,8.5-109s5-54.5,5-60s-3-37-2.5-43s2.5-37,3-40s2-9,1-31
	s-10-40.5-9.5-50.5s-4-70.5-2.5-80s2-109.5,2-123.5s-1.5-142.5-2.5-154s-5.5-67.5-6-78s-5-54-16.5-78c0,0,14.5-73,16.5-80.5
	c2-7.5,33-153.5,33-153.5s17.5-78.5,18-86.5s3-85,3.5-93.5s4.5-187,4.5-190.5S2582,1498,2582,1498z"/>
<path id="arm-right" class="normal" d="M1604,1503.3c0,0,2,5.7,4.3,10s6.3,21.3,8,32.3s5.7,45.3,7.7,52.3s1.3,39.3,1.3,39.3l-0.3,89
	c0,0,0,83.7,0.7,87.3c0.7,3.7,0.3,7.3,5,17.7c0,0,5.3,13.7,7,20.3c1.7,6.7,16.3,74.7,16.7,76c0.3,1.3,17.3,64.7,17.3,67
	s34,131.3,34,131.3s12,48.7,13.3,51.7s3,14.7,2.7,17.3c-0.3,2.7-4.3,10.3-5.3,13.3s-23,62-24.3,67s-4.7,11-4.7,16
	s-3.7,43.7-3.7,44.7s-6.7,79-8,101.7c0,0,2.7,104.7,2.3,112c-0.3,7.3,1.3,90.3,1.3,95.3s-3,19.3-1,23s4.7,13.3,5.7,18
	s5,36.7,6.7,43.3c1.7,6.7,3,50.7,3,53.7s1.7,91.3,1.7,91.3s2.7,57.7,2.7,60.3c0,2.7,2,75.7,2.3,78.3c0.3,2.7,2.7,73.7,3,75.3
	c0.3,1.7,2,9,3,12.3s2.3,11.3,3.3,17.3s4.7,37,4.3,40s-5,11-6,13.3s-1.7,5.3-1.7,3.7s0.7-8.9-3.6-11.6s-16.1-9.1-20.4-9.8
	s-14.5-2.2-26.5-4.2s-33.6-1.2-48.2-1.6c-14.7-0.3-48.8,5.1-62.5,6.5c-13.7,1.3-48.7,5.7-53.1,7.1s-9,3-9.6,4.7
	c-0.7,1.7-2.5,5-2.5,8.7s-0.4,6-0.4,6s-2.1-4.4-4.1-2.4s-3.3,3.7-5.3,9s-2,5.3-2,5.3s-3-1.3-5.3-5.7c-2.3-4.3-6-11.7-5.7-17.3
	c0.3-5.7,2-77,3-87s-1.3-57.7-1.7-64c-0.3-6.3-3.7-42-1.7-53.7s2.7-34.7,3.7-48.3c1-13.7-3.3-114-3.3-114l-2.7-96
	c0,0-2-156.7-2.3-163.3c-0.3-6.7-2-119.7-2.3-129s-0.7-128.3-0.7-131.3s2-58.7,2-66.7s4-97.7,4-104s7-125,7.7-130.7s6.3-79,6.7-86.7
	c0.3-7.7,9.3-59.7,10.3-69.7s14-97.3,15.7-103.7c1.7-6.3,19-75.7,20-79s13.7-42.3,19.3-53c0,0,35.3-66,39-70.7
	C1577.3,1514.3,1584,1496.7,1604,1503.3z"/>
</svg>
