<?xml version="1.0" encoding="utf-8"?>
<!-- Generator: Adobe Illustrator 21.1.0, SVG Export Plug-In . SVG Version: 6.00 Build 0)  -->
<svg version="1.1" id="Layar-1" xmlns="http://www.w3.org/2000/svg" xmlns:xlink="http://www.w3.org/1999/xlink" x="0px" y="0px"
	 viewBox="0 0 4160 6240" style="enable-background:new 0 0 4160 6240;" xml:space="preserve">
<style type="text/css">
	.st0{fill:#212121;}
	.st1{fill:#5B5B5B;}
	.st2{fill:#3D3D3D;}
	.st3{fill:#B5B5B5;}
	.st4{fill:#878787;}
	.st5{fill:#C9C9C9;}
	.st6{fill:#969595;}
	.st7{fill:#E2E2E2;}
</style>
<g id="pants_1_">
	<path class="st0" d="M2585.3,3407.8c-4-1.3-13.7-9-13.7-9s0.5-1.6-8.7,4.8s-21.7,0.5-36.4-9.2c-14.8-9.8-14.5-26.1-14.5-26.1
		c-20.9-5-28-14.3-31.2-19.8s-9.2-33.3-10.3-32.5s-16.6,8.5-18.5,9c-1.8,0.5-20.3,1.1-24-0.3c-3.7-1.3-4.2-7.1-4-10s6.3-38,7.9-45.2
		c1.6-7.1,7.1-47.5,10.6-57c3.4-9.5,13.2-25.1,13.2-25.1l0.4-2.2v-614h-367.3c-1.1,14.4-13.1,25.8-27.8,25.8s-26.7-11.3-27.8-25.8
		H1728v592l-1.1,1.5c0,0,7.7,13.1,9.6,16.6s4.6,13.5,5,20c0.4,6.6,2.3,78.2,3.5,90.2s-1.2,10.4-6.9,13.9s-21.2,0.8-21.2,0.8
		l-3.5,1.5c-0.8,5.4-10,13.5-13.5,17s-28.9,17.7-33.9,21.2s-8.5,11.9-13.5,19.3c-5,7.3-12.3,13.1-13.5,13.5s-8.9,4.2-16.2,3.1
		s-13.5-10.4-13.5-10.4l-4.6,0.8c-8.1,8.5-22-0.4-22-0.4l5.4,3.5c0,0,1.2,23.9,2.3,38.9s8.1,117.6,9.2,133c1.2,15.4,8.5,264,8.5,264
		l1.5,257.1c0,0,0.8,30.4,1.5,38.2c0.8,7.7-2.3,49.3-5.4,84.4s-1.5,127.6-1.9,153.8c-0.4,26.2,0,155.3-1.5,203.9
		s1.9,141.4,2.7,179.2c0.8,37.8,3.1,139.5,3.1,144.9s-2.3,128-1.5,147.6c0.8,19.7,0.8,78.2-0.8,109.8c-1.5,31.6-1.5,64-1.9,98.3
		s-3.9,54.3-4.2,59s5.4,8.1,13.1,11.2s23.1,8.5,27.4,10.8s41.2,18.9,48.6,21.6c7.3,2.7,8.1,2.7,13.1,2.3c5-0.4,64-4.2,64-4.2
		s52.4-7.3,61.3-9.6c8.9-2.3,12.3-7.3,12.7-8.9c0.4-1.5,0-3.5,0-10.8s0.4-6.9,1.2-15c0.8-8.1,15.4-124.1,18.5-156.5
		s22.4-207.4,27.7-257.1c5.4-49.7,17-185.8,18.5-204.3s10.4-141.8,11.2-159.6c0.8-17.7,3.1-28.9,5.8-49.7
		c2.7-20.8,27.4-207.4,32.4-245.9s12.3-116.8,12.7-126.8c0.4-10,5.8-48.2,8.9-64s11.2-82.5,13.9-105.6
		c2.7-23.1,10.8-114.1,11.9-134.5s10.8-108.7,16.2-138.7s18.9-120.6,25.8-156.1c6.9-35.5,30.1-217.8,30.1-217.8s13.1-126,13.5-134.9
		s23.5-34.3,23.5-34.3c0.8,15,11.9,36.6,11.9,36.6s0.8,8.5,1.2,13.9s5.4,64.4,6.2,90.6c0.8,26.2,3.9,40.5,8.1,73.2
		c4.2,32.8,19.7,163.8,19.7,163.8s4.6,45.1,6.9,82.1c2.3,37,9.6,122.2,10,141.4c0.4,19.3,7.7,169.6,8.5,198.5s4.6,63.2,5.4,72.8
		c0.8,9.6,5,44.3,5,44.3s1.5,44.3,4.2,65.5c2.7,21.2,15,165.3,18.5,203.5s8.9,137.6,10,151.1s4.6,73.2,5.8,85.2s1.5,26.6,1.2,47
		c-0.4,20.4-0.4,160.3,1.5,191.9s12.7,234.3,12.7,234.3s13.5,213.9,17,249s18.5,91.7,20.4,96.7s11.6,7.7,15,8.9s6.2,0.8,22.7,1.5
		c16.6,0.8,50.5-2.7,65.1-3.1s55.9,5.4,62.1,6.9s20,4.6,33.1,2.3c13.1-2.3,18.1-9.6,21.6-15s14.3-12.7,20-16.2
		c5.8-3.5,1.5-3.5,5.8-13.5c4.2-10,11.6-46.2,12.7-55.1s6.9-38.5,9.2-50.5s10.8-49.7,14.3-74s6.2-120.2,6.9-157.6
		c0.8-37.4,2.7-46.6,4.2-64c1.5-17.3,4.2-87.9,5-131.8s0.6-179.2,0.6-235.6s0-219.8-0.6-250.7s-3.4-132.4-5.6-169
		c-2.3-36.6-2.3-158.9-2.8-201.7c-0.6-42.8,8.5-264.8,9.5-275.9c1.1-11.1,13.5-187,13.5-187l1.6-49.9
		C2598.8,3410.1,2589.3,3409.1,2585.3,3407.8z"/>
</g>
<g id="vest-right_1_">
	<path class="st1" d="M2112.2,2015.2c-8.5-1-16-5-18.5-8.5s-3.8-8-4-13.2c0,0,1-14.8,9.5-19s14.8-3.5,18.8-2.2
		c3.2,1,9,5.9,11.7,10.5l23.8-91.5c0,0-36.2-62.5-38-67.2s-9.5-21.5-11.8-28.8s-40-117-43.8-128.5s-12.5-37.2-15.8-47
		s-31-98-35-110.8s-37.5-125.2-37.5-125.2l-38.5-130.2c0,0,7,48.5,9,62.5s12,72.2,13.2,78.5s3.8,24.8,4.8,35.8s5.8,42,9.2,61.5
		s16.2,89.5,17.2,97s22.5,113.2,26.2,132s24.8,111.8,24.8,111.8s28,126.2,41.2,177.2s25.5,69.6,25.5,69.6l17.4-66.6
		C2119.4,2014.3,2116.1,2015.7,2112.2,2015.2z"/>
</g>
<g id="vest-left_1_">
	<path class="st2" d="M2242.2,1383.2c-5.4,22.3-34.8,139.4-40.2,160.8s-48.2,145.5-51,154.7s-38,110.7-38,110.7
		s-39.2,132.7-41.8,142.3c-2.6,9.6-5.2,8.9-5.2,8.9l-27.3,8.1l55.5,145.1l10.3-34.4c0,0,15.5-51.2,22-70.2c-1.8,2-7,7-13.8,6.2
		c-8.5-1-16-5-18.5-8.5s-3.8-8-4-13.2c0,0,1-14.8,9.5-19s14.8-3.5,18.8-2.2s12.2,8.8,13,14c0.3,1.9,0.5,2.8,0.6,3.3
		c3.1-12.9,5.2-25.6,7.4-35c3.2-14,30.9-138.1,47.5-210.9s38.9-199.1,44.7-237.7c5.7-38.6,34.5-228.4,34.5-228.4
		S2247.6,1360.8,2242.2,1383.2z"/>
</g>
<g id="body-right">
	<path class="st3" d="M2097.7,2292.8c-22.5-8.2-16-32.8-16-32.8s3.8-24,30.8-24.5c0,0,1.2,0,3.2,0.3v-42.2v-11L1813.6,1184
		c0,0-12.9,5.8-29.7,12.6c-16.8,6.7-66.5,23.6-91.6,30.9c-25.1,7.4-75.4,23.6-88.2,28.8c-12.9,5.2-39.2,16.8-46,18.7
		c-6.7,1.8-12.3,2.5-14.7,3.1c-2.5,0.6-5.5,2-5.5,2l84,826c0,0,8.5,89,5,138s-20,164-20,164l-9.5,50v509.5l41,19.5l1.5,19
		c0,0,3,3,2.5,8s-1,10-1,10s5,6.3,8,10c3.1,3.7,27.6,28.5,31.9,33.7s23.3,26,23.6,34.9c0.3,8.9-0.3,12.6-0.3,12.6l23.6,48.7
		c0,0,37.7,10.1,69.5,11.6c31.9,1.5,65.6,2.5,87.3-11.3c21.8-13.8,59.1-39.5,82.4-71.1s45.3-79,45.3-79s22.7-39.5,41.1-101.4
		c18.4-61.9,27.9-91,34.3-144.3c6.4-53.3,27.6-223.6,27.6-223.6v-250.2C2110.8,2295.6,2104.8,2295.4,2097.7,2292.8z M2060,2595.8
		c-15.4,0-27.9-12.5-27.9-27.9s12.5-27.9,27.9-27.9c15.4,0,27.9,12.5,27.9,27.9S2075.4,2595.8,2060,2595.8z"/>
</g>
<g id="body-left">
	<path class="st4" d="M2587.8,2442.2c0-6-5.3-17.3-8.3-36.2c-3-18.8-9-104.8-9-104.8s-2.1-41.6-1.8-87.6s4.3-94.3,7.7-114.7
		c3.3-20.3,14.3-39,14.3-39l71.3-763c0,0-6.7-2.3-12-5.3s-37.3-15.7-51-21.3c-13.7-5.7-95.7-32.7-127-43.3s-79.3-33.3-79.3-33.3
		l-244.4,772c1.7,0.3,3.8,0.5,5.3,0.8c2,0.5,4,1.8,5.2,3.7c1.2,1.8,2.7,5.2,2.7,7.2s-1,5.2-4,6.5s-2,3-6.8,1.8
		c-3.8-0.9-6-2.1-7.4-3.9l-73.8,233.2c0,0-1.5,4.9-2.1,13.1s-2.3,41.8-1.9,70.6c0.4,28.8,2.3,35.2,5.3,67s9.5,76.8,13.4,100.1
		c3.8,23.3,17,112.2,20.6,128.7s9.5,50.9,11.9,60.9c2.3,10,21,73.6,25.9,98.6s14.8,54.7,26.9,92.9c12.1,38.2,39.2,98.6,54.3,135.1
		s40.5,76.3,59.8,107.9c19.3,31.6,62.4,68.9,77,79.1s29.5,14.4,41.4,16.8c11.9,2.3,54.3-0.2,54.3-0.2s2.5-3.6,4-5.9
		c1.5-2.3,15.5-30.5,17.6-34.4c2.1-3.8,3.2-7.6,3.2-7.6c0.4-1.7-1.1-3.2-4.2-5.1s-0.6-1.7-0.6-3.2s9.5-15.9,14.8-23.3
		s25.4-26.5,28.4-29.7s16.5-17,16.5-17s1.1-0.8-0.2-2.1s-2.3-3.8-2.5-6.2c-0.2-2.3,1.9-3.4,2.8-6.4c0.8-3,1.6-11.8,1.6-11.8
		s57.3-570.5,53.5-574.3C2587,2455,2587.8,2448.2,2587.8,2442.2z M2129.2,2283.8c0,0-11,16.2-33.5,8s-16-32.8-16-32.8
		s3.8-24,30.8-24.5c0,0,27,0.2,26.5,23.5S2129.2,2283.8,2129.2,2283.8z"/>
</g>
<g id="lapel-right">
	<path class="st4" d="M1923.3,1190.3c0,0-4.8-4.8-16.2,6s-32.5,28.5-43.5,36.8s-24.8,17.8-28.8,21s-20,15.8-21,16.5
		s-13.2,9.2-21.2,14s-54.8,31.8-59,34.8s-9.8,3.8-10,9.5s1,8.8,8.5,32s23.5,80.2,36.8,113s30.8,79,56.8,138.2s45,100,51.8,115.5
		s37,81.8,48,101.5s30.2,64,36,75.5s32.8,71.5,40.5,87.8s39.5,80.8,46,93.5s36.5,65,36.5,65l20.2-71.5c0,0-15-35.2-18.2-47.5
		s-25.8-95.2-29.2-113.8s-23.8-104.2-29.2-130s-19.5-88.8-25.2-118.8s-20-100.2-24-124.5s-16.2-95.5-17.2-102.8s-2.5-28.5-4-35.8
		s-13.5-79.2-14.8-91.2s-11-74-12.2-83.5S1923.5,1195.8,1923.3,1190.3z"/>
</g>
<g>
	<path class="st5" d="M2067.8,2221.3c-0.5,1.7-0.8,3.2-0.9,4.5C2066.9,2225.8,2067.3,2224.1,2067.8,2221.3z"/>
	<path class="st5" d="M2457.2,1330.6c-4.4-1.9-43.7-23.8-52.4-30.6s-53.9-40.8-69.4-56.3s-32.5-30.1-42.2-37.9
		c-9.7-7.8-12.5-2.3-12.5-2.3c1.1,5.5-4.5,26.1-6.4,33.9s-6.8,30.6-8.7,43.2c-1.9,12.6-17,113.1-24.3,166
		c-7.3,52.9-28.6,172.8-34,201.9c-5.4,29.1-46.1,210.7-46.1,210.7s-28.6,125.7-30.1,133.5c-1.5,7.8-18,57.3-18,57.3
		s-13.1,48.5-24.8,86.9c-9.6,31.5-17.8,71.1-20.5,84.3c6.5-23.2,45.7-84.3,58.3-104.2c13.6-21.4,58.7-114.6,86.4-171.8
		c27.7-57.3,75.7-162.1,91.3-198.1s79.6-174.3,98.1-217.5c18.4-43.2,34.5-88.8,51-134c16.5-45.1,15.5-45.1,16-51.9
		C2469.4,1336.9,2461.6,1332.6,2457.2,1330.6z"/>
</g>
<g id="collar-left">
	<path class="st6" d="M2275,1085.9c0,0,13.7,51,11.7,74.3s-6,43.3-6,43.3s4.7-4.3,10.3-0.3c5.7,4,33.3,30.3,42.7,38.3
		s40.7,33.3,43,36s21.3,16.3,21.3,16.3s1-1.3,8-4s41-19.7,43.3-20.7s8.7-5.7,4.3-11c-4.3-5.3-30-33-40-44.3s-19.7-20-24-22.3
		s-9.3-3.3-19.3-12.3s-48.3-49.3-57.3-57s-29.3-28-31.7-30C2279,1090.2,2275,1085.9,2275,1085.9z"/>
</g>
<g id="collar-right">
	<path class="st6" d="M1930,1084.5c0,0-24.5,30-33,36.5s-14.5,17.5-20,21.5s-26,22-33,27s-8.5,7.5-19,10.5s-16,7-16,7s-5.5,5-8.5,6
		s-8,3.5-11.5,10.5s-7,16.5-16.5,26s-17,19-17,19s-3.5,5-0.5,7s42,19.5,45,21.5s3,2,3,2s37.5-30,44.5-34.5s40.5-31.5,45.5-35.5
		s22.5-25,30-19c0,0-6-34-5.5-37.5s4.5-44,7-50.5S1930,1084.5,1930,1084.5z"/>
</g>
<g id="arm-right">
	<path class="st7" d="M1537.5,1280c0,0,12.5,6.5,15,18c0,0,7,19.5,8.5,30s13,74.5,17.5,113s11.5,105.5,14,147.5s2,122.5,2.5,146
		s0.5,73.5,1.5,91.5s9,86,12,104s10.5,82,11,106.5s2,69.5,2,69.5s-2.5-1.5-2,8.5s1,67.5-3,87s-15,57.5-15,57.5s7,118,7,130.5
		s-2.5,48-3.5,54.5s-2,7.5-1.5,9s3,33,5.5,72.5s11,169.5,15,219s14.5,136,17.5,160s8.5,53.5,11.5,66s5.5,27.5,2.5,30.5s-15,8.5-16,5
		s0-12.5-6-12.5s-37.5,4.5-52,8s-129,29-137.5,31.5s-16.5,5.5-16.5,5.5s-2,3,6.5,3.5s18.5-1,18.5-1l-0.5,21.5c0,0-4.5,1.5-10.5,2.5
		s-24.5,1.5-28.5-1s-3-6-5-8s-4.5-8-7.5-6s-17,11.5-17.5,13s-5,4.5-5-5.5s2.5-68.5,4-74s2.5-10.5,2.5-10.5s4.5,4,5-6.5s0-47,0-51
		s-4-15.5-4.5-23.5s-3-26-3.5-29s-3-7.5-3-16s-3-36.5-3-47s-1.5-32-5-55s-17-129.5-20.5-161s-11.5-137.5-12-164.5s0.5-168,1.5-218
		s8-189,12-236.5s18-216,22-245.5s18-125.5,27.5-160s36-115,44-134s27-60,31-70s18-36.5,23-44.5s17-24,23.5-26
		S1537.5,1280,1537.5,1280z"/>
</g>
<g id="arm-left">
	<path class="st7" d="M2662,1297c0,0,12.7,1.7,19.7,5.7s15.3,12,19.3,20s8,17.3,12.3,24s6.3,9.3,8.3,15.7c2,6.3,13.3,32.7,18.3,46
		s13.7,29,28.3,74c14.7,45,18.3,67.7,20.7,80c2.3,12.3,9.7,62.7,13,83s15,114,15,114s13,106.7,15,130s10,114.7,10,114.7
		s5.7,83,6.3,97.3c0.7,14.3,5.7,88.3,7,120.3s3,73.3,2,121.3s-2.7,109-4.7,153.7s-12.7,164-16.3,196.3c-3.7,32.3-16,149-17.3,160.7
		s-8.7,86.3-10.3,103.3c-1.7,17-5.3,54.3-5,61.3s1,41.7,1,46s-0.3,27.3-4,23.7c-3.7-3.7-10.7-16.3-13-16.3c0,0-18.3,11.7-19,15.3
		c0,0,4-20,2.3-21.7s-7-2.7-7-2.7s-66-14.3-91.3-19s-100.3-18.3-112.7-20.7s-19.3-2-20.3,1s-2,9-2,9s-7.3-5-6-16s8.7-49.3,12-75.7
		c3.3-26.3,16.3-158,18.7-182.7c2.3-24.7,12.3-128,12.3-128L2586,2520c0,0,3.7-56,4-59.7s3-13.7,3.3-20s1-36.3,1.3-54
		s-2-95.7-1.7-122.3s1.3-57.3,1.7-71.7c0.3-14.3-0.3-43.3-0.3-43.3s-1-52.3-1.7-62.3s-0.7-20.7-2-26.3c0,0-1.3-2.7-1.3-7.7
		s-0.3-35.7-0.3-54s1-94.7,2-118s2.3-63.3,6.3-86.3s5.3-36.3,7-39.3s2-10.3,2-10.3s-0.3-10-2.7-21c-2.3-11-2.7-50.3-2.7-50.3
		s0-39.3,2.3-87.3s2.7-60,5.7-87s13.7-90.7,17.7-105.3c4-14.7,10.3-35.7,12.3-47s9.7-30,14.3-38.3C2658,1300,2662,1297,2662,1297z"
		/>
</g>
</svg>
