<?xml version="1.0" encoding="utf-8"?>
<!-- Generator: Adobe Illustrator 21.1.0, SVG Export Plug-In . SVG Version: 6.00 Build 0)  -->
<svg version="1.1" id="Layar1" xmlns="http://www.w3.org/2000/svg" xmlns:xlink="http://www.w3.org/1999/xlink" x="0px" y="0px"
	 viewBox="0 0 4160 6240" style="enable-background:new 0 0 4160 6240;" xml:space="preserve">
<style type="text/css">
	.st0{fill:#525556;}
	.st1{fill:#6F7377;}
	.st2{fill:#A1A5A8;}
	.st3{fill:#D3D9E0;}
	.st4{fill:#8F9499;}
	.st5{fill:#9BA1AA;}
	.st6{fill:#BDC1C6;}
	.st7{fill:#A9C8DB;}
</style>
<path id="body-right" class="st0" d="M2188.3,3058.3l-124-155.3l-128.7-432.7c0,0-116.7-514.7-124.7-531.3s-23.3-257.3-23.3-294.7
	c0-37.3,16-96.7,16-96.7s-56,62-114,76.7l-3.5-0.7c0,0-30.9,12.6-34.4,14.2s-50.1,19.9-54.1,21.6s-22.4,8.6-25.8,10
	s-51.9,21-55.4,22.4s-30.6,11.4-35.1,13.1s-70.8,27.4-73.6,28s-63.6,22.4-69.2,23.5s-48.2,14.5-51.8,15.8s-53.5,21.1-57.2,23
	c0,0-6.2,4.2-5.8,6s12.8,78,21.2,89.8s35.5,148,37.5,154.5c2,6.5,9.2,85.5,13,97s15.8,177,15.8,177s41.1,370.2,50.4,385.5
	s41.1,29.5,41.1,29.5s2.2,0.5,3.4,3c1.2,2.5,18.5,32.3,20,35.7c1.5,3.3,9.8,18.5,12.8,24.8s22.3,50.3,23.7,56.8
	c0,0,12.3,40.5,12.5,41.3s11.8,46.7,11.8,47.7s6.3,40.3,6.5,42.5s7.3,61.3,7.3,65s1.2,62.7,1.3,63.7c0.2,1-4.2,108.7-7.2,130
	c0,0-22.3,140.3-28.7,155.3c0,0-9.5,39.4-10.3,41.2s-5.5,8.5-6.5,9.6s-9.4,14.9-10.5,17.6s-2.9,8.8-3,12s-0.2,9.4-0.6,10.5
	s-27.4,88-28.1,103.8c0,0-6.2,29.2-6.2,34.2s-0.8,10.2-0.8,13.5s-1.2,14.8,7.2,12.8l-0.8,2.2c0,0-11.3,60.3-13,66.7
	c-1.7,6.3-19,93.3-19,93.3L1345,3941l-14,238l-1,26.7c0,0,3.3,3,10.7,4c7.3,1,11.3,2.7,12,5s4.7,16,4.7,16s-3.7,35.3-3.3,36.7
	c0.3,1.3,1.7,2.7,1.7,4s0,3-1,4s-10.3,5-10.3,5s27.3,66.7,27.3,67.7s10,26.3,10,26.3s0.7,7.3-10.3,7.7l14,75.3
	c0,0,38.3,11.7,99.7,17.7c0,0,178.7,18,181.3,18.7c2.7,0.7,106,12.7,170-36.7c0,0,38.7-32,44.7-41.3s26.7-38,31.3-46
	c4.7-8,22.7-48,23.3-52c0.7-4,4.7-14.7,6.7-18.7s18-40.7,20-46.7s28.7-88.7,36.7-121.3s35.3-124,35.3-126s46-218.7,46-218.7
	l29.3-148l2-118.7c0,0,1.3,6,0-4s17.3-272.7,17.3-280s0-26,2-37.3s10-12,22.7-16c11.5-3.6,49.3-50,49.3-50L2188.3,3058.3z
	 M2046.9,3582.2c-21,0-38.1-17-38.1-37.9s17.1-37.9,38.1-37.9c21,0,38.1,17,38.1,37.9S2067.9,3582.2,2046.9,3582.2z M2188.2,3132.4
	c-1,1.1-1,1.8-2.4,1.8s-2.2,0.5-3.1-0.5s-1.2-2-1.2-2l-39.2-2.9c-6,16.5-23,28.4-36,28.8c-28.4,0.9-40.6-18.1-39.3-41
	c1.2-22.6,17.5-39.1,39.3-41c24.9-2.1,35.4,13.4,37.7,32.4l1.4,0.1c1,0.1,17.5,1.1,20.6,1.6s19.6,1.5,21.5,1.9s2-0.6,2.9,0.8
	s3.1,5.8,2.4,9.8S2189.2,3131.2,2188.2,3132.4z"/>
<path id="collar-right" class="st1" d="M1854.3,1481.3c0,0-24.7,19.7-40,42.3c0,0-43.3,55.3-88.7,80.7L1673,1630
	c0,0-24.7,25.3-26.3,28c-1.7,2.7-16.7,17.3-16.7,17.3s-9.7,10,0,13c0,0,20.7,11,26,13.7s37,18,38,20.3s7,1.7,7,1.7s39-21.3,45-25.3
	s39.7-30.7,45.7-36.3c6-5.7,28-31,34.7-35.7s22-11,22-11s-8.3-46-8.3-52.3C1840,1557,1835,1522.7,1854.3,1481.3z"/>
<path id="lapel-right" class="st2" d="M1848,1611c-2,0-8-2-13,0.7s-11.3,6-16,8.7s-51.3,52.3-59,58.3c0,0-9.7,7.7-15,10.3
	s-6.7,2.7-11,6.3c-4.3,3.7-24,16-28.7,19.3s-14.3,10.3-18,12s-58,30.7-63.7,33.3c-5.7,2.7-26,8.7-22,26.3c0,0,15.7,72.7,16.7,76.7
	s19.3,68,21.7,76.7c2.3,8.7,32.7,101.7,35.3,111.3c2.7,9.7,50.3,163.3,53.3,172s36.7,113.7,39,119c0,0,13.7,37,15.7,41.7
	s4.3,10,8.3,18.7s41.3,106,45.3,114s34.3,88.7,36.7,94c2.3,5.3,39,86.3,43,94.3c0,0,15.7,30.7,17.3,35.7s39,87.3,41,90.7
	s38.3,79,42.7,86.3c4.3,7.3,38,69.7,47,79.3l27.3,29.3l32-50.7l-27-42c0,0-16.3-59-19.3-70s-25.3-114.7-25.3-114.7l-25.3-109
	l-50.7-196.3c0,0-9-32.7-9.3-37s-38-201-38-201s-26.7-133.3-31.7-167.7c0,0-20.3-136.3-20.7-159.7c0,0-15.3-177.3-15.7-184.7
	C1860.7,1686,1848,1611,1848,1611z"/>
<path id="arm-left" class="st3" d="M2950.2,1819.2c0,0-11.2,20-13.5,25.5s-14.8,39.5-18,47.5s-9.2,23.5-9.8,26.8s-0.5,4.8-1.2,7.2
	s-4.2,10.5-5.5,12.8s-10.2,33.8-12,39.8s-9.5,46.8-10.5,50.5s-12,87-13,91.5s-5.8,47.2-6.5,52.5s-3,43-4.2,47.5s-5.2,15.8-6.8,21
	c0,0-8.8,31-10.5,40s-9.8,44.2-10.5,50.8s-5.2,32.5-5.5,43.8s-2,53-2,53.8s-1,47.5-1,52.2s-1.8,28.2-2.5,34.2s-7,53.2-9,60.2
	s-18.2,76.8-19,78.8s-7.5,22.2-7.8,26.2s1,16,1.2,19.5s5.2,60.8,5.8,62.8s6.8,80,6.5,85s3.3,71.3,3.7,72.3c0.3,1,3.7,91,3.7,93.3
	s-0.3,32.2-0.3,33.5s2,148.8,2,153.8s-4,147.5-4.8,155s-3.5,70.2-4,76.5s-8,104.8-8,104.8s-6.5,74.2-6.8,78.5s-7.5,68.8-7.8,72.2
	s-9.8,73.7-10.4,76.3c-0.7,2.7-2.3,66-3,71.7s-9,103-10.3,108s-7,63-9,75s-19,200-20,209s-3,30.3-2,32s3.8,8.8,6.2,10.5
	c2.3,1.7,4.8,3.5,6.7,3.3c1.8-0.2,1.8-0.2,1.8-0.2s-0.7,0.7,0,0s2.5-22.2,9-24c0,0,8.2-7.7,52.5-5c0,0,82.6,9.3,93.1,11.3
	s105.5,18,122.2,20.8c0,0,47.5,10.8,50.5,13c0,0,2.8-0.2,1.8,3.8s-5,13-7.2,15.2s-6,5.2-8,6s-7.2,1.5-9.8,1.2s-4,0-4,0l-0.8,8.5
	l1.8,1.5c0,0,3.2,1.5,7,0s19-8.8,23-23.5l1-0.2c0,0,6,41.8,15.5,32.2c0,0,2.5-1.5,4-4.8s7-20,9-26s2.2-47,1.8-52s-0.2-54.5,0.8-70.8
	s0.5-109,0.5-109.8s0.5-64,0.5-65.8s1.2-44.5,1-48.2s1-76.5,1-79.2s0.8-48.8,1-52.2s2.2-58.2,2.2-62.5s1.2-38.8,1-41.8
	s1.5-55.8,1.8-60s2-29,1.5-36s0.8-29.8,0.8-33.5s3.7-74,3.7-86s2.7-108.7,3.7-113.3c1-4.7,4-77,4-80s4.3-98,5-102s3.7-103,4.3-109
	c0.7-6-4-176.3-4.3-182.3s-7.3-146.3-7.7-151.7c-0.3-5.3-0.3-7-0.3-7s-7.3-98.3-8-104s-6.3-70.3-6.7-72.3c-0.3-2-13-167.7-13.7-173
	s-23.3-198-38-271.3s-45.3-264.7-50-274.7s-7.9-28-39.5-44.7l-8.8-3.5L2950.2,1819.2z"/>
<path id="body-left" class="st4" d="M2953.5,1821c0,0-5-2-6.5-3s-111-38.5-119-42s-160.5-62.5-170.5-67s-138-62-138-62
	s-27.2-6-39.5-13.7c-12.3-7.7-74-68.7-74-68.7s-15,98.3-16.3,109.7c-1.3,11.3-44,386.7-44,386.7l-107.3,416.7l-81.3,284.7
	c0,0-87.3,281.3-92.7,296.7c-5.3,15.3-11.3,66.7-18,134s17.3,235.3,17.3,235.3s20,102,21.3,105.3s21.3,144.7,21.3,154
	s30,182.7,30,182.7s33.3,196.7,37.3,234c4,37.3,40.7,128.7,52,168.7s64.7,126.7,64.7,126.7l17.3,19.3c42.7,62.7,116.7,76.7,124,78.7
	s26.7,6.7,28.7,6s21.3-0.7,21.3-0.7c109.3,6,183.3-8,183.3-8c50.7-8,51.3-14,51.3-14l16-85.3c-30.7-12,6.7-69.3,6.7-69.3l-2-3.3
	c-10.7-9.3-6-39.3-6-46s5.3-22.7,8-25.3c2.7-2.7,13.3-4.7,13.3-4.7s30.7-250,30-276s-20-192-20.7-202.7s-4-104-4-108s-6.7-70-6.7-70
	c-1.3-18.7-10-62.3-10-63.3s0-2.7,0.3-4.3c0.3-1.7,0.7-7.7,0.7-10.7s0-2.7-1-5.3c-1-2.7-2-5.7-2-5.7c-0.7-10-7.3-35.7-7.7-38.3
	c-0.3-2.7-11.3-35-11.3-35c-7-17-11.7-64.7-12-70.3c-0.3-5.7-8.3-70-8.3-72.3s-2.3-69.7-2.7-72.7s1-76.7,1-81.3s1.7-53.3,2.3-61.7
	c0.7-8.3,8.3-87,8.7-90s8.3-54.3,9.3-61.7c1-7.3,9.7-51.3,10.7-55.7s14.7-61,14.7-61c14.3-53.7,28.3-91.3,28.7-92.8
	c0.3-1.5,7.8-23.2,8.3-24.5s45.3-82.2,49.3-100.2s8.5-200,12-223.5s30.5-115.5,37.5-128.5s30.5-248,40-266.5s35-136,35-136
	L2953.5,1821z M2067,3116.5c1.2-22.6,17.5-39.1,39.3-41c19.7-1.7,30.4,7.7,35.1,21.1l-0.5,0c0,0,7.7,20.1-1.5,38.1l0.4,0.1
	c-7.4,13.3-21.9,22.4-33.4,22.8C2077.9,3158.4,2065.7,3139.4,2067,3116.5z M2549,1860.5c-0.2,0.7-0.8,1.5-1.7,1.7
	c-0.8,0.2-4-0.2-4.5-0.2s-1.7,0.2-2.5,0s-4.7-1.5-5.2-2s-46.8-23.8-48-24.7c-1.2-0.8-12.3-5.8-12.3-5.8s-2.3-1.7-2.3-2.7
	s-0.2-12.2,2.8-12h1.8c0,0,5.3,3,8.5,4.7s52.7,28,53.3,28.5s4.7,3,5.7,3.7c1,0.7,2.7,2.2,3.3,3.7S2549.2,1859.8,2549,1860.5z"/>
<path id="collar-left" class="st5" d="M2351,1497.7c0,0,11.7,28.7,12.7,36.7c0,0,7.3,22.7,5,54.3c0,0-6.7,55.3-6.7,58.7
	c0,3.3-1.3,9.3-1.3,9.3s2.3-9.3,11.3-6s35,22.7,57.3,35s77.7,59,77.7,59l12.8,10l9.8-9.5l36.8-26l16.2-14.2c0,0,14.7-7.3-6.7-17.7
	c0,0-50.2-35.5-53.8-38.5c0,0-62.7-37.6-87.4-62.6c0,0-35.2-31.2-42.5-44C2391.5,1540.5,2379,1513.6,2351,1497.7z"/>
<path id="lapel-left" class="st6" d="M2618.7,1800.3c-0.3-1-1.7-6.7-21.3-17.3c0,0-42-22.3-46.3-24s-22.7-10.3-28-16
	s-31.7-22-35.3-23.7c-3.7-1.7-16.3-11.7-20-14.3c-3.7-2.7-24.3-21-27.7-23s-19.7-13.7-21.3-14.7c-1.7-1-16.3-12-21-15
	s-7.7-1-10.3-4.7c-2.7-3.7-8.3-7-12-6.3s-14.7,3-16,5c0,0-5,77-5,80.7s-4,51-4,55s-1.3,58.3-2.3,62.3s-9.7,75.3-12.7,86.7
	s-21.7,137-26.7,153s-26,129-27,132.7s-26.3,125-26.3,126l-25.7,101.3c0,0-19.7,72.7-21,76.3c-1.3,3.7-42,157.7-42.3,159
	c0,0-40.7,154.3-40.7,155.3s-23.3,83.3-23.3,83.3s-18,63.7-18.7,65.7s-17.3,65-18.3,71s-4,22-4,22s23-59.7,24-62.3
	c1-2.7,57.3-111.3,59.7-116c2.3-4.7,45.7-76,45.7-76l42-76c0,0,40.3-77,44-81.3s16.7-28.3,18-30.7c1.3-2.3,21.7-44.3,23.3-48
	c1.7-3.7,26.7-56.3,29.7-61.7c3-5.3,35-77.3,38.3-84.7s26-54.7,26.3-56.7c0,0,23-51,24-52.3s12.3-29.7,19.7-43.3
	c7.3-13.7,26.7-59.3,27.7-62.3c0,0,20.7-57.7,28.3-78.3s32.3-96.7,32.3-96.7s28.7-91.3,33-103.3s18.7-60.3,21.7-69
	s12.7-43.3,13.7-49S2619,1801.3,2618.7,1800.3z M2549,1860.5c-0.2,0.7-0.8,1.5-1.7,1.7c-0.8,0.2-4-0.2-4.5-0.2s-1.7,0.2-2.5,0
	s-4.7-1.5-5.2-2s-46.8-23.8-48-24.7c-1.2-0.8-12.3-5.8-12.3-5.8s-2.3-1.7-2.3-2.7s-0.2-12.2,2.8-12h1.8c0,0,5.3,3,8.5,4.7
	s52.7,28,53.3,28.5s4.7,3,5.7,3.7s2.7,2.2,3.3,3.7S2549.2,1859.8,2549,1860.5z"/>
<path id="arm-right" class="st7" d="M1211.9,1803.8c0.3-0.5,0.7-1,1.2-1.2c4.7-2.4,30.4-14.5,36.6-3.6c7.5,13.2,18.6,56,26.7,69.3
	c7.7,12.7,32,109.3,38,125.3s10.7,56.7,13.3,72.7c2.7,16,4.6,69.9,14,121.9c0,0.1,0,0.1,0,0.2c0.4,2.7,8,58,9.3,89.9
	c1.3,32.6,8.6,218.2,18,261.2c0,0.1,0,0.2,0,0.3c0.4,4.8,9.7,114.3,25.3,171.7c0,0.1,0,0.2,0.1,0.2l8.4,22.7c0.1,0.3,0.2,0.7,0.2,1
	c-0.2,3.9-1.3,27.4-0.6,34.1c0.7,7.3-12.7,332.7-13.3,353.3s-18.7,442.7-18.7,455.3c0,12.7-13.3,287.3-12.7,291.3c0.7,4-2,16,0,20.7
	s5.3,13.3,4,20s-0.7,88-1.3,96.7c-0.7,8.7,7.3,201.3,6,208c-0.9,4.5-2.4,10.2-3.3,13.4c-0.6,2-3.2,2.6-4.6,1
	c-0.1-0.1-0.1-0.2-0.2-0.3c-0.4-0.5-0.5-1.1-0.5-1.7c0.1-2.1-0.5-7.3-7.4-10.5c-8.7-4-38.7-10-148,6.7l-118.6,18.7
	c-0.1,0-0.1,0-0.2,0c-1.9,0.4-38,8.6-39.9,8.6c-2,0-4.7-0.7-4.7,1.3s-1.3,10-0.7,13.3c0.7,3.3,0,6,3.3,6.7c2.4,0.5,4.1,2,4.9,2.8
	c0.3,0.3,0.5,0.7,0.6,1.2c0.3,1.3,0.8,4.2-0.2,6.7c-1.3,3.3-2.7,9.3-4.7,6.7c-2-2.7-7.3-10.7-16.7-14c-9.3-3.3-12.7-6.7-18-9.3
	c-5.3-2.7-6-1.3-7.3-4c-1-2-2-4.5-2.5-5.5c-0.1-0.3-0.2-0.7-0.2-1l2-172.1l6-438c0,0,12-524.7,14-533.3c2-8.7,20.7-266.7,27.3-310.7
	s37.3-346,38.7-352.7c1.3-6.7,38.7-296,39.3-305.3c0.7-9.3,27.3-174,46-227.3C1171,1916.3,1206.8,1814.7,1211.9,1803.8z"/>
</svg>
