<?xml version="1.0" encoding="utf-8"?>
<!-- Generator: Adobe Illustrator 21.1.0, SVG Export Plug-In . SVG Version: 6.00 Build 0)  -->
<svg version="1.1" id="Layar1" xmlns="http://www.w3.org/2000/svg" xmlns:xlink="http://www.w3.org/1999/xlink" x="0px" y="0px"
	 viewBox="0 0 4160 6240" style="enable-background:new 0 0 4160 6240;" xml:space="preserve">
<style type="text/css">
	.st0{fill:#888888;}
	.st1{fill:#A4BAB9;}
	.st2{fill:#E8E8E8;}
	.st3{fill:#636868;}
	.st4{fill:#C6C7CC;}
	.st5{fill:#CBD2D3;}
	.st6{fill:#CDD3D3;}
	.st7{fill:#929A9B;}
</style>
<path id="pants" class="st0" d="M1772.2,3665.8c0,0-4,52-4.5,54.5s-1.2,11.2-3.8,12s-7.8,1.2-10.2,0.2s-2.5-1-5.8-3.2
	s-10-7.5-11.8-9.5s-10.5-8.5-10.5-8.5s-4.2,11.8-6.5,17.5s-16.2,18-22.8,18.2s-17.5-1-17.5-1s-5.8,14.8-7,16.2s-1.2,4.2-5.8,6.5
	s-10,3.2-12.5,4.2s-7.2,2.8-7.2,2.8s6.8,140,7,146.5s6.2,153,6.2,154s2.5,69.2,2.5,74s1.8,116.5,3,125.2s-1.5,10.8,0,14.8
	s2.5,12.8,2.8,17.5s2.5,67.5,2.8,74.8s5.2,81.2,5.2,85.2s4,68,4.2,70s1.2,21.5,1.2,23.2s2,83,2.2,88.2s1.5,36,2.2,38.8s1.8,8,2,10.5
	s0.8,44.2,0.8,47.2s1.2,26.5,1.8,29.2s1.8,31,2.2,36.5s2.2,90,2.8,96.5s2.2,97.8,2.5,100.2s8,167.8,8,173s1.2,51.8,1.5,54.8
	s0.8,53.2,1.8,63.8s1.5,46.2,2.2,52.2s4.5,87.8,5.5,91.8s16,167.9,16,171.2s2.7,50.7,2.7,50.7s-0.3,14.3,0,16.2
	c0.3,1.8,2,18.3,2.2,21.5s3,15.7,5,18.5s5.8,6.7,6.7,8.8c0.8,2.2,4.5,8.3,6.2,11.3s7.5,12.8,10.2,15.7c2.7,2.8,14.2,14.5,17.3,15.7
	c3.2,1.2,10.3,3.2,18.7,3.2c8.3,0,13.5-1.8,16.5-1.8s12.2-3.8,14.5-5.3s4.2-4.2,6.5-5c0,0,11.7,0.7,14.8-0.5
	c3.2-1.2,4.7-3.2,9.8-4.3s10.7-1.3,14.7-2s15.2-2.8,23-3.2c7.8-0.3,10.5-1,15-2.2s20-5.8,26.3-8.5s18-9,21.2-12.7s10.7-11,12-13.3
	c0,0,6.2-20,7.7-25s5.8-27,7.2-32.5s1.8-13.8,2-17.5s1-45,0.8-47.2s0.3-39.2,0.8-42.7s2-53.2,2.2-55.3c0.2-2.2,2-44.5,2-47.7
	s0-46.5,1.2-54.8s2-42.2,2-45.2s0.5-39.8,1.3-45.5s1.8-50.3,1.5-53.2c-0.3-2.8-0.3-2.8-0.3-2.8s1.2-48.3,1.3-51.5
	c0.2-3.2-0.2-70.2-0.2-70.7s3.5-42.2,4-45.8c0.5-3.7,4.2-33.8,4.2-38.2c0-4.3,6.5-55.5,6.5-56.8c0,0,4.7-46.5,5.8-51.2
	c1.2-4.7,6.7-56.3,7.2-59.7s7.7-63.7,7.8-65.8c0.2-2.2,7.7-54.7,7.8-57.7s5.2-52.2,5.8-53.8c0.7-1.7,4.7-36.2,4.7-36.2
	s5.2-39.8,5.2-42.5s4.5-44.8,4.2-45.8s-0.5-2-0.5-2s3.2-75,3.2-77.5s3.2-67.2,3.3-71.8c0.2-4.7,2.3-42.2,2.8-47.5s3-44.2,3.3-48
	s2.5-42.2,2.7-47s4-42.7,4.2-44.8c0.2-2.2,3.8-43.2,4.2-47s3.8-39.7,4-41.5s6-68,6.5-74.5s5.5-45,5.5-54s3-62,2.5-67.5
	s3.5-40.5,5-48s13-76.5,15-89.5s3.5-26.5,4-40s11-53,11.5-66s3-26,3-26l2.5-20.5l45-2l3.5,22.5c0,0,6.5,23.5,7.5,28s4,37,6.5,45.5
	s13,47.5,14.5,55.5s9.5,47,11.5,59.5s14,102,17,113s8.5,39,10.5,47.5c0,0,4.5,26,5.5,33.5s8.5,72.5,11,84s10,60.5,11.5,73.5
	s9.5,94.5,12,132.5s16,187.5,16.5,194s24,248.5,26,266.5s8.5,106,8.5,106s18.5,213.5,19,226.5s24.5,316,26.5,326.5
	s23,264.5,23,264.5s3.5,18,9,22.5s30.5,16.5,35,20s13.5,10.5,17,11s29.5,8,37,11s10.5,5,18.5,5.5c0,0,18,0,23.5-3s37-18.5,46-22.5
	s31.5-21.5,40-27s13-13,19-15.5s7-2.5,8.5-5s9-18,13-22s3-4,2-6.5s-0.5,3.5-2.5-9s-3-90.5-3-93s-4.5-160.5-3-176s1-104.5,1-111.5
	s9-308.5,9-317.5s9-286,9.5-296s1.5-180,1.5-192.5s-7-306-7.5-314.5s2.5-343.5,2.5-352.5s-1-79.5-1-79.5s-8,4-12.5,3.5
	s-13.5-4.5-13.5-4.5s-6.5,5.5-12,5.5s-16,1.5-20-2.5s-10.5-10-11-15s-0.5-14,0.5-17.5s1-6.5,1-6.5s1-2-5-2s-19.5,1-27-1
	s-14-2.5-17-9.5s-3-18-3-19.5s2-4-2.5-2s-11.5,5-15,6s-18,4.5-26,6s-11.5,1.5-11.5,1.5l-1-10.5c0,0,2-11,2-14s-1-17-1-17l6-57.5
	L1758,3622c0,0,16,31.3,15.7,35C1773.3,3660.7,1772.2,3665.8,1772.2,3665.8z"/>
<path id="body-left_1_" class="st1" d="M2203.3,2259.5c-42.7-55.4-186-449.9-204-503.9s-66-174-66-174l10.9-67c0,0-7,18-11.7,27
	s-32,27.7-33.7,29s-10.9,3.8-10.9,3.8s-45,25.5-46.8,26.2s-33.2,10.8-38.2,12.4c0,0-71.9,22.8-73.8,23.4h-0.5
	c0,0-41.2,14.7-42.2,15.2s-48,16.5-51.2,17.8c0,0-63.3,24.2-68.5,25.5s-43.7,12.8-48.5,14.7c0,0-13.8,5.5-16.3,7s-3.5,2.3-6.3,2.7
	c-2.8,0.3-4.3,0.3-5.5,1.3s-3.2,6-3.2,6S1577,2015,1581,2043s56,352,56,352l2,34l4.9,0.1h1.2c0,0,0.1-0.8,1.6-0.8s3.2-0.2,4.4,0.5
	s5,5,6.5,7.5s4.1,5,5,7s3.4,11.8,3.6,15.1s2.8,22.6,3.2,25.9s4.6,40.2,5.2,44.8s3.9,45.5,3.9,46.9s3.4,33.5,3.5,36
	s3.2,27.4,3.5,30.5s5,37.2,5.2,38.9s2.5,19.1,3.2,23.2s0.5,26.4,0.1,31.6s-1.5,18.9-2,23.1s-2,16.8-2.5,20.9s-2.6,18.8-3,22.2
	s-3,23.2-3.5,26.4s-2.9,20.1-3.9,23s-3.2,11.1-3.6,12.4s-3,14-3.6,16.1s-1.2,4.4-1.9,7.4s-0.9,6.8-1.5,9.1s-1.2,5.4-2,7.2
	s-4.6,13.5-5.9,16.6s-7.4,15.1-8.4,18s-6.1,12.8-6.6,15s-1.6,5.9-1.5,7.4s1.8,1.5,1.8,2.6s0.5,1.8-1,2.6s-9.6,3.9-9.6,3.9v36.2
	l3.5,73.5l25.5,188.5l18,70.5l-28.5-2.5l-5.5,5.5c0,0,11.5,50,10.5,52.5s-4,20-4,22.5s-1.5,14,1,17s7.5,14,14,29s55,120,64.5,130.5
	s22.5,24,23.5,28.5s4.5,22,4,26s-0.5,3.5-0.5,8.5s6,9.5,6,9.5l80.5-1c0,0,70-0.5,81.5-3.5s21.5-8,21.5-8l450.3-8.2
	c0,0,26.4-868.2,31.7-904.3C2445,2659,2256.1,2328,2203.3,2259.5z M1832.4,2376c-16.2,0-29.4-13.9-29.4-31s13.2-31,29.4-31
	s29.4,13.9,29.4,31S1848.6,2376,1832.4,2376z M2052.6,3034.4l-0.4,2.4c0,0-0.7,2.2-0.9,2.3s-0.8,0.9-0.9,1.1s-0.8,0.4-0.8,0.4
	s-0.2,0.1-0.4,0.1s-0.4-0.2-0.8-0.6s-2.3-2.4-2.6-2.6s-0.1-0.2-0.8-0.5s-8.3-1.4-8.6-1.4s-7-0.2-8-0.4s-37.1-3-37.7-3
	s-1.8-0.1-3,0.1s-5.4,1.6-6.6,1.7s-2.4,0.3-2.8,0.3s-2.3-0.5-3.1-0.7c0,0-2.1-0.9-3.2-3.8s-2.6-10-2.6-10s-1-2.9,1.6-4.4l4-2.3
	c0,0,5.8-0.4,6.1-0.2l0.2,0.1l2.9,2.3l3.6,3.4l26.1,2.3l13.3,1.2l18.9,3.2l4.5,0.8c0,0,1.6,0.8,2.2,3.5
	C2052.8,3029.7,2053,3032.6,2052.6,3034.4z M2064.5,2671.5c-0.7,0.7-1.3,2.2-2.3,2.3c-1,0.2-5.5,0.5-7.3,0.2s-3-0.3-4.5-0.8
	s-2.2-2.2-4.5-2.3c-2.3-0.2-10.5-0.2-12.5,0s-3.2,0.2-4.8,0.3c-1.2,0.1-4.5,0.2-6.2,0.3c-3.8,12.2-14.5,21-27.1,21
	c-15.8,0-28.6-13.9-28.6-31s12.8-31,28.6-31c12.8,0,23.6,9.1,27.3,21.6l0.8,0.2h0.7l12.5,0.8c0,0,18.2,0.8,20.5,1.5s5.3,3.7,6,5
	s2.2,6.2,2.2,7.7S2065.2,2670.8,2064.5,2671.5z M2368.3,3052.1c-2.7,17.7-11.8,27.8-24.1,30c-13,2.3-25-13.5-25.4-29.1
	c-0.5-18,9-32,24.8-32C2359.5,3021,2371.1,3033.8,2368.3,3052.1z M2359.9,2704.7c-15.7,0-27.5-13.3-27.5-30.3s11.8-30.9,27.5-30.9
	s28.5,13.4,28.5,30.4S2375.7,2704.7,2359.9,2704.7z"/>
<path id="body-left" class="st2" d="M2784,1712.8c0,0-5.4-3.6-5.7-3.8s-10.8-6.4-13.2-7.6c-2.5-1.2-21.2-8.9-23.8-9.7
	c-6.5-1.9-35.7-11.5-33.5-10.4c-1.5-0.8-28-9.4-32.6-10.4l-30.4,110.8L2675,1671l-28-8l-76.5-23.1c0,0-45.4-12.6-49.6-14.2
	c-4.2-1.6-72.4-21.6-75.9-22.1s-14.9-4.1-16.1-4.1s-6.6-0.4-6.6-0.4l-71.2-25l-24-8.7l-13.3,30.7c0,0-28.7,129.3-37.3,160.7
	c-8.7,31.3-75.3,258-80,278s-65.3,196-74,213.3c0,0-86,210.7-94.7,230s-59.3,153.3-59.3,153.3l-6.3,5.7l-8.7,21.7
	c0,0-3.2,7.6-3.5,15.2s-2.1,25-2.1,27s-1.9,21.2-2,25s-1.2,17-1,19.6s-1.8,23.8-1.9,27.5s-2.8,42.8-2.6,46.2s-1,26-0.9,28.1
	s-1.6,28.9-1.6,31.9s0,12,0.8,20.2s1.5,13.2,1.8,17.8s-0.2,23.5-1,32s-4,48.2-4.2,54.8s-2.8,30.5-3.2,39s-2.8,26-3,32
	s-2.5,23.8-3.5,31.5s-4.5,48.8-5,53.8s-3.8,62.2-4.2,69.2s-3.5,51-5,59.5s-5.8,68-6.5,76.5s-7,71.5-6.5,80.8s-2.1,27-2.2,30.6
	s0.4,29.8,0.5,33.5s-0.1,27.9,0.2,31.8s0.2,40.9,0.5,47.6s0,49-0.2,53.5s-2,6.5-0.5,8s8,4.5,13,5.8s50.6,9.2,58.5,10.1
	s67.1,8,70.4,8c0,0,72.7,5.3,85,6l-0.1,0.3c0,0,94.3,0.7,101.8,0.7s113.8-0.5,113.8-0.5s124.3-1.7,127.7-1.7c3.3,0,17-1.3,23-2.5
	s14-4.2,18-5.3c4-1.2,18.5-6,20.2-6.5l2.8-1l2-14.3c0,0,6.3-40.3,7-42.3s7.7-14.7,10.3-18.3c2.7-3.7,28.7-58.7,31-63.7s9-14,6.7-14
	s-10.7-4.3-10.7-4.3l15-16.7c0,0,41-55.7,47.3-64s8.3-15,9.7-18c1.3-3,0.3-10.7-0.7-12.3c-1-1.7-0.7-6-0.7-6l13-31.3l34.7-386.2
	c0,0-32.9-23-34.3-23.7s-4.8-8.1-6.5-12.5s-9.4-24-9.9-25.5s-2.2-4.2-3.2-6.2s-1.1-8.2-2.5-10.2s-4.5-15.2-6.8-22.2
	s-5.9-33.4-6-36.6s-1.8-20.2-2-26.4s-1.9-37.6-1.9-40.6s-1.4-35.2-1.4-37.4s-0.6-25.6-0.8-27.2s-0.2-39.6-0.1-40.5s0-28,0.1-28.5
	s0-24.1,0-26.1s-0.1-26.6,0-28.5s0.9-12.9,0.9-14.5s0.2-10,0.5-13.5s0.8-10.6,1.9-13.8s7.1-22.2,7.9-24.2s7.4-17.4,8.5-19.4
	s15.1-27.6,16.5-30s8.5-15.8,10-17.9s4.1-7.2,5.2-8.8s2.1-2.2,2.1-2.2l11.6-14c0,0,13.5-379.5,18-399s48.5-226,54.5-236s28-60,29-62
	s3-11,3-11L2784,1712.8z M1995.3,2630.5c10.3,0,19.3,5.9,24.4,14.8c1.4,3.2,7.2,18.3-0.4,33.2c-5.1,8.4-13.9,14-23.9,14
	c-15.8,0-28.6-13.9-28.6-31S1979.5,2630.5,1995.3,2630.5z M2368.3,3052.1c-2.7,17.7-11.8,27.8-24.1,30c-13,2.3-25-13.5-25.4-29.1
	c-0.5-18,9-32,24.8-32C2359.5,3021,2371.1,3033.8,2368.3,3052.1z M2359.9,2704.7c-15.7,0-27.5-13.3-27.5-30.3s11.8-30.9,27.5-30.9
	s28.5,13.4,28.5,30.4S2375.7,2704.7,2359.9,2704.7z M2458,1848.1c-1.2-0.4-1.4-0.8-1.9-1.2s-0.6-0.4-1-1.1c-0.4-0.7-0.5-2-0.4-2.5
	s0.8-1.4,0.8-1.4l30.9-8.8c0,0,11.8-2.2,12.8-2.1s6.8,0,7.1,0.2c0.3,0.2,1.8,1.1,1.8,1.1s0.2,0.4-0.1,1c-0.3,0.6-4.2,3.6-4.6,3.9
	c-0.4,0.3-6.5,2.6-7.5,2.9c-1,0.3-26.4,7.4-28.2,7.8s-5,1.5-6.4,1.4C2459.9,1849.2,2459.2,1848.5,2458,1848.1z M2486,2381.9
	c-16.4,0-24-10.2-24-26.5s8.4-31.1,24.8-31.1c16.4,0,26.4,11.6,26.4,28C2513.2,2368.6,2502.4,2381.9,2486,2381.9z"/>
<path id="collar-right" class="st3" d="M1955.5,1493.3c0,0-10.2,9.7-11.3,12.7c-1.2,3-12.5,28.8-15,31.7c-2.7,3.1-28,26.8-32.2,29.7
	c-3.9,2.7-38.8,24-43.5,26.7c0,0-19.8,11.3-21.8,12.8s-5.3,3.5-7.3,4.9c-1.6,1.1-12.9,14.5-14.9,17.4c0,0-25.8,31.9-27.1,34.2
	s-13.5,20-14.8,22s-11,17.9-11.9,19.4s-3.9,5.4-4.5,6.6s-2.9,7.4,2.1,10.1c0,0,16.5,3.4,19.2,3.8s27.4,4.1,31,4.8s29.4,4.2,32.1,4.6
	s17,1.4,17,1.4s39.1-45.4,43.1-47.9s42.9-48,45.2-50.4s33.5-40,33.5-40l0.8-1.9c0,0-9-21.2-11.2-27.1s-9.4-36.6-9.4-38.8
	S1952.5,1513.9,1955.5,1493.3z"/>
<path id="arm-right" class="st4" d="M1689.7,3320.3c-0.5-3.2-8.3-30.2-8.8-33.5s-9.5-49.2-9.8-55s-8-54-8-59.3s-5.3-35.3-6-40.8
	s-6.7-48.5-6.8-51c-0.2-2.5-6.3-46.5-6.7-50.2c-0.3-3.7-2.2-24.8-2.2-29.8s0.5-31.8,0.7-33.8s-0.2-4.2-0.5-5.8
	c-0.3-1.7-1.8-3-1.7-4.8c0.2-1.8-0.2-28.8-0.2-30.7s0-3.7-0.7-5.7s-0.8-4.2-0.8-5s-1-27.5-1.3-36.3s-1.8-42.5-2.2-46.3
	c-0.3-3.8-2.3-46.7-2.5-49.8c-0.2-3.2-3-56.7-3.2-63.8c-0.2-7.2-1.5-68.2-1.2-71s0-82.7,0.2-85.3c0.2-2.7,0.8-11.8,0.8-14.5
	s1.5-38.5,2.2-40.3s3.2-29,3.5-31.7s2.2-9.5,2.3-13.2s2.3-9.8,2.7-12.3c0.3-2.5,2.5-14.2,3.2-16.8c0.7-2.7,1.2-3.8,1.2-3.8
	s0.3-3.2,0.2-4.7c-0.2-1.5,0.8-14,1-17.5s-1-31.3-1.2-33.5s-5-35.7-5.5-39s-5-34.5-5.3-36.8s-6-40.8-6.3-44.2
	c-0.3-3.3-7-48.8-7.2-51.8s-7.7-58.8-7.2-62.8s-5.3-55.7-5.3-58.5s-8.5-50-11-58.8s-18.8-70.3-20.3-74.2c-1.5-3.8-12.7-41-13.8-44
	s-23.2-66.7-24.5-69.5s-23.8-64.7-24.8-67.7s-13-30.2-13.5-33s-4.2-11-5.7-12c-0.8-0.5-2-0.9-2.9-1.1l0.1-0.3c0,0-0.1,0.1-0.4,0.2
	c-0.7-0.1,0.1,0.1,0.1,0.1l-1.4,0.5c-2.9,1.5-8.7,4.4-10,5.7c-1.7,1.7-5.7,5.3-6.5,7.7c-0.8,2.3-13.8,44.8-14.5,46.2
	s-10.5,40.7-11.8,44s-10.5,41.8-10.7,42.8s-24.8,111.8-25.5,115s-14.7,82.5-16.2,88s-9,50.7-9.3,52.3c-0.3,1.7-6.2,37.3-6.2,38.8
	s0,12.7-0.5,13.8c-0.5,1.2-2.7,10.2-3.5,13.3c-0.8,3.2-5,36-6,40c-0.8,3.2-3.8,22.8-5,31.5l-0.8,3.5c0,0-5.3,52.2-5.7,55.2
	c-0.3,3-1.8,34.7-2,37s-1.7,22.7-2,28s-2.3,24.2-2.2,25c0.2,0.8-1.8,29.8-2,34.5s-2,22.8-2.3,28s-3.2,31.8-3.2,33.8
	s-0.8,19.3-1.2,21.8s-0.8,19.7-1,22s-0.5,4.2-0.8,5.8c-0.3,1.7-1.3,14.8-1.3,17s-1.2,7.3-1.3,10c-0.2,2.7-0.2,20.3-0.5,21.8
	s-1.7,14.3-2,17.3s-0.8,14.2-1.2,16.5c-0.3,2.3,0.2,26.3,0,29.3s0.7,32.7,1,35.3c0.3,2.7,4.2,40.3,4.7,45.2c0.5,4.8,4,35.2,4,39.8
	c0,4.7,2.2,41,2.2,42s5,51.3,5.2,53.8s5.8,51,5.8,54.8s4.5,41.5,4.7,45s3.8,39.3,4,42.2c0.2,2.8,6.3,51,7,54.7s7.2,49.2,7.5,53.7
	c0,0,3.8,23.7,4.2,26.8c0.3,3.2,3.2,29.3,3.5,33.2c0.3,3.8,2.5,19,2.7,25.7s0.2,18.8,0.7,20.3s2.5,6.7,2.8,11.2s0.7,28.2,1.5,33
	s2.3,12.2,2.3,15s2.5,26.5,3,32.2s1.7,28.8,1.7,32s1.3,42.2,1.5,45s0.7,35.3,0.8,41c0.2,5.7,0.8,11.8,1.3,13.8s3.2,10.8,4.2,10.7
	c0,0,2,0.5,3.5-1.2s4.8-6.5,5.3-7.8s0.8-14.3,0.5-15.2c-0.3-0.8-1-6.2-1-6.2s3-9.8,4.7-11.7c1.7-1.8,12-11.7,14.7-12.3
	c2.7-0.7,6-1.5,6.7-2s4.2-3.2,7.2-4s9.7-2.8,10.5-3.2c0.8-0.3,5.8-1.5,8.2-4c2.3-2.5,7.2-6.3,9.2-7s7.5-0.8,8.5-1.5
	c0,0,9.7-4.7,12-6.5s7-4.2,10.8-5.2s7.7-1.3,10.8-2.7c3.2-1.3,6.8-3.8,12.7-5c5.8-1.2,17.7-4,21.8-5.8s23.2-7,25.7-7.5
	s30.2-9.3,33.2-9.8s10.2-1.8,15.3-2.7c5.2-0.8,12-2.5,16.2-3.3s9.7-1.7,10.3-1.7c0.7,0,1.5,2,1.8,4s1,6.7,0.8,9.2s0.5,4.7,0.8,5.5
	s0.3-0.5,0.8,1.7s1,2.7,1.2,3.7s1.3,2.3,1.3,2.3s9.5-3.2,13.3-5.7s15.2-10.2,17.3-12.3c2.2-2.2,7-8,7-8S1690.2,3323.5,1689.7,3320.3
	z"/>
<path id="arm-left" class="st5" d="M2776.8,1709.9c0,0-2.7,2.2-3.2,3.4s-2.9,9.6-3.3,12.2c-0.4,2.6-4.2,17.9-4.7,19.2
	c-0.4,1.3-5.3,14.8-6.3,16.8s-4.1,8.2-4.8,9.7s-8.5,12-9.7,14.8s-4,6.4-5.4,11.1s-3.8,10.1-4.1,12.7s-4.6,14.5-5.1,17.2
	s-3.1,10.5-3.7,14.1c-0.6,3.6-2.4,8.8-3,12s-3.5,12.2-3.5,15.4c0,3.2-3.3,12.9-4,15.8c-0.7,2.8-2,10.7-2.2,12.8
	c0,0-6.5,33.6-6.8,36.1s-3.2,18.3-3.5,20.3s-4.4,25.2-4.6,27.9s-4.6,25.8-4.9,29.1c-0.3,3.2-2.1,11.6-2.2,13.5c0,0-4,21.5-4.2,24.2
	c-0.2,2.8-3.6,23.7-3.8,25.7s-2.6,18.5-2.7,18.9c-0.1,0.4-3.7,22.6-3.8,24.8s-2.1,19.4-2.2,20.5c-0.1,1.1-2.8,36.2-2.9,41
	c-0.1,4.8-0.4,30-0.5,31.9s-0.7,22.2-0.7,24s-0.3,42.7-0.3,44.3s-1,51.4-1.1,54.9s0.2,37,0.2,38.9c0.1,1.9-0.6,30.4-0.1,34
	s1,26.5,1.3,27.2c0.3,0.8,0.1,1.2,0.7,1.4s2.4,0.2,2.9,0.6c0.5,0.3,0,3.6,0.8,6.8s1.5,9.9,1.8,11.8c0.3,1.9,2.7,13.2,3.2,15.2
	s3.6,20.8,4.4,26.5c0.8,5.7,1.5,23,2,28.3s1.7,54.8,1.7,56.8s-0.3,61.8-0.7,68c-0.3,6.2-2.7,25.3-2.7,30.7s-1.3,36.2-1.5,38.8
	c-0.2,2.7-1,19.7-1.3,23.5s-1.5,13.5-1.7,15.2s-2.5,27-2.5,29.8s-3,32.3-3.3,34.3s-1,13.7-2,18.7s-2.7,34.5-3.3,39.5
	c-0.7,5-2.8,23-3.5,30.2s-4,40.8-4.3,43.7c-0.3,2.8-1.8,54.3-2.3,60.3s-4.3,37.5-4.5,43.2s-2.7,37.5-3.2,41.3s-5,43-5.2,47.8
	s-5.7,43-5.7,46.5s-3.2,34.8-3.5,39s-6.7,52.2-6.7,55.2s-4.5,65-5,67.5s-2.7,7.3,0.3,9.2c3,1.8,13.8,2.7,17.2,2
	c3.3-0.7,13.7-2.2,18.7-2s40.7,5.2,47,7.3c6.3,2.2,22.8,5.2,26.8,5.3c4,0.2,14.7,0.3,17,1.2s17,4.3,19.3,4.8s13.7,1,16.8,2.2
	c3.2,1.2,6.8,2.8,10.7,3c3.8,0.2,5,0.2,6.7-0.7c0,0,2-1.2,4.4-0.7s6.5,2.6,9.2,2.9s7.1,1,11.4,2.2s10.8,3,14,3.6s8.5,1.5,9.1,2.1
	s0.5,1.4,5.1,2s12.9,1,15.8,1.8s9.5,2.2,9.5,2.2s9.1,0.5,10.6,1.4s1,1,3.2,1.1s7.4,1.6,9.5,2.1s5.9,3,7.5,3.8s2.8,0.6,3.2,1.4
	s1.4,1.6,0.4,2.5s-4.6,2.9-5.2,3.5s-1.2,0.9-4.1,0.9s-7,0.2-9.6,0.4s-3.1,0.4-6.5-0.8s-5-3-9.4-3.6s-16.9-1.1-19.9-1.6
	s-6.1-1.2-10.6-1.4s-15.2-1.8-16.5-2s-11-1.1-14.2-1.2s-6.9-0.9-8.8-0.9s-7.1,0.8-7.1,0.8s0.9,3.5,1.5,5.4s1.8,5.5,2.6,6.9
	s2.5,4.6,3.5,7.9s0.9,7.5,1.1,8.8s1,3.4,2.1,4.4s10.9,3.8,16.1,4.5s17.4,2.4,22,2.6s35.6,0.4,37.1,0.4s4.8,0.5,7.8-0.9
	s8.6-5.4,10.8-6.9s9.5-8.6,12.6-10s5.2-3.5,6.8-2.6s2.8,5.4,3.5,7.8s4.4,12.2,5.8,13.4s3,2,3.8,1.5c0,0,1.5,0.9,2-0.8
	s0.8-24.2,0.6-28s-0.8-29.7-0.6-33.5s-2.2-32.2-1.5-37.5s0.5-6.5,0.8-8.6s0.1-20.4-0.1-24s1.1-7.4,1.4-10.2s0.9-19.8,0.9-23
	s0-31.5,0-33s-0.4-5,0.1-7.4s1.4-6.8,2.6-10.4s4.5-14.2,4.8-17.5s1.2-13.1,1.5-14.8s0.8-6.4,0.8-8.1s1.5-8.2,1.9-9.8s0-2.8,0.1-6
	s2-11.4,2.2-14.6s1.8-12.6,1.8-13.2s1.2-4.8,1.1-8.8s0.4-21.8,0.5-23.2s1.6-7.8,1.6-10s-0.1-19.2,0-22.4s1.2-10.9,1.2-13.2
	s1-8.4,1.4-10.8s2.1-22.9,2.2-25.2s1.6-8.5,1.6-11s1.4-11.9,1.5-14.2s0-9.8,0.5-12.1s2-5.5,2.4-10.8s1.5-11.4,1.5-14.9
	s0.9-11.9,1.1-15.9s0.9-15.4,1.1-19s1-9.6,1.1-12.4s1.1-19.5,1.5-24.5s1.2-17.9,1.5-20.9s1.4-15,1.5-17.9s0.6-17.9,0.8-20
	s1.4-11.4,1.4-14.8s1.1-21.5,1.4-25s1-20.2,1.1-22.1s0-21.6,0.1-24s0-16,0-18.2s0.9-22,0.8-24.2s-0.6-33.4-0.6-35.2
	s-0.1-16.4-0.1-17.5s0.1-12.4-0.1-14.1s-2.8-13.8-3.8-15.5s-2.6-6.8-3.5-11.2s-1.8-15.4-1.9-17.6s-0.2-19.1-0.1-23.2
	s0.1-16.1-0.4-19.5s-0.9-12.2-1.2-16.2s-0.8-27.6-0.9-30s-0.5-22.8-0.5-24.6s-1.4-16.6-1.4-19s0.1-14.4-0.4-17.2s-1.6-14.8-2.1-19.8
	s-2.8-18.9-3-21.9s-2.2-25-2.2-26.9s-3.2-27.1-3.5-28.8s-2-13.5-2.4-15.2s-1.5-14.2-2.5-18.8s-2.1-17.2-2.9-21s-2.1-14.2-2.4-17.2
	s-3.8-25.8-4.5-29.6s-8-45.2-8.8-47.2s-5.4-26.5-5.8-28s-5.1-28.5-6.6-34.1s-7.9-39.8-9.4-44.4s-9.2-39.1-10-44s-7.8-38.9-8.2-40.6
	s-6.8-29.5-6.8-30.9s-1.8-13-3-16.4s-7.8-37.4-8.6-40.6s-15.1-52.4-16.8-58c0,0-8.6-32-9.5-34.5s-19.2-51.9-20.5-55.2
	s-23.2-48.6-25.8-52.5s-13.2-16-16.9-17.8s-7.9-3.2-10.2-3.1S2778.3,1709.1,2776.8,1709.9z"/>
<path id="collar-left" d="M2318.8,1506.8c0,0,0.7,14,0.8,16.2c0.2,2.2,0.2,11.7,0.2,12s0.8,17.1,0.1,18.9c-0.8,1.8-2.6,7.8-2.6,8.2
	s-2.9,14.1-2.9,14.1s-5,15.2-5.3,16.2s-4.1,12.2-4.6,14.2s-1.7,4.4-1.4,4.8c0.6,0.6,1.8,0.9,3.5,1.6s8,5.3,9.5,7
	s19.2,21.5,22.3,24.5s81.2,94.2,82.8,95.5c1.7,1.3,14.3,15,14.3,15s4.8-3.8,5.2-4s6.4-2.9,7.4-3s8.2-1.9,8.9-2s10-1.5,10.5-1.6
	l23.1-3.9c0,0,34.7-5.2,36.4-5.6c1.8-0.3,5.7-0.5,7.6-2s3.8-4.1,3.2-5.7c-0.7-1.6-6.2-10.9-7.2-12.2c-1.1-1.3-9.3-14.4-12.8-18.8
	s-13.5-19.6-14.5-21s-20.9-29.8-21.8-30.8c0,0-10-13.5-11.4-15.8s-11-13.2-11.8-13.7c0,0-13.9-8.9-16.1-10
	c-2.2-1.1-20.7-10.2-23.2-11.2s-23.3-11.4-24.9-12.5c0,0-13.9-11.1-15-11.8s-14.7-12.8-16.9-13.9s-11.4-8.4-12.3-9
	c0,0-3.2-1.9-5.1-3.9s-7.7-10.8-8.5-12.6s-3.9-8.9-4.5-9.9s-6.6-9.4-7.7-10.9s-2.6-3.4-3.4-3.9s-2.4-1.1-2.4-1.1L2318.8,1506.8z"/>
<path id="lapel-right" class="st6" d="M1975,1596.4c0,0-3.4-1.5-4.7-1.3s-4.7,1.8-5.8,2.9s-17.5,20.1-19.2,21.9s-9.8,12.9-11,14.1
	c0,0-24,28.7-25.1,30.2c0,0-20.6,23.8-21.4,25.2s-20.5,24.2-22.2,26.2s-15.1,17.8-15.8,18.8l-1.2,1.1c0,0-21.4-0.9-23.4-0.9
	s-35.6-1.9-42.4-1.9c0,0-35.2-1.4-50.8-1.5s-29.4-0.9-31.2-0.2s-13.2,3.6-9.8,10.4c0,0,25.8,57.1,26.8,58.9s16.4,35,17.6,37.6
	s19.1,38.1,20.8,40.6s18.6,34.9,19.1,36.1c0,0,12,22.6,13.9,25s21.6,36.2,23.4,38.9c0,0,26.8,44.6,28.5,47.4s23.9,38.4,24.9,40
	c0,0,48.1,62.6,50.2,65.6s27,37.4,31,42.9s47.5,64.5,47.8,65.5l27.2,36.8c0,0,34.2,44.5,35.2,46s11.2,11.8,14.5,12.5s11,0.2,11,0.2
	l88-221.2c0,0-14.2-11.2-15.2-12.5s-3.5-5.2-5.2-9.5s-3-11.2-4-14.5s-7.5-17.4-9.6-20.9s-13.5-28.2-14.4-29.5s-6.2-22-7.2-24.7
	s-8.3-14-10-18s-24.7-56.3-24.7-59.3s-2-7.7-3.7-11.7s-5.3-11.7-6.3-15.7s-9.7-39-11.3-42.7c-1.7-3.7-11.7-34-13-37
	s-12.7-42-18.3-57.7c-5.7-15.7-16-54.7-17.3-58.3c-1.3-3.7-8-24-8.3-26.3s-24.7-75-25.3-77S1975,1596.4,1975,1596.4z"/>
<path id="lapel-left" class="st7" d="M2590.2,1748.5c-4-4.2-8-6.7-11.8-6.7s-84,5.3-88.8,5.8s-49.5,5.2-51,4.2c0,0-1.2,0.2-2.8-1.7
	c-1.7-1.8-53.8-59.7-55.3-62.2s-53.7-61.2-54.8-62.8c-1.2-1.7-10.3-13-13.2-14.5c-2.8-1.5-7.8-4-7.8-4s-7,20.7-8,22.3
	s-5.2,12.1-5.5,12.8s-9.7,28-10.2,30.2s-4.8,14-5.6,16.9s-7.6,34.4-7.8,34.9s-4.9,16.8-5.1,18.1s-2.9,15-3.8,17.8s-7.7,31.9-8,33.3
	c-0.2,1.4-4.1,14.8-4.5,16.5c0,0-8.8,29.5-9.3,33.8s-13.2,33.2-13.9,37s-8.2,22.8-8.5,24.9s-6.7,14.9-7.7,19.2
	c-1,4.3-4.3,14.5-5.3,18.3s-7.8,20-9,25c0,0-10.5,38.7-12,42.7s-10.2,29.7-10.5,32s-3.5,30.3-6,35.3s-6.2,17.2-7.7,21.2
	s-4.3,15.7-5.5,19s-11,34.3-11.8,36.5s-27.3,85.3-30.3,92.7c0,0-29.5,84.5-30.7,88.3s-20,53.7-22,59.5s-19,50.8-19.5,52.2
	c0,0-24,66.3-26,72s-19,48.2-22.5,56.2s-8.8,25.3-10,29c-0.1,0.2-9.6,28.2-11.5,31.8l96.2-94c3.2-3,32.8-31.2,34.5-33.2
	s53.5-53.5,53.5-53.5s40-43.7,41-44.7s52.7-63.7,54.7-65.5s39.5-48.7,40.7-50.2c0,0,12.8-14.8,16.2-20c3.3-5.2,30.8-44.7,32.2-46.7
	c1.3-2,17.2-27,19.7-30.8s28.8-44.8,30.2-46.8c0,0,39.5-64.7,41.5-66.5s35.3-59.2,37-61.8c1.7-2.7,25.5-48.8,27.2-51.8
	s26-51.3,26.2-51.8c0,0,29.7-59.3,32.3-63.8c2.7-4.5,22.2-45.8,23.8-48.8c1.7-3,13.7-28.8,14.7-30.8s4.7-8.2,5-11.7
	C2593.2,1760,2594.2,1752.7,2590.2,1748.5z M2507.9,1833.4c-0.4,0.6-4.2,3.6-4.6,3.9s-6.5,2.6-7.5,2.9s-26.4,7.4-28.2,7.8
	s-5,1.5-6.4,1.4s-1.9-0.8-3.1-1.1s-1.4-0.8-1.9-1.2s-0.6-0.4-1-1.1s-0.5-2-0.4-2.5s0.8-1.4,0.8-1.4l30.9-8.8c0,0,11.8-2.2,12.8-2.1
	s6.8,0,7.1,0.2s1.8,1.1,1.8,1.1S2508.2,1832.8,2507.9,1833.4z"/>
</svg>
