<?xml version="1.0" encoding="utf-8"?>
<!-- Generator: Adobe Illustrator 21.1.0, SVG Export Plug-In . SVG Version: 6.00 Build 0)  -->
<svg version="1.1" id="Layar1" xmlns="http://www.w3.org/2000/svg" xmlns:xlink="http://www.w3.org/1999/xlink" x="0px" y="0px"
	 viewBox="0 0 4160 6240" style="enable-background:new 0 0 4160 6240;" xml:space="preserve">
<pattern id="normal" patternUnits="userSpaceOnUse" width="270" height="270" patternTransform="">
		<image image-rendering="optimizeQuality" preserveAspectRatio="xMidYMid meet" xlink:href="/images/simulator/default/default_tex.jpg" x="0" y="0" width="270" height="270" style="-ms-interpolation-mode: bicubic;" />
  </pattern>
  <pattern id="left" patternTransform="rotate(23)" patternUnits="userSpaceOnUse" width="270" height="270">
		<image image-rendering="optimizeQuality" preserveAspectRatio="xMidYMid meet" xlink:href="/images/simulator/default/default_tex.jpg" x="0" y="0" width="270" height="270" style="-ms-interpolation-mode: bicubic;" />
  </pattern>
  <pattern id="right" patternTransform="rotate(-23)" patternUnits="userSpaceOnUse" width="270" height="270">
		<image image-rendering="optimizeQuality" preserveAspectRatio="xMidYMid meet" xlink:href="/images/simulator/default/default_tex.jpg" x="0" y="0" width="270" height="270" style="-ms-interpolation-mode: bicubic;" />
  </pattern>
<style type="text/css">
	.normal{fill:url(#normal);}
	.left{fill:url(#left);}
	.right{fill:url(#right);}

</style>
<path id="leg-left" class="normal" d="M3065,1460c0-6-19-199-19.5-203S3002,941.5,3001,938.5s-24-159-24.5-163s-22-126.5-23.5-145
	s-18.5-114.5-20-122s-13-74-13-74s-109.4,35.2-157.4,60.7s-658.5,96-658.5,96s-3,105-6,127.5s18,715.5,19.5,732s-3,183-3,183
	l16.4,11.3c0,0,6,6,7.5,8s7,40,7.5,42s17.5,84.5,21,93s14.5,45,18,56s7.5,27.5,9,35.5s19.5,98.5,21.5,109.5s20.5,122.5,23.5,132.5
	s24.5,107,25,110.5s21,146.5,22,153.5s25,167,25,167c0.5,5,28.5,202.5,30,214s32.5,249,32.5,255.5s14.5,176.5,15.5,186
	s20,267.5,22.5,276.5s27.5,352,30.5,368s15,185,15.5,188.5s10,253,10.5,258s6.5,172,6.5,181s5,154.5,5,156s6,173,6.5,179
	s3,135,2.5,144s19.5,185,19.5,189.5s23,148,23,148c0.5,2,11,41,13.5,49s4,12,4.5,17.5s2.5,15,3.5,19s21,19.5,27,21s26.5-1,37.5-1.5
	s13,3.5,13,3.5s16-0.5,37.5,0.5s31.5,9,31.5,9s3,0,8.5,0s23.5,3,26,4s46,7,53.5,7.5s44.5-5,44.5-5c19.5-2,38.5-11,41.5-12
	s25.5,1,29.5,2s2,10,2,10s1.5-2,2.5-5s5-5,10.5-7.5s16.5-4,19.5-6s80-43,80-43s0.5-15,0.5-20.5s2-8,2-15s-2-296.5-2.5-298
	s1-234.5,1-239s1.5-275.5,1.5-275.5l1-96c0,0,0-218-1-222.5s-1.5-100.5-3-110s-1-142-2-155s-3.5-291-3.5-294s-2.5-157.5-2-166
	s-2.5-178-2.5-186.5s-2.5-226-3-232s2-141.5,2.5-152s9.5-194,11.5-207.5s12.5-220,13-223.5s9-140.5,9-146s5.5-112.5,6-122.5
	s8.5-143.5,8.5-148s6.5-211,6.5-214s3-248,4-258.5S3065,1466,3065,1460z"/>
<path id="leg-right" class="normal" d="M1344.3,406.3c0,0-32,130-38.7,152s-5.3,37.3-6,41.3s-4.7,14.7-6,21.3
	c-1.3,6.7-26,126.7-26,126.7s-40,264-41.3,277.3c-1.3,13.3-10,103.3-11.3,116s0.7,73.3-2.7,87.3c-3.3,14-8,82.7-7.3,84.7
	s-11.3,197.3-10.7,207.3c0.7,10,0,231.3,1.3,242s14.7,95.3,14.7,101.3s10,96,10,103.3s16,143.3,17.3,158s22.7,218.7,22.7,230.7
	s-2.7,42-2.7,50.7s2.7,24,3.3,30.7s5.3,51.3,5.3,59.3s12.7,167.3,12.7,182s4.7,210.7,3.3,223.3c-1.3,12.7-5.3,85.3-5.3,98
	s-6,181.3-6,186s-4,192-6.7,202s-5.3,168-5.3,179.3s1.3,258-0.7,282.7s-1.3,86-1.3,86s-6.7,380.7-6.7,398s2.7,500.7,4,510.7
	s20,239.3,21.3,252.7c1.3,13.3,8,46,8,56.7s-2,76-0.7,83.3s2,43.3,14.7,50s58.7,30.7,66.7,33.3c0,0,34.7,18,40.7,20s41.3,7.3,44,8
	s24,6,32,6.7s43.3-4,61.3-6s82-9.3,91.3-8.7c9.3,0.7,30.7,3.3,41.3,5.3s46,10,49.3,10s7.3-1.3,8-4.7c0.7-3.3,9.3-31.3,12-39.3
	s8-83.3,8.7-94.7s24.7-331.3,25.3-344c0.7-12.7,40-564.7,40-564.7s29.3-458,30-468s28-467.3,29.3-474.7c1.3-7.3,14-171.3,17.3-181.3
	s17.3-184,20.7-199.3c3.3-15.3,19.3-191.3,22.7-202c3.3-10.7,38-346,40.7-356.7s12-70,14-78.7s63.3-345.3,65.3-358.7
	c0,0,38.7-210,40.7-216s28.7-150,30.7-154.7s7.3-39.3,8-46s14-118,14-124.7l-4.5-33.1l-3.5-25.3l-2.4-17.2l-3.8-31.8l-9.2-307.9
	l-4.1-441c0,0-191,6-222,3s-320.7-119-353.7-132s-202-68-202-68L1344.3,406.3z"/>
<path id="belt" class="normal" d="M2928,343c-3-15-27-81-33-93s-7-7-9-11s-17-4-17-4s6,9,9,14s4,14,6,19s-3,9-9,17s-61,38-81,46
	s-46,16-58,23s-155,43-165,46s-106,19-106,19c-17,1-118,9-145,10s-216,13-220,13s-181-7-212-8s-41,0-52-9s-57-13-68-16s-20-9-38-13
	s-74-15-89-19s-82-29-114-37s-89-39-110-46s-46-30-49-35s-6-15-6-15s-11,64-13,79s-6,72-5,80s2,34,9,40s36,30,41,33s114,41,143,50
	s201,65,209,65s56,8,61,10s11,10,15,11s17,0,24,0s120,18,129,19s126,14,135,16s18,1,18,1c5-1,164-23,181-24s155-21,188-23
	s82-19,109-23s165-48,190-57s82-40,96-54s28-32.5,28-32.5l7,41.5c0,0,4-13,6-19S2931,358,2928,343z M1881,578.3
	c-21.2,0-40.8-11.8-40.8-33.2c0-21.3,16.3-37.3,37.5-37.3c15.2,0,29.5,7.1,36.5,19c0-0.3,0-0.5,0-0.6c4.6,7.5,7.5,18.9-0.2,33.8
	l0.3,0.1C1908.2,571.5,1895.8,578.3,1881,578.3z"/>
<path id="belt-loop1" class="normal" d="M2573.5,411l45-13c0,0,8,37.5,8.5,39s7.5,88,7.5,93.5s4.5,69,4.5,77.5s-2.5,29.5-4,31.5
	s-4,6-4,6l-40,8.5c0,0,0.5-25.5,1.5-43.5s-3.5-87-3.5-92.5s-6-66.5-6-70S2573.5,411,2573.5,411z"/>
<path id="belt-loop2" class="normal" d="M1698,404c0,0-4,37.5-3.5,40.5s4.5,1,4.5,1s2-48,2-49.5s0-3.5,0-3.5s-11-4.5-18-5
	s-19.5-1.5-24-1s-6,0.5-6.5,3s-14,56-15,64s-7,62.5-8,70.5s-0.5,39-2,48s-5,54.5-5,58s1,5.5,6.5,6.5s25,3.5,28,4s15.5-1,15.5-1
	s1.5-6.5,2-11s4-37.5,5.5-41.5s1.5-10.5,1.5-10.5h-4.5l-5.5,57l1-60.5c0,0,8.5-87,9-91.5S1692,405,1694,403L1698,404z"/>
</svg>
