<?xml version="1.0" encoding="utf-8"?>
<!-- Generator: Adobe Illustrator 22.1.0, SVG Export Plug-In . SVG Version: 6.00 Build 0)  -->
<svg version="1.1" id="Layar1" xmlns="http://www.w3.org/2000/svg" xmlns:xlink="http://www.w3.org/1999/xlink" x="0px" y="0px"
	 viewBox="0 0 4160 6240" style="enable-background:new 0 0 4160 6240;" xml:space="preserve">
<pattern id="normal" patternUnits="userSpaceOnUse" width="270" height="270" patternTransform="">
		<image image-rendering="optimizeQuality" preserveAspectRatio="xMidYMid meet" xlink:href="/images/simulator/default/default_tex.jpg" x="0" y="0" width="270" height="270" style="-ms-interpolation-mode: bicubic;" />
  </pattern>
  <pattern id="left" patternTransform="rotate(23)" patternUnits="userSpaceOnUse" width="270" height="270">
		<image image-rendering="optimizeQuality" preserveAspectRatio="xMidYMid meet" xlink:href="/images/simulator/default/default_tex.jpg" x="0" y="0" width="270" height="270" style="-ms-interpolation-mode: bicubic;" />
  </pattern>
  <pattern id="right" patternTransform="rotate(-23)" patternUnits="userSpaceOnUse" width="270" height="270">
		<image image-rendering="optimizeQuality" preserveAspectRatio="xMidYMid meet" xlink:href="/images/simulator/default/default_tex.jpg" x="0" y="0" width="270" height="270" style="-ms-interpolation-mode: bicubic;" />
  </pattern>
<style type="text/css">
	.normal{fill:url(#normal);}
	.left{fill:url(#left);}
	.right{fill:url(#right);}

</style>
<path id="flare-3" class="normal" d="M1790.5,463c0,0,269,12,303.5,10.5s216-11.5,216-11.5l141-10l33,0.5l10,162l32,409.5l132.9,1903.8
	l1.1,14.2c0,0-34,3-36,3s-112.7,6-121.3,7c-8.7,1-93.4,3.5-96.4,3.8s-54.8,1.2-65.2,2s-70.2,0.8-74.2,0.8s-84.8,0-88.8,0.5
	s-56.2,3.2-61,3.8s-67.8,0.8-75.2,0.2s-90-2-93.2-2.2s-44,0.5-49.2,0.5s-135-2.8-137.8-3s-31.5-0.8-36.8-1s-16.2-1-26.8-2.5
	s-22.8-3.5-29.2-4.5s-15.2-2.5-18.8-3s-10-1-10-1l-14-0.5l10.5-193.5l11-134.8l6.2-96.8c0,0,5.5-73,5.5-75s6.8-82.8,6.8-82.8l5-85.2
	l5-149.2l5.5-115.8l4.8-136.8l4-182.5l6.2-86.2L1723,1210l14.8-193.5l14.5-195l21.2-169.8c0,0,16-175.2,15.8-176.2
	S1790.5,463,1790.5,463z"/>
<path id="flare-2_1_" class="normal" d="M2462.2,448c0,0,112-2.2,133.2-5.5s174.8-7,174.8-7s8.8,35.8,9.5,40.8s15.5,70,15.8,73.5
	s8.5,37,9.2,42s15.5,75.8,15.8,77.5s11.2,56,11.8,57.5s13.2,62.5,13.8,66s18.8,99,20.2,104s16.5,78.2,17.2,81.5s14,69.5,15,72.2
	s19.2,99.8,20,101.5s20.5,101.5,21.5,105s28.5,143.2,28.5,144.8s17,81.8,17.5,84s24.5,128.8,24.8,130.5s15.2,80.8,15.2,80.8
	s46.5,236.5,48.5,245s58.5,315,60,323s21,163,22,167s23.5,157,24,160s10,78.5,10.5,82.5s24.5,162.5,24.5,162.5l-0.5,3.5l-2.5,1.5
	c0,0-46.5,9-52.5,10.5s-136,32.5-144.5,35c0,0-67,13.5-82.5,17.5s-70.5,14-87,17s-130.5,16.5-149.5,16.5s-73.5,5.5-73.5,5.5
	l-11-199.5c0,0-9.5-151-10.5-156s-12.5-187-13.5-191.5s-10-179-10.5-181.5s-14.5-251-15.5-257s-11.5-253-11.5-262.5
	s-16.5-212-16.5-216.5s-14.5-179-16-187s-13-164-13-169s-16-242-16-242s-15.5-249-15.5-254.5s-9-176-9-176L2462.2,448z"/>
<path id="flare-1_1_" class="normal" d="M1497.7,452.3c0,0-65.3,269.3-66.7,280.7s-34,138.7-43.3,189.3c0,0-38.7,246-42.7,266
	s-40,246-40.7,248.7c-0.7,2.7-36.7,222-39.3,240.7c-2.7,18.7-46.7,295.3-50,312.7c0,0-27.3,171.3-28,176.7s-82.7,513.3-83.3,522
	c-0.7,8.7-22,142.7-22,142.7l-0.7,4c0,0,12,4,14.7,5.3c2.7,1.3,20,6,33.3,10s60,23.3,81.3,26c21.3,2.7,216.7,43.3,226,44.7
	c9.3,1.3,76.7,16,94.7,16.7c18,0.7,45.3,2.7,52.7,2.7c7.3,0,61.3,5.3,61.3,5.3l12-176.7l19.3-296.7c0,0,11.3-173.3,11.3-180.7
	c0-7.3,15.3-430,15.3-430s16.7-412,17.3-416.7c0.7-4.7,26.7-314,26.7-316.7s25.5-278,25.5-278s22.5-257.5,24-269s5-68.5,5-68.5
	s0.5-10.5,0.5-13s1.5-19,1.5-19l-304.5-34L1497.7,452.3z"/>
<path id="belt" class="normal" d="M1559.7,250.3c-1.3,0.3-8.3-1-10.3,1.7s-2.7,7.7-3.7,11s-12.3,78.3-26.3,113.3l-24,85.3
	c0,0,36,3.7,38.3,4c2.3,0.3,222.3,26.3,231.3,27c9,0.7,120.3,7,124.3,7s92.3,1.3,100.7,1.3s223-4.3,228.7-4.3c5.7,0,212.7-11,224-11
	c11.3,0,159-15.7,174.3-16.3c15.3-0.7,123.3-6.3,161-0.7c0,0-34-150.7-35.3-159.3c-1.3-8.7-6.7-33.7-7-36c-0.3-2.3-1.3-8.3-1.7-9.3
	s3.3-11.3-13.3-11.3c0,0-102-2.7-113-2.3c-11,0.3-87.7,2.7-95.7,4.3c0,0-79,2-80.3,2.3c-1.3,0.3,0,0.3-2.3,0.3
	c-2.3,0-86.3,2.7-96.7,3c-10.3,0.3-82.7,3.3-90,3.7c-7.3,0.3-89,4.3-102.3,5c-13.3,0.7-114-1-122-0.7c-8,0.3-121.7,2.3-130.7,2
	c0,0-89-1.3-99-1.7c-10-0.3-57.2-2.7-68.2-3.2s-40-3.2-45.8-3.5s-78.6-9-82.1-8.8C1589.2,253.3,1559.7,250.3,1559.7,250.3z"/>
</svg>
