<?xml version="1.0" encoding="utf-8"?>
<!-- Generator: Adobe Illustrator 22.1.0, SVG Export Plug-In . SVG Version: 6.00 Build 0)  -->
<svg version="1.1" id="Layar1" xmlns="http://www.w3.org/2000/svg" xmlns:xlink="http://www.w3.org/1999/xlink" x="0px" y="0px"
	 viewBox="0 0 4160 6240" style="enable-background:new 0 0 4160 6240;" xml:space="preserve">
<pattern id="normal" patternUnits="userSpaceOnUse" width="270" height="270" patternTransform="">
		<image image-rendering="optimizeQuality" preserveAspectRatio="xMidYMid meet" xlink:href="/images/simulator/default/default_tex.jpg" x="0" y="0" width="270" height="270" style="-ms-interpolation-mode: bicubic;" />
  </pattern>
  <pattern id="left" patternTransform="rotate(23)" patternUnits="userSpaceOnUse" width="270" height="270">
		<image image-rendering="optimizeQuality" preserveAspectRatio="xMidYMid meet" xlink:href="/images/simulator/default/default_tex.jpg" x="0" y="0" width="270" height="270" style="-ms-interpolation-mode: bicubic;" />
  </pattern>
  <pattern id="right" patternTransform="rotate(-23)" patternUnits="userSpaceOnUse" width="270" height="270">
		<image image-rendering="optimizeQuality" preserveAspectRatio="xMidYMid meet" xlink:href="/images/simulator/default/default_tex.jpg" x="0" y="0" width="270" height="270" style="-ms-interpolation-mode: bicubic;" />
  </pattern>
<style type="text/css">
	.normal{fill:url(#normal);}
	.left{fill:url(#left);}
	.right{fill:url(#right);}

</style>
<path id="belt" class="normal" d="M1418.7,220.7c0,0-5.7,4.3-7.3,8c-1.7,3.7-13.3,36-13.3,46s-7.7,89-8.3,97c-0.7,8-2,28-4.7,35.3
	s-3.3,16.3-5,21.3s-4.7,4.3-3.7,8.7s1.3,7,2.7,9s3.3,5.3,3.7,7c0.3,1.7,33.7,11.7,41.7,14s25.7,3,39,5.3
	c13.3,2.3,105.3,11.7,120,17.7c0,0,82,23.3,93.7,25.7c11.7,2.3,99,21.3,122,20.7c23-0.7,165.3-1.7,165.3-1.7S2124,554,2154,552
	s251-15,263-19c0,0,172-18,196.7-22.7c24.7-4.7,224-41.3,224-41.3l9.6-1c0,0-3.2-14-3.5-17.8s-11-53-11-53s-18.5-94.2-19.5-97.8
	s-8.2-38.8-8.5-40.8s-1.2-1.8-0.2-5.5s4.2-9.2,5.2-11.8s2.5-2.5,1.8-5.5s-4-7.2-6.2-8.8l-3.2-1.2l-0.5-3.2c0,0-3.5,5.2-3.5,8.2
	s0.5,7-0.5,8.2s-41.2,15.5-72.5,20.5c0,0-78,15.2-103.2,17c0,0-73.8,6.2-106.5,8.2s-133.8,9.5-141,10c0,0-111.5,9.8-124,10.2
	c0,0-82.8,5.8-84,5.8c0,0-64,1-64,2.5s-2.2,4.8-1.8,6s0.5,1.2,0.5,1.2s-34.5-2.2-42.5-2.5s-91.8-9.5-99.5-9.8c0,0-58-6.2-63-5.2
	s-66.8-4.5-80.2-5c-8.2-0.3-29.4-2.2-46.2-3.7c-10.8-1-19.8-1.8-22.5-2c-7-0.5-62-11.2-68.2-12.5c0,0-60-9-66.2-9.5
	s-81.2-15.8-94.2-17.8s-22-5.8-28.8-7.5s-44.5-6-49.8-7s-16.2-5.8-17.8-10.5s-1.5-8-1.5-8L1418.7,220.7"/>
<path id="leg-left" class="normal" d="M2963.7,1156.3c-1.3-7.3,0-43.3-2-56c-2-12.7-2.7-95.3-4-102.7c-1.3-7.3-8-32-10-40.7
	s-10.3-46.3-12.3-55.3s-13.3-63.7-15-70.7c-1.7-7-9.7-49.7-13.3-65.7s-12.3-59.3-13-63.7c-0.7-4.3-14.3-75.7-15.7-82.3
	c-1.3-6.7-22.3-105.7-23.7-113.3c-1.3-7.7-11.7-59.7-11.7-59.7h-2c0,0-30.7,8.7-48.7,12c-18,3.3-61.3,10-70.7,11.3
	c-9.3,1.3-32.7,4.7-44.7,6c-7.7,0.9-24.6,4.2-40.2,6.9c-15.9,2.3-31.1,4.5-42.6,6.1c-23.6,2.9-57,7.1-61.9,7.6
	c-4.3,0.4-27.7,4.2-48.9,7.4c-9.2,0.6-24.2,2.8-36.5,4.6c-18.3,1.6-40.5,2.7-53.9,3.3c-15.3,0.7-96.7,6-112,6.7
	c-15.3,0.7-38,2-45.3,2.7c-7.3,0.7-78.7,8-84.7,8c-4.9,0-41.8,0.9-55.2,1.2c-3.5-0.8-15.5-2.5-15.5-2.5s-2.7,83.3-3.3,87.3
	s4,163.3,3.3,170c-0.7,6.7,1.3,168.7,0,195.3c-1.3,26.7-4.7,191.3-6,195.3c-1.3,4-5.3,144-5.3,144s7.3,11.3,8.7,14.7
	c1.3,3.3,2.7,10,5.3,16.7s2.7,19.3,8.7,32.7c6,13.3,15.3,31.3,16.7,36c1.3,4.7,4,28,4.7,38.7c0.7,10.7,36.7,439.3,37.3,453.3
	c0.7,14,28.7,443.3,28.7,451.3s7.3,185.3,6.7,190c-0.7,4.7,0.7,190-0.7,208s-6,388.7-6,388.7l-0.7,508c0,0-2.7,392-2.7,394
	s-2,436.7-2,436.7l-2.7,404c0,0-2,316.7-2,322.7s-2,221.3-1.3,226.7c0.7,5.3-0.7,140-1.3,148c-0.7,8,1.3,81.3,1.3,85.3
	c1.3,39.3,31.3,52,36.7,53.3c5.3,1.3,31.3,8,46,10.7c14.7,2.7,48.7,16.7,54,18.7c5.3,2,78.7,26.7,86,28c7.3,1.3,24,5.3,24,5.3
	l35.3-0.7l68.7-6.7c82-7.3,147.3-54.7,147.3-54.7l4.7-56c0,0,14.7-185.3,14-191.3c-0.7-6,16-206.7,16.7-214
	c0.7-7.3,36.7-514.7,36.7-518c0-3.3,14.7-187.3,14.7-193.3s16-208.7,16.7-224c0.7-15.3,23.3-362.7,23.3-362.7s16.7-352,16.7-354.7
	c0-2.7,18.7-442.7,18.7-442.7l8-206c-2-62,22.7-348.7,22.7-348.7l20.7-270c0,0,21.3-254,20-269.3c-1.3-15.3,18.7-240.7,18.7-251.3
	s18-218.7,18.7-228c0.7-9.3,20-298.7,20-307.3c0-8.7,8-95.3,7.3-105.3C2963,1176.3,2965,1163.7,2963.7,1156.3z"/>
<path id="leg-right" class="normal" d="M1381,449c0,0-18.2,41-18.5,43.8s-14.2,54.2-18.2,66.2s-30.7,88.7-34,103.3
	c0,0-19.3,77.3-21.3,87.3c0,0-30,116.7-30,126c0,9.3-17.3,121.3-17.3,130c0,8.7-10,54.7-9.3,71.3c0.7,16.7,0,43.3,0.7,53.3
	s1.3,25.3,4,36c2.7,10.7,16,222.7,18,239.3c2,16.7,22,378,22.7,388c0.7,10,40.7,612,40.7,614.7c0,2.7,22,325.3,22,337.3
	s3.3,79.3,3.3,101.3s4.7,200,4.7,209.3c0,9.3,12.7,358.7,14,374.7c1.3,16,12.7,310.7,12,316.7c-0.7,6,19.3,492,20,503.3
	c0.7,11.3,14.7,334.7,14.7,340s0,85.3,0.7,92c0.7,6.7,2,488.7,0.7,496.7c-1.3,8-0.7,161.3-0.7,165.3s-0.7,354-0.7,354
	c0.7,4-0.7,9.3,0.7,14.7c1.3,5.3,19.3,36,59.3,42c0,0,90,13.3,112.7,13.3c22.7,0,129.3,0,147.3-0.7c18-0.7,69.3-6.7,95.3-12.7
	s86.7-30,100-36c13.3-6,42-18.7,50.7-24.7s13.3-8,15.3-14s2-5.3,2.7-9.3s-0.7-39.3,3.3-67.3s5.3-49.3,5.3-66.7
	c0-17.3-2-47.3-1.3-83.3c0.7-36-5.3-220.7-4.7-232c0.7-11.3-5.3-429.3-5.3-462c0-32.7-2-351.3-2-353.3s-2.7-310-2-334
	c0.7-24,0.7-210,0.7-224.7c0-14.7,4-459.3,4.7-471.3c0.7-12,2-369.3,3.3-398s3.3-173.3,3.3-188s0.7-137.3,0.7-142
	s4.7-526.7,4.7-531.3c0-4.7,0.7-183.3,6.7-230c0,0,12-170,12.7-174.7c0,0,16.7-198,18.7-206.7c2-8.7,18.7-122,32.7-177.3
	c0,0,5.3-112.7,5.3-117.3c0-4.7,4-52.7,4-59.3c0-6.7,6.7-102,6.7-107.3s-1.3-132-1.3-132s-2-192.7-0.7-206.7c1.3-14,0-99.3,0-107.3
	s2.7-68.7,2.7-68.7l-6-0.7c0,0-37.3,0-48.7-2.7c-11.3-2.7-40-4-60.7-6c-20.7-2-98-3.3-112-1.3s-88-0.7-102-3.3
	c0,0-39.3-10.7-56-10.7c-16.7,0-70.7-12-84.7-15.3c-14-3.3-88.7-18-105.3-19.3c-16.7-1.3-47.3-2-59.3-4.7c-12-2.7-34.7-7.3-40-8
	C1411,457.7,1381,449,1381,449z"/>
<path id="belt-loop2" class="normal" d="M1770,296.2c1.2,0.8,1.8,1.8,1.8,1.8s0.8,1.2,0.5,2.2s-2.8,56-3.5,61.8s-2.2,33-2.8,38.8
	s-3.8,52.5-4.2,58.8s-1.8,27.2-2,31.8s-1.8,27.5-2.5,33.8s-4,35.8-5,41.2s-1.5,12-1.2,14.5s0.5,18.8,0,21.5s1.5,3-1,4.2
	s1.2,3-2.5,1.2s-3-1.8-5.8-1.8s-22.2,0.8-27.2,0s-7.8-0.2-10.5-1.5s-9-0.5-8.2-3.8s0.2-38.2,2.2-43.2s10.8-72.2,11.8-82
	s5.8-61,7-64.2s4.8-42.5,5.8-54s2.5-48.5,2.2-51.8s-0.8-8.8-0.8-10s0.2-2.5,1.2-3.2s1.8-1.5,3.8-1.5s10.2,0.2,13,0.8s7-1.2,11,0.5
	s5.5,2.8,7,2.8s7.2-0.5,8.8,0s1.5,0.5,1.5,0.5L1770,296.2z"/>
<path id="belt-loop1" class="normal" d="M2435.3,287c-1.7,1-2.3,1.7-3,4c-0.7,2.3-1.3,3-0.7,6.3c0.7,3.3,3.7,23,4.3,26.3
	c0.7,3.3,0.7,12,1.3,14c0.7,2,0.3,5.7,4.7,6.7s10.3-0.3,11.3,0c1,0.3,2.3,2.3,2.3,3.3s2.3,11,3.3,17s7.3,46.7,8,53.7
	s5.7,85.7,5.7,86.7s-3.7,2.7-3.7,2.7s-1.7-2-3.3-1c-1.7,1-4.7,1.3-4.7,3c0,1.7,2,8,3,10.7c1,2.7,3,5.7,3,8c0,2.3,2.3,52.3,2.3,54.7
	s0.7,6.3,0.7,8.3s0.3,3,2,4.3c1.7,1.3,1,2,6,2s8.3,0.3,10.7-0.3c2.3-0.7-1.7-1.3,5.3-1.3s27.7-0.3,27.7-0.3l2.7-5
	c0,0,0.3-6.3,0.7-8.7s0.3-78.3-0.3-84.7c-0.7-6.3-8-85.7-8.3-90.3c-0.3-4.7-12.3-75.7-12.7-79.3c-0.3-3.7-9.3-39.7-10-41.3
	c-0.7-1.7-1.3-4-3.3-4s-8-0.3-14-0.3s-12-1.3-15.7,0.3c-3.7,1.7-4.7,1.3-11.3,1.3c-6.7,0-15.3,3-15.3,3"/>
</svg>
