<?xml version="1.0" encoding="utf-8"?>
<!-- Generator: Adobe Illustrator 21.1.0, SVG Export Plug-In . SVG Version: 6.00 Build 0)  -->
<svg version="1.1" id="Layar1" xmlns="http://www.w3.org/2000/svg" xmlns:xlink="http://www.w3.org/1999/xlink" x="0px" y="0px"
	 viewBox="0 0 4160 6240" style="enable-background:new 0 0 4160 6240;" xml:space="preserve">
<pattern id="normal" patternUnits="userSpaceOnUse" width="270" height="270" patternTransform="">
		<image image-rendering="optimizeQuality" preserveAspectRatio="xMidYMid meet" xlink:href="/images/simulator/default/default_tex.jpg" x="0" y="0" width="270" height="270" style="-ms-interpolation-mode: bicubic;" />
  </pattern>
  <pattern id="left" patternTransform="rotate(23)" patternUnits="userSpaceOnUse" width="270" height="270">
		<image image-rendering="optimizeQuality" preserveAspectRatio="xMidYMid meet" xlink:href="/images/simulator/default/default_tex.jpg" x="0" y="0" width="270" height="270" style="-ms-interpolation-mode: bicubic;" />
  </pattern>
  <pattern id="right" patternTransform="rotate(-23)" patternUnits="userSpaceOnUse" width="270" height="270">
		<image image-rendering="optimizeQuality" preserveAspectRatio="xMidYMid meet" xlink:href="/images/simulator/default/default_tex.jpg" x="0" y="0" width="270" height="270" style="-ms-interpolation-mode: bicubic;" />
  </pattern>
<style type="text/css">
	.normal{fill:url(#normal);}
	.left{fill:url(#left);}
	.right{fill:url(#right);}

</style>
<g id="pants">
	<path class="normal" d="M1404.9,4375.8c0,0-9.8,29.2-11.7,36.9c-1.9,7.8-12.9,40.4-15.6,60.3c-2.7,19.8-10.9,61.8-9.3,96.4
		c1.6,34.6,7.4,65.3,7.8,82.4s3.1,47.4,1.6,61c-1.6,13.6-4.3,32.7-3.9,44.7s0.8,27.2-1.6,50.2c-2.4,23-6.6,84.7-7,104.2
		c-0.1,5.8-3.8,27.3,0.4,53.9c4.6,28.7,35.1,64,35.5,88.7c0.1,6.8-11.1,11.6-10.6,13.4c19.2,63.8,28.3,108,28.3,108
		s0.1,90.1-3.5,160.3c-0.3,6.3-18.8,7.4-17.9,13.4c1.5,10.3,3,15.4,0,20.4c-11.9,19.9-22.9,21.1-22.9,21.1
		c1.6,29.2,5.5,120.8,8.6,166.3s7.8,137.6,8.6,159.8c0.8,22.2,4.7,128.7,4.7,128.7h565.8c0,0,8.9-36.2,10.1-44.3
		c1.2-8.2,3.9-42.4,7.4-89c3.5-46.6,17.1-157.1,21.8-198.7c4.7-41.6,19.4-161.8,31.9-242.6c12.4-80.9,34.2-221.6,40-257
		c5.8-35.4,24.9-150.1,24.9-150.1s2.7-0.4,3.1,1.9c0.4,2.3,24.9,55.6,31.9,76.6s27.2,75.4,47.8,157.1c20.6,81.6,44,188.2,54.4,245
		c10.5,56.7,33.8,183.5,38.5,218.9c4.7,35.4,27.2,193.3,27.2,193.3l11.3,89.3l573.6-0.2c0,0,0.4-143.9,1.9-166.1s-1.2-101.1,0-142.3
		c1.2-41.2,6.9-136.2,8.1-163.9c0-1.3-12-7.7-27-11.6c-5-1.3-9.5-3.6-11.5-8.4c-1.6-3.8-13.5-1.3-20.3-1.6
		c-10.1-0.5-16.8-4.7-16.3-7.9c1.6-12-5.4-113.8-5.4-162.1c0-6.1,21.7-107.1,20.3-110.3c-1.3-2.9-11.2-6.4-11.2-11.9
		c-0.3-32.2,48.5-117.1,46.9-122.9c-1.6-5.6-9.3-12.3-9.3-12.3s12.9-236.8,27.6-313.9c-1.9-25.3-1.4-31.5-3-39.4
		c-1.6-7.8-11.3-76.2-14.4-95.7c-3.1-19.4-12.4-55.2-14-61.5c-1.6-6.2-18.2-57.9-18.2-57.9H1419.6L1404.9,4375.8z"/>
</g>
<path id="body-right" class="normal" d="M2107.3,4218.8c0-5.9-13.3-171.4-13.3-171.4l-10.3-391.6c0,0,19.2-246.8,32.5-267.4
	s23.6-47.3,23.6-47.3l-7.2-22.8c0,0-3.4-14.5-3.4-18.9c0-4.4-21.9-70.2-21.9-70.2l-75.2-239.2l-47.1-148.3l-65.7-256.8
	c0,0-45.6-253.7-44.8-261.8c0.7-8.1-16.9-72.3-17.7-78.2c-0.7-5.9-14.1-36.8-5.4-73.3l5.2-36.2c0,0-13.3,27.3-16.3,31
	c-3,3.7-7.4,8.1-9.6,8.9s-29.6,17-33.2,19.2s-20.7,12.6-20.7,12.6s-62.1,33.2-65.8,34.7c-3.7,1.5-48,21.4-56.1,24.4
	c-8.1,3-54.7,25.9-76.1,31c0,0-22.2,9.6-30.3,12.6c-8.1,3-59.8,22.2-74.6,25.9c-14.8,3.7-31,4.4-33.2,6.6c-2.2,2.2-7.4,5.2-5.9,7.4
	c1.5,2.2,4,4.1,4,4.1s11.9,40.5,16.3,56.7s23.1,121,29.2,170.1c0,0,12.3,180.2,10.3,232.7c-2.9,76.2-4.1,156.9-7.2,186
	c-4.7,42.8-8.7,141.5-18.5,175.8c-7.7,27-11.4,36.1-17.3,51.6c-5.9,15.5-9.3,31.1-9.3,31.1l-10.9-7.2c0,0,5,16.8,5,22
	c0,5.2,6.6,59.8,10.3,76.1c3.7,16.3,11.8,96.8,11.8,110.8s-0.7,30.3,0.7,41.4s10.3,97.5,11.1,126.3c0.7,28.8,8.1,158.8,7.4,174.4
	c-0.7,15.5,3,63.5,2.2,90.9c-0.7,27.3-2.2,113.8-3,122.6s-19.9,155.1-25.1,176.6s-12.6,53.9-12.6,53.9s-24.4,89.4-26.6,93.8
	c-2.2,4.4-15.5,21.4-16.3,27.3c-0.7,5.9-0.7,8.9,1.5,10.3c2.2,1.5,6.7,7.2,6.7,7.2s14.6,22.2,65.5,51c0,0,106.6,58.6,122.1,65.2
	c15.5,6.6,61.3,31.8,74.6,36.2c13.3,4.4,370.9,142.6,377.5,146.3c6.6,3.7,34.7,8.9,34.7,8.9s6.6-1.5,5.9-3.7s28.4-146.4,28.4-146.4
	l27-118.6l6.6-27.3C2147.2,4395.3,2107.3,4224.7,2107.3,4218.8z M2038.9,4508.2c-16.8-2.1-21.5-6.8-25.3-24.7
	c-3.6-17.3,6.7-27.8,24.4-27.8c17.7,0,27.9,9.6,27.9,27.3C2066,4500.5,2056.5,4510.3,2038.9,4508.2z"/>
<path id="body-left" class="normal" d="M2814.7,4264.4c-1.5-8.1-8.9-37.7-11.8-49.5c-3-11.8-7.4-19.2-7.4-28.8c0-9.6-2.2-29.6-5.2-44.3
	c-3-14.8-16.3-186.9-17-209.1s9.6-348.7,9.6-353.9c0-5.2,28.1-345,30.3-353.9s3-22.2-0.7-30.3c-3.7-8.1-24.7-84.4-24.7-84.4
	s-17.8-90.4-31.8-261.8c0,0-12.9-182.8,4.9-295.1l14.9-192.9c0-10.3,3-15.2,0-18.2c-3-3-9-6.8-9-6.8s-3.7,1.5-11.1-0.7
	c-7.4-2.2-32.5-9.6-35.5-10.3s-116-39.2-161.1-60.6s-120.4-62.8-127.8-66.5c-7.4-3.7-17-12.6-17-12.6s-3-8.1-8.9-11.8
	c-5.9-3.7-25.1-18.5-25.1-18.5s6.2,23.8,8.4,37.1c2.2,13.3,3.4,27.4-0.7,48.1c0,0-7.1,29.2-7.5,35.1c-0.4,5.9-4.1,14.3-4.1,14.3
	s-6.3,16-8.9,28.6c-3.9,18.6-10.9,67.9-10.6,74.2c0.4,6.3-4.8,32.4-7.8,53.8c-0.7,4.8-12.9,78.5-12.9,79.9c0,1.5-10.3,85.3-14,99.7
	c-3.7,14.4-20,103.3-20.4,109.2c-0.4,5.9-16,69.7-16.7,74.5c-0.7,4.8-5.3,25-6.1,28.6c-8.2,36.8-51.2,196.7-54.2,207
	c-3,10.3-24.6,74.2-36.6,103.4c-16.5,39.8-52.6,162-53.3,165c-0.7,3-36.2,99-36.2,99l-27.3,75.4c0,0,1.5,24.4,1.5,28.1
	c0,3.7-5.9,122.6-5.9,128.5c0,5.9,4.4,254.9,3.7,261.5c-0.7,6.6,11.1,223.9,9.6,234.9c-1.5,11.1,8.1,85.7,8.9,91.6
	c0.7,5.9,7.4,34,8.1,37.7c0.5,2.4,21.4,66,28.8,124c5,39.3,21.4,85.9,20.1,82.7c-3.4-8.9,51.3,200.9,56.7,209c3.5,5,12.9,5,12.9,5
	l26-11.9c0,0,87.4-41.1,91.8-43.3c4.4-2.2,55.6-16.2,55.6-16.2l140.8-55.3c0,0,121.9-49.4,132.2-53.9s102.7-53.7,124.9-67.7
	c22.2-14,56.1-49.8,56.9-52.7s5.2-8.1,5.2-8.1S2816.1,4272.5,2814.7,4264.4z M2118.6,3561.2c2-15.2,9-24.3,26.5-24.7
	c12-0.2,22.2,13.2,22.2,13.2s12.3,13,3.5,31.9l0,0c-5.6,9.5-13.5,14-25.1,14c-14.6,0-22.4-7.2-25.9-21.6L2118.6,3561.2z
	 M2145.5,3762.9c11.8,0,22.2,4.1,27.6,13.9l0,0c0,0,2.4,12.7-2.8,27.5c0,0-11.5,14.6-24.2,14.6c-17.4,0-27.4-9.7-27.4-27.3
	S2128.1,3762.9,2145.5,3762.9z M2116,4006.8c0-17.5,14.3-31.7,32.1-31.7c11.7,0,21.9,6.2,27.5,15.4h-0.1c0,0,9.7,14.3,0.5,32.1
	c-5.5,9.5-15.9,16-27.9,16C2130.3,4038.6,2116,4024.4,2116,4006.8z M2159,4267.8c-17.6,0-28-10.6-28-28c0-17.4,9.8-27.5,27.3-27.5
	c12,0,18.6,3.6,24,13.3c0.6,1.2,3.9,10.4-2.1,25.1C2174.9,4261,2171.5,4267.8,2159,4267.8z"/>
</svg>
