<?xml version="1.0" encoding="utf-8"?>
<!-- Generator: Adobe Illustrator 21.1.0, SVG Export Plug-In . SVG Version: 6.00 Build 0)  -->
<svg version="1.1" id="Layar1" xmlns="http://www.w3.org/2000/svg" xmlns:xlink="http://www.w3.org/1999/xlink" x="0px" y="0px"
	 viewBox="0 0 4160 6240" style="enable-background:new 0 0 4160 6240;" xml:space="preserve">
<pattern id="normal" patternUnits="userSpaceOnUse" width="270" height="270" patternTransform="">
		<image image-rendering="optimizeQuality" preserveAspectRatio="xMidYMid meet" xlink:href="/images/simulator/default/default_tex.jpg" x="0" y="0" width="270" height="270" style="-ms-interpolation-mode: bicubic;" />
  </pattern>
  <pattern id="left" patternTransform="rotate(23)" patternUnits="userSpaceOnUse" width="270" height="270">
		<image image-rendering="optimizeQuality" preserveAspectRatio="xMidYMid meet" xlink:href="/images/simulator/default/default_tex.jpg" x="0" y="0" width="270" height="270" style="-ms-interpolation-mode: bicubic;" />
  </pattern>
  <pattern id="right" patternTransform="rotate(-23)" patternUnits="userSpaceOnUse" width="270" height="270">
		<image image-rendering="optimizeQuality" preserveAspectRatio="xMidYMid meet" xlink:href="/images/simulator/default/default_tex.jpg" x="0" y="0" width="270" height="270" style="-ms-interpolation-mode: bicubic;" />
  </pattern>
<style type="text/css">
	.normal{fill:url(#normal);}
	.left{fill:url(#left);}
	.right{fill:url(#right);}

</style>
<path id="pants" class="normal" d="M2545,3145c0,0-34,170.7-34.7,174.7s-17.8,116.3-17.8,116.8s-15,149.5-15,158S2469,3729,2469,3739
	s-11,120-11.5,126s-18.5,206.5-18.5,213.5s-14,147-14.5,154s-17.5,194-17.5,194s-7.5,114-8,127.5s-16.5,181-17,192
	s-14.5,196.5-15,198.5s1.5,21.5-19,28.5l-82,25c0,0-111.5-51.5-114.5-53s-13.2-8.8-13.2-8.8l2.5-61.2l6.9-194l1.3-641.3
	c0,0-12.7-220.7-11.3-224.7c1.3-4-4-92.7-4-150l-8-261.3c0,0-8-182-8-187.3s-10-169.3-10.7-174s-9.3-24.7-9.3-24.7s-12,162-14,170
	S2051,3803,2051,3807s-23,699-23,729s5,399,5,399s-6,4-8,7s-10.7,9-13,10s-29,6.3-33.7,8.3s-60.7,18-64,19.3s-5.3,4-10,3.3
	s-58.7-8.7-68-10.7s-34-6.7-36-8.7s-10-10.7-10-10.7l-2.7-85.3l-12-208l-24-397.3c0,0-30-358.7-30.7-378s-13.3-121.3-14-124.7
	c-0.7-3.3-24.7-248-24.7-248l-36.7-366.7c0,0,9.2,6,9.8,6s4-0.7,5.3-0.3c1.3,0.3,3.2,1.8,4.3,2.7c1.2,0.8,2.2,2,4.5,2
	s10.5-1.8,11.5-6.8s3.8-5.2-4.5-24c0,0-9.9-28.2-22.4-47.8l-11-17l1.2-1.5c0,0-9.8-55.2-10.8-59.5c0,0,0,19,40,22.5l5.2-167.2l2-11
	c0,0,3-1-1-10s-13-31-13-31l-12-32l-2-177l5-82h348v-132h205v130h368v282l1,9c0,0-37,9.8-38,13.5s-1,6.8-1,6.8s0.2,4-1,5.8
	s-3.8,10-4.2,11s-1.2,1.8-1.8,4s-1.2,3.8-0.5,5.2s1.5,3,2,3.8s1.5,2.5,1.5,2.5l0.8,3c0,0,1.5,22,1.5,24.5s2.2,30,2.2,36s0,8,1,12.5
	s3.5,12.5,3.8,16.8s5.8,41.8,6.2,49.8s-0.5,23,1.8,25.5s12,5.5,21.8-3c0,0-8.8,30-9.2,32.8s-1,4.2-1,6.8s-0.2,5.2-1.5,7.8
	s-15.5,30.8-17.2,34.2S2531,3133.2,2545,3145z"/>
<path id="body-left" class="normal" d="M2522.7,1121.7c-3.7-1.3-161-48-161-48L2301,1050l-7,13c0,0-68,296-69,299s-123,396-123,396
	l6,69c0,0,15,107,18,119s5,26,7,43s-28,334-37,364s-9.3,80.3-10.3,85.7c-1,5.3,9.3,56.7,9.3,56.7c6,47.3,43.3,108,43.3,108
	c12.7,22,35,48.3,41,53.3s44,27.3,44,27.3c15,10.3,32.7,13.7,40.7,15.7s28,2.3,28,2.3c42,4,95.3-7.3,97.7-7.7
	c2.3-0.3,59-13.3,71.7-16s54-15.7,54-15.7l34-15l4.7-5.7c0,0,4.5-18.8,4.3-22.3s-4-37.8-4-37.8s0.7-44.7,0.2-51.5
	s-0.5-41.2-0.3-47.3c0.2-6.2-4.3-45.8-4.7-47.5s-6.5-15.5-7.5-18.5s-6.7-20.3-9-26.7c-2.3-6.3-6.7-29-7-30.3s-17.3-65.7-21.7-80.7
	c-4.3-15-4.7-25.7-6-30.3c-1.3-4.7-6.7-45.3-6.7-45.3l1-2.7c3,6.3,9,4,9,4c8.3-2.3,7.7-14,8.3-18.7c0.7-4.7-1.3-8.7-3-11.3
	s-6.7-16-10-23s-5-16-5-16s-15.7-46.7-18-51s-1.7-7.3-1.7-7.3s0.3-2,0.3-3s-0.3-5-0.7-7s-1-4-2-5.7s-3.3-11.3-3.3-11.3
	c-9-23.3-9.7-49.7-9.7-49.7c-2-17,3.3-101.7,3.3-102.7s5-62.7,5-66.3s7.3-70.7,7.3-70.7l8.7-83c0,0,8.3-89.3,8.7-97
	c0.3-7.7,2.7-19.7,3.7-21.3s11-21.3,13.7-26.3s34-82.3,42.3-98.7c8.3-16.3,21.7-77.3,25-89.3s14.3-96.3,14.7-105.7
	c0.3-9.3,7.3-77.7,7.3-77.7l0.3-17.7C2597,1144.7,2526.3,1123,2522.7,1121.7z M2359.8,1199.1c-0.4,1.4-2.4,4.2-2.4,4.2s-2,1-2.8,0.9
	s-3-0.6-3-0.6s-37.4-22.6-39.5-22.8s-2.6-0.4-2.6-0.4l7.1-9.2c0,0,1.6-1.2,2.9-0.4c0,0,1.2,0.9,0,0c0,0,5.4,6.6,6.8,7.5
	s19.4,10.5,19.4,10.5l14.4,7.5C2360,1196.4,2360.1,1197.8,2359.8,1199.1z"/>
<path id="lapel-left" class="left" d="M2397,1171.8c-3.5-1.5-31.5-15.2-38.2-19c-6.7-3.8-44.2-29.8-44.2-29.8
	c-42.2-33.5-64-31.5-64-31.5l-11.2,69c0,0-10.5,61.8-10.5,62.8s-17,86.8-17,89.2s-18.5,85.5-20.2,92.2c-1.7,6.7-20.5,66.8-21.5,68.8
	s-23.8,90.2-23.8,90.2l-28.2,108.8l-16.8,57.2l-2.5,12l18.5,86.8c0,0,4.5-7.2,8.8-12.5s48.5-91.8,48.5-91.8
	c6.2-10.8,38-80.8,38-80.8l30-63l32.8-71.8l50.2-112.8c0,0,35.8-84.8,36.5-85.8s24-58,24-58c2-5.2,21.8-65,21.8-65
	C2410.2,1178.2,2400.5,1173.2,2397,1171.8z"/>
<path id="body-right" class="normal" d="M2148.7,1975c-1-9-6.7-51-6.7-51l-8.5-36.5l-23-68.5l-48-130.5l-74-239l-44-246l-22-150
	L1846,1070l-106,27.2l-126.3,34l-4.2,1l-3.5,4.7l-0.5,8.2c0,1.5,9.5,154.5,11,182.5s42.5,186,42.5,186s15,96,14.5,103s22,122,23,125
	s7.5,10,7.5,10s22,77.5,31,110.5s14.2,80.2,14,83.2s-2.5,30.2-2.5,32.2s-4,40-4.5,41.8s0.2,24,0,25.2s-1.9,13.8-2.6,15.5
	s-5.1,12.8-5.1,12.8l-3.5,5.2l-31.2,63.1l-13.2,24.9c-3.2,4.9-2.6,11.1-2.6,12.6s5.6,9.8,6.2,10.5s7.1,7.8,7.5,7.9s1.3-0.3,3-0.3
	s9.3,0.3,9.3,0.3s-8,51-8.7,52.7s-13,116.7-13,117.7s-11.7,118.3-11.7,118.3l-17,21.3l-1.3,147.7c0,0,28.7,8,35.3,10.3
	s121,29.3,121,29.3c63,14.3,85,7.7,85,7.7c38-5.3,65-24.3,65-24.3c44.3-30.7,73.7-88.7,73.7-88.7c21.3-32,36.7-89.3,36.7-89.3
	l20.3-79.7l23.3-114.3l20.3-134l10.3-99C2151.7,2052.3,2149.7,1984,2148.7,1975z M2091.3,2011.6c-13.1,0-24.2-9.2-27.9-21.9
	c-0.1,0-0.1,0-0.2,0c-1.9-6.7-1.5-12.7-0.3-17.6h0.1c3.4-13.4,14.7-23.2,28.3-23.2c16.2,0,29.3,14.1,29.3,31.4
	C2120.6,1997.6,2107.5,2011.6,2091.3,2011.6z"/>
<path id="collar-right" class="right" d="M1830,1075.7c0,0-14,16.3-14.7,17.7c-0.7,1.3-30.3,44-30.7,47c-0.3,3-4.3,8.3-1.3,10
	s35.7,3,38,3.3s14,2.3,14,2.3s96-64.3,98.7-68s12.3-7.7,12.3-7.7s-3-39.7-2.7-43.7s5.3-22.7,6.7-27.7c1.3-5,8-19,8.7-22.3
	s4.3-31.3,4.3-31.3s-99,94.7-104.7,98.3c-5.7,3.7-16.3,13.3-20.3,16S1830,1075.7,1830,1075.7z"/>
<path id="collar-left" class="left" d="M2233.5,960.8c0,0,18.2,20,20,21.8s10.8,20.7,21,29.3s36.2,29.8,39.3,32.3
	c3.2,2.5,13.8,13.2,24.7,17.5c0,0,21,8.2,22.5,9.8c1.5,1.7,3.7,1,13.3,16.7c0,0,28.3,41.8,28.8,42.5s5.3,6.3,5.7,10.3
	c0.3,4,0.2,11.8-9,11.5l-55.3-0.3c0,0-66.8-48.2-77.7-51.3l-17.3-4l6.8-36.3c0,0,1.7-13.7,2-14.8c0.3-1.2,1.7-1.3-5.7-20l-13.3-30.8
	C2239.3,995,2235,987.5,2233.5,960.8z"/>
<path id="arm-left" class="normal" d="M2598,1144.5c4.3,0.5,11.4,0.3,13,2.3c0,0,12.3,13.5,16.2,25l26.3,63.8l15.8,41.7
	c0,0,19,57.5,20.2,62s21.8,86.7,22.2,88.7c0.3,2,3,14,4,18.7s2.3,11.3,3,17s4,39,4.2,40.2s3.5,36.2,3.8,37.5s2.2,31.8,2.2,31.8
	s1.5,17.3,1.5,18.8s9.2,126.5,9.2,126.5s3.5,53,4,59.5s1.5,22,1.5,31.5s4.5,155,7,178c0,0,8,140,8,145.5s1.5,93,1.5,96.5
	s0.5,176.5,5.5,220c0,0,9.5,167,9.5,170.5s8,143.5,8,148s1,38.5,1,38.5l-3,6c0,0-16.5,15-18.5,16.5s-4,3-4,3s-2.5-27.5-7-29.5
	c0,0-113.5-5.5-149.5-1c0,0-64,7.5-62.5,21l-2-2l6-102c0,0,1-42.5,1.5-45.5s5.5-19,5.5-25s-5.5-49-5.5-69c0,0-1-118-1-127
	s-1-28-2-30s-18.5-43.5-18-78.5L2516,2222c0,0-8.5-110.5-8.5-112s-2-142-0.5-163s7-161,7-161s2-118,3-120.5s0.5-47-10.5-75.5
	c0,0-13-34.7-13-36.3c0-1.7-1.5-11.5-1.2-14.2s6.7-21.2,6.7-21.2l11.5-34.5c0,0,5.2-18.6,18.2-44.6c0,0,18.2-47.5,19.8-52.2
	s9.5-39,10-40.2s11-59,11.5-62s9.2-53.8,9.2-56s7.5-57.8,8-59.2S2594.3,1144.5,2598,1144.5"/>
<path id="lapel-right" class="right" d="M1946.3,1080c0,0-5.3-6-23.3,6c0,0-73.7,52-78.7,56s-46,31-49.7,34.3s-10.7,6.3-7.7,16.7
	c0,0,37.7,101.7,43,116.3c0,0,41.7,91.7,54.3,115.3l60.3,127.3c0,0,29.6,59.5,32.8,66.8s28.8,51.5,44,79.5c0,0,49.8,83,50,83.8
	s38.8,63,42.2,74.8c0,0,17.8,43.2,19.2,47.2s7.5,19.5,7.5,19.5l0.8,2.2l-6-44l-20.2-96.5l-15.2-59.5l-16-69.5l-22.2-84l-20-74.8
	c0,0-6.2-18-6.8-27.2s-0.4-18.2-1.2-20.1c-0.8-1.8-11.7-28.2-11.7-28.2s-11.3-21-22.3-74.5l-37.5-177
	C1962,1170.5,1946.2,1083.5,1946.3,1080z"/>
<path id="arm-right" class="normal" d="M1601.5,1131.5c0,0-7.8-0.5-9.5,0.8s-6.3,1.7-9.7,5.7c-3.3,4-28.7,59.3-30,64s-23,56-24.7,62.7
	s-23.7,83.7-24,86s-14.2,52.8-16.7,65.3s-14.5,102.5-15,104s-11.5,91.5-11.5,106.5s-6.5,121.5-6.5,131s-10.5,184.5-11,189
	s-5.5,161-5.5,173s-3,125.5-3,128.5s-6,210.5-7.5,226.5s-13,209.5-14,218.5s-6.5,77.5-7.5,80.5s-2,13.5,15,20.5l42,20
	c0,0,2-35.5,5-36s121.5-8.5,170.5,1.5c0,0,18.5,3,26,12l0.5,2c0,0,3.5-1.5,4-4s-5.5-31.5-5.5-40s-1-79.5-0.5-82.5s3.8-65.7,4.5-74
	s4.3-132.3,4-138.3s1.7-67,1.7-75s-2-93.3-1.7-96.7s4-57.3,6-71.3s3.7-49.3,3.7-49.3s13-106.7,15-120s10-96,10-98s0.7-83.3,1.3-93.3
	s-6.7-50-6.7-57.3s3.7-42.2,3.7-42.2s-8.3-31.5-9-39.2s-3.7-27.3-4-33.7c-0.3-6.3-6-59.7-7.3-68.7s-11-78.7-11.7-82
	s-13.7-72-14.7-77.7s-8.7-46.7-9.3-49c-0.7-2.3-11.3-42-12-46.7s-7-41.7-9-89.3c0,0-4-57.3-4-60.3s-1.7-29.3-2.3-37
	c-0.7-7.7-2.3-20.3-3.7-24S1609.7,1130,1601.5,1131.5z"/>
</svg>
