<?xml version="1.0" encoding="utf-8"?>
<!-- Generator: Adobe Illustrator 21.1.0, SVG Export Plug-In . SVG Version: 6.00 Build 0)  -->
<svg version="1.1" id="Layar1" xmlns="http://www.w3.org/2000/svg" xmlns:xlink="http://www.w3.org/1999/xlink" x="0px" y="0px"
	 viewBox="0 0 4160 6240" style="enable-background:new 0 0 4160 6240;" xml:space="preserve">
<style type="text/css">
	.st0{fill:#9DA5A8;}
	.st1{fill:#C0C7C9;}
	.st2{fill:#777D7F;}
	.st3{fill:#939596;}
	.st4{fill:#BCBCBC;}
	.st5{fill:#BAC8CE;}
</style>
<path id="pants" class="st0" d="M2260.3,2474.3l-584-2.7L1671,2861c0,0,22.7,15.3,30.7,25.3s23.3,80,23.3,83.3s-5.3,122.7-5.3,122.7
	l-48.7,0.7c0,0,9.3,54.7,14.7,60.7c5.3,6,35.3,44,33.3,49.3s-18.7,12.7-25.3,6.7c-6.7-6-18.7-6-18.7-6l12.7,18l-1.7,1.3l4.8,56.8
	l5.8,54.2l7.8,67.8L1739,3775l67,787c0,0,18.5,474.5,19,479s1,9.5,1,9.5s2,3.5,3.5,4s5.5,1,10.5,2s61,13.5,66,15s9.5,3.5,11.5,3
	s12-7.5,17.5-7.5s19-2.5,20.5-3.5s20-6,20-6s15-8,25-8.5s9-2.5,16-4s17.5-6,20.5-7.5s19.5-10,19.5-10l2-1.5l1-8l-0.5-76l2.5-159.5
	l5-315l4-271.5l9-402.5l10-327c0,0,12-189.5,26.5-262c0,0,9-39,13.5-44.5c0,0,5.5,19.5,7,25s9.5,108,11,115s5,140,5,140l6.5,191.5
	l10.7,292.8c0,0,15.3,496.7,14.7,509.3c-0.7,12.7-8,274-8,274l-8.7,188c0,0-4,124.7-3.3,126.7s2.7,12.7,3.3,14.7c0.7,2,2,8,6,8
	s96,36.7,102.7,39.3c6.7,2.7,14.7,4,20,6s3.3,0.7,8.7,0c5.3-0.7,46-12.7,50-13.3s16-2,19.3-8s5.3-14.7,6-16.7s6-139.3,6-139.3
	l8-136.7l14.7-174.7l26.7-254l44-401.3l30-285.3c0,0,3.3-54.7,3.3-60.7s4-54.7,4-54.7l17.3-145.3l24-205.3v-5.3c0,0-12,6-14,8
	s-11.3,12-14,12s-8-1.3-10.7-2s-8-2-8-9.3s0-12.7,4-19.3s28.7-45.3,28.7-45.3s6.7-15.3,7.3-17.3c0.7-2,9.3-32.7,9.3-32.7l-12.7-1.3
	c0,0,4-142.7,4.7-146s0-18,3.3-22.7s9.3-18.7,11.3-20.7s25.4-17.4,37.4-20.4s-1.5-394.5-1.5-394.5L2260.3,2474.3z"/>
<path id="arm-left" class="st1" d="M2654.3,1266.3c1.7-1.3,9.2-0.3,10.7,0.2s7.5,5,9.5,6.5s7,6.5,7,6.5s8,23,9,27.5s27,90,28.5,94.5
	s10.5,51.5,10.5,51.5s35.5,186.5,36,192.5s16.5,130,21,144.5c0,0,6,35.5,6,43.5s7,167.5,8,170s6.5,169,6.5,169l5,151l6,202.5
	c0,0,8,227.5,8.5,236s9,98.5,9,105s1,9.5,0.5,11.5s-8,7-8,7s-26.5,9.5-32,13.5s-26,15.5-26,15.5l-7.5-49.5c0,0,0.5-2.5-5.5-3.5
	s-39-3-49.5-3.5s-63.5-0.5-68.5-0.5s-44,2.5-50,4s-19.5,11-21.5,13.5s-7,11.5-7,11.5s0-13.5,0-16.5s1-5,2-7s3-8,3-8s0-115,0-116.5
	s1-45,3-51s7-35.5,7-35.5l1.5-3l-5-69c0,0-10-122.5-10-124s-2.5-24.5-2.5-24.5l-1-63.5l-0.5-109c0,0-1-161-1-162.5s-1.2-42-1.2-42
	s0.7-33.8,0.7-35.2c0-1.3-0.8-52.7-0.8-52.7l-1-62.3l-0.7-40.7c0,0,3-15.7,4-20s13-54.7,13-54.7s24.7-98.7,25.3-100.3
	c0.7-1.7,7-39.7,7.3-41s1-24,1-27s-1-62,0-66.7s4-33.7,5-36.3c1-2.7,14.7-108.7,14.7-108.7l11-71.3l9.3-54.7L2654.3,1266.3z"/>
<path id="body-left" class="st2" d="M2363,1167c0,0,265.3,89.7,269.3,90.3c4,0.7,20.3,6,20.3,6l1.7,3c0,0-1.3,2.3-1.7,3.7
	c-0.3,1.3-7.9,26.1-8.9,36.8s-12.8,90.6-12.8,90.6l-14.8,101.4c0,0-10.8,65.7-10.8,69s-2.8,27.8-1.8,36.8s0.9,56.5-0.1,60.5
	s-32.7,119.6-32.7,122.2s-18,71-17,74.5c-0.7,0.3-0.7,3.6-0.7,3.6s-13.3,14.3-15.3,20.3s-16.3,26.3-21.7,74.3c0,0-5.7,49.3-5.3,75.7
	c0,0-0.7,74.7-0.3,78.7c0.3,4,8,92.3,8.3,97.3s0.3,11.7,1,13s1.3,7.3,1.3,7.3s1.7,2.3,1.7,3.7c0,1.3,0,2.7-0.3,4.3
	c-0.3,1.7-0.7,2.3,0.7,3.3c1.3,1,3.3,2.7,3.7,3.7s1.7,5.7,1.7,5.7l8,61.3c0,0,4,32.3,4.3,37.3s6,23,6.3,26s11.3,55.3,12,58.3
	s8,75,8.3,80s4.7,64.3,5.3,70c0.7,5.7,3.5,59.3,3.5,61.3s-1,5-1,5s-24.5,7-29.5,7.5s-57,4.5-62,4.5s-32.8,0.2-36.7,0
	c-3.8-0.2-32.8-0.8-34.8-1s-32.5-3-36.5-3.2s-26.2-0.8-30.2-1.2c-4-0.3-31.3-1.5-39-1.5s-26.2,0-26.7,0s-12.2,0.3-12.2,0.3
	s-35.2-4.8-51.8-15s-41.5-24.2-47.5-32s-36.2-41.8-40-63.5c0,0,6.2-36,10.9-48s23.3-109.3,24-127.3s-1.3-360.7-0.7-368.7
	s-4-90-17.3-111.3s-26-94-26.7-100s10-47.3,16-58s50.7-134,58-148s73.3-314.7,82.7-346c9.3-31.3,23.3-118.7,23.3-118.7l32.7,28.7
	c0,0,15.7,10,20,13C2356,1165.7,2363,1167,2363,1167z"/>
<path id="collar-left" class="st3" d="M2270.3,1070.3c0,0,5,50.7,5,53.7s-12,79.3-13.7,85.3s-3.9,24.2-3.9,24.2l63.9,66.5l11-1.3
	c0,0,34.7-8.7,49.3-11.3c0,0,20.7-2.3,24.7-3s9.5-0.2,9.5-3.8s-27.5-63.5-28.5-65.8s-21.3-43.3-25.7-48.7S2276,1086,2270.3,1070.3z"
	/>
<path id="lapel-left" class="st4" d="M2260.5,1218.2c0,0,8.8,11.5,9.8,13.2s8.8,8.7,11.5,11.7s23,25.5,25,27.2s15.8,16.8,18.3,20.3
	s4,6.5,5.2,7.2c0,0,2.5,1,6,1.5s101.7-1.4,101.7-1.4s9.2,0,10.2,0.2s7,3,6,8.8c0,0-18.2,40-20.8,46.5s-27.5,55.8-29.2,58.8
	s-44.8,84.2-47.5,88s-63.5,92.2-63.5,92.2l-60,82.5l-46.5,59.8c0,0-22.2,28.5-23.2,29.5s-13.5,13.5-14,14.2s-22.8,23-24.8,26.2
	s-10-5-10-5l-5.5-26.5c0,0,14.5-20.5,15.8-22s27.5-80,28.2-81.5s14-47.8,14-51.5s0.5-13.5,3.2-18.2s16.5-36.8,18.2-41
	s16.5-54,16.8-55s18.8-76.2,19.8-80.8s15.5-79,16.2-82.5s5.5-52,6.2-56S2260.5,1218.2,2260.5,1218.2z"/>
<path id="arm-right" class="st1" d="M1619.7,1260.2l3.2,2.2c0,0,3.7,3,5.3,8c1.7,5,4.2,11.3,4.5,17.3s2.8,28.2,2.7,29.7
	c-0.2,1.5,6.3,53,7.7,63s12,57.2,16.5,67.7s23,81.5,25,87s17.8,54.5,19,58.2s16,39.8,16.2,40.8s9.5,30,10.5,33.5s1.8,17.5,1.8,21.2
	s-0.5,31.5-1.2,36.2s-1.2,30.2-0.8,33.5s2,15.2,2,15.2l0.8,13.2l3,61.8l6.2,72.2c0,0,11,130.5,10.5,134s-1,28.5-1,31.5
	s-4.5,23.5-4.5,27.5s-7.5,38.5-8,44.5s-3,11-2.5,15s5.2,39.5,5.2,43.8s2.2,42.8,2.2,42.8s1,22.2,0.8,25s-3.2,32.8-3.2,33.8
	s0.5,51.5-0.2,56.8s-1.5,67.2-1.5,67.2s-4,72-4,72.8s-8.5,104.5-8.5,104.5l-2.8,39.5c0,0-5.5,136-5.8,139.2s-2.2,42-2.2,44.2
	s-0.2,13.2-0.5,15.8s-0.5,6.8-0.5,6.8l-3.8-4.5c0,0-6.2-6.5-19.2-8s-52.8-5.5-56.8-5.5s-43.8-1.8-92.8,6.5c-0.8,0-15,2.5-15,2.5
	s-9.8,28.8-9.8,31.8s-1.5,16.2-1.5,16.2l-6.8-1c0,0-0.8-1-1.5,0s-3.5,4.8-3.5,4.8l-0.8,2.8c0,0-6-5.5-8-7.5s-8-5.5-10-6.8
	s-16.8-18.8-14-34.8c0,0,4.2-22.8,5-28s1.5-60.5,1.5-60.5l3.2-103.5l0.2-73c0,0-0.5-65.5-0.2-66.2s0-70.5,0-70.5l0.2-142.8
	l-0.2-36.2l0.8-75.8l2.2-65.8c0,0,1.2-59.5,1.5-61s1.8-45.5,1.8-45.5l2.5-54.2l2.8-66.5l4-86l1.8-75.8l4.5-84.8
	c0,0,4.8-34.5,5.5-37.2s17.2-88.2,17.2-88.2l20.5-90c0,0,35.5-136,36-136.8S1600.3,1269.8,1619.7,1260.2z"/>
<path id="body-right" class="st0" d="M2179,1984c-0.5-6.5-2.5-36-4-42s-21.5-69-24-73.5s-72.5-202-74-208s-14.5-81-16.5-88.5
	s-41-132.5-42.5-140s-34.5-255-34.5-255l2-86.5c0,0-63.5,66-71,69.5s-18.5,9-18.5,9l-32,13c0,0-207,67-209,67.5s-29.5,9.5-29.5,9.5
	s-7-0.5-7.5,4s8,78,8.5,88s23,132.5,26,143.5s55,149.5,57,156.5s9,88,11.5,92.5s13,25,13.5,27s11.5,35.5,13.5,44
	s21.5,109.5,21.5,111s7.5,47.5,9,52s4,41,4,44s2,42,2,47.5s-6.5,62-7,69s-5.5,42-5.5,45.5s-3,15.5-3.5,18.5s-8.5,20.5-9.5,24.5
	c0,0-5.3,13.8-5.7,15.5s-4.5,19.3-5.2,21.2c-0.7,1.8-3.3,10.3-3.3,10.3s-0.8,22.7-0.8,23.3c0,0.7-1.7,24.8-1.7,24.8l-0.8,41
	c0,0-1.7,41.5-1.7,43.2s-1.7,67.2-2,68.8c-0.3,1.7-1.7,28.8-1.7,29.5s-2.2,28.7-2.3,29.2s-1.8,41.8-2,42.5s-3.8,41.5-3.8,41.5
	s-1.3,29.3-1.5,31s-1.5,14-1.5,14s12-0.8,14-0.3s84.5,2.5,86,3s66-3,69.5-3s42-4,49-5.5s27.8-0.3,28.5-0.3s38-0.2,38.8-0.4
	s22.8-6.4,26.6-8.1c3.8-1.7,25-10.2,34-17.5s27-21.5,36.3-35.7l22.8-37.5l13.2-29c0,0,10.9-24.8,11.6-27
	c0.7-2.2,10.2-35.7,10.3-36.8c0.2-1.2,10.3-61.7,11.8-66.7s5.5-49.5,5.5-52s1-63.5,1-63.5s2-115,2.5-125S2179.5,1990.5,2179,1984z
	 M2123.1,1986.6c-11.3,0-21-7.8-25.1-18.9h-0.1c-3.5-10-1.4-19.3,0.6-24.8c4.3-10.5,13.7-17.8,24.6-17.8c15,0,27.2,13.8,27.2,30.8
	C2150.3,1972.8,2138.1,1986.6,2123.1,1986.6z"/>
<path id="lapel-right" class="st5" d="M1997.7,1223.3c0,0-16.3,18.3-18.3,21s-14.7,14.3-18,17s-27.3,25-30.7,28.3
	c-3.3,3.3-17,19.7-17,19.7s-48.8-2.3-52.8-2.3s-48.8-1.3-51.5-1.3s-12-1-15.3-0.3s-12.7,4-9.3,11c0,0,45.3,90.3,48.3,95
	s41.3,77,43.7,81.3c2.3,4.3,25.7,48.7,25.7,48.7s60.7,91.7,63.3,95.7c2.7,4,45.7,62.3,45.7,62.3s61.7,76.7,66,80
	s29.3,37.7,31.7,39.7s32,44.8,39.7,60.8s15.5,29,15.5,29l7.8,18.5l-16.7-61.3l-15.2-54.8l-25-71.8l-20.2-60.2l-14.5-52.3
	c0,0-13.7-51.3-13.7-53.2c0-1.8-1-13.8-1-13.8l-7.7-17c0,0-13-39-14.2-43s-12.2-56.7-12.2-56.7l-11.7-61.3l-6.7-37.3l-5.8-48.2
	c0,0-3.8-34.2-4-35.5s-3.5-22.5-3.7-24.2s-0.8-14.8-0.8-14.8L1997.7,1223.3z"/>
<path id="collar-right" class="st3" d="M2002.7,1066c0,0-21.3,23-22.3,24.3s-20.7,16.7-22,19.3c-1.3,2.7-27,29-29,31.3
	s-27.3,23.3-29,25s-6,3.3-8.7,8.7c-2.7,5.3-28,44.7-33.3,58c0,0-10.7,22-12,28.7s-8.5,34-8.5,34s52.2,7,54.8,8c2.7,1,23.7,6,23.7,6
	l4.3-0.7l79-79c0,0-7-69.7-7-79.3c0-9.7,1.7-31.3,2.3-36c0.7-4.7,6-20.3,6-25.7C2001,1083.3,2002.7,1066,2002.7,1066z"/>
</svg>
