<?xml version="1.0" encoding="utf-8"?>
<!-- Generator: Adobe Illustrator 21.1.0, SVG Export Plug-In . SVG Version: 6.00 Build 0)  -->
<svg version="1.1" id="Layar1" xmlns="http://www.w3.org/2000/svg" xmlns:xlink="http://www.w3.org/1999/xlink" x="0px" y="0px"
	 viewBox="0 0 4160 6240" style="enable-background:new 0 0 4160 6240;" xml:space="preserve">
<pattern id="normal" patternUnits="userSpaceOnUse" width="270" height="270" patternTransform="">
		<image image-rendering="optimizeQuality" preserveAspectRatio="xMidYMid meet" xlink:href="/images/simulator/default/default_tex.jpg" x="0" y="0" width="270" height="270" style="-ms-interpolation-mode: bicubic;" />
  </pattern>
  <pattern id="left" patternTransform="rotate(23)" patternUnits="userSpaceOnUse" width="270" height="270">
		<image image-rendering="optimizeQuality" preserveAspectRatio="xMidYMid meet" xlink:href="/images/simulator/default/default_tex.jpg" x="0" y="0" width="270" height="270" style="-ms-interpolation-mode: bicubic;" />
  </pattern>
  <pattern id="right" patternTransform="rotate(-23)" patternUnits="userSpaceOnUse" width="270" height="270">
		<image image-rendering="optimizeQuality" preserveAspectRatio="xMidYMid meet" xlink:href="/images/simulator/default/default_tex.jpg" x="0" y="0" width="270" height="270" style="-ms-interpolation-mode: bicubic;" />
  </pattern>
<style type="text/css">
	.normal{fill:url(#normal);}
	.left{fill:url(#left);}
	.right{fill:url(#right);}

</style>
<path class="normal" d="M1655.5,3076.5l19.5,154l15,153.5l19,198.5l18,176.5l23,237.5l15.5,197c0,0,12,221,12,229.5s12.5,272,13,278
	s-2,168.5-2,170s1,27,5.5,33.5l9,15c0,0,12.5,3.5,20.5,5s69,12,73,13.5s5.5,1.5,5.5,1.5s30-10,32-10.5s31.5-8.5,37-10
	s16.5-7.5,21-7.5s10.5,0.5,13.5-1s13-7.5,13-7.5l19-10l2.5-33.5l5-385.5l4-263.5l2.5-154c0,0,2-104,2-105.5s4.5-133,4.5-139.5
	s4.5-131.5,4.5-131.5l4.5-187.5c0,0,5.5-206.5,8-226.5c0,0,15-159,15.5-164.5s12.5-67,14.5-71.5s5-8,5-8s12,61.5,13.5,65.5
	s3,38,3,42s5,155,5,155l6.5,203.5l11,261.5c0,0,8,199,8,210.5s4,130.5,4,132s3.5,141,3.5,141s-5.5,182.5-5.5,191s-7.5,195-7,196.5
	s-5,137-5,139s-3.5,133.5-3,135.5s1.5,7,1.5,8.5s0,3,1,4.5s104.5,41.5,109,42.5s17.5,6.5,21,7.5s6.5,1,6.5,1s23.5-6,28-8
	s31-10,33.5-11s7-1.8,7.8-2.5s3.3-4.7,3.5-6.7s0.5-11.3,0.3-12.8s-0.3-52.5-0.3-53.2s0.5-21.3,0.5-22s2.9-41.3,3.2-43.3
	s7.2-87.2,8-91.2s6.5-82.8,6.5-84.8s3.8-49.8,4.2-54.2s3.5-47,4.5-54s6.2-61.2,6.8-64.2s6.2-56,6.8-59.2s5-50.8,5.8-55.2
	s8.2-69.5,8.5-72.2s9.8-89,9.8-89l7.5-61c0,0,10.8-88.2,10.8-89.2s10.8-90.2,10.8-90.2l6.8-52.5c0,0,33.7-365.2,33.7-368.6
	c0-3.3,8-104,8.7-114s47.3-229.3,47.3-229.3l22.7-112c0,0-32.9-1.2-33.8-1.3c-0.8-0.1-8.2-1.3-9.8-1s-15.7,4.2-18.8,6.1
	c-3.2,1.8-8.5,5.3-10.1,6.4c-1.6,1.1-25.8,9.2-25.6-14.8c0,0-1.1-6,2.4-14.2s29.1-48.9,29.1-48.9l4.5-15l14.2-31.1l-0.9-0.9
	c0,0-11.1,5.9-13.6,5.9s-15.9-0.1-15.9-0.1s-0.9-9.6-0.1-11.9s4-22,5.2-25.8s3.2-28,4.2-33.2s2.2-17.8,3.2-25s6.2-23,7-28.5
	s6.8-38.2,6.8-39.5s1.2,0.8,0-1.2s-4.2,1.2-2.5-4.5s2.8-8.2,4.5-10.8s24.5-45,30-52.5s33-37.5,33-37.5l2.8-7.3l-2-62L2537,2487
	l-111-294h-701c0,0-26,308-28,314s-19,64-19,64l-4,98l-49.3,3.7l5,5c0,0,13,13.3,14.3,16.3s21,29.3,22.3,34s25,54,26.3,57.3
	s4,5,4,7.3s0.3,17,0.3,17s-3.7,117.3-3.3,120.7c0.3,3.3,1,49.7,1,49.7s1,2-3,1.3s-7-0.7-8-1s-7.3-3.3-7-2.3s13.7,31.3,12.7,33.3
	s-2.7,3.3-2,5.7c0.7,2.3,0.7,2.7,2.3,5c1.7,2.3,24,35.7,24.3,36.7s17.3,24,1,37.3c0,0-14.7,13.7-32.7-15.3L1655.5,3076.5z"/>
<path id="body-left" class="normal" d="M2571.7,2489.7l-8.3-55l-13-79.3c0,0-16.3-90.3-17.7-98.3c-1.3-8-7-40.3-8-42.7
	c-1-2.3-3.3-8.3-3.3-8.3s0,0,2.3-0.3s2.7,1.7,2.7,1.7l1.7,6.3l7.7-6l0.7-2.7c0,0,1-10.7,1.7-16.3c0.7-5.7,1-12,1-15
	s-1.3-6.7-1.7-8.3c-0.3-1.7-3.3-49.7-3.3-49.7s-20.3-31-20.7-32c-0.3-1-13-17.3-13-17.3l-2.3-1.3l-0.3-1.7c0,0-2-5.7-2.7-7.7
	s-9.3-31.3-10.7-37c-1.3-5.7-3.7-47.3-3.7-55s6.7-52.7,6.7-54.7s1.7-12.3,3.7-16s10-25.7,11.3-29.7s44.7-185.3,46.7-189.3
	s27-175.7,28-181.3c1-5.7,3.3-181.3,3.3-190.7s0.7-95.7,0.7-101.3c0-5.7,18-105,18-105l-2-8.7c0,0-4-1-5.3-1s-103-28.3-103-28.3
	l-126.3-27c0,0-33.3-5-34-7s-39.3,4-42.7,16c-3.3,12-11.3,43.3-14,53.3s-83.3,253.3-88.7,259.3s-39.3,127.3-40.7,135.3
	c-1.3,8-10,60.7-12.7,72s-34.7,82.7-38.7,99.3c-3.1,13.1-10,220.9-12.8,309h1.9c3.5-12.8,13.9-22.3,26.1-22.3
	c15.1,0,27.7,14.4,27.2,31.7c-0.5,18.3-7.7,31.5-27.3,31.1c-13.1-0.3-24-10.6-26.7-24.5h-1.7c-0.5,14.5-0.7,23-0.7,23l20.8,280.5
	l5.5,25.2c0,0,10.2,47.8,10.5,51.2s15.5,74.5,18.8,87.8s19.2,56,23.2,68.8s27.4,57.4,30.1,61.9s19.4,22.8,23.2,27.5
	s33.2,24.1,40.2,29.8s29.7,14,35,15.7s23.3,6,38,7s74,1.3,83,1.7s44.3-4.7,54.3-5s28.7-9.3,34.3-10.7c5.7-1.3,76-24.7,77-24.7
	s13.3-6,13.3-6l-4.3-62.7L2571.7,2489.7z"/>
<path id="collar-left" class="left" d="M2237.2,861.2c0,0,24.5,25,26.8,27s11.8,12.5,13,15.5s30.8,54.8,39.5,66s33.5,51,53,68.2
	c0,0,51.2,55.2,66.2,65.5c0,0,17.8,15.8,18,19.2s-15.5,25-16,25.8s-45.9,66.7-45.9,66.7s-5.1-7.9-11.8-7.7s0-6.8-4.2-8.5
	s-25.2-14.5-29.8-19s-37-35.2-39.5-37.8s-29.2-24-40.8-30.8l-17-11.5c0,0,1.5-9,2.2-12s3.5-13.5,3.2-19s-2.5-26.5-2.2-29.2
	s1-15,2.5-19.5s4.5-3.8,3-7s-8.5-20.2-9.2-27.2s-8.5-85.8-8.5-90s-2.8-32.2-2.8-32.2L2237.2,861.2z"/>
<path id="lapel-left" class="left" d="M2249,1099.9c0,0,19.5,12.4,21,13.6s23.1,17.9,30.6,23.1s43.5,40.4,44.9,41.6s17,14.5,26,18.5
	s9.4,4.8,15.5,7.9s8.3,5.7,8.3,5.7s-25.6,42.7-28.3,46.4s-56,75.5-57.5,77.8s-40,57.5-43.2,62s-60.8,94.8-62.5,97
	s-47.8,82.8-58.2,114.5l-26,56.2l-4.5-26.5l-10-44l6.2-2.2l8.2-36.2c0,0,9.8-61.8,10.8-63.8s3.5-36.8,3.5-37.5s-0.5,0,0.5-2.2
	s7.2-12.2,9.8-15.5s24-60.8,25.5-65.2s26.2-85.2,27-87.8s29-113.2,31-119s18.2-49.5,19.2-54S2249,1099.9,2249,1099.9z"/>
<path id="arm-2" class="normal" d="M2577.7,2563.8c0,0-2.3,1.7-1,3.8c1.3,2.2,25.7,7.2,26.7,7.3s101.7,21.8,101.7,21.8
	s84.2,19.8,87.3,20.2c3.2,0.3,11.7,1,11.7,1s47.7,12.8,50,13.5s19,4.7,23.3,6.2s35.2,13.5,35.7,14.5s0.5,6.7,0.2,7.2
	s-2.3,2.7-3.7,2.7s-34.8,0.2-37,0.7s-20.5,0.3-39.7,5.3c0,0-50.2,15.3-51.8,15.5s-30,9.7-32.3,10s-6.6,0.1-7.8-0.7
	s-8.8-3.8-10.8-5.1s-17.6-5.5-20.2-6.2c-2.7-0.7-60.4-12.6-95.4-10.2c0,0-7.7,1.3-9.3,1.3s-2,0.3-5.3-0.7s-7.3-2.3-11-1.3
	s-6.7,2-7.3,3.3c-0.7,1.3-1.3,4-1.3,3s-2.7-2.3-3.7-3.7c-1-1.3-3-3.3-2.7-7.3s-0.7-10.3,0.7-16.3c1.3-6-2-29.7-2.3-33
	s-3.2-38.9-3.2-41s-1.5-5.8,0.5-7.1s6.8-4.8,6.8-4.8L2577.7,2563.8z"/>
<path class="normal" d="M2152,1857c-0.5-8-15-120.5-17.5-132s-27-107-29.5-114s-62-190-63-203.5s-86-269.5-86-277.5l-53.5-126.5
	c0,0-61.5,30.5-69,33.5s-56,14.5-56,14.5l-1.2-0.5c0,0-89,24.7-93.7,26.7s-42.7,14.7-45.7,16.7s-6.3,4.7-6.3,4.7
	s13.7,79.7,13.3,92.3c-0.3,12.7-1.7,136.7-1.7,136.7s-0.7,58.3,0.3,68.3s-0.7,67.3,4.7,80c5.3,12.7,19,67.7,21.7,76.7
	s22.7,130,25,134.3s41.7,145,42,146s7,72.3,8,80.3s2.3,62.7,2.3,68.3s-2.3,47-5.3,58s-7.3,25.3-7.3,25.3s-4,6.7-5,10.7
	s-1,3.3-1.3,7.3s-17.3,57.7-18,60c-0.7,2.3-8,21.7-9.7,24s-4.3,3.3-4.7,6c-0.3,2.7-1,6,1,10.3s5.3,20,6.7,22.3
	c1.3,2.3,1.3,2.3,2.7,2.7c1.3,0.3,1.3,0.3,1.3,0.3s-1.3,8.7-2,12.7s-3.3,33.3-3.3,33.3s-0.3,23-1.3,27.7s-4,46.7-4,49.7
	s-6.3,46-6.7,48.7s-6,29.7-6,32s-3.7,39-3.7,42s-6.7,55.3-7,61s-5.7,64-6.3,66s-2.7,38-2.7,38s23.3,11.3,26.3,12
	s77.7,23.3,82.7,24.7c5,1.3,33.3,7.7,38.3,7.3s17,1.7,32.3,0s67.7-12.7,75-16s24.3-11,35.7-19.7c11.3-8.7,22.3-15.7,28.7-21.7
	c6.3-6,24.7-31.7,28.3-37c3.7-5.3,16.3-27.3,20-33.3s19-48.1,20.5-51.3s24-73.5,26-79.5s22.5-104,23.5-105.5s30.5-160.5,32.5-170
	s21-168,22.5-175s1-8.5,1.5-14.5S2152.5,1865,2152,1857z M2106.2,2008.5c-12.3-0.3-22.6-9.3-26.1-21.9l-0.2-18.6l0.3,0
	c3.5-12.8,13.9-22.3,26.1-22.3c15,0,27.6,14.4,27.2,31.7C2133,1995.7,2125.8,2008.9,2106.2,2008.5z"/>
<path id="arm-right" class="normal" d="M1634.8,1096c0,0,10,20.8,12,27s6,50.2,6.2,58.2s2.5,119,2.5,122.8s-1.5,45.8-1.2,47
	s-3,48.5-3,53.5s-1.5,10.8,1,18s13.2,53.8,14.2,57.5s3.1,11.7,4.8,17c2,6.5,8.8,17.2,9.2,20.2s2,33,2.2,35.8s0,10.1,2.3,17.8
	s19.7,76.7,21,82s14.3,63.7,15,66.3c0.7,2.7,12.7,69.7,13,72.3c0.3,2.7,3,21.3,3,25.3s0,13.3-0.3,16.3s-13,48-14,52.7
	s-6,22.3-6,27.3s-5.3,57-5.3,57s-15,140-15,141.3s-5.3,52-5.3,54s-1.3,211.3-1.3,211.3l-20.5,210.5c0,0-6-3.5-9-5s-9.5-5.5-14-6
	s-36.5,0-43,0.5s-72,5-78.5,5s-62.5,5.5-66.5,6s-11,1-11,1l-2.5-39.3c0,0,2-110.2,2-115.7s6-195,6-195s4.5-196,5-200.5
	s5.5-173,5.5-177.5s6.5-153.5,6.5-153.5s10.5-162.5,11-165.5s13-93.5,13.5-99s17.5-91,19-97.5s22.5-82.5,23.5-87s38-106.5,50.5-122
	c0,0,21.5-34,25.5-37s8.5-7,12.5-6.5S1634.8,1096,1634.8,1096z"/>
<path id="arm-1" class="normal" d="M1446.5,2588c0,0,61-6,63.8-6s42.5-3,46-3.2s60-4,60-4s21.8-0.2,27.2,0.2s18.8,7.2,19.5,7.5
	s10,4.8,10.2,6.2s-3,18.2-3.5,21s-1.5,13.5-2,15.8s-3.5,5.5-3.5,10.2s-1.2,27.5-1.5,29.2s-2,7.5-8.2,8l-25.8,3l-22.2-20.5
	c0,0,1-1-1.2-1.2s-33-0.2-37.8,0s-19.5,2.5-28.2,2.8s-28.5,4-35,4.8s-13.8,1.5-19.5,2.8s-13.5,4-17.8,3.5s-23.8-7.5-26-8.5
	s-43-16.8-46.5-18s-47.5-11.2-51.2-11.8c-3.7-0.7-13-2.3-14.3-2.7s-13.7-4.3-1-9.3C1328,2617.7,1393.3,2593.7,1446.5,2588"/>
<path id="arm-left" class="normal" d="M2597,1087c3,1.3,10.5,1.8,14.5,3.2c4,1.3,7.7,1.7,11.3,6.3c3.7,4.7,9.8,16.7,12.2,24.2
	s27.2,83,28.3,86.2c1.2,3.2,6.2,22.8,6.3,23.3c0.2,0.5,11,39.2,11.2,39.7s11,41.7,11,41.7l6.8,26.2c0,0,4.5,17.5,4.8,18.8
	s3.9,16.7,4.1,17.7s4.1,17.1,4.1,17.1s5.6,32.4,5.8,32.9s5.5,38.2,5.5,38.2s5.5,32.5,5.7,33.2s7.5,50.3,7.5,50.3l3.7,28.5
	c0,0,9.7,134.2,9.7,139.7s12,206,13,214s13,222.5,13.5,228.5s8.5,213.5,10,220.5s7,182.5,8,189s5,50.5,5,50.5l2,19l-226-29l2.5-46.5
	c0,0,0.2-9.2,0.2-12.8s-4-14.5-4.5-19.2s-5.8-42.2-6-44.8s-0.2-16.5,0-21s1.5-25.2,1.8-28.8s-2.2-22-2-27s-4.5-38-4.5-40.8
	S2546,2211,2546,2207s-7-50-7-50l-9.5-89.5l-2.3-15.7c0,0-13.5-102.2-13.5-103.8s-9-79.7-9-82.3c0-2.7-1.8-5.2-2.3-6.7
	s-4.3-13.5-4.3-15.2s-0.8-5-0.7-6.3c0.2-1.3,5.3-22.7,6.3-24.7s5.7-28.7,6.2-30s14.2-52.8,14.7-55.2c0.5-2.3,9.5-37.8,9.5-37.8
	s11.7-61.7,12.5-64.2s8.5-44,8.7-45.8s6.7-35.2,7-38.2s2.7-22.2,3.3-27c0.7-4.8,2.5-22.7,2.5-26.7s1-19,1-20.7s-1.2-41.2-1.2-42.5
	s1.2-50.2,1.2-50.2s0.7-22.3,0.8-23c0.2-0.7,1-30.3,1-30.3l1.2-19.8l0.2-64.7c0,0,0.3-43.5,0.8-46.3s2.8-29.2,2.8-30.8
	c0-1.7,3.3-39.2,4.8-43.3c1.5-4.2,5.3-17,9.2-22.7c0,0,5.2-5.7,5.7-6C2596,1087.3,2597,1087,2597,1087z"/>
<path id="lapel-right" class="left" d="M1833.5,1167.2c0,0,13.5,44.8,14.8,48.8s14,46,17.3,52.3s16.3,36.7,19,42.7s30.3,64.7,34,72.7
	s21.3,44.7,25,49s34,52,34.7,53s63.7,91.3,65.7,94.3s41,64.7,43,68.3c2,3.7,28.7,50,30.3,53.3c1.7,3.3,21,66.7,22,70.3
	s5.7,23.7,5.7,23.7s-18-135.3-19-139.3s-19.3-81-19.3-81l-18.3-92c0,0-53-154.3-54.3-160s-35.7-129-36.7-132s-11.7-34.7-15.3-41.3
	s-18-32.3-19-36.3s-0.7-25-0.7-25l-133.7,68.3L1833.5,1167.2z"/>
<path id="collar-right" class="left" d="M1977.8,857.2c0,0-32,24.5-41.8,40.8c0,0-31,56.8-40.8,65.8c0,0-34.8,42-71.5,61.5
	c0,0-22.2,16.2-46.2,26.2c0,0-1.2,0.8,0.2,3.8s4.8,11.2,6.8,14.2s12.5,18.5,13.8,21.2s22.5,43,26,55.8l9.2,20.8
	c0,0,15-5.8,33.2-14.2c14.5-6.7,27.1-13.9,39.5-20c11.8-5.8,20.3-11.5,23.8-13.2c12.2-6.2,32.5-25.8,32.5-25.8s0.8-21.5,0.8-25.5
	s-0.8-16.2-1.2-25s1.8-46.8,1.5-51.2s-0.2-7.2,0-9.2s7.2-18,8.8-27s4.5-69.5,4.2-71.5S1977.8,857.2,1977.8,857.2L1977.8,857.2"/>
</svg>
