<?xml version="1.0" encoding="utf-8"?>
<!-- Generator: Adobe Illustrator 21.1.0, SVG Export Plug-In . SVG Version: 6.00 Build 0)  -->
<svg version="1.1" id="Layar1" xmlns="http://www.w3.org/2000/svg" xmlns:xlink="http://www.w3.org/1999/xlink" x="0px" y="0px"
	 viewBox="0 0 4160 6240" style="enable-background:new 0 0 4160 6240;" xml:space="preserve">
<pattern id="normal" patternUnits="userSpaceOnUse" width="270" height="270" patternTransform="">
		<image image-rendering="optimizeQuality" preserveAspectRatio="xMidYMid meet" xlink:href="/images/simulator/default/default_tex.jpg" x="0" y="0" width="270" height="270" style="-ms-interpolation-mode: bicubic;" />
  </pattern>
  <pattern id="left" patternTransform="rotate(23)" patternUnits="userSpaceOnUse" width="270" height="270">
		<image image-rendering="optimizeQuality" preserveAspectRatio="xMidYMid meet" xlink:href="/images/simulator/default/default_tex.jpg" x="0" y="0" width="270" height="270" style="-ms-interpolation-mode: bicubic;" />
  </pattern>
  <pattern id="right" patternTransform="rotate(-23)" patternUnits="userSpaceOnUse" width="270" height="270">
		<image image-rendering="optimizeQuality" preserveAspectRatio="xMidYMid meet" xlink:href="/images/simulator/default/default_tex.jpg" x="0" y="0" width="270" height="270" style="-ms-interpolation-mode: bicubic;" />
  </pattern>
<style type="text/css">
	.normal{fill:url(#normal);}
	.left{fill:url(#left);}
	.right{fill:url(#right);}

</style>
<path id="belt" class="normal" d="M1567.6,1554.8c0,0-4.4,3.4-5.7,6.3c-1.4,2.9-10.3,28.1-10.3,35.9s-6,69.4-6.4,75.5
	c-0.5,6.3-1.5,21.8-3.6,27.5s-2.5,12.7-3.9,16.6c-1.4,3.9-3.6,3.4-2.9,6.8c0.8,3.5,1,5.4,2.1,7c1.1,1.5,2.5,4.1,2.9,5.4
	c0.3,1.4,26.2,9.1,32.5,10.9c6.3,1.8,20,2.4,30.4,4.1c10.3,1.8,82,9.1,93.5,13.8c0,0,63.9,18.2,73,20c9.1,1.8,77.1,16.6,95,16.2
	c17.9-0.5,128.7-1.4,128.7-1.4s124.3,15.1,147.6,13.4c23.3-1.5,195.5-11.7,204.9-14.8c0,0,134-14,153.2-17.7
	c19.2-3.6,174.5-32.1,174.5-32.1l7.4-0.8c0,0-2.5-10.9-2.7-13.9c-0.3-3-8.5-41.3-8.5-41.3s-14.4-73.3-15.2-76.2
	c-0.8-2.9-6.4-30.2-6.6-31.8c-0.3-1.5-0.9-1.4-0.2-4.3c0.8-2.9,3.3-7.2,4.1-9.2c0.8-2,1.9-1.9,1.4-4.3c-0.5-2.4-3.1-5.6-4.8-6.9
	l-2.5-0.9l-0.4-2.5c0,0-2.7,4.1-2.7,6.4c0,2.4,0.4,5.4-0.4,6.4c-0.8,0.9-32.1,12.1-56.5,16c0,0-60.7,11.8-80.4,13.3
	c0,0-57.5,4.8-83,6.4c-25.5,1.5-104.2,7.4-109.8,7.8c0,0-86.9,7.6-96.6,8c0,0-64.5,4.5-65.5,4.5c0,0-49.8,0.8-49.8,1.9
	c0,1.2-1.7,3.7-1.4,4.7c0.3,0.9,0.4,0.9,0.4,0.9s-26.9-1.7-33.1-1.9c-6.3-0.3-71.5-7.4-77.5-7.6c0,0-45.2-4.8-49.1-4.1
	c-3.9,0.8-52-3.5-62.5-3.9c-6.4-0.3-22.9-1.7-35.9-2.9c-8.4-0.8-15.4-1.4-17.5-1.5c-5.4-0.4-48.3-8.7-53.1-9.7c0,0-46.8-7-51.6-7.4
	c-4.8-0.4-63.3-12.3-73.3-13.9c-10.2-1.5-17.2-4.5-22.4-5.8c-5.3-1.4-34.7-4.7-38.8-5.4s-12.6-4.5-13.9-8.2
	c-1.3-3.6-1.2-6.3-1.2-6.3L1567.6,1554.8"/>
<path id="leg-left" class="normal" d="M2770.9,2283.6c-1-5.7,0-33.7-1.5-43.6c-1.5-9.9-2.1-74.3-3.1-80c-1-5.7-6.3-25-7.8-31.7
	c-1.5-6.8-8-36-9.6-43.1s-10.3-49.7-11.7-55.1c-1.4-5.4-7.5-38.7-10.3-51.2c-2.8-12.4-9.6-46.2-10.2-49.7
	c-0.5-3.4-11.2-59-12.3-64.1c-1-5.2-17.3-82.3-18.4-88.2c-1-6-9.1-46.5-9.1-46.5h-1.5c0,0-23.9,6.8-37.9,9.4
	c-14,2.5-47.7,7.8-55.1,8.8c-7.3,1-25.5,3.6-34.8,4.7c-6,0.7-19.2,3.3-31.3,5.4c-12.3,1.8-24.2,3.5-33.2,4.7
	c-18.4,2.3-44.4,5.5-48.2,5.9c-3.4,0.3-21.6,3.3-38.1,5.8c-7.2,0.5-18.9,2.2-28.4,3.6c-14.3,1.3-31.5,2.1-42,2.5
	c-11.9,0.5-75.3,4.7-87.2,5.2c-11.9,0.5-29.6,1.5-35.3,2.1c-5.7,0.5-61.3,6.3-66,6.3c-3.8,0-32.6,0.7-43,0.9
	c-2.7-0.6-12.1-1.9-12.1-1.9s-2.1,64.9-2.5,68c-0.5,3.1,3.1,127.2,2.5,132.4c-0.5,5.2,1,131.4,0,152.1c-1,20.8-3.6,149-4.7,152.1
	c-1,3.1-4.1,112.2-4.1,112.2s5.7,8.8,6.8,11.4c1,2.5,2.1,7.8,4.1,13c2,5.2,2.1,15.1,6.8,25.5c4.7,10.3,11.9,24.4,13,28.1
	c1,3.6,3.1,21.8,3.6,30.1c0.5,8.3,28.6,342.1,29,353.1c0.5,10.9,22.3,345.3,22.3,351.5c0,6.3,5.7,144.3,5.2,148
	c-0.5,3.6,0.5,148-0.5,162s-4.7,302.7-4.7,302.7l-0.8,395.9c0,0-2.1,305.3-2.1,306.9c0,1.5-1.5,340.1-1.5,340.1l-2.1,314.7
	c0,0-1.5,246.6-1.5,251.4c0,4.7-1.5,172.4-1,176.6c0.5,4.1-0.5,109-1,115.3c-0.5,6.3,1,63.4,1,66.4c1,30.6,22.8,41.5,27,42.5
	c4.1,1,32,9.9,42.9,14c11.6,4.4,31.5,9.2,35.6,10.7s61.5,20.6,67.2,21.6c5.7,1,9.9,3.7,19.5,5.8c9.6,2,30.2-2.8,30.2-2.8l57.2-4.2
	c63.9-5.7,108.6-45.6,108.6-45.6l3.6-43.6c0,0,11.4-144.3,10.9-149c-0.5-4.7,12.4-161,13-166.7c0.5-5.7,28.6-400.9,28.6-403.5
	s11.4-145.9,11.4-150.6c0-4.7,12.4-162.6,13-174.5c0.5-11.9,18.2-282.5,18.2-282.5s13-274.1,13-276.3s14.5-344.8,14.5-344.8
	l6.3-160.5c-1.5-48.3,17.7-271.6,17.7-271.6l16.2-210.3c0,0,16.6-197.8,15.6-209.8c-1-11.9,14.5-187.5,14.5-195.7
	s14-170.4,14.5-177.6c0.5-7.3,15.6-232.7,15.6-239.4c0-6.8,6.3-74.3,5.7-82C2770.4,2299.2,2772,2289.4,2770.9,2283.6z"/>
<path id="leg-right" class="normal" d="M1538.2,1732.7c0,0-14.2,32-14.4,34.1c-0.3,2.2-11.1,42.2-14.2,51.6s-23.9,69.1-26.5,80.4
	c0,0-15.1,60.2-16.6,68c0,0-23.3,90.9-23.3,98.1s-13.4,94.5-13.4,101.2c0,6.8-7.8,42.6-7.3,55.6c0.5,13,0,33.7,0.5,41.5
	c0.5,7.8,1,19.7,3.1,28.1s12.4,173.5,14,186.4c1.5,13,17.2,294.4,17.7,302.2c0.5,7.8,31.7,476.7,31.7,478.8
	c0,2.1,17.2,253.4,17.2,262.7c0,9.4,2.5,61.7,2.5,78.9c0,17.2,3.6,155.8,3.6,163c0,7.3,9.9,279.4,10.9,291.8s9.9,242,9.4,246.6
	c-0.5,4.7,15.1,383.2,15.6,392c0.5,8.8,11.4,260.7,11.4,264.8s0,66.4,0.5,71.6c0.5,5.2,1.5,380.6,0.5,386.9
	c-1,6.3-0.5,125.6-0.5,128.7s-0.5,275.7-0.5,275.7c0.5,3.1-0.5,7.3,0.5,11.4c1,4.1,15.1,28.1,46.2,32.7c0,0,70.4,7.5,87.8,10.3
	c17.4,2.8,100.7,5,114.7,4.4c14-0.5,45.4-7.6,65.8-11.6c32.4-6.3,77.1-23.9,87.5-28.6c10.3-4.7,32.1-15.6,38.9-20.3
	c6.8-4.7,9.7-7.9,11.3-12.5c1.5-4.7,1.5-4.1,2.1-7.3s-0.5-30.6,2.5-52.4c3-21.8,4.1-38.4,4.1-51.9c0-13.4-1.5-36.9-1-64.9
	c0.5-28.1-4.1-171.9-3.6-180.7c0.5-8.8-4.1-334.4-4.1-359.8s-1.5-273.6-1.5-275.2s-2.1-241.5-1.5-260.2c0.5-18.7,0.5-163.6,0.5-175
	c0-11.4,3.1-357.8,3.6-367.1s1.5-287.7,2.5-310s2.5-135,2.5-146.4c0-11.4,0.5-106.9,0.5-110.6c0-3.6,3.6-410.2,3.6-413.9
	s0.5-142.8,5.2-179.1c0,0,9.4-132.4,9.9-136.1c0,0,13-154.2,14.5-161c1.5-6.8,14.5-95,25.5-138.1c0,0,4.1-87.8,4.1-91.4
	c0-3.6,3.1-41,3.1-46.2c0-5.2,5.2-79.4,5.2-83.6s-1-102.9-1-102.9s-1.5-150.1-0.5-161s0-77.3,0-83.6c0-6.3,2.1-53.5,2.1-53.5
	l-4.7-0.5c0,0-29,0-37.9-2.1c-8.8-2.1-31.1-3.1-47.3-4.7c-16.2-1.5-76.3-2.5-87.2-1c-10.9,1.5-68.5-0.5-79.4-2.5
	c0,0-30.6-8.4-43.6-8.4c-13,0-55.1-9.4-66-11.9c-10.9-2.5-69.1-14-82-15.1c-13-1-36.9-1.5-46.2-3.6c-9.3-2.1-27.1-5.7-31.1-6.3
	C1561.6,1739.5,1538.2,1732.7,1538.2,1732.7z"/>
<path id="belt-loop2" class="normal" d="M1841.2,1613.7c0.9,0.6,1.4,1.4,1.4,1.4s0.6,0.9,0.4,1.7c-0.3,0.8-2.2,43.6-2.7,48.1
	c-0.5,4.5-1.7,25.7-2.2,30.2c-0.5,4.5-3,40.9-3.3,45.8s-1.4,21.1-1.5,24.8c-0.1,3.6-1.4,21.4-1.9,26.3c-0.5,4.9-3.1,27.9-3.9,32.1
	c-0.8,4.2-1.2,9.4-0.9,11.3s0.4,14.6,0,16.7s1.2,2.4-0.8,3.3c-1.9,0.9,0.9,2.4-1.9,0.9c-2.9-1.4-2.4-1.4-4.5-1.4
	c-2.2,0-17.3,0.6-21.1,0s-6.1-0.2-8.2-1.2c-2.1-1-7-0.4-6.4-3c0.6-2.5,0.2-29.8,1.7-33.7c1.5-3.9,8.4-56.2,9.2-63.9
	c0.8-7.6,4.5-47.5,5.4-50c0.9-2.5,3.7-33.1,4.5-42c0.8-9,1.9-37.8,1.7-40.3c-0.3-2.5-0.6-6.9-0.6-7.8c0-0.9,0.2-1.9,0.9-2.5
	c0.8-0.5,1.4-1.2,3-1.2c1.5,0,8,0.2,10.2,0.6c2.2,0.4,5.4-0.9,8.5,0.4c3.1,1.4,4.3,2.2,5.4,2.2c1.2,0,5.6-0.4,6.9,0
	c1.3,0.4,1.2,0.4,1.2,0.4L1841.2,1613.7z"/>
<path id="belt-loop1" class="normal" d="M2359.4,1606.5c-1.4,0.8-1.8,1.4-2.4,3.1c-0.5,1.8-1,2.4-0.5,4.9c0.5,2.5,2.9,17.9,3.4,20.5
	c0.5,2.5,0.5,9.4,1,10.9c0.5,1.5,0.3,4.4,3.6,5.2c3.5,0.8,8-0.3,8.8,0c0.8,0.3,1.8,1.8,1.8,2.5c0,0.8,1.8,8.5,2.5,13.3
	c0.8,4.7,5.7,36.4,6.3,41.9c0.5,5.4,4.4,66.7,4.4,67.5c0,0.8-2.9,2.1-2.9,2.1s-1.4-1.5-2.5-0.8c-1.4,0.8-3.6,1-3.6,2.4
	c0,1.4,1.5,6.3,2.4,8.4c0.8,2.1,2.4,4.4,2.4,6.3c0,1.9,1.8,40.8,1.8,42.6c0,1.9,0.5,4.9,0.5,6.4c0,1.5,0.3,2.4,1.5,3.4
	c1.4,1,0.8,1.5,4.7,1.5s6.4,0.3,8.4-0.3c1.8-0.5-1.4-1,4.1-1c5.5,0,21.6-0.3,21.6-0.3l2.1-3.9c0,0,0.3-4.9,0.5-6.8
	c0.3-1.9,0.3-61-0.3-66c-0.5-4.9-6.3-66.7-6.4-70.4c-0.3-3.6-9.6-59-9.9-61.7c-0.3-2.9-7.3-31-7.8-32.1c-0.5-1.4-1-3.1-2.5-3.1
	c-1.5,0-6.3-0.3-10.9-0.3s-9.4-1-12.3,0.3c-2.9,1.4-3.6,1-8.8,1c-5.2,0-11.9,2.4-11.9,2.4"/>
</svg>
