<?xml version="1.0" encoding="utf-8"?>
<!-- Generator: Adobe Illustrator 21.1.0, SVG Export Plug-In . SVG Version: 6.00 Build 0)  -->
<svg version="1.1" id="Layar-1" xmlns="http://www.w3.org/2000/svg" xmlns:xlink="http://www.w3.org/1999/xlink" x="0px" y="0px"
	 viewBox="0 0 4160 6240" style="enable-background:new 0 0 4160 6240;" xml:space="preserve">
<style type="text/css">
	.st0{fill:#A5A5A5;}
	.st1{fill:#565656;}
	.st2{fill:#CCCCCC;}
	.st3{fill:#545454;}
	.st4{fill:#6B6B6B;}
	.st5{fill:#686868;}
	.st6{fill:#8C8C8C;}
</style>
<g id="body-right_1_">
	<path class="st0" d="M2073.2,3369.5c-21.7,0-39.2-17.6-39.2-39.2s17.6-39.2,39.2-39.2c11.2,0,21.3,4.7,28.5,12.2l-1-35.2
		c0,0-24.7-340.7-18.7-374.7s11.3-100.7,26.7-141.3c15.3-40.7,27.3-81.3,27.3-81.3l-384.7-1183.3l-83.3,33.3l-202,78.7l-134,51.3
		l-32.3,11.7L1487,2621c0,0,1-3,4.3,11s26,154.7,25.3,212.7s2.7,136-23.3,266s-60.7,277.3-60.7,277.3l13,473.7l1,3.7v64
		c0,0-6.7,5.3-20.7,7.3c0,0-1.3,59.3-0.7,64c0.7,4.7,7.3,22.7,8.7,25.3c1.3,2.7,16.7,38.7,11.3,45.3s-9.3,8-9.3,8s9.3,67.3,12,108
		c2.7,40.7,2,58,0.7,68s-0.7,25.3,3.3,28.7s68,13.3,134.7,22s166,24,208,15.3s59.3-13.3,94-41.3s65.3-62.7,90-103.3
		c24.7-40.7,41.3-76,56.7-140.7c15.3-64.7,37.3-163.3,46-186.7c8.7-23.3,34-88,34-88l-12.1-405.8
		C2096.1,3364.1,2085.3,3369.5,2073.2,3369.5z"/>
</g>
<path id="body-left" class="st1" d="M2734.3,3885l-1.3-2.3c9.3-36,50.7-45.3,50.7-45.3s13.3-613,0-660s-29.3-131-35-185
	s-1.7-133,2-177.7s15-82,24.3-117s22.3-59.7,22.3-59.7l181-955.3c0,0-0.7-1-4.3-4.3c-3.7-3.3-8-4.7-36-14.7s-83-34.7-97-40.3
	c-14-5.7-85-31.7-98.3-37.7s-53-23-66-28.3s-80.7-39-93-43.3c-12.3-4.3-62-25.3-62-25.3S2089,2768,2086,2776.3s-11,104.7-14.7,140
	s0.3,112.3,0.3,112.3l1,197.3c0,0,2,147.3,2.3,161s2.7,167,4.3,221.3c1.7,54.3,10.7,156.7,20.3,240.7c9.7,84,19,110.3,34.7,176.3
	s29,91.3,51.3,137.3s63.3,88.7,101.3,122.3s75.7,34.7,106.7,38s69-3.3,113-6s141.7-17.7,145.3-18s90.7-13.3,94-14.7
	c3.3-1.3,6-9.3,6-9.3s2-5.7,2-8.3c0-2.7-4.3-31.3-4.7-66c-0.3-34.7,26-105.3,26-105.3l-12.7-12.7c0,0,20.7-54.7,37.3-91.7
	s31-55,31-55s-20-9.3-32.7-15.7C2785.7,3914,2734.3,3885,2734.3,3885z M2128.8,2823.6c13.4,0,25.2,6.7,32.3,16.9l-0.1,0.2
	c0,0,11,13.9,6,31.8l-0.2,0c-0.6,2.5-1.5,4.8-2.6,7.1c-0.2,0.3-0.3,0.7-0.5,1l0,0c-6.5,12.7-19.7,21.4-34.9,21.4
	c-21.7,0-39.2-17.6-39.2-39.2S2107.2,2823.6,2128.8,2823.6z M2578.3,1770.3c0,0-6.7,3-15.7,3.7s-34,4.3-35.7,5s-3.7,1.3-3.7,1.3
	s-1,4.7-3.3,4.7s-9-4.3-10-6.7c-1-2.3-1.7-6-1.7-6s-1-5,5.3-4s2.3,2.7,7.3,1.7s19.7-6.7,25-7.7s20.7-3.7,25-2.7s5.7,1.3,6.7,4
	C2578.7,1766.3,2578.3,1770.3,2578.3,1770.3z"/>
<g id="arm-right">
	<path class="st2" d="M1299.7,1662.3c0,0,26.7,24,48.7,76s54.7,127.3,74,255.3s26,164,30,220s8,144,14,189.3s14,199.3,20.7,218
		c0,0-13.3,35.3-20,98.7c-6.7,63.3-20,184-23.3,409.3s-4,391.3-4,391.3s8.7,311.3,8.7,315.3s-2.7,26-2.7,26s-24.7-27.3-46-32
		s-60-10-77.3-8s-96.7,14.7-106.7,17.3s-84,24.7-84,24.7s0,15.7,33.3,17.7l10,32.3l-4.7,8.7l8.7,6.7l-9.3,6l0.7-8.7
		c0,0-27.3-15.3-39.3-17.3s-30-8-34-10s-12-6.7-11.3-26s18.7-380.7,18.7-380.7s5.3-229.3,9.3-335.3s17.3-371.3,20-407.3
		s20.7-302,27.3-373.3c6.7-71.3,35.3-368.7,42-407.3s38-203.3,48.7-242s18.7-60.7,20.7-62.7S1289,1654.3,1299.7,1662.3z"/>
</g>
<g id="collar-right">
	<path class="st3" d="M1715.3,1626.3c11,2.7,37,9.3,42,12s8.7,7.7,8.7,7.7l139.7-134.7c0,0-7-33-8-58.7s-1.3-36.7,1-53.7
		s2-19.7,2-19.7s-5.3-11.3-13.3-2s-12,21.3-26,35.3s-68,52.7-82,62.7s-24.7,11.3-24.7,11.3s-28.7,32.7-36.7,48s-42.7,60-45.3,64.7
		c-2.7,4.7-5.3,9.3-4,12.7c1.3,3.3,13.3,6.7,20.7,8.7"/>
</g>
<g id="lapel-right">
	<path class="st4" d="M1904.5,1504.5c0,0-4-0.5-9,3.5s-98,103.5-107,110.5s-21,26-31,27.5s-109-10-109-10s-38.5-6-47,0.5
		s-8,17.5-6.5,22s56.5,127.5,56.5,127.5l106,223.5c0,0,88,175,111.5,217s107.5,185.5,131.5,228s68.5,122,89,151s29.5,45,29.5,45
		l15.5-47.5c0,0-34-108.5-43-158s-27.5-129-34.5-162.5s-49.5-201-51.5-216s-47.5-246.5-51-264.5s-16.5-107-20.5-134.5
		s-16-98-19-113.5S1904.5,1504.5,1904.5,1504.5z"/>
</g>
<g id="collar-left">
	<path class="st4" d="M2389.5,1387c0,0,8.5,47.5,5.5,64.5s-6.5,48.5-9.5,65.5s-4.5,18-4.5,18l123.5,126l30-10c0,0,54.5-12.5,56-12.5
		s22-4,22.5-8s-57-90.5-57-90.5s-22.5-43.5-28-47.5s-15.5-12-22.5-15.5s-24-13-27.5-14.5s-29.5-22.5-32-27s-18-20.5-23.5-24.5
		s-10.5-16-15.5-20S2399,1385.5,2389.5,1387z"/>
</g>
<g id="lapel-left">
	<path class="st5" d="M2673,1647.5c-1-4-11.5-4-14-3.5s-28.5,3-28.5,3c-31-1-115.5,7.5-115.5,7.5S2414,1536,2404.5,1524
		s-19-14.5-19-14.5s-1.5,12-4,27s-13.5,50.5-15,57s-11,50.5-15.5,73s-20,125-34.5,214S2287,2029,2282,2051s-22,91-22,91
		s-81,304-93.5,357.5s-33.5,107-45,142s-35.5,136-35.5,136c13.5-57.5,50-106.8,50-106.8s98.5-155.7,130.5-205.2s52-80,81.5-135
		s96.5-176.5,117-213.5s77-152.5,108-222s94.5-212.5,100-226S2674,1651.5,2673,1647.5z M2578.3,1770.3c0,0-6.7,3-15.7,3.7
		s-34,4.3-35.7,5s-3.7,1.3-3.7,1.3s-1,4.7-3.3,4.7s-9-4.3-10-6.7c-1-2.3-1.7-6-1.7-6s-1-5,5.3-4s2.3,2.7,7.3,1.7s19.7-6.7,25-7.7
		s20.7-3.7,25-2.7s5.7,1.3,6.7,4C2578.7,1766.3,2578.3,1770.3,2578.3,1770.3z"/>
</g>
<g id="arm-left">
	<path class="st6" d="M2976.5,1683c0,0,13.5-4.5,20.5,4s9,8.5,15.5,26s37.5,126.5,43.5,152.5s35,151,45,219.5s20,185.5,23.5,228.5
		s11.5,212.5,11,254.5s2,128-1.5,169s-4,77.5-4,114.5s1,227.5,1,227.5l5.5,244c0,0,5.5,198,4,268s-11.5,256-13.5,276.5
		s-0.5,38-7,45.5s-39.5,39.5-41,48.5s-8.5-23-8.5-23l0.5-5.5c0,0-9.5,1-11,2.5s-2-17.5-3.5-19s40,11.5,52-18c0,0-27-18.5-75-30
		s-104-22.5-159.5-26s-68.5-10.5-87.5-5s-39.5,11-50,35c0,0-3-19.5,1.5-44.5s10.5-50,13-62.5s16-69,19.5-101.5c0,0,11-230,13-273.5
		s12-192,13-222s3-119,2.5-187.5s-4.5-295.5-3.5-314.5s1.5-25.5,1.5-25.5s3.5-78.5,3.5-107.5s-3-123.5-3-123.5s7-192,8-199
		s33-154,37.5-171s20-98,35-145.5s36.5-99,48-122.5s27.5-56,32-65S2976.5,1683,2976.5,1683z"/>
</g>
</svg>
