<?xml version="1.0" encoding="utf-8"?>
<!-- Generator: Adobe Illustrator 22.1.0, SVG Export Plug-In . SVG Version: 6.00 Build 0)  -->
<svg version="1.1" id="Layar1" xmlns="http://www.w3.org/2000/svg" xmlns:xlink="http://www.w3.org/1999/xlink" x="0px" y="0px"
	 viewBox="0 0 4160 6240" style="enable-background:new 0 0 4160 6240;" xml:space="preserve">
<pattern id="normal" patternUnits="userSpaceOnUse" width="270" height="270" patternTransform="">
		<image image-rendering="optimizeQuality" preserveAspectRatio="xMidYMid meet" xlink:href="/images/simulator/default/default_tex.jpg" x="0" y="0" width="270" height="270" style="-ms-interpolation-mode: bicubic;" />
  </pattern>
  <pattern id="left" patternTransform="rotate(23)" patternUnits="userSpaceOnUse" width="270" height="270">
		<image image-rendering="optimizeQuality" preserveAspectRatio="xMidYMid meet" xlink:href="/images/simulator/default/default_tex.jpg" x="0" y="0" width="270" height="270" style="-ms-interpolation-mode: bicubic;" />
  </pattern>
  <pattern id="right" patternTransform="rotate(-23)" patternUnits="userSpaceOnUse" width="270" height="270">
		<image image-rendering="optimizeQuality" preserveAspectRatio="xMidYMid meet" xlink:href="/images/simulator/default/default_tex.jpg" x="0" y="0" width="270" height="270" style="-ms-interpolation-mode: bicubic;" />
  </pattern>
<style type="text/css">
	.normal{fill:url(#normal);}
	.left{fill:url(#left);}
	.right{fill:url(#right);}

</style>
<path id="flare-1" class="normal" d="M1503.9,441.6c0,0-10.2,35.8-10.6,36.9s-51.2,179-51.2,179s-48.9,182.7-54.9,217.2
	c-6,34.5-100.5,523.5-102,532.5c-1.5,9-103.5,523.5-111,544.5c-7.5,21-70.5,336-72,348c-1.5,12-60,310.5-63,324
	c-3,13.5-24,141-33,160.5c-9,19.5-21,66-22.5,70.5s-12,19.5-6,21c6,1.5,271.5,43.5,297,49.5c25.5,6,166.5,25.5,187.5,25.5
	s45,3,63,1.5c18-1.5,19.5-1.5,28.5-1.5c9,0,15,0,21,3c6,3,15,7.5,22.5,9c7.5,1.5,28.5,4.5,28.5,4.5h28.5c0,0,33-1612.4,37.5-1634.9
	s63-904.5,63-904.5l-244.5-4.5L1503.9,441.6z"/>
<path id="flare-3" class="normal" d="M2541.5,468.5c0.1,0,1.3-0.1,3.5-0.2c26.7-1.7,196-12.8,196-12.8l23,122l43.5,219.5
	c0,0,31,160,32,164.5s35.5,183,35.5,183s109,566.5,112,573.5s149,769,151,772s52,283,59,303s19,73,23,84s12,22,8,25s-17,9-27,10
	s-409,61-432,64s-60,7-74,9s-26-1-41-3s-86-6-86-6s-1-223-1-226s4-1590-8-1633s-49-649-49-649l32.8,0.4"/>
<path id="flare-2" class="normal" d="M2537,476l0.7,2.3l3,9.7l13.3,144.3l14,135.7c0,0,15.7,166.7,16.7,175.7s8.7,120.7,9.7,125
	c1,4.3,7.3,83.7,7.3,83.7s9,119.7,9,121c0,1.3,7,93.7,7,96c0,2.3,3,64.7,3.7,70.7c0.7,6,1.7,67,1.7,73s1.3,72.3,1,76.7
	c-0.3,4.3-0.3,111.3-0.3,112.7c0,1.3,0,167.3,0,167.3s1.3,107,1,111.7c-0.3,4.7,0,107.7-0.3,112c-0.3,4.3-0.3,130.3,0,132.3
	c0.3,2-1.3,137.7-1.3,137.7s-1,187-1.7,191c-0.7,4-2,140.3-2,141.7s-1.3,76.3-1.3,79s-0.7,94.7-0.7,97s-2,91.7-2,96.3
	c0,4.7,0,11.3,0,11.3l-76-3.3c0,0-60.3-5-85.3-0.3c0,0-70.8,8.8-72,9.8s-38.2,4.5-45.2,6s-29.5,3.2-34.2,3.5s-46.5,2.5-50.2,2.5
	s-48.2,3-51.2,3.5s-61,2.2-68,2s-63-3-67.2-3.2s-46.8-3.2-50.2-3.8s-14-1.5-18.8-1.5s-28,1.5-35.2,1.5s-39.8-1.5-49.2-3
	s-69.5-4.8-78-5.5s-86.8-6-92.5-6.5s-87-7.5-91.5-8.5s-38.2-6-42.2-6.8s-12-2.8-12-2.8l1-45.8c0,0,1-92.5,1-95s4.5-231,5-233.5
	s3-135,3-135s5.5-176.5,5.5-182s1.5-96,2-101s3-94,3.5-98.5s1.5-67.5,2-71s1.5-102,2-112.5s3-59,2.5-63s0.5-33.5,0.5-36
	s3-94.5,3.5-97.5s1.5-57.5,1.5-57.5s5.5-140,5.5-145s4.5-149,4.5-149s6-170,6.5-174s5.5-125,6.5-130.5s11-100.5,11-103.5
	s15.5-152,16.5-159s27.5-229.5,27.5-236.5s8-80,8-80l498.5-0.5l325,1.5L2537,476z"/>
<path id="belt" class="normal" d="M1583.5,274.5c-1.5,1.5-17.5,7.5-21.5,8.5s-10,1.5-10,5s1,1.5,0.5,8S1504,441.5,1503,443.5
	s-3,7.5-3,7.5s165,16.5,174,17s85.5,4.5,108.5,6s197,4,206.5,4.5s336-1.5,344.5-0.5s241.5,0.5,253,0s73.5-3,83.5-3.5s73-6,73-6
	l-6.5-37c0,0-15.5-85-16-86.5s-1-4-0.5-6.5s2-2.5,1.5-6s-2-7-4.5-11s-7-9.5-10.5-10s-7-2-9.5-2s-1.5,2.5-7-2s-5.5-6-11-7.5
	s-27-5.5-27-5.5s-72-4.5-77.5-4.5s-113-12-124-12s-126-7.5-140-7.5s-160-3-176.5-2.5s-103,0-112.5,0s-96-1-104.5-1s-89.5-1-118,0
	s-73-0.5-88.5,0.5s-73,3-88.5,5s-29.5,3-31,3S1583.5,274.5,1583.5,274.5z"/>
</svg>
