<?xml version="1.0" encoding="utf-8"?>
<!-- Generator: Adobe Illustrator 21.1.0, SVG Export Plug-In . SVG Version: 6.00 Build 0)  -->
<svg version="1.1" id="Layar1" xmlns="http://www.w3.org/2000/svg" xmlns:xlink="http://www.w3.org/1999/xlink" x="0px" y="0px"
	 viewBox="0 0 4160 6240" style="enable-background:new 0 0 4160 6240;" xml:space="preserve">
<style type="text/css">
	.st0{fill:#727477;}
	.st1{fill:#9099A5;}
	.st2{fill:#C4C8CE;}
	.st3{fill:#91A2B7;}
	.st4{fill:#AAADB2;}
	.st5{fill:#E8EAED;}
	.st6{fill:#ADC9EA;}
</style>
<path id="arm-left" class="st0" d="M2929.7,1671.7c0,0,11.3-2.7,16.7,1.3c5.3,4,24.7,22.7,30,34s33.3,94.7,36.7,106
	s16,73.3,17.3,77.3s17.3,119.3,20,136.7c2.7,17.3,20.7,196.7,21.3,216.7c0.7,20,2.7,109.3,3.3,112c0.7,2.7,10.7,222,12,242
	s10,232.7,11.3,246.7s6,272,8.7,300.7s8.7,186.7,9.3,200c0.7,13.3,7.3,115.3,7.3,126.7c0,11.3,2.7,42,4,50s4,87.3,3.3,100.7
	c-0.7,13.3-2.7,86.7-2.7,98s-4.7,150.7-4,178.7s0,37.3-0.7,42.7c-0.7,5.3,0.7,16.7-3.3,18.7s-44.7,16-53.3,20s-37.3,12.7-37.3,12.7
	s-6-23.3-7.3-30s-1.3-13.3-1.3-13.3s14.7,7.3,22.7,10s11.3,6,17.3,5.3s8.7,3.3,16-4.7s10-5.3,12-12.7c2-7.3,3.3-10,3.3-10
	s-92.7-44-164-50c0,0-138.7-20-186.7,8l-2.7-2l16-157.3l12-150.7l11.3-164c0,0-3.3-106,0-126s0.7-72.7,2.7-82s10-140,10.7-147.3
	s1.3-44,2-56s-9.3-116-10-120s-12.7-92.7-14-102s-4.7-30-13.3-48.7c0,0,4.7-240,6-250.7s10-154,12.7-168s8-56.7,10.7-68.7
	s6.7-80.7,9.3-91.3s16.7-139.3,19.3-152.7c2.7-13.3,16.7-80.7,19.3-92.7c2.7-12,44.7-139.3,48-150
	C2885,1755,2923.7,1675.7,2929.7,1671.7z"/>
<path id="body-right" class="st0" d="M2058.9,3343c-6.2,4.6-13.8,7.4-22,7.4c-20.8,0-37.7-17.6-37.7-39.4s16.9-39.4,37.7-39.4
	c6.7,0,12.9,1.8,18.3,5c-3.2-57.6-5.6-102.9-5.6-102.9l-9.3-252.7c0,0-12-134.7-8-162s8.7-252,8.7-252s2.7-79.3,2.7-86.7
	c0-7.3,8.7-63.3,13.3-78c4.7-14.7-0.7-96-0.7-96l-16.7-33.3l-79.3-181.3l-118.7-492l-40-92l-118.7,27.7c-2.3,1-96,38.3-103.3,41
	s-68,26-75.3,29.3s-62.7,24-70.7,28s-142,48-148.7,51.3s-19.3,8-27.3,12s-21.3,12.7-21.3,12.7l-3.3,8l8.7,44.7c0,0,28,71.3,28,74.7
	s68,383.3,72.7,406s44,530.7,44,530.7l28.7,8l6,36c0,0,18.7,170,18.7,179.3s1.3,15.3,0,25.3s-26,174-28,184s-34,244-36,257.3
	s-10,196-9.3,206s-4,148-4,151.3s-19.3,183-19.3,183l0.2,55.8l24,52.2l20.5,53.8c0,0,3,16.8-8.8,20.2l7.5,44.8c0,0,7.2,44,7.2,44.8
	s1.5,25.8,0.5,35s-5.8,85.2-6,86.5s-0.2,3.8-0.2,3.8l1.9,4.4l37.1,5.2l133,21.1c0,0,46.8,6.8,48,7s112.8,18.5,119.2,18.2
	s27.8-2,31.8-3s30.2-8,44.8-15.2s39.5-25,42-28s32.2-36,34.1-39.3c1.8-3.3,20.2-31.5,20.2-31.5s27.7-54.7,31.7-63.3
	c4-8.7,22.7-72.7,24.7-80.7s44-140.7,44-140.7s12-40,12.7-44s30-152.7,32-159.3c2-6.7,24-139.3,24-139.3s-0.7-132.7-0.7-135.3
	C2068.3,3515.7,2063.6,3428.9,2058.9,3343z"/>
<path id="body-left" class="st1" d="M2738,2798.8c2.2-8.2,18.3-59.1,18.3-59.1S2799,2555,2803,2525s134-849,133-850.5s-25-11-28-12
	s-211.5-86.5-219-90s-107-46.5-132.5-57.5s-68-29.5-68-29.5L2403,1433c0,0-22,33-39,62s-95,296-108,319s-155.5,414.5-165,432
	s-37,83-39.5,89s-19,70-19.5,74s-4.5,98.5-4.5,104s-3,117-4,131.5s-3,196.5-3.5,201.5s4.5,77,6.5,102s3,20.5,3,23.5s2.5,68.5,2,81.5
	s4.5,145.5,4.5,145.5l5.5,136l8.5,130l3,95l9,125.5l17.5,115l39.5,229l33,156.5c18,74,69,135,69,135c58,82.5,130.5,85,136.5,86.5
	s48.5-1.5,64.5-3.5s226-27.5,236-29s62.5-6,62.5-6l1.5-2.5c-8.5-55-1.5-134.5-1.5-134.5c1-51,27.5-102,27.5-102s-5-6.5-10-14
	s-1-11-0.5-15.5s9-22,9.5-24s36.5-68.5,36.5-68.5s-2.5-1.5-7-3s-35-19-46.5-34.5s-3-45.5-2.5-53s14.2-21.3,14.2-21.3
	s45.8-233.2,48.3-246.2s-1.5-194.8-1.5-199s-1.8-42-1.8-42l-4-38.8c0,0-2-8-4-11.8s-10.8-23.5-12.8-27.8s-1.5-5.2-1.5-6.8
	s0.2-1,1-3.2s0.8-2.8,0.5-4.2s-2.2-3-3.8-4.5s-1.2-3.5-1.5-6s2.8-7,3.2-8s-1-3.5-1-5s-1-6.2-2-9.5s-4.8-18.2-10.2-34.8
	s-12.2-58.8-13.8-72.5s-10-72.5-10.5-77s-6.5-73.8-6.2-78.2s-0.5-64.8-1-70.2s3-71.2,5-82.5S2735.8,2807,2738,2798.8z
	 M2084.8,2367.3c16.6,0,30.8,11.3,36.2,27.2v28.1c-5.4,16-19.5,27.4-36.2,27.4c-21.3,0-38.5-18.5-38.5-41.3
	S2063.6,2367.3,2084.8,2367.3z M2040.5,2847.5c0-23.2,17.9-39,38.5-39c16.7,0,32.7,12.4,38,29.4v26.2c-4.7,15.6-17.4,25.4-33.6,25.4
	C2062.9,2889.5,2040.5,2870.7,2040.5,2847.5z M2505.9,1765.1c-0.1,0.4,0,2.1-0.8,2.8c-0.8,0.7-3.6,2-4,2.5s-2,1.9-2,1.9
	s-2.4,0.5-2.9,0.5s-2.8-0.8-2.8-0.8l-44.2-31.9l-12.1-9.2c0,0-1-11.1,3.8-13.4l2.1-0.6l5,0.1l2.2,1.4l1.5,1.6c0,0,2.5,3,2.8,3.9
	s0.8,3.4,0.8,3.4s45.6,33.2,46.2,33.6s3.6,2.6,4,3S2506,1764.8,2505.9,1765.1z"/>
<path id="lapel-right" class="st2" d="M1841.5,1451.5c0,0-7-0.5-9,1s-24,23.5-27.5,28s-58.7,55.2-58.7,55.2s-44.7,42.7-48.7,45.3
	s-50.7,46-54,48.7s-43.3,33.3-46,37.3s-36.7,28.7-39.3,31.3c-2.7,2.7-25.3,11.3-5.3,40.7s235.3,299.3,235.3,299.3s83.3,92,88.7,98
	s163.3,165.3,168.7,171.3c5.3,6,12,14.7,12,14.7l30.7-55.3l-15.3-9.5c0,0-80.7-223.8-84.7-237.2c-4-13.3-56-210-56.7-212.7
	s-6-38.7-6-38.7l-49.3-218.7C1876.3,1550.3,1854.7,1514,1841.5,1451.5z"/>
<path id="lapel-left" class="st3" d="M2602.5,1729.5c-2-2.2-7-5.8-9-7.2s-12-10.5-13.8-13.2s-53.8-53.5-61.2-60.5s-45.5-45-49.5-47
	s-44-43-52-50.5s-44.5-48.5-46-50.5s-41.5-44.5-41.5-44.5s-27,57.5-30.5,69s-45,176-48.5,189.5s-28,110-37,136s-34,100.5-34,100.5
	l-61.5,175.5l-45,131l0.5,3.5c0,0-9,21.5-10.5,25.5s-26,90.5-26,90.5l-6.5,47l17-55c3-10,18-33,22-38.5s29-30.5,34-39
	s24.5-26,26.5-28.5s64-67.5,71.5-75s43.5-44.5,49-49.5s61.5-59.5,68-69.5s40.5-43,45-48.5s32-34,36.5-40s31.7-37.5,35-42.8
	s27.3-32,30.7-38.7c3.3-6.7,45.3-51.3,47.3-56s73.5-83,74.8-84s17.2-19.2,17.8-22.5S2604.5,1731.8,2602.5,1729.5z M2505.9,1765.1
	c-0.1,0.4,0,2.1-0.8,2.8s-3.6,2-4,2.5s-2,1.9-2,1.9s-2.4,0.5-2.9,0.5s-2.8-0.8-2.8-0.8l-44.2-31.9l-12.1-9.2c0,0-1-11.1,3.8-13.4
	l2.1-0.6l5,0.1l2.2,1.4l1.5,1.6c0,0,2.5,3,2.8,3.9s0.8,3.4,0.8,3.4s45.6,33.2,46.2,33.6s3.6,2.6,4,3S2506,1764.8,2505.9,1765.1z"/>
<path id="arm-right" class="st4" d="M1243.1,1650.2c0,0,16.9,33.3,19.9,39.8s21.5,58,25,67s23.5,93.5,24.5,98s12.5,58,17,75.5
	s11,58.5,14,65s6,22,8,31.5s13,72.5,13,72.5s-3-10.5,1,3s8,57,8.5,59s7.5,105.5,8,115.5s11.5,187.5,11.5,194s10.5,143.5,11,152.5
	s11,84.5,11.5,88.5s1,11-1,17s-7,24.5-9.5,34s-18,80-21.5,121s-9,93-8.5,127c0,0,2.5,128,5,145s9,89.5,10.5,99.5s3.5,13.5,3.5,13.5
	s-2.5,69.5-2.5,72s-5.5,123-5.5,131.5S1385,3578,1385,3578l-1,136.5c0,0,5,101,7,109.5s12.5,73.5,13,75.5s2.5,5,0.5,5.5
	s-8.5,1-8.5-0.5s-3.5-24-4.5-27s-21-35-58-35c0,0-91,0.5-130,13c0,0-99,21.5-115,34c0,0-30,18-36,37l-5,3.5l-1.5-26.5l-10-299
	l-5.5-174l-5.5-213l-0.5-88L1022,3018l0.5-47l-0.5-130.5c0,0,6-137,4.5-157s9-160,9-160s14.5-112,15-117s18.5-121.5,21.5-138
	s21.5-112,23.5-123s25.5-134,26.5-142s12-62,13-75s12-84.5,13-89.5s9.5-50,11.5-58s16.5-70.5,20-79.5s10.5-29,14.5-33.5
	s5.5-8.5,5.5-8.5s11.5-18,31.5-14C1231,1645.5,1243.3,1649.3,1243.1,1650.2z"/>
<path id="collar-left" class="st5" d="M2332.5,1336.5c0,0,14.5,8,17,15s13,30,17,35s50.5,48.5,58,57s43,29,55.5,35.5
	s25.5,15,31,21.5s31.5,32.5,38,41.5s24,32.5,27.5,36.5s19.5,21.5,4,29c0,0-64,33-69,41.5s-34-8-34-8L2328,1481l-3.5-15.5
	c0,0,8.8-20.2,9.5-22.2s6.7-26.3,7.3-33c0.7-6.7-2.3-63.3-8.3-71.7"/>
<path id="collar-right" class="st6" d="M1853,1321.5c0,0-38,43.5-43.5,49.5s-61.5,64-67,69s-38.5,21-48.5,27.5s-39.5,25-45.5,31
	s-43,37.5-46.5,42.5s-17,16.5-19.5,21.5s-5,14,0.5,18.5l28,17l46.5,34c1,1.5,177.5-160.5,177.5-160.5l6.5-16v-8
	C1841.5,1447.5,1829.5,1378,1853,1321.5"/>
</svg>
