<?xml version="1.0" encoding="utf-8"?>
<!-- Generator: Adobe Illustrator 21.1.0, SVG Export Plug-In . SVG Version: 6.00 Build 0)  -->
<svg version="1.1" id="Layar1" xmlns="http://www.w3.org/2000/svg" xmlns:xlink="http://www.w3.org/1999/xlink" x="0px" y="0px"
	 viewBox="0 0 4160 6240" style="enable-background:new 0 0 4160 6240;" xml:space="preserve">
<style type="text/css">
	.st0{fill:#939C9E;}
	.st1{fill:#C9CFD1;}
	.st2{fill:#AAAEAF;}
	.st3{fill:#9EA5A8;}
	.st4{fill:#DCF0F4;}
</style>
<path id="body-right" class="st0" d="M2055,2685c1-8,17-71,23-84s21-78,21-78s-4.2-16-4.2-17s-7.2-18.8-7.2-18.8l-42-140.8
	L1986,2131l-49-157.5L1773,1273l-53.3,0.7c0,0-69.3,26-74.7,28.7c-5.3,2.7-153.3,58-162,63.3s-78.7,31.3-88,34.7
	c-9.3,3.3-31.3,12.7-48,14.7s-63.3,14-67.3,16.7s-14,8.7-14,8.7l-0.7,36.7l62.7,167.3c0,0,28,212,32,220.7s56,319.3,56,319.3l8,19.3
	c0,0,21.3,73.3,21.3,75.3s23.3,100,25.3,118.7s21.3,190,18,233.3c0,0-9.3,188-14.7,201.3c0,0-25.3,138.7-27.3,147.3
	c-2,8.7-11.3,48.7-13.3,55.3s-9.3,24.7-9.3,24.7l-2.7,3.3c0,0-16.7,66.7-20,74s-21.3,62.7-22.7,70s-5.3,40.7-2,40.7s10-9.3,10-9.3
	l6.7-5.3c0,0-5.3,124-6,130.7s-5.3,202-6,216.7s6,100,5.3,104.7s-6,42.7-6.7,45.3c-0.7,2.7-9.3,19.3-16,17.3s-14.7-2.7-14.7-2.7
	s25.3,53.3,30,61.3s20,52,18.7,57.3s2,5.3-0.7,8.7c-2.7,3.3-10.7,10-10.7,10l-3.3,4.7l10.7,48l4-1.3l8,5.3c0,0,4.7,2,6.7,4
	s5.3,2.7,10.7,2.7c5.3,0,2.7-7.3,22.7,1.3c20,8.7,100.7,21.3,114,25.3s101.3,24,101.3,24s61.3,8,106-26.7c0,0,36.7-34.7,48.7-41.3
	s77.3-100,77.3-100s58.7-104,71.3-128.7c12.7-24.7,43.3-128,49.3-148.7s39.3-149.3,39.3-149.3l43.3-212L2063,2729
	C2063,2729,2054,2693,2055,2685z M2037.1,3138.4c-21.4,0-38.7-17.3-38.7-38.7s16.3-38,37.7-38c21.4,0,37.2,17.6,37.2,39
	S2058.4,3138.4,2037.1,3138.4z"/>
<path id="body-left" class="st0" d="M2914,1453.3v-4l-2-0.7c-4-2-20.3-5-20.3-5c-42.7-7-156.7-46.7-156.7-46.7s-105.3-39.3-121.3-47
	c-16-7.7-153.7-66.7-153.7-66.7L2348,1718l-215,722.5l-58.5,160.5c0,0-24.5,61.5-26.5,66.5s-7.5,28.5-8,40s2.5,45.5,2,53.5
	s7,124.7,7,124.7s11.3,162,12.7,169.3c1.3,7.3,7.3,28.7,8.7,40c1.3,11.3,2,37.7,3,59s15.7,136,15.7,136c12,116,52,303,52,303
	c20,85,72,201,72,201l79.5,122c15,26,76,75.5,76,75.5c18,18.5,48,24.5,56,22.5s112.5-22.5,112.5-22.5c15.5-4,144-13,144-13
	c-2.5-22.5,16-86,16-86c-17-7.5-0.5-35,4-48.5s27.5-60.5,30-66s4.5-8.5,4.5-8.5l-19.5-9.5c0,0,5.5-28.5,7-39.5s32.5-308,34.5-320.5
	s-5.5-211.5-5.5-211.5l-1.5-12.5l-1-3.5l-16.5-67l1-2.5c0,0-21-118.5-27.5-147s-17-108-17-108c-4.5-27-9.5-212.5-9.5-212.5v-88
	c-3-38.5,3.5-105.5,3.5-105.5c1.5-19,27-88.5,27-90.5s6.5-20.5,8.5-24s8-17.2,8-17.2l16.7-29.3c0,0,22.7-191.3,22.7-212.7
	c0-21.3,14.7-140.7,19.3-169.3c4.7-28.7,77.7-335.3,80-341s51-98.3,51-98.3L2914,1453.3z M2062.1,2676c1.2-20.7,16.1-38.7,37.5-37.5
	c12.5,0.7,23.7,6.8,30.5,16c-0.4,0-0.5-0.1-0.5-0.1c0,0,16.1,19.2-0.6,44.6h0.5c-7.5,10.9-19.5,18.9-32.1,18.9
	C2076.6,2718,2060.3,2705.2,2062.1,2676z M2530.1,1581.2c-0.6,0.8-7.9,5.5-8.1,6.1c-0.2,0.6-11.4,5.5-28.6,9l-29.8,7
	c0,0-6.9,1.9-9-10.9c0,0-3.5-7.9,10-10.1l49.5-11.6c0,0,10.6-1.6,15.4,1.4c0,0,2,1.9,1.8,3.9c-0.2,1.7,0.2,2.4,0.2,2.4
	S2530.8,1580.5,2530.1,1581.2z"/>
<path id="lapel-right_1_" class="st1" d="M1838,1311.3c0,0-98.7,116-97.3,146.3l5,5l-76.3-13c0,0-47.8-8-49.2-8.2
	c-1.3-0.2-32.3-8.5-30.7,13.3c0,0,5.2,26.5,8.8,33.3c0,0,58.7,139.5,63.3,150.2c4.7,10.7,60,141.3,60,141.3S1811,1984.3,1823,2007
	l118.3,234.3l35.3,68l57,95l-5.7-10c0,0,50.3,85,53.7,91.3c3.3,6.3,12.7,18.3,12.7,18.3l-21-95l-31-126.7l-22.7-93.7l-29.7-117.3
	c0,0-46-183.8-56.5-235.8c0,0-29-138-36.5-197.5c0,0-41-250-41-253c0,0-11.2-46.2-12-51.5s-4.8-21.5-4.8-21.5L1838,1311.3z"/>
<path id="lapel-left" class="st1" d="M2588.2,1447.5l-37,11.2l-3-2.5l-7.5-3.5l-78.5,22.8c0,0-78.2-119-86.2-126
	s-30.5-23.5-30.5-23.5l-2,4.2c0,0-11,64.5-12.2,72.8s-10.5,63.5-10.5,63.5S2301,1605,2299,1612s-10,97-11,102s-35,179-37,193
	s-41,200-45,212s-54,197-60,215l-43.7,148.3c0,0-18,58.7-21.3,68s-15.3,75.3-15.3,75.3s116-190,118.7-193.3s40.7-76.7,60-114.7
	c0,0,76.7-153.3,78-156.7c1.3-3.3,104.7-233.3,104.7-233.3l129.3-322l45.3-110l9.1-25.9C2610.8,1469.8,2615.5,1442.5,2588.2,1447.5z
	 M2529.5,1572.1c0,0,2,1.9,1.8,3.9c-0.1,1.1,0,1.8,0.1,2.1l0.1,0.3c0,0,0-0.1-0.1-0.3L2529.5,1572.1z"/>
<path id="arm-left_1_" class="st2" d="M2891.5,3727.5c0,0-134-15.5-152-9c0,0-10.5,0-11.5,7c0,0-1.5,7-1.5,10s0.5,28,0.5,28l11-3
	l-2.5,9c0,0-4.7-0.3-6.2-0.3s-26.5-2.7-25.3-15.3c1.2-12.7,4.3-53.5,4.3-53.5l5.3-53.2l4.3-37.5l4-42l5.2-53c0,0,4.8-48.5,5-51
	s2.5-49.8,2.5-49.8s1.8-30.5,1.8-33s6.5-117.8,6.5-117.8l11.3-160.7l1-55l3.7-68.3l1-54l-2-118l-3.7-122.3c0,0-3.7-105.7-4-109.7
	s-4.7-112-5-114.3s-9.3-108.7-9.3-108.7s-0.7-14.7-1-16s-5-23-6-24.7s-1.3-2.7-1.3-2.7l6-100.3l3.7-47c0,0,5-57.7,5.7-65
	s5.3-55.7,5.3-58s7.3-72,7.3-72s13.3-97.7,14.3-106.7s22.3-122,23-125.7s49-160.5,63.5-193c0,0,32-73.3,57.5-91.7
	c0,0,35.2,20.2,46.2,37.4c0,0,18.5,32.2,22.8,67.5c0,0,10.8,63.8,11.8,69.2s18.9,167.5,20.2,196.8l9.3,216L3035,2253l9.3,256
	c0,0,6.7,262.7,8,275.3c1.3,12.7-4,420-2,432s-2,152-2,152s-11.3,375.3-10,380s-0.8,4.7-1.8,11.2s-1.5,14.5-2,16s-0.5,5-2,3.5
	s-6-6-9-11s-6-10-6-10l0.5-3.5c0,0,5.5-4.5,1.5-5.5s-82.5-18.5-126-20.5"/>
<path id="collar-right" class="st3" d="M1848,1150.3c0,0-8.7,4.7-11.3,8.3c-2.7,3.7-23.3,27.3-26.7,32.3s-7.7,12.3-13.3,18.3
	c-5.7,6-24,21.7-27,25s-11.3,8-17,13s-13.7,12.3-19.3,16c-5.7,3.7-18,12.3-26,25.3c0,0-23.3,57.3-25,64.7c-1.7,7.3-18.3,49-19.3,52
	s-7.7,22.7-9,25.7s-7.3,9.7,5,11.3c0,0,75.3,12,81.7,16l4.3,3c0,0,25-45,25.7-46.7s25.3-40.3,27.7-44.7c2.3-4.3,30.7-43.3,41-51.7
	c0,0-5-41.7-4.7-53c0,0,0-51.7,1-58.7S1845.3,1155.3,1848,1150.3"/>
<path id="collar-left" class="st1" d="M2325,1151.5c0,0,17.5,58.8,19.5,92c0,0,5.8,56.8-0.2,86l-0.5,1.5c0,0,24,24.5,38.8,45.2
	l35.2,49.8l39.5,58.2c0,0,71.8-23.2,92.8-25.2c0,0-23.8-56.8-26.8-63.2s-32.2-65.5-35-69.2s-24.5-37.5-26.8-40.5
	s-24.8-18.2-32.8-24.2s-26.2-18-62.5-63.2C2366.2,1198.5,2343.2,1163.8,2325,1151.5z"/>
<path id="arm-right" class="st4" d="M1266.3,1439l3.3,2.7c0,0,0.7,1.3,6,6s10.7,18,17.3,29.3s10,32,19.3,54s30.7,72.7,30.7,72.7
	s26.7,91.3,26.7,96s16,67.3,16.7,92s21.3,189.3,22.7,205.3s11.3,177.3,10.7,199.3c-0.7,22-4,58.7-4,60.7s-8.7,268.7-8.7,279.3
	c0,10.7-10,278-10,278l-6,266c0,0-1.3,83.3-1.3,102.7s-6.7,66-7.3,69.3c-0.7,3.3-4,14.7-3.3,20s3.3,83.3,4,88.7s1.3,21.3,2,37.3
	s-2.7,154.7-2.7,154.7s3.3,142,1.3,150s-3.3,20.7-6.7,28s-8,13.3-8,13.3l-7.3,1.3l0.3-1.3c0,0,5-2.3,3.7-8.7
	c-1.3-6.3-4.3-26.3-4.3-26.3s-5.7-10-19.7-10s-105,2-143.7,10.3l-93.7,14.7c0,0-12,0.7-12,11.7l1.3,14.3l-23.3-17l0.3-85l-7.2-154.3
	l-3.5-97.5l-2.5-81v-212l0.5-250l6-369.5c0,0,20-283,21-298s40.7-303.7,40.7-303.7s60-297.3,62.7-304.7c2.7-7.3,30.7-118.7,46-130
	C1249.7,1436.3,1264.3,1437,1266.3,1439z"/>
</svg>
