<?xml version="1.0" encoding="utf-8"?>
<!-- Generator: Adobe Illustrator 21.1.0, SVG Export Plug-In . SVG Version: 6.00 Build 0)  -->
<svg version="1.1" id="Layar1" xmlns="http://www.w3.org/2000/svg" xmlns:xlink="http://www.w3.org/1999/xlink" x="0px" y="0px"
	 viewBox="0 0 4160 6240" style="enable-background:new 0 0 4160 6240;" xml:space="preserve">
<style type="text/css">
	.st0{fill:#4C4C4C;}
	.st1{fill:#D8D8D8;}
	.st2{fill:#B7B7B7;}
	.st3{fill:#9E9E9E;}
	.st4{fill:#828282;}
	.st5{fill:#606060;}
	.st6{fill:#919191;}
</style>
<g id="pants">
	<path class="st0" d="M2699,3757.5h-10c0,0-17-15.5-19-18s-18.5-15-24-18s-17.5-24-17.5-24l-15.5-5c0,0-5,3-9.5,4.5
		s-30.5-0.5-32.5-2.5s3-28,3-28l-32-781h-818.5v453c0.5,1.5-9,20-9,20c14.5,19,39,57.5,62.5,137.5s9.5,168,8.5,174s-4,12-19.5,13
		s-27.5-20.5-27.5-20.5c-1.5,9.5-7,17.5-20.5,24s-22,2.5-22,2.5c0,16-15,22.5-15,22.5c-20.5,9.5-28.5-5.5-28.5-5.5
		c-2,9.5-13.5,11-13.5,11s3,1.5,3.5,4.5s3,48,3.5,88s10.5,232.5,14,298.5s8.5,249.5,10,299s8.5,257,10.5,298.5s6.5,221,8.5,269.5
		s4,224.5,8.5,309s6,371.5,6,371.5s1,2.5,2.5,5.5s23,42.5,23,42.5c3,0.5,16.5,7.5,25,14.5s20.5,14.5,20.5,14.5
		c15,11,54.5,8.5,54.5,8.5c10.5-0.2,29.5-2,38.5-4.5s57-1,61-1.5s11.5-7,21-19.5s23.5-71.5,23.5-71.5s8-39.5,8.5-57.5
		s1.5-282,1.5-320.5s2.5-144,4.5-177s32.5-348.5,37-395.5s34.5-397,41.5-476s22-178,25.5-205.5s60.5-345.5,61-350s5.5-7,5.5-7l54,1
		c0,0,1,5,0.5,8s30.5,159,32.5,180s27.5,204.5,36.5,288s24,313,26,367s25,377,28,436.5s25,354.5,30.5,443.5s19,263.5,20,286
		s-2.5,31.5-2.5,31.5s16,37.5,19,42s28.5,12.5,48,18s40.5,7,91,11s78.5-10.5,78.5-10.5s8-3.5,18-11.5s40-29,40-29
		c-2.5-11.5-3-90.5-2-133s2-111,2.5-125.5s-2-40.5-2-40.5c-9-73.5-5.5-214.5-5.5-251s2.5-146,3.5-189s8.5-203,13-286
		s6-263.5,6.5-306.5s-1-280.5,1.5-371.5S2699,3757.5,2699,3757.5z M2133,2970.2c-16.7,0-30.2-13.5-30.2-30.2
		c0-16.7,13.5-30.2,30.2-30.2s30.2,13.5,30.2,30.2C2163.2,2956.7,2149.7,2970.2,2133,2970.2z M2267.2,2933.3c-1,6-1.3,6-3,4.3
		s-7-2-7-2l-41.3,1c0,0-5,4-7.7,4s-10.3-6-12-10.7c0,0,1.3-8.3,4-11s1.3-5,4.3-3s5.7,4.3,8.3,4.7c2.7,0.3,9.7,0.3,9.7,0.3l43,1.6
		C2265.6,2922.6,2268.2,2927.3,2267.2,2933.3z"/>
</g>
<g id="レイヤー_2">
	<path class="st1" d="M2177.5,2551.8v-113.3l-301.5-875l-17.5,11c-5.5,1.4-28.2,9-57.7,19c-66.6,22.7-167.6,57.9-180.8,62
		c-19,6-72,23.5-85.5,26.5s-36,11-36,11l139.5,725.5c52,75,56.5,132,64.5,213.5s-7,161.5-7,161.5c-20.5,95-42.5,139-42.5,139
		l-42.5,408c63-19,97-19.5,97-19.5c4,0.5,14.5,12,15,16s-8.5,23-8.5,23c39.5,60,58.5,107,68.5,173s2.5,140.5,2.5,140.5
		s-7.5,10-26.5,6s-19.5-32-19.5-32c0.5,31-18,39.5-18,39.5c38.5,14.5,142.5,19.5,142.5,19.5c137,37.5,222-177,239-222
		s46-196,51-222.5s24-174.5,24-174.5v-475.9c-16.2-4.5-19.7-22.2-20.6-28.9C2156.9,2582.7,2157.5,2555.7,2177.5,2551.8z
		 M2160.8,2939.1c0,16.7-13.5,30.2-30.2,30.2c-16.7,0-30.2-13.5-30.2-30.2c0-16.7,13.5-30.2,30.2-30.2
		C2147.3,2908.9,2160.8,2922.5,2160.8,2939.1z"/>
</g>
<path id="body-right" class="st2" d="M2652,3342.7c0-4,3.3-43.3,3.3-43.3l25.3-368c0,0-2.7-6-6.7-21.3s-8-45.3-10-66
	s-14-83.3-14-83.3c-10.7-71.3-13.3-168-13.3-168c-0.7-128,22-255.3,22-255.3L2770,1696c0,0-21.3-7.3-34-12s-80.7-26.7-80.7-26.7
	s-189.3-58.7-202-62.7s-34-14-34-14l-240.7,856c0,0-18,63.3-28,94.7c-10,31.3-15.3,82-6.2,138c9.2,56,20.8,278.7,34.2,426
	s55.3,287.3,83.3,407.3s78,165.3,116,181.3s195.3-11.3,195.3-11.3l10-90.7l27.3-80l-6.7-11.3c26.7-82.7,82.7-121.3,82.7-121.3
	s0,0-16.7-3.3S2652,3346.7,2652,3342.7z M2157.9,2582.7c0,0,0.7-31.7,26-31.3c0,0,24-0.3,26.7,24v1.7c0,0,22.7-1,28,1.7h2.7
	c0,0,2.3-10,4.3,1.3c0,0,1,15.7-5.7,13.7l-4.3-1.3l-25-1c0,0-2.7,22-25,21.3C2163.2,2612,2158.9,2590.3,2157.9,2582.7z"/>
<g id="arm-right">
	<path class="st3" d="M1500,1693c0,0,100,144,143,396c0,0,6,160-6,329c0,0-12,323,16,525c0,0,13,124,22,170s47,201,47,201
		s-112,24-139,33s-102,28-113,34c0,0,2,32,8,35.5s12.5,2,14.5,2.5s31.5-1,16.5,3s-30,6-34.5,0s-9-9.5-9-9.5s-1.5,17.1-7.5,13.3
		s-12.5-14.3-16.5-20.3s-3.5-15.5-3.5-15.5s0-20.5-11-65.5s-44.5-217-56.5-284.5s-45.5-239.5-51.5-315.5s-6-119.5-2.5-146.5
		s31-222.5,39-272s58-286,67.5-335s14-66,14-66s14.5-143,15-150.5s3.5-29.5,5-33s17.5-26.5,23.5-28.5S1500,1693,1500,1693z"/>
</g>
<g id="arm-left">
	<path class="st4" d="M2688.7,1956c0,0,37.3-195.3,82-259.3c0,0,10-6.7,16,0s9.3,13.3,9.3,18s27.3,112,37.3,151.3s74,292,82.7,333.3
		s32.7,188.7,35.3,304.7c0,0,17.3,214.7,18.7,303.3c1.3,88.7,4.7,96.7,0,156s-17.3,128-23.3,186s-18.7,134-20,151.3
		s-0.7,93.3-0.7,93.3s0,24.7-8,0s-8-24.7-8-24.7s-5.3,12-12.7,16c0,0-0.7,10.7-16,14s-54,1.3-54,1.3s-9.3-6-10-11.3
		s9.3-33.3,9.3-33.3l48-28.7c0,0-17.3-10.7-66.7-16c0,0-44-8-68-11.3s-64-12.7-83.3-0.7c0,0-7.3,1.3-7.3-4.7s32.7-326,34.7-375.3
		s-1.3-175.3,0-254s5.3-110.7,5.3-144.7s-4.7-118-30-182.7c0,0-1.3-109.3,8.7-209.3C2678,2028.7,2688.7,1956,2688.7,1956z"/>
</g>
<g id="collar-right">
	<path class="st4" d="M1860,1663c0,0-67-18-77-18.5c0,0-5.5,0.5-2.5-4.5s31.5-40,37-45s11-13.5,23-18.5s27.5-11,36.5-18.5
		s36-25.5,36-25.5s16.5-15,18.5-17s13.5-24.5,22.5-31.5c0,0,1,46,12,87.5C1966,1571.5,1923.5,1605.5,1860,1663z"/>
</g>
<path id="lapel-right_1_" class="st5" d="M1861.5,1661.8c63.5-57.5,104.5-90.3,104.5-90.3s21.7,98,43.5,208s29.8,147.2,30.8,155.2
	s15.4,60.6,21.8,80.8c0,0,15.7,47.3,17,56.3s19,78.7,26.3,103.3c7.3,24.7,49.3,177.3,61,217s13,43.3,13,43.3l-6.3,19.3
	c0,0-28.3-47.7-42.3-66.7s-122.3-187.7-122.3-187.7s-98.7-165.3-115.7-195.3s-68-134.7-85-171s-64.3-126.3-73-141.3
	s-13-32.3-9.7-39.7c3.3-7.3,11-7,19-6.7s72.3,11.7,81,13.7s32.3,5,32.3,5L1861.5,1661.8z"/>
<g id="collar-left">
	<path class="st6" d="M2331,1562.5c0,0-1.3-4.2,0-9.8c1.3-5.7,3-46.3-3.7-52.3v-3.3c0,0,7.3,6.3,13,23c0,0,6.3,14.3,30,31.3
		s32.3,21.3,36.3,23.3s19,6.3,27.7,12.7c8.7,6.3,21,10,38.7,23.7s34.7,22,35,35.3c0,0,1.7,2.3-6.3,4s-15.7,1-26,2.7
		s-18.7,2-20.7,2.7s-15.7,4.3-15.7,4.3s-20.7-17-23-19.3s-25.3-21-35.7-30c-10.3-9-32-32.3-35-34.7S2338.3,1566,2331,1562.5z"/>
</g>
<g id="lapel-left">
	<g>
		<path class="st0" d="M2143.9,2569.7c-1.7,5.2-2.1,6.9-2.1,7.3C2141.8,2577.1,2142.6,2574.4,2143.9,2569.7z"/>
		<path class="st0" d="M2554,1651.5c-1.8-4-16.2-0.5-23.5,0.5s-37,3.5-50,4.8s-41.2,3.2-41.2,3.2s-14.5-12-23-19.3
			s-38-32.1-47.5-41.3s-26-26.3-26-26.3c-5.8-8.4-11.9-10.6-11.9-10.6s-0.5,8-1,16s-5,28-7.8,54.5s-12.5,104.5-15.8,141.8
			s-16.5,140.8-22.8,185.8s-26.8,143.5-33,172s-31.5,146.8-36.5,169.5s-23.5,98-23.5,98c-7.5,20.5-21.2,71.2-24,84.8
			c-2.2,10.9-17.2,65-22.9,84.9c1.4-4.3,3.7-11.1,7.4-21.4c8-22.8,20-38.8,36.2-79s73.2-129.2,85.8-152.8s75.2-144,82.8-156.5
			s67-136.5,74.5-154s61.2-152.5,61.2-152.5s54-143.5,62.2-171.5S2554,1651.5,2554,1651.5z M2473.7,1746.7c-14,2-17.5,3-17.5,3
			s-2,8.5-7,4.5s-7-7.5-7-7.5s11.5-7,20.5-7.5s31-8,32.5,0C2495.2,1739.2,2487.7,1744.7,2473.7,1746.7z"/>
	</g>
</g>
<path class="st2" d="M2208,2565.9c0,0,7.9,21.2-1.8,36.7l48.3,7l1.5-52.2L2208,2565.9z"/>
</svg>
