<?xml version="1.0" encoding="utf-8"?>
<!-- Generator: Adobe Illustrator 21.1.0, SVG Export Plug-In . SVG Version: 6.00 Build 0)  -->
<svg version="1.1" id="Layar1" xmlns="http://www.w3.org/2000/svg" xmlns:xlink="http://www.w3.org/1999/xlink" x="0px" y="0px"
	 viewBox="0 0 4160 6240" style="enable-background:new 0 0 4160 6240;" xml:space="preserve">
	 <pattern id="normal" patternUnits="userSpaceOnUse" width="270" height="270" patternTransform="">
		<image image-rendering="optimizeQuality" preserveAspectRatio="xMidYMid meet" xlink:href="/images/simulator/default/default_tex.jpg" x="0" y="0" width="270" height="270" style="-ms-interpolation-mode: bicubic;" />
  </pattern>
  <pattern id="left" patternTransform="rotate(23)" patternUnits="userSpaceOnUse" width="270" height="270">
		<image image-rendering="optimizeQuality" preserveAspectRatio="xMidYMid meet" xlink:href="/images/simulator/default/default_tex.jpg" x="0" y="0" width="270" height="270" style="-ms-interpolation-mode: bicubic;" />
  </pattern>
  <pattern id="right" patternTransform="rotate(-23)" patternUnits="userSpaceOnUse" width="270" height="270">
		<image image-rendering="optimizeQuality" preserveAspectRatio="xMidYMid meet" xlink:href="/images/simulator/default/default_tex.jpg" x="0" y="0" width="270" height="270" style="-ms-interpolation-mode: bicubic;" />
  </pattern>

<style type="text/css">
	.normal{fill:url(#normal);}
	.left{fill:url(#left);}
	.right{fill:url(#right);}
</style>
<g id="leg">
	<path class="normal" d="M1811,3586.5v-495h649l36.7,526.8c0,0-11,13.5-11,28.5s-1,21-0.6,28.5c0.6,13.2-1.1,17.1-1.1,29.6
		s-0.5,51-0.5,51s0.3,2.3,2.8,2.3s21.6,4.2,47.7-19.3c0,0,3.4,21.7,6.9,26.7s11.3,10.8,14.8,12.3s18.3,1.2,20.3-0.8
		c0,0,18.4,27.7,25.4,34.7s19.4,16.1,31.3,6.3c6.1-5,9.1-6.8,10.3-9c0.4-0.9,1.7-0.9,2.2-0.1c2.4,4.3,8.1,11.7,18.4,12.5
		c14.5,1,20.5-1.5,26.5-10.5s6-9,6-9l10,0.3c0,0-6,259.7-6.5,291.7s0.5,253.5-1.5,345s-4.5,303-6,336.5s-4.5,349.5-7,412.5
		s-1.5,121-3,159s-6,74-3,110c0,0,0.5,21.5-3.5,44.5s-6.5,69-7,113s-5,122.5-5.5,133.5s-1,15-5,19s-26.5,19.6-32.2,25
		c-5.2,5-31.8,19.5-40.8,19s-17,0-17,0s-12.5,0.2-24.8-0.7c-9.1-0.7-18.1-2.1-21.7-1.8c0,0-12.7-0.6-20.2-0.1s-23.1-0.9-33.6-5.9
		s-26.1-14-34.1-17.4c-9.3-4-22.6-16.1-24.6-28.6s-3-39.5-3-39.5s0-158.5-2.5-206.5S2394,5269,2391,5219s-22-310.5-26-357.5
		s-21-251.5-25-301.5s-13.5-191.5-17-253.5s-14.5-198-21-248.5s-32.5-237.5-43.5-288s-39-194.5-46.5-208s-7.5-13.5-7.5-13.5
		s-5,8.5-12.5-1c0,0-9-0.5-22,30.5s-51,168-63,309s-28,325-35,397.5s-15,137.5-16.5,147s-4.5,27-5,45.5s-12.5,163.5-16,212
		s-25,315-31,391.5s-18.5,252-24.5,323.5s-19,241.5-19,253.5s-6.5,83-6.5,89.5s1,11,1,11s-11,3.3-16.5,5.3s-12.5,2.7-26.5,3.2
		s-67.1-0.1-81.6-1.1s-33.4-6.4-37.9-7.9s-26.5-3.2-35.5-10.5c-6.5-5.3-10-5-10-5l-3,0.5c0,0-9.5-15-13-18.5s-10.5-8-11-12.5
		c0,0-18,0.5-19-11.5c0,0,0.5-76.5,0-168.5s-4-140.5-11-231.5c0.5-4.5,0-13,0-85s-0.5-249.5,0-343s-0.5-284.5-2.5-321
		c0,0,3.5-60-3-91c-1-2.5-3-87.5-3-116s-3-111.5-7-149.5c0,0-2.5-66.5-5-134.5s-11.5-248-9.5-256c0,0,17.6,13.1,30.1,4.6
		c0,0,17.2,17.4,24.7,15.9s21.6-3.9,26.6-16.9c0,0,9.2,2.8,23.7-3.2c0,0,17.3-0.7,18.8-31.7s3-22.4,3-22.4s6.1,36.4,32.1,38.9
		c0,0,14.8,4.3,14.6-7.4c-0.3-13.3,6.1-77.8,6.1-87.8s1.2-16.5,1.2-18s-24.4-68.6-31.9-84.1L1811,3586.5z"/>
</g>
<path id="body-left_1_" class="normal" d="M2130.9,2965.1c0.1,1.9,0.1,2.6,0.1,2.6s-29,4.7-34.3-22.7c0,0-5-31.8,26.5-36.8
	c0.1,0,0.2,0.3,0.3,0.7c-4.6-31.7-9.2-91.3-12.1-159.6c-3-69.3,0-74.3,2.3-98.7c2.3-24.3,19.7-84,25.3-102.3
	c5.7-18.3,25.7-80.3,25.7-80.3c-59.3-66.7-282.7-821-282.7-821c-4.7,0-37,7.3-43,8.3s-24.3,6.3-38.3,11s-51,15-65.7,19.3
	s-54.3,17-63.7,19s-48.3,12.3-73.7,19.7c-25.3,7.3-46.7,14.7-46.7,14.7l104.3,601c0.3,1,6.7,14.7,7.7,17.7s2.3,15,16.3,91
	s17.3,145.7,20,221.3c2.7,75.7-8.3,123.3-15,161s-12.3,61-12.3,61s1.3,21.7,7.3,65.7s25,155,30.3,186s23.7,153.3,27.7,180.7
	c4,27.3,16.3,83.3,19.3,91.3s-3,6.8-5,5.5s-9.9-3.2-9.9-3.2s1.7,22.3,7,35.3s4.7,31.9,4.7,31.9c55.7,63,57.2,101.2,57.2,101.2
	c3.7,0.3,42.7,4.3,62.3,5.3s54-8.3,64.3-14.3s56.3-71.3,86-117c29.7-45.7,53.3-109.7,70.7-152.3s58.7-181.3,58.7-181.3
	s-6.3-38.3-11-74.3C2138.9,3031.1,2134.8,2996.4,2130.9,2965.1z"/>
<path id="body-left" class="normal" d="M2634.6,2519c0.5-21,8.5-31,14.5-48s12-53,12-53l120-667c0,0-12-1.5-21-4s-33.5-9.5-50.5-17
	s-35-11.5-51.5-14s-69-14.5-81-17.5s-133.9-40.7-133.9-40.7L2164.7,2468c0,0-1.1,3.3-21.8,68s-33.4,107.4-37.3,139
	s1.2,117,4.8,172.2s13.5,104.9,17.3,145.2c3.8,40.3,16.7,114.8,21.5,145.2c4.8,30.5,31.2,117,47.2,182
	c16,65.1,51.5,135.5,78.9,191.1s61.4,81.3,69.4,88.6s32.8,24.3,53.9,29.6c21.1,5.3,50.5-1.7,62.4-4.1c11.9-2.4,35.7-6.5,35.7-6.5
	l0.8-3.6l10.4-26c-0.7-1.7-0.4-13.4-0.6-16.3c-0.2-2.9,0.5-8.2,1.7-11.8s36.6-59.9,45.5-71.3c9-11.4,29.8-35.7,29.8-35.7
	s-1.8-1.7-2.5-2.7s-0.7-2.7-0.7-4.6c0-1.9,2.2-8,4.5-10.8s75.6-15.3,75.6-15.3v-463.8c0,0-5.1-7.4-6.3-13.1
	c-1.1-5.6-5.6-22.6-7.3-36.3c-1.7-13.6-11.9-71.1-15.9-112.5c-4-41.5-3-183-3-183C2629.1,2598.5,2634.1,2540,2634.6,2519z
	 M2135.2,2637.3c-0.5-15,8.5-30,30.2-29.7c0,0,19.2,0.4,26.3,15.3l-0.1,0.3c0,0,7,11.6-1.4,29.2l-0.1,0.6
	c-3.4,6.3-11.1,16-26.3,15.7C2141.3,2668.2,2135.7,2652.3,2135.2,2637.3z M2481.4,1815.4c-2.3-0.7-3.7,0.6-4.8,0.3
	c-1.2-0.3-0.5,0.2-2.5,0s-12.7-7.7-17.2-10s-19.2-10.8-20.8-11.7c-1.7-0.8-3.3-1.2-3.3-1.2s-4.2,0.3-5.5-0.8c-1.3-1.2-2.3-3.5,0-8.2
	c0.5-0.9,3.2-2.7,4.3-3.2c1.2-0.5,3.3-0.3,4.5,0s3.7,2.7,4.2,3.8c0.5,1.2,0.7,2,2.5,3.5s23,11.7,27.5,14.2s11.2,7,11.8,7.7
	c0.7,0.7,0.8,1.7,1,2.2s-0.8,2,0,2.7s0.8,0.7,0.8,0.7S2483.7,1816.1,2481.4,1815.4z"/>
<g id="arm-right">
	<path class="normal" d="M1502.8,1812.5c-0.5,5.5-4,48.8-4.2,54.2s-11.8,53.2-16.5,74.2s-32.5,163-35.8,181.5s-24,128.2-26,139.2
		s-2.2,40-1.8,43s-0.8,13.5-1.2,16.8s-2.5,28-6.5,64.5s-10.5,156-13.2,192.8s-6.5,119.5-6.5,145s5,74.8,6,78.5s0.8,12,1.8,16.5
		s-1,25.2,0,41.5s5.5,67,9.5,109.2s8.8,87,13.5,117s19.2,91,24.2,117.8s10,66.5,10,66.5s6-0.5,7-0.5s3.5,3.8,6,11s1.8,14.2,2.2,17
		s-2.2,11.8-2.2,11.8c4.5,3,7,11.2,9.5,20.5s-0.5,19.8-0.5,19.8s3,1.2,7.2,5.8s4.2,14.8,4.2,23.2s-4.2,15.8-8.8,17.8
		s-8.2-4.8-8.2-4.8s1.8,39,3,48.5s0,48.5,0,52.2s2,2,2.8,1.2s7.5-7,11.8-9.2s27.5-17.2,41.8-28.8s51.5-17.8,83-22.2
		s91.5-11.5,104.5-13.2s24-1.8,28-0.5s6.8,4.5,9,2.2s-0.2-8.2-5.2-27.8s-13.8-66.5-21.8-122.2s-12.5-85.2-18.2-121.8
		s-20-113.8-23.8-139.2s-11.8-90.5-15.5-116.5s-7.8-66.8-9.8-90.8s-4.8-105.5-5.5-132.5s-2.8-125-2.8-140.2s-0.2-145.2-0.2-163.2
		s2-27,2-27c1.8-10,2.5-44.2,2.5-97.2s-6.2-147.5-9-179.8s-8.5-49.8-21.8-105s-19.5-69.8-42.5-140s-33.5-80-33.5-80s-7,1.8-10,2.5
		s-3.2,1-9.8,6.5s-17.5,22.8-21.8,31.5s-5.2,17.2-5.2,17.2C1504.7,1795.6,1502.8,1812.5,1502.8,1812.5z"/>
</g>
<g id="arm-left">
	<path class="normal" d="M2661,2417c0,0-17.5-93.5-17-108s4.5-56.5,8.5-87s11.5-123,30-218s37.5-181,60-216s30.5-37.5,30.5-37.5
		s7-1.5,15.5,5s18.5,10,21,23.5s16,87.5,25.5,152.5s46,273.5,56.5,351.5s14.5,108.5,17.5,188.5s1,157,0,175s-3.5,178.5-6.5,211.5
		s-12,195-18.5,234.5s-30,165.5-31,179.5s-2,30-4.5,45.5s-14,80.5-10.5,90s8,10.5,10,37.5s8,48.5,3,59.5c0,0-22-22.5-23.5-23
		s-4-0.5-4.5,2.5s0,21-6,24.5s-16,6.5-15.5,5s2.9,0,3-13.5c0.1-15.3,4.1-30.6,4.1-30.6s-96.3-20.7-160.8-27.9
		c-66.6-7.4-61.7-4-61.7-4s-4.3,9.7-1.9,14.8c0,0-11.2,7.7-18.2-4.8c-1.5-2.5,0-12,7-42.5s31-145,40.5-206.5s42.5-208,49-261
		s18.5-178,21.5-242.5s9-150.5,6-172S2672,2445,2661,2417z"/>
</g>
<g id="lapel-right">
	<path class="right" d="M1972,1645.7c0,0-11.6,0.4-19.9,6.3s-39.9,26.5-45.4,30.2s-18.1,15.3-25.4,20.5s-18.6,13-24,16.7
		c-5.3,3.7-33.3,15.7-42.3,20.3c-9,4.7-28.3,11.7-31.7,13c-3.3,1.3-7.3,2.3-4.3,10.3s26.7,63.3,38.3,91.7
		c11.7,28.3,55.3,133.7,78,188.3c22.7,54.7,62,147.7,99,220s69.3,138,101,188.3s46.7,72.6,50.4,76.6l19.3-60.7
		c0,0-6.5-9.4-20.1-53.1c-13.7-43.7-40.4-155.3-40.4-155.3l-55.7-212.8c0,0-30.1-124.7-41.1-186.3c-7.4-41.2-18.2-109-26.1-158.9
		C1977.6,1676.1,1974.6,1655.6,1972,1645.7z"/>
</g>
<g id="lapel-left_1_">
	<path class="left" d="M2540.7,1774.7c-0.3-4-7-5.5-31.3-16.7s-43.3-20.3-43.3-20.3c-3.8-3.7-19-14.6-22.1-16.6s-13.5-8.6-23-15
		s-20.3-14.9-30.8-23s-18.2-11.8-30.6-17.6c-12.5-5.9-16.1-0.7-16.1-0.7c-2.1,21.3-5.4,45.8-8.8,82.1c-3.3,36.3-11.7,109.1-15.4,136
		c-3.7,26.8-16.6,80.7-21.1,100.2s-16.5,68.4-19.5,89.9s-23.2,88-30.7,115.5s-32.5,113.8-39.5,138.3s-33,107.4-41.5,131.9
		s-24.3,79.7-34.5,110.7s-18.2,81.2-18.2,81.2c3.2-13.7,28-64.8,36-81.7c8-16.8,35.7-53.3,50.7-74.5s61.8-93.7,73.3-113
		s41.8-68.5,52.7-89.8c10.8-21.3,55-107.5,63.7-127s31.7-65.2,38.8-81.7c7.2-16.5,34.2-86.2,36-91.5s31.8-91.7,34.5-98.7
		s33.8-97.3,36.8-104.8S2541,1778.7,2540.7,1774.7z M2481.2,1815.3c-2.3-0.7-3.7,0.6-4.8,0.3c-1.2-0.3-0.5,0.2-2.5,0
		s-12.7-7.7-17.2-10s-19.2-10.8-20.8-11.7c-1.7-0.8-3.3-1.2-3.3-1.2s-4.2,0.3-5.5-0.8s-2.3-3.5,0-8.2c0.5-0.9,3.2-2.7,4.3-3.2
		c1.2-0.5,3.3-0.3,4.5,0s3.7,2.7,4.2,3.8s0.7,2,2.5,3.5s23,11.7,27.5,14.2s11.2,7,11.8,7.7c0.7,0.7,0.8,1.7,1,2.2s-0.8,2,0,2.7
		s0.8,0.7,0.8,0.7S2483.5,1816,2481.2,1815.3z"/>
</g>
<g id="collar-right">
	<path class="right" d="M1857.3,1719.3c0,0-46.7-10.7-50.3-11.3s-8-2-5.3-5.3s27-21.7,52.7-38s30.7-19.3,32.3-22
		c1.7-2.7,11.3-4.7,15.3-5.7s19-4.3,27.7-14.7c8.7-10.3,35.7-47,46.7-58.3c0,0-4.6,11.6-5.9,35.8c-0.6,12.1-0.4,27.4,1.6,45.9
		c0,0-14,2-19.3,6.3s-32.3,22.3-44.7,30.3s-25.3,19.7-30.3,23C1872.7,1708.7,1857.3,1719.3,1857.3,1719.3z"/>
</g>
<g id="collar-left">
	<path class="left" d="M2334.7,1564.7c0,0,5,8.3,5.7,34.7c3,37,3,65.3,3,65.3s4.3-5.3,17.3,1.3c6.5,3.3,9.3,4.6,13.9,7.1
		c4.6,2.5,11,6.2,22.8,15.6c23.7,18.7,42.3,29.7,49,34s19.7,15,19.7,15s21-8.3,29.3-10.3s14.7-4.3,15.3-6.7c0.7-2.3,1.7-4.7,0-5.7
		s-51.3-47.7-57.3-51.3c-6-3.7-10.3-6.3-14.3-7.3s-30.7-11.7-47-25.7s-42.7-51.3-45-54C2344.7,1574,2337.7,1566.7,2334.7,1564.7z"/>
</g>
</svg>
