<?xml version="1.0" encoding="utf-8"?>
<!-- Generator: Adobe Illustrator 21.1.0, SVG Export Plug-In . SVG Version: 6.00 Build 0)  -->
<svg version="1.1" id="Layar1" xmlns="http://www.w3.org/2000/svg" xmlns:xlink="http://www.w3.org/1999/xlink" x="0px" y="0px"
	 viewBox="0 0 4160 6240" style="enable-background:new 0 0 4160 6240;" xml:space="preserve">
<pattern id="normal" patternUnits="userSpaceOnUse" width="270" height="270" patternTransform="">
		<image image-rendering="optimizeQuality" preserveAspectRatio="xMidYMid meet" xlink:href="/images/simulator/default/default_tex.jpg" x="0" y="0" width="270" height="270" style="-ms-interpolation-mode: bicubic;" />
  </pattern>
  <pattern id="left" patternTransform="rotate(23)" patternUnits="userSpaceOnUse" width="270" height="270">
		<image image-rendering="optimizeQuality" preserveAspectRatio="xMidYMid meet" xlink:href="/images/simulator/default/default_tex.jpg" x="0" y="0" width="270" height="270" style="-ms-interpolation-mode: bicubic;" />
  </pattern>
  <pattern id="right" patternTransform="rotate(-23)" patternUnits="userSpaceOnUse" width="270" height="270">
		<image image-rendering="optimizeQuality" preserveAspectRatio="xMidYMid meet" xlink:href="/images/simulator/default/default_tex.jpg" x="0" y="0" width="270" height="270" style="-ms-interpolation-mode: bicubic;" />
  </pattern>
<style type="text/css">
	.normal{fill:url(#normal);}
	.left{fill:url(#left);}
	.right{fill:url(#right);}

</style>
<path id="body-right" class="normal" d="M1659.8,1330.8c0,0-9.8,8.5-11.5,10.2s-14.5,11.8-25.2,16.8s-27.8,13-32,14.8
	s-55.8,18.5-61.5,20s-103.8,38.5-109.2,41.5s-75.5,29.5-82.2,32.2s-102.3,38.4-108.3,41.4s-14,6.7-21.3,9s-29.7,8-38,15.3
	c0,0-21,16-29.7,45c0,0-11.3,57.3-12,65.3s-7,70-7.7,82s-3.7,73.7-4,86.3c-0.3,12.7-5.3,122.7-5.7,128c-0.3,5.3-10,187.3-10.3,191
	s-2,77.3-2,84.3s2,117.7,1.7,124.3c-0.3,6.7,0.3,86.7,0.3,91.3c0,4.7,1,57.3,1,61.7c0,4.3,3,84.7,4.7,98.3
	c1.7,13.7,16,169.7,16,169.7l12,132.3c0,0,10.3,113.3,10.3,116.7c0,3.3,5.3,66.7,6,71.7s2.7,59.7,3,64.3
	c0.3,4.7,10.3,155.7,10.3,155.7s4,72.7,4.3,76.3c0.3,3.7,2.3,115,2.3,116.7s2.3,54.3-0.3,72.7c0,0-2.7,50.3-2.7,51.7
	c0,1.3-4.7,71.7-4.7,71.7l-6.7,101.7l-4.7,70.7c0,0-4,60.7-4,64s0.3,68.3,0,75s-17,137-18,145.7s-8,72.3-9.7,79s-9.3,35.7-10.7,38.7
	c-1.3,3-2.7,15.7,3.7,28c0,0,22.7,23.3,54.3,38.7c0,0,98.7,48,106.3,51.3c7.7,3.3,109.7,42,116,45s69.7,25,89.3,34.3
	c19.7,9.3,172,70.3,174,71.7c2,1.3,60.3,23,60.3,23s12.7,3.7,23-11.3l81.7-109.3l67.3-90.7l70.7-98.3l14.7-17.3l5-8.2l-24-38
	c0,0-33.5-66.5-38.5-84s-2.5-171-2.5-171l3.5-119c0,0,15-254.5,16-256s13.5-181,13.5-181s5.5-266,6-269.5s-4.5-179,3-205.5
	s18-107,18-107l8-99c0,0,15.5-62,18.5-69.5s27-106.5,27-106.5l-3.7,2l-3.5,1.7l-7.8-14.8l-11.3-30.3c0,0-311.1-995.3-320.1-1035.8
	C1669.1,1396.7,1659.8,1330.8,1659.8,1330.8z"/>
<path id="body-left" class="normal" d="M3012.3,4327.7c0-5.3-6.7-32.7-8-39.3c-1.3-6.7-16.7-92.7-16.7-92.7
	c-6.7-37.3-15.3-171.3-15.3-171.3c-4.7-33.3-3.3-120-6-132s4-324,4-324l4-266.7c0-51.3,6-220.7,7.3-230.7s0.7-142,0.7-149.3
	s0.7-176.7,0.7-184.7s-5.3-79.3-7.3-90s-7.3-70-8.7-88s-17.3-235.3-17.3-235.3s-4-70.7-7.3-83.3c-3.3-12.7-6.7-145.3-6.7-150
	c0-4.7-2-44.7-3.3-55.3c-1.3-10.7-3.3-28-4.7-40c-1.3-12,2.7-115.3,3.3-130s12-186,11.3-197.3c-0.7-11.3,2-74,2-77.3s-4-13.3-4-13.3
	c-6.7-19.3-12-18-18-22.7s-45.3-16-58-18.7c-12.7-2.7-41.3-14-68.7-21.3c-27.3-7.3-132-50.7-132-50.7c-22.7-8-72.7-37.3-98-50
	c-25.3-12.7-48-20.7-54.7-22.7s-108-54-108-54s12,12.7,14.7,17.3c2.7,4.7-16.7,140-16.7,140l-42,166.7l-142.7,437.3l-86.7,210.7
	c0,0-87.3,196.7-105.3,225.3c-18,28.7-62,174-62,174S1949,2753,1949,2755s-9.3,89.3-10,96s-13.3,184-13.3,193.3
	s-0.7,179.3-0.7,179.3l-3.3,126c-0.7,28.7-15.3,248.7-15.3,248.7l-13.3,267.3c0,0-0.7,204-0.7,212.7s2,17.3,2.7,19.3
	s13.3,36,17.3,46s46,70.7,51.3,83.3c5.3,12.7,40,71.3,48,86s34,50.7,37.3,58s73.3,109.3,79.3,118s34.7,62,34.7,62
	c2.7,4.7,22,18.7,26.7,20.7s17.3,0,28-0.7s40-3.3,53.3-6s59.3-12.7,67.3-14s58.7-17.3,78.7-21.3s132.7-38.7,154.7-44.7
	s179.3-56.7,203.3-63.3c24-6.7,152.7-38.7,159.3-40.7c6.7-2,18-5.3,24.7-10.7c6.7-5.3,23.3-11.3,29.3-16s18-12,22-14.7
	C3014.3,4337,3012.3,4333,3012.3,4327.7z M2030.8,2673.7c13.7,0,26,6,34.1,15.5l-0.2,0c0,0,13.5,12.8,7.8,39.9l0.7,0.1
	c-5.6,17.4-22.4,30.1-42.4,30.1c-24.5,0-44.4-19.2-44.4-42.8S2006.3,2673.7,2030.8,2673.7z M2020.9,3011.7
	c15.8,0,29.7,8.2,37.6,20.4l-0.2,0c0,0,12.8,20.7,2.1,43.5l0,0c-7.4,14.1-22.3,23.7-39.5,23.7c-24.5,0-44.4-19.6-44.4-43.8
	S1996.4,3011.7,2020.9,3011.7z M2017.2,3345.2c15.9,0,29.8,9.5,36.7,23.5l-0.7,0c0,0,13,19.2-3.9,48.1c-7.6,9.9-19.2,16.2-32.1,16.2
	c-22.9,0-41.5-19.7-41.5-43.9S1994.3,3345.2,2017.2,3345.2z M2000,3682.4c15.4,0,29,7.9,36.7,19.9l-0.5,0.1c0,0,14.6,20.8,0.4,45.9
	c-7.7,11.9-21.2,19.8-36.6,19.8c-24,0-43.4-19.2-43.4-42.8C1956.6,3701.5,1976,3682.4,2000,3682.4z"/>
<path id="collar-right" class="right" d="M1689,1305.3c0,0-0.2,0-0.5,0.1c-1.8,0.4-7.6,2-10.1,4.2c-3,2.7-32,38.3-58.3,52.3
	s-55.3,32.3-60,35s-45.3,26.3-50.7,31.7c-5.3,5.3-48.3,46.7-50.3,49s-14,14-15.3,15.7s-7.7,11-7,13.3s0.7,3.3,2.7,5.3
	s23.3,11.3,29.3,13.7c6,2.3,25,14.3,27.3,15.3s6.3,6.7,6.3,6.7l1.7,1l5.3-1c0,0,45-34.7,48-37.7s68.7-60.3,73.7-66
	s38.3-44.3,44.7-49.7c6.3-5.3,20.3-16.3,20.3-16.3s-11.3-34-11-38.7s0.7-20.3,1.7-24.3S1689,1305.3,1689,1305.3z"/>
<path id="lapel-right" class="right" d="M1693.7,1375c0,0-10-2-13.3,1.3s-9,8.3-10.3,9.3s-6.7,4.7-7.3,7.3c-0.7,2.7-4,9.3-7.7,13
	s-10.3,6.7-13.3,11s-13,13-16.7,17.3s-36,32-38,35s-40,39.7-41.3,41.3c-1.3,1.7-11,11-16,14.3s-21,12.7-25.7,16.3
	c-4.7,3.7-5.3,4.7-8,7.3c-2.7,2.7-75.5,55.3-81,58.8s-15.5,12.5-17.5,14s-15,9-2.5,28l58,95.5l123.5,195.5l126,187.5l112,166
	l168,246.5l29,41.5l23.5-70.5l-12,2.5l-3-1l-65-218.5l-33.5-116.5l-96.5-346l-93.5-339.5c0,0-27.5-91-28.5-94.5
	S1693.7,1375,1693.7,1375z"/>
<path id="collar-left_1_" class="left" d="M2403,1335c0,0,110.7,62,117.3,66c6.7,4,25.6,10.5,36.9,20.5s66.4,64.2,73.8,70.2
	s34.7,33.3,34.7,33.3s18,14.7,2.7,25.3c0,0-1.3,3-4.3,4s-11.3,3.7-15.3,5s-62.3,31.3-74,39.7c0,0-80.3-63.7-90.3-72.7
	s-38-44-46-61.7s-29.7-52.7-30.7-54.7s-1.7-4.3-1.7-4.3s3-11.7,4-16.7s3.7-18.7,0.3-29C2407,1349.7,2403,1335,2403,1335z"/>
<path id="lapel-left" class="left" d="M2405.2,1406c0,0,4-0.2,4.8-0.2s4.8,0.5,4.8,0.5s1.2-0.5,3,0.8s3,2,4.8,4.8s15.2,25.2,19,32.2
	s15,24.8,20.2,32.2s17.5,24.2,22.2,28.8s14.5,16.8,22.8,22.2c0,0,29,24.2,40.2,32.5s40.5,33.2,47.2,37s69,45.5,74,47.8
	s24.8,13.8,27.2,19s7.5,15.5,2,35.2c0,0-5.2,10.8-9,18s-43.2,64-44.5,66s-62,89.8-62,89.8l-72,100c0,0-82.7,112.5-84.3,113.8
	c-1.7,1.3-34.3,44.7-34.3,44.7s-80.7,108.7-83,110s-32.3,42.3-34.3,45s-31.3,41-34,44.7s-35,47-38.7,52s-60.3,76-64.3,82
	s-16.3,23.3-19,25.7c-2.7,2.3-22,28.3-25.7,33.3s-42,49.7-44.7,53s-18,17.3-22.7,25.3s-22.3,26.7-35.3,53.3c0,0-28.7,65.7-31.3,74
	c-2.7,8.3-6.3,19-6.3,19l1-16c0,0,21.7-82.3,24.3-91.7c2.7-9.3,38-102.3,40.3-108.3s22-53.7,22-53.7l31-76l36-98.7
	c0,0,45.3-118.7,48-124.7s31.7-82,36-91.3s12.3-34,15.3-44.3s31.3-109,32-111.3s36.7-119.7,37.3-121.3c0.7-1.7,39.7-128.7,40-130.3
	c0.3-1.7,28.3-98.3,31-103.7c2.7-5.3,11.7-42.3,14.7-49.3s12.3-34.3,17.3-46.3S2405.2,1406,2405.2,1406z"/>
</svg>
