<?xml version="1.0" encoding="utf-8"?>
<!-- Generator: Adobe Illustrator 21.1.0, SVG Export Plug-In . SVG Version: 6.00 Build 0)  -->
<svg version="1.1" id="Layar-1" xmlns="http://www.w3.org/2000/svg" xmlns:xlink="http://www.w3.org/1999/xlink" x="0px" y="0px"
	 viewBox="0 0 4160 6240" style="enable-background:new 0 0 4160 6240;" xml:space="preserve">
<pattern id="normal" patternUnits="userSpaceOnUse" width="270" height="270" patternTransform="">
		<image image-rendering="optimizeQuality" preserveAspectRatio="xMidYMid meet" xlink:href="/images/simulator/default/default_tex.jpg" x="0" y="0" width="270" height="270" style="-ms-interpolation-mode: bicubic;" />
  </pattern>
  <pattern id="left" patternTransform="rotate(23)" patternUnits="userSpaceOnUse" width="270" height="270">
		<image image-rendering="optimizeQuality" preserveAspectRatio="xMidYMid meet" xlink:href="/images/simulator/default/default_tex.jpg" x="0" y="0" width="270" height="270" style="-ms-interpolation-mode: bicubic;" />
  </pattern>
  <pattern id="right" patternTransform="rotate(-23)" patternUnits="userSpaceOnUse" width="270" height="270">
		<image image-rendering="optimizeQuality" preserveAspectRatio="xMidYMid meet" xlink:href="/images/simulator/default/default_tex.jpg" x="0" y="0" width="270" height="270" style="-ms-interpolation-mode: bicubic;" />
  </pattern>
<style type="text/css">
	.normal{fill:url(#normal);}
	.left{fill:url(#left);}
	.right{fill:url(#right);}

</style>
<g id="arm-right">
	<path class="normal" d="M1059,1875c0,0,23.3,46.3,35.5,94.5c12.2,48.1,29.3,168.2,33.5,212.7c4.3,44.5,23.8,248,28,280.9
		c4.3,32.9,23.8,227.3,25,251.1s27.4,288.2,29.3,319.3c1.8,31.1,15.8,127.4,14.6,177.9c-1.2,50.6-15.8,476.5-15.8,476.5l-13.4,447.9
		l-3.7,383.9l5.5,267.5c0,0,9.1,188.3,10.4,209.6s5.5,59.1,3.7,66.4s-7.9,12.2-7.9,12.2s-3-12.8-21.3-11s-69.5,0.6-220,29.9
		c0,0-153.6,36.6-156.6,38.4s-4.9,4.3-4.9,6.1s-9.1,31.7-17.1,37.8s-14.6,7.3-11.6-6.7s4.3-20.1,4.9-51.8c0.6-31.7-1.2-273-1.2-273
		s-3.7-165.8-6.7-240.7s-14-286.4-18.3-354.7c-4.3-68.3-4.9-132.2-4.3-190.7c0.6-58.5,1.8-441.2,1.8-441.2s-1.2-128.6,2.4-192
		s19.5-353.4,19.5-353.4s4.9-131.6,13.4-210.2s35.3-291.9,43.9-332.1s84.7-410.7,84.7-410.7s12.2-67,16.5-76.2
		c4.3-9.1,40.8-93.2,51.2-107.3c10.4-14,19.5-40.8,26.2-46.3s14-12.2,22.5-12.2s8.5,0.6,14.6,0C1049.4,1876.9,1059,1875,1059,1875z"
		/>
</g>
<g id="body-right">
	<path class="normal" d="M2140.8,4000.6l-52.4-372.9l19.5-221.2l-596-1721.5c0,0-41.4,17.1-74.3,31.1s-72.5,34.1-72.5,34.1
		s-93.2,40.2-105.4,44.5c-12.2,4.3-77.4,31.1-79.8,31.7s-67,25-73.7,29.3s-5.5,7.3-15.8,7.3c-10.4,0-10.4,0-12.8,0.6
		s-18.3,11-18.3,11l167,1313.8c0,0,21.3,34.7,26.8,51.8s52.4,124.9,63.4,246.8c0,0,14,90.8,12.2,171.8s0,89,0,89
		s-5.5,15.8-16.5,57.9s-36.6,150.5-37.2,158.4s-0.6,17.1-0.6,22.5c0,5.5-1.2,12.2-1.2,15.8s-0.6,7.3,0,12.8s0.6,5.5,0.6,5.5
		s-7.9,20.1-12.8,45.1s-17.7,87.8-20.7,108.5s-3.7,30.5-7.3,40.2c-3.7,9.8-9.1,34.1-7.3,43.3c1.8,9.1,5.5,18.3,2.4,35.3
		c-3,17.1-12.8,76.2-14.6,103c-1.8,26.8-5.5,126.8-10.4,148.1s-4.9,43.3-11,53c-6.1,9.8-0.9,466.5,0,467.4s7.3,1.2,8.5,5.5
		s9.8,17.1,8.5,38.4s-1.8,32.3-11,37.8c-9.1,5.5-13,7.3-13,7.3s36.2,65.2,44.7,84.1s20.1,42.7,20.1,42.7s216.9,43.3,264.5,53.6
		c47.5,10.4,89.6,15.2,106,12.2c16.5-3,84.7-4.9,130.4-36.6s104.8-82.9,150.5-143.2c45.7-60.3,60.3-78,84.7-132.8
		c24.4-54.8,78-201.7,87.8-234.6c9.8-32.9,58.5-303.5,58.5-303.5l29.3-230.3L2140.8,4000.6z M2069.7,4209.7
		c-31.1,0-56.3-25.2-56.3-56.3c0-31.1,25.2-56.3,56.3-56.3s56.3,25.2,56.3,56.3C2126,4184.4,2100.8,4209.7,2069.7,4209.7z"/>
</g>
<path id="body-left" class="normal" d="M3086,5092.7c-4.7-6-1.3-23.3-0.7-34c0.7-10.7-2.7-20-2.7-20l8.7-563.3
	c0,0-27.3-112.7-29.3-132.7s-8-32-10-44.7s5.3-24.7,6-28s-2-8.7-2-8.7l4-2.7l0.7-5.3c0,0-0.7-8.7-2-13.3c-1.3-4.7-16-80-16-91.3
	s-12-67.3-15.3-77.3s-12.7-74-12.7-74s1.3-6.7,0.7-10.7c-0.7-4-3.3-9.3-9.3-19.3s-14-73.3-14-73.3c-26-112-28-294-25.3-407.3
	s33.3-246,40-274s40-114,40-114l108-1260.7c-4-6.7-33.3-13.3-40-14s-21.3-5.3-62-20s-40.7-17.3-50.7-22s-30.7-10.7-45.3-15.3
	c-14.7-4.7-29.3-10.7-43.3-16c-14-5.3-25.3-10-42-14s-10.7-4.7-64-22c-53.3-17.3-60-24-95.3-36s-78-32.7-78-32.7l-560,1844.7
	c0,0-1.3,12-4.7,25.3c-3.3,13.3,3.3,171.3,5.3,205.3s32.7,292.7,42,365.3c9.3,72.7,26.7,172.7,44.7,284.7s64.7,320,64.7,320v2
	c24,116,99.3,294,139.3,373.3s98,139.3,128.7,173.3s107.3,78.7,107.3,78.7s30,10.7,64.7,15.3s95.3-3.3,119.3-8
	s105.3-17.3,105.3-17.3s144-22,147.3-22.7s5.3-4.7,8.7-10.7c3.3-6,20-42,40-84.7s34-72.7,34-72.7
	C3112.7,5117.3,3090.7,5098.7,3086,5092.7z M2146.3,3633c-31.1,0-56.3-25.2-56.3-56.3s25.2-56.3,56.3-56.3c21.8,0,40.6,12.3,50,30.4
	l-0.1,0c0,0,11.8,21.2,2.3,47.3C2190.1,3618.5,2169.9,3633,2146.3,3633z M2677.3,1975.3c-1,7-2,9.7-7.3,9
	c-5.3-0.7-20.3-9.7-20.3-9.7l-49-32l-17-10.7l0.7-3.3c0,0,7.3-11.7,9.3-14.3c2-2.7,6.3-5.3,7-3.7c0.7,1.7,9.3,9.7,15.3,13
	s49.3,32,52.3,35.3C2671.3,1962.2,2678.3,1968.3,2677.3,1975.3z"/>
<g id="collar-right">
	<path class="right" d="M1767.3,1485c0,0-21.9,81.7-21.9,99.3c0,17.7,2.4,50,3,61.5c0.6,11.6,1.8,25.6,1.8,25.6l3,21.9l-192,160.9
		l-25-18.3c0,0-46.9-19.5-59.1-27.4s-36-16.5-36-16.5s43.9-72.5,53-85.3s17.7-24.4,32.3-29.3c14.6-4.9,43.3-18.3,54.8-25
		s58.5-37.2,67.6-47.5c9.1-10.4,24.4-29.9,54.2-54.2c29.9-24.4,53-55.5,56.7-58.5C1763.6,1489.3,1767.3,1485,1767.3,1485z"/>
</g>
<g id="lapel-right">
	<path class="right" d="M1750.2,1671.5c0,0-20.7-1.2-29.9,9.8c-9.1,11-149.3,129.2-152.3,131s-94.5,70.1-117,81.7
		s-45.7,26.2-45.7,26.2s-12.2,4.3-9.1,20.1c3,15.8,42.7,126.8,42.7,126.8s37.8,108.5,63.4,170s93.2,218.2,93.2,218.2
		s31.1,74.3,51.8,113.3c20.7,39,105.4,202.3,126.1,242.5s136.5,275.4,138.9,279.1c2.4,3.7,36,70.1,54.8,103.6
		c18.9,33.5,115.8,185.3,115.8,185.3l9.1,17.1l26.8-121.9l-56.1-187.1c0,0-120-398.5-123.1-415.6c-3-17.1-51.8-224.3-61.5-275.4
		s-64.6-353.4-64.6-353.4s-48.8-278.5-53-298.6C1756.3,1723.9,1750.2,1671.5,1750.2,1671.5z"/>
</g>
<g id="レイヤー_18">
	<path class="normal" d="M2431.5,1463.1c0,0,2.4,23.8,4.3,28.6s23.8,40.8,24.4,51.8s1.8,12.8-2.4,46.3c-4.3,33.5-9.8,70.1-9.8,70.1
		l195.6,165.1c0,0,13.4-7.9,18.9-11c5.5-3,72.5-28.6,78-30.5c5.5-1.8,12.8-6.1,12.8-6.1s0.6-4.9-1.8-7.9c-2.4-3-30.5-36.6-41.4-48.1
		s-74.3-78.6-89-87.1c-14.6-8.5-67.6-50.6-79.8-62.8s-39-45.1-54.8-56.1s-29.9-26.8-37.2-34.1S2431.5,1463.1,2431.5,1463.1
		L2431.5,1463.1"/>
</g>
<g id="レイヤー_20">
	<path class="left" d="M2431.6,1463.7c0,0,2.4,23.8,4.3,28.6s23.8,40.8,24.4,51.8c0.6,11,1.8,12.8-2.4,46.3
		c-4.3,33.5-9.8,70.1-9.8,70.1l195.6,165.1c0,0,13.4-7.9,18.9-11c5.5-3,72.5-28.6,78-30.5c5.5-1.8,12.8-6.1,12.8-6.1
		s0.6-4.9-1.8-7.9c-2.4-3-30.5-36.6-41.4-48.1s-74.3-78.6-89-87.1c-14.6-8.5-67.6-50.6-79.8-62.8c-12.2-12.2-39-45.1-54.8-56.1
		s-29.9-26.8-37.2-34.1C2441.9,1474.7,2431.6,1463.7,2431.6,1463.7L2431.6,1463.7"/>
</g>
<g id="arm-left">
	<path class="normal" d="M3154,1837c0,0-21,5-27,21s-35,122-38,141s-14,176-18,250s-5,253-7,294s-14,235-15,277s-5,267-4,272s7,88,7,88
		l12,332c0,0,15,400,20,524s10,304,9,328s-7,92-7,106s-7,236-7,270s-6,265-6,271s-6,24,1,30s10,8,10,8l2.2,1.8c0,0-2.7-6.8-2.7-9.5
		s2.7-2.3,7.2-1.4s40.1-0.5,61.8,2.3c21.6,2.7,173.1,18,183.5,18.9s26.1,1.4,83.4,10.8c57.2,9.5,57.7,14,69.9,18s13.5,10.4,14,13.1
		s0.9,16.7,1.8,18.9s6.8,9.5,9,11.3c2.3,1.8,8.1,5.9,8.1,5.9s6.8-4.5,6.3-10.8s-1.8-18.5-3.2-26.6s-2.7-38.3-2.7-46.4
		s2.7-208.3,4.1-255.1c1.4-46.9,6.8-285.3,6.3-320s-0.9-198.3-3.2-264.2c-2.3-65.8-7.2-164.1-8.1-202.4
		c-0.9-38.3-5.4-108.6-5.9-125.3s-7.7-189.8-8.1-201s-6.3-137.5-8.1-189.8s-9.5-189.3-13.1-232.1s-16.2-156-21.6-202.4
		c-5.4-46.4-21.2-177.6-24.8-219.5s-24.3-225.4-30.2-266.9s-25.7-124.4-32-156.9s-33.8-135.2-46.9-183
		c-13.1-47.8-36.1-117.2-45.5-154.2s-30.7-106.4-37-122.6s-31.1-65.8-37.4-78.9c-6.3-13.1-9-22.5-16.2-27s-19.4-11.7-28.4-13.5
		C3157.4,1838.6,3154,1837,3154,1837z"/>
</g>
<path id="lapel-left" class="left" d="M2774,1912.8c-3-3-29.9-26.2-34.7-31.1c-4.8-4.9-61.5-45.1-87.1-62.2
	c-25.6-17.1-87.8-79.8-104.2-99.9c-16.5-20.1-64-53-75-60.9c-11-7.9-23.8-10.4-23.2-7.9c0.6,2.4-9.1,50-11.6,59.1
	s-14.6,95.7-14.6,95.7s-54.8,357.7-57.3,376c-2.4,18.3-31.1,163.9-31.7,168.8c-0.6,4.9-11,36.6-15.8,50s-68.9,313.2-71.3,323
	c-2.4,9.8-60.3,276.7-60.3,276.7l-7.9,37.1c0,0-1.8,12.2-2.4,19.5c-0.6,7.3-12.8,50-12.8,50s-56.7,217.6-65.8,257.2
	c-9.1,39.6-26.2,135.3-26.2,135.3c1.8-5.5,19.5-55.5,26.8-71.9c7.3-16.5,89.6-198.7,93.2-210.8c3.7-12.2,62.2-121.3,62.2-121.3
	l160.3-340l160.9-348c0,0,110.3-258.4,121.3-275.4c11-17.1,83.5-198.1,84.7-205.4C2782.7,1919.1,2777,1915.9,2774,1912.8z
	 M2677.4,1976.2c-1,7-2,9.7-7.3,9c-5.3-0.7-20.3-9.7-20.3-9.7l-49-32l-17-10.7l0.7-3.3c0,0,7.3-11.7,9.3-14.3c2-2.7,6.3-5.3,7-3.7
	c0.7,1.7,9.3,9.7,15.3,13s49.3,32,52.3,35.3C2671.4,1963.1,2678.4,1969.2,2677.4,1976.2z"/>
</svg>
