<?xml version="1.0" encoding="utf-8"?>
<!-- Generator: Adobe Illustrator 21.1.0, SVG Export Plug-In . SVG Version: 6.00 Build 0)  -->
<svg version="1.1" id="Layar1" xmlns="http://www.w3.org/2000/svg" xmlns:xlink="http://www.w3.org/1999/xlink" x="0px" y="0px"
	 viewBox="0 0 4160 6240" style="enable-background:new 0 0 4160 6240;" xml:space="preserve">
<style type="text/css">
	.st0{fill:#4F4F4F;}
	.st1{fill:#AFAFAF;}
	.st2{fill:#777777;}
	.st3{fill:#DDDDDD;}
	.st4{fill:#B2B2B2;}
	.st5{fill:#606060;}
	.st6{fill:#9E9E9E;}
</style>
<g id="leg">
	<path class="st0" d="M1643.2,3723.6c0,0,8.5,2.5,10.5-11.5c0,0,17,9.2,25.5,5.8c8.5-3.3,20.5-11.8,18.5-26.8c0,0,10.5,17.5,21,8
		s19.5-24.5,19.5-26.5s0-6.5,0-6.5s1.5,9.5,17.5,16c0,0,8,5,11.5,5s6.5,2,11,2.5s9-0.5,9.5-2c0,0,7-86,7-91.5s2.5-36.5-5.5-72.5
		v-479h832v412c0,0-12,23-13.5,26.5s-2,10.5-2,15s-0.5,9-1.5,12s-20.5,78.5-21,113.5c0,0-1,13-1,18.5s-0.5,17.5-0.5,20
		s0,34.5,0,34.5s27.5,4.5,39.5-14.5c0,0,7.5,28.5,17.5,36.5s18,15.5,29.5,13c0,0,8,19.5,14,23s6.5,5,16.5,4c0,0,5,16.5,0,34.5
		c0,0,1,105.5,0,119.5s-3,136-4,170s0,146,1.5,188s-0.5,232-0.5,232s-10,230.5-12,272.5s-3.5,100.5-5,134.5s-5.5,191-6,243.5
		s-1.5,185,0.5,207.5s5.5,75,5.5,102s1,75-0.5,96s-0.5,150.5,0,152.5s0.5,7.5,0.5,7.5s-27,18-29,20s-6.5,5.5-10,6.5s-7,0-7,0
		s-0.5,8.5-11,12s-16,8-32,8.5s-39,0-39,0s-35.5-1-48.5-3s-26.5-3.5-31-3.5s-12-0.5-24.5-3.5s-37.5-10-46-27c-2-4.5-6.5-6.5-10-17.5
		s-6-13.5-5-20.5s2-23,0-37.5s-22.5-301.5-22.5-301.5l-20-292l-23-375c0,0-11.5-174.5-12.5-186.5s-2-63.8-6.5-92.9l-9.5-162.6
		c0,0-5-90-19-194c0,0-26.5-175.5-25.5-193c0,0-19-97-24.5-137.5s-11.5-57.5-11.5-57.5s-7-3-10.5-3s-33.5-1-33.5-1s-1,0-4,2
		s-3,1.5-5.5,3s-5.5,4.5-7,17.5s-52,288-63,365.5s-27.5,232.5-33,303s-17.5,222-21.5,265.5s-19.5,210-22,236s-21,214-23,243
		s-2.5,73-3,94.5s-1,252-0.5,275s-1.5,136-6,160.5s-24,88.5-26.5,91.5s-2.5,3-2.5,3s-10,7.5-14,12.5s-7.5,8-14,7.5s-31.5-1.5-43-1
		s-46.5,1-51,2s-14,1-14,1s-21.5,6-69-24c0,0-13-15-13.5-18c0,0-2-1.5-2.5,4.5c0,0-14-24-15.5-30s-9-7.5-9-25s-0.5-240.5-2.5-289.5
		s-12-374-12-374s-9.5-254.5-11-302s-9.5-318.5-10-391c0,0-10.5-282-13-318.5s-6.5-150.5-8.5-186S1643.2,3723.6,1643.2,3723.6z"/>
</g>
<g id="body-right_1_">
	<path class="st1" d="M2182,3095.3c-2-12.7-9.3-188-14-247.3s-12-211.4-15.3-244.7s-3.1-60,2.7-72s22.7-54,22.7-54
		c-20.7-31.3-345.4-895.9-345.4-895.9s-30,8-42.7,14.7s-165.3,56-182,62s-85.3,24.7-95.3,26.7s-17.3,6.7-17.3,6.7l140,723.3
		c35.3,38.7,53.3,112,61.3,144s9.3,120,4,186.7s-38,176-42.7,187.3s-22.7,32.7-22.7,32.7s86.7,356,86.7,364s-6,22-5.3,26.7
		s4,6.7,17.3,29.3c13.3,22.7,44.7,106.7,56,147.7s-2.7,153-2.7,153s6,5.3,13.3,10.7c7.3,5.3,108,11.3,108,11.3
		c66-0.7,138.7-108,138.7-108c44-52.7,70.7-174,84.7-236s21.3-124.7,24-141.3c2.7-16.7,20-112,20-112S2184,3107.9,2182,3095.3z
		 M2134.2,2971c0,0-27.7-1-28.3-32.2c0,0-0.3-30.9,28.3-32.3c0,0,29.2,2,28.5,32.3C2162.7,2938.8,2162.7,2971.5,2134.2,2971z"/>
</g>
<path id="body-left" class="st2" d="M2734.7,1683.4c-11-3.5-102.5-33.5-124-40.5s-118-37-128.5-40.5s-40-11.5-40-11.5
	s-155.5,493-172,580s-94.5,281-100.5,302.5s-22.5,61.5-22.5,61.5c-10,16.5-8,82.5-8,82.5c6,31.5,18.5,213.5,20,241.5
	s13,185,15,216.5s10.5,83,25,166.5s59,258.5,74.5,306s47.5,93,62,109s43,28,49,31s25.5,2,71,0s124.8-21.5,124.8-21.5l0.2-23.5
	c-2-40.5,14-100,19-123.5s4.5-29.5,4.5-29.5c0-24,79-122.5,79-122.5s-4.5,1-21.5-3.5s-13-19.5-11.5-24.5s4.5-10.5,9-30
	s9.5-18.5,9.5-18.5l12.2-352.7c0-4.7-0.3-5.7-6-17.7s-13-45.3-18.7-94.3s-5.3-60.3-12-105s-7-133.7-7.3-172.7s6.7-134.7,9-158.3
	c2.3-23.7,11.7-52,11.7-52c0.7-1,4.7-30.3,5.7-47.3s3.3-85.3,4-125c0.7-39.7-1.7-41.3-1.7-41.3c-1.3-23,1.3-36.7,7.7-79.7
	s21-115,34.7-176.3c13.7-61.3,39-118.3,48.3-141c9.3-22.7,12-31,12-31C2765.2,1692.3,2745.7,1686.9,2734.7,1683.4z M2156.8,2583.2
	c0,0,0.3-33.3,27.2-33.3c0,0,14.8-1.8,24,17.9l-0.3,0.1c0,0,6.6,9.1,1.3,24.4c-2.3,5.9-9.9,22.6-23.3,21.9
	C2169.8,2613.4,2156.3,2601.4,2156.8,2583.2z M2499.4,1740.8c-1.2,1.8-9,3.8-13.5,4.3s-20.7,2.8-24.3,3.8c-3.7,1-4.8,1.5-5.8,3.3
	s-1.3,3.2-3.2,2.7c-1.8-0.5-4.8-0.5-6.8-2.2s-2-1.7-2-1.7s-1.8-5.8,1.5-7.7c3.3-1.8,4.8-2.2,10.2-2.7s24-4.5,28.5-5.3
	s11.2-3,13.2-0.7C2499.2,1736.9,2500.6,1739,2499.4,1740.8z"/>
<g id="arm-right">
	<path class="st3" d="M1495,1692c0,0,9,2,17,16s51,107,60.5,133s57.5,149.5,69,239s0.5,199,0,242s-4,92.5-5,98s-4,112-3,178.5
		s3.5,167,9.5,240c0,0,7,141.5,28,246.5s43,208.5,48,222.5s6,17.5,5,22c0,0-9-7.5-16-7s-32,2.5-63.5,10s-154.5,36-164.5,42.5
		s-13.5,7.5-13.5,9.5s6.5,32.5,8,35c0,0,5,0.8,14.2,1.5s27.5,0,27.5,0s-22.8,3.8-32.8,2.5s-12.5-4.5-14-6.5s-1.5-4.5-3-3.5
		s-4.5,8.8-5,10.3s-3.5,2.7-3.5,2.7s-3.5-2.5-6.8-9.2s-6.8-11.8-8.8-13s-5.2-5.5-4.8-10.2s0.8-15.2-7-52.8s-34.2-172.5-35.2-179
		s-27.5-139-31-160s-18.8-83.2-31-179s-18.2-155.5-17.2-191.8s4.8-88.5,14.8-142.5c0,0,20.8-145,29.5-198.2s16.2-105.8,21.8-133.2
		s26.5-120.2,31.5-143.2s22.5-93,26.8-135.8s13.5-142.5,14.2-149.2s4.5-13.2,10-21.5s13.2-15.8,15-15.8S1483.2,1690,1495,1692z"/>
</g>
<g id="arm-left">
	<path class="st4" d="M2895.5,3388.5c0,0-7,10.8-14.2,11.8s-35.5,0.2-38.8,0s-3.5,0.5-3.5,0.5s-10.2-12.3-12.5-12.3s-2.2,0-2.2,0
		v-10.8c0,0,32.5-24.5,39.2-39.8c0,0,24.2,19.8,32,19.2s16.8-5.8,11-11.5s-22.4-18-35.3-21c-12.9-3-28.4-8-42.4-11.2
		s-111.5-17.2-123.5-19.2s-37.5-9.8-42.8,3.5s-7.5,33-10,40.2c0,0-7.5,15,0,21s-16-12.5-12-31.5s21-113,25.5-145.5s10.5-116,12-160
		s4-82.5,4-88.5s-1-7.5,0-9.5s1.5-12,1-15s5.5,4.5,4-21.5s-1.5-37.5,0-49.5s-0.5-88-1.5-116s-2-107-0.5-140.5s4.5-119.5-3.5-161
		s-17-74-24-84c0,0,6-40.5,8-91s4-97,2-112s-0.5-50.5,2.5-71s25.5-150.5,36-188.5s46-142.5,63.5-177.5c0,0,16-13,26,19
		s60.5,231.5,68,265.5s46,184,54,230s25.5,157,29.5,221s14,210.5,18,282s13,189.5,4,264.5s-23,194.5-29.5,234.5s-13.5,81-13,103
		s0.5,68,1,74.5s-1,9.5-6,8s-8.5-15-8.5-15l-11.5,0.5c0,0-3,2.5-4.5,3.5"/>
</g>
<g id="collar-right">
	<path class="st5" d="M1957.3,1487c0,0-8.3,2.7-18.3,19.3c-10,16.7-34,35-51.3,46.3s-34.7,20.3-38,21.7c-3.3,1.3-14.3,7-16.7,8.7
		s-11.3,3.7-13.3,7.3c-2,3.7-14,23.3-19.3,29.7c-5.3,6.3-16.7,13-17.7,14s-5,4.7-2.3,6.7s38,9.7,46.3,12.3c8.3,2.7,33.7,8,34.7,11.7
		s37.3-35.7,51.7-47c14.3-11.3,38.7-34,42.3-35c3.7-1,7.3-2,7.3-1c0,0-7.7-34-8.7-43.7S1955,1493.3,1957.3,1487z"/>
</g>
<g id="lapel-right">
	<path class="st6" d="M1750.7,1650.3c0,0,98.7,13.1,100.7,14.6s6,3.1,8,1.4s4.5-2.3,7.8-5.3s14-13.5,25.3-24.3s17-15.8,25.6-23.1
		c8.6-7.3,28.5-27,34.8-29.5s8.5-2.2,9.9-2.5c1.3-0.3,16.3,70,19.3,81.3s14.3,78,18.7,102.7c4.3,24.7,25.7,119.3,35.7,164
		s37.3,142,47,178.3c9.7,36.3,41,134.7,49.7,169s21.7,94.7,27.3,119.7c5.7,25,11.3,59.3,11.3,59.3l-2.3,11.3c0,0-5-28.7-23-55
		s-53.3-75.7-62.3-92s-47.3-73-66.3-102s-59-94.7-67.7-109.3s-36.7-64-58-103.7s-54-101.3-61.3-118.7
		c-7.3-17.3-66.7-137.3-73.7-149.3s-30.7-55.7-33-63.3s-2-17.3,0-20.7C1726,1650,1734.1,1648.1,1750.7,1650.3z"/>
</g>
<g id="collar-left">
	<path class="st5" d="M2331,1564.5c0,0,21,21,40.5,38s41.5,35.5,50.5,42s19,16,19,16s26-9,43.5-10.5s23-4.5,24-7.5s-49-43-62.5-50
		s-30-13-42.5-18.5s-53-31-58.5-44.5s-6.5-18.5-14-20.5V1564.5z"/>
</g>
<g id="lapel-left_1_">
	<path class="st6" d="M2555,1654c-2.7-7.3-10.7-4.7-19.3-3.7c-8.7,1-27.3,4-41,5.3s-53.7,4.8-53.7,4.8s-3.2-3-5.3-4.9
		s-36.4-29.4-60.3-49.8s-44.4-41.4-44.4-41.4s-0.3,5.2-1.7,12.5c-1.3,7.3-14.7,139.7-17.7,170.7s-13,134.3-17.3,165.7
		c-4.3,31.3-5.7,35.7-9.3,44.7s-12.3,67.3-15,85.3s-6.7,31.3-11,39s-14.3,52.3-17.3,66s-20.3,92-25.7,111s-10.3,45.3-11.3,51
		s-18,95.7-22.7,107.3c-4.7,11.7-20.7,84.7-20.7,84.7c2-6.7,48.3-81.3,77.3-128.3s81-148,106-198s65.3-130.7,89.7-183
		c24.3-52.3,58.7-142.3,67-164s42.7-115,51-144C2560.7,1656,2557.7,1661.3,2555,1654z M2499.3,1740.8c-1.2,1.8-9,3.8-13.5,4.3
		s-20.7,2.8-24.3,3.8s-4.8,1.5-5.8,3.3s-1.3,3.2-3.2,2.7s-4.8-0.5-6.8-2.2s-2-1.7-2-1.7s-1.8-5.8,1.5-7.7c3.3-1.8,4.8-2.2,10.2-2.7
		c5.3-0.5,24-4.5,28.5-5.3s11.2-3,13.2-0.7C2499,1737.2,2500.5,1739,2499.3,1740.8z"/>
</g>
</svg>
