<?xml version="1.0" encoding="utf-8"?>
<!-- Generator: Adobe Illustrator 21.1.0, SVG Export Plug-In . SVG Version: 6.00 Build 0)  -->
<svg version="1.1" id="Layar1" xmlns="http://www.w3.org/2000/svg" xmlns:xlink="http://www.w3.org/1999/xlink" x="0px" y="0px"
	 viewBox="0 0 4160 6240" style="enable-background:new 0 0 4160 6240;" xml:space="preserve">
<pattern id="normal" patternUnits="userSpaceOnUse" width="270" height="270" patternTransform="">
		<image image-rendering="optimizeQuality" preserveAspectRatio="xMidYMid meet" xlink:href="/images/simulator/default/default_tex.jpg" x="0" y="0" width="270" height="270" style="-ms-interpolation-mode: bicubic;" />
  </pattern>
  <pattern id="left" patternTransform="rotate(23)" patternUnits="userSpaceOnUse" width="270" height="270">
		<image image-rendering="optimizeQuality" preserveAspectRatio="xMidYMid meet" xlink:href="/images/simulator/default/default_tex.jpg" x="0" y="0" width="270" height="270" style="-ms-interpolation-mode: bicubic;" />
  </pattern>
  <pattern id="right" patternTransform="rotate(-23)" patternUnits="userSpaceOnUse" width="270" height="270">
		<image image-rendering="optimizeQuality" preserveAspectRatio="xMidYMid meet" xlink:href="/images/simulator/default/default_tex.jpg" x="0" y="0" width="270" height="270" style="-ms-interpolation-mode: bicubic;" />
  </pattern>
<style type="text/css">
	.normal{fill:url(#normal);}
	.left{fill:url(#left);}
	.right{fill:url(#right);}

</style>
<g id="belt">
	<path class="normal" d="M1626.4,1775.5c0,0,3.2-12.8,12.8-28.9c9.6-16,29.4-53.5,33.7-65.2c4.2-11.8,20.3-41.7,21.9-44.3
		c1.6-2.6,2.2-5.9,8.6-5.4c6.4,0.6,130.9,7,174.7,9.6c43.8,2.6,189.2,12.3,210.6,12.8c21.4,0.6,81.8,2.2,115.4,0.6
		c33.7-1.6,134.7-4.8,162.5-5.9c27.8-1,114.9-8.6,146.4-8c31.5,0.6,53.5-2.2,65.2,2.6c11.8,4.8,29.9,9.1,35.3,18.2
		c5.4,9.1,41.7,94,44.3,101.6c2.6,7.5,6.4,17.1,7,24s2.2,12.8,2.2,12.8s-27.8-3.8-64.1,0c0,0-29.9,5.4-66.3,5.4
		c-36.3,0-95.1,3.2-136.8,5.4c-41.7,2.2-120.8,6.4-182.2,7c-61.5,0.6-150.7-2.2-212.6-7c-62-4.8-198.8-21.4-235.6-24.6
		c-36.9-3.2-63.1-3.2-80.2-6.4c-17.1-3.2-29.7-5.5-46.6-4.2c-6.7,0.5-11.1,0.6-11.1,0.6L1626.4,1775.5z"/>
</g>
<g id="right">
	<path class="normal" d="M1626.4,1775.5c0,0,8.2,0,15.9-0.3c7.8-0.3,24.8,0.2,37,2.9c9.1,1.9,24.6,3.5,24.6,3.5s0,0-4.9,36.3
		c-5.5,41.4-9.5,56.6-10.1,116.9c-0.6,60.4-2.6,168.9-4,195c-0.8,26.3-1.5,125.8-3.4,159.7s-7.5,153.7-9.1,191.6
		s-3.7,120.7-6.4,170.2c-2.6,49.5-9.7,152.8-12.1,194c-2.4,41.1-9,172.9-11.1,212.4c-2.2,39.5-9.9,157.2-12.1,201
		c-2.2,43.8-10.7,205.4-13.4,256.7c-2.6,51.3-9.8,163.7-11.4,193.3s0.2,82.6,2.3,99.9c0,0-10.7-1.4-14.9-2.4c-4.2-1-19-2.6-30.7-3.8
		c-11.8-1-42.2-4.2-64.1-7.2s-72.4-9.6-85.5-10.7c-13.1-1-16.3,0.2-33.9-6.2s-40.3-15-45.7-17.1c-5.4-2.1-20.8-14.4-20.3-26.7
		c0.6-12.3,0-20,0-20s20.4-29.7,32.6-83.1c12.3-53.5,35.8-180.6,39.3-210.6c3.4-29.9,17.4-140.5,21.1-175.8
		c3.8-35.3,18.4-190.5,20.3-217.8c1.8-27.3,2.6-74.8,7.5-119.4s12.3-147.7,17.4-206c5-58.3,17.9-199.6,22.4-250.6
		c4.6-51.1,16.6-146.1,24.8-194.5c8.3-48.4,40.9-195.6,47.3-225c6.4-29.4,30.7-107.4,47.5-161.9c16.8-54.5,25.6-75.9,27.8-81.2
		C1623.6,1783.6,1626.4,1775.5,1626.4,1775.5z"/>
</g>
<g id="left">
	<path class="normal" d="M2547.1,1807.5c0,0,51.9-5.2,62.1-6.2c8.9-0.9,52.8-1.3,56.5,1c0,0,13,44.3,25,86.4
		c12,42.1,60.5,226,76.1,295.8c15.6,69.7,46.1,216.4,52.1,292.1c6,75.7,18,225.6,20.4,262.1c2.4,36.5,21.6,289.3,25.2,329.4
		c3.6,40.1,22,297.8,28.1,350.7c6,52.9,29.3,270.1,48.5,324.6c0,0,8.8,24.8,8.8,35.3c0,10.4,0,12.8,0,12.8s-10.4,4.8-20.4,6.8
		s-42.9,10.4-52.1,13.6s-36.1,10.4-86.6,18c-50.5,7.6-60.1,9.2-83.8,11.6c-23.6,2.4-44.9,4.4-77.3,6.4c-32.5,2-63.4,2.6-88.6,2.6
		c-25.2,0-45.8-2.1-45.8-2.1s-10.7-154.9-3.1-263.5c7.6-108.6,0.6-50.7,4.2-99.2c3.6-48.5,5-201.8,5.5-227.3
		c0.5-25.5,5.6-284.4,6.1-315.2c0.5-30.9,3.7-233.7,4.2-283.4s-2.2-263.5,1.9-312.3c4.2-48.9,14.4-259,17.6-286.3
		c3.2-27.3,17.6-192.1,17.4-208.6C2548.8,1836.2,2547.1,1807.5,2547.1,1807.5z"/>
</g>
<g id="center">
	<path class="normal" d="M2548.2,1805.1c0,0-12.6,1-49.2,0.2c0,0-44,1.8-60.4,2.6c-16.4,0.8-60.4,3.1-69.7,3.6
		c-9.4,0.5-75.3,4.1-117,4.7s-106.3,0.6-149.9-1.2c-43.6-1.8-150.2-10-169.2-12c-19-2-72.1-7.9-91.1-9.9s-74-8.2-98-9.6
		c-24-1.4-44.6-3-44.6-3s-6,24.7-8.5,61.1c0,0-7.6,53.5-6.1,111.7c0,0-1.4,132.6-3.6,189.5c-2.2,56.9-8.2,206.7-9.3,242.5
		c-1.1,35.8-5.5,157.6-8.3,213.4c-2.8,55.9-8.9,171.3-10.4,198.8c-1.5,27.5-7.9,145.1-9.6,175.5c-1.6,30.5-12.9,234.4-14.7,270.4
		s-9,188.4-9.9,208.1c-1,19.7-13.9,228.7-14.9,248.5c-1,19.8-2.9,85.4,1.4,108.2c0,0,5,1.6,8,1.8s45.9,4.6,55.3,6.2
		s39.5,9.1,63.8,10.9c24.3,1.8,81.8,5.6,101.6,8s82.6,8.9,97.6,9.4c15,0.6,90,5.9,103.4,6.7c13.4,0.8,89.6,3.8,112.6,4.6
		s53.1,5.2,70.5,7.1s38.4,0.5,56.6-0.1c18.2-0.6,53.4-5.8,69.1-8.5c15.8-2.6,15.8-2.6,15.8-2.6s12.4-0.9,35.4-1.4
		c23-0.6,57.9,0.2,74.5,0s27.2-2,27.2-2s-2.3-94.4-1.2-147.3c1-52.9,4-140.8,5.6-181.4s5.4-201.2,6.4-221.2s2.2-107.6,3-147.2
		c0.8-39.5,2.2-112.2,3.2-172.1s3-163.5,3.2-202.5c0.2-39,1.8-161.1,1.8-194.8c0-33.7,0.6-155.7,1.4-175s2.2-88.7,4.8-133
		s9.9-175.3,11.8-205.4c1.8-30.2,6.4-92.7,8.8-122.4c2.4-29.7,6.2-102.8,4.6-114.9S2548.2,1805.1,2548.2,1805.1z"/>
</g>
</svg>
