<?xml version="1.0" encoding="utf-8"?>
<!-- Generator: Adobe Illustrator 21.1.0, SVG Export Plug-In . SVG Version: 6.00 Build 0)  -->
<svg version="1.1" id="Layar-1" xmlns="http://www.w3.org/2000/svg" xmlns:xlink="http://www.w3.org/1999/xlink" x="0px" y="0px"
	 viewBox="0 0 4160 6240" style="enable-background:new 0 0 4160 6240;" xml:space="preserve">
<pattern id="normal" patternUnits="userSpaceOnUse" width="270" height="270" patternTransform="">
		<image image-rendering="optimizeQuality" preserveAspectRatio="xMidYMid meet" xlink:href="/images/simulator/default/default_tex.jpg" x="0" y="0" width="270" height="270" style="-ms-interpolation-mode: bicubic;" />
  </pattern>
  <pattern id="left" patternTransform="rotate(23)" patternUnits="userSpaceOnUse" width="270" height="270">
		<image image-rendering="optimizeQuality" preserveAspectRatio="xMidYMid meet" xlink:href="/images/simulator/default/default_tex.jpg" x="0" y="0" width="270" height="270" style="-ms-interpolation-mode: bicubic;" />
  </pattern>
  <pattern id="right" patternTransform="rotate(-23)" patternUnits="userSpaceOnUse" width="270" height="270">
		<image image-rendering="optimizeQuality" preserveAspectRatio="xMidYMid meet" xlink:href="/images/simulator/default/default_tex.jpg" x="0" y="0" width="270" height="270" style="-ms-interpolation-mode: bicubic;" />
  </pattern>
<style type="text/css">
	.normal{fill:url(#normal);}
	.left{fill:url(#left);}
	.right{fill:url(#right);}

</style>
<g id="レイヤー_14">
	<path class="normal" d="M1362.1,495.3c0,0,3.5,2.3,1.2,9.7s-31.5,115.2-37.4,137.7S1285,804.6,1278.8,833s-11.3,45.5-15.2,95.7
		c-3.9,50.2-8.2,133.8-8.6,195.3s4.9,195.6,4.9,195.6s0.7,75.7,0,139.4c-0.7,63.7,2.2,209.1,5.2,284s21.7,418.9,22.5,457.1
		c0.7,38.2,15.7,374.7,15.7,374.7s12.7,152.9,12.7,165.6c0,12.7,1.5,104.9,1.5,136.4s1.5,98.2,6.7,238.3s9,433.9,11.2,520.8
		s5.2,374.7,5.2,374.7s3.7,242,5.2,331.2s2.2,113.2,2.2,115.4s3.7,246.5,3.7,246.5s4.5,204.6,4.5,251.8s5.2,128.9,7.5,186.6
		s9.7,153.6,9.7,153.6s3.9,4.7,5.6,6.3c1.7,1.7,3.7,2.1,3.7,4.5c0,2.5,1.7,8.3,5,11.6c3.3,3.3,7.4,9.1,8.3,13.2
		c0.8,4.1,1.7,11.6,6.2,14.9s17.8,12.4,28.1,16.5s31,7.8,33.4,9.5c2.5,1.7,5.4,2.5,10.7,3.7s7.8,0,14.5,1.7c6.6,1.7,16.1,5.4,20.2,7
		c4.1,1.7,20.2,7.8,27.7,7.8c7.4,0,13.2-2.5,17.8-2.9c4.5-0.4,10.7-1.2,14.5-4.1c3.7-2.9,10.7-4.5,19.4-11.6
		c8.7-7,10.7-9.9,14.9-11.1s8.7-2.1,22.3-6.2s16.5-5.4,25.2-6.2c8.7-0.8,21.5-4.5,28.1-7.4s8.7-4.5,8.7-4.5s7.4,0,10.3-1.2
		s7.4-5.4,12.4-5.4s10.7-0.8,13.2-2.5s5.4-2.1,13.6-3.3c8.3-1.2,16.5-2.9,19.4-8.3s7-34.3,14-91.7c7-57.4,9.9-98.3,12.4-132.9
		c2.5-34.7,11.1-209.7,14-253.1s12-149.1,16.1-211.4s13.6-194.1,15.3-257.6c1.7-63.6,6.2-275,5.8-297.3
		c-0.4-22.3,0.8-80.1,3.3-116.4s22.3-230.8,23.9-254.3c1.7-23.5,14.9-155.2,21.1-218s24.4-237.4,27.7-268
		c3.3-30.6,16.9-158.1,20.2-199.8c3.3-41.7,9.5-172.6,11.6-213.5s7-130.1,8.3-153.2c1.2-23.1,4.5-28.1,5-39.6s2.9-32.6,3.7-43.8
		s10.3-75.6,16.9-121.8s26-181.7,33-217.2s21.1-118.1,24.4-135.4c3.3-17.3,5.4-45.4,5.4-60.7c0-15.3,5-63.6,7.4-87.9
		c2.5-24.4,7.8-66.9,8.3-78.4c0.4-11.6,3.7-45,5.4-59s20.6-145.3,24.4-176.7c3.7-31.4,7-47.5,7.8-57s7-69.8,9.5-81.3
		c2.5-11.6,16.5-83.4,18.6-88.4s0.4-10.3,2.9-14.5c2.5-4.1,0.8-7,2.1-11.6c1.2-4.5,7.8-14,7.8-14s1.7-26.8,0.8-35.5
		c-0.8-8.7-7-22.7-8.3-57c-1.2-34.3-9.1-132.9-9.1-132.9l-10.3-187l-7.8-201.9l-2.9-165.6l-321.2-33c0,0-263.8-34.3-313-44.2
		c-49.1-9.9-98.3-16.1-98.3-16.1L1362.1,495.3z"/>
</g>
<g id="レイヤー_15">
	<path class="normal" d="M2923.3,413.3c0,0,3.3,2.7,8,13.3c4.7,10.7,10,15.3,12,30.7c2,15.3,5.3,32,10.7,56c5.3,24,55.3,274,62,318
		s28.7,176.7,36.7,243.3c8,66.7,16.7,121.3,24.7,198.7c8,77.3,10,108,10,136s-3.3,110.7-4,148.7s-4.7,73.3-6,85.3
		s-26,326.7-26,326.7s-10.7,198-16,267.3s-21.3,278-23.3,322.7s-6.7,272.7-6.7,272.7s-4,103.3-5.3,130.7
		c-1.3,27.3-3.3,191.3-3.3,191.3s-6,199.3-6.7,238.7c-0.7,39.3-11.3,308.7-12,344.7s-4.7,342.7-4.7,342.7s-0.7,358,0,396
		s-0.7,388-0.7,388l2,332c0,0,1.3,97.3,1.3,105.3s0.7,26.4,0.7,26.4l-0.3,5.5c0,0-7.9,2.4-11.6,5.5c-3.8,3.1-21.2,12-23.2,14.3
		c-2,2.4-25.3,7.5-28.4,9.2c-3.1,1.7-22.2,7.9-26.3,10.6s-7.5,4.4-10.9,5.8s-7.5,2.7-10.2,4.4c-2.7,1.7-13.3,6.1-18.8,7.9
		c-5.5,1.7-10.2,1-14,3.8c-3.8,2.7-6.5,5.1-9.9,6.5s-12.3,2.4-12.3,2.4s-17.4,4.1-24.3,4.4c-6.8,0.3-19.1,1-38.3,1
		c-19.1,0-35.9-0.3-42-1s-10.2-1.7-16.1-3.8c-5.8-2-11.6-4.4-17.8-5.1c-6.1-0.7-15.7-2-19.1-4.1s-9.2-3.8-14-6.1
		c-4.8-2.4-13.3-6.5-21.9-7.9c-8.5-1.4-8.9-2.7-14.3-2.7s-14,1-17.8,0s-8.9-2.4-12.6-12.6s-13-31.1-15.4-40s-10.9-21.5-12.3-26
		c-1.4-4.4-3.4-8.5-4.1-16.4c-0.7-7.9,0.7-18.1-1.7-52.3s-8.2-133.2-9.9-195.1c-1.7-61.8-10.2-253.5-10.2-253.5l-12.3-270.2
		c0,0-6.8-154.8-8.2-197.1c-1.4-42.4-4.1-168.1-6.1-229.2s-3.1-90.9-3.1-90.9s-5.5-159.5-7.9-196.1S2466,3591,2466,3591l-12.6-185.5
		c0,0-8.2-126.7-12-182.4s-4.1-57.4-4.1-57.4s-12-162.6-13.7-207.7c-1.7-45.1-10.6-158.5-13.3-187.2s-27-199.5-31.1-225.5
		s-32.5-191.7-33.1-200.2c-0.7-8.5-1.4-19.8-2.4-27s-17.1-87.1-21.9-115.8c-4.8-28.7-16.7-96.7-23.2-124.4s-27-110-31.4-134.9
		s-35.5-178-35.5-178s-34.5-160.2-40.3-180s-41-145.9-43.4-153.1s-3.4-9.2-3.8-10.9s-1.4-3.4-1.7-6.5s0.3-4.4-1.4-7.5
		s-7.9-17.8-8.5-21.5s-0.3-6.8-1-7.9s-1-1.7-3.4-1.4c-2.4,0.3-2.9,1.1-2.9,1.1l7.8-14c0,0,1.6-21.6,0.9-28.1
		c-0.7-6.5,0.3-8.5-2.4-18.4s-6.1-38.3-6.8-54.3c-0.7-16.1-9.6-144.5-9.6-144.5s-8.2-147.6-9.6-169.1c-1.4-21.5-5.8-119.2-6.8-172.9
		s-2-160.6-2.7-170.1c-0.7-9.6-0.5-22.5-0.5-22.5l309.7-28.1c0,0,203.3-40.3,283.6-49.9C2769,495.6,2923.3,413.3,2923.3,413.3z"/>
</g>
<path class="normal" d="M2918,353.9c-3.9-26.8-4.3-35.4-3.1-37s3.5-3.1,3.5-3.1l0.4-54.5c0,0-11.7-17.9-16.3-21.4
	c0,0,1.9,19.5,2.3,25.3c0.4,5.8,3.5,5.4-3.9,11.7c-7.4,6.2-33.5,20.6-65.4,29.6c-31.9,8.9-132.7,35.8-160.3,41.6
	c-27.6,5.8-77.4,16-103.9,20.2c-26.5,4.3-55.6,8.9-67.3,12.1c-11.7,3.1-19.8,5.1-58.4,7c-38.5,1.9-94.2,8.6-95.3,8.6
	s-19.5,3.1-40.1,2.7c-20.6-0.4-93,2.3-101.2,1.9s-87.9,3.5-92.6,3.9c-4.7,0.4-24.5,1.2-24.5,1.2s-75.9,0-98.4-1.2
	c-22.6-1.2-35.8-2.3-35.8-2.3s-5.8,0.8-17.9,0.4s-58.7-2.3-101.5-6.2s-83.3-9.7-128-15.2c-44.7-5.4-95.7-14.4-152.9-24.5
	c-57.2-10.1-142.8-26.1-154.1-29.2c-11.3-3.1-24.5-5.1-27.2-11.7c-2.7-6.6-1.2-17.9-0.4-23c0.8-5.1,0.4-10.1,0.4-12.1s-1.4-2-1.4-2
	s0.7,0.7-2.7,5.3s-15.3,14-16.7,17.3c-1.3,3.3-1.4,26-1.4,28.3c0,2.3,1.2,7,1.2,16c0,8.9,1.2,32.7,0.4,38.1
	c-0.8,5.4-1.9,17.9-1.6,30c0.4,12.1,1.6,22.6,3.1,43.6s3.1,35,4.3,38.5c0.2,0.7,0.6,1.4,1.1,2c1.7,2.2,4.6,3.5,6.7,3.8
	c2.7,0.4,3.9-1.2,46.7,9.3s105.8,21,145.5,28s110.1,15.2,139.7,19.8c29.6,4.7,70.4,8.2,84.4,8.9c14,0.8,21.8-0.4,21.8-0.4
	s9.7,9.7,20.2,12.1c10.5,2.3,62.3,5.8,81.7,6.2c19.5,0.4,95.3,5.8,124.9,8.9s60.7,8.2,65.4,7.8c4.7-0.4-2.7,0.4,17.1-1.2
	s61.9-6.2,90.7-8.9c28.8-2.7,106.6-11.7,151.3-16.7c44.7-5.1,137.7-15.6,156.8-17.1s59.1-8.9,70.8-11.3
	c11.7-2.3,154.9-37,182.1-42.8c27.2-5.8,93.4-23.3,102.3-25.3c8.9-1.9,18.3-3.5,26.5-11.7c8.2-8.2,21-21.4,25.7-29.2
	s6.2-14.4,6.2-14.4S2921.9,380.7,2918,353.9z M1867,524.5c-32.5,0.5-40-27.5-40.5-35c0,0,3-36,36-35.5s39.5,27.5,39.5,34.5
	S1899.5,524,1867,524.5z"/>
<g id="belt-loop">
	<path class="normal" d="M2525.3,384c2.9,5.4,7,9,7,9s3.3,1.3,3,3.7c-0.3,2.3-2,5.3-1,13s3,39,3,50.3s2.7,32.3,3,62.7
		c0.3,30.3,0.7,36.7-0.3,45.3s-2.3,24.3-2.7,31c-0.3,6.7-1,14.7-1.3,16.3c-0.3,1.7-5,8.7-5,8.7l0.7,3.3c0,0,6.3,2,10,0.7
		s9.3-1.3,18.7-2c9.3-0.7,12.3,0.3,16.3-1.7s7-2,7.3-12.3s-1.3-65-1.3-72s-6.7-135-6.7-141.7s-1.3-21.3-4.3-25s-11.7-1-11.7-1
		s-16.7,3.7-20.7,3.3c-4-0.3-9.7-0.7-11,0.3C2527,377,2522.3,378.3,2525.3,384z"/>
	<path class="normal" d="M1677.3,380.7c0,0,23.7,2.3,33.3,3.3c9.7,1,11,0.7,11.3,2.7s1.3,22,0,25.3s-0.3,3.7-2.3,4.7s-7.3,0.7-7.3,0.7
		l-1.3,63l-0.7,77.3c0,0,6-0.3,7,2.7s1.7,2.3,1.7,8s-1,50.3-1,50.3s-0.3,9.3-3,11.3s-8,2.3-11,2.3s-8.7-1.7-14.7-3s-9-1.7-15.7-2.3
		c-6.7-0.7-13.3-1.3-13.3-6.7c0-5.3,3-69.7,4-96s4-106,4-111.7s0.3-11,1-17s1.7-12.7,2.7-13.7S1677.3,380.7,1677.3,380.7z"/>
	<path class="normal" d="M2902,235c0,0,16,8.2,16.5,10s15,28.8,17.2,33.2s11.8,20.2,13.5,33s3.8,33.8,4.2,39.8s2.5,8,2.5,12.2
		s3.2,53,2.8,67.8s0.5,24.8-0.2,28.8s-1,6.2-3,9.5s-6.8,5.5-7,6.2s-1,2.8-1,2.8s-1.8-4.5-2.5-10.2s-4.8-27-4.8-27s6-3.5,4.2-6.5
		s-2.5-6-3-8.5s-0.5-21.5-2-29.5s-0.8-10.2-2-12.2s-2-2.8-2-4.2s-0.2-14.5-1-17s-4.5-12-6.8-17.8s-2.8-9.2-3.5-15.2s-1-10.2-3-12.5
		s-2-2.2-2-2.2l-0.5-55.5c0,0-7.8-13.2-11-16s-5.8-6-5.8-6v-3H2902z"/>
</g>
</svg>
