<?xml version="1.0" encoding="utf-8"?>
<!-- Generator: Adobe Illustrator 21.1.0, SVG Export Plug-In . SVG Version: 6.00 Build 0)  -->
<svg version="1.1" id="Layar1" xmlns="http://www.w3.org/2000/svg" xmlns:xlink="http://www.w3.org/1999/xlink" x="0px" y="0px"
	 viewBox="0 0 4160 6240" style="enable-background:new 0 0 4160 6240;" xml:space="preserve">
<pattern id="normal" patternUnits="userSpaceOnUse" width="270" height="270" patternTransform="">
		<image image-rendering="optimizeQuality" preserveAspectRatio="xMidYMid meet" xlink:href="/images/simulator/default/default_tex.jpg" x="0" y="0" width="270" height="270" style="-ms-interpolation-mode: bicubic;" />
  </pattern>
  <pattern id="left" patternTransform="rotate(23)" patternUnits="userSpaceOnUse" width="270" height="270">
		<image image-rendering="optimizeQuality" preserveAspectRatio="xMidYMid meet" xlink:href="/images/simulator/default/default_tex.jpg" x="0" y="0" width="270" height="270" style="-ms-interpolation-mode: bicubic;" />
  </pattern>
  <pattern id="right" patternTransform="rotate(-23)" patternUnits="userSpaceOnUse" width="270" height="270">
		<image image-rendering="optimizeQuality" preserveAspectRatio="xMidYMid meet" xlink:href="/images/simulator/default/default_tex.jpg" x="0" y="0" width="270" height="270" style="-ms-interpolation-mode: bicubic;" />
  </pattern>
<style type="text/css">
	.normal{fill:url(#normal);}
	.left{fill:url(#left);}
	.right{fill:url(#right);}

</style>
<path id="leg-right_2_" class="normal" d="M1527.5,1736.6c0,0-5.7,44.2-8.8,54.6c-3.1,10.4-26,95.6-27.5,100.3
	c-1.5,4.7-19.7,75.4-21.3,85.2c-1.5,9.9-16.2,73.3-18.2,81.1c-2.1,7.8-12.5,101.9-13,109.7c-0.5,7.9-1.5,89.9-2.6,114.9
	c-1,25,1.5,160.6,2.1,166.8c0.5,6.2,6.8,58.7,7.8,70.2c1,11.5,40,312.9,40.5,316.5c0.5,3.7,22.4,215.2,22.8,231.8
	c0.5,16.6,14,249.5,14.6,251.6c0.6,2.1,6.2,239.1,6.8,245.4s7.8,195.4,8.4,200.6c0.5,5.2,10.3,340.5,10.3,344.6
	s10.9,371.7,10.3,384.1c-0.6,12.5,10.9,267.7,11.5,269.7c0.5,2.1,18.7,350.3,18.7,351.8c0,1.5,9.3,340.5,9.3,359.2
	s2.1,71.2,2.1,71.2s-1,197.5-0.5,199.5c0.5,2.1-4.1,74.8-2.5,77.9s15,11.5,20.9,13.5c5.7,2.1,54,14.6,68,19.7
	c12.9,9,95.5,36.1,104.1,37.9c8.5,1.7,34.7,9.9,42,11c7.3,1,31.7-5.2,46.7-8.4c15-3.1,68.6-21.8,86.3-23.9
	c17.7-2.1,45.7-21.8,48.4-23.4c2.6-1.5,8.4-4.7,17.7-8.4s22.8-13,24.4-18.2c0,0,6.1-13.9,6.7-20.8c0.5-6.8,2.6-105.5,2.6-105.5
	s0.5-112.8,0.5-144s-2.6-135.6-2.6-135.6s-3.1-277.6-2.1-283.8c1-6.2-1-180.3,0-199c1-18.7-1.5-225.5-1.5-225.5l-1.5-402.3
	c0,0-0.5-364.3-0.5-367c0-2.6-2.1-536.3,0-549.8c2.1-13.5,0-149.6,1-159.6c1-9.9,3.1-193.9,3.1-201.7c0-7.8-2.1-226-1.5-230.7
	c0.6-4.7-10.9-84.8,4.7-163.1c0,0,31.2-167.4,32.2-174.6c1-7.3,5.7-56.7,4.1-72.3c-1.6-15.6,6.2-304.1,5.2-345.6
	c-1-41.5,13.5-304.1,13.5-304.1s-345.1-28-371.1-29.7l-220.4,6.2L1527.5,1736.6z"/>
<path id="leg-left_2_" class="normal" d="M2091.4,1759.4c0,0-10.3,117.5-9.9,124.2c0.5,6.8-0.5,114.3-0.5,114.3s-1,186.6-0.5,200.6
	c0.5,14,5.2,101.4,5.7,120.6c0.5,19.2,4.7,69.1,5.2,76.9c0.5,7.8,5.2,34.9,7.8,42.1c2.6,7.3,19.7,123.1,19.7,127.3
	c0,4.1,8.4,62.9,8.8,77.4c0.5,14.6,5.7,106.6,5.7,112.3s6.8,303.5,6.8,303.5s2.1,60.2,3.1,72.7c1,12.5,3.1,66.5,2.6,75.9
	s-2.6,76.9-1.5,79c1,2.1-1,208.9-1,208.9s-5.2,210-5.2,215.7s-3.1,347.1-3.1,347.1s-2.6,420.5-2.6,424.1c0,3.7-2.6,336.8-3.1,343
	c-0.5,6.2-2.6,206.8-2.6,206.8l-4.4,640.4c0,0-3.3,118.4-2.2,120c1,1.5,5.4,28.3,14.3,33c6.6,3.4,55.5,25.3,72.4,37.1
	c8,5.7,18.8,6.6,20.9,7.3c7.8,3.1,36.3,13.5,45.1,15.6c13.4,1.3,56.4,9.1,68.4,11.1c11.4,2.9,25.6,6.3,43.5,5.2
	c22.6-0.6,67.9-17.9,92.6-23.2c20.9-4.4,67-13.8,74.2-13.8s23.3-6.9,29.6-8.5c6.2-1.5,8.8-4.7,9.9-10.3c1-5.7,0.5-11.5,0.5-14
	c0-2.6-2.6-12.5-1-18.2s7.8-106.6,7.8-106.6s23.4-411.7,23.4-418.8c0-7.3,2.6-102.9,3.1-120.6c0.5-17.7-0.5-116.4-0.5-116.4l2.6-212
	c0,0-0.5-77.9-0.5-81.6c0-3.7,1-23.4,0.5-28.6c-0.5-5.2,3.1-274.9,3.1-279.1c0-4.1,0.5-58.7,0.5-58.7s4.1-305.1,4.7-309.7
	c0.5-4.7,4.1-190.7,4.7-200.6c0.5-9.9,9.3-228.2,9.3-228.2s8.4-199.5,9.3-203.7c1-4.1,15-210.5,23.9-278.5l20.3-175.2l37.4-304.1
	c0,0,19.7-188.1,21.3-198.5c1.5-10.3-1-180.8-2.6-226c-1.5-45.2-6.2-127.8-7.3-132c-1-4.1-40.5-197.4-45.7-211.4
	c-5.2-14-43.7-176.7-44.2-180.3c-0.5-3.7,1-9.9,2.1-15.6c1-5.7,1.5-15,1.5-15s-359.2,26.5-401.7,27.1c-42.6,0.5-169.8-1.4-169.8-1.4
	l-1.2,13.7L2091.4,1759.4z"/>
<path id="belt_2_" class="normal" d="M1572.2,1567.4c-0.2,0.1-3.8,1.3-4.9,0.8c-1.4-0.5-1.5-1.8-3.7-2.3c-2.1-0.5-3.9-0.5-5.2,1.4
	c-1.4,1.8-10.2,14.6-10.3,15.8c-0.3,1.4-1.4,2.6-1.8,5.5c-0.5,2.9-0.3,7.8-1,13c-0.8,5.2-5.7,23.4-6,26.2
	c-0.3,2.9-3.3,25.7-3.7,33.5c-0.3,7.8-4.4,34.5-4.9,42.6c-0.5,8-2.1,28-2.3,30.2c0,0,5.7-6,7.5-7.5c1.8-1.5,0.5-2.1,3.9-2.3
	c3.3-0.3,54.6,2.9,55.5,2.9c0.9,0,94.3,4.4,105.5,4.9c11.1,0.5,49.1,2.9,54.4,3.1c5.2,0.3,71.5,4.4,78.7,4.9
	c7.3,0.5,97.3,5.7,107.3,6.2c10.2,0.5,93,7.3,101.4,7.8c8.4,0.5,27.9,3.3,33.8,3.1c6-0.3,18.2,0,20-0.3c1.8-0.3,53.8-3.3,60-3.7
	s61.4-1.8,68.9-1.8s123.7-2.1,123.7-2.1c1-0.3,16.6,0,22-0.3c5.5-0.3,59.5-2.1,62.9-2.3c3.3-0.3,77.9-7.3,86.7-7.5
	s105.3-10.2,110.9-10.7c5.7-0.5,22.4-4.9,26-6c3.7-1,4.4-1.4,5.5-2.9c1-1.5,0.8-19.5,1-21.6c0.3-2.1-0.8-10.9-1.5-14.6
	c-0.8-3.7-5.2-21.6-7-26.5c-1.8-4.9-17.2-48.9-17.2-54.8c0-6-0.5-14.6-1.5-17.7c-1-3.1-1-9.1-1.4-12.5c-0.3-3.3,0.5-5.2-0.5-7.3
	c-1-2.1-3.7-7.8-5.7-8.4c-2.1-0.5-7-1-7-1l0.5,14.8c0,0-17.3,2.6-18.2,2.9c-0.8,0.3-12.7,0-21.8,0s-64.7,3.3-70.4,3.9
	c-5.7,0.5-34.3,1.8-48.5,3.1c-14.3,1.4-39.2,2.6-55.1,4.7c-15.9,2.1-46.7,2.6-52.2,2.6c-5.5,0-31.2,1-35.1,1
	c-3.9,0-110.9,1.5-118.5,2.1c-7.6,0.6-20.3,1.8-24.4,2.1c-4.1,0.3-18.7-0.3-22.8,0.3c-4.1,0.5-18.7-0.8-24.7-0.8s-12.7-0.3-16.9,0
	c-4.1,0.3-5.5-0.3-6,1c-0.5,1.4-2.9,0.5-5.2,0.8c-2.3,0.3-39.6-1.5-41.1-1.8c-1.5-0.3-99.6-7-102.6-6.8c-3.1,0.3-64.7-3.3-70.7-3.7
	c-6-0.3-45-1.5-45-1.5s-22.6-2.7-36.8-4.5c-5.4-0.7-9.5-1.3-10.7-1.5c-4.4-0.8-47.5-6.2-53.6-6.5c-6.1-0.3-56.1-1-61.8-1
	c-5.7,0-57.9-1.5-68.9-1.4s-32.2,1-34.3,1.5C1575.3,1567.4,1572.2,1567.4,1572.2,1567.4z"/>
<path id="belt-loop2_2_" class="normal" d="M1806.6,1576c0,0-15.4,76.1-19.5,128.9c0,0-5.2,86.7-4.7,90.7l41.9,6.5
	c0,0,4.9-93,5.5-101.4c0.5-8.4,10.3-115.4,16.6-122.6c0,0-11.5-0.8-12.2-0.5c-0.8,0.3-15.6-1.4-18.2-1.4
	C1813.3,1576.2,1806.6,1576,1806.6,1576z"/>
<path id="belt-loop1_2_" class="normal" d="M2354.7,1586.9c0,0,2.1,0.3,3.7,4.4c1.5,4.2,20.3,143.2,20.9,146.8c0.5,3.7,0.5,9.9,0.5,9.9
	l-13,1.8l13.2,68l1.8,1.4c0,0,26.2,0.3,30.2,0c3.9-0.3,7-1.5,7-1.5s1.4-6.2,1.5-8.4s-1.8-58.2-2.9-60.8
	c-1-2.6-14.8-147.3-22.4-162.1L2354.7,1586.9z"/>
</svg>
