<?xml version="1.0" encoding="utf-8"?>
<!-- Generator: Adobe Illustrator 21.1.0, SVG Export Plug-In . SVG Version: 6.00 Build 0)  -->
<svg version="1.1" id="Layar1" xmlns="http://www.w3.org/2000/svg" xmlns:xlink="http://www.w3.org/1999/xlink" x="0px" y="0px"
	 viewBox="0 0 4160 6240" style="enable-background:new 0 0 4160 6240;" xml:space="preserve">
<style type="text/css">
	.st0{fill:#D4D8D8;}
	.st1{fill:#B5BCBC;}
	.st2{fill:#B6B7B7;}
	.st3{fill:#858E8E;}
	.st4{fill:#C4CECE;}
	.st5{fill:#D0D6D6;}
	.st6{fill:#A0A3A3;}
	.st7{fill:#BABFBF;}
</style>
<path id="pants" class="st0" d="M1590,3819l2,8l3,103l13,491l15,550l9,554l4,84c0,0-0.5,10,0.5,15s5,33,6.5,38s15.5,53,16,57
	s3,29,3.5,32s3.5,6,5,8s16.5,23,18,25s1,5.5,5.5,6.5s6.5,2,11.5,3s21.5,1.5,25.5,1s21.5-3.5,28.5-3.5s98-2,98-2
	c7.5-1,25-8,31.5-11.5s16.5-17.5,19-21s6-16.5,7.5-23.5s9.5-36,13.5-45s5.5-14.5,5.5-16.5s7-95,7-95l19-253l14-198
	c0,0,12.5-196,13.5-211s5-120.5,5-120.5s10-172.5,12-195s5.5-107,5.5-107l4.5-67c0,0,7.5-171.5,8-177s10-113,11-122
	s9-109.5,10.5-124.5s3.5-49,4.5-53.5s14-100.5,16.5-108.5S2082,3707,2082,3707l55.5,0.5c0,0,7-1,7.5,2.5s12,64.5,13.5,70
	s33.5,187.5,33.5,187.5s25.5,174.5,27,178s16.5,132.5,18,142s17.5,233.5,20,257s15.5,211.5,16,213.5s15,165.5,15,165.5l12.5,197
	c0,0,9,138,9,139.5s11,190.5,11,190.5s13,129,13,131s10,128,10,131.5s4.5,52,5.5,56.5s4,13,6,17.5s8,11,8,11s1.5,0,4.5,1.5
	s8,3.5,10.5,3.5s18.5-2,24.5-2s38-0.5,41.5,0s10.5-2,38,9c0,0,9.5,3,19.5,3s39.5-4,48.5-5.5s11-3,14-5s14.5-10.5,16.5-12.5
	s23.5-15,30.5-18s18.5-5,18.5-10s0-87,0-87s4-135,5.5-185.5l-4-145c0,0,0-121.5,0-123s1.5-167.5,1.5-167.5l2-283.5l0.5-189
	l1.5-249.5c0,0,1-268,1.5-270.5s1-97.5,1.5-101s-1.5-35-1.5-39s-1-24-1-24s3-7,2.5-18s-1.5-74.8-1.5-74.8s-3.5,2.5-5.5,4.5
	s-11.3,0.5-14.5,0.2c-3.3-0.3-18.6-12.4-20.3-16.7c-1.5-3.7-7.8-21.1-7.8-21.1s-7.3-0.5-14.3-2.5s-12.2-8.3-16.2-10.8
	s-7.1-10-7.1-10l-7.2-11l-15.3,7.4l-21.3,4.3l-10.7-7.3l1.3-20.3l6-34.7l8-35.3l-54.9-577.7h-793.5l27,495
	c-0.6-5.8,29.3,54.5,34.5,85.5c1.6,9.4,25.2,70.8,17.7,69.3s-8.3,19.3-8.3,19.3s3.6,17.3-0.5,23c-3.6,4.9-14,0.6-13.3,2.7
	c0.7,2-8.1,0.6-15.7-4c-9.2-5.7-18.7-17.7-18.7-17.7l-0.5,28.2l-22.7,12l-16.2-1.8l-5.8,17.3l-14.3,7.8l-16.2-0.5l-21.5,9.7
	L1590,3819z"/>
<path id="body-right" class="st0" d="M2075.7,2992.3c-17.6,0-34.4-11.8-35.3-29.3c-1-19.3,9.3-34,31.2-32c10,0.9,19,5.5,24.8,12.4
	L2068,2589c0,0-2-247,1-259s10-130,10-130l7-44l-114-258l-91-323l-8-5c0,0-41.6,39.2-44.9,41.1s-53.8,20.2-53.8,20.2
	s-24,11.3-28.3,12.7c-4.3,1.3-45.7,17.7-54.7,20s-49.7,18.3-54,20.3s-107.3,29.7-110,30.3c-2.7,0.7-71.3,21-75.7,26
	c-4.3,5,24,54.7,24,54.7l33,143l58.7,456.7l9.7,12c0,0,9.7,9.7,13,18.7s18.3,50,23.7,89c0,0,11,84.3,10,127.7c0,0-1,114.3-3.7,129.7
	c0,0-8.7,116.3-9.7,121s-9,29-11.3,43.7c0,0-1,28.7-13,42.7l-11.3,7.3l25,261.7l47,123l8.3,13.7c0,0,4,9.7,4.7,12.3
	c0.7,2.7,1.3,8.3,1.3,9.7s-1.3,4.7-1.3,4.7s-2.7,3.7-4.7,5s-58.3,30-58.3,30l40,48.3c0,0,39,45,54,75.7c0,0,18,29.3,19,32.3
	s4.3,16.3,6,22s20.7,88,19,111.7v5.7h1.7l3-0.3c0,0,58,22.3,59.7,23.3s66,19.3,93.7-17l25.7-34l37.7-69.3l33-71.3l11-27.7l23.3-64.7
	c0,0,2.7-12,10.7-32.3c0,0,17.3-64,17.7-65.7c0.3-1.7,12.7-53.3,12.7-53.3s13-66.7,13.3-69s11-82,11-82l7.7-45.7
	c0,0,5.7-23.3,6-29.7c0.3-6.3,0.7-76.7,0.7-76.7l-3.8-47.1C2094.7,2987.7,2086.7,2992.3,2075.7,2992.3z"/>
<path id="body-left" class="st1" d="M2713.5,1737.8c-2-2.7-27.3-9.7-35.3-11.7s-80.3-23-82.7-24.3c-2.4-1.3-71.3-25.7-76.3-28.3
	c-5-2.7-34-11.7-34-11.7s-32.3-10.3-40.3-13.3s-34-9.3-39.3-10.7c-5.3-1.4-51.7-14.7-51.7-14.7s-5.7-1.3-9.3-2.3s-31-18.7-33-21
	c-2-2.3-19.7-2.3-19.7-2.3s-46,94-47.3,96s-60.7,223.7-66.3,231.3c-5.7,7.7-66,183.7-69.7,189c-3.7,5.3-37.7,124.3-42.3,134.3
	c-4.7,10-13,60.7-13,60.7l-0.2,93.8l0.8,89.2l2.2,105.2l4.5,82.8l4,68.5l4.2,72l6.2,89.5l4.8,76.8l6.8,87.5c0,0,6.8,78.5,7,80.2
	s11.3,88.1,11.3,92.6s66.1,316.9,67.7,326.2c1.7,9.3,30.3,87.3,33,95.7c2.7,8.3,14.3,27.7,21,40s31,34.7,31,34.7
	c31.7,36.3,58.7,38.3,65.3,40.7c6.7,2.3,24.3,1.7,29.7,1.7s16-1.7,24-2.3s46.3-6,55.3-6s15.7,1.3,15.7,1.3s6.2-3,15.7-7
	s25.5-5.5,30-6.5s58-7.2,58-7.2l5-1.2l-3.8-3.7l-8.5-14c0,0-21.3,9.5-24.2,9.2c-1.8-0.2-10,0.3-14-0.2s-5.8-2.3-7.3-4.3
	s-0.7-5.2-0.7-6.7s1.5-11.5,2-15.5s9-47,10-54s8.5-45.5,8.5-49s1.5-7.5,2-9.5s17.5-41,19.5-42.5s3.5-11,3.5-11l-0.5-2.5c0,0,0-2,0-4
	s2.5-4,4-6.5s6-10.5,7.5-14.5s4.5-12,5.5-13.5s33-42.5,33-42.5l24.8-29.2c0,0-53-20.2-54.3-29.8c-1.5-11-8.3-16.4,20.3-35.5
	c16-10.7,22.5-17.2,23.2-18.5c1.5-3,20-223,20-224.5s0-136.5,0-136.5s-7.5-8-13.5-16.5s-6.5-12.5-8-17s-6.5-74.5-6.5-74.5
	s-3.5-32.5-4.5-36.5s-9-40.5-9-40.5c-7-23-10-66.5-13-86.5s-3-143-2.5-152.5s5-68.5,5.5-72.5s7.5-73,8-77.5s8.5-25.5,9-27.5
	s3.5-12,5-15.5s13.5-12.5,15.5-16s11.5-245.5,11.5-245.5l57.5-264.5l35.5-99l1.3-10.5C2718.5,1745.8,2715.5,1740.5,2713.5,1737.8z
	 M2105.5,2263.4c11.1,0,20.9,5.7,26.4,14.2h-0.3c0,0,10.3,17.8-1.4,34.2l0.8,0.1c-5.7,7.7-15,12.7-25.5,12.7
	c-17.4-0.1-31.9-10.9-31.5-30.7C2074.5,2277.1,2088.2,2263.4,2105.5,2263.4z M2073.2,2627.2c-0.1-17.2,14.6-31.4,30.1-30.1
	c11.4,1,21.5,4.5,26.6,13.8l-0.3,0.3c0,0,7.5,13,0.7,28.8c-0.2,0.4-0.3,0.8-0.4,1.2c-5,9.6-15,16.2-26.6,16.2
	C2086.7,2657.3,2073.3,2647.3,2073.2,2627.2z M2348.7,1783.8c0-0.7,2.3-3.7,4.5-3.3l30,17.7L2348.7,1783.8z"/>
<path id="arm-right" class="st2" d="M1456.5,1741c-0.8-0.2-8.5-4-11.2-3.2s-13.2,6.2-14.5,8s-9,16.8-9.2,22.5s-0.5,44.2-1.5,47.8
	s-7.2,20.2-9,25s-7.3,19.3-8.7,23.3c-1.3,4-5.3,20-4.7,26.7c0.7,6.7,0,22.7,0,28s1.3,10-3.3,20.7c-4.7,10.7-27.3,111.3-27.3,111.3
	s-12.7,68-12.7,72s-4,48.7-5.3,56s-11,69.5-11.5,73.5s-3.5,57.5-6,65s-16.5,102.5-17,113s-10,141.5-10.5,152.5s-4,139.5-3.5,150
	s8.5,161.5,9,172.5s18.5,187,18.5,187s11.5,120,12.5,125.5s6,50,8,61.5s26,137.5,26.5,141.5s0,14.5,1.5,17s15.5,14.5,15.5,14.5
	l-2-26l-0.5-2c0,0,11-11.5,13-13.5s38.5-19,65.5-25c0,0,38.5-9.5,44-10s31.5-7.5,42-7.5s34.5-6.5,36.5-6.5s55-0.5,63,20l3.5,5
	c0,0,4-7.5,4.5-9.5s3.5-6,2.5-8.5s-3-5-4-7.5s-12.5-14.5-22-55.5s-15-69-16-77.5s-23-162.5-23-164s-10-62.5-10.5-68.5
	s-3-39.5-3-41.5s-3.5-74.5-3.5-74.5s-2.5-46.5-3-48s-4.5-88-4.5-88l-1-69c0,0-2.5-77.5-2-81.5s2.5-35.5,2.9-37.5s1.1-26.9,1.1-26.9
	l1.9-17.9l1.4-34l-1.8-72.5c0,0,1.5-32,1.8-35.8s2.2-57.2,2.2-57.2l2.5-56.8l0.8-40.2c0,0,0.8-42.8,0.8-44.5s-1.5-52.8-11-90.2
	l-25-99.8c0,0-22.8-80.2-27-92l-29.5-84.8c0,0-14.2-34-15-36s-7.5-12.8-10-15S1456.5,1741,1456.5,1741z"/>
<path id="collar-right" class="st3" d="M2271.3,1549.3c-1.7-0.7-2-3-3.3-2.3s-4.3,0-4.3,2.3s2.3,18.3,0.3,24.7s-6.7,21.3-7.3,23
	c-0.7,1.7-3.3,4.7-3.3,4.7s21.7,31.7,29.3,36.3c7.7,4.7,121.7,89,121.7,89l3-7.4c0,0,15.1-9.2,29.2-13.5l25-8.9
	c0,0-11.1-10.6-13.6-12.2s-7.2-5-11.8-9.8s-15.8-17.1-24.5-23.2c0,0-29.6-20.2-47.1-25.9c0,0-29.9-10-43.2-23.8
	c0,0-19.2-18.9-30.1-24c0,0-13.2-16.6-15.4-21S2271.3,1549.3,2271.3,1549.3z"/>
<path id="lapel-left" class="st4" d="M1906.7,1583.8c0,0,26.3,60.2,30.3,69.7s19,46.5,23,60.5s34,127,37.5,137s27,91,29,96.5
	s8.8,19,10.2,23.5s23.2,73.5,23.2,73.5s20.8,65.2,21.2,66.8s16.5,37.8,16.5,37.8l3.2,3l-19.8,77.2l-10-10.8L1955.8,2093
	c0,0-91.4-106-95.1-110.7s-45.7-57-45.7-57l-50-61.3c0,0-54-65.5-55.5-68s-24-29-24-29s-4.5-9,1.8-12.8c0,0,43.8-26,49-29.2
	s34.2-23.2,38.8-26.8s44.8-38.8,47.5-40.8s38.2-33.8,38.2-33.8s8.8-9,10.2-10.8s24.2-28.2,24.2-28.2S1901.8,1580.7,1906.7,1583.8z"
	/>
<path id="collar-right_1_" class="st5" d="M1895,1525c0,0,5,40.3,7,47.7c2,7.3,4.7,13.3,4.7,13.3s-45.3,44.3-51.3,50.3
	s-83.7,72.7-83.7,72.7l-7-5c0,0-22.3-13-25-14.3s-16.2-7.2-18.8-8c-2.7-0.8-7.8-1.5-10-3.7s-2.5-3.2-2.5-3.2s1-1.7,2.3-2.3
	c1.3-0.7,30.2-19.2,31.8-21s27.2-19,37.2-23.3s42.2-20.3,45.2-22.8s28.9-28.7,31.7-31s13.8-14.4,17.6-20.8S1886,1531.9,1895,1525z"
	/>
<path id="arm-left" class="st6" d="M2714.7,1739c0,0,9.7-1.7,13.3,0.3s12,9.3,14.3,12.7c2.3,3.3,9,14.7,8.7,17s0.7,17,1.3,21
	c0.7,4,3.3,12.3,5.3,17s5.3,16,6.3,19s7.3,30.3,9.3,36s15,43.3,15.3,46.7c0.3,3.3-0.3,3,0,11s-0.3,10.7,0.3,14.7s17,52,18,56.3
	s8.7,33.7,9.3,36c0.7,2.3,13.7,68,15,71.7s8.3,50.7,9,55.3c0.7,4.7,11,57.3,11,60.3s6.3,62,7,64.3s13.7,98,13.7,99.3s0.7,24,1,26
	s3.8,39.5,3.8,39.5s7.7,82.8,8.2,91.8s7,102,9,118.5s1.5,47.5,2,51.5s-0.5,143.5-0.5,148.5s-2,92-2.5,98.5s-9,69-9,69l-6.5,108
	c0,0-3.5,60.5-4,68.5c0,0-2.5,16.8-2.8,23.5s-1.7,14.3-2.3,19.7c-0.7,5.3-3.3,21-3.7,27c-0.3,6-0.3,11-0.3,12.7s0.7,1,0.7,3.7
	s0.3,3.7-1,6.3c-1.3,2.7-2,2.3-2.3,5s-0.7,21-0.7,31.3s-5.3,61.3-5.3,67.7c0,6.3-1,32.3-1.7,34.7s0.3,2-3,5.7s-4.3,13.7-4.7,17
	c-0.3,3.3-2,9.3-3,10.3s-1.7,3.3-3.7,0s-7.3-6-7.3-17.7s1.7-26,1.7-26s-49.7-25.7-92.7-30c0,0-18.3-5-20.7-5c-2.3,0-16,0-22-1
	s-14.3-3.3-23.7-4.3s-18.3-3.3-25.7-3.3c-7.3,0-58.7-0.3-71.7,6.7c0,0-9.7,5-10.7,7.7s-2.7,15.3-3,16.7c-0.3,1.3-1,4.3-1,4.3l-6-9
	c0,0,11.5-55,13-65.5s22-134.5,22-134.5l24.5-221c0,0,2.5-64,3.5-80s-0.5-42.5-0.5-42.5l2-48.5l1-133.5c0,0-1-132-1-134s1-4-0.5-9
	s-5-20.5-7-29s-12-117-12-119s0-7,0-7l-1-198l16.5-124c0,0,22-114,29-139.5l37-108.5L2714.7,1739z"/>
<path id="lapel-left_1_" class="st7" d="M2478.8,1777.8c-0.2-2.5-1.8-3.2-4-5.8s-45.8-34-45.8-34l-82-59.3c0,0-37.3-28.7-39.5-30.5
	s-28.7-28-31.3-30.7c-2.7-2.7-14.8-13.3-15.8-14s-5.3-2.5-5.3-2.5l-2.7-1c0,0-21,66.7-21.7,69.3c-0.7,2.7-9.7,35-11,37.3
	s-18.3,82.3-18.3,82.3s-17,74.3-18,77.3s-2.7,10-5.7,17s-10.7,23-12.7,27s-10.3,29.3-11.7,34.3c-1.3,5-4.3,15-5.7,21.3
	c-1.3,6.3-1.7,14.7-1.7,18.3c0,3.7-7.7,25.7-9.3,29.3c-1.7,3.7-22,66.7-23.3,71s-9.7,31.7-11.7,36.3s-14.3,55-17.7,64.7
	c-3.3,9.7-25,80-26,88s-2.3,51.3-2.3,51.3s6.7-28.3,8.3-33s11.3-30.3,11.3-30.3c4.3-7.7,28.3-44,34.3-51.3s44.7-58,53.3-65.3
	s88-96,92.8-100.5s28.2-32.5,33-37.5s44.5-51,45.5-52.5s45.8-54.5,47.2-56.8s29.2-36.2,31.2-39.2s29.8-35.5,32-37.8
	s17.2-20.5,17.2-20.5s15-18,16.5-18.8S2479,1780.2,2478.8,1777.8z M2400.3,1809.5c-0.8,1.3-1.2,1.5-1.8,2.5s-1.7,1.5-1.7,1.5l-6.7-3
	c0,0-36-24-37-24.5s-3.7-2.3-3.7-3s2.3-3.7,4.5-3.3l30,17.7l15.8,10C2399.8,1807.3,2401.2,1808.2,2400.3,1809.5z"/>
</svg>
