<?xml version="1.0" encoding="utf-8"?>
<!-- Generator: Adobe Illustrator 21.1.0, SVG Export Plug-In . SVG Version: 6.00 Build 0)  -->
<svg version="1.1" id="Layar1" xmlns="http://www.w3.org/2000/svg" xmlns:xlink="http://www.w3.org/1999/xlink" x="0px" y="0px"
	 viewBox="0 0 4160 6240" style="enable-background:new 0 0 4160 6240;" xml:space="preserve">
<pattern id="normal" patternUnits="userSpaceOnUse" width="270" height="270" patternTransform="">
		<image image-rendering="optimizeQuality" preserveAspectRatio="xMidYMid meet" xlink:href="/images/simulator/default/default_tex.jpg" x="0" y="0" width="270" height="270" style="-ms-interpolation-mode: bicubic;" />
  </pattern>
  <pattern id="left" patternTransform="rotate(23)" patternUnits="userSpaceOnUse" width="270" height="270">
		<image image-rendering="optimizeQuality" preserveAspectRatio="xMidYMid meet" xlink:href="/images/simulator/default/default_tex.jpg" x="0" y="0" width="270" height="270" style="-ms-interpolation-mode: bicubic;" />
  </pattern>
  <pattern id="right" patternTransform="rotate(-23)" patternUnits="userSpaceOnUse" width="270" height="270">
		<image image-rendering="optimizeQuality" preserveAspectRatio="xMidYMid meet" xlink:href="/images/simulator/default/default_tex.jpg" x="0" y="0" width="270" height="270" style="-ms-interpolation-mode: bicubic;" />
  </pattern>
<style type="text/css">
	.normal{fill:url(#normal);}
	.left{fill:url(#left);}
	.right{fill:url(#right);}

</style>
<path id="leg-right" class="normal" d="M1515.8,1828.1c0,0-23.7,117.7-24.7,121.4c-1,3.7-41,233.4-42,242.8c-1,9.5-26.3,228-26.8,234.9
	c-0.6,6.9-8.9,93.5-9.5,100.9c-0.6,7.3-10,211.8-10.5,216.6c-0.6,4.7-4.7,85.6-4.2,96.8c0.6,11,19.9,185,20.5,189.8
	c0.6,4.7,10.5,95.7,11,107.2c0.6,11.6,29.4,282.2,29.9,293.2c0.6,11,12.6,125.1,12,148.7c-0.6,23.7-3.1,178.7-3.7,180.3
	s-7.3,551.8-7.3,563.8s-2.1,143.5-2.6,150.3c-0.6,6.9-6.3,287.5-6.3,289.1s-2.1,273.3-3.1,278s-3.1,79.9-2.6,88.9
	c0.6,9,1.6,190.8,1,198.7c-0.6,7.9-3.7,211.8-3.7,219.1c0,7.3-0.6,76.7-0.6,83s6.5,33.1,9.2,38.8c2.6,5.8,4.7,9.5,7.3,11
	c2.6,1.6,5.3,2.1,8.9,2.1c3.7,0,16.3,1,19.5,3.1c3.1,2.1,4.2,5.3,14.8,7.9c10.5,2.6,21.5,1.6,27.8,4.7s21,7.3,29.4,7.9
	s27.2,3.6,29.4,3.9c2.2,0.4,5,1,8.1,0.6s35.6-4.5,42.6-5c7-0.6,57.4-1.3,74.7,1.5c1.2,0.2,16.5-0.8,19.6-0.8c0,0,30.4,0.8,41,0.6
	c10.6-0.2,39.3-1.2,41.8-1.6s9.8-3.1,11.7-5.3c1.8-2.2,3.6-9.3,3.8-12.2c0.3-2.9-3.9-42.7-3.8-46.5c0.2-3.8,3.1-37.1,3-40.2
	c-0.2-3.1,2.4-35.6,2.8-41.4s4.9-63.9,4.9-65.5c0-1.7,2.8-38.7,2.8-39.3s3.6-35.4,3.9-40.9c0.4-5.3,5.1-70.8,5.3-74.5
	c0.3-3.7,5.1-61.9,5.1-66.1s5.3-62.2,5.7-70c0,0,4.7-64.3,5.3-72.5c0.6-8.3,5.9-76.7,6.3-81.1c0.3-4.4,3.6-39.4,3.9-46.1
	c0.4-6.7,4.6-47.9,4.9-51.6s3.9-45.7,4.3-49.9c0.4-4.1,4.7-53.2,5.3-58.9c0.6-5.8,1.6-19.8,1.7-23c0.2-3.1,2.4-29,3.1-34.5
	c0.8-5.5,2.4-26.8,2.8-31.4s0.9-18.3,2-23c1-4.7,1.4-19.1,1.7-23.5c0.3-4.4,1.7-19.1,2.2-21.5s2-22.7,2.4-26s2.2-24.1,2.5-28.6
	s1.4-27.5,1.7-29.6c0.3-2.1,4.6-44,4.7-48.8s0.9-21.3,2-24.8c1-3.6,4.6-44.5,4.6-47.1s3.1-36.4,3.6-41.4c0.4-5,5.3-61.5,5.5-65.3
	s4.1-44.8,4.7-50.5s3.9-56,4.9-63.3c0.9-7.3,4.6-50.6,4.6-52.1s4.6-52.8,4.9-56.1c0.3-3.3,2.4-31.4,3-34.1s3.9-35.9,3.8-38.7
	c-0.2-2.8,2.5-41.4,3.1-44.8c0.6-3.4,2-15.1,2.8-21.7c0.8-6.5,1.7-31.5,2-33.9c0,0,4.9-66.2,6.2-71.6c1.3-5.3,8.3-73.3,8.8-78.7
	c0.6-5.3,7.3-61.9,7.9-66.8c0.6-5,5.3-48.8,6.3-53c0.9-4.1,5.5-36.1,5.7-39.5s2-20,2.3-22.7s2.5-19,2.8-20.7s2-11.4,1.7-12.6
	c-0.3-1.1,16.4-165.9,18-178.6c1.6-12.6,74.1-586.5,77.3-614.9s20.5-134,20.5-134l6.3-18.9l34.7-78.9l18.9-621.1
	c0,0-269.6,7.9-294.8,0c-25.2-7.9-252.3-94.6-294.8-110.3C1551.5,1843.4,1515.8,1828.1,1515.8,1828.1z"/>
<path id="leg-left" class="normal" d="M2757.6,1831.5c0,0,4.5,9.2,5,13.1c0.6,3.9,0.6,5,0.8,10c0.3,5,2.9,15.5,2.9,16.8
	c0,1.4,15.5,63.9,16.3,67.2c0.8,3.4,11.3,48.1,11.8,55.5c0.6,7.3,7.1,41.2,7.1,43.9s17.6,115.1,18.4,121.4c0.8,6.3,11,71.7,12.6,82
	s8.6,116.7,10.3,129.3c1.6,12.6,12.6,193.2,12.6,201.8s7.9,91.4,7.1,102.4s-3.1,161.6-3.9,167.9c-0.8,6.3-11.8,234.9-12.6,242
	s-44.9,551-45.7,557.3s-4.7,85.1-4.7,94.6s4.7,278.3,4.7,285.3s10.3,290.1,11,298.7c0.8,8.6,7.1,301.1,6.3,311.4
	s-3.9,264.1-3.9,275.1s-5.5,305.1-7.9,316.1s-32.3,307.4-33.1,314.5s-7.1,93.8-7.9,98.1s-3.6,26.4-4.7,30.8
	c-1.2,4.3-8.6,22.5-10.2,26.4c-1.6,3.9-4.7,8.3-8.6,9.8c-3.9,1.6-9.8,2.4-13,2.8c-3.1,0.4-4.7,0.8-7.1,2.4
	c-2.4,1.6-11.1,5.5-11.1,5.5l-2.4-2c0,0-38.7,9.8-43.8,9.5s-24.4,0.8-32.3,0.8c-7.9,0-24.8-3.6-29.6-4.3c-4.7-0.8-57.9,3.6-63.1,3.9
	c0,0-24.1-2.8-29.9-3.1c-5.9-0.4-31.1-3.9-34.3-4.7c-3.1-0.8-27.5-11.8-29.1-13.8s-0.4-4.3-6.3-9.8c-5.9-5.5-47.4-44.9-47.7-47.3
	c-0.4-2.4,1.6-34.7,0.4-52.8s-4.3-86.3-4.7-91.4s-9.1-130.4-9.5-138c-0.4-7.5-5.5-111.5-5.9-114.7c-0.4-3.1-8.3-101.7-8.6-110.7
	c-0.4-9.1-7.5-124.9-8.3-130.8s-8.3-123.4-8.3-128.5s-7.9-104.5-7.9-113.9s-2.8-52.8-3.1-59.5c-0.4-6.7-0.4-75.3-0.4-78.4
	s-2.4-223.4-2.8-227.8c-0.4-4.4-1.6-154.5-2.4-161.2c-0.8-6.7-0.4-71-0.8-72.9s-3.1-199.4-3.1-200.6c0-1.2-0.4-85.1-0.8-88.7
	c-0.4-3.6-1.6-47.3-2-50.9c-0.4-3.6-4.3-70.1-5.5-74.9c-1.2-4.7-7.9-80.8-8.6-85.1c-0.8-4.3-8.3-69.4-9.1-74.1
	c-0.8-4.7-12.6-79.2-12.6-83.5s-13.4-86.7-16.2-94.2s-15-61.5-17-69.8s-19.3-97.3-20.5-101.7c-1.2-4.3-17.7-70.1-18.9-73.7
	l-21.7-101.3c0,0-22-102.1-22-103.3s-15-66.7-15.3-69.4s-9.1-43-9.8-48.8c-0.8-5.9-11.4-91.8-11.4-95s-0.8-41.4-2-48.5
	s-2.4-20.1-2.4-20.1l-0.4-6.7c0,0-5.1-13.4-6.3-16.5s-11.4-33.1-11.8-39.8c-0.3-6.7-6.7-33.1-5.1-39.8s-5.1-79.2-5.1-80.4
	s-3.1-54.4-3.1-54.4s-2.4-78-2.4-81.6s-0.4-45.4-0.4-47.7s0.8-131.3,2-133.6c1.2-2.4,10.3-124.9,11-127.7s5.5-80.8,5.5-80.8
	s323.6-5.5,337.7-12.2C2451.7,1957.3,2712.6,1895.4,2757.6,1831.5z"/>
<path id="belt" class="normal" d="M2766,1807.6c0.6-4.7-2.6-27.8-3.1-34.7c-0.6-6.9-11.6-66.7-12.6-70.4c-1-3.7-5.3-15.8-6.9-17.9
	c-1.6-2.1-10-19.5-19.5-12c0,0-6.3,14.8-1,34.2c0,0-12.6,13.7-17.4,17.4s-22,25.2-32.1,29.9c-10,4.7-52.1,26.8-56.7,28.9
	c-4.7,2.1-87.3,36.3-95.1,39.4c-7.9,3.1-15.2,9.5-31.5,11c-16.3,1.6-39.9,7.9-47.3,8.4c-7.3,0.6-18.9,2.6-22.6,3.1
	c0,0-52.6,6.9-62.5,6.9c-10,0-56.2,0.6-68.9,0.6s-43.1,0.6-54.2,3.7c-11.1,3.1-68.9,14.8-78.9,15.2c0,0-13.1,0-24.7,0
	c-11.6,0-127.1-8.9-136.6-8.9s-42-1.6-46.3-3.7c-4.2-2.1-121.4-32.1-127.1-33.1c-5.8-1-64.6-23.7-78.9-27.8
	c-14.2-4.2-51.5-26.3-63.1-32.6c-11.6-6.3-87.8-44.7-95.1-47.8c-7.4-3.1-25.2-18.4-32.6-28.4c0,0-11.6-11.6-15.2-11
	c0,0-3.1-0.6-4.2,3.1s-2.6,30.5-3.1,41.6c-0.6,11-4.7,21.5-5.3,26.8c-0.6,5.3-3.1,37.3-3.7,43.6s-3.1,24.2-2.6,28.9
	c0.6,4.7-4.2,2.1,2.6,7.9c6.9,5.8,37.8,30.5,43.6,34.2c5.8,3.6,83.8,44.7,85.1,45.5c1.4,0.8,86.5,31.8,94.4,34.7
	c0,0,86.5,21.9,91.2,22.9s33.1,5.8,33.1,5.8s-3.1,12.6,10,15.8s97.8,9.5,105.1,10c7.3,0.6,94,11.6,100.3,12
	c6.3,0.5,27.4,2.6,27.4,2.6s45.7-1.6,53.1-1.6c7.3,0,49.4-4.2,65.2-4.2s95.7-10.5,97.2-11c1.6-0.6,105.7-10.5,116.1-13.1
	c10.5-2.6,72.5-16.3,83.5-21c0,0,77.3-29.4,79.9-30.5c2.6-1,41.6-15.8,43.1-16.8c1.6-1,54.6-27.4,59.4-33.7
	c4.7-6.3,40.4-30.5,42.6-33.1c2.1-2.6,7.3-11,7.3-11l5.8,23.1l3.1-6.9C2766.5,1853.4,2765.4,1812.3,2766,1807.6z M1929.8,1956.3
	c-15.4,0-26.6-8.7-26.6-24.2c0-15.4,10.1-25.2,25.6-25.3c6.6-0.1,10.5,1.8,15.4,5.1l0,0c0,0,16.2,9,8.3,32.3
	C1952.5,1944.2,1941.2,1956.3,1929.8,1956.3z M2755.9,1831c0,0-2.1-6.5-2.1-8.1s-8.4-46.5-8.4-48.8s-7.3-56-3.4-68.3
	c0,0,8.9,41.6,10,46c1,4.5,3.9,29.7,4.2,34.7s1.4,45.2,1.4,45.2L2755.9,1831z"/>
<path id="belt-loop1" class="normal" d="M2465.1,1847.5c4.6-0.2,10.3-2.8,13.8-3c3.6-0.3,11.4-2.5,15.8-2.4c0,0,3.6-1.4,4.9-0.2
	c1.4,1.3,2.8,0.9,3.1,5.9c0.4,5,2.8,40,2.8,41.6s1.4,11.2,1.4,16.2s0.6,28.6,0.9,35.3c0.3,6.8-0.2,22.2-0.2,28s-1.4,50-1.2,54.8
	c0.3,4.7,0.8,15.3,0,16.2c-0.8,0.8-7.9,2.2-9.1,2.5c-1.2,0.3-8.1,2.2-11,2.4c-3,0.2-7-0.6-9.3-0.2c-2.4,0.4-2.4,0.2-3.6,0.6
	c-1.2,0.5-0.9,2-3-0.2c-2-2.1-1.7-4.9-1.7-7.5s2.8-28.6,2.8-30.9s0.2-42.4,0.9-44.9c0.8-2.5-0.6-32.7-0.4-42.6
	c0.3-9.8-0.6-36.6-1.4-40.2c-0.8-3.6-4.7-28.2-4.9-29C2465.6,1849.1,2465.1,1847.5,2465.1,1847.5z"/>
<path id="belt-loop2" class="normal" d="M1717,1801.8c0,0,7.9-1,10.3,0s7.6,2.4,10,3.4s5,1.6,7.9,2.9l2.9,1.6c0,0,0,1.6-1.8,3.4
	s-4.2,8.4-5,12.9c-0.8,4.4-2.9,18.1-3.1,23.1c-0.3,5-2.1,29.4-2.6,36.8c-0.6,7.3-2.9,25-3.1,27.8c-0.3,2.9-0.8,42.6-1,47.6
	s-0.8,28.6-1,32.1c-0.3,3.4,0.6,7.6,0.8,8.6c0.2,1-0.3,1.6,1.4,1.4c1.6-0.3,1.6-0.6,2.1-1.6c0.6-1-0.8-0.8,2.4-0.8s6.3,0.8,6.3,0.8
	s0.3,0.6,0.8,3.7c0.6,3.1,1.8,9.2,1.8,9.2l-5.5,2.4c0,0-1.6-1.4-3.9-1.8s-3.9,0-8.9-0.6s-11.8-1.6-17.4-2.9
	c-5.5-1.4-7.3-1.6-10.8-2.1c-3.4-0.6-5.8,1-6.3-1.4c-0.6-2.4,1.6-23.4,1.6-27.4c0-3.9,7.9-86.2,8.9-91.4c1-5.3,11.8-82.3,11.8-84.4
	C1715.2,1803.1,1717,1801.8,1717,1801.8z"/>
</svg>
