<?xml version="1.0" encoding="utf-8"?>
<!-- Generator: Adobe Illustrator 21.1.0, SVG Export Plug-In . SVG Version: 6.00 Build 0)  -->
<svg version="1.1" id="Layar1" xmlns="http://www.w3.org/2000/svg" xmlns:xlink="http://www.w3.org/1999/xlink" x="0px" y="0px"
	 viewBox="0 0 4160 6240" style="enable-background:new 0 0 4160 6240;" xml:space="preserve">
	 <pattern id="normal" patternUnits="userSpaceOnUse" width="270" height="270" patternTransform="">
		<image image-rendering="optimizeQuality" preserveAspectRatio="xMidYMid meet" xlink:href="/images/simulator/default/default_tex.jpg" x="0" y="0" width="270" height="270" style="-ms-interpolation-mode: bicubic;" />
  </pattern>
  <pattern id="left" patternTransform="rotate(23)" patternUnits="userSpaceOnUse" width="270" height="270">
		<image image-rendering="optimizeQuality" preserveAspectRatio="xMidYMid meet" xlink:href="/images/simulator/default/default_tex.jpg" x="0" y="0" width="270" height="270" style="-ms-interpolation-mode: bicubic;" />
  </pattern>
  <pattern id="right" patternTransform="rotate(-23)" patternUnits="userSpaceOnUse" width="270" height="270">
		<image image-rendering="optimizeQuality" preserveAspectRatio="xMidYMid meet" xlink:href="/images/simulator/default/default_tex.jpg" x="0" y="0" width="270" height="270" style="-ms-interpolation-mode: bicubic;" />
  </pattern>
<style type="text/css">
	.st0{fill:url(#normal);}
	.st1{fill:url(#normal);}
	.st2{fill:url(#right);}
	.st3{fill:url(#normal);}
	.st4{fill:url(#left);}
	.st5{fill:url(#left);}
	.st6{fill:url(#right);}
</style>
<path id="body-right" class="st0" d="M2141.3,4033l-17.3-242c0,0-23.3-102.7-22.7-118.7c0.7-16,19.3-73.3,19.3-73.3l10-66l-4.7-26
	l-55.3-186.7c0,0-114-354.7-114-362S1784.7,2253,1784.7,2253l-68.1-14.7c0,0-32,12-40,14.7s-20.7,6-32.7,11.3s-12.7,9.3-37.3,17.3
	c-24.7,8-67.3,28.7-78,30s1.3-2.7-16.7,2.7s-52.7,21.3-63.3,25.3c-10.7,4-48,10.7-62.7,13.3c-14.7,2.7-34.7,6-44.7,9.3
	s-48,19.3-59.3,22s-18.7,8-18.7,8l-2.7,15.3l10,28.7c0,0,63.3,214,72,238.7s34,203.3,40.7,228s21.3,205.3,21.3,205.3l36.7,216
	l2,10.7c0,0,14,45.3,15.3,54s17.3,82.7,17.3,85.3s9.3,85.3,8,123.3l-4,126.7c-0.7,16.7-10.7,166-14,188s-26,140.7-26.7,146.7
	s0.7,10.7-2,16s-6,6.7-6.7,12s-14,140-15.3,152.7c-1.3,12.7-21.2,203.9-21.2,203.9s-10.1,168.5-10.8,171.2
	c-0.7,2.7,7.4,202.2,6.1,204.9s-0.6,11.5-1.3,13.5s-0.7,6.7-0.7,6.7s-20.2,9.5-23.6,11.5c-3.3,2-17.5,6.7-17.5,6.7
	s17.5,43.9,19.5,54.6s18.2,35.8,18.2,39.8s10.6,5.1,15.9,8.4s20,13.3,20,13.3s56,24,97.3,30.7s174.7,8,182.7,8.7s46,0,58.7-2
	s68-20,80.7-29.3s71.3-66,86-78.7s38.7-62,61.3-86.7c22.7-24.7,89.3-186.7,113.3-267.3c0,0,34.7-115.3,38-134
	c3.3-18.7,18-101.3,18-101.3l0.7-234L2141.3,4033z M2108.1,4151.9c-25,0-43.1-19-43.1-40.4s15-37.5,43.1-37
	c25,0.4,45.4,17.3,45.4,38.7C2153.5,4134.6,2133.1,4151.9,2108.1,4151.9z"/>
<path id="bory-left" class="st1" d="M2948.7,2387.6c-9.3-3.3-43.3-11.3-68-19.3s-84.7-22-101.3-27.3c-16.7-5.3-81.3-22.7-99.3-28.7
	s-70-29.3-77.3-32.7c-7.3-3.3-46-14-50-16.7s-35.3-19.3-38.7-21.3l-27,43.7l-143,565c0,0-151,546-154,553s-89,221-91,227
	s-12.5,82.2-13.5,97.2s13.5,206.8,13.5,206.8s11.8,155.4,23,210c5.6,27.4,25,163,25,163l48,211c22,91,84,249,91,267s76,115,76,115
	c66,108,170,132,170,132c38,14,60,0.7,60,0.7c34-2.7,89.3-23.3,96.7-26c7.3-2.7,74.7-27.3,74.7-27.3l2.7-8
	c2-9.3,32.7-83.3,32.7-83.3c16-42.7,39.3-66,39.3-66s-20.7-4-27.3-5.3c-6.7-1.3-6.7-0.7-10-4.7l-2.7-34.7c0,0,14.7-336,20-360.7
	c5.3-24.7-2-166.7-2-166.7s-6.7-129.3-8-135.3s-3.3-9.3-5.3-14c-2-4.7-8-26-10.7-30.7s0-8.7,0-16s-3.3-11.3-6-16.7
	c-2.7-5.3,0-6.7-1.3-12s-1.3-12-2-19.3s-7.3-48.7-10-66.7l-14.7-186c-5.3-88,2.7-126.7,1.3-156.7c-1.3-30,8.7-94,10-112
	s10.7-56.7,14-68.7s7.3-12,10.7-20s2-22,6-40.7s3.3-6.7,4-10s34-301.3,32-320.7c-2-19.3,39.3-244.7,46-275.3
	c6.7-30.7,74.7-312,74.7-312l11.3-40.7C2968,2397,2958,2391,2948.7,2387.6z M2109.4,3680.9c0-22.4,18.1-40.2,40.5-40.5
	c17.7-0.2,28.7,6.2,34.7,16.2l-0.1,0.1c0,0,11.6,19.2,1,43.1v0.2c-6.8,12.7-20.2,21.4-35.7,21.4
	C2127.5,3721.4,2109.4,3703.3,2109.4,3680.9z M2563.5,2505.3h-5l-6.5-2.5l-55-32l-7-3c0,0-2.5-0.5-1.5-4s7-10,11-9.5l65.5,40.5l1,7
	L2563.5,2505.3z"/>
<path id="lapel-right" class="st2" d="M1855.9,2261.3c-1.7,0.8-2.5,0.3-9.7,2.9c-9.6,3.5-42.8,33.9-51.2,39.6
	c-8.3,5.7-59.5,49.8-63.8,53.8s-39.7,33.3-46.3,37.7c-6.6,4.4-52.3,33.3-55.3,35.7c-3,2.3-18,9-21.3,12s-8.3,3.3-9,9.3
	s0.7,13.3,2.7,17s21.3,54,21.3,54s66.7,162.7,67,163.7s57.3,144.3,57.3,144.3l52.7,118c0,0,47.3,112.3,48,113.7
	c0.7,1.3,68.7,140.3,68.7,140.3s103.1,205.6,142.1,258.1l61.5,85.5l24-33c0,0-3.5-40.8-6.8-53c-2.1-17.6-144-533.7-150-553.2
	s-87.8-389.2-87.8-389.2s-17.7-117.5-30.6-193.2c-0.7-3.9-1.7-8.2-2.3-11.9C1862.5,2286.1,1855.9,2263.1,1855.9,2261.3z"/>
<path id="arm-right" class="st3" d="M1153.7,2865.3c0,0-17.7,140.3-17.7,143s-29.3,284.7-29.3,284.7s-19.3,168.7-20,172.7
	s-22,204.7-22.7,221.3c-0.7,16.7-3.3,209.3-3.3,212s-2,166.7-2,166.7s-4,192-4.7,200s-0.7,174.7-4,188.7s0,156.7,0,160.7
	s3.3,113.3,2,120c-1.3,6.7,0.7,78,0.7,78s-4,15.3-2.7,20s5.3,17.3,6.7,20c1.3,2.7,4,8,6,2.7s4-10.7,4-10.7s10-2.7,15.3,0.7
	c5.3,3.3,8,4.7,10,5.3c2,0.7,3.9-0.2,6-1.3c4.8-2.5,4.5-15.1,4.5-15.1l-21.3-14.1c0,0,97.4-21.3,130.7-21.9
	c33.3-0.7,119.8-17.4,148.5-8.8c0,0,42.1-6.2,32.8,49.1l10.1-13.4l-4.7-112.7c0,0-2-200.7-1.3-216c0.7-15.3,2.7-61.3,2.7-61.3
	l-4-12.7l-5.3-86.7v-220.7c0,0,7.3-142.7,6.7-144.7c-0.7-2,6.7-183.3,8.7-193.3s15.3-262.7,15.3-262.7s16-170.7,16.7-178
	s-3.3-48-4.7-58.7c-1.3-10.7-6.7-95.3-10-110l-16-202c0,0-3.3-87.3-3.3-102s-16-109.3-16-109.3s-6-17.3-9.3-47.3s-24.7-109.3-32-130
	s-38-122.7-46.7-137.3s-18.7-38.7-18.7-38.7s-9.3-12.7-18-9.3c0,0-10.3,2.7-14.3,5s-22,14.3-24,17.7c-2,3.3-5,4.3-6,7s-7,29-8,38
	s-12.7,76.3-12.7,76.3s-13.7,86.3-14,88s-11.7,72.7-12.3,80.3c-0.7,7.7-7.7,73-7.7,74s-10.7,80.7-10.7,83.7"/>
<path id="collar-left" class="st4" d="M2372.7,2098.3c0,0,9.5,35.1,15.6,51.8c0.7,11.3,1.7,82.9,1,88.2c-0.7,5.3-1.3,18.7-1.3,18.7
	l3.3,14.7c0,0,109.3,83.3,112.7,89.3s38,28,38,28l6-3.3c0,0,14.7-7.3,20.7-9.3s27.3-9.3,31.3-10.7c4-1.3,6,4.7,5.3-6.7
	c-0.7-11.3-16-30.7-22-38.7s-69.3-78-69.3-78s-14-7.3-18-10s0-5.3-12.7-11.3s-15.3-8-24-17.3s-75.3-96-79.3-99.3
	S2372.7,2098.3,2372.7,2098.3z"/>
<path id="lapel-left" class="st5" d="M2641,2449.3c-1-2-6-6.5-12-9.5s-20.5-6-29.5-11s-50-40.5-61-47.5s-26-22.5-33.5-29
	s-44-43-49.5-47s-25-23-27.5-26s-6-4.5-11-7s-14-10.5-21-12.5s-8-0.5-8-0.5l-18.3,85.4c-14.4,158.8-61.7,406.2-61.7,406.2
	s-41,174-43.2,199.3c-3.6,30.6-55.7,228.2-55.7,228.2l-55.7,227.1c0,0-6.2,24.9-16.7,79.5c-14.1,62-41.4,145-44.7,152.5
	c-6,13.3-1.3,32.7-5.3,46.7s-1.3,46.7-0.7,44.7s10-34.7,12.7-43.3c2.7-8.7,4-33.3,14.7-58.7c10.7-25.3,17.3-44,25.3-62
	s58-95.3,61.3-102s54.7-84.7,58.7-90.7s27.3-47.3,27.3-49.3s31.3-60,31.3-60c10-24.7,90.7-190.7,98-204.7s73.7-178.5,73.7-178.5
	s50.5-125,54-133.5s26.5-74.5,29-87s25.5-71.5,25.5-71.5s7-20.5,8-23s5-15.5,7.5-27s7-20,9-28s9.5-22.5,11-29s6-18.5,10-23.5
	S2642,2451.3,2641,2449.3z M2563.3,2502.3l-5.5-0.3l-6.2-1.5l-54.4-31.4l-4.5-2.8c0,0-2.9,0.7-1.9-2.8s4.2-6.7,8.2-6.2l64.8,38.3
	v4.9L2563.3,2502.3z"/>
<path id="arm-left" class="st6" d="M2958.7,2395.6c4.7-1.3,5.3-2.7,11.3-2s12,3.3,15.3,4s11.3,2.7,14.7,6.7s18.7,31.3,21.3,36.7
	c2.7,5.3,1.3,6,1.3,14.7s18,150.7,18.7,156.7s28,250,29.3,272.7s29.3,288,29.3,288l15.3,158.7c0,0,21.3,258,22.7,266.7s8,99.3,8,106
	s-3.3,142.7-3.3,142.7s-3.3,144-6,166.7s-4.7,68.7-5.3,77.3c-0.7,8.7-2,51.3-0.7,62.7c1.3,11.3,2,2,2.7,20s-2,81.3-2,81.3l0.7,216.7
	c0,0,0,130.7,0,142.7s-0.7,38-0.7,41.3c0,3.3,2,118.7,2.7,126c0.7,7.3,0,22,0.7,24.7c0.7,2.7-0.7,8.7-5.3,10.7c-4.7,2-8,4.7-13.3,8
	s-8,6.7-14,10.7s-14,10-24.7,9.3s-13.3-1.3-13.3-1.3l-4.8-34.2c0,0,40,3.9,48,2.6s10.1-1.6,6.1-4.3c-4-2.7-181-31.5-204.4-32.8
	c-23.3-1.3-68.3-6.6-82.3-5.3c-14,1.3-20-1.9-20.7,2.1s-2.8,20.3-2.8,20.3s-7.8-3-13.1-6.4c-5.3-3.3-10-10.7-10-10.7l-2.7-4.7
	l10.7-242l10-232c0,0,15.3-172,16.7-178c1.3-6,5.3-58,5.3-63.3s2.7-149.3,2.7-154.7s-4-242-5.3-254s-12-237.3-12.7-270
	s0-61.3,1.3-64.7c1.3-3.3,1.3-53.3,2.7-66.7c1.3-13.3,5.3-65.3,5.3-76s5.3-68.7,5.3-68.7s6-126,7.3-136.7s6-90.7,8-107.3
	s10.7-41.3,13.3-51.3s11.3-52,12.7-56c1.3-4,10.7-63.3,12.7-70s20-100.7,21.3-104s29.3-102.7,34-116.7s20-50,20-50L2958.7,2395.6z"
	/>
<path id="collar-right_1_" class="st6" d="M1879.6,2109.5c0,0-2.3-1.8-3.6-0.8s-13.7,13-16,15.3s-52.3,54-54,56s-10.7,10-14.3,13.3
	c-3.7,3.3-18.7,13.7-21.3,15c-2.7,1.3-31.7,14-33.7,15.7s-9.3,11.7-13.3,13s-20,8-23.3,14.7s-41.3,51.7-45,57.7s-16,27-20.3,31.7
	s-21.3,20,0,27.3s54.7,18,54.7,18l4,1.3c0,0,45.3-34.7,47-36.3c1.7-1.7,83.3-71,89.3-75.7s26.2-13.4,26.2-13.4s-0.9-36.8-0.9-40.1
	c0-3.3,5.5-27.4,7.1-32.7c1.6-5.3,9.9-55.9,9.9-55.9L1879.6,2109.5z"/>
</svg>
