<?xml version="1.0" encoding="utf-8"?>
<!-- Generator: Adobe Illustrator 21.1.0, SVG Export Plug-In . SVG Version: 6.00 Build 0)  -->
<svg version="1.1" id="Layar1" xmlns="http://www.w3.org/2000/svg" xmlns:xlink="http://www.w3.org/1999/xlink" x="0px" y="0px"
	 viewBox="0 0 4160 6240" style="enable-background:new 0 0 4160 6240;" xml:space="preserve">
<pattern id="normal" patternUnits="userSpaceOnUse" width="270" height="270" patternTransform="">
		<image image-rendering="optimizeQuality" preserveAspectRatio="xMidYMid meet" xlink:href="/images/simulator/default/default_tex.jpg" x="0" y="0" width="270" height="270" style="-ms-interpolation-mode: bicubic;" />
  </pattern>
  <pattern id="left" patternTransform="rotate(23)" patternUnits="userSpaceOnUse" width="270" height="270">
		<image image-rendering="optimizeQuality" preserveAspectRatio="xMidYMid meet" xlink:href="/images/simulator/default/default_tex.jpg" x="0" y="0" width="270" height="270" style="-ms-interpolation-mode: bicubic;" />
  </pattern>
  <pattern id="right" patternTransform="rotate(-23)" patternUnits="userSpaceOnUse" width="270" height="270">
		<image image-rendering="optimizeQuality" preserveAspectRatio="xMidYMid meet" xlink:href="/images/simulator/default/default_tex.jpg" x="0" y="0" width="270" height="270" style="-ms-interpolation-mode: bicubic;" />
  </pattern>
<style type="text/css">
	.normal{fill:url(#normal);}
	.left{fill:url(#left);}
	.right{fill:url(#right);}

</style>
<g id="pants">
	<path class="normal" d="M1418,4371c0,0-11.9,49.5-13.8,72.2s-7.5,102-10.7,128.5s-3.8,54.1-4.6,60.8c-0.7,6.6-1.2,9.3-1,18.6
		c0.2,9.3-1.7,34.8-3.1,43.6s-3.3,41.4-3.8,48.6s-4,172.1-13.9,181.4c0,4.1,41.2,79,30.4,84.8c-3.3,1.8-6.1,7.4-8.5,16.1
		c-4.4,15.8,30.4,79.5,28.3,109.7c-4.3,59.7,7,138.9-16.6,158.6c-7.1,5.9-2.7,21.2-6.6,28.2c-7,12.8-19,16.8-19,17.4
		c-0.5,4.9-1,12.6-1,17.4s2.1,46.4,2.9,73.8c0.7,27.4,5,87.9,6.9,112.9s5,96.5,5.7,123.2c0.8,26.7,2.9,85.5,6,132.2
		s3.3,49.1,3.3,49.1h573.4c0,0,2.4-51.9,4.1-68.6s7.6-87.7,10.5-116c2.9-28.4,11.9-128.6,14.3-154.6s7.9-89.8,10.7-117.4
		c2.9-27.6,9.7-96,14.3-137.9c4.5-41.9,10.5-98.7,14.8-135.1s9.3-76.2,14.8-102.7c5.5-26.4,21.9-96.7,27.6-120.1
		c5.7-23.3,13.8-57.4,13.8-57.4l1.2,1.4c0,0,28.4,56.7,32.2,64.1s5.7,6.6,8.8,22.9c3.1,16.2,29.3,152.5,34.6,172.7
		c5.2,20.2,14.8,61.2,16.5,73.1s16.2,95.6,21.9,125.5c5.7,30,15.5,83.6,25.3,138.2c9.7,54.6,26.4,150.1,30.5,177.5
		s17.4,116.8,19.3,131c1.9,14.3,4.3,29.8,5.2,45.7c0.9,15.9,1.4,47.2,6.9,57.4h574.2c0,0-3.3-44.5-3.5-76.2s2.4-139.1,2.9-174.4
		c0.5-35.2,0.2-116.5,0.5-146.3c0.2-29.8,3.1-80.1,4.3-92.5s1.2-17.4,0.5-24.1c-0.7-6.6-1.9-9.5-1.9-9.5s-27.1-13.3-44.1-19.5
		c-10.2-3.7-26.4,5.2-25.5-13c1.7-34-8.7-130.4-8.5-138.8c0-0.8,12.5-73.7,21-119c3-15.7-8.8-7.7-11.9-17
		c-7.9-23.7,45.9-108.2,42.5-115.6c-2.2-4.8-6.8,3.4-7.2-12c-0.9-36.9,3.5-73.5,2.1-101.3c-7.7-149.5,23.2-255.6,23.2-255.6
		s-1.2-9.1-3.3-28.6s-5.2-42.4-8.1-61.7s-11.2-67.4-13.1-77.2c-1.9-9.7-8.6-26.4-8.6-26.4l-41.6-118.1H1465.8L1418,4371z"/>
</g>
<path id="body-right" class="normal" d="M1737.9,2223c0,0-7.2-1.9-9.8-0.4c-2.6,1.5-6.4,6-10.6,8.7c-4.2,2.6-18.1,10.9-24.5,12.8
	c-6.4,1.9-41.9,15.1-57,20.4c-15.1,5.3-42,14.9-51.6,15.3c-9.6,0.5-28.2,5.1-33.7,6c-5.5,1-27.7,9.1-38.3,11.5
	c-10.6,2.5-17.1,7-25.7,10.6c-8.5,3.5-18.1,4.5-20.2,5.5c-2,1-9.1,10-11.1,14.6c-2,4.5-8.5,17.1-9.1,21.1s-1,7,0,10
	s2.3,6.5,2.8,11.1s-6,71.1-6.5,74.1s-3.1,48.9-0.6,55.9s1.1,45.6,4.1,58.4c5.3,22.8-1.6,115.3-0.6,120.3c1,5.1,2.2,37.6,2.2,41.1
	s1.9,117.8,1.9,125.4c0,7.5,0.7,25-0.3,29.5s-2,21.7-3.5,29.2s-4.5,29.4-6.3,46.2c-3,14.6-3.1,36.3-4.1,54.9s-1.7,27.3-2.2,33.9
	c-0.5,6.6,0.1,11.4-2.5,26c-2.5,14.6-9.8,35.9-10.3,38.9s0.2,12.5-1.4,15.5c-1.5,3-2,4.8-2,11.9s7.7,64.2,8.2,67.8
	c0.5,3.5,14.6,119.8,14.6,121.3s15.6,159,15.6,159s6,62.9,7,68.9s7.5,99.1,6,128.3l-0.5,35.2c0,0-3.5,106.2-4,115.7
	c-0.5,9.6-9.1,143.4-9.6,146.4s-14.6,208.3-14.6,208.3s-9.5,100.6-11.8,107.4s-4.5,27.2-9.1,38.5c-4.5,11.3-1.1,38.8-1.1,42.2
	s7.6,14.6,12.8,19.6c8.3,8,68.3,38.2,129.7,53.4l126.1,39l187,49.8c0,0,95.7,29.2,134.1,27c12.7-0.8,21-4.8,21-4.8l156.2-192.2
	l-280.8-394l-1.1-264.9l-9.1-328.3l17-55.5l182.3-347.6l61.1-173.2l-282.1-549.1l-35.1-79.3l-5-3c0,0-11.3,26.8-17.1,30
	c-5.8,3.2-2.1,8.1-13,13.1c-10.8,5.1-60.8,12.5-61.4,12.5C1740.2,2223.6,1737.9,2223,1737.9,2223z"/>
<path id="body-left" class="normal" d="M2829,4280.2c-4.5-20.4-22.6-142.7-28.3-163c-5.7-20.4-5.7-45.3-5.7-53.2s-3.4-28.3-3.4-37.4
	s-11.3-181.2-11.3-181.2c-12.5-101.9-12.5-328.3-12.5-336.3s4.5-29.4,4.5-57.7s2.3-115.5,7.9-131.3s7-10.9,9.3-19.9
	c2.3-9.1,5.5-26.4,5.5-43.4s-9.3-97.7,0.9-128.8c3.9-11.9,13.9-53.4,15.1-65c0.5-5.1,11.9-148.6,11.9-157.7s3.5-48.9,3.5-73.8
	c0-24.9-3.5-69.6-10.3-102.4c-2.3-21.9-11.7-161.5-11.4-177.5c0.2-10.8-0.5-27.6,0-48.6c0.5-21.9-2.9-43-1.7-53.4
	c2.3-20.4-5.7-43-9.1-57.7c-3.4-14.7-4.7-27.4-8.5-39.6c-3.1-10-18.6-23.2-18.6-23.2s-14.3-12.6-16.1-14.3s-6-3.8-10.6-4.5
	s-20.2-6.6-22.4-7.3s-16.6-3.2-16.6-3.2l-25.9-9.8l-18.1-8.1c0,0-28.9-10.6-34.7-12.3s-14.6-4.3-20.6-5.3s-14.3-5.5-19.4-8.1
	c-5.1-2.5-18.9-12.3-22.9-13.8s-17.4-9.8-23.6-10.6s-26.6-3.2-34.5-4c-7.8-0.8-23.2-3.2-25.4-4.3c0,0-23.9,1-27.2,1
	c-3.4,0-99.6,116.6-100.8,139.3c-1.1,22.6-304.6,711-304.6,711s-122.3,210.6-126.8,218.5s-37.4,81.5-37.4,87.2s-5.7,48.7-5.7,60
	s1.1,82.7,1.1,101.9s10.2,221.9,10.2,221.9l1.1,217.4c0,0,5.7,5.7,9.1,10.2s47.6,73.6,47.6,73.6c18.1,35.1,346.4,452.6,353.2,459.4
	c6.8,6.8,15.5,18,23.4,23.7s45-5.1,45-5.1s149.5-50.1,160.2-52.8c28.8-7.2,152.4-48,226.3-73.2c48.4-16.5,52.8-22.8,52.8-22.8
	c45-31.1,34.6-51.7,35.8-57.4C2840.3,4331.2,2833.5,4300.6,2829,4280.2z M1965.7,3661.7l1.5,2.9l-0.4,2.9c0,0,0.7,14.9-3.3,25.5
	c-7.2,6.6-9.4,5-21.9,6.6c-11.2-0.3-23.2-5.3-24.4-24.8c-1.2-19.2,9.8-27,26.6-27C1956.4,3647.8,1961.1,3650.1,1965.7,3661.7z
	 M1939.5,3355.7c12.6,0.8,17.9,0.8,22.5,12.5c0,0,2.8,17.7,1.2,21.7c-3.6,14.4-9.7,15.8-23.7,17.6c-16,2.1-23.6-6.5-24.8-25.9
	C1913.9,3365.9,1927.8,3355,1939.5,3355.7z M2393,3349.6c14.6,0,29.1,11.9,27.6,30.2c-1.5,18.9-11.9,30.6-26.6,30.6
	c-14.6,0-26.3-10.5-26.3-28.8C2367.8,3363.1,2378.4,3349.6,2393,3349.6z M2380.6,3670.9c0-18,5-23.3,22.4-23.3s23.6,4.5,23.6,22.4
	c0,18-7.8,24-25.2,24S2380.6,3688.9,2380.6,3670.9z M2410.8,3990.4c-17.1,0-21.6-6.2-21.6-24s4.5-20.9,21.6-20.9s24,4.6,24,22.4
	S2427.9,3990.4,2410.8,3990.4z M2487.8,2506.4c-0.5,1.3-2.8,1.5-4.9,1.4s-3.2-1.4-4.2-2.6c-1-1.3-0.4-4.8-0.4-4.8s-1.5-0.2-3.5-1.1
	c-2-1-4.5-2.4-6.6-3.9c-2-1.5-6.8-8.1-8.1-9.4c-1.3-1.4-19.2-24.7-20.6-25.8c-1.4-1.1-0.9-0.5-1.3-0.5c-0.4,0-2.1-0.8-2.9-1.1
	c-0.8-0.4-1.9-2.8-1.9-3.9c0-1.1,2-8.1,2.4-8.5s3.8-2.1,5.5-3s3.9-0.2,4.8-0.2s4.9,0.8,6.2,0.8s1,1.7,1,1.7l-2.9,4.4
	c0,0,0.2,1.5,0.6,2.1c0.4,0.6,8.9,11.2,11.1,14.3c2.1,3.2,4.8,7.9,5.9,9.8c1.1,1.9,14.3,14.3,15.2,15.5c0.9,1.1,1.9,3,1.9,3
	s0.6,2.1,0.6,3.4c0,1.3,0.4,0.8,1.5,1.7s0.9,2.4,1.1,3.2S2488.3,2505.2,2487.8,2506.4z"/>
<path id="collar-right" class="right" d="M1850.7,2147.6c0,0-5.2-4.6-8.6-1.6s-7.2,6.4-7.5,8.7s-7.9,18.1-11.3,23.8
	s-19.6,18.9-21.1,21.5s-8.3,7.9-15.1,10.6c-6.8,2.6-13.6,4.5-20.8,5.3c-7.2,0.8-18.1,0-20,3s-6,1.1-8.3,7.5s-6.8,25.3-9.1,28.7
	c-2.3,3.4-18.9,34.3-23.4,46.4s-24.9,43.4-26,46s-9.4,15.1-3.8,17.7c0,0,49.4,27.6,50.6,28.7c1.1,1.1,13.6,7.9,14.7,10.9
	s1.5,5.7,1.5,5.7l6.8,4.5c0,0,79.6-77,87.9-101.9s37-117.4,37-117.4s-7.8-13.1-10-18S1852.6,2160.7,1850.7,2147.6z"/>
<path id="lapel-right" class="right" d="M1872.8,2188.5c-3.8,0-8.8,2.3-11.9,6.8c-3,4.5-9.1,20.4-9.8,27.2
	c-0.8,6.8-9.1,28.7-12.8,36.2c-3.8,7.5-24.9,51.3-33.2,67.9s-31.7,41.5-35.5,46.8s-25.7,26.4-31.7,34.7s-19.6,19.6-28.7,29.4
	s-17.4,13.6-21.1,17.4c-3.8,3.8-21.1,15.9-3.8,35.5c0,0,258.9,298.9,261.2,301.2c2.3,2.3,149.5,157,149.5,157l65.7-200.8l-11.3-15.9
	c0,0-120.8-246.7-127.6-258c-6.8-11.3-109.4-216.3-111.7-221.9C1906.4,2243.5,1872.8,2188.5,1872.8,2188.5z"/>
<path id="collar-left" class="left" d="M2371.2,2134.7c0,0,12.8,15.9,19.6,27.9c6.8,12.1,13.7,20.4,20,26c7.9,7.2,14,13.2,22.3,17.7
	s21.1,6.8,26.4,9.1s6.8,0.8,14.3,7.5s9.1,9.1,12.1,16.6s12.8,21.9,18.9,28.7c6,6.8,58.9,66.4,59.6,69.4c0.8,3,2.3,9.1,2.3,9.1v4.5
	c0,0-33.2,24.2-41.5,38.5s-9.8,18.1-9.8,18.1s-108.7-89.8-113.2-102.7c-4.5-12.8-36.2-88.3-36.2-88.3l-3.8-17.4c0,0,1.7-6.4,2.4-8.3
	c0.8-1.9,4.4-8.7,5.9-16.2s2.3-25.4,1.2-30.3s-0.8-8.7-0.8-8.7L2371.2,2134.7z"/>
<path id="lapel-left" class="left" d="M2584.8,2451.3c0,0-16.6-14.7-22.3-18.1c-5.7-3.4-22.6-18.5-26.4-23
	c-3.8-4.5-15.9-19.6-18.1-22.3s-22.3-17.7-24.2-18.5s-18.9-16.2-23.4-19.2s-15.9-17-20.8-20.4c-4.9-3.4-35.1-57-40.8-64.9
	s-19.6-40.4-22.6-45.7s-7.5-15.1-9.8-18.9c-2.3-3.8-6-3.8-9.8-4.5c-3.8-0.8-4.5,3.8-4.5,3.8s-1.9,4.2-4.2,7.9
	c-2.3,3.8-34.4,79-35.2,80.4s-29.7,78.3-29.7,78.3s-15.2,46.4-19.3,55.9c-4.2,9.4-49.3,146.4-49.3,146.4s-19.9,45.4-20.7,47.7
	s-39.3,84.8-39.3,84.8l-52.2,123l-37,90.6l-52.8,116.2l-54.3,128.7l-77,187.6l-5.7,21.1c0,0,14-21.5,16.2-25.3
	c2.3-3.8,26.8-39.6,29.4-43.4c2.6-3.8,3.4-3.4,10.6-13.2s49.8-50.6,51.3-52.5s31.3-32.5,32.5-34s82.3-90.6,82.3-90.6
	s23.4-26.4,26.8-29.4s13.2-15.1,14.7-17s27.9-36.6,34.7-44.5s71-89.8,72.8-91.7c1.9-1.9,30.9-36.6,35.1-42.3
	c4.2-5.7,90.2-122.3,97.7-131s47.2-63,49.8-68.3s38.9-55.1,41.1-58.5c2.3-3.4,57.4-78.1,57.4-78.1l40-54.7l13.6-23
	c0,0,1.5-3.8,1.5-4.9c0-1.1,0-3.4,0-4.5C2593.2,2460.2,2584.8,2451.3,2584.8,2451.3z M2487.8,2506.4c-0.5,1.3-2.8,1.5-4.9,1.4
	s-3.2-1.4-4.2-2.6c-1-1.3-0.4-4.8-0.4-4.8s-1.5-0.2-3.5-1.1c-2-1-4.5-2.4-6.6-3.9c-2-1.5-6.8-8.1-8.1-9.4
	c-1.3-1.4-19.2-24.7-20.6-25.8c-1.4-1.1-0.9-0.5-1.3-0.5c-0.4,0-2.1-0.8-2.9-1.1c-0.8-0.4-1.9-2.8-1.9-3.9c0-1.1,2-8.1,2.4-8.5
	c0.4-0.5,3.8-2.1,5.5-3s3.9-0.2,4.8-0.2s4.9,0.8,6.2,0.8s1,1.7,1,1.7l-2.9,4.4c0,0,0.2,1.5,0.6,2.1c0.4,0.6,8.9,11.2,11.1,14.3
	c2.1,3.2,4.8,7.9,5.9,9.8c1.1,1.9,14.3,14.3,15.2,15.5c0.9,1.1,1.9,3,1.9,3s0.6,2.1,0.6,3.4c0,1.3,0.4,0.8,1.5,1.7s0.9,2.4,1.1,3.2
	S2488.3,2505.2,2487.8,2506.4z"/>
</svg>
