<?xml version="1.0" encoding="utf-8"?>
<!-- Generator: Adobe Illustrator 21.1.0, SVG Export Plug-In . SVG Version: 6.00 Build 0)  -->
<svg version="1.1" id="Layar1" xmlns="http://www.w3.org/2000/svg" xmlns:xlink="http://www.w3.org/1999/xlink" x="0px" y="0px"
	 viewBox="0 0 4160 6240" style="enable-background:new 0 0 4160 6240;" xml:space="preserve">
<style type="text/css">
	.st0{fill:#517D82;}
	.st1{fill:#465D60;}
	.st2{fill:#C8CDCE;}
	.st3{fill:#B3B9BA;}
	.st4{fill:#DCE2E2;}
	.st5{fill:#3BA3A8;}
	.st6{fill:#83989B;}
</style>
<path id="body-right" class="st0" d="M1903,1799c-8-32-154-362-154-362l-29.3-22l-59.3,25.3c0,0-20.7,8.7-23.3,10.7
	c-2.7,2-48,21.3-58.7,25.3s-156,63.3-179.3,71.3c0,0-36,17.8-58.5,23.3c0,0-60,17.5-68,20.5s-19.5,5-27,8.5s-13,7.5-14.5,10
	s-3,6-3,8s20,62.5,20,62.5l60,174.5c0,0,33.5,226,34,227.5s26.7,536.3,35.7,551.3s66,81,66,81l5.2,8.2c0,0,9,28,10.7,32.7
	s5,24.3,5.7,28.7c0.7,4.3,3.3,30.7,3,38s-1.7,26.7-1.7,32.7s0.7,45,1,48.7s0.3,53.3,0.3,53.3s-2.7,46.3-2.7,49.3s-3,65.3-3,67.3
	s-3,44.7-3.3,48s-4,39.7-5.3,46.7s-2.3,14.3-3,18.7c-0.7,4.3-0.7,5-0.7,7.7s0.3,4,0.3,4s2.3-0.3-0.3,2c-2.7,2.3-4,0.7-4,4.7
	s-1.3,6.3,0,8.7c1.3,2.3,1-0.3,1.3,2.3c0.3,2.7-1,2-1,6s0.3,6,0,8s-0.3,2.3-1,3.7s-3,0-5,3s-5,7.7-5,7.7l-7.3,29.7l28.7,549.3
	l-1.3,24.3c0,0,5,16,1.3,21.3s-7.7,9.7-9.3,11.7s-29.3,18.3-32.3,18.3l14,26.3c0,0,38.3,73,40.3,76s13.7,32.3,14,35.7
	s0.7,4.3,0.7,5.7c0,1.3-0.7,2-1.7,3s-4.3,1.7-4.3,1.7s13,51.7,14.7,69.7c0,0,9,70.3,0.7,91.3c0,0,3.7,1,10,1s11.7-0.3,19.7,2.3
	s11.7,5.3,21.7,6.7c10,1.3,91.7,1.3,99,1s72.7-3,72.7-3l14.7-73.7l58-686l20-492l-6-52c0,0-2-32,12-54s272-478,272-478l44-158
	C2131,2223,1911,1831,1903,1799z M1669.7,2521.7c-22.4,0-39.3-15.6-39.3-38s17.5-42,39.8-42c22.4,0,39.8,18,39.8,40.3
	S1692,2521.7,1669.7,2521.7z"/>
<path id="body-left" class="st1" d="M2881.7,1618.5c-27.5-16.5-76-31-83.5-34s-66.5-25-75.5-27.5s-156.5-61.5-168.5-67.5
	s-44-21-48.5-22.5s-72.5-25-72.5-25s-40.7-21.5-45.3-24.8c-4.7-3.3-50.7-19.3-50.7-19.3l-51.3,109.3l-175.3,656.7l-103.3,260.7
	c0,0-85.3,208.7-95.3,223.3c-10,14.7-108,218-110.7,223.3s-8,45.3-9.5,56.3s-9.8,103.7-10.5,110.3c-0.7,6.7-7.3,158-7.3,158
	s-10,190-10.7,204.7s-29.3,338-32,365.3s-14,155.3-14.7,169.3s-10.7,144.7-10.7,144.7l-6,90.7c0,0,0.7,40.7,1.3,45.3
	c0.7,4.7,2.7,5.3,7.3,6.7c4.7,1.3,225.3,26,236,26.7s118.7,11.3,124.7,11.3s214.7,0,214.7,0s188-1.3,196-1.3s102.3-6.2,102.3-6.2
	l97.5-9.5l2.5-3.5c0,0,1-3.5,1.5-6s0-38,0-38c0-8,6.5-88,6.5-88c1.5-14,11-45,13-50.5s5-13.5,5-13.5s-2.5-1-4-2s-6-8.5-8-13.5
	s0-7,0.5-10.5s6.5-33,6.5-33c3-18.5,16-37,21.5-46s15.5-16.5,15.5-16.5l-3-2c-8.5-3-29-19.5-30.5-22s-3-3.5-3-3.5s-1.5-3-2-6.5
	s-1-6.5-1-10.5s1-18,1.5-23.5s3-7,3-7l24-37.5c0,0,16-343,18-367.5s-14-128.5-13.5-144s-5-56.5-6.5-60.5s-2-6-2.5-9.5s2-1.5,2-1.5
	s0.5-6.5,0.5-8s-4-4-4-4s-0.5-6.5,0.5-9.5s1-4,1.5-7s-12-70.5-12-70.5c-2-11.5-13-72-13-72l-6.5-109c-4.5-33.5,3-177.5,3-177.5
	s5-64,5.5-70s11-105.5,11-105.5c3-33.5,22-130,22-130s31.5-170,31.5-180s34.5-245,37.5-252.5s34-203,35.5-217.5s34.5-107,36-117
	s30.5-63,30.5-63C2902.7,1629.5,2881.7,1618.5,2881.7,1618.5z M1851.2,2865.2c15.2,0,28.4,8.9,35.3,21.6c-0.1,0-0.1,0-0.1,0
	c0,0,10.5,17.7,1.6,36l-0.4,0c-6.8,14.5-21.9,25.2-38.2,25.2c-22.1,0-38-19.7-38-41.8S1829.1,2865.2,1851.2,2865.2z M2295.8,3470
	c-17.3,0-35.2-17.5-35.2-40.2s17.2-42.5,36.5-42.5c17.3,0,31,17.2,31,40S2313,3470,2295.8,3470z M2321.7,2972.7
	c-21.9-1-35.9-17.9-35.9-40.7s15.3-38.8,36.8-41c21.8-2.2,38.8,17.6,38.8,40.4S2343.7,2973.7,2321.7,2972.7z M2450.7,1846
	c-0.8-0.2-2.8-0.5-3.3-1.5s-1.7-3.2-1.7-3.8c0-0.7,0.3-10.2,0.3-10.2l0.8-1.5l4-0.3l4.8-1.7l30.5-5.7l12.8-1.2h14c0,0,2.7,1.7,2.8,3
	c0.2,1.3,0.2,3.7,0.2,4.3c0,0.6,0.2,2.8-1.8,4.5c-2,1.7-1,1.2-2,1.7s-8.7,1.5-9.3,1.5c-0.7,0-16.2,2.7-17.7,2.7s-10.3,1.2-12.3,1.5
	c-2,0.3-11.2,2.2-12.2,2.3c-1,0.2-3.8,0.8-3.8,0.8s-0.2,0.7-1.3,1.3c-1.2,0.7-1.2,1-2.2,1.3
	C2452.3,1845.5,2451.5,1846.2,2450.7,1846z M2493.3,2547.5c-28.5,1.9-40.9-17-38.9-39.5c1.9-21.7,12.5-39.8,38.7-40.7
	c22.1-0.7,34.5,16.7,34.5,38.5C2527.5,2527.6,2513.5,2546.2,2493.3,2547.5z"/>
<path id="arm-left" class="st2" d="M2901,1629.7c0,0,36,4,39.3,30.7l20.7,179.3l32,319.3l34.7,340.7c0,0,24,304.7,24.7,315.3
	c0.7,10.7,10,204.7,10,204.7s6,240,6.7,252s-0.7,175.3-0.7,175.3l2,180.7l3.3,210l2.7,78l-38.7,32.7l-9.3-14c0,0,1.3-7.3,2.7-12.7
	c1.3-5.3,0.3-18.3,0.7-20c0.3-1.7,1-2.7,0-4.3c-1-1.7-7.7-4-8.7-5.7s-29-12.7-33.3-13.3c-4.3-0.7-23.3-6-26-7s-91-21-102.3-21.7
	s-69-13.7-72.3-14.3c-3.3-0.7-26.3-5-31-5s-38,0.7-48,9.7c0,0-14.5,14-14.5,15.5s-2.5,1.5-2.5,1.5l5-49.5c0,0,16.5-171,17.5-176
	s9-135.5,9-135.5s15.5-190.5,15.5-192s0-92.5,0-92.5V3121l4-133c0,0-1.5-80.5-2.5-93s-3-140.5-3-140.5l-0.5-97.5l-0.5-91.5V2477
	l-1.5-28.5c0,0,5.5-65,7-80s13.5-126,13.5-126l13.5-117c0,0,17-126.5,19-134s19-109,19.5-111.5s11.5-66,12-69s22.5-72,25.5-79
	S2876,1644.8,2901,1629.7z"/>
<path id="arm-right" class="st3" d="M1230.5,1612c0,0,26,57,40,93s28,68.5,33,85s27,108,29,114s21.5,91,24.5,111s13,79.5,13.5,87.5
	s9.5,162,9.5,176.5s10.5,149,12,161s9,98.5,11,108.5s20,111,26.5,130c0,0,17,36.5,16,45.5s-8.5,140.5-8.5,156.5c0,0,1.5,85,1.5,90
	s-1,128-0.5,134s2.5,138.5,2.5,138.5s4,170,4,172.5s7.5,149.5,7.5,149.5l5.5,145.5c0,0,6.5,84,8.5,89s5,15.5,6,22.5s-0.5,13-2,15
	s-2.5,2.5-7,5s-8.5,7.5-8.5,7.5s0-17,0.5-20s-0.5-8-1-11.5c0,0-5-14.5-28-19.5c0,0-63-14.5-91-6.5c0,0-68.5,12-80,15.5
	s-39.5,10.5-44,11.5s-9.5,0.5-21.5,4s-65,26-69.5,28.5s-33.5,17.5-33.5,17.5s4.5-58,5-64.5s5-215.5,5-215.5l0.5-111.5
	c0,0,2-144.5,2-146.5s1-241.5,2-265.5s2-127.5,2-133.5s3-140.5,3-140.5s2.5-132,2.5-137s5-175.5,5-177s1.5-91.5,1.5-91.5l3.5-195.5
	c0,0,6.5-108,8-119.5s19.5-147.5,25-178c0,0,39.5-213,42-219.5s9-46,12-51.5S1221.5,1605,1230.5,1612z"/>
<path id="collar-left" class="st2" d="M2295,1307c0,0,17,12.5,21,22.5c0,0,14,40.5,19,44.5s18,13.5,23,17.5s10.5,13,18.5,17
	s35.5,20.5,40.5,23s14,7,14,7s32,40.5,49.5,75.5c0,0,53,101.5,61.5,128l13,35c0,0,5.5,11.5-12,13.5c0,0-116.5,15.5-122.5,18
	S2271,1516,2271,1516l3.3-10.5c0,0,24.7-89.5,26-94.2C2301.7,1406.7,2314.7,1358.7,2295,1307z"/>
<path id="collar-right" class="st4" d="M1696.5,1427c0,0-62.5,116.5-66.5,124s-48,89-48,89s-4,14.5,18.5,17.5c0,0,64.5,8.5,82.5,13
	s44,10.5,44,10.5l132-207l-12.5-30c0,0-30.5-76.5-30.5-82.5s3.5-64,5-67.5s-15,19.5-17,23s-6.5,15-9,22.5c0,0-3.7,17.5-5.7,19.8
	s-23.3,20.7-30,28C1752.7,1394.7,1715.7,1422,1696.5,1427z"/>
<path id="lapel-right" class="st5" d="M1853,1461.7c0,0-23.7,33.3-25.7,37.7c-2,4.3-22.7,40.3-24.7,44.3s-46.7,68.3-51,77.7
	c-4.3,9.3-38,56.7-38,56.7s-31.3-5.7-37.7-5.3c-6.3,0.3-116.3-3-116.3-3l-25.7,0.3c0,0-32,1-23.3,33c0,0,12,34,28,58.3
	c0,0,110.3,193.7,115.3,200.7s23,42,29,54s66.5,105.5,68.5,110s119,188,130,202s98,127.5,98,127.5l120-333l-12-21.5
	c0,0-78.5-191.5-81-199s-82.5-254.5-84-260S1865.5,1476.8,1853,1461.7z"/>
<path id="lapel-left" class="st6" d="M2587,1706l-160.5,0.5L2387,1648l-76-108.5c-8-12-37-37-37-37s-1,8-3.5,14.5s-33,90.5-33,90.5
	s-52,174.5-54.5,185s-6,31.5-8.5,39s-24.5,69-27.5,73.5s-46,129-47.5,134.5s-11.5,59.5-12,61.5s-31,96-31,96l-50.5,141
	c0,0-70.5,193.5-72,197s-52.5,140.5-56,147.5s-24.5,63.5-26.5,67s-29.5,63-29.5,63c-7,13.5-28.5,76.5-29.5,79s-1,34.5-1,34.5
	s1-3.5,1.5-9s4-20.5,5-23.5s23.5-28,30-35s58.5-64.5,62.5-68.5s115.5-117.5,115.5-117.5s92-89,95.5-94.5s32-31,35-35.5
	s24-26.5,26-30.5s36-47,40-53s76-110,78.5-113.5s84.5-125.5,84.5-125.5c5.5-8.5,51.5-82,53-85s116.5-220.5,116.5-220.5l91.5-173
	C2653.5,1694,2587,1706,2587,1706z M2514.2,1832c-2,1.7-1,1.2-2,1.7s-8.7,1.5-9.3,1.5c-0.7,0-16.2,2.7-17.7,2.7s-10.3,1.2-12.3,1.5
	s-11.2,2.2-12.2,2.3c-1,0.2-3.8,0.8-3.8,0.8s-0.2,0.7-1.3,1.3c-1.2,0.7-1.2,1-2.2,1.3s-1.8,1-2.7,0.8c-0.8-0.2-2.8-0.5-3.3-1.5
	s-1.7-3.2-1.7-3.8c0-0.7,0.3-10.2,0.3-10.2l0.8-1.5l4-0.3l4.8-1.7l30.5-5.7l12.8-1.2h14c0,0,2.7,1.7,2.8,3c0.2,1.3,0.2,3.7,0.2,4.3
	S2516.2,1830.3,2514.2,1832z"/>
</svg>
