<?xml version="1.0" encoding="utf-8"?>
<!-- Generator: Adobe Illustrator 21.1.0, SVG Export Plug-In . SVG Version: 6.00 Build 0)  -->
<svg version="1.1" id="Layar1" xmlns="http://www.w3.org/2000/svg" xmlns:xlink="http://www.w3.org/1999/xlink" x="0px" y="0px"
	 viewBox="0 0 4160 6240" style="enable-background:new 0 0 4160 6240;" xml:space="preserve">
	 <pattern id="normal" patternUnits="userSpaceOnUse" width="270" height="270" patternTransform="">
		<image image-rendering="optimizeQuality" preserveAspectRatio="xMidYMid meet" xlink:href="/images/simulator/default/default_tex.jpg" x="0" y="0" width="270" height="270" style="-ms-interpolation-mode: bicubic;" />
  </pattern>
  <pattern id="left" patternTransform="rotate(23)" patternUnits="userSpaceOnUse" width="270" height="270">
		<image image-rendering="optimizeQuality" preserveAspectRatio="xMidYMid meet" xlink:href="/images/simulator/default/default_tex.jpg" x="0" y="0" width="270" height="270" style="-ms-interpolation-mode: bicubic;" />
  </pattern>
  <pattern id="right" patternTransform="rotate(-23)" patternUnits="userSpaceOnUse" width="270" height="270">
		<image image-rendering="optimizeQuality" preserveAspectRatio="xMidYMid meet" xlink:href="/images/simulator/default/default_tex.jpg" x="0" y="0" width="270" height="270" style="-ms-interpolation-mode: bicubic;" />
  </pattern>
<style type="text/css">
	.st0{fill:url(#normal);}
	.st1{fill:url(#normal);}
	.st2{fill:url(#right);}
	.st3{fill:url(#normal);}
	.st4{fill:url(#left);}
	.st5{fill:url(#left);}
	.st6{fill:url(#right);}
</style>
<path id="body-right" class="st0" d="M2142.3,3309.7l-17.3-242c0,0-23.3-102.7-22.7-118.7c0.7-16,19.3-73.3,19.3-73.3l10-66l-4.7-26
	l-55.3-186.7c0,0-114-354.7-114-362s-171.9-705.3-171.9-705.3l-68.1-14.7c0,0-32,12-40,14.7s-20.7,6-32.7,11.3s-12.7,9.3-37.3,17.3
	c-24.7,8-67.3,28.7-78,30s1.3-2.7-16.7,2.7s-52.7,21.3-63.3,25.3c-10.7,4-48,10.7-62.7,13.3c-14.7,2.7-34.7,6-44.7,9.3
	s-48,19.3-59.3,22s-18.7,8-18.7,8l-2.7,15.3l10,28.7c0,0,63.3,214,72,238.7s34,203.3,40.7,228s21.3,205.3,21.3,205.3l36.7,216
	l2,10.7c0,0,14,45.3,15.3,54s17.3,82.7,17.3,85.3s9.3,85.3,8,123.3l-4,126.7c-0.7,16.7-10.7,166-14,188s-26,140.7-26.7,146.7
	s0.7,10.7-2,16s-6,6.7-6.7,12s-14,140-15.3,152.7s-15.3,196-15.3,196s-2,175.3-2.7,178s7.3,209.3,6,212c-1.3,2.7-6,7.3-6.7,9.3
	s-2,8.7-2,8.7s-21.3,13.3-24.7,15.3c-3.3,2-14.7,8-14.7,8s16.7,32,18.7,42.7s20,39.3,20,43.3s0.7,4.7,6,8s20,13.3,20,13.3
	s56,24,97.3,30.7s174.7,8,182.7,8.7s46,0,58.7-2s68-20,80.7-29.3s71.3-66,86-78.7s38.7-62,61.3-86.7
	c22.7-24.7,89.3-186.7,113.3-267.3c0,0,34.7-115.3,38-134s18-101.3,18-101.3l0.7-234L2142.3,3309.7z M2109.1,3428.6
	c-25,0-43.1-19-43.1-40.4s15-37.5,43.1-37c25,0.4,45.4,17.3,45.4,38.7S2134.1,3428.6,2109.1,3428.6z"/>
<path id="bory-left" class="st1" d="M2949.7,1664.3c-9.3-3.3-43.3-11.3-68-19.3s-84.7-22-101.3-27.3c-16.7-5.3-81.3-22.7-99.3-28.7
	s-70-29.3-77.3-32.7c-7.3-3.3-46-14-50-16.7s-35.3-19.3-38.7-21.3l-27,43.7l-143,565c0,0-151,546-154,553s-89,221-91,227
	s-11,103-12,118s12,186,12,186s24,182,23,210s25,163,25,163l48,211c22,91,84,249,91,267s76,115,76,115c66,108,170,132,170,132
	c38,14,60,0.7,60,0.7c34-2.7,89.3-23.3,96.7-26c7.3-2.7,74.7-27.3,74.7-27.3l2.7-8c2-9.3,32.7-83.3,32.7-83.3
	c16-42.7,39.3-66,39.3-66s-20.7-4-27.3-5.3c-6.7-1.3-6.7-0.7-10-4.7l-2.7-34.7c0,0,14.7-336,20-360.7s-2-166.7-2-166.7
	s-6.7-129.3-8-135.3s-3.3-9.3-5.3-14s-8-26-10.7-30.7s0-8.7,0-16s-3.3-11.3-6-16.7c-2.7-5.3,0-6.7-1.3-12s-1.3-12-2-19.3
	s-7.3-48.7-10-66.7l-14.7-186c-5.3-88,2.7-126.7,1.3-156.7c-1.3-30,8.7-94,10-112s10.7-56.7,14-68.7s7.3-12,10.7-20s2-22,6-40.7
	s3.3-6.7,4-10s34-301.3,32-320.7c-2-19.3,39.3-244.7,46-275.3c6.7-30.7,74.7-312,74.7-312l11.3-40.7
	C2969,1673.7,2959,1667.7,2949.7,1664.3z M2110.4,2957.6c0-22.4,18.1-40.2,40.5-40.5c17.7-0.2,28.7,6.2,34.7,16.2l-0.1,0.1
	c0,0,11.6,19.2,1,43.1l0,0.2c-6.8,12.7-20.2,21.4-35.7,21.4C2128.5,2998.1,2110.4,2980,2110.4,2957.6z M2564.5,1782h-5l-6.5-2.5
	l-55-32l-7-3c0,0-2.5-0.5-1.5-4s7-10,11-9.5l65.5,40.5l1,7L2564.5,1782z"/>
<path id="lapel-right" class="st2" d="M1856.7,1540c0,0-3.3-1-10.3,2s-42.3,35-50.7,40.7c-8.3,5.7-60,48.7-64.3,52.7
	s-39.7,33.3-46.3,37.7s-52.3,33.3-55.3,35.7c-3,2.3-18,9-21.3,12s-8.3,3.3-9,9.3s0.7,13.3,2.7,17s21.3,54,21.3,54
	s66.7,162.7,67,163.7s57.3,144.3,57.3,144.3l52.7,118c0,0,47.3,112.3,48,113.7c0.7,1.3,68.7,140.3,68.7,140.3
	s103.1,205.6,142.1,258.1l61.5,85.5l24-33l-9-49.5c0,0-147-534-153-553.5s-85.5-390-85.5-390L1856.7,1540z"/>
<path id="arm-right" class="st3" d="M1154.7,2142c0,0-17.7,140.3-17.7,143s-29.3,284.7-29.3,284.7s-19.3,168.7-20,172.7
	s-22,204.7-22.7,221.3c-0.7,16.7-3.3,209.3-3.3,212s-2,166.7-2,166.7s-4,192-4.7,200s-0.7,174.7-4,188.7s0,156.7,0,160.7
	s3.3,113.3,2,120s0.7,78,0.7,78s-4,15.3-2.7,20s5.3,17.3,6.7,20c1.3,2.7,4,8,6,2.7s4-10.7,4-10.7s10-2.7,15.3,0.7
	c5.3,3.3,8,4.7,10,5.3c2,0.7,4.7,0.7,6-1.3s1.3-10.7,1.3-10.7l-29.3-22c0,0,108.7-22.7,142-23.3c33.3-0.7,121.3-17.3,150-8.7
	c0,0,44-2,34.7,53.3l6.7-12.7l-4.7-112.7c0,0-2-200.7-1.3-216s2.7-61.3,2.7-61.3l-4-12.7l-5.3-86.7v-220.7c0,0,7.3-142.7,6.7-144.7
	c-0.7-2,6.7-183.3,8.7-193.3s15.3-262.7,15.3-262.7s16-170.7,16.7-178s-3.3-48-4.7-58.7c-1.3-10.7-6.7-95.3-10-110l-16-202
	c0,0-3.3-87.3-3.3-102s-16-109.3-16-109.3s-6-17.3-9.3-47.3s-24.7-109.3-32-130s-38-122.7-46.7-137.3s-18.7-38.7-18.7-38.7
	s-9.3-12.7-18-9.3c0,0-10.3,2.7-14.3,5s-22,14.3-24,17.7c-2,3.3-5,4.3-6,7s-7,29-8,38s-12.7,76.3-12.7,76.3s-13.7,86.3-14,88
	s-11.7,72.7-12.3,80.3c-0.7,7.7-7.7,73-7.7,74s-10.7,80.7-10.7,83.7"/>
<path id="collar-left" class="st4" d="M2373.7,1375c0,0,16.7,39.3,17.3,50.7c0.7,11.3,0,84-0.7,89.3s-1.3,18.7-1.3,18.7l3.3,14.7
	c0,0,109.3,83.3,112.7,89.3s38,28,38,28l6-3.3c0,0,14.7-7.3,20.7-9.3s27.3-9.3,31.3-10.7c4-1.3,6,4.7,5.3-6.7
	c-0.7-11.3-16-30.7-22-38.7s-69.3-78-69.3-78s-14-7.3-18-10s0-5.3-12.7-11.3s-15.3-8-24-17.3s-75.3-96-79.3-99.3
	S2373.7,1375,2373.7,1375z"/>
<path id="lapel-left" class="st5" d="M2642,1726c-1-2-6-6.5-12-9.5s-20.5-6-29.5-11s-50-40.5-61-47.5s-26-22.5-33.5-29
	s-44-43-49.5-47s-25-23-27.5-26s-6-4.5-11-7s-14-10.5-21-12.5s-8-0.5-8-0.5l-29.3,212.3c-17.3,129.3-50.7,279.3-50.7,279.3
	s-35.3,181.3-38.7,200c-3.3,18.7-57.3,228-57.3,228l-56.7,229.3c0,0-57.3,216-63.3,229.3s-1.3,32.7-5.3,46.7s-1.3,46.7-0.7,44.7
	s10-34.7,12.7-43.3c2.7-8.7,4-33.3,14.7-58.7c10.7-25.3,17.3-44,25.3-62s58-95.3,61.3-102s54.7-84.7,58.7-90.7s27.3-47.3,27.3-49.3
	s31.3-60,31.3-60c10-24.7,90.7-190.7,98-204.7s73.7-178.5,73.7-178.5s50.5-125,54-133.5s26.5-74.5,29-87s25.5-71.5,25.5-71.5
	s7-20.5,8-23s5-15.5,7.5-27s7-20,9-28s9.5-22.5,11-29s6-18.5,10-23.5S2643,1728,2642,1726z M2564.5,1782h-5l-6.5-2.5l-55-32l-7-3
	c0,0-2.5-0.5-1.5-4s7-10,11-9.5l65.5,40.5l1,7L2564.5,1782z"/>
<path id="arm-left" class="st6" d="M2959.7,1672.3c4.7-1.3,5.3-2.7,11.3-2s12,3.3,15.3,4s11.3,2.7,14.7,6.7s18.7,31.3,21.3,36.7
	c2.7,5.3,1.3,6,1.3,14.7s18,150.7,18.7,156.7s28,250,29.3,272.7s29.3,288,29.3,288l15.3,158.7c0,0,21.3,258,22.7,266.7s8,99.3,8,106
	s-3.3,142.7-3.3,142.7s-3.3,144-6,166.7s-4.7,68.7-5.3,77.3c-0.7,8.7-2,51.3-0.7,62.7c1.3,11.3,2,2,2.7,20s-2,81.3-2,81.3l0.7,216.7
	c0,0,0,130.7,0,142.7s-0.7,38-0.7,41.3s2,118.7,2.7,126s0,22,0.7,24.7s-0.7,8.7-5.3,10.7c-4.7,2-8,4.7-13.3,8s-8,6.7-14,10.7
	s-14,10-24.7,9.3s-13.3-1.3-13.3-1.3l-4-28.7c0,0,40,2,48,0.7s15.3-5.3,11.3-8s-187.3-34-210.7-35.3c-23.3-1.3-67.3-9.3-81.3-8
	s-25.3,1.3-26,5.3s-2,22.7-2,22.7s-4-3.3-9.3-6.7c-5.3-3.3-10-10.7-10-10.7l-2.7-4.7l10.7-242l10-232c0,0,15.3-172,16.7-178
	c1.3-6,5.3-58,5.3-63.3s2.7-149.3,2.7-154.7s-4-242-5.3-254s-12-237.3-12.7-270s0-61.3,1.3-64.7c1.3-3.3,1.3-53.3,2.7-66.7
	c1.3-13.3,5.3-65.3,5.3-76s5.3-68.7,5.3-68.7s6-126,7.3-136.7s6-90.7,8-107.3s10.7-41.3,13.3-51.3s11.3-52,12.7-56
	c1.3-4,10.7-63.3,12.7-70s20-100.7,21.3-104s29.3-102.7,34-116.7s20-50,20-50L2959.7,1672.3z"/>
<path id="collar-right_1_" class="st6" d="M1880.6,1386.2c0,0-2.3-1.8-3.6-0.8s-13.7,13-16,15.3s-52.3,54-54,56s-10.7,10-14.3,13.3
	c-3.7,3.3-18.7,13.7-21.3,15c-2.7,1.3-31.7,14-33.7,15.7s-9.3,11.7-13.3,13s-20,8-23.3,14.7s-41.3,51.7-45,57.7s-16,27-20.3,31.7
	s-21.3,20,0,27.3s54.7,18,54.7,18l4,1.3c0,0,45.3-34.7,47-36.3c1.7-1.7,83.3-71,89.3-75.7s25.3-13.3,25.3-13.3s-1.3-36.7-1.3-40
	s5.7-26.7,7.3-32s11-56.7,11-56.7L1880.6,1386.2z"/>
</svg>
