<?xml version="1.0" encoding="utf-8"?>
<!-- Generator: Adobe Illustrator 21.1.0, SVG Export Plug-In . SVG Version: 6.00 Build 0)  -->
<svg version="1.1" id="Layar1" xmlns="http://www.w3.org/2000/svg" xmlns:xlink="http://www.w3.org/1999/xlink" x="0px" y="0px"
	 viewBox="0 0 4160 6240" style="enable-background:new 0 0 4160 6240;" xml:space="preserve">
<pattern id="normal" patternUnits="userSpaceOnUse" width="270" height="270" patternTransform="">
		<image image-rendering="optimizeQuality" preserveAspectRatio="xMidYMid meet" xlink:href="/images/simulator/default/default_tex.jpg" x="0" y="0" width="270" height="270" style="-ms-interpolation-mode: bicubic;" />
  </pattern>
  <pattern id="left" patternTransform="rotate(23)" patternUnits="userSpaceOnUse" width="270" height="270">
		<image image-rendering="optimizeQuality" preserveAspectRatio="xMidYMid meet" xlink:href="/images/simulator/default/default_tex.jpg" x="0" y="0" width="270" height="270" style="-ms-interpolation-mode: bicubic;" />
  </pattern>
  <pattern id="right" patternTransform="rotate(-23)" patternUnits="userSpaceOnUse" width="270" height="270">
		<image image-rendering="optimizeQuality" preserveAspectRatio="xMidYMid meet" xlink:href="/images/simulator/default/default_tex.jpg" x="0" y="0" width="270" height="270" style="-ms-interpolation-mode: bicubic;" />
  </pattern>
<style type="text/css">
	.normal{fill:url(#normal);}
	.left{fill:url(#left);}
	.right{fill:url(#right);}

</style>
<g id="pants">
	<path class="normal" d="M1425.8,4336.9c0,0-10,32.8-13.1,41s-20.5,54.1-26.2,72.3s-14.6,46.1-15.1,61.2c-0.3,8.2,0.7,24.5-0.1,40
		c-0.5,10.8,15.4,36.9,15.3,43.8c-0.3,15.3-8.6,167.4-8.6,169.4s-10,159.3-11.4,177c-0.3,3.4-0.4,8.6-0.4,14.9c0,18.5,29,58,29,73.6
		c0,3.3,0,9-10.8,16.7c0,0,23.9,91.7,25.7,111.1s-0.5,144.5-3.6,155.8c-1,3.4-9.5,9-16.7,11.7c0,0,2.3,29.8-19.4,42.9
		c1.4,35.6,9,143.4,11,177s6,131.6,7.1,160c1.1,28.5,5.4,140.4,5.4,140.4l583.1,0.6c0,0,0.6,0.8,5.2-29.3s15.4-124.4,18.8-159.5
		c3.4-35,16-159.8,16-159.8s12.2-117.9,16.2-156.7c4-38.7,11.9-120.2,15.4-153.5c3.4-33.3,10.5-91.1,15.4-124.4
		s22.2-152.7,25.1-175.7c2.8-23.1,5.7-37.6,5.7-37.6s25.6,48.1,29,59.8c3.4,11.6,20.2,74.9,32.8,127.6
		c12.5,52.7,48.4,209.9,55.8,244.7c7.4,34.8,36.4,180.3,41.3,221.9s15.1,134.1,19.1,177.7s17.4,164.6,17.4,164.6l585.6-0.3
		c0,0-2-46.1-0.3-110.8c1.7-64.6,2-125.3,2.5-170.6s0.8-60.4,3.1-100.8c2.3-40.5,4.9-81.3,6.3-109c0,0-13-0.6-22.2-4.6
		s-18.4-16.1-18.4-16.1s-9.8,3.4-19.5,1.7s-12.6-8.6-12.6-8.6c3.4-71.8-8-118.3-3.4-156.8c0.5-27.4,17.2-111.4,17.2-111.4
		c-8-4.5-9-11.3-9.2-17.2c-0.7-28.6,45.9-111.4,45.9-111.4c-16.7-9.8-13.8-18.4-13.8-18.4c-1.4-35,7.5-157.9,17.8-253.8
		c-1.6-32.8,7.9-83.5,6.2-103.9c-0.8-8.8-1.5-16-2.1-21.1c-2-17.1-11.1-76.9-15.7-104.8c-4.6-27.9-17.1-75.8-18.8-78.9
		s-45.8-86.9-45.8-86.9H1466.6L1425.8,4336.9z"/>
</g>
<path id="body-right" class="normal" d="M1852.6,2165.6c0,0-1.1,21.3,4.5,43.7c1.9,7.5,20.7,56.7,39.6,122.3
	c37.6,131,89.6,318.1,91.8,321.8c3.4,5.6,25.3,66.1,37.6,91.8c12.3,25.8,51.7,126.1,63.9,149.3c12.3,23.5,31.1,87.3,46.8,106.3
	s-42.3,77.3-42.3,77.3s-117.6,152.3-127.6,159s-58.2,28-58.2,28s-11.2,763.6-10.1,770.3c1.1,6.7,7.8,132.1,7.8,132.1l30.2,34.7
	l210.5,204.9l-3.1,14.4l-71.7,62.2c0,0-67.8,64.6-79.6,64.6c-9.1,0-25.8-10.6-49.6-16.6c-14.6-3.7-130.3-40.3-219.8-69.7
	c-57-18.7-103.1-35.1-107.1-36.3c-10.5-3-62.7-20.9-70.2-23.9s-109-55.2-113.5-58.2s-9-20.9-9-25.4s10.5-112,11.9-131.4
	c1.5-19.4,11.9-86.6,13.4-101.5s10.5-215,16.4-255.3s0-268.7,1.5-300.1c1.5-31.4,9-70.2,3-86.6c-6-16.4-22.4-40.7-22.4-40.7
	s-0.8-30-0.8-39s-14.1-174.2-14.1-174.2s-22.9-113.7-21.4-119.7s8.7-22.6,11.6-34.6c3-11.9,8.4-133.9,8.4-133.9s5.8-87.2,12.5-174.1
	c5.8-75.3,12.8-150.4,11.1-169.6c-3.2-37.3-0.4-131-1.9-150.4s-8.4-71.7-5.4-77.7s14.9-10.5,22.4-11.9c7.5-1.5,26.9-6,26.9-6
	s120.9-34.3,186.6-67.2C1683.4,2244.6,1835.1,2185.2,1852.6,2165.6"/>
<path id="body-left" class="normal" d="M2826.6,4308.9c-5.6-12.3-14.6-54.9-24.6-91.8c-10.1-37-15.7-131-17.9-148.9
	s-16.8-134.4-16.8-138.8c0-4.5-4.5-142.2-5.6-145.6c-1.1-3.4-3.4-195.9-1.1-249.7c2.2-53.7,6.7-135.5,12.3-159s15.7-58.2,16.8-63.8
	c0.1-0.7,3.6-11.2,4.1-16.1c2.1-21.5,7.5-73.4,9.6-106.4c1-14.9,1.6-26.4,1.9-29.1c1.1-10.1,6.4-31.1,9.3-40.8
	c4.4-14.6,3.9-16.4,5.2-17.6c5.2-4.9-1-12.8-2.2-18.4s-3.1-18.6-3.1-28.7s-0.4-23.4-0.4-32.4c0-9.3,5.7-126.7,5.6-123.2
	c0,0-1.7-86.7-1.7-102.3c0-15.7-4.3-104.6-5.4-118c-0.5-6.6-9.1-76.4-2.8-144.5c6.8-72.9,0-119.6-2-138.4c0,0-1.1-11.2-1.1-20.2
	s-3.4-19.5-3.4-19.5s-12.3-8.5-19-11.9s-40.3-13.4-56-15.7c-15.7-2.2-94.1-32.5-123.2-41.4s-157.9-68.3-172.4-76.1
	c-14.6-7.8-44.8-29.1-44.8-29.1s1.6,11,6.1,26.7s-3,66.7-6.3,80.2s-9.9,36.4-12.2,53.2c-2.2,16.8-35.1,132.1-38.4,144.4
	c-3.4,12.3-39.1,137-47,162.7c-7.8,25.8-32.5,116.1-44.7,135.8c-16.3,26.1-83.3,152.4-98.7,181.3c-4.1,7.8-6.1,8.7-16,25.9
	c-32.3,56.4-112.5,160.5-112.5,160.5c-26.9,33.6-96.3,95.2-101.9,97.4s-22.4,12.3-22.4,12.3s3.4,35.8,1.1,44.8
	c-2.2,9-1.1,57.1-2.2,80.6s-11.2,395.3-11.2,395.3s2.2,97.4,2.2,108.6c0,11.2,0,131,0,137.7s6.7,159,6.7,162.4s3.4,19,3.4,19
	s120.9,112,125.4,115.3c4.5,3.4,197.1,164.6,215,178c17.9,13.4,65.6,62.3,65.6,62.3s42.9-20.2,91.1-31.4
	c48.1-11.2,140.3-39.9,158.3-47.8c17.9-7.8,149.7-50.4,159.7-53.7c10.1-3.4,71.7-28,77.3-34.7s56.7-33.9,56.7-33.9
	s-3.1-10.6-5.2-17.6C2836.1,4341.6,2832.2,4321.2,2826.6,4308.9z M1959.6,3268.3c10.5,0,12.8,0.7,18.9,7.2l0.4,0.4
	c0,0-0.7-0.6-0.4-0.4c0.4,0.4,0,0,0.4,0.4l0.7-0.3c2.1,2.5,5.2,7.2,5.5,18.2c-1.5,14.6-7.5,18.2-24.9,18.2
	c-18.4,0-27.3-6.5-27.3-22.4C1933.1,3273.6,1941.2,3268.3,1959.6,3268.3z M1950.8,3559.4c8.7,0,15.3,2.2,20.9,8.1
	c1.3,1.3,2.5,2.8,3.5,4.4c0.8,1.2,1.5,2.5,2.2,3.8l0,0c1.9,7.4,0.7,10.4,0.5,14.4c-1.9,15.9-10.9,23.3-26.8,23.3
	c-17.2,0-27.2-10-27.2-27.8S1933.6,3559.4,1950.8,3559.4z M1946.4,3904.8c-17.8,0-25.1-7.4-25.1-25.1s6.6-23.8,24.4-23.8
	c15.2,0,24.2,1.6,27.6,15.7l-1.9,16.3C1966.9,3899.9,1960.1,3904.8,1946.4,3904.8z M2287.4,3273.6c0-17.8,9.5-27,27-27
	s27,6.6,27,24.4s-9.5,27.6-27,27.6C2296.9,3298.8,2287.4,3291.4,2287.4,3273.6z M2304.3,3571.9c0-17.8,10.1-25.1,27.6-25.1
	s24.4,8.5,24.4,26.3s-6.9,27-24.4,27S2304.3,3589.7,2304.3,3571.9z M2332.5,3867.8c0-17.8,11.7-25.7,29.8-25.7s26.6,7.3,26.6,25.1
	s-8.5,26.3-26.6,26.3C2344.2,3893.6,2332.5,3885.6,2332.5,3867.8z M2409,4197.5c-16,0-21.9-6.1-21.9-23.2s6.6-25.7,22.6-25.7
	s24.4,6.1,24.4,23.2S2424.9,4197.5,2409,4197.5z"/>
</svg>
