<?xml version="1.0" encoding="utf-8"?>
<!-- Generator: Adobe Illustrator 21.1.0, SVG Export Plug-In . SVG Version: 6.00 Build 0)  -->
<svg version="1.1" id="レイヤー_12" xmlns="http://www.w3.org/2000/svg" xmlns:xlink="http://www.w3.org/1999/xlink" x="0px"
	 y="0px" viewBox="0 0 2695 4049.7" style="enable-background:new 0 0 2695 4049.7;" xml:space="preserve">
<pattern id="normal" patternUnits="userSpaceOnUse" width="270" height="270" patternTransform="">
		<image image-rendering="optimizeQuality" preserveAspectRatio="xMidYMid meet" xlink:href="/images/simulator/default/default_tex.jpg" x="0" y="0" width="270" height="270" style="-ms-interpolation-mode: bicubic;" />
  </pattern>
  <pattern id="left" patternTransform="rotate(23)" patternUnits="userSpaceOnUse" width="270" height="270">
		<image image-rendering="optimizeQuality" preserveAspectRatio="xMidYMid meet" xlink:href="/images/simulator/default/default_tex.jpg" x="0" y="0" width="270" height="270" style="-ms-interpolation-mode: bicubic;" />
  </pattern>
  <pattern id="right" patternTransform="rotate(-23)" patternUnits="userSpaceOnUse" width="270" height="270">
		<image image-rendering="optimizeQuality" preserveAspectRatio="xMidYMid meet" xlink:href="/images/simulator/default/default_tex.jpg" x="0" y="0" width="270" height="270" style="-ms-interpolation-mode: bicubic;" />
  </pattern>
<style type="text/css">
	.normal{fill:url(#normal);}
	.left{fill:url(#left);}
	.right{fill:url(#right);}

</style>
<g id="body-left_1_">
	<path class="normal" d="M1822,2755.4c0.7-6-26-60.7-26-60.7s-15.3-52.7-16-59.3c-0.7-6.7-0.7-10-0.7-10l3,2.4c0,0,13.9,18.8,10.1,2.4
		c-3.8-16.5-10.8-42.3-13.4-48.2s-15.5-33.2-19.5-53.4s-8-38.8-8-38.8s-11.8-40.4-11.5-68.9c0.2-28.5,6.6-71.7,13.4-95.9
		s19.3-49.6,23.3-54.3s49.1-109,49.1-109l58-628.1c0,0-5.7-1.1-12.9-3.3c-7.2-2.2-64.3-21.5-74.7-24.5
		c-10.4-2.9-64.9-18.3-78.7-21.5c-13.7-3.3-43.7-12.7-46.7-13.4c-2.9-0.7-6.1-2.7-6.1-2.7s-208,322-231.3,362s-76.7,182.7-80,193.3
		c-3.3,10.7-7,55.3-7,55.3l-6.4,272.7c8.8,5,13.4,14.3,14,23.2c0.8,12-2.8,19.5-2.8,19.5s-5.2,8.9-12.5,13.6l-10.6,455
		c0,0,1.3,67.3,32.7,122.7c0,0,34.7,60,94.7,70.7c0,0,62,22,136.7,16s94-10,94-10s107.3-21.3,114.7-23.3s20.7-9.3,20.7-9.3l22.7-10
		C1844,3019.4,1821.4,2761.4,1822,2755.4z"/>
</g>
<path id="body-right" class="normal" d="M1372.3,2362.4c-1.3-41.7-9.2-120.1-11-136.6s-20.6-134.4-20.6-134.4l-252.6-621.2
	c0,0-12.3,5.2-17,6.6c-4.7,1.3-31.2,7.6-41.2,11.5s-47.5,18.4-55.8,21c-8.4,2.6-43.3,13.6-49,16.5c-5.8,2.9-45.9,20.5-46.7,21
	s-4.9,1.3-4.9,1.3s-16.8,26.5-17.3,118.8s24.5,493.8,47.5,535c22.9,41.2,59.9,79.5,59.9,79.5s6.9,14.3,9.5,25.8s8.9,47.5,13,72
	c4.2,24.5,11,63.1,11,67.3s0.2,22.7-2.2,31.9s-0.5,7.1-0.5,7.1s-2.4,4.7-2.4,7.1c0,2.4-1,10,0.3,11.8c0,0-5.5,11.3-6.6,13.9
	c-1,2.6-3.9,15.5-7.3,23.9c-3.4,8.4-20.7,48.8-23.1,51.9c-2.4,3.1-3.7,22.8-0.3,27.3s12.6,16,13.1,21s-0.5,10.2-0.8,13.1
	c-0.3,2.9-4.2,21.5-5.5,25.4s-6.6,19.7-6.6,19.7l-30.4,66.6V3043c0,0,27.3,7.6,36.2,10.2c8.9,2.6,23.9,6.3,32,8.1
	s63.7,10.2,73.2,11.8c9.4,1.6,9.4,1.6,9.4,1.6s10,1,13.4,1.3s18.1-3.9,23.1-4.5s45.9-5.8,70.5-13.4c24.6-7.6,49.3-19.4,66.3-35.4
	s36.4-40.1,43.8-54.3s18.4-38.5,26-67.4c7.6-28.8,18.4-70.5,22.3-98.8s13.4-100.4,16.3-137.1s8.1-118.8,10.2-162.8
	C1369.4,2458.1,1373.6,2404.1,1372.3,2362.4z M1348.6,2392.7c0,0-6.6,14-18.9,12.4s-22.9-6.5-23.5-11.7s-1.2-8.5-1.2-8.5v-15.7
	c0,0,9.6-19.6,25.4-17.4s19.8,10.7,20.5,22.7S1348.6,2392.7,1348.6,2392.7z"/>
<g id="arm-right">
	<path class="normal" d="M873.5,1548.1c0,0-15.5,11-33,43.4s-30.4,61.5-35.6,77c-5.2,15.5-32.4,104.9-38.2,135.3s-15.5,83.5-16.8,95.8
		s-14.9,111.3-16.8,162.5c-1.9,51.2-4.5,167.6-5.2,218.8c-0.6,51.1-3.2,250.5-3.9,269.9c-0.6,19.4-7.8,146.9-8.4,178.6
		c-0.6,31.7-3.2,131.4-3.9,167.6c-0.6,36.2-3.6,135.8-3.6,135.8s-30,13-49.4,22.7s-35.7,22.2-35.7,22.2s-1.9,3.9,2.6,5.8
		s23.9,5.8,36.2,9.1c12.3,3.2,43.2,19.5,47.1,22.1s7.8,6.5,9.7,5.8s18.8-16.2,29.8-18.8s38.2-16.2,75.7-16.8s70.6,3.2,74.4,4.5
		c3.9,1.3,15.5,3.9,24.6,12.3s12.3,12.9,15.5,13.6c3.2,0.6,5.8,0,5.8-2.6s0.1-51.9,2.1-62.3c1.9-10.4,2.6-13.6,2.6-13.6
		s-0.6-6.4-5.1-7.7c0,0,2.5-25.9,3.2-42.8s1.3-77.7,2.6-96.4c1.3-18.8,3.2-47.2,2.6-61.5s0.6-39.5,1.9-46.6s3.9-36.2,3.9-70.6
		s-3.9-143-5.2-163.1s-5.8-139.8-1.3-183.2s11.7-83.5,11.7-83.5s-3.2-28.5-15.5-77.7s-22.7-86.7-25.9-101.6
		c-3.2-14.9-9.1-65.4-11-79.6s-9.1-58.3-11-66.7c-1.9-8.4-4.5-21.4-5.8-39.5s-5.2-63.4-5.8-75.7c-0.6-12.3-2.6-37.5-7.1-52.4
		s-8.4-79.6-9.1-105.5C871.5,1656.8,868.9,1566.8,873.5,1548.1z"/>
</g>
<g id="collar-right">
	<path class="right" d="M1243.7,1297.9c0,0-21,7.8-24.7,9.2s-22,11.8-24,15s-3.8,5.2-7,8.8s-15.2,15.5-20.2,21.8s-33.8,37.5-45.8,44
		s-20.5,9-20.5,9s-13.5,4.2-19,4.2s-10.5,3.2-11,5.2s-2,7.5,1.2,12.8s4,3.2,7,13.5s5.8,23.5,7.8,29.5s7.5,18,9.2,29.5
		s3.2,27.5,5,37.8s12.8,74,20,97.2s22.8,67.2,22.8,67.2s22.8,62.8,43,102s44.8,84,63,114.8s28,50,31,56s26.2,54,36.5,81.2
		c10.3,27.2,32.2,73.5,40.5,150.2c0,0-2.2-61-4.8-82.5s-12.1-92.2-15.9-106.4s-21.9-109.5-23.6-117.2s-5.7-40.4-7.1-51
		s-5.6-28.3-8.9-38.5s-17.9-42.6-23.1-58.9s-38.5-101.1-38.5-101.1s-16-53-17.2-58.7s-12.3-32.6-16-39.1s-7.1-23.1-7.1-23.1
		s-5.7-11-4.7-14.8c1-3.8,2.4-10.9,4.1-13.6c1.7-2.7,0.1-15.5-1.2-17.8s-0.5-8.4,0-13.9s-4.6-19.4,1.2-21.7
		c5.8-2.3,19.3-8.2,26.1-17.2s12.6-18.5,17.8-37.9s5.6-27.4,5.9-30.8S1243.7,1297.9,1243.7,1297.9z"/>
</g>
<g id="collar-left">
	<path class="left" d="M1498,1304.4c0,0,39.4,15.7,46.4,23s21,28.7,26,35.3c5,6.7,18.7,25.3,27.3,37c8.7,11.7,22.3,30.7,25.7,33.3
		c3.3,2.7,20.3,17,30.3,25.7s14.3,13.7,26,21s19.7,9.3,20.3,14.3c0.7,5-2,10.3-4,13.3s-32.7,50.3-38.7,58s-15.7,17.3-23,29.7
		c-7.3,12.3-17.7,25.7-19.3,29c-1.7,3.3-11,15.3-20.3,27.3s-42.3,53.3-76,101.3s-53.3,76-57.7,82.3c-4.3,6.3-36,50-51.7,80.7
		s-31,63-40.7,93s-22.3,70-22.3,70s-7.3-40.2-10-50.9c0,0,7.3-47.4,7.9-54.7c0.7-7.3,0.5-20.4,3-27.1c1.9-4.9,23.6-61,33.3-88.2
		c9.9-27.6,50.8-129.4,59.5-149.1s57.4-130.6,67.1-146.3c9.7-15.7,17.6-47.3,19.3-54c1.7-6.7,6.9-31.7,7.2-36.7s1.1-13.3,2.1-15.6
		c1-2.3,10.1-5.9,9.4-12.6s-3.8-6.4-6.8-9.7c-3-3.3-18.6-12.3-23.6-26s-8.6-25.7-11.3-43.4C1500.9,1347,1498,1304.4,1498,1304.4z"/>
</g>
<g id="arm-left">
	<path class="normal" d="M1884.7,1533.1c0,0,12.7,2.3,17,3.7c4.3,1.3,7.7,3.7,10.7,12s30,93.7,34,102s11.7,35.3,17.3,53.3
		s24.3,94,26,104.3s9.7,64.3,16.7,129s11,76.7,13.7,159c2.7,82.3,5,172,5,172s2.7,88.3,2.7,112s1.7,102.3,2.3,116.3
		c0.7,14,2.7,110,2.7,117.7s1.7,110.3,1.7,126s3,133.7,4,158s5.3,127.3,9.7,143c0,0,0.3,2.7,5.3,4.7s55,14,63.3,16.7
		s39.7,11.7,38.3,14.3c-1.3,2.7-5,3.3-5,3.3s-59,7.7-66.3,10s-57.2,14-75.8,21.7c-18.7,7.7-27.1,4.9-27.1,4.9s-17.9-7.6-25.9-9.6
		s-50.3-10.4-59.9-10c-9.7,0.3-33.2,0.8-36.8,1.1c-3.7,0.3-9.4-7.1-16.1-7.1s-11.4,1-13.1,2.6c-1.7,1.7-9.2-0.1-9.2-8.4
		s4.5-19.7,4.2-28.7s-2-35.7-4-42.3c-2-6.7-4-14.7-4.3-18.3c-0.3-3.7,2-7,5-8.7s10.7-5.3,10.7-5.3s-8.7-54-9.7-71.3
		s-2.3-81.3-4.7-99.3s-11-80.3-15.3-94s-5-22-5-22s3-70,1.3-86.7s-4.7-91-6-111.7s-8-147-10-175s-3.3-49-3.3-49l-1.7-3.3
		c0,0,0.3-20,1.3-26.7s4.7-32.3,5-37.3s4-19.3,6-26.3s12.3-49.7,14-64.7s4.7-60.3,4.7-60.3s4.7-44,6.3-52.3
		c1.7-8.3,5.3-23.3,7.3-30.3s3.3-7.3,3-19.7c-0.3-12.3,1-29.3,3-36s8-29,8.7-41s4.3-84.3,5.7-108.7c1.3-24.3,5.3-89,8.3-115.3
		s14.3-79.3,16-87.7c1.7-8.3,5.3-17.3,7-19.7C1874.7,1541.7,1884.7,1533.1,1884.7,1533.1z"/>
</g>
</svg>
